M48
; DRILL file KiCad 10.0.5 date 2026-08-02T12:15:27
; FORMAT={-:-/ absolute / metric / decimal}
; #@! TF.CreationDate,2026-08-02T12:15:27+02:00
; #@! TF.GenerationSoftware,Kicad,Pcbnew,10.0.5
; #@! TF.FileFunction,Plated,1,2,PTH
FMAT,2
METRIC
; #@! TA.AperFunction,Plated,PTH,ViaDrill
T1C0.200
; #@! TA.AperFunction,Plated,PTH,ViaDrill
T2C0.300
; #@! TA.AperFunction,Plated,PTH,ComponentDrill
T3C0.600
; #@! TA.AperFunction,Plated,PTH,ComponentDrill
T4C0.800
; #@! TA.AperFunction,Plated,PTH,ComponentDrill
T5C1.000
; #@! TA.AperFunction,Plated,PTH,ComponentDrill
T6C1.100
; #@! TA.AperFunction,Plated,PTH,ComponentDrill
T7C1.200
; #@! TA.AperFunction,Plated,PTH,ComponentDrill
T8C1.300
; #@! TA.AperFunction,Plated,PTH,ComponentDrill
T9C1.854
; #@! TA.AperFunction,Plated,PTH,ComponentDrill
T10C2.200
; #@! TA.AperFunction,Plated,PTH,ComponentDrill
T11C2.540
%
G90
G05
T1
X208.85Y-56.9
X211.5Y-58.9
X211.9Y-54.5
X213.25Y-57.9
T2
X144.05Y-35.16
X144.05Y-37.7
X144.05Y-40.24
X146.59Y-35.16
X146.59Y-37.7
X146.59Y-40.24
X149.13Y-35.16
X149.13Y-37.7
X149.13Y-40.24
X160.6Y-55.7
X161.7Y-57.8
X161.7Y-59.0
X161.7Y-60.0
X161.7Y-61.4
X161.7Y-62.8
X161.7Y-64.2
X161.7Y-65.5
X161.7Y-66.9
X161.7Y-68.4
X165.8Y-51.1
X165.8Y-52.4
X165.8Y-53.9
X171.1Y-67.0
X176.446Y-57.518
X176.9Y-61.7
X181.171Y-49.5
X181.5Y-44.9
X182.9Y-49.5
X184.2Y-49.3
X184.5Y-37.2
X184.806Y-44.474
X185.7Y-45.6
X186.6Y-46.5
X187.8Y-34.0
X187.9Y-51.4
X190.9Y-37.3
X191.025Y-49.6
X191.1Y-59.8
X191.4Y-34.5
X192.4Y-55.4
X192.4Y-59.7
X192.5Y-47.9
X193.5Y-59.7
X194.5Y-67.4
X194.9Y-61.8
X196.0Y-58.1
X196.8Y-37.3
X197.1Y-57.2
X197.383Y-50.805
X198.0Y-61.4
X198.2Y-34.5
X199.7Y-51.5
X200.3Y-54.8
X200.3Y-56.0
X200.6Y-61.7
X201.7Y-51.1
X202.4Y-58.9
X203.3Y-33.8
X204.4Y-37.7
X205.141Y-52.453
X205.28Y-53.749
X205.8Y-51.8
X206.0Y-68.4
X206.08Y-57.36
X206.8Y-51.9
X207.4Y-52.6
X207.5Y-37.7
X207.7Y-63.9
X207.8Y-33.7
X208.1Y-49.5
X208.7Y-68.45
X209.2Y-38.4
X209.8Y-48.4
X209.8Y-55.45
X209.8Y-56.7
X209.8Y-57.95
X210.55Y-38.0
X211.05Y-55.45
X211.05Y-56.7
X211.05Y-57.95
X211.2Y-64.0
X211.654Y-61.082
X212.0Y-68.4
X212.3Y-55.45
X212.3Y-56.7
X212.3Y-57.95
X212.5Y-50.3
X212.6Y-52.1
X212.9Y-33.8
X214.9Y-68.4
X215.1Y-62.3
X215.6Y-47.8
X215.6Y-48.9
X216.2Y-60.1
X216.5Y-34.0
X216.5Y-57.4
X216.7Y-49.2
X216.8Y-48.2
X216.9Y-53.1
X217.0Y-51.3
X217.1Y-57.3
X217.189Y-60.304
X217.5Y-48.8
X218.1Y-40.2
X218.1Y-41.1
X218.225Y-48.8
X218.4Y-38.5
X219.0Y-37.9
X219.0Y-38.6
X219.6Y-40.025
X219.7Y-62.2
X220.1Y-34.0
X221.9Y-51.3
X222.2Y-50.4
X223.2Y-53.1
X223.43Y-35.16
X223.43Y-37.7
X223.43Y-40.24
X223.9Y-47.225
X223.9Y-48.775
X224.0Y-33.7
X224.0Y-68.1
X224.7Y-48.0
X225.637Y-46.8
X225.637Y-49.1
X225.97Y-35.16
X225.97Y-37.7
X225.97Y-40.24
X227.0Y-33.5
X227.3Y-42.6
X228.51Y-35.16
X228.51Y-37.7
X228.51Y-40.24
X229.8Y-42.6
X230.0Y-44.2
X230.1Y-46.2
X230.2Y-34.1
X230.2Y-37.6
X230.2Y-40.4
X230.2Y-48.2
X230.2Y-50.5
T4
X118.5Y-63.6
X123.5Y-41.82
X123.5Y-44.36
X123.5Y-46.9
X133.74Y-63.6
X135.6Y-30.2
X135.94Y-49.4
X137.8Y-62.72
X137.8Y-65.26
X137.8Y-67.8
X138.0Y-34.8
X138.0Y-44.8
X145.6Y-30.2
X146.1Y-49.4
T5
X112.9Y-21.8
X123.8Y-67.2
X170.19Y-53.9
X172.73Y-53.9
X175.27Y-53.9
X177.81Y-53.9
T6
X122.94Y-27.9
X133.1Y-27.9
X143.8Y-52.5
X143.8Y-67.5
T7
X113.8Y-38.44
X113.8Y-58.76
X118.08Y-53.9
X118.1Y-59.2
X128.3Y-31.2
X128.3Y-46.44
X132.4Y-31.18
X132.4Y-46.42
X138.4Y-53.9
X138.42Y-59.2
T8
X121.1Y-32.3
X121.1Y-37.3
T9
X169.502Y-59.874
X169.502Y-64.7
X174.201Y-59.874
X174.201Y-64.7
X178.9Y-59.874
X178.9Y-64.7
T10
X151.7Y-64.5
T11
X117.15Y-21.825
X124.95Y-21.825
X201.0Y-21.825
X208.62Y-21.825
X221.03Y-21.825
X228.65Y-21.825
T3
G00X224.325Y-52.78
M15
G01X225.425Y-52.78
M16
G05
G00X224.325Y-61.42
M15
G01X225.425Y-61.42
M16
G05
G00X228.675Y-52.78
M15
G01X229.475Y-52.78
M16
G05
G00X228.675Y-61.42
M15
G01X229.475Y-61.42
M16
G05
M30
