%TF.GenerationSoftware,KiCad,Pcbnew,10.0.5*%
%TF.CreationDate,2026-08-02T12:15:25+02:00*%
%TF.ProjectId,Geiger_counter_LoRaWAN,47656967-6572-45f6-936f-756e7465725f,rev?*%
%TF.SameCoordinates,Original*%
%TF.FileFunction,Copper,L2,Bot*%
%TF.FilePolarity,Positive*%
%FSLAX46Y46*%
G04 Gerber Fmt 4.6, Leading zero omitted, Abs format (unit mm)*
G04 Created by KiCad (PCBNEW 10.0.5) date 2026-08-02 12:15:25*
%MOMM*%
%LPD*%
G01*
G04 APERTURE LIST*
G04 Aperture macros list*
%AMRoundRect*
0 Rectangle with rounded corners*
0 $1 Rounding radius*
0 $2 $3 $4 $5 $6 $7 $8 $9 X,Y pos of 4 corners*
0 Add a 4 corners polygon primitive as box body*
4,1,4,$2,$3,$4,$5,$6,$7,$8,$9,$2,$3,0*
0 Add four circle primitives for the rounded corners*
1,1,$1+$1,$2,$3*
1,1,$1+$1,$4,$5*
1,1,$1+$1,$6,$7*
1,1,$1+$1,$8,$9*
0 Add four rect primitives between the rounded corners*
20,1,$1+$1,$2,$3,$4,$5,0*
20,1,$1+$1,$4,$5,$6,$7,0*
20,1,$1+$1,$6,$7,$8,$9,0*
20,1,$1+$1,$8,$9,$2,$3,0*%
G04 Aperture macros list end*
%TA.AperFunction,ComponentPad*%
%ADD10C,2.600000*%
%TD*%
%TA.AperFunction,ConnectorPad*%
%ADD11C,3.800000*%
%TD*%
%TA.AperFunction,ComponentPad*%
%ADD12RoundRect,0.170000X0.680000X0.680000X-0.680000X0.680000X-0.680000X-0.680000X0.680000X-0.680000X0*%
%TD*%
%TA.AperFunction,ComponentPad*%
%ADD13C,1.700000*%
%TD*%
%TA.AperFunction,ComponentPad*%
%ADD14O,2.100000X1.000000*%
%TD*%
%TA.AperFunction,ComponentPad*%
%ADD15O,1.800000X1.000000*%
%TD*%
%TA.AperFunction,ComponentPad*%
%ADD16C,2.362200*%
%TD*%
%TA.AperFunction,ComponentPad*%
%ADD17C,2.400000*%
%TD*%
%TA.AperFunction,ComponentPad*%
%ADD18R,1.500000X1.500000*%
%TD*%
%TA.AperFunction,ComponentPad*%
%ADD19C,1.500000*%
%TD*%
%TA.AperFunction,ComponentPad*%
%ADD20C,1.600000*%
%TD*%
%TA.AperFunction,ComponentPad*%
%ADD21RoundRect,0.249999X0.850001X0.850001X-0.850001X0.850001X-0.850001X-0.850001X0.850001X-0.850001X0*%
%TD*%
%TA.AperFunction,ComponentPad*%
%ADD22C,2.200000*%
%TD*%
%TA.AperFunction,ComponentPad*%
%ADD23C,2.000000*%
%TD*%
%TA.AperFunction,SMDPad,CuDef*%
%ADD24RoundRect,0.250003X-3.499997X-2.999997X3.499997X-2.999997X3.499997X2.999997X-3.499997X2.999997X0*%
%TD*%
%TA.AperFunction,ComponentPad*%
%ADD25RoundRect,0.875000X0.875000X0.875000X-0.875000X0.875000X-0.875000X-0.875000X0.875000X-0.875000X0*%
%TD*%
%TA.AperFunction,ComponentPad*%
%ADD26C,3.500000*%
%TD*%
%TA.AperFunction,ViaPad*%
%ADD27C,0.700000*%
%TD*%
%TA.AperFunction,ViaPad*%
%ADD28C,0.600000*%
%TD*%
%TA.AperFunction,Conductor*%
%ADD29C,0.500000*%
%TD*%
%TA.AperFunction,Conductor*%
%ADD30C,0.200000*%
%TD*%
%TA.AperFunction,Conductor*%
%ADD31C,0.125000*%
%TD*%
%TA.AperFunction,Conductor*%
%ADD32C,0.600000*%
%TD*%
G04 APERTURE END LIST*
D10*
%TO.P,H6,1,1_1*%
%TO.N,GND*%
X151700000Y-64500000D03*
D11*
X151700000Y-64500000D03*
%TD*%
D12*
%TO.P,U2,1,GND_1*%
%TO.N,GND*%
X177810000Y-53900000D03*
D13*
%TO.P,U2,2,VCC_2*%
%TO.N,+3V3*%
X175270000Y-53900000D03*
%TO.P,U2,3,SCL_3*%
%TO.N,I2C0_SCL*%
X172730000Y-53900000D03*
%TO.P,U2,4,SDA_4*%
%TO.N,I2C0_SDA*%
X170190000Y-53900000D03*
%TD*%
D14*
%TO.P,J1,S1,SHIELD_S1*%
%TO.N,GND*%
X224875000Y-61420000D03*
D15*
X229075000Y-61420000D03*
D14*
X224875000Y-52780000D03*
D15*
X229075000Y-52780000D03*
%TD*%
D16*
%TO.P,U3,1,1_1*%
%TO.N,+5V*%
X178900000Y-59874000D03*
%TO.P,U3,2,2_2*%
%TO.N,Net-(U4-SYS)*%
X174201000Y-59874000D03*
%TO.P,U3,3,3_3*%
%TO.N,unconnected-(U3-Pad3)*%
X169502000Y-59874000D03*
%TO.P,U3,4,4_4*%
%TO.N,unconnected-(U3-Pad4)*%
X169502000Y-64700000D03*
%TO.P,U3,5,5_5*%
%TO.N,Net-(U4-IN)*%
X174201000Y-64700000D03*
%TO.P,U3,6,6_6*%
%TO.N,VS*%
X178900000Y-64700000D03*
%TD*%
D17*
%TO.P,R4,1*%
%TO.N,HV_tube_-*%
X138400000Y-53900000D03*
%TO.P,R4,2*%
%TO.N,Net-(Q2-B)*%
X118080000Y-53900000D03*
%TD*%
%TO.P,R7,1*%
%TO.N,HV_TUBE_+*%
X128300000Y-31200000D03*
%TO.P,R7,2*%
%TO.N,Net-(C3-Pad1)*%
X128300000Y-46440000D03*
%TD*%
D18*
%TO.P,Q1,1,B_1*%
%TO.N,Net-(Q1-B)*%
X123500000Y-46900000D03*
D19*
%TO.P,Q1,2,C_2*%
%TO.N,Net-(D1-A)*%
X123500000Y-44360000D03*
%TO.P,Q1,3,E_3*%
%TO.N,Net-(Q1-E)*%
X123500000Y-41820000D03*
%TD*%
D10*
%TO.P,L1,1,1_1*%
%TO.N,Net-(D1-A)*%
X121100000Y-32300000D03*
%TO.P,L1,2,2_2*%
%TO.N,+3V3*%
X121100000Y-37300000D03*
%TD*%
D17*
%TO.P,R3,1*%
%TO.N,Net-(C3-Pad1)*%
X132400000Y-46420000D03*
%TO.P,R3,2*%
%TO.N,Net-(D1-K)*%
X132400000Y-31180000D03*
%TD*%
D20*
%TO.P,C3,1*%
%TO.N,Net-(C3-Pad1)*%
X138000000Y-44800000D03*
%TO.P,C3,2*%
%TO.N,GND*%
X138000000Y-34800000D03*
%TD*%
D21*
%TO.P,D1,1,K_1*%
%TO.N,Net-(D1-K)*%
X133100000Y-27900000D03*
D22*
%TO.P,D1,2,A_2*%
%TO.N,Net-(D1-A)*%
X122940000Y-27900000D03*
%TD*%
D20*
%TO.P,R2,1*%
%TO.N,PWM_HV*%
X146100000Y-49400000D03*
%TO.P,R2,2*%
%TO.N,Net-(Q1-B)*%
X135940000Y-49400000D03*
%TD*%
D23*
%TO.P,TP3,1,1_1*%
%TO.N,GND*%
X123800000Y-67200000D03*
%TD*%
D20*
%TO.P,R6,1*%
%TO.N,+3V3*%
X118500000Y-63600000D03*
%TO.P,R6,2*%
%TO.N,INT_GM*%
X133740000Y-63600000D03*
%TD*%
D17*
%TO.P,R5,1*%
%TO.N,Net-(Q2-B)*%
X118100000Y-59200000D03*
%TO.P,R5,2*%
%TO.N,GND*%
X138420000Y-59200000D03*
%TD*%
D24*
%TO.P,BT1,1,+_1*%
%TO.N,Net-(BT1-+)*%
X146540000Y-37700000D03*
%TO.P,BT1,2,-_2*%
%TO.N,GND*%
X225920000Y-37700000D03*
%TD*%
D20*
%TO.P,C1,1*%
%TO.N,Net-(D1-K)*%
X135600000Y-30200000D03*
%TO.P,C1,2*%
%TO.N,GND*%
X145600000Y-30200000D03*
%TD*%
D17*
%TO.P,R1,1*%
%TO.N,Net-(Q1-E)*%
X113800000Y-38440000D03*
%TO.P,R1,2*%
%TO.N,GND*%
X113800000Y-58760000D03*
%TD*%
D23*
%TO.P,TP2,1,1_1*%
%TO.N,HV_TUBE_+*%
X112900000Y-21800000D03*
%TD*%
D22*
%TO.P,C2,1*%
%TO.N,HV_tube_-*%
X143800000Y-52500000D03*
%TO.P,C2,2*%
%TO.N,GND*%
X143800000Y-67500000D03*
%TD*%
D18*
%TO.P,Q2,1,E_1*%
%TO.N,GND*%
X137800000Y-62720000D03*
D19*
%TO.P,Q2,2,B_2*%
%TO.N,Net-(Q2-B)*%
X137800000Y-65260000D03*
%TO.P,Q2,3,C_3*%
%TO.N,INT_GM*%
X137800000Y-67800000D03*
%TD*%
D25*
%TO.P,F1,1*%
%TO.N,HV_tube_-*%
X228650000Y-21825000D03*
X221030000Y-21825000D03*
X208620000Y-21825000D03*
X201000000Y-21825000D03*
D26*
%TO.P,F1,2*%
%TO.N,HV_TUBE_+*%
X124950000Y-21825000D03*
X117150000Y-21825000D03*
%TD*%
D27*
%TO.N,GND*%
X207400000Y-52600000D03*
X208100000Y-49500000D03*
%TO.N,+3V3*%
X192500000Y-47900000D03*
%TO.N,GND*%
X209800000Y-55450000D03*
X198000000Y-61400000D03*
X217000000Y-51300000D03*
X211050000Y-57950000D03*
X200300000Y-54800000D03*
X198200000Y-34500000D03*
X197100000Y-57200000D03*
X229800000Y-42600000D03*
X206000000Y-68400000D03*
X176445618Y-57518383D03*
X225970000Y-37700000D03*
X214900000Y-68400000D03*
X230200000Y-48200000D03*
X222200000Y-50400000D03*
X161700000Y-57800000D03*
X197382762Y-50805239D03*
X217189336Y-60304265D03*
X209800000Y-56700000D03*
X161700000Y-66900000D03*
X227300000Y-42600000D03*
X227000000Y-33500000D03*
X161700000Y-60000000D03*
X230100000Y-46200000D03*
X187800000Y-34000000D03*
X161700000Y-65500000D03*
X194500000Y-67400000D03*
X212300000Y-55450000D03*
X207800000Y-33700000D03*
X200300000Y-56000000D03*
X212900000Y-33800000D03*
X211050000Y-56700000D03*
X161700000Y-62800000D03*
X184500000Y-37200000D03*
X191400000Y-34500000D03*
X199700000Y-51500000D03*
X223200000Y-53100000D03*
X202400000Y-58900000D03*
X225970000Y-40240000D03*
X211050000Y-55450000D03*
X201700000Y-51100000D03*
X192400000Y-55400000D03*
X220100000Y-34000000D03*
X223430000Y-40240000D03*
X215100000Y-62300000D03*
X187900000Y-51400000D03*
X207500000Y-37700000D03*
X161700000Y-59000000D03*
X176900000Y-61700000D03*
X230200000Y-37600000D03*
X212000000Y-68400000D03*
X223430000Y-37700000D03*
X161700000Y-64200000D03*
X204400000Y-37700000D03*
X221900000Y-51300000D03*
X224000000Y-33700000D03*
X212300000Y-57950000D03*
X208700000Y-68450000D03*
X230000000Y-44200000D03*
X165800000Y-53900000D03*
X196800000Y-37300000D03*
X161700000Y-68400000D03*
X200600000Y-61700000D03*
X224000000Y-68100000D03*
X212300000Y-56700000D03*
X216200000Y-60100000D03*
X209200000Y-38400000D03*
X161700000Y-61400000D03*
X228510000Y-35160000D03*
X216900000Y-53100000D03*
X165800000Y-51100000D03*
X223430000Y-35160000D03*
X216500000Y-34000000D03*
X190900000Y-37300000D03*
X230200000Y-40400000D03*
X230200000Y-34100000D03*
X160600000Y-55700000D03*
X228510000Y-37700000D03*
X171100000Y-67000000D03*
X165800000Y-52400000D03*
X230200000Y-50500000D03*
X203300000Y-33800000D03*
X209800000Y-57950000D03*
X196000000Y-58100000D03*
X228510000Y-40240000D03*
X225970000Y-35160000D03*
%TO.N,VS*%
X223900000Y-48775000D03*
X223900000Y-47225000D03*
X225637500Y-46800000D03*
X225637500Y-49100000D03*
X224700000Y-48000000D03*
%TO.N,Net-(BT1-+)*%
X149130000Y-37700000D03*
X149130000Y-40240000D03*
X149130000Y-35160000D03*
X144050000Y-37700000D03*
X146590000Y-40240000D03*
X146590000Y-37700000D03*
X146590000Y-35160000D03*
X144050000Y-40240000D03*
X144050000Y-35160000D03*
%TO.N,SW_2*%
X191025000Y-49600000D03*
X205141051Y-52452983D03*
%TO.N,+3V3*%
X211200000Y-64000000D03*
X215600000Y-47800000D03*
X216800000Y-48200000D03*
X207700000Y-63900000D03*
X194900000Y-61800000D03*
X212500000Y-50300000D03*
X218225000Y-48800000D03*
X209800000Y-48400000D03*
X181500000Y-44900000D03*
X215600000Y-48900000D03*
X217500000Y-48800000D03*
X219700000Y-62200000D03*
X216700000Y-49200000D03*
%TO.N,+5V*%
X184805844Y-44473759D03*
X186600000Y-46500000D03*
X210550000Y-38000000D03*
X219600000Y-40025000D03*
X181170555Y-49499828D03*
X184200000Y-49300000D03*
X185700000Y-45600000D03*
X182900000Y-49500000D03*
%TO.N,SW_1*%
X191100000Y-59800000D03*
X205800000Y-51800000D03*
%TO.N,SW_3*%
X205280068Y-53749221D03*
X193500000Y-59700000D03*
%TO.N,SW_C*%
X192400000Y-59700000D03*
X206800000Y-51900000D03*
%TO.N,+1V1*%
X212600000Y-52100000D03*
X206080000Y-57360000D03*
D28*
X211900000Y-54500000D03*
D27*
X216500000Y-57400000D03*
D28*
X213250002Y-57900000D03*
X208849998Y-56900000D03*
D27*
X217100000Y-57300000D03*
X211654499Y-61082473D03*
D28*
X211500000Y-58900000D03*
D27*
%TO.N,Net-(U4-IN)*%
X218100000Y-40200000D03*
X218100000Y-41100000D03*
%TO.N,Net-(U4-SYS)*%
X219000000Y-38600000D03*
X219000000Y-37900000D03*
X218400000Y-38500000D03*
%TD*%
%TO.N,Net-(U4-SYS)*%
D29*
X168225000Y-62175000D02*
X171900000Y-62175000D01*
X166700000Y-63700000D02*
X168225000Y-62175000D01*
X166700000Y-67100000D02*
X166700000Y-63700000D01*
X206631371Y-67900000D02*
X206331371Y-67600000D01*
X208118629Y-67900000D02*
X206631371Y-67900000D01*
X208368629Y-67650000D02*
X208118629Y-67900000D01*
X209031371Y-67650000D02*
X208368629Y-67650000D01*
X209281371Y-67900000D02*
X209031371Y-67650000D01*
X211368629Y-67900000D02*
X209281371Y-67900000D01*
X212331371Y-67600000D02*
X211668629Y-67600000D01*
X212631371Y-67900000D02*
X212331371Y-67600000D01*
X167800000Y-68200000D02*
X166700000Y-67100000D01*
X214568629Y-67600000D02*
X214268629Y-67900000D01*
X215231371Y-67600000D02*
X214568629Y-67600000D01*
X215531371Y-67900000D02*
X215231371Y-67600000D01*
X222200000Y-67900000D02*
X215531371Y-67900000D01*
X228005749Y-62094251D02*
X222200000Y-67900000D01*
X227725000Y-61026497D02*
X227725000Y-61813503D01*
X214268629Y-67900000D02*
X212631371Y-67900000D01*
X228281497Y-60470000D02*
X227725000Y-61026497D01*
X229630000Y-60470000D02*
X228281497Y-60470000D01*
X230450000Y-59650000D02*
X229630000Y-60470000D01*
X171900000Y-62175000D02*
X174201000Y-59874000D01*
X219206371Y-38500000D02*
X228281497Y-47575126D01*
X218400000Y-38500000D02*
X219206371Y-38500000D01*
X205668629Y-67600000D02*
X205068629Y-68200000D01*
X228281497Y-50242994D02*
X230450000Y-52411497D01*
X227725000Y-61813503D02*
X228005749Y-62094251D01*
X211668629Y-67600000D02*
X211368629Y-67900000D01*
X206331371Y-67600000D02*
X205668629Y-67600000D01*
X228281497Y-47575126D02*
X228281497Y-50242994D01*
X230450000Y-52411497D02*
X230450000Y-59650000D01*
X205068629Y-68200000D02*
X167800000Y-68200000D01*
%TO.N,+3V3*%
D30*
X183500000Y-47975000D02*
X183900000Y-47975000D01*
X183500000Y-47300000D02*
X183500000Y-47975000D01*
X181500000Y-45300000D02*
X183500000Y-47300000D01*
X181500000Y-44900000D02*
X181500000Y-45300000D01*
%TO.N,GND*%
D29*
X125400000Y-65600000D02*
X123800000Y-67200000D01*
X123800000Y-67200000D02*
X120332233Y-67200000D01*
X148700000Y-67500000D02*
X151700000Y-64500000D01*
X141000000Y-34800000D02*
X145600000Y-30200000D01*
X137800000Y-62720000D02*
X139020000Y-62720000D01*
X138000000Y-34800000D02*
X141000000Y-34800000D01*
X113800000Y-60667767D02*
X113800000Y-58760000D01*
X139020000Y-62720000D02*
X143800000Y-67500000D01*
X120332233Y-67200000D02*
X113800000Y-60667767D01*
X134920000Y-65600000D02*
X125400000Y-65600000D01*
X143800000Y-67500000D02*
X148700000Y-67500000D01*
X137800000Y-62720000D02*
X134920000Y-65600000D01*
%TO.N,VS*%
X222400000Y-62800000D02*
X222400000Y-51931371D01*
D30*
X225637500Y-46800000D02*
X225637500Y-49062500D01*
X225637500Y-49062500D02*
X225400000Y-49300000D01*
X224700000Y-48162500D02*
X225637500Y-49100000D01*
D29*
X178900000Y-64700000D02*
X177268900Y-63068900D01*
D30*
X223900000Y-47000000D02*
X223900000Y-48775000D01*
D29*
X172431100Y-63068900D02*
X172100000Y-63400000D01*
D30*
X224700000Y-48000000D02*
X224700000Y-48162500D01*
X223925000Y-47225000D02*
X224700000Y-48000000D01*
X223900000Y-47225000D02*
X223925000Y-47225000D01*
D29*
X218600000Y-66600000D02*
X222400000Y-62800000D01*
D30*
X224700000Y-47737500D02*
X225637500Y-46800000D01*
X225600000Y-49300000D02*
X225637500Y-49262500D01*
X224325000Y-46800000D02*
X223900000Y-47225000D01*
X225637500Y-46800000D02*
X224325000Y-46800000D01*
D29*
X222400000Y-51931371D02*
X224700000Y-49631371D01*
X174225376Y-67031100D02*
X179865574Y-67031100D01*
D30*
X225400000Y-49300000D02*
X225600000Y-49300000D01*
D29*
X224700000Y-49631371D02*
X224700000Y-48000000D01*
D30*
X225200000Y-46800000D02*
X225637500Y-46800000D01*
D29*
X177268900Y-63068900D02*
X172431100Y-63068900D01*
X172100000Y-64905724D02*
X174225376Y-67031100D01*
D30*
X225637500Y-49262500D02*
X225637500Y-49100000D01*
X224700000Y-48000000D02*
X224700000Y-47737500D01*
D29*
X179865574Y-67031100D02*
X180296674Y-66600000D01*
D30*
X223900000Y-48775000D02*
X223925000Y-48775000D01*
X223925000Y-48775000D02*
X224700000Y-48000000D01*
D29*
X172100000Y-63400000D02*
X172100000Y-64905724D01*
X180296674Y-66600000D02*
X218600000Y-66600000D01*
%TO.N,SW_2*%
D31*
X205141051Y-52452983D02*
X193877983Y-52452983D01*
X193877983Y-52452983D02*
X191025000Y-49600000D01*
%TO.N,+3V3*%
D32*
X215425000Y-47975000D02*
X183900000Y-47975000D01*
X183900000Y-47975000D02*
X175500000Y-47975000D01*
D30*
X215000000Y-48400000D02*
X209800000Y-48400000D01*
D29*
X217900000Y-64000000D02*
X211200000Y-64000000D01*
D32*
X136359164Y-47975000D02*
X125684164Y-37300000D01*
X215600000Y-47800000D02*
X215425000Y-47975000D01*
D30*
X215600000Y-48900000D02*
X213900000Y-48900000D01*
D32*
X121100000Y-61000000D02*
X118500000Y-63600000D01*
X175270000Y-48205000D02*
X175270000Y-53900000D01*
D30*
X213900000Y-48900000D02*
X212500000Y-50300000D01*
D32*
X125684164Y-37300000D02*
X121100000Y-37300000D01*
D29*
X197000000Y-63900000D02*
X194900000Y-61800000D01*
D30*
X215600000Y-47800000D02*
X215000000Y-48400000D01*
D29*
X218225000Y-48800000D02*
X218900000Y-48800000D01*
X219700000Y-62200000D02*
X217900000Y-64000000D01*
X219700000Y-49600000D02*
X219700000Y-62200000D01*
X211200000Y-64000000D02*
X207800000Y-64000000D01*
X218900000Y-48800000D02*
X219700000Y-49600000D01*
D32*
X121100000Y-37300000D02*
X121100000Y-61000000D01*
D29*
X207800000Y-64000000D02*
X207700000Y-63900000D01*
X207700000Y-63900000D02*
X197000000Y-63900000D01*
D32*
X175500000Y-47975000D02*
X136359164Y-47975000D01*
X175500000Y-47975000D02*
X175270000Y-48205000D01*
%TO.N,+5V*%
D29*
X210550000Y-38475000D02*
X203425000Y-45600000D01*
X202525000Y-46500000D02*
X186600000Y-46500000D01*
X218331371Y-39300000D02*
X211850000Y-39300000D01*
X210550000Y-38475000D02*
X202525000Y-46500000D01*
X184200000Y-55500000D02*
X184200000Y-49300000D01*
X219056371Y-40025000D02*
X218331371Y-39300000D01*
X210550000Y-38000000D02*
X210550000Y-38475000D01*
X179826000Y-59874000D02*
X184200000Y-55500000D01*
X182900000Y-55874000D02*
X182900000Y-49500000D01*
X211850000Y-39300000D02*
X210550000Y-38000000D01*
X219600000Y-40025000D02*
X219056371Y-40025000D01*
X178900000Y-59874000D02*
X181170555Y-57603445D01*
X178900000Y-59874000D02*
X182900000Y-55874000D01*
X181170555Y-57603445D02*
X181170555Y-49499828D01*
X178900000Y-59874000D02*
X179826000Y-59874000D01*
X203425000Y-45600000D02*
X185700000Y-45600000D01*
%TO.N,SW_1*%
D31*
X205753551Y-52346449D02*
X205753551Y-52706689D01*
X205753551Y-52706689D02*
X205394757Y-53065483D01*
X205800000Y-52300000D02*
X205753551Y-52346449D01*
X205034517Y-53065483D02*
X204562500Y-53537500D01*
X204562500Y-53537500D02*
X197362500Y-53537500D01*
X205394757Y-53065483D02*
X205034517Y-53065483D01*
X205800000Y-51800000D02*
X205800000Y-52300000D01*
X197362500Y-53537500D02*
X191100000Y-59800000D01*
%TO.N,SW_3*%
X205214645Y-53814644D02*
X205214645Y-53885355D01*
X205214645Y-53885355D02*
X199400000Y-59700000D01*
X205280068Y-53749221D02*
X205214645Y-53814644D01*
X199400000Y-59700000D02*
X193500000Y-59700000D01*
%TO.N,SW_C*%
X193246294Y-60312500D02*
X193196294Y-60262500D01*
X206800000Y-51900000D02*
X206700000Y-52000000D01*
X206700000Y-53195496D02*
X199632996Y-60262500D01*
X199632996Y-60262500D02*
X193803706Y-60262500D01*
X193753706Y-60312500D02*
X193246294Y-60312500D01*
X206700000Y-52000000D02*
X206700000Y-53195496D01*
X192962500Y-60262500D02*
X192400000Y-59700000D01*
X193196294Y-60262500D02*
X192962500Y-60262500D01*
X193803706Y-60262500D02*
X193753706Y-60312500D01*
%TO.N,+1V1*%
D30*
X213250002Y-57900000D02*
X216000000Y-57900000D01*
X211654499Y-61082473D02*
X211600000Y-61027974D01*
X216000000Y-57900000D02*
X216500000Y-57400000D01*
X212600000Y-52100000D02*
X212300000Y-52100000D01*
X207200000Y-56900000D02*
X208849998Y-56900000D01*
X206080000Y-57360000D02*
X206120000Y-57400000D01*
X211900000Y-52500000D02*
X211900000Y-54500000D01*
X212300000Y-52100000D02*
X211900000Y-52500000D01*
X211600000Y-61027974D02*
X211600000Y-59000000D01*
X211600000Y-59000000D02*
X211500000Y-58900000D01*
X206700000Y-57400000D02*
X207200000Y-56900000D01*
X206120000Y-57400000D02*
X206700000Y-57400000D01*
%TO.N,Net-(U4-IN)*%
D29*
X180006724Y-65900000D02*
X179575624Y-66331100D01*
X218200000Y-65500000D02*
X180406724Y-65500000D01*
X180406724Y-65500000D02*
X179575624Y-66331100D01*
X220500000Y-43500000D02*
X220500000Y-62531371D01*
X218100000Y-40200000D02*
X220500000Y-42600000D01*
X220500000Y-62531371D02*
X220500000Y-63500000D01*
X218100000Y-41100000D02*
X220500000Y-43500000D01*
X179575624Y-66331100D02*
X174931100Y-66331100D01*
X220500000Y-63500000D02*
X218100000Y-65900000D01*
X218100000Y-65900000D02*
X180006724Y-65900000D01*
X220500000Y-62531371D02*
X220500000Y-63200000D01*
X174931100Y-66331100D02*
X174201000Y-65601000D01*
X220500000Y-42600000D02*
X220500000Y-62531371D01*
X174201000Y-65601000D02*
X174201000Y-64700000D01*
X220500000Y-63200000D02*
X218200000Y-65500000D01*
%TD*%
%TA.AperFunction,Conductor*%
%TO.N,Net-(U4-SYS)*%
G36*
X219584445Y-37297607D02*
G01*
X219600149Y-37307134D01*
X219604005Y-37315219D01*
X220094601Y-39179487D01*
X220092122Y-39197688D01*
X220080304Y-39207878D01*
X219601147Y-39399540D01*
X219598827Y-39400334D01*
X219200169Y-39514236D01*
X219181921Y-39512139D01*
X219176605Y-39508130D01*
X219068015Y-39399540D01*
X218607985Y-38939511D01*
X218505258Y-38880201D01*
X218505257Y-38880200D01*
X218505256Y-38880200D01*
X218481044Y-38873713D01*
X218390680Y-38849500D01*
X217467131Y-38849500D01*
X217450160Y-38842471D01*
X217444363Y-38833089D01*
X217401232Y-38703696D01*
X217400000Y-38696107D01*
X217400000Y-38324000D01*
X217407029Y-38307029D01*
X217424000Y-38300000D01*
X217499999Y-38300000D01*
X217500000Y-38300000D01*
X218291510Y-37112733D01*
X218306771Y-37102514D01*
X218315125Y-37102327D01*
X219584445Y-37297607D01*
G37*
%TD.AperFunction*%
%TD*%
%TA.AperFunction,Conductor*%
%TO.N,+3V3*%
G36*
X215641465Y-47241465D02*
G01*
X215700000Y-47300000D01*
X216888955Y-47399079D01*
X216910030Y-47404720D01*
X218568863Y-48185347D01*
X218600541Y-48220162D01*
X218603800Y-48234201D01*
X218694432Y-49049889D01*
X218681331Y-49095100D01*
X218651955Y-49115286D01*
X216521486Y-49793163D01*
X216479185Y-49791327D01*
X215315931Y-49306638D01*
X215289849Y-49286043D01*
X214532428Y-48244589D01*
X214521419Y-48198825D01*
X214540796Y-48162912D01*
X215556609Y-47239445D01*
X215600903Y-47223522D01*
X215641465Y-47241465D01*
G37*
%TD.AperFunction*%
%TD*%
%TA.AperFunction,Conductor*%
%TO.N,GND*%
G36*
X204713285Y-53804681D02*
G01*
X204717647Y-53809043D01*
X204733564Y-53836613D01*
X204754572Y-53915017D01*
X204756142Y-53938960D01*
X204753871Y-53956214D01*
X204736384Y-53991675D01*
X199317725Y-59410336D01*
X199297774Y-59423667D01*
X199276890Y-59432318D01*
X199253354Y-59437000D01*
X194031560Y-59437000D01*
X194008024Y-59432318D01*
X193991944Y-59425657D01*
X193962221Y-59399591D01*
X193961117Y-59397679D01*
X193961116Y-59397678D01*
X193961115Y-59397676D01*
X193940509Y-59361985D01*
X193838015Y-59259491D01*
X193838012Y-59259489D01*
X193838008Y-59259486D01*
X193712482Y-59187013D01*
X193572480Y-59149500D01*
X193572477Y-59149500D01*
X193572475Y-59149500D01*
X193427525Y-59149500D01*
X193427523Y-59149500D01*
X193427520Y-59149500D01*
X193287526Y-59187010D01*
X193287522Y-59187012D01*
X193287519Y-59187014D01*
X193287515Y-59187016D01*
X193164304Y-59258152D01*
X193161981Y-59259493D01*
X193059493Y-59361982D01*
X193059487Y-59361988D01*
X193009374Y-59448785D01*
X192993556Y-59466823D01*
X192986130Y-59472522D01*
X192940665Y-59484707D01*
X192940650Y-59484705D01*
X192939937Y-59484611D01*
X192904488Y-59467126D01*
X192902464Y-59465102D01*
X192892694Y-59452370D01*
X192840513Y-59361991D01*
X192840511Y-59361988D01*
X192840509Y-59361985D01*
X192738015Y-59259491D01*
X192738012Y-59259489D01*
X192738008Y-59259486D01*
X192612482Y-59187013D01*
X192472480Y-59149500D01*
X192472477Y-59149500D01*
X192472475Y-59149500D01*
X192327525Y-59149500D01*
X192327523Y-59149500D01*
X192280888Y-59161996D01*
X192256937Y-59163565D01*
X192250371Y-59162700D01*
X192209610Y-59139162D01*
X192197431Y-59093694D01*
X192197434Y-59093673D01*
X192197620Y-59092265D01*
X192215102Y-59056833D01*
X197444777Y-53827160D01*
X197464728Y-53813831D01*
X197485613Y-53805181D01*
X197509146Y-53800500D01*
X204614814Y-53800500D01*
X204636899Y-53791351D01*
X204660437Y-53786668D01*
X204669798Y-53786668D01*
X204713285Y-53804681D01*
G37*
%TD.AperFunction*%
%TA.AperFunction,Conductor*%
G36*
X230649301Y-17105182D02*
G01*
X230657951Y-17108765D01*
X230691233Y-17142044D01*
X230694817Y-17150695D01*
X230699500Y-17174234D01*
X230699500Y-20705201D01*
X230694817Y-20728740D01*
X230693159Y-20732742D01*
X230659873Y-20766023D01*
X230612803Y-20766020D01*
X230582382Y-20738708D01*
X230582160Y-20738302D01*
X230576025Y-20721869D01*
X230575061Y-20717436D01*
X230554091Y-20621035D01*
X230554089Y-20621031D01*
X230473238Y-20432225D01*
X230473236Y-20432221D01*
X230358113Y-20262127D01*
X230358112Y-20262125D01*
X230295723Y-20199736D01*
X230212879Y-20116891D01*
X230212876Y-20116889D01*
X230212873Y-20116887D01*
X230146398Y-20071895D01*
X230146397Y-20071894D01*
X230042782Y-20001765D01*
X230042778Y-20001763D01*
X230042774Y-20001761D01*
X230042766Y-20001757D01*
X230042754Y-20001752D01*
X229855633Y-19921622D01*
X229854227Y-19920970D01*
X229848432Y-19919602D01*
X229847506Y-19919503D01*
X229653804Y-19877365D01*
X229653010Y-19877185D01*
X229651440Y-19877139D01*
X229607137Y-19874500D01*
X229607128Y-19874500D01*
X229607118Y-19874500D01*
X227692882Y-19874500D01*
X227692872Y-19874500D01*
X227692863Y-19874500D01*
X227648559Y-19877139D01*
X227644902Y-19877248D01*
X227636122Y-19877248D01*
X227629091Y-19881087D01*
X227447635Y-19920560D01*
X227446349Y-19920803D01*
X227446036Y-19920908D01*
X227446034Y-19920909D01*
X227446031Y-19920910D01*
X227352441Y-19960987D01*
X227257227Y-20001760D01*
X227257216Y-20001765D01*
X227087125Y-20116887D01*
X227087122Y-20116889D01*
X226941889Y-20262122D01*
X226941887Y-20262125D01*
X226826765Y-20432216D01*
X226826760Y-20432227D01*
X226745908Y-20621036D01*
X226745803Y-20621350D01*
X226745560Y-20622634D01*
X226720241Y-20739029D01*
X226702247Y-20821745D01*
X226702245Y-20821767D01*
X226699500Y-20867861D01*
X226699500Y-22782137D01*
X226702139Y-22826440D01*
X226702185Y-22828010D01*
X226702365Y-22828804D01*
X226733286Y-22970940D01*
X226739717Y-23000499D01*
X226745911Y-23028972D01*
X226826752Y-23217754D01*
X226826765Y-23217782D01*
X226878765Y-23294611D01*
X226941889Y-23387876D01*
X226941891Y-23387879D01*
X227031289Y-23477276D01*
X227087125Y-23533112D01*
X227153601Y-23578104D01*
X227257215Y-23648233D01*
X227257219Y-23648235D01*
X227257221Y-23648236D01*
X227257223Y-23648237D01*
X227446035Y-23729091D01*
X227645928Y-23772575D01*
X227646879Y-23772797D01*
X227647105Y-23772816D01*
X227648557Y-23772859D01*
X227666309Y-23773917D01*
X227692864Y-23775500D01*
X229607128Y-23775500D01*
X229607136Y-23775500D01*
X229641262Y-23773466D01*
X229651438Y-23772859D01*
X229652896Y-23772816D01*
X229653252Y-23772786D01*
X229654582Y-23772464D01*
X229853965Y-23729091D01*
X230042777Y-23648237D01*
X230212875Y-23533112D01*
X230358112Y-23387875D01*
X230473237Y-23217777D01*
X230554091Y-23028965D01*
X230575307Y-22931435D01*
X230584880Y-22909442D01*
X230587356Y-22905876D01*
X230626953Y-22880434D01*
X230672947Y-22890443D01*
X230696850Y-22923540D01*
X230696982Y-22923987D01*
X230699500Y-22941405D01*
X230699500Y-51863185D01*
X230694818Y-51886722D01*
X230692284Y-51892839D01*
X230658999Y-51926121D01*
X230611937Y-51926123D01*
X230605820Y-51923590D01*
X230585862Y-51910256D01*
X228758660Y-50083054D01*
X228745328Y-50063100D01*
X228736678Y-50042215D01*
X228731997Y-50018682D01*
X228731997Y-47515812D01*
X228710074Y-47433999D01*
X228701420Y-47401703D01*
X228701306Y-47401266D01*
X228701298Y-47401245D01*
X228701296Y-47401242D01*
X228701296Y-47401240D01*
X228698898Y-47397087D01*
X228698897Y-47397080D01*
X228698895Y-47397082D01*
X228667238Y-47342251D01*
X228667230Y-47342233D01*
X228641998Y-47298531D01*
X228641991Y-47298520D01*
X228641990Y-47298518D01*
X228641988Y-47298515D01*
X228641986Y-47298512D01*
X220241759Y-38898285D01*
X220225771Y-38870449D01*
X220220258Y-38849500D01*
X219802739Y-37262921D01*
X219789489Y-37226755D01*
X219785633Y-37218670D01*
X219772413Y-37195084D01*
X219758813Y-37181904D01*
X219706739Y-37131439D01*
X219691038Y-37121913D01*
X219691032Y-37121910D01*
X219615696Y-37094498D01*
X219615695Y-37094497D01*
X219615693Y-37094497D01*
X218346373Y-36899217D01*
X218310526Y-36896878D01*
X218310520Y-36896878D01*
X218310518Y-36896878D01*
X218302159Y-36897065D01*
X218302154Y-36897066D01*
X218277848Y-36899059D01*
X218277842Y-36899060D01*
X218192431Y-36931760D01*
X218177171Y-36941978D01*
X218177171Y-36941979D01*
X218120530Y-36998735D01*
X218120520Y-36998747D01*
X217398976Y-38081063D01*
X217359866Y-38107255D01*
X217359805Y-38107267D01*
X217345368Y-38110139D01*
X217345360Y-38110141D01*
X217328398Y-38117166D01*
X217328389Y-38117171D01*
X217270089Y-38153804D01*
X217270088Y-38153805D01*
X217230138Y-38210112D01*
X217223758Y-38219107D01*
X217217168Y-38228395D01*
X217210140Y-38245362D01*
X217210137Y-38245372D01*
X217194500Y-38323994D01*
X217194500Y-38696106D01*
X217197156Y-38729040D01*
X217197157Y-38729048D01*
X217198388Y-38736627D01*
X217206279Y-38768685D01*
X217206621Y-38769867D01*
X217206573Y-38769880D01*
X217206574Y-38769883D01*
X217206518Y-38769896D01*
X217206131Y-38770008D01*
X217202898Y-38815504D01*
X217167339Y-38846344D01*
X217147891Y-38849500D01*
X212074312Y-38849500D01*
X212050777Y-38844818D01*
X212029892Y-38836167D01*
X212009940Y-38822836D01*
X211112703Y-37925600D01*
X211102930Y-37912863D01*
X211095112Y-37899322D01*
X211088967Y-37884489D01*
X211086692Y-37875998D01*
X211062984Y-37787515D01*
X210990509Y-37661985D01*
X210888015Y-37559491D01*
X210888012Y-37559489D01*
X210888008Y-37559486D01*
X210762482Y-37487013D01*
X210622480Y-37449500D01*
X210622477Y-37449500D01*
X210622475Y-37449500D01*
X210477525Y-37449500D01*
X210477523Y-37449500D01*
X210477520Y-37449500D01*
X210337526Y-37487010D01*
X210337522Y-37487012D01*
X210211981Y-37559493D01*
X210109493Y-37661981D01*
X210037012Y-37787522D01*
X210037010Y-37787527D01*
X209999500Y-37927518D01*
X209999500Y-38072479D01*
X210036868Y-38211937D01*
X210037004Y-38212466D01*
X210040765Y-38219107D01*
X210041064Y-38219497D01*
X210057958Y-38248758D01*
X210065672Y-38271478D01*
X210067495Y-38285321D01*
X210059779Y-38324106D01*
X210058348Y-38326584D01*
X210048577Y-38339316D01*
X203265060Y-45122836D01*
X203245109Y-45136167D01*
X203224225Y-45144818D01*
X203200689Y-45149500D01*
X186045288Y-45149500D01*
X186029371Y-45147404D01*
X186014260Y-45143355D01*
X185999427Y-45137212D01*
X185956598Y-45112485D01*
X185912485Y-45087016D01*
X185912482Y-45087015D01*
X185912480Y-45087014D01*
X185912475Y-45087011D01*
X185772480Y-45049500D01*
X185772477Y-45049500D01*
X185772475Y-45049500D01*
X185627525Y-45049500D01*
X185627523Y-45049500D01*
X185627520Y-45049500D01*
X185487526Y-45087010D01*
X185487522Y-45087012D01*
X185487519Y-45087014D01*
X185487515Y-45087016D01*
X185393238Y-45141447D01*
X185361981Y-45159493D01*
X185259496Y-45261979D01*
X185259493Y-45261981D01*
X185259490Y-45261985D01*
X185259490Y-45261986D01*
X185215482Y-45338211D01*
X185187012Y-45387522D01*
X185187010Y-45387527D01*
X185149500Y-45527518D01*
X185149500Y-45672480D01*
X185187013Y-45812482D01*
X185259486Y-45938008D01*
X185259489Y-45938012D01*
X185259491Y-45938015D01*
X185361985Y-46040509D01*
X185487515Y-46112984D01*
X185487519Y-46112986D01*
X185487542Y-46112995D01*
X185488019Y-46113119D01*
X185527733Y-46123760D01*
X185627521Y-46150500D01*
X185772476Y-46150500D01*
X185772477Y-46150500D01*
X185784822Y-46147191D01*
X185834206Y-46133958D01*
X185834207Y-46133958D01*
X185912478Y-46112986D01*
X185912478Y-46112985D01*
X185912485Y-46112984D01*
X185999427Y-46062788D01*
X186014263Y-46056643D01*
X186029374Y-46052595D01*
X186045288Y-46050500D01*
X186110268Y-46050500D01*
X186133800Y-46055180D01*
X186139916Y-46057713D01*
X186173202Y-46090995D01*
X186173206Y-46138060D01*
X186170588Y-46144383D01*
X186160749Y-46160026D01*
X186160803Y-46160063D01*
X186160462Y-46160562D01*
X186160563Y-46160643D01*
X186159618Y-46161823D01*
X186159584Y-46161879D01*
X186159495Y-46161977D01*
X186087012Y-46287522D01*
X186087012Y-46287523D01*
X186049500Y-46427518D01*
X186049500Y-46572480D01*
X186087013Y-46712482D01*
X186159486Y-46838008D01*
X186159489Y-46838012D01*
X186159491Y-46838015D01*
X186261985Y-46940509D01*
X186387515Y-47012984D01*
X186387519Y-47012986D01*
X186387542Y-47012995D01*
X186388019Y-47013119D01*
X186410437Y-47019126D01*
X186527521Y-47050500D01*
X186672476Y-47050500D01*
X186672477Y-47050500D01*
X186689052Y-47046058D01*
X186734206Y-47033958D01*
X186734207Y-47033958D01*
X186812478Y-47012986D01*
X186812478Y-47012985D01*
X186812485Y-47012984D01*
X186899427Y-46962788D01*
X186914263Y-46956643D01*
X186929374Y-46952595D01*
X186945288Y-46950500D01*
X202584311Y-46950500D01*
X202607148Y-46944380D01*
X202636113Y-46936619D01*
X202687918Y-46922738D01*
X202698887Y-46919799D01*
X202801614Y-46860489D01*
X210735365Y-38926736D01*
X210755313Y-38913408D01*
X210763967Y-38909824D01*
X210811031Y-38909825D01*
X210819682Y-38913408D01*
X210839635Y-38926739D01*
X211265261Y-39352365D01*
X211573386Y-39660490D01*
X211676114Y-39719799D01*
X211676118Y-39719800D01*
X211676137Y-39719808D01*
X211676547Y-39719915D01*
X211740296Y-39736996D01*
X211790687Y-39750500D01*
X211790689Y-39750500D01*
X211790691Y-39750500D01*
X217610268Y-39750500D01*
X217633800Y-39755180D01*
X217639916Y-39757713D01*
X217673202Y-39790995D01*
X217673206Y-39838060D01*
X217670588Y-39844383D01*
X217660749Y-39860026D01*
X217660803Y-39860063D01*
X217660462Y-39860562D01*
X217660563Y-39860643D01*
X217659618Y-39861823D01*
X217659584Y-39861879D01*
X217659495Y-39861977D01*
X217587012Y-39987522D01*
X217587010Y-39987527D01*
X217549500Y-40127518D01*
X217549500Y-40272480D01*
X217587013Y-40412482D01*
X217659486Y-40538008D01*
X217659489Y-40538012D01*
X217659491Y-40538015D01*
X217659494Y-40538018D01*
X217719338Y-40597862D01*
X217732670Y-40617816D01*
X217736253Y-40626467D01*
X217736252Y-40673535D01*
X217732669Y-40682185D01*
X217719338Y-40702137D01*
X217659493Y-40761981D01*
X217587012Y-40887522D01*
X217587010Y-40887527D01*
X217549500Y-41027518D01*
X217549500Y-41172480D01*
X217587013Y-41312482D01*
X217659486Y-41438008D01*
X217659489Y-41438012D01*
X217659491Y-41438015D01*
X217761985Y-41540509D01*
X217887515Y-41612984D01*
X217984491Y-41638968D01*
X217999319Y-41645110D01*
X218012869Y-41652933D01*
X218025601Y-41662704D01*
X220022836Y-43659939D01*
X220036167Y-43679891D01*
X220044818Y-43700776D01*
X220049500Y-43724311D01*
X220049500Y-49151687D01*
X220044818Y-49175224D01*
X220042284Y-49181341D01*
X220008999Y-49214623D01*
X219961937Y-49214625D01*
X219955820Y-49212092D01*
X219935862Y-49198758D01*
X219176617Y-48439514D01*
X219176614Y-48439511D01*
X219176611Y-48439509D01*
X219176607Y-48439506D01*
X219176606Y-48439505D01*
X219073897Y-48380205D01*
X219073891Y-48380202D01*
X219073883Y-48380199D01*
X219067396Y-48378461D01*
X219049672Y-48373712D01*
X219019552Y-48365641D01*
X218959314Y-48349500D01*
X218959312Y-48349500D01*
X218959309Y-48349500D01*
X218878421Y-48349500D01*
X218834934Y-48331487D01*
X218817297Y-48294792D01*
X218808042Y-48211501D01*
X218803980Y-48187750D01*
X218803977Y-48187732D01*
X218800718Y-48173693D01*
X218797492Y-48161506D01*
X218752538Y-48081861D01*
X218740354Y-48068470D01*
X218720868Y-48047054D01*
X218720865Y-48047051D01*
X218720860Y-48047046D01*
X218677862Y-48015286D01*
X218656365Y-47999407D01*
X218656363Y-47999406D01*
X217355033Y-47387016D01*
X216997531Y-47218780D01*
X216997525Y-47218778D01*
X216997521Y-47218776D01*
X216963169Y-47206209D01*
X216953621Y-47203653D01*
X216942089Y-47200567D01*
X216942084Y-47200566D01*
X216942080Y-47200565D01*
X216916351Y-47196087D01*
X216906021Y-47194289D01*
X216748061Y-47181125D01*
X215811083Y-47103044D01*
X215781417Y-47092482D01*
X215724599Y-47053532D01*
X215724597Y-47053531D01*
X215724594Y-47053529D01*
X215684040Y-47035590D01*
X215684028Y-47035585D01*
X215622178Y-47019126D01*
X215622175Y-47019126D01*
X215531383Y-47030138D01*
X215487095Y-47046058D01*
X215487088Y-47046061D01*
X215418374Y-47087387D01*
X215418368Y-47087391D01*
X215010144Y-47458506D01*
X214968775Y-47474500D01*
X214719231Y-47474500D01*
X214695694Y-47469818D01*
X214689577Y-47467284D01*
X214656295Y-47433999D01*
X214656289Y-47386948D01*
X214656832Y-47385636D01*
X214682905Y-47355894D01*
X214880289Y-47241936D01*
X215072738Y-47094265D01*
X215244265Y-46922738D01*
X215378382Y-46747953D01*
X215391933Y-46730293D01*
X215391934Y-46730292D01*
X215393532Y-46727525D01*
X215513224Y-46520212D01*
X215606054Y-46296100D01*
X215668838Y-46061789D01*
X215700500Y-45821288D01*
X215700500Y-45578712D01*
X215668838Y-45338211D01*
X215666280Y-45328666D01*
X215641988Y-45238008D01*
X215606054Y-45103900D01*
X215513224Y-44879788D01*
X215405253Y-44692777D01*
X215391934Y-44669707D01*
X215391933Y-44669706D01*
X215391932Y-44669705D01*
X215391930Y-44669701D01*
X215389487Y-44666517D01*
X215389476Y-44666504D01*
X215244267Y-44477264D01*
X215072734Y-44305731D01*
X214880293Y-44158066D01*
X214880292Y-44158065D01*
X214749848Y-44082754D01*
X214670212Y-44036776D01*
X214670207Y-44036774D01*
X214486724Y-43960773D01*
X214446100Y-43943946D01*
X214446094Y-43943944D01*
X214446091Y-43943943D01*
X214446085Y-43943941D01*
X214211809Y-43881166D01*
X214211788Y-43881161D01*
X214186185Y-43877791D01*
X214186185Y-43877790D01*
X213971298Y-43849500D01*
X213971293Y-43849500D01*
X213971288Y-43849500D01*
X213728712Y-43849500D01*
X213728706Y-43849500D01*
X213728700Y-43849500D01*
X213488206Y-43881162D01*
X213488197Y-43881164D01*
X213253915Y-43943940D01*
X213253896Y-43943947D01*
X213029791Y-44036774D01*
X212819705Y-44158066D01*
X212819706Y-44158066D01*
X212627264Y-44305731D01*
X212455731Y-44477264D01*
X212310520Y-44666506D01*
X212310519Y-44666508D01*
X212309118Y-44668334D01*
X212308064Y-44669708D01*
X212186774Y-44879791D01*
X212093947Y-45103896D01*
X212093940Y-45103915D01*
X212031164Y-45338197D01*
X212031162Y-45338206D01*
X211999500Y-45578700D01*
X211999500Y-45821296D01*
X212023745Y-46005448D01*
X212023745Y-46005449D01*
X212024242Y-46009222D01*
X212030484Y-46056643D01*
X212030858Y-46059480D01*
X212031164Y-46061801D01*
X212031165Y-46061808D01*
X212093941Y-46296085D01*
X212093943Y-46296091D01*
X212093944Y-46296094D01*
X212093946Y-46296100D01*
X212186776Y-46520212D01*
X212186777Y-46520215D01*
X212186779Y-46520218D01*
X212186780Y-46520220D01*
X212225635Y-46587518D01*
X212225635Y-46587519D01*
X212225636Y-46587519D01*
X212306467Y-46727525D01*
X212308064Y-46730290D01*
X212308066Y-46730293D01*
X212455731Y-46922734D01*
X212627264Y-47094267D01*
X212705136Y-47154020D01*
X212789532Y-47218780D01*
X212816508Y-47239479D01*
X212816514Y-47239485D01*
X212819699Y-47241928D01*
X212819706Y-47241933D01*
X212819707Y-47241934D01*
X212824001Y-47244413D01*
X212824002Y-47244414D01*
X212824003Y-47244414D01*
X213013160Y-47353624D01*
X213031200Y-47369445D01*
X213035230Y-47374697D01*
X213047413Y-47420163D01*
X213023878Y-47460927D01*
X213022752Y-47461791D01*
X212985313Y-47474500D01*
X192888605Y-47474500D01*
X192868836Y-47471236D01*
X192849138Y-47464549D01*
X192838160Y-47459574D01*
X192712482Y-47387013D01*
X192572480Y-47349500D01*
X192572477Y-47349500D01*
X192572475Y-47349500D01*
X192427525Y-47349500D01*
X192427523Y-47349500D01*
X192427520Y-47349500D01*
X192287526Y-47387010D01*
X192287516Y-47387015D01*
X192161836Y-47459575D01*
X192150859Y-47464549D01*
X192131167Y-47471235D01*
X192111395Y-47474500D01*
X183874234Y-47474500D01*
X183850695Y-47469817D01*
X183842044Y-47466233D01*
X183808764Y-47432949D01*
X183805181Y-47424298D01*
X183800500Y-47400765D01*
X183800500Y-47260433D01*
X183782775Y-47194289D01*
X183780155Y-47184514D01*
X183780032Y-47184038D01*
X183780022Y-47184015D01*
X183780021Y-47184011D01*
X183740460Y-47115489D01*
X183684511Y-47059540D01*
X181953637Y-45328666D01*
X181940305Y-45308714D01*
X181935830Y-45297911D01*
X181934417Y-45254605D01*
X181937449Y-45245676D01*
X181942423Y-45234700D01*
X182012981Y-45112490D01*
X182012980Y-45112490D01*
X182012984Y-45112485D01*
X182015283Y-45103905D01*
X182029861Y-45049501D01*
X182029861Y-45049500D01*
X182050500Y-44972479D01*
X182050500Y-44827519D01*
X182016061Y-44699000D01*
X182016061Y-44698998D01*
X182014393Y-44692775D01*
X182012984Y-44687515D01*
X181940509Y-44561985D01*
X181838015Y-44459491D01*
X181838010Y-44459488D01*
X181822467Y-44450514D01*
X181822460Y-44450510D01*
X181822458Y-44450507D01*
X181815461Y-44446468D01*
X181815450Y-44446463D01*
X181737187Y-44401277D01*
X184255344Y-44401277D01*
X184255344Y-44546239D01*
X184292857Y-44686241D01*
X184365330Y-44811767D01*
X184365333Y-44811771D01*
X184365335Y-44811774D01*
X184467829Y-44914268D01*
X184593359Y-44986743D01*
X184593361Y-44986744D01*
X184593386Y-44986754D01*
X184593863Y-44986878D01*
X184633577Y-44997519D01*
X184733365Y-45024259D01*
X184878320Y-45024259D01*
X184878321Y-45024259D01*
X184940610Y-45007568D01*
X184940611Y-45007568D01*
X185018322Y-44986745D01*
X185018322Y-44986744D01*
X185018329Y-44986743D01*
X185143859Y-44914268D01*
X185246353Y-44811774D01*
X185318828Y-44686244D01*
X185349813Y-44570608D01*
X185356344Y-44546236D01*
X185356344Y-44401281D01*
X185356344Y-44401278D01*
X185318970Y-44261805D01*
X185318839Y-44261301D01*
X185318830Y-44261278D01*
X185261641Y-44162224D01*
X185246353Y-44135744D01*
X185143859Y-44033250D01*
X185143856Y-44033248D01*
X185143852Y-44033245D01*
X185018326Y-43960772D01*
X184878324Y-43923259D01*
X184878321Y-43923259D01*
X184878319Y-43923259D01*
X184733369Y-43923259D01*
X184733367Y-43923259D01*
X184733364Y-43923259D01*
X184593370Y-43960769D01*
X184593366Y-43960771D01*
X184593363Y-43960773D01*
X184593359Y-43960775D01*
X184485825Y-44022860D01*
X184467825Y-44033252D01*
X184365337Y-44135740D01*
X184292856Y-44261281D01*
X184292854Y-44261286D01*
X184255344Y-44401277D01*
X181737187Y-44401277D01*
X181712482Y-44387013D01*
X181572480Y-44349500D01*
X181572477Y-44349500D01*
X181572475Y-44349500D01*
X181427525Y-44349500D01*
X181427523Y-44349500D01*
X181427520Y-44349500D01*
X181287526Y-44387010D01*
X181287522Y-44387012D01*
X181287519Y-44387014D01*
X181287515Y-44387016D01*
X181161990Y-44459488D01*
X181161981Y-44459493D01*
X181059493Y-44561981D01*
X180987012Y-44687522D01*
X180987010Y-44687527D01*
X180949500Y-44827518D01*
X180949500Y-44972480D01*
X180987013Y-45112482D01*
X181059486Y-45238008D01*
X181059489Y-45238012D01*
X181059491Y-45238015D01*
X181161985Y-45340509D01*
X181174011Y-45347452D01*
X181192050Y-45363272D01*
X181205809Y-45381202D01*
X181216423Y-45402723D01*
X181219975Y-45415981D01*
X181219980Y-45415992D01*
X181222150Y-45419750D01*
X181239903Y-45450500D01*
X181259535Y-45484504D01*
X181259538Y-45484508D01*
X181259540Y-45484511D01*
X181259543Y-45484514D01*
X181259544Y-45484515D01*
X183135891Y-47360862D01*
X183149225Y-47380820D01*
X183151758Y-47386937D01*
X183151753Y-47434007D01*
X183118477Y-47467282D01*
X183112361Y-47469816D01*
X183088821Y-47474500D01*
X136604186Y-47474500D01*
X136580651Y-47469818D01*
X136559766Y-47461167D01*
X136539814Y-47447836D01*
X133793429Y-44701451D01*
X136999500Y-44701451D01*
X136999500Y-44898547D01*
X137027538Y-45039500D01*
X137037947Y-45091828D01*
X137037949Y-45091836D01*
X137113369Y-45273916D01*
X137113370Y-45273917D01*
X137113374Y-45273926D01*
X137199434Y-45402723D01*
X137222855Y-45437775D01*
X137222860Y-45437781D01*
X137362218Y-45577139D01*
X137362224Y-45577144D01*
X137390543Y-45596066D01*
X137526077Y-45686627D01*
X137526082Y-45686630D01*
X137526084Y-45686631D01*
X137526086Y-45686632D01*
X137708165Y-45762051D01*
X137895514Y-45799317D01*
X137899413Y-45800500D01*
X138098544Y-45800500D01*
X138110031Y-45800500D01*
X138116841Y-45796859D01*
X138291835Y-45762051D01*
X138473914Y-45686632D01*
X138474893Y-45685978D01*
X138609456Y-45596066D01*
X148779500Y-45596066D01*
X148779500Y-45803932D01*
X148812015Y-46009222D01*
X148876245Y-46206898D01*
X148970609Y-46392097D01*
X149092775Y-46560244D01*
X149239754Y-46707223D01*
X149323341Y-46767953D01*
X149323342Y-46767953D01*
X149407907Y-46829393D01*
X149593104Y-46923755D01*
X149790779Y-46987984D01*
X149790782Y-46987985D01*
X149996074Y-47020500D01*
X149996078Y-47020500D01*
X150203922Y-47020500D01*
X150203926Y-47020500D01*
X150409218Y-46987985D01*
X150606896Y-46923755D01*
X150792093Y-46829393D01*
X150960248Y-46707221D01*
X151107221Y-46560248D01*
X151229393Y-46392093D01*
X151323755Y-46206896D01*
X151387985Y-46009218D01*
X151420500Y-45803926D01*
X151420500Y-45596074D01*
X151387985Y-45390782D01*
X151323755Y-45193104D01*
X151229393Y-45007907D01*
X151214017Y-44986744D01*
X151214016Y-44986743D01*
X151214016Y-44986741D01*
X151107223Y-44839754D01*
X150960244Y-44692775D01*
X150792097Y-44570609D01*
X150606898Y-44476245D01*
X150455330Y-44426997D01*
X150444292Y-44417569D01*
X150203932Y-44379500D01*
X150203929Y-44379500D01*
X150203926Y-44379500D01*
X149996074Y-44379500D01*
X149996070Y-44379500D01*
X149996066Y-44379500D01*
X149790776Y-44412015D01*
X149593100Y-44476245D01*
X149407905Y-44570607D01*
X149235763Y-44695676D01*
X149232863Y-44699667D01*
X149099667Y-44832863D01*
X149095676Y-44835763D01*
X148970607Y-45007905D01*
X148876245Y-45193100D01*
X148812015Y-45390776D01*
X148779500Y-45596066D01*
X138609456Y-45596066D01*
X138637775Y-45577144D01*
X138637776Y-45577142D01*
X138637782Y-45577139D01*
X138777139Y-45437782D01*
X138791706Y-45415982D01*
X138885717Y-45275283D01*
X138886888Y-45273630D01*
X138887767Y-45271171D01*
X138962051Y-45091835D01*
X138996859Y-44916841D01*
X139000500Y-44910030D01*
X139000500Y-44699413D01*
X138999317Y-44695516D01*
X138997473Y-44686244D01*
X138962051Y-44508165D01*
X138886632Y-44326086D01*
X138886630Y-44326083D01*
X138886630Y-44326082D01*
X138886627Y-44326077D01*
X138777143Y-44162223D01*
X138777137Y-44162216D01*
X138637782Y-44022861D01*
X138637775Y-44022855D01*
X138473921Y-43913371D01*
X138473917Y-43913369D01*
X138473917Y-43913368D01*
X138465240Y-43909775D01*
X138465239Y-43909774D01*
X138465239Y-43909775D01*
X138396161Y-43881162D01*
X138319722Y-43849500D01*
X138291836Y-43837949D01*
X138291834Y-43837948D01*
X138291833Y-43837948D01*
X138291832Y-43837948D01*
X138291828Y-43837947D01*
X138242528Y-43828140D01*
X138098547Y-43799500D01*
X138098544Y-43799500D01*
X138098541Y-43799500D01*
X137901459Y-43799500D01*
X137901456Y-43799500D01*
X137901453Y-43799500D01*
X137708166Y-43837948D01*
X137708164Y-43837948D01*
X137708163Y-43837949D01*
X137526083Y-43913369D01*
X137526081Y-43913370D01*
X137526072Y-43913374D01*
X137362223Y-44022855D01*
X137362216Y-44022861D01*
X137222861Y-44162216D01*
X137222855Y-44162223D01*
X137113374Y-44326072D01*
X137113372Y-44326077D01*
X137113369Y-44326083D01*
X137058109Y-44459494D01*
X137037948Y-44508166D01*
X136999500Y-44701451D01*
X133793429Y-44701451D01*
X125991481Y-36899503D01*
X125991478Y-36899500D01*
X125991475Y-36899498D01*
X125991471Y-36899495D01*
X125877349Y-36833607D01*
X125877344Y-36833605D01*
X125877343Y-36833605D01*
X125750059Y-36799500D01*
X122572013Y-36799500D01*
X122548478Y-36794819D01*
X122534753Y-36789134D01*
X122505835Y-36764423D01*
X122505075Y-36763182D01*
X122499039Y-36750079D01*
X122490419Y-36723548D01*
X122489464Y-36721843D01*
X122383341Y-36513564D01*
X122244518Y-36322491D01*
X122077506Y-36155479D01*
X121886440Y-36016661D01*
X121886437Y-36016659D01*
X121886435Y-36016658D01*
X121675995Y-35909433D01*
X121675994Y-35909432D01*
X121451368Y-35836447D01*
X121218098Y-35799500D01*
X121218095Y-35799500D01*
X121218092Y-35799500D01*
X120981908Y-35799500D01*
X120981904Y-35799500D01*
X120981900Y-35799500D01*
X120748630Y-35836447D01*
X120524004Y-35909432D01*
X120524003Y-35909433D01*
X120313558Y-36016661D01*
X120118502Y-36158378D01*
X120115601Y-36162371D01*
X119962371Y-36315601D01*
X119958378Y-36318502D01*
X119816661Y-36513558D01*
X119709433Y-36724003D01*
X119709432Y-36724004D01*
X119636447Y-36948630D01*
X119599500Y-37181900D01*
X119599500Y-37418098D01*
X119636447Y-37651368D01*
X119709432Y-37875994D01*
X119709433Y-37875995D01*
X119735687Y-37927522D01*
X119816661Y-38086440D01*
X119955479Y-38277506D01*
X120122492Y-38444519D01*
X120298610Y-38572477D01*
X120313565Y-38583342D01*
X120313567Y-38583343D01*
X120524008Y-38690568D01*
X120524010Y-38690568D01*
X120524011Y-38690569D01*
X120524013Y-38690570D01*
X120533010Y-38693493D01*
X120545366Y-38697507D01*
X120566306Y-38709233D01*
X120577603Y-38718882D01*
X120597454Y-38751259D01*
X120597794Y-38752676D01*
X120599500Y-38767055D01*
X120599500Y-60754977D01*
X120594818Y-60778512D01*
X120586167Y-60799397D01*
X120572836Y-60819349D01*
X118792369Y-62599815D01*
X118772415Y-62613148D01*
X118755499Y-62620154D01*
X118719968Y-62623652D01*
X118598547Y-62599500D01*
X118598544Y-62599500D01*
X118598541Y-62599500D01*
X118401459Y-62599500D01*
X118401456Y-62599500D01*
X118401453Y-62599500D01*
X118208166Y-62637948D01*
X118208164Y-62637948D01*
X118208163Y-62637949D01*
X118026083Y-62713369D01*
X118026081Y-62713370D01*
X118026072Y-62713374D01*
X117862223Y-62822855D01*
X117862216Y-62822861D01*
X117722861Y-62962216D01*
X117722855Y-62962223D01*
X117613374Y-63126072D01*
X117613372Y-63126077D01*
X117613369Y-63126083D01*
X117537949Y-63308163D01*
X117537947Y-63308171D01*
X117531479Y-63340686D01*
X117499500Y-63501451D01*
X117499500Y-63698547D01*
X117519670Y-63799945D01*
X117537947Y-63891828D01*
X117537949Y-63891836D01*
X117613369Y-64073916D01*
X117613370Y-64073917D01*
X117613374Y-64073926D01*
X117701405Y-64205673D01*
X117722855Y-64237775D01*
X117722860Y-64237781D01*
X117862218Y-64377139D01*
X117862224Y-64377144D01*
X117937328Y-64427327D01*
X118026077Y-64486627D01*
X118026082Y-64486630D01*
X118026084Y-64486631D01*
X118026086Y-64486632D01*
X118208165Y-64562051D01*
X118395514Y-64599317D01*
X118399413Y-64600500D01*
X118598544Y-64600500D01*
X118610031Y-64600500D01*
X118616841Y-64596859D01*
X118791835Y-64562051D01*
X118973914Y-64486632D01*
X119015659Y-64458739D01*
X119134585Y-64379275D01*
X119135779Y-64378582D01*
X119136889Y-64377782D01*
X119137953Y-64377042D01*
X119139119Y-64375802D01*
X119205421Y-64309500D01*
X119277139Y-64237782D01*
X119322664Y-64169650D01*
X119385717Y-64075283D01*
X119386888Y-64073630D01*
X119387767Y-64071171D01*
X119462051Y-63891835D01*
X119496859Y-63716841D01*
X119500500Y-63710030D01*
X119500500Y-63501455D01*
X119500499Y-63501451D01*
X132739500Y-63501451D01*
X132739500Y-63698547D01*
X132759670Y-63799945D01*
X132777947Y-63891828D01*
X132777949Y-63891836D01*
X132853369Y-64073916D01*
X132853370Y-64073917D01*
X132853374Y-64073926D01*
X132941405Y-64205673D01*
X132962855Y-64237775D01*
X132962860Y-64237781D01*
X133102218Y-64377139D01*
X133102224Y-64377144D01*
X133177328Y-64427327D01*
X133266077Y-64486627D01*
X133266082Y-64486630D01*
X133266084Y-64486631D01*
X133266086Y-64486632D01*
X133448165Y-64562051D01*
X133635514Y-64599317D01*
X133639413Y-64600500D01*
X133838544Y-64600500D01*
X133850031Y-64600500D01*
X133856841Y-64596859D01*
X134031835Y-64562051D01*
X134213914Y-64486632D01*
X134255659Y-64458739D01*
X134374585Y-64379275D01*
X134375779Y-64378582D01*
X134376889Y-64377782D01*
X134377953Y-64377042D01*
X134379119Y-64375802D01*
X134445421Y-64309500D01*
X134517139Y-64237782D01*
X134562664Y-64169650D01*
X134625717Y-64075283D01*
X134626888Y-64073630D01*
X134627767Y-64071171D01*
X134702051Y-63891835D01*
X134736859Y-63716841D01*
X134740500Y-63710030D01*
X134740500Y-63499413D01*
X134739316Y-63495513D01*
X134738008Y-63488934D01*
X134737625Y-63487008D01*
X134737625Y-63487007D01*
X134702052Y-63308170D01*
X134702050Y-63308163D01*
X134674970Y-63242786D01*
X134626632Y-63126086D01*
X134626630Y-63126083D01*
X134626630Y-63126082D01*
X134626627Y-63126077D01*
X134524936Y-62973886D01*
X134517144Y-62962224D01*
X134517139Y-62962218D01*
X134377781Y-62822860D01*
X134377775Y-62822855D01*
X134287751Y-62762703D01*
X134213921Y-62713371D01*
X134213922Y-62713371D01*
X134213914Y-62713368D01*
X134212982Y-62712981D01*
X134212982Y-62712982D01*
X134135756Y-62680994D01*
X134031836Y-62637949D01*
X134031834Y-62637948D01*
X134031833Y-62637948D01*
X134031832Y-62637948D01*
X134031828Y-62637947D01*
X133974175Y-62626479D01*
X133838547Y-62599500D01*
X133838544Y-62599500D01*
X133838541Y-62599500D01*
X133641459Y-62599500D01*
X133641456Y-62599500D01*
X133641453Y-62599500D01*
X133448166Y-62637948D01*
X133448164Y-62637948D01*
X133448163Y-62637949D01*
X133266083Y-62713369D01*
X133266081Y-62713370D01*
X133266072Y-62713374D01*
X133102223Y-62822855D01*
X133102216Y-62822861D01*
X132962861Y-62962216D01*
X132962855Y-62962223D01*
X132853374Y-63126072D01*
X132853372Y-63126077D01*
X132853369Y-63126083D01*
X132777949Y-63308163D01*
X132777947Y-63308171D01*
X132771479Y-63340686D01*
X132739500Y-63501451D01*
X119500499Y-63501451D01*
X119477735Y-63387016D01*
X119477735Y-63387015D01*
X119477089Y-63383770D01*
X119477087Y-63359767D01*
X119480658Y-63341809D01*
X119497487Y-63310323D01*
X121398662Y-61409149D01*
X121398666Y-61409147D01*
X121407313Y-61400500D01*
X121407314Y-61400500D01*
X121500500Y-61307314D01*
X121566392Y-61193186D01*
X121579581Y-61143963D01*
X121590040Y-61104928D01*
X121600500Y-61065895D01*
X121600500Y-59765258D01*
X168120400Y-59765258D01*
X168120400Y-59982740D01*
X168154420Y-60197527D01*
X168221620Y-60404348D01*
X168221622Y-60404353D01*
X168315623Y-60588839D01*
X168320348Y-60598114D01*
X168352207Y-60641964D01*
X168448175Y-60774052D01*
X168601948Y-60927825D01*
X168777884Y-61055650D01*
X168971650Y-61154379D01*
X169178475Y-61221580D01*
X169393266Y-61255600D01*
X169393270Y-61255600D01*
X169610730Y-61255600D01*
X169610734Y-61255600D01*
X169825525Y-61221580D01*
X170032350Y-61154379D01*
X170226116Y-61055650D01*
X170402052Y-60927825D01*
X170555825Y-60774052D01*
X170683650Y-60598116D01*
X170782379Y-60404350D01*
X170849580Y-60197525D01*
X170883600Y-59982734D01*
X170883600Y-59765266D01*
X170849580Y-59550475D01*
X170782379Y-59343650D01*
X170683650Y-59149884D01*
X170555825Y-58973948D01*
X170402052Y-58820175D01*
X170226116Y-58692350D01*
X170167324Y-58662394D01*
X170032351Y-58593621D01*
X170032348Y-58593620D01*
X169825527Y-58526420D01*
X169610740Y-58492400D01*
X169610737Y-58492400D01*
X169610734Y-58492400D01*
X169393266Y-58492400D01*
X169393262Y-58492400D01*
X169393258Y-58492400D01*
X169178471Y-58526420D01*
X168971650Y-58593620D01*
X168971645Y-58593622D01*
X168777886Y-58692348D01*
X168601942Y-58820179D01*
X168448179Y-58973942D01*
X168320348Y-59149886D01*
X168221622Y-59343645D01*
X168221620Y-59343650D01*
X168154420Y-59550471D01*
X168120400Y-59765258D01*
X121600500Y-59765258D01*
X121600500Y-53789770D01*
X136999500Y-53789770D01*
X136999500Y-54010228D01*
X137016784Y-54119349D01*
X137033985Y-54227953D01*
X137060731Y-54310267D01*
X137079398Y-54367720D01*
X137079398Y-54367721D01*
X137101449Y-54435591D01*
X137101775Y-54436727D01*
X137102104Y-54437605D01*
X137102105Y-54437606D01*
X137102106Y-54437609D01*
X137169388Y-54569655D01*
X137202185Y-54634022D01*
X137331758Y-54812365D01*
X137487635Y-54968242D01*
X137665978Y-55097815D01*
X137862394Y-55197895D01*
X138072049Y-55266015D01*
X138289778Y-55300500D01*
X138289782Y-55300500D01*
X138510218Y-55300500D01*
X138510222Y-55300500D01*
X138727951Y-55266015D01*
X138937606Y-55197895D01*
X139134022Y-55097815D01*
X139312365Y-54968242D01*
X139468242Y-54812365D01*
X139597815Y-54634022D01*
X139697895Y-54437606D01*
X139752599Y-54269240D01*
X139766015Y-54227952D01*
X139786359Y-54099502D01*
X139800500Y-54010222D01*
X139800500Y-53789778D01*
X139766015Y-53572049D01*
X139697895Y-53362394D01*
X139597815Y-53165978D01*
X139468242Y-52987635D01*
X139312365Y-52831758D01*
X139134022Y-52702185D01*
X139032586Y-52650500D01*
X138937609Y-52602106D01*
X138937608Y-52602105D01*
X138937607Y-52602105D01*
X138845970Y-52572331D01*
X138727953Y-52533985D01*
X138510228Y-52499500D01*
X138510225Y-52499500D01*
X138510222Y-52499500D01*
X138289778Y-52499500D01*
X138289774Y-52499500D01*
X138289770Y-52499500D01*
X138072043Y-52533985D01*
X137864416Y-52601447D01*
X137863267Y-52601777D01*
X137862393Y-52602104D01*
X137665980Y-52702183D01*
X137487629Y-52831762D01*
X137331762Y-52987629D01*
X137202183Y-53165980D01*
X137102104Y-53362393D01*
X137101777Y-53363267D01*
X137101447Y-53364416D01*
X137033985Y-53572043D01*
X136999500Y-53789770D01*
X121600500Y-53789770D01*
X121600500Y-52397640D01*
X142499500Y-52397640D01*
X142499500Y-52602358D01*
X142531523Y-52804538D01*
X142584976Y-52969047D01*
X142594780Y-52999220D01*
X142679748Y-53165978D01*
X142687713Y-53181610D01*
X142808034Y-53347219D01*
X142952781Y-53491966D01*
X143118390Y-53612287D01*
X143300781Y-53705220D01*
X143495463Y-53768476D01*
X143495466Y-53768477D01*
X143697648Y-53800500D01*
X143697652Y-53800500D01*
X143902348Y-53800500D01*
X143902352Y-53800500D01*
X143927436Y-53796527D01*
X169139500Y-53796527D01*
X169139500Y-54003471D01*
X169179866Y-54206408D01*
X169179867Y-54206414D01*
X169179871Y-54206427D01*
X169179874Y-54206435D01*
X169253377Y-54383881D01*
X169259056Y-54397592D01*
X169259059Y-54397598D01*
X169284670Y-54435928D01*
X169374021Y-54569653D01*
X169494279Y-54689911D01*
X169499233Y-54701871D01*
X169520345Y-54715977D01*
X169520344Y-54715977D01*
X169606664Y-54773653D01*
X169692402Y-54830941D01*
X169781466Y-54867832D01*
X169881573Y-54909299D01*
X169883080Y-54909987D01*
X169883430Y-54910100D01*
X169883579Y-54910129D01*
X169883580Y-54910130D01*
X170080590Y-54949317D01*
X170084489Y-54950500D01*
X170293468Y-54950500D01*
X170304955Y-54950500D01*
X170311764Y-54946859D01*
X170496420Y-54910130D01*
X170496493Y-54910100D01*
X170522518Y-54899319D01*
X170687598Y-54830941D01*
X170859655Y-54715977D01*
X171005977Y-54569655D01*
X171120941Y-54397598D01*
X171200130Y-54206420D01*
X171236859Y-54021764D01*
X171240500Y-54014954D01*
X171240500Y-53798355D01*
X171240500Y-53796532D01*
X171240499Y-53796531D01*
X171240498Y-53796527D01*
X171679500Y-53796527D01*
X171679500Y-54003471D01*
X171719866Y-54206408D01*
X171719867Y-54206414D01*
X171719871Y-54206427D01*
X171719874Y-54206435D01*
X171793377Y-54383881D01*
X171799056Y-54397592D01*
X171799059Y-54397598D01*
X171824670Y-54435928D01*
X171914021Y-54569653D01*
X172034279Y-54689911D01*
X172039233Y-54701871D01*
X172060345Y-54715977D01*
X172060344Y-54715977D01*
X172146664Y-54773653D01*
X172232402Y-54830941D01*
X172321466Y-54867832D01*
X172421573Y-54909299D01*
X172423080Y-54909987D01*
X172423430Y-54910100D01*
X172423579Y-54910129D01*
X172423580Y-54910130D01*
X172620590Y-54949317D01*
X172624489Y-54950500D01*
X172833468Y-54950500D01*
X172844955Y-54950500D01*
X172851764Y-54946859D01*
X173036420Y-54910130D01*
X173036493Y-54910100D01*
X173062518Y-54899319D01*
X173227598Y-54830941D01*
X173399655Y-54715977D01*
X173545977Y-54569655D01*
X173660941Y-54397598D01*
X173740130Y-54206420D01*
X173776859Y-54021764D01*
X173780500Y-54014954D01*
X173780500Y-53794487D01*
X173779314Y-53790576D01*
X173779239Y-53790201D01*
X173778537Y-53786669D01*
X173774918Y-53768477D01*
X173747821Y-53632248D01*
X173740130Y-53593580D01*
X173740128Y-53593577D01*
X173740098Y-53593423D01*
X173739990Y-53593086D01*
X173739301Y-53591577D01*
X173716804Y-53537266D01*
X173664588Y-53411207D01*
X173660951Y-53402426D01*
X173660943Y-53402406D01*
X173660942Y-53402404D01*
X173660941Y-53402402D01*
X173545977Y-53230345D01*
X173425719Y-53110087D01*
X173420765Y-53098127D01*
X173255399Y-52987635D01*
X173255398Y-52987634D01*
X173227600Y-52969060D01*
X173227595Y-52969057D01*
X173227584Y-52969052D01*
X173036435Y-52889874D01*
X173036427Y-52889871D01*
X173036414Y-52889867D01*
X173036408Y-52889866D01*
X172833471Y-52849500D01*
X172833468Y-52849500D01*
X172833465Y-52849500D01*
X172626535Y-52849500D01*
X172626532Y-52849500D01*
X172626529Y-52849500D01*
X172423590Y-52889866D01*
X172423584Y-52889867D01*
X172423571Y-52889871D01*
X172423563Y-52889874D01*
X172232426Y-52969047D01*
X172232401Y-52969059D01*
X172232400Y-52969059D01*
X172060340Y-53084025D01*
X171914025Y-53230340D01*
X171799059Y-53402400D01*
X171799059Y-53402401D01*
X171799047Y-53402426D01*
X171719874Y-53593563D01*
X171719871Y-53593571D01*
X171719867Y-53593584D01*
X171719866Y-53593590D01*
X171679500Y-53796527D01*
X171240498Y-53796527D01*
X171238537Y-53786669D01*
X171234918Y-53768477D01*
X171207821Y-53632248D01*
X171200130Y-53593580D01*
X171200128Y-53593577D01*
X171200098Y-53593423D01*
X171199990Y-53593086D01*
X171199301Y-53591577D01*
X171176804Y-53537266D01*
X171124588Y-53411207D01*
X171120951Y-53402426D01*
X171120943Y-53402406D01*
X171120942Y-53402404D01*
X171120941Y-53402402D01*
X171005977Y-53230345D01*
X170885719Y-53110087D01*
X170880765Y-53098127D01*
X170715399Y-52987635D01*
X170715398Y-52987634D01*
X170687600Y-52969060D01*
X170687595Y-52969057D01*
X170687584Y-52969052D01*
X170496435Y-52889874D01*
X170496427Y-52889871D01*
X170496414Y-52889867D01*
X170496408Y-52889866D01*
X170293471Y-52849500D01*
X170293468Y-52849500D01*
X170293465Y-52849500D01*
X170086535Y-52849500D01*
X170086532Y-52849500D01*
X170086529Y-52849500D01*
X169883590Y-52889866D01*
X169883584Y-52889867D01*
X169883571Y-52889871D01*
X169883563Y-52889874D01*
X169692426Y-52969047D01*
X169692401Y-52969059D01*
X169692400Y-52969059D01*
X169520340Y-53084025D01*
X169374025Y-53230340D01*
X169259059Y-53402400D01*
X169259059Y-53402401D01*
X169259047Y-53402426D01*
X169179874Y-53593563D01*
X169179871Y-53593571D01*
X169179867Y-53593584D01*
X169179866Y-53593590D01*
X169139500Y-53796527D01*
X143927436Y-53796527D01*
X144104534Y-53768477D01*
X144299219Y-53705220D01*
X144481610Y-53612287D01*
X144647219Y-53491966D01*
X144791966Y-53347219D01*
X144912287Y-53181610D01*
X145005220Y-52999219D01*
X145068477Y-52804534D01*
X145100500Y-52602352D01*
X145100500Y-52397648D01*
X145068477Y-52195466D01*
X145005220Y-52000781D01*
X144912287Y-51818390D01*
X144791966Y-51652781D01*
X144647219Y-51508034D01*
X144481610Y-51387713D01*
X144426227Y-51359494D01*
X144299222Y-51294781D01*
X144299221Y-51294780D01*
X144150646Y-51246505D01*
X144139609Y-51237078D01*
X143902358Y-51199500D01*
X143902355Y-51199500D01*
X143902352Y-51199500D01*
X143697648Y-51199500D01*
X143697644Y-51199500D01*
X143697640Y-51199500D01*
X143495460Y-51231523D01*
X143300777Y-51294780D01*
X143300776Y-51294781D01*
X143118390Y-51387712D01*
X142952775Y-51508038D01*
X142808038Y-51652775D01*
X142687712Y-51818390D01*
X142594781Y-52000776D01*
X142594780Y-52000777D01*
X142531523Y-52195460D01*
X142499500Y-52397640D01*
X121600500Y-52397640D01*
X121600500Y-46130244D01*
X122549500Y-46130244D01*
X122549500Y-47669752D01*
X122561131Y-47728226D01*
X122561134Y-47728233D01*
X122600537Y-47787203D01*
X122605448Y-47794552D01*
X122671769Y-47838867D01*
X122724314Y-47849318D01*
X122728208Y-47850500D01*
X124269751Y-47850500D01*
X124281238Y-47850500D01*
X124288047Y-47846859D01*
X124328231Y-47838867D01*
X124394552Y-47794552D01*
X124438867Y-47728231D01*
X124446859Y-47688047D01*
X124450500Y-47681237D01*
X124450500Y-46329770D01*
X126899500Y-46329770D01*
X126899500Y-46550228D01*
X126933985Y-46767953D01*
X126964052Y-46860489D01*
X126964052Y-46860490D01*
X126995605Y-46957604D01*
X127001444Y-46975573D01*
X127001777Y-46976731D01*
X127002104Y-46977605D01*
X127002105Y-46977606D01*
X127002106Y-46977609D01*
X127072361Y-47115490D01*
X127102185Y-47174022D01*
X127231758Y-47352365D01*
X127387635Y-47508242D01*
X127565978Y-47637815D01*
X127762394Y-47737895D01*
X127972049Y-47806015D01*
X128189778Y-47840500D01*
X128189782Y-47840500D01*
X128410218Y-47840500D01*
X128410222Y-47840500D01*
X128627951Y-47806015D01*
X128837606Y-47737895D01*
X129034022Y-47637815D01*
X129212365Y-47508242D01*
X129368242Y-47352365D01*
X129497815Y-47174022D01*
X129597895Y-46977606D01*
X129666015Y-46767951D01*
X129700500Y-46550222D01*
X129700500Y-46329778D01*
X129666015Y-46112049D01*
X129666014Y-46112046D01*
X129666014Y-46112044D01*
X129616980Y-45961133D01*
X129597895Y-45902394D01*
X129497815Y-45705978D01*
X129368242Y-45527635D01*
X129212365Y-45371758D01*
X129034022Y-45242185D01*
X128994768Y-45222184D01*
X128837609Y-45142106D01*
X128837608Y-45142105D01*
X128837607Y-45142105D01*
X128746441Y-45112484D01*
X128627953Y-45073985D01*
X128410228Y-45039500D01*
X128410225Y-45039500D01*
X128410222Y-45039500D01*
X128189778Y-45039500D01*
X128189774Y-45039500D01*
X128189770Y-45039500D01*
X127972043Y-45073985D01*
X127764416Y-45141447D01*
X127763267Y-45141777D01*
X127762393Y-45142104D01*
X127565980Y-45242183D01*
X127387629Y-45371762D01*
X127231762Y-45527629D01*
X127102183Y-45705980D01*
X127002104Y-45902393D01*
X127001777Y-45903267D01*
X127001447Y-45904416D01*
X126933985Y-46112043D01*
X126899500Y-46329770D01*
X124450500Y-46329770D01*
X124450500Y-46128207D01*
X124449318Y-46124312D01*
X124446878Y-46112046D01*
X124438867Y-46071769D01*
X124436691Y-46068513D01*
X124394552Y-46005448D01*
X124394551Y-46005447D01*
X124328233Y-45961134D01*
X124328226Y-45961131D01*
X124269753Y-45949500D01*
X124269751Y-45949500D01*
X124269748Y-45949500D01*
X122730252Y-45949500D01*
X122730249Y-45949500D01*
X122730246Y-45949500D01*
X122671784Y-45961128D01*
X122671772Y-45961131D01*
X122671767Y-45961133D01*
X122605448Y-46005447D01*
X122605447Y-46005448D01*
X122561133Y-46071767D01*
X122561131Y-46071772D01*
X122561128Y-46071784D01*
X122549500Y-46130244D01*
X121600500Y-46130244D01*
X121600500Y-44266376D01*
X122549500Y-44266376D01*
X122549500Y-44453622D01*
X122586023Y-44637239D01*
X122586024Y-44637245D01*
X122586028Y-44637258D01*
X122586031Y-44637266D01*
X122657658Y-44810185D01*
X122657673Y-44810221D01*
X122657675Y-44810224D01*
X122657678Y-44810231D01*
X122657679Y-44810233D01*
X122657682Y-44810239D01*
X122657688Y-44810248D01*
X122727189Y-44914264D01*
X122761692Y-44965901D01*
X122761697Y-44965907D01*
X122894092Y-45098302D01*
X122894098Y-45098307D01*
X122958662Y-45141447D01*
X123049766Y-45202321D01*
X123073370Y-45212098D01*
X123130355Y-45235702D01*
X123175990Y-45254605D01*
X123220746Y-45273144D01*
X123222255Y-45273833D01*
X123222592Y-45273941D01*
X123222746Y-45273971D01*
X123222749Y-45273973D01*
X123400439Y-45309317D01*
X123404338Y-45310500D01*
X123593619Y-45310500D01*
X123605106Y-45310500D01*
X123611915Y-45306859D01*
X123777251Y-45273973D01*
X123777329Y-45273941D01*
X123777444Y-45273894D01*
X123792392Y-45267701D01*
X123806202Y-45261981D01*
X123950231Y-45202322D01*
X124029285Y-45149500D01*
X124040351Y-45142106D01*
X124084692Y-45112478D01*
X124102704Y-45100442D01*
X124103905Y-45099745D01*
X124105017Y-45098944D01*
X124106077Y-45098207D01*
X124107245Y-45096965D01*
X124164710Y-45039500D01*
X124238302Y-44965908D01*
X124272810Y-44914264D01*
X124341407Y-44811600D01*
X124342579Y-44809946D01*
X124343467Y-44807466D01*
X124413969Y-44637261D01*
X124413970Y-44637258D01*
X124413973Y-44637251D01*
X124446859Y-44471915D01*
X124450500Y-44465105D01*
X124450500Y-44264338D01*
X124449317Y-44260439D01*
X124413973Y-44082749D01*
X124413972Y-44082748D01*
X124413943Y-44082599D01*
X124413830Y-44082249D01*
X124413139Y-44080735D01*
X124394930Y-44036775D01*
X124363449Y-43960775D01*
X124356478Y-43943946D01*
X124342320Y-43909764D01*
X124238306Y-43754097D01*
X124238300Y-43754090D01*
X124105908Y-43621698D01*
X124105901Y-43621692D01*
X123950248Y-43517688D01*
X123950241Y-43517684D01*
X123950240Y-43517683D01*
X123950233Y-43517679D01*
X123950231Y-43517678D01*
X123950229Y-43517677D01*
X123950221Y-43517673D01*
X123950185Y-43517658D01*
X123777266Y-43446031D01*
X123777258Y-43446028D01*
X123777245Y-43446024D01*
X123777239Y-43446023D01*
X123593622Y-43409500D01*
X123593619Y-43409500D01*
X123593616Y-43409500D01*
X123406384Y-43409500D01*
X123406381Y-43409500D01*
X123406378Y-43409500D01*
X123222759Y-43446023D01*
X123222753Y-43446024D01*
X123222740Y-43446028D01*
X123222732Y-43446031D01*
X123049793Y-43517666D01*
X123049765Y-43517679D01*
X123049755Y-43517684D01*
X122894097Y-43621692D01*
X122894090Y-43621698D01*
X122761698Y-43754090D01*
X122761692Y-43754097D01*
X122657684Y-43909755D01*
X122657679Y-43909765D01*
X122657666Y-43909793D01*
X122586031Y-44082732D01*
X122586028Y-44082740D01*
X122586024Y-44082753D01*
X122586023Y-44082759D01*
X122549500Y-44266376D01*
X121600500Y-44266376D01*
X121600500Y-41726376D01*
X122549500Y-41726376D01*
X122549500Y-41913622D01*
X122586023Y-42097239D01*
X122586024Y-42097245D01*
X122586028Y-42097258D01*
X122586031Y-42097266D01*
X122657658Y-42270185D01*
X122657673Y-42270221D01*
X122657675Y-42270224D01*
X122657678Y-42270231D01*
X122657679Y-42270233D01*
X122657682Y-42270239D01*
X122657688Y-42270248D01*
X122761692Y-42425901D01*
X122761698Y-42425908D01*
X122894090Y-42558300D01*
X122894097Y-42558306D01*
X123049766Y-42662321D01*
X123073370Y-42672098D01*
X123130355Y-42695702D01*
X123199319Y-42724268D01*
X123220746Y-42733144D01*
X123222255Y-42733833D01*
X123222592Y-42733941D01*
X123222746Y-42733971D01*
X123222749Y-42733973D01*
X123400439Y-42769317D01*
X123404338Y-42770500D01*
X123593619Y-42770500D01*
X123605106Y-42770500D01*
X123611915Y-42766859D01*
X123777251Y-42733973D01*
X123777329Y-42733941D01*
X123800865Y-42724191D01*
X123950231Y-42662322D01*
X124105908Y-42558302D01*
X124238302Y-42425908D01*
X124269260Y-42379577D01*
X124341407Y-42271600D01*
X124342579Y-42269946D01*
X124343467Y-42267466D01*
X124413969Y-42097261D01*
X124413970Y-42097258D01*
X124413973Y-42097251D01*
X124446859Y-41931915D01*
X124450500Y-41925105D01*
X124450500Y-41724338D01*
X124449316Y-41720435D01*
X124436694Y-41656979D01*
X124427943Y-41612983D01*
X124413973Y-41542749D01*
X124413971Y-41542746D01*
X124413941Y-41542592D01*
X124413833Y-41542255D01*
X124413144Y-41540746D01*
X124370592Y-41438019D01*
X124370592Y-41438018D01*
X124342322Y-41369769D01*
X124342318Y-41369763D01*
X124342316Y-41369759D01*
X124238307Y-41214098D01*
X124238302Y-41214092D01*
X124105907Y-41081697D01*
X124105901Y-41081692D01*
X124024824Y-41027518D01*
X123950248Y-40977688D01*
X123950241Y-40977684D01*
X123950240Y-40977683D01*
X123950233Y-40977679D01*
X123950231Y-40977678D01*
X123950229Y-40977677D01*
X123950221Y-40977673D01*
X123950185Y-40977658D01*
X123777266Y-40906031D01*
X123777258Y-40906028D01*
X123777245Y-40906024D01*
X123777239Y-40906023D01*
X123593622Y-40869500D01*
X123593619Y-40869500D01*
X123593616Y-40869500D01*
X123406384Y-40869500D01*
X123406381Y-40869500D01*
X123406378Y-40869500D01*
X123222759Y-40906023D01*
X123222753Y-40906024D01*
X123222740Y-40906028D01*
X123222732Y-40906031D01*
X123049793Y-40977666D01*
X123049765Y-40977679D01*
X123049755Y-40977684D01*
X122894097Y-41081692D01*
X122894090Y-41081698D01*
X122761698Y-41214090D01*
X122761692Y-41214097D01*
X122657684Y-41369755D01*
X122657679Y-41369765D01*
X122657666Y-41369793D01*
X122586031Y-41542732D01*
X122586028Y-41542740D01*
X122586024Y-41542753D01*
X122586023Y-41542759D01*
X122549500Y-41726376D01*
X121600500Y-41726376D01*
X121600500Y-38772012D01*
X121605181Y-38748479D01*
X121610866Y-38734753D01*
X121635542Y-38705855D01*
X121636790Y-38705089D01*
X121649914Y-38699039D01*
X121675992Y-38690568D01*
X121886433Y-38583343D01*
X122077510Y-38444517D01*
X122244517Y-38277510D01*
X122383343Y-38086433D01*
X122490568Y-37875992D01*
X122497508Y-37854629D01*
X122509231Y-37833695D01*
X122518881Y-37822396D01*
X122551307Y-37802534D01*
X122552721Y-37802195D01*
X122567059Y-37800500D01*
X125439142Y-37800500D01*
X125462676Y-37805181D01*
X125483560Y-37813831D01*
X125503513Y-37827163D01*
X132588293Y-44911943D01*
X132601627Y-44931901D01*
X132604160Y-44938018D01*
X132604155Y-44985088D01*
X132570881Y-45018363D01*
X132568149Y-45019495D01*
X132534986Y-45023422D01*
X132510229Y-45019500D01*
X132510225Y-45019500D01*
X132510222Y-45019500D01*
X132289778Y-45019500D01*
X132289774Y-45019500D01*
X132289770Y-45019500D01*
X132072043Y-45053985D01*
X131864416Y-45121447D01*
X131863267Y-45121777D01*
X131862393Y-45122104D01*
X131665980Y-45222183D01*
X131487629Y-45351762D01*
X131331762Y-45507629D01*
X131202183Y-45685980D01*
X131102104Y-45882393D01*
X131101777Y-45883267D01*
X131101447Y-45884416D01*
X131033985Y-46092043D01*
X130999500Y-46309770D01*
X130999500Y-46530228D01*
X131033985Y-46747953D01*
X131101447Y-46955582D01*
X131101776Y-46956730D01*
X131102104Y-46957604D01*
X131102105Y-46957605D01*
X131102106Y-46957609D01*
X131171737Y-47094265D01*
X131202185Y-47154022D01*
X131331758Y-47332365D01*
X131487635Y-47488242D01*
X131665978Y-47617815D01*
X131862394Y-47717895D01*
X132072049Y-47786015D01*
X132289778Y-47820500D01*
X132289782Y-47820500D01*
X132510218Y-47820500D01*
X132510222Y-47820500D01*
X132727951Y-47786015D01*
X132937606Y-47717895D01*
X133134022Y-47617815D01*
X133312365Y-47488242D01*
X133468242Y-47332365D01*
X133597815Y-47154022D01*
X133697895Y-46957606D01*
X133766015Y-46747951D01*
X133800500Y-46530222D01*
X133800500Y-46309778D01*
X133797089Y-46288242D01*
X133798033Y-46264262D01*
X133799579Y-46257825D01*
X133827249Y-46219747D01*
X133873728Y-46212385D01*
X133876607Y-46213076D01*
X133905740Y-46229390D01*
X135962212Y-48285862D01*
X135975546Y-48305820D01*
X135978079Y-48311937D01*
X135978074Y-48359007D01*
X135944798Y-48392282D01*
X135938682Y-48394816D01*
X135915142Y-48399500D01*
X135841453Y-48399500D01*
X135648166Y-48437948D01*
X135648164Y-48437948D01*
X135648163Y-48437949D01*
X135466083Y-48513369D01*
X135466081Y-48513370D01*
X135466072Y-48513374D01*
X135302223Y-48622855D01*
X135302216Y-48622861D01*
X135162861Y-48762216D01*
X135162855Y-48762223D01*
X135053374Y-48926072D01*
X135053372Y-48926077D01*
X135053369Y-48926083D01*
X134986491Y-49087542D01*
X134977948Y-49108166D01*
X134939500Y-49301451D01*
X134939500Y-49498545D01*
X134951774Y-49560247D01*
X134977947Y-49691828D01*
X134977949Y-49691836D01*
X135006478Y-49760711D01*
X135047393Y-49859490D01*
X135047393Y-49859491D01*
X135053365Y-49873907D01*
X135053373Y-49873924D01*
X135158273Y-50030917D01*
X135162855Y-50037775D01*
X135162860Y-50037781D01*
X135302218Y-50177139D01*
X135302224Y-50177144D01*
X135377614Y-50227518D01*
X135466077Y-50286627D01*
X135466082Y-50286630D01*
X135466084Y-50286631D01*
X135466086Y-50286632D01*
X135648165Y-50362051D01*
X135835514Y-50399317D01*
X135839413Y-50400500D01*
X136038544Y-50400500D01*
X136050031Y-50400500D01*
X136056841Y-50396859D01*
X136231835Y-50362051D01*
X136413914Y-50286632D01*
X136413923Y-50286626D01*
X136574578Y-50179279D01*
X136575777Y-50178583D01*
X136576889Y-50177782D01*
X136577953Y-50177042D01*
X136579119Y-50175802D01*
X136641937Y-50112984D01*
X136717139Y-50037782D01*
X136783803Y-49938013D01*
X136825722Y-49875275D01*
X136826888Y-49873630D01*
X136827767Y-49871171D01*
X136902051Y-49691835D01*
X136936859Y-49516841D01*
X136940500Y-49510030D01*
X136940500Y-49299412D01*
X136939315Y-49295506D01*
X136937818Y-49287977D01*
X136937818Y-49287976D01*
X136902052Y-49108170D01*
X136902050Y-49108163D01*
X136893717Y-49088046D01*
X136826632Y-48926086D01*
X136826631Y-48926084D01*
X136826630Y-48926081D01*
X136826627Y-48926077D01*
X136746051Y-48805487D01*
X136717144Y-48762224D01*
X136717139Y-48762218D01*
X136603846Y-48648925D01*
X136598891Y-48636964D01*
X136535982Y-48594931D01*
X136519018Y-48577968D01*
X136515336Y-48572458D01*
X136506152Y-48526296D01*
X136532298Y-48487160D01*
X136534262Y-48485848D01*
X136568405Y-48475500D01*
X145467787Y-48475500D01*
X145491319Y-48480180D01*
X145497435Y-48482713D01*
X145530721Y-48515995D01*
X145530728Y-48563052D01*
X145529839Y-48565200D01*
X145507182Y-48592816D01*
X145462215Y-48622862D01*
X145462213Y-48622863D01*
X145322861Y-48762216D01*
X145322855Y-48762223D01*
X145213374Y-48926072D01*
X145213372Y-48926077D01*
X145213369Y-48926083D01*
X145146491Y-49087542D01*
X145137948Y-49108166D01*
X145099500Y-49301451D01*
X145099500Y-49498545D01*
X145111774Y-49560247D01*
X145137947Y-49691828D01*
X145137949Y-49691836D01*
X145166478Y-49760711D01*
X145207393Y-49859490D01*
X145207393Y-49859491D01*
X145213365Y-49873907D01*
X145213373Y-49873924D01*
X145318273Y-50030917D01*
X145322855Y-50037775D01*
X145322860Y-50037781D01*
X145462218Y-50177139D01*
X145462224Y-50177144D01*
X145537614Y-50227518D01*
X145626077Y-50286627D01*
X145626082Y-50286630D01*
X145626084Y-50286631D01*
X145626086Y-50286632D01*
X145808165Y-50362051D01*
X145995514Y-50399317D01*
X145999413Y-50400500D01*
X146198544Y-50400500D01*
X146210031Y-50400500D01*
X146216841Y-50396859D01*
X146391835Y-50362051D01*
X146573914Y-50286632D01*
X146573923Y-50286626D01*
X146734578Y-50179279D01*
X146735777Y-50178583D01*
X146736889Y-50177782D01*
X146737953Y-50177042D01*
X146739119Y-50175802D01*
X146801937Y-50112984D01*
X146877139Y-50037782D01*
X146943803Y-49938013D01*
X146985722Y-49875275D01*
X146986888Y-49873630D01*
X146987767Y-49871171D01*
X147062051Y-49691835D01*
X147096859Y-49516841D01*
X147100500Y-49510030D01*
X147100500Y-49299412D01*
X147099315Y-49295506D01*
X147097818Y-49287977D01*
X147097818Y-49287976D01*
X147062052Y-49108170D01*
X147062050Y-49108163D01*
X147053717Y-49088046D01*
X146986632Y-48926086D01*
X146986631Y-48926084D01*
X146986630Y-48926081D01*
X146986627Y-48926077D01*
X146906051Y-48805487D01*
X146877144Y-48762224D01*
X146877139Y-48762218D01*
X146763846Y-48648925D01*
X146758891Y-48636964D01*
X146695982Y-48594931D01*
X146679018Y-48577968D01*
X146675336Y-48572458D01*
X146666152Y-48526296D01*
X146692298Y-48487160D01*
X146694262Y-48485848D01*
X146728405Y-48475500D01*
X174695766Y-48475500D01*
X174719301Y-48480182D01*
X174727951Y-48483765D01*
X174761233Y-48517044D01*
X174764817Y-48525695D01*
X174769500Y-48549234D01*
X174769500Y-52925891D01*
X174764818Y-52949428D01*
X174757811Y-52966343D01*
X174735167Y-52993937D01*
X174727270Y-52999215D01*
X174727263Y-52999220D01*
X174600340Y-53084025D01*
X174454025Y-53230340D01*
X174339059Y-53402400D01*
X174339059Y-53402401D01*
X174339047Y-53402426D01*
X174259874Y-53593563D01*
X174259871Y-53593571D01*
X174259867Y-53593584D01*
X174259866Y-53593590D01*
X174219500Y-53796527D01*
X174219500Y-54003471D01*
X174259866Y-54206408D01*
X174259867Y-54206414D01*
X174259871Y-54206427D01*
X174259874Y-54206435D01*
X174333377Y-54383881D01*
X174339056Y-54397592D01*
X174339059Y-54397598D01*
X174364670Y-54435928D01*
X174454021Y-54569653D01*
X174574279Y-54689911D01*
X174579233Y-54701871D01*
X174600345Y-54715977D01*
X174600344Y-54715977D01*
X174686664Y-54773653D01*
X174772402Y-54830941D01*
X174861466Y-54867832D01*
X174961573Y-54909299D01*
X174963080Y-54909987D01*
X174963430Y-54910100D01*
X174963579Y-54910129D01*
X174963580Y-54910130D01*
X175160590Y-54949317D01*
X175164489Y-54950500D01*
X175373468Y-54950500D01*
X175384955Y-54950500D01*
X175391764Y-54946859D01*
X175576420Y-54910130D01*
X175576493Y-54910100D01*
X175602518Y-54899319D01*
X175767598Y-54830941D01*
X175939655Y-54715977D01*
X176085977Y-54569655D01*
X176200941Y-54397598D01*
X176280130Y-54206420D01*
X176316859Y-54021764D01*
X176320500Y-54014954D01*
X176320500Y-53794487D01*
X176319314Y-53790576D01*
X176319239Y-53790201D01*
X176318537Y-53786669D01*
X176314918Y-53768477D01*
X176287821Y-53632248D01*
X176280130Y-53593580D01*
X176280128Y-53593577D01*
X176280098Y-53593423D01*
X176279990Y-53593086D01*
X176279301Y-53591577D01*
X176256804Y-53537266D01*
X176204588Y-53411207D01*
X176200951Y-53402426D01*
X176200943Y-53402406D01*
X176200942Y-53402404D01*
X176200941Y-53402402D01*
X176085977Y-53230345D01*
X175965719Y-53110087D01*
X175960764Y-53098126D01*
X175812737Y-52999220D01*
X175812737Y-52999219D01*
X175812734Y-52999218D01*
X175808002Y-52996056D01*
X175791035Y-52979088D01*
X175780864Y-52963865D01*
X175770500Y-52929699D01*
X175770500Y-48549234D01*
X175775181Y-48525701D01*
X175778764Y-48517050D01*
X175812045Y-48483765D01*
X175812047Y-48483764D01*
X175812050Y-48483764D01*
X175820701Y-48480181D01*
X175844234Y-48475500D01*
X209190887Y-48475500D01*
X209214420Y-48480181D01*
X209227318Y-48485523D01*
X209257046Y-48511594D01*
X209258476Y-48514071D01*
X209264619Y-48528901D01*
X209287014Y-48612480D01*
X209287015Y-48612482D01*
X209287016Y-48612485D01*
X209359491Y-48738015D01*
X209461985Y-48840509D01*
X209587515Y-48912984D01*
X209587519Y-48912986D01*
X209587542Y-48912995D01*
X209588019Y-48913119D01*
X209627733Y-48923760D01*
X209727521Y-48950500D01*
X209872476Y-48950500D01*
X209872477Y-48950500D01*
X209912651Y-48939734D01*
X209963599Y-48926083D01*
X210012485Y-48912984D01*
X210138015Y-48840509D01*
X210240509Y-48738015D01*
X210240514Y-48738006D01*
X210242607Y-48735279D01*
X210253966Y-48723920D01*
X210267927Y-48713208D01*
X210305364Y-48700500D01*
X213513821Y-48700500D01*
X213537353Y-48705180D01*
X213543469Y-48707713D01*
X213576755Y-48740995D01*
X213576758Y-48788062D01*
X213574225Y-48794179D01*
X213560891Y-48814137D01*
X212648074Y-49726952D01*
X212628122Y-49740284D01*
X212612041Y-49746945D01*
X212576568Y-49749271D01*
X212576469Y-49750026D01*
X212572676Y-49749526D01*
X212572595Y-49749532D01*
X212572477Y-49749500D01*
X212572476Y-49749500D01*
X212572475Y-49749500D01*
X212427525Y-49749500D01*
X212427523Y-49749500D01*
X212427520Y-49749500D01*
X212287526Y-49787010D01*
X212287522Y-49787012D01*
X212287519Y-49787014D01*
X212287515Y-49787016D01*
X212200911Y-49837017D01*
X212161981Y-49859493D01*
X212059493Y-49961981D01*
X212059490Y-49961985D01*
X212059490Y-49961986D01*
X212043900Y-49988989D01*
X211987012Y-50087522D01*
X211987010Y-50087527D01*
X211949500Y-50227518D01*
X211949500Y-50372480D01*
X211987013Y-50512482D01*
X212059486Y-50638008D01*
X212059489Y-50638012D01*
X212059491Y-50638015D01*
X212161985Y-50740509D01*
X212287515Y-50812984D01*
X212287519Y-50812986D01*
X212287542Y-50812995D01*
X212288019Y-50813119D01*
X212327733Y-50823760D01*
X212427521Y-50850500D01*
X212572476Y-50850500D01*
X212572477Y-50850500D01*
X212584822Y-50847191D01*
X212634206Y-50833958D01*
X212634207Y-50833958D01*
X212712478Y-50812986D01*
X212712478Y-50812985D01*
X212712485Y-50812984D01*
X212838015Y-50740509D01*
X212940509Y-50638015D01*
X213012984Y-50512485D01*
X213038600Y-50416886D01*
X213050500Y-50372477D01*
X213050500Y-50227526D01*
X213050499Y-50227522D01*
X213050039Y-50223787D01*
X213050960Y-50223673D01*
X213050050Y-50208034D01*
X213052345Y-50190597D01*
X213069830Y-50155138D01*
X213997809Y-49227161D01*
X214017761Y-49213831D01*
X214038646Y-49205181D01*
X214062179Y-49200500D01*
X214942219Y-49200500D01*
X214985706Y-49218513D01*
X214991953Y-49225824D01*
X215053981Y-49311112D01*
X215123653Y-49406911D01*
X215162498Y-49447326D01*
X215188578Y-49467920D01*
X215236893Y-49496330D01*
X215236895Y-49496331D01*
X216400136Y-49981015D01*
X216400140Y-49981016D01*
X216400147Y-49981019D01*
X216470274Y-49996634D01*
X216512575Y-49998470D01*
X216583794Y-49988989D01*
X218714263Y-49311112D01*
X218714902Y-49310798D01*
X218715068Y-49310788D01*
X218716372Y-49310266D01*
X218716544Y-49310695D01*
X218761879Y-49307848D01*
X218785440Y-49322543D01*
X219222836Y-49759939D01*
X219236167Y-49779891D01*
X219244818Y-49800776D01*
X219249500Y-49824311D01*
X219249500Y-61854711D01*
X219247404Y-61870629D01*
X219243355Y-61885739D01*
X219237212Y-61900571D01*
X219187014Y-61987516D01*
X219187013Y-61987520D01*
X219187011Y-61987526D01*
X219161032Y-62084482D01*
X219154889Y-62099315D01*
X219147066Y-62112865D01*
X219137292Y-62125602D01*
X217740060Y-63522836D01*
X217720109Y-63536167D01*
X217699225Y-63544818D01*
X217675689Y-63549500D01*
X211545288Y-63549500D01*
X211529371Y-63547404D01*
X211514260Y-63543355D01*
X211499427Y-63537212D01*
X211479006Y-63525422D01*
X211412479Y-63487012D01*
X211272480Y-63449500D01*
X211272477Y-63449500D01*
X211272475Y-63449500D01*
X211127525Y-63449500D01*
X211127523Y-63449500D01*
X211127520Y-63449500D01*
X210987526Y-63487010D01*
X210987520Y-63487013D01*
X210987519Y-63487014D01*
X210987515Y-63487016D01*
X210972808Y-63495507D01*
X210900571Y-63537212D01*
X210885740Y-63543355D01*
X210870630Y-63547404D01*
X210854712Y-63549500D01*
X208165732Y-63549500D01*
X208142197Y-63544818D01*
X208121312Y-63536167D01*
X208101360Y-63522836D01*
X208038018Y-63459494D01*
X208038015Y-63459491D01*
X208038012Y-63459489D01*
X208038008Y-63459486D01*
X207912482Y-63387013D01*
X207772480Y-63349500D01*
X207772477Y-63349500D01*
X207772475Y-63349500D01*
X207627525Y-63349500D01*
X207627523Y-63349500D01*
X207627520Y-63349500D01*
X207487526Y-63387010D01*
X207487516Y-63387015D01*
X207400571Y-63437212D01*
X207385740Y-63443355D01*
X207370630Y-63447404D01*
X207354712Y-63449500D01*
X197224311Y-63449500D01*
X197200776Y-63444818D01*
X197179891Y-63436167D01*
X197159939Y-63422836D01*
X195462704Y-61725601D01*
X195452933Y-61712869D01*
X195445110Y-61699319D01*
X195438967Y-61684489D01*
X195412984Y-61587515D01*
X195340509Y-61461985D01*
X195238015Y-61359491D01*
X195238012Y-61359489D01*
X195238008Y-61359486D01*
X195112482Y-61287013D01*
X194972480Y-61249500D01*
X194972477Y-61249500D01*
X194972475Y-61249500D01*
X194827525Y-61249500D01*
X194827523Y-61249500D01*
X194827520Y-61249500D01*
X194687526Y-61287010D01*
X194687522Y-61287012D01*
X194561981Y-61359493D01*
X194459493Y-61461981D01*
X194387012Y-61587522D01*
X194387010Y-61587527D01*
X194349500Y-61727518D01*
X194349500Y-61872480D01*
X194387013Y-62012482D01*
X194459486Y-62138008D01*
X194459489Y-62138012D01*
X194459491Y-62138015D01*
X194561985Y-62240509D01*
X194687515Y-62312984D01*
X194784491Y-62338968D01*
X194799319Y-62345110D01*
X194812869Y-62352933D01*
X194825601Y-62362704D01*
X196723386Y-64260489D01*
X196723389Y-64260491D01*
X196723392Y-64260493D01*
X196757989Y-64280468D01*
X196757990Y-64280468D01*
X196761696Y-64282608D01*
X196761709Y-64282614D01*
X196826108Y-64319796D01*
X196826110Y-64319797D01*
X196826114Y-64319799D01*
X196826118Y-64319800D01*
X196826155Y-64319814D01*
X196826648Y-64319942D01*
X196940687Y-64350500D01*
X196940689Y-64350500D01*
X196940691Y-64350500D01*
X207354712Y-64350500D01*
X207370627Y-64352595D01*
X207385737Y-64356643D01*
X207400569Y-64362786D01*
X207487515Y-64412984D01*
X207487519Y-64412986D01*
X207487542Y-64412995D01*
X207488019Y-64413119D01*
X207527733Y-64423760D01*
X207627521Y-64450500D01*
X207627523Y-64450500D01*
X207627525Y-64450500D01*
X207740691Y-64450500D01*
X210854712Y-64450500D01*
X210870627Y-64452595D01*
X210885737Y-64456643D01*
X210900569Y-64462786D01*
X210987515Y-64512984D01*
X210987519Y-64512986D01*
X210987542Y-64512995D01*
X210988019Y-64513119D01*
X211027733Y-64523760D01*
X211127521Y-64550500D01*
X211272476Y-64550500D01*
X211272477Y-64550500D01*
X211299348Y-64543299D01*
X211379964Y-64521698D01*
X211412485Y-64512984D01*
X211499429Y-64462787D01*
X211514263Y-64456643D01*
X211529374Y-64452595D01*
X211545288Y-64450500D01*
X217959306Y-64450500D01*
X217959310Y-64450500D01*
X217974369Y-64446464D01*
X218049673Y-64426286D01*
X218049674Y-64426286D01*
X218057731Y-64424126D01*
X218057746Y-64424128D01*
X218057745Y-64424123D01*
X218073888Y-64419799D01*
X218176607Y-64360493D01*
X218176606Y-64360493D01*
X218176614Y-64360489D01*
X219774401Y-62762699D01*
X219787135Y-62752929D01*
X219800675Y-62745112D01*
X219815504Y-62738969D01*
X219912485Y-62712984D01*
X219946657Y-62693254D01*
X219969372Y-62685543D01*
X219971743Y-62685230D01*
X219978655Y-62684320D01*
X220024119Y-62696496D01*
X220024690Y-62696934D01*
X220046661Y-62729806D01*
X220047402Y-62732570D01*
X220049500Y-62748495D01*
X220049500Y-62975688D01*
X220044818Y-62999223D01*
X220036167Y-63020108D01*
X220022836Y-63040060D01*
X218040060Y-65022836D01*
X218020109Y-65036167D01*
X217999225Y-65044818D01*
X217975689Y-65049500D01*
X180347408Y-65049500D01*
X180342142Y-65050911D01*
X180318206Y-65052479D01*
X180308922Y-65051257D01*
X180268159Y-65027724D01*
X180266638Y-65025742D01*
X180253927Y-64988301D01*
X180253927Y-64988290D01*
X180254684Y-64978669D01*
X180281600Y-64808734D01*
X180281600Y-64591266D01*
X180247580Y-64376475D01*
X180180379Y-64169650D01*
X180081650Y-63975884D01*
X179953825Y-63799948D01*
X179800052Y-63646175D01*
X179624116Y-63518350D01*
X179562616Y-63487014D01*
X179508590Y-63459486D01*
X179430353Y-63419622D01*
X179430348Y-63419620D01*
X179223527Y-63352420D01*
X179008740Y-63318400D01*
X179008737Y-63318400D01*
X179008734Y-63318400D01*
X178791266Y-63318400D01*
X178791262Y-63318400D01*
X178791258Y-63318400D01*
X178576471Y-63352420D01*
X178369657Y-63419617D01*
X178369642Y-63419623D01*
X178345546Y-63431900D01*
X178322457Y-63438411D01*
X178307651Y-63439577D01*
X178270672Y-63430693D01*
X178269436Y-63429935D01*
X178258100Y-63420996D01*
X177545517Y-62708414D01*
X177545516Y-62708413D01*
X177545514Y-62708411D01*
X177545511Y-62708409D01*
X177545507Y-62708406D01*
X177545506Y-62708405D01*
X177442797Y-62649105D01*
X177442791Y-62649102D01*
X177442780Y-62649098D01*
X177442774Y-62649096D01*
X177397282Y-62636906D01*
X177397264Y-62636903D01*
X177328213Y-62618400D01*
X177328211Y-62618400D01*
X177328209Y-62618400D01*
X172371791Y-62618400D01*
X172371788Y-62618400D01*
X172298834Y-62637947D01*
X172264540Y-62647136D01*
X172264539Y-62647137D01*
X172257217Y-62649099D01*
X172257211Y-62649101D01*
X172257209Y-62649101D01*
X172154490Y-62708407D01*
X172154483Y-62708413D01*
X171739506Y-63123390D01*
X171739504Y-63123393D01*
X171680202Y-63226106D01*
X171680202Y-63226108D01*
X171680201Y-63226110D01*
X171680200Y-63226113D01*
X171675735Y-63242782D01*
X171675734Y-63242786D01*
X171649500Y-63340686D01*
X171649500Y-63340688D01*
X171649500Y-64965035D01*
X171654242Y-64982732D01*
X171654244Y-64982737D01*
X171654244Y-64982739D01*
X171665173Y-65023525D01*
X171665173Y-65023526D01*
X171673659Y-65055196D01*
X171673659Y-65055197D01*
X171680197Y-65079599D01*
X171680203Y-65079616D01*
X171680205Y-65079621D01*
X171739505Y-65182330D01*
X171739506Y-65182331D01*
X171739509Y-65182335D01*
X171739511Y-65182338D01*
X173948762Y-67391590D01*
X174002883Y-67422836D01*
X174007497Y-67425500D01*
X174026063Y-67436219D01*
X174031851Y-67443762D01*
X174043163Y-67447533D01*
X174047678Y-67449566D01*
X174047766Y-67449356D01*
X174051487Y-67450897D01*
X174051490Y-67450899D01*
X174075700Y-67457386D01*
X174166063Y-67481600D01*
X174166065Y-67481600D01*
X174166067Y-67481600D01*
X179924880Y-67481600D01*
X179924884Y-67481600D01*
X179939943Y-67477564D01*
X180015247Y-67457386D01*
X180015248Y-67457386D01*
X180023305Y-67455226D01*
X180023320Y-67455228D01*
X180023319Y-67455223D01*
X180039462Y-67450899D01*
X180142181Y-67391593D01*
X180142180Y-67391593D01*
X180142188Y-67391589D01*
X180456616Y-67077160D01*
X180476567Y-67063831D01*
X180497452Y-67055181D01*
X180520985Y-67050500D01*
X205499421Y-67050500D01*
X205522952Y-67055180D01*
X205527634Y-67057119D01*
X205560920Y-67090400D01*
X205560923Y-67137470D01*
X205534870Y-67167190D01*
X205534600Y-67167346D01*
X205519776Y-67173492D01*
X205518955Y-67173713D01*
X205499858Y-67178829D01*
X205494744Y-67180200D01*
X205494737Y-67180202D01*
X205392019Y-67239507D01*
X205392012Y-67239513D01*
X204908689Y-67722836D01*
X204888738Y-67736167D01*
X204867854Y-67744818D01*
X204844318Y-67749500D01*
X168024311Y-67749500D01*
X168000776Y-67744818D01*
X167979891Y-67736167D01*
X167959939Y-67722836D01*
X167177163Y-66940060D01*
X167163831Y-66920106D01*
X167155181Y-66899221D01*
X167150500Y-66875688D01*
X167150500Y-64591258D01*
X168120400Y-64591258D01*
X168120400Y-64808740D01*
X168140430Y-64935196D01*
X168154420Y-65023525D01*
X168162860Y-65049499D01*
X168162860Y-65049501D01*
X168192339Y-65140229D01*
X168221621Y-65230351D01*
X168221623Y-65230356D01*
X168221624Y-65230357D01*
X168284427Y-65353616D01*
X168284428Y-65353616D01*
X168320350Y-65424116D01*
X168448175Y-65600052D01*
X168601948Y-65753825D01*
X168777884Y-65881650D01*
X168971650Y-65980379D01*
X169178475Y-66047580D01*
X169393266Y-66081600D01*
X169393270Y-66081600D01*
X169610730Y-66081600D01*
X169610734Y-66081600D01*
X169825525Y-66047580D01*
X170032350Y-65980379D01*
X170226116Y-65881650D01*
X170402052Y-65753825D01*
X170555825Y-65600052D01*
X170683650Y-65424116D01*
X170782379Y-65230350D01*
X170849580Y-65023525D01*
X170883600Y-64808734D01*
X170883600Y-64591266D01*
X170849580Y-64376475D01*
X170782379Y-64169650D01*
X170683650Y-63975884D01*
X170555825Y-63799948D01*
X170402052Y-63646175D01*
X170226116Y-63518350D01*
X170164616Y-63487014D01*
X170110590Y-63459486D01*
X170032353Y-63419622D01*
X170032348Y-63419620D01*
X169825527Y-63352420D01*
X169610740Y-63318400D01*
X169610737Y-63318400D01*
X169610734Y-63318400D01*
X169393266Y-63318400D01*
X169393262Y-63318400D01*
X169393258Y-63318400D01*
X169178471Y-63352420D01*
X168971650Y-63419620D01*
X168971645Y-63419622D01*
X168777886Y-63518348D01*
X168601942Y-63646179D01*
X168448179Y-63799942D01*
X168320348Y-63975886D01*
X168221622Y-64169645D01*
X168221620Y-64169650D01*
X168154420Y-64376471D01*
X168120400Y-64591258D01*
X167150500Y-64591258D01*
X167150500Y-63924311D01*
X167155181Y-63900778D01*
X167163831Y-63879893D01*
X167177160Y-63859942D01*
X168384942Y-62652161D01*
X168404894Y-62638831D01*
X168425779Y-62630181D01*
X168449312Y-62625500D01*
X171959311Y-62625500D01*
X171980698Y-62619768D01*
X172007825Y-62612500D01*
X172056342Y-62599500D01*
X172073887Y-62594799D01*
X172176614Y-62535489D01*
X173555598Y-61156502D01*
X173575545Y-61143174D01*
X173589272Y-61137488D01*
X173627170Y-61134510D01*
X173628585Y-61134849D01*
X173642138Y-61139851D01*
X173670643Y-61154376D01*
X173670648Y-61154378D01*
X173670650Y-61154379D01*
X173877475Y-61221580D01*
X174092266Y-61255600D01*
X174092270Y-61255600D01*
X174309730Y-61255600D01*
X174309734Y-61255600D01*
X174524525Y-61221580D01*
X174731350Y-61154379D01*
X174925116Y-61055650D01*
X175101052Y-60927825D01*
X175254825Y-60774052D01*
X175382650Y-60598116D01*
X175481379Y-60404350D01*
X175548580Y-60197525D01*
X175582600Y-59982734D01*
X175582600Y-59765266D01*
X175582599Y-59765258D01*
X177518400Y-59765258D01*
X177518400Y-59982740D01*
X177552420Y-60197527D01*
X177619620Y-60404348D01*
X177619622Y-60404353D01*
X177713623Y-60588839D01*
X177718348Y-60598114D01*
X177750207Y-60641964D01*
X177846175Y-60774052D01*
X177999948Y-60927825D01*
X178175884Y-61055650D01*
X178369650Y-61154379D01*
X178576475Y-61221580D01*
X178791266Y-61255600D01*
X178791270Y-61255600D01*
X179008730Y-61255600D01*
X179008734Y-61255600D01*
X179223525Y-61221580D01*
X179430350Y-61154379D01*
X179624116Y-61055650D01*
X179800052Y-60927825D01*
X179953825Y-60774052D01*
X180081650Y-60598116D01*
X180180379Y-60404350D01*
X180247580Y-60197525D01*
X180263255Y-60098548D01*
X180269199Y-60080254D01*
X180277612Y-60063743D01*
X180288917Y-60048183D01*
X184560489Y-55776614D01*
X184619799Y-55673887D01*
X184640297Y-55597386D01*
X184650500Y-55559309D01*
X184650500Y-54434104D01*
X190049500Y-54434104D01*
X190049500Y-54565895D01*
X190083540Y-54692938D01*
X190083607Y-54693185D01*
X190149495Y-54807307D01*
X190149498Y-54807311D01*
X190149500Y-54807314D01*
X190242686Y-54900500D01*
X190356814Y-54966392D01*
X190356817Y-54966392D01*
X190356828Y-54966399D01*
X190357231Y-54966504D01*
X190401716Y-54978423D01*
X190478089Y-54998888D01*
X190479426Y-54999395D01*
X190484105Y-55000500D01*
X190615894Y-55000500D01*
X190624422Y-55000500D01*
X190631809Y-54996234D01*
X190743186Y-54966392D01*
X190857314Y-54900500D01*
X190950500Y-54807314D01*
X191016392Y-54693186D01*
X191046234Y-54581809D01*
X191050500Y-54574422D01*
X191050500Y-54438055D01*
X191050500Y-54435925D01*
X193699500Y-54435925D01*
X193699500Y-54564073D01*
X193700776Y-54570489D01*
X193715988Y-54646963D01*
X193724496Y-54689731D01*
X193724498Y-54689743D01*
X193724505Y-54689764D01*
X193757628Y-54769728D01*
X193773197Y-54807312D01*
X193773534Y-54808124D01*
X193773535Y-54808126D01*
X193773537Y-54808130D01*
X193788778Y-54830939D01*
X193788779Y-54830941D01*
X193844724Y-54914670D01*
X193909265Y-54979210D01*
X193914219Y-54991170D01*
X193935330Y-55005276D01*
X193988781Y-55040990D01*
X194041873Y-55076465D01*
X194068283Y-55087404D01*
X194089222Y-55096078D01*
X194089225Y-55096078D01*
X194089226Y-55096079D01*
X194158251Y-55124671D01*
X194159760Y-55125359D01*
X194160100Y-55125470D01*
X194160256Y-55125501D01*
X194279986Y-55149317D01*
X194283885Y-55150500D01*
X194414072Y-55150500D01*
X194425559Y-55150500D01*
X194432369Y-55146859D01*
X194539744Y-55125501D01*
X194539744Y-55125500D01*
X194539789Y-55125492D01*
X194540450Y-55125228D01*
X194542940Y-55124266D01*
X194543933Y-55123765D01*
X194570359Y-55112819D01*
X194658127Y-55076465D01*
X194764669Y-55005276D01*
X194855276Y-54914669D01*
X194926465Y-54808127D01*
X194964635Y-54715977D01*
X194973766Y-54693932D01*
X194974267Y-54692938D01*
X194975233Y-54690437D01*
X194975493Y-54689786D01*
X194996859Y-54582370D01*
X195000500Y-54575558D01*
X195000500Y-54433885D01*
X194999316Y-54429986D01*
X194975501Y-54310256D01*
X194975501Y-54310255D01*
X194975470Y-54310100D01*
X194975359Y-54309760D01*
X194974668Y-54308244D01*
X194974272Y-54307287D01*
X194941409Y-54227951D01*
X194926465Y-54191873D01*
X194855276Y-54085331D01*
X194790733Y-54020788D01*
X194785778Y-54008827D01*
X194684672Y-53941272D01*
X194681212Y-53938960D01*
X194658127Y-53923535D01*
X194658124Y-53923533D01*
X194658120Y-53923531D01*
X194539764Y-53874505D01*
X194539743Y-53874498D01*
X194539739Y-53874497D01*
X194539738Y-53874497D01*
X194477333Y-53862083D01*
X194414074Y-53849500D01*
X194414072Y-53849500D01*
X194414069Y-53849500D01*
X194285931Y-53849500D01*
X194285928Y-53849500D01*
X194285926Y-53849500D01*
X194201384Y-53866316D01*
X194160261Y-53874497D01*
X194160255Y-53874498D01*
X194160234Y-53874505D01*
X194041887Y-53923528D01*
X194041872Y-53923535D01*
X194041871Y-53923535D01*
X193935328Y-53994724D01*
X193844724Y-54085328D01*
X193773535Y-54191871D01*
X193773535Y-54191872D01*
X193773528Y-54191887D01*
X193724505Y-54310234D01*
X193724498Y-54310255D01*
X193724496Y-54310267D01*
X193699500Y-54435925D01*
X191050500Y-54435925D01*
X191050500Y-54434105D01*
X191050499Y-54434104D01*
X191048702Y-54427398D01*
X191048701Y-54427391D01*
X191021502Y-54325887D01*
X191016513Y-54307267D01*
X191016399Y-54306828D01*
X191016392Y-54306817D01*
X191016392Y-54306814D01*
X190950500Y-54192686D01*
X190857314Y-54099500D01*
X190857309Y-54099497D01*
X190857307Y-54099495D01*
X190743185Y-54033607D01*
X190743180Y-54033605D01*
X190743179Y-54033605D01*
X190615895Y-53999500D01*
X190484106Y-53999500D01*
X190484105Y-53999500D01*
X190426428Y-54014954D01*
X190356819Y-54033605D01*
X190356796Y-54033617D01*
X190242688Y-54099497D01*
X190242685Y-54099499D01*
X190242683Y-54099502D01*
X190149502Y-54192683D01*
X190149499Y-54192685D01*
X190149497Y-54192688D01*
X190083617Y-54306796D01*
X190083605Y-54306819D01*
X190059281Y-54397599D01*
X190049500Y-54434104D01*
X184650500Y-54434104D01*
X184650500Y-49645286D01*
X184652595Y-49629371D01*
X184656644Y-49614258D01*
X184661945Y-49600933D01*
X184662341Y-49600199D01*
X184673991Y-49580022D01*
X184704305Y-49527518D01*
X190474500Y-49527518D01*
X190474500Y-49672480D01*
X190512013Y-49812482D01*
X190584486Y-49938008D01*
X190584489Y-49938012D01*
X190584491Y-49938015D01*
X190686985Y-50040509D01*
X190812515Y-50112984D01*
X190812519Y-50112986D01*
X190812542Y-50112995D01*
X190813019Y-50113119D01*
X190852733Y-50123760D01*
X190952521Y-50150500D01*
X190952523Y-50150500D01*
X190952525Y-50150500D01*
X191097475Y-50150500D01*
X191097476Y-50150500D01*
X191106070Y-50148196D01*
X191106076Y-50148197D01*
X191106076Y-50148195D01*
X191135030Y-50140435D01*
X191158971Y-50138866D01*
X191176223Y-50141136D01*
X191211685Y-50158623D01*
X193729005Y-52675943D01*
X193757317Y-52687670D01*
X193825669Y-52715983D01*
X204609491Y-52715983D01*
X204633025Y-52720663D01*
X204649105Y-52727324D01*
X204678830Y-52753393D01*
X204700537Y-52790991D01*
X204700540Y-52790995D01*
X204700542Y-52790998D01*
X204700545Y-52791001D01*
X204766664Y-52857120D01*
X204779996Y-52877074D01*
X204783579Y-52885725D01*
X204783579Y-52932791D01*
X204779996Y-52941442D01*
X204766664Y-52961396D01*
X204480225Y-53247836D01*
X204460274Y-53261167D01*
X204439390Y-53269818D01*
X204415854Y-53274500D01*
X197310184Y-53274500D01*
X197281873Y-53286227D01*
X197247432Y-53300493D01*
X197247348Y-53300526D01*
X197213522Y-53314538D01*
X197213522Y-53314539D01*
X197213521Y-53314540D01*
X191289899Y-59238160D01*
X191269947Y-59251492D01*
X191253868Y-59258152D01*
X191214415Y-59260737D01*
X191172479Y-59249500D01*
X191172477Y-59249500D01*
X191172475Y-59249500D01*
X191027525Y-59249500D01*
X191027523Y-59249500D01*
X191027520Y-59249500D01*
X190887526Y-59287010D01*
X190887522Y-59287012D01*
X190887519Y-59287014D01*
X190887515Y-59287016D01*
X190789431Y-59343645D01*
X190761981Y-59359493D01*
X190659493Y-59461981D01*
X190659490Y-59461985D01*
X190659490Y-59461986D01*
X190587016Y-59587515D01*
X190587012Y-59587522D01*
X190587010Y-59587527D01*
X190549500Y-59727518D01*
X190549500Y-59872480D01*
X190587013Y-60012482D01*
X190659486Y-60138008D01*
X190659489Y-60138012D01*
X190659491Y-60138015D01*
X190761985Y-60240509D01*
X190887515Y-60312984D01*
X190887519Y-60312986D01*
X190887542Y-60312995D01*
X190888019Y-60313119D01*
X190927733Y-60323760D01*
X191027521Y-60350500D01*
X191172476Y-60350500D01*
X191172477Y-60350500D01*
X191184822Y-60347191D01*
X191234206Y-60333958D01*
X191234207Y-60333958D01*
X191312478Y-60312986D01*
X191312478Y-60312985D01*
X191312485Y-60312984D01*
X191438015Y-60240509D01*
X191540509Y-60138015D01*
X191612984Y-60012485D01*
X191638136Y-59918618D01*
X191650500Y-59872477D01*
X191650500Y-59727524D01*
X191650499Y-59727522D01*
X191648513Y-59720111D01*
X191646527Y-59712698D01*
X191640435Y-59689966D01*
X191638866Y-59666027D01*
X191641137Y-59648769D01*
X191658623Y-59613312D01*
X191753624Y-59518311D01*
X191773569Y-59504984D01*
X191779688Y-59502449D01*
X191826757Y-59502449D01*
X191860031Y-59535706D01*
X191860576Y-59537020D01*
X191863172Y-59576500D01*
X191849500Y-59627522D01*
X191849500Y-59772480D01*
X191887013Y-59912482D01*
X191959486Y-60038008D01*
X191959489Y-60038012D01*
X191959491Y-60038015D01*
X192061985Y-60140509D01*
X192187515Y-60212984D01*
X192187519Y-60212986D01*
X192187542Y-60212995D01*
X192188019Y-60213119D01*
X192227733Y-60223760D01*
X192327521Y-60250500D01*
X192327523Y-60250500D01*
X192327525Y-60250500D01*
X192472475Y-60250500D01*
X192472476Y-60250500D01*
X192487854Y-60246379D01*
X192510034Y-60240435D01*
X192533969Y-60238867D01*
X192551226Y-60241138D01*
X192586686Y-60258625D01*
X192813522Y-60485461D01*
X192861855Y-60505480D01*
X192861854Y-60505480D01*
X192869136Y-60508496D01*
X192869140Y-60508498D01*
X192890165Y-60517207D01*
X192890166Y-60517207D01*
X192910186Y-60525500D01*
X193054632Y-60525500D01*
X193072478Y-60528146D01*
X193091411Y-60533889D01*
X193091411Y-60533888D01*
X193096399Y-60535401D01*
X193102074Y-60537431D01*
X193145648Y-60555480D01*
X193176124Y-60568103D01*
X193191976Y-60574670D01*
X193193706Y-60575459D01*
X193193891Y-60575500D01*
X193193980Y-60575500D01*
X193193981Y-60575500D01*
X193806017Y-60575500D01*
X193806020Y-60575500D01*
X193854351Y-60555480D01*
X193897934Y-60537427D01*
X193903601Y-60535401D01*
X193908588Y-60533888D01*
X193908589Y-60533889D01*
X193927520Y-60528146D01*
X193945368Y-60525500D01*
X199685307Y-60525500D01*
X199685310Y-60525500D01*
X199733641Y-60505480D01*
X199781973Y-60485461D01*
X201433330Y-58834104D01*
X210999500Y-58834104D01*
X210999500Y-58965895D01*
X211028736Y-59075008D01*
X211033607Y-59093185D01*
X211099495Y-59207307D01*
X211099498Y-59207311D01*
X211099500Y-59207314D01*
X211192686Y-59300500D01*
X211209536Y-59310228D01*
X211258155Y-59338298D01*
X211276195Y-59354119D01*
X211286790Y-59367926D01*
X211299500Y-59405366D01*
X211299500Y-60621239D01*
X211294818Y-60644774D01*
X211286167Y-60665659D01*
X211272836Y-60685611D01*
X211213992Y-60744454D01*
X211213989Y-60744458D01*
X211213989Y-60744459D01*
X211151551Y-60852605D01*
X211141514Y-60869990D01*
X211141512Y-60869994D01*
X211103999Y-61009992D01*
X211103999Y-61154953D01*
X211141512Y-61294955D01*
X211213985Y-61420481D01*
X211213988Y-61420485D01*
X211213990Y-61420488D01*
X211316484Y-61522982D01*
X211442014Y-61595457D01*
X211442018Y-61595459D01*
X211442041Y-61595468D01*
X211442518Y-61595592D01*
X211464283Y-61601424D01*
X211582020Y-61632973D01*
X211726975Y-61632973D01*
X211726976Y-61632973D01*
X211739321Y-61629664D01*
X211788705Y-61616431D01*
X211788706Y-61616431D01*
X211866977Y-61595459D01*
X211866977Y-61595458D01*
X211866984Y-61595457D01*
X211992514Y-61522982D01*
X212095008Y-61420488D01*
X212167483Y-61294958D01*
X212194753Y-61193186D01*
X212199876Y-61174068D01*
X212204999Y-61154951D01*
X212204999Y-61009992D01*
X212181018Y-60920500D01*
X212167484Y-60869992D01*
X212167483Y-60869988D01*
X212095008Y-60744458D01*
X211992514Y-60641964D01*
X211992508Y-60641960D01*
X211992506Y-60641959D01*
X211991023Y-60641098D01*
X211990909Y-60641037D01*
X211941842Y-60612707D01*
X211923802Y-60596886D01*
X211913209Y-60583081D01*
X211900500Y-60545642D01*
X211900500Y-59231890D01*
X211902595Y-59215976D01*
X211906643Y-59200865D01*
X211912784Y-59186035D01*
X211966392Y-59093186D01*
X211996234Y-58981809D01*
X212000500Y-58974422D01*
X212000500Y-58833285D01*
X211999456Y-58830209D01*
X211966519Y-58707287D01*
X211966399Y-58706828D01*
X211966392Y-58706817D01*
X211966392Y-58706814D01*
X211900500Y-58592686D01*
X211807314Y-58499500D01*
X211807309Y-58499497D01*
X211807307Y-58499495D01*
X211693185Y-58433607D01*
X211693180Y-58433605D01*
X211693179Y-58433605D01*
X211565895Y-58399500D01*
X211434106Y-58399500D01*
X211434105Y-58399500D01*
X211370462Y-58416552D01*
X211306819Y-58433605D01*
X211306796Y-58433617D01*
X211192688Y-58499497D01*
X211192685Y-58499499D01*
X211192683Y-58499502D01*
X211099502Y-58592683D01*
X211099499Y-58592685D01*
X211099497Y-58592688D01*
X211033617Y-58706796D01*
X211033608Y-58706814D01*
X211033605Y-58706820D01*
X210999500Y-58834104D01*
X201433330Y-58834104D01*
X202979916Y-57287518D01*
X205529500Y-57287518D01*
X205529500Y-57432480D01*
X205567013Y-57572482D01*
X205639486Y-57698008D01*
X205639489Y-57698012D01*
X205639491Y-57698015D01*
X205741985Y-57800509D01*
X205867515Y-57872984D01*
X205867519Y-57872986D01*
X205867542Y-57872995D01*
X205868019Y-57873119D01*
X205891452Y-57879398D01*
X206007521Y-57910500D01*
X206152476Y-57910500D01*
X206152477Y-57910500D01*
X206164822Y-57907191D01*
X206214206Y-57893958D01*
X206214207Y-57893958D01*
X206292478Y-57872986D01*
X206292478Y-57872985D01*
X206292485Y-57872984D01*
X206359827Y-57834104D01*
X212749502Y-57834104D01*
X212749502Y-57965895D01*
X212781284Y-58084511D01*
X212783609Y-58093185D01*
X212849497Y-58207307D01*
X212849500Y-58207311D01*
X212849502Y-58207314D01*
X212942688Y-58300500D01*
X213056816Y-58366392D01*
X213056819Y-58366392D01*
X213056830Y-58366399D01*
X213057233Y-58366504D01*
X213101718Y-58378423D01*
X213178091Y-58398888D01*
X213179428Y-58399395D01*
X213184107Y-58400500D01*
X213315896Y-58400500D01*
X213324424Y-58400500D01*
X213331811Y-58396234D01*
X213443188Y-58366392D01*
X213557316Y-58300500D01*
X213630655Y-58227160D01*
X213650606Y-58213831D01*
X213671491Y-58205181D01*
X213695024Y-58200500D01*
X216039565Y-58200500D01*
X216053040Y-58196888D01*
X216073257Y-58191471D01*
X216115989Y-58180021D01*
X216184511Y-58140460D01*
X216240460Y-58084511D01*
X216351927Y-57973042D01*
X216371876Y-57959713D01*
X216387952Y-57953053D01*
X216423426Y-57950730D01*
X216423526Y-57949974D01*
X216427328Y-57950474D01*
X216427409Y-57950469D01*
X216427525Y-57950500D01*
X216427527Y-57950500D01*
X216572476Y-57950500D01*
X216572477Y-57950500D01*
X216587843Y-57946382D01*
X216634206Y-57933958D01*
X216634207Y-57933958D01*
X216712478Y-57912986D01*
X216712478Y-57912985D01*
X216712485Y-57912984D01*
X216838015Y-57840509D01*
X216838017Y-57840506D01*
X216841208Y-57838058D01*
X216841638Y-57838618D01*
X216856374Y-57828767D01*
X216872454Y-57822105D01*
X216911908Y-57819520D01*
X216932877Y-57825139D01*
X217027521Y-57850500D01*
X217172476Y-57850500D01*
X217172477Y-57850500D01*
X217209758Y-57840510D01*
X217236109Y-57833449D01*
X217312485Y-57812984D01*
X217438015Y-57740509D01*
X217540509Y-57638015D01*
X217612984Y-57512485D01*
X217627540Y-57458158D01*
X217650500Y-57372477D01*
X217650500Y-57227522D01*
X217650500Y-57227519D01*
X217620987Y-57117385D01*
X217613119Y-57088019D01*
X217612995Y-57087542D01*
X217612985Y-57087517D01*
X217612984Y-57087515D01*
X217540509Y-56961985D01*
X217438015Y-56859491D01*
X217438012Y-56859489D01*
X217438008Y-56859486D01*
X217312482Y-56787013D01*
X217172480Y-56749500D01*
X217172477Y-56749500D01*
X217172475Y-56749500D01*
X217027525Y-56749500D01*
X217027523Y-56749500D01*
X217027520Y-56749500D01*
X216887526Y-56787010D01*
X216887522Y-56787012D01*
X216761984Y-56859491D01*
X216758786Y-56861946D01*
X216758358Y-56861389D01*
X216743617Y-56871235D01*
X216727538Y-56877894D01*
X216688088Y-56880478D01*
X216572479Y-56849500D01*
X216572477Y-56849500D01*
X216572475Y-56849500D01*
X216427525Y-56849500D01*
X216427523Y-56849500D01*
X216427520Y-56849500D01*
X216287526Y-56887010D01*
X216287522Y-56887012D01*
X216287519Y-56887014D01*
X216287515Y-56887016D01*
X216231267Y-56919491D01*
X216161981Y-56959493D01*
X216059493Y-57061981D01*
X215987012Y-57187522D01*
X215987010Y-57187527D01*
X215949500Y-57327518D01*
X215949500Y-57472476D01*
X215949951Y-57475905D01*
X215949949Y-57491958D01*
X215947650Y-57509408D01*
X215930165Y-57544861D01*
X215902192Y-57572835D01*
X215882243Y-57586166D01*
X215867608Y-57592229D01*
X215861360Y-57594817D01*
X215837823Y-57599500D01*
X213695024Y-57599500D01*
X213671489Y-57594818D01*
X213650604Y-57586167D01*
X213630652Y-57572836D01*
X213557319Y-57499503D01*
X213557318Y-57499502D01*
X213557316Y-57499500D01*
X213557311Y-57499497D01*
X213557309Y-57499495D01*
X213443187Y-57433607D01*
X213443182Y-57433605D01*
X213443181Y-57433605D01*
X213315897Y-57399500D01*
X213184108Y-57399500D01*
X213184107Y-57399500D01*
X213120464Y-57416552D01*
X213056821Y-57433605D01*
X213056798Y-57433617D01*
X212942690Y-57499497D01*
X212942687Y-57499499D01*
X212942685Y-57499502D01*
X212849504Y-57592683D01*
X212849501Y-57592685D01*
X212849499Y-57592688D01*
X212783619Y-57706796D01*
X212783607Y-57706819D01*
X212753943Y-57817530D01*
X212749502Y-57834104D01*
X206359827Y-57834104D01*
X206418015Y-57800509D01*
X206491363Y-57727160D01*
X206511314Y-57713831D01*
X206532199Y-57705181D01*
X206555732Y-57700500D01*
X206739565Y-57700500D01*
X206753040Y-57696888D01*
X206773257Y-57691471D01*
X206815989Y-57680021D01*
X206884511Y-57640460D01*
X206940460Y-57584511D01*
X207297810Y-57227160D01*
X207317761Y-57213831D01*
X207338646Y-57205181D01*
X207362179Y-57200500D01*
X208404976Y-57200500D01*
X208428510Y-57205181D01*
X208449394Y-57213831D01*
X208469347Y-57227163D01*
X208542684Y-57300500D01*
X208656812Y-57366392D01*
X208656815Y-57366392D01*
X208656826Y-57366399D01*
X208657229Y-57366504D01*
X208701714Y-57378423D01*
X208778087Y-57398888D01*
X208779424Y-57399395D01*
X208784103Y-57400500D01*
X208915892Y-57400500D01*
X208924419Y-57400500D01*
X208931805Y-57396234D01*
X208993788Y-57379627D01*
X208995636Y-57379132D01*
X209004407Y-57376781D01*
X209039626Y-57367345D01*
X209041761Y-57366908D01*
X209045285Y-57365829D01*
X209048389Y-57364997D01*
X209053763Y-57360283D01*
X209157312Y-57300500D01*
X209250498Y-57207314D01*
X209316390Y-57093186D01*
X209317909Y-57087519D01*
X209349456Y-56969780D01*
X209350498Y-56966711D01*
X209350498Y-56833285D01*
X209349454Y-56830209D01*
X209316517Y-56707287D01*
X209316397Y-56706828D01*
X209316390Y-56706817D01*
X209316390Y-56706814D01*
X209250498Y-56592686D01*
X209157312Y-56499500D01*
X209157307Y-56499497D01*
X209157305Y-56499495D01*
X209043183Y-56433607D01*
X209043178Y-56433605D01*
X209043177Y-56433605D01*
X208915893Y-56399500D01*
X208784104Y-56399500D01*
X208784103Y-56399500D01*
X208724247Y-56415538D01*
X208656817Y-56433605D01*
X208656794Y-56433617D01*
X208542686Y-56499497D01*
X208542683Y-56499499D01*
X208542681Y-56499502D01*
X208469347Y-56572836D01*
X208449396Y-56586167D01*
X208428512Y-56594818D01*
X208404976Y-56599500D01*
X207160435Y-56599500D01*
X207122226Y-56609737D01*
X207084017Y-56619975D01*
X207083994Y-56619987D01*
X207015491Y-56659537D01*
X207015488Y-56659539D01*
X207015486Y-56659542D01*
X207015485Y-56659542D01*
X206634343Y-57040684D01*
X206614391Y-57054015D01*
X206605741Y-57057598D01*
X206558672Y-57057599D01*
X206554826Y-57056006D01*
X206525102Y-57029941D01*
X206521426Y-57023575D01*
X206520753Y-57022323D01*
X206520507Y-57021982D01*
X206418018Y-56919494D01*
X206418017Y-56919493D01*
X206418015Y-56919491D01*
X206418012Y-56919489D01*
X206418008Y-56919486D01*
X206292482Y-56847013D01*
X206152480Y-56809500D01*
X206152477Y-56809500D01*
X206152475Y-56809500D01*
X206007525Y-56809500D01*
X206007523Y-56809500D01*
X206007520Y-56809500D01*
X205867526Y-56847010D01*
X205867522Y-56847012D01*
X205867519Y-56847014D01*
X205867515Y-56847016D01*
X205806109Y-56882469D01*
X205741981Y-56919493D01*
X205639493Y-57021981D01*
X205639490Y-57021985D01*
X205639490Y-57021986D01*
X205618929Y-57057599D01*
X205567012Y-57147522D01*
X205567010Y-57147527D01*
X205529500Y-57287518D01*
X202979916Y-57287518D01*
X205833330Y-54434104D01*
X211399500Y-54434104D01*
X211399500Y-54565895D01*
X211433540Y-54692938D01*
X211433607Y-54693185D01*
X211499495Y-54807307D01*
X211499498Y-54807311D01*
X211499500Y-54807314D01*
X211592686Y-54900500D01*
X211706814Y-54966392D01*
X211706817Y-54966392D01*
X211706828Y-54966399D01*
X211707231Y-54966504D01*
X211751716Y-54978423D01*
X211828089Y-54998888D01*
X211829426Y-54999395D01*
X211834105Y-55000500D01*
X211965894Y-55000500D01*
X211974422Y-55000500D01*
X211981809Y-54996234D01*
X212093186Y-54966392D01*
X212207314Y-54900500D01*
X212300500Y-54807314D01*
X212366392Y-54693186D01*
X212396234Y-54581809D01*
X212400500Y-54574422D01*
X212400500Y-54433285D01*
X212399456Y-54430209D01*
X212372059Y-54327964D01*
X212366513Y-54307267D01*
X212366399Y-54306828D01*
X212366392Y-54306817D01*
X212366392Y-54306814D01*
X212300500Y-54192686D01*
X212227163Y-54119349D01*
X212213831Y-54099395D01*
X212205181Y-54078510D01*
X212200500Y-54054977D01*
X212200500Y-52662176D01*
X212201672Y-52659346D01*
X212200770Y-52656419D01*
X212205178Y-52638648D01*
X212213833Y-52617753D01*
X212227158Y-52597810D01*
X212234218Y-52590751D01*
X212254165Y-52577423D01*
X212267066Y-52572079D01*
X212306516Y-52569494D01*
X212309291Y-52570237D01*
X212324108Y-52576376D01*
X212387515Y-52612984D01*
X212387517Y-52612985D01*
X212387542Y-52612995D01*
X212388019Y-52613119D01*
X212405339Y-52617760D01*
X212527521Y-52650500D01*
X212672476Y-52650500D01*
X212672477Y-52650500D01*
X212727306Y-52635808D01*
X212769615Y-52624471D01*
X212812485Y-52612984D01*
X212938015Y-52540509D01*
X213040509Y-52438015D01*
X213112984Y-52312485D01*
X213132938Y-52238018D01*
X213144342Y-52195460D01*
X213150500Y-52172479D01*
X213150500Y-52027519D01*
X213116995Y-51902483D01*
X213113119Y-51888019D01*
X213112995Y-51887542D01*
X213112986Y-51887519D01*
X213104060Y-51872059D01*
X213040509Y-51761985D01*
X212938015Y-51659491D01*
X212938012Y-51659489D01*
X212938008Y-51659486D01*
X212812482Y-51587013D01*
X212672480Y-51549500D01*
X212672477Y-51549500D01*
X212672475Y-51549500D01*
X212527525Y-51549500D01*
X212527523Y-51549500D01*
X212527520Y-51549500D01*
X212387526Y-51587010D01*
X212387522Y-51587012D01*
X212387519Y-51587014D01*
X212387515Y-51587016D01*
X212270167Y-51654767D01*
X212261981Y-51659493D01*
X212159492Y-51761982D01*
X212159487Y-51761989D01*
X212159479Y-51762000D01*
X212092400Y-51878186D01*
X212087930Y-51884876D01*
X212083061Y-51891221D01*
X212077758Y-51897268D01*
X211715489Y-52259540D01*
X211659542Y-52315485D01*
X211619977Y-52384013D01*
X211619976Y-52384016D01*
X211599500Y-52460432D01*
X211599500Y-54054977D01*
X211594818Y-54078512D01*
X211586167Y-54099397D01*
X211572836Y-54119349D01*
X211499502Y-54192683D01*
X211499499Y-54192685D01*
X211499497Y-54192688D01*
X211433617Y-54306796D01*
X211433605Y-54306819D01*
X211409281Y-54397599D01*
X211399500Y-54434104D01*
X205833330Y-54434104D01*
X206922961Y-53344473D01*
X206951944Y-53274500D01*
X206963000Y-53247810D01*
X206963000Y-52485667D01*
X206967681Y-52462134D01*
X206973023Y-52449236D01*
X206999094Y-52419507D01*
X207001606Y-52418057D01*
X207008819Y-52414501D01*
X207012474Y-52412986D01*
X207012485Y-52412984D01*
X207138015Y-52340509D01*
X207240509Y-52238015D01*
X207312984Y-52112485D01*
X207336722Y-52023894D01*
X207350500Y-51972477D01*
X207350500Y-51827522D01*
X207350500Y-51827519D01*
X207313126Y-51688046D01*
X207312995Y-51687542D01*
X207312986Y-51687519D01*
X207296804Y-51659491D01*
X207240509Y-51561985D01*
X207138015Y-51459491D01*
X207138012Y-51459489D01*
X207138008Y-51459486D01*
X207012482Y-51387013D01*
X206872480Y-51349500D01*
X206872477Y-51349500D01*
X206872475Y-51349500D01*
X206727525Y-51349500D01*
X206727523Y-51349500D01*
X206727520Y-51349500D01*
X206587526Y-51387010D01*
X206587522Y-51387012D01*
X206587519Y-51387014D01*
X206587515Y-51387016D01*
X206586310Y-51387712D01*
X206461981Y-51459493D01*
X206385985Y-51535489D01*
X206366033Y-51548820D01*
X206357383Y-51552403D01*
X206310314Y-51552404D01*
X206306468Y-51550811D01*
X206276742Y-51524742D01*
X206240509Y-51461985D01*
X206138015Y-51359491D01*
X206138012Y-51359489D01*
X206138008Y-51359486D01*
X206012482Y-51287013D01*
X205872480Y-51249500D01*
X205872477Y-51249500D01*
X205872475Y-51249500D01*
X205727525Y-51249500D01*
X205727523Y-51249500D01*
X205727520Y-51249500D01*
X205587526Y-51287010D01*
X205587522Y-51287012D01*
X205461981Y-51359493D01*
X205359493Y-51461981D01*
X205359490Y-51461985D01*
X205359490Y-51461986D01*
X205309357Y-51548820D01*
X205287012Y-51587522D01*
X205287012Y-51587523D01*
X205249500Y-51727518D01*
X205249500Y-51828748D01*
X205244817Y-51852287D01*
X205241233Y-51860938D01*
X205207957Y-51894215D01*
X205199307Y-51897799D01*
X205175766Y-51902483D01*
X205068571Y-51902483D01*
X204928577Y-51939993D01*
X204928573Y-51939995D01*
X204803032Y-52012476D01*
X204700544Y-52114964D01*
X204700541Y-52114968D01*
X204700541Y-52114969D01*
X204687334Y-52137846D01*
X204681103Y-52148638D01*
X204665280Y-52166680D01*
X204651472Y-52177275D01*
X204614034Y-52189983D01*
X194024629Y-52189983D01*
X194001094Y-52185301D01*
X193980209Y-52176650D01*
X193960257Y-52163319D01*
X191586837Y-49789899D01*
X191573506Y-49769949D01*
X191566844Y-49753866D01*
X191564260Y-49714416D01*
X191575500Y-49672475D01*
X191575500Y-49527525D01*
X191575500Y-49527522D01*
X191575500Y-49527519D01*
X191543221Y-49407059D01*
X191538119Y-49388019D01*
X191537995Y-49387542D01*
X191537986Y-49387519D01*
X191537984Y-49387515D01*
X191465509Y-49261985D01*
X191363015Y-49159491D01*
X191363012Y-49159489D01*
X191363008Y-49159486D01*
X191237482Y-49087013D01*
X191097480Y-49049500D01*
X191097477Y-49049500D01*
X191097475Y-49049500D01*
X190952525Y-49049500D01*
X190952523Y-49049500D01*
X190952520Y-49049500D01*
X190812526Y-49087010D01*
X190812522Y-49087012D01*
X190812519Y-49087014D01*
X190812515Y-49087016D01*
X190767496Y-49113008D01*
X190686981Y-49159493D01*
X190584493Y-49261981D01*
X190584490Y-49261985D01*
X190584490Y-49261986D01*
X190548978Y-49323495D01*
X190512012Y-49387522D01*
X190512010Y-49387527D01*
X190474500Y-49527518D01*
X184704305Y-49527518D01*
X184712984Y-49512485D01*
X184716720Y-49498544D01*
X184717313Y-49496331D01*
X184750500Y-49372479D01*
X184750500Y-49227519D01*
X184718519Y-49108170D01*
X184713119Y-49088019D01*
X184712995Y-49087542D01*
X184712986Y-49087519D01*
X184712695Y-49087015D01*
X184640509Y-48961985D01*
X184538015Y-48859491D01*
X184538012Y-48859489D01*
X184538008Y-48859486D01*
X184412482Y-48787013D01*
X184272480Y-48749500D01*
X184272477Y-48749500D01*
X184272475Y-48749500D01*
X184127525Y-48749500D01*
X184127523Y-48749500D01*
X184127520Y-48749500D01*
X183987526Y-48787010D01*
X183987522Y-48787012D01*
X183861981Y-48859493D01*
X183759493Y-48961981D01*
X183759490Y-48961985D01*
X183759490Y-48961986D01*
X183703194Y-49059494D01*
X183687012Y-49087522D01*
X183687012Y-49087523D01*
X183649500Y-49227518D01*
X183649500Y-49372480D01*
X183687012Y-49512478D01*
X183687015Y-49512484D01*
X183687016Y-49512485D01*
X183726009Y-49580022D01*
X183737212Y-49599427D01*
X183743354Y-49614254D01*
X183747404Y-49629367D01*
X183749500Y-49645286D01*
X183749500Y-55275688D01*
X183744818Y-55299223D01*
X183736167Y-55320108D01*
X183722836Y-55340060D01*
X183464137Y-55598759D01*
X183444179Y-55612093D01*
X183438062Y-55614626D01*
X183390992Y-55614621D01*
X183357712Y-55581334D01*
X183355179Y-55575217D01*
X183350500Y-55551688D01*
X183350500Y-49845286D01*
X183352595Y-49829371D01*
X183356644Y-49814258D01*
X183362785Y-49799430D01*
X183412984Y-49712485D01*
X183433160Y-49637189D01*
X183439643Y-49612994D01*
X183450500Y-49572479D01*
X183450500Y-49427519D01*
X183419675Y-49312484D01*
X183413110Y-49287984D01*
X183412995Y-49287542D01*
X183412986Y-49287519D01*
X183412900Y-49287370D01*
X183340509Y-49161985D01*
X183238015Y-49059491D01*
X183238012Y-49059489D01*
X183238008Y-49059486D01*
X183112482Y-48987013D01*
X182972480Y-48949500D01*
X182972477Y-48949500D01*
X182972475Y-48949500D01*
X182827525Y-48949500D01*
X182827523Y-48949500D01*
X182827520Y-48949500D01*
X182687526Y-48987010D01*
X182687522Y-48987012D01*
X182561981Y-49059493D01*
X182459493Y-49161981D01*
X182459490Y-49161985D01*
X182459490Y-49161986D01*
X182421860Y-49227163D01*
X182387012Y-49287522D01*
X182387010Y-49287527D01*
X182349500Y-49427518D01*
X182349500Y-49572480D01*
X182387012Y-49712478D01*
X182437210Y-49799423D01*
X182443354Y-49814254D01*
X182447404Y-49829367D01*
X182449500Y-49845286D01*
X182449500Y-55649688D01*
X182444818Y-55673223D01*
X182436167Y-55694108D01*
X182422836Y-55714060D01*
X181734692Y-56402204D01*
X181714734Y-56415538D01*
X181708617Y-56418071D01*
X181661547Y-56418066D01*
X181628267Y-56384779D01*
X181625734Y-56378662D01*
X181621055Y-56355133D01*
X181621055Y-49845114D01*
X181623150Y-49829200D01*
X181627198Y-49814089D01*
X181633338Y-49799261D01*
X181683539Y-49712313D01*
X181703669Y-49637189D01*
X181710154Y-49612986D01*
X181710154Y-49612984D01*
X181710155Y-49612983D01*
X181718987Y-49580022D01*
X181721055Y-49572306D01*
X181721055Y-49427347D01*
X181683727Y-49288046D01*
X181683674Y-49287847D01*
X181683550Y-49287370D01*
X181683541Y-49287347D01*
X181683539Y-49287343D01*
X181611064Y-49161813D01*
X181508570Y-49059319D01*
X181508567Y-49059317D01*
X181508563Y-49059314D01*
X181383037Y-48986841D01*
X181243035Y-48949328D01*
X181243032Y-48949328D01*
X181243030Y-48949328D01*
X181098080Y-48949328D01*
X181098078Y-48949328D01*
X181098075Y-48949328D01*
X180958081Y-48986838D01*
X180958077Y-48986840D01*
X180958074Y-48986842D01*
X180958070Y-48986844D01*
X180849547Y-49049500D01*
X180832536Y-49059321D01*
X180730048Y-49161809D01*
X180730045Y-49161813D01*
X180730045Y-49161814D01*
X180668591Y-49268255D01*
X180657567Y-49287350D01*
X180657565Y-49287355D01*
X180620055Y-49427346D01*
X180620055Y-49572308D01*
X180657568Y-49712310D01*
X180707766Y-49799253D01*
X180713910Y-49814086D01*
X180717959Y-49829197D01*
X180720055Y-49845114D01*
X180720055Y-57379132D01*
X180715373Y-57402667D01*
X180706722Y-57423552D01*
X180693391Y-57443504D01*
X179706634Y-58430263D01*
X179545404Y-58591491D01*
X179525450Y-58604823D01*
X179511724Y-58610508D01*
X179473815Y-58613485D01*
X179472405Y-58613146D01*
X179458861Y-58608147D01*
X179432506Y-58594719D01*
X179430811Y-58593770D01*
X179223527Y-58526420D01*
X179008740Y-58492400D01*
X179008737Y-58492400D01*
X179008734Y-58492400D01*
X178791266Y-58492400D01*
X178791262Y-58492400D01*
X178791258Y-58492400D01*
X178576471Y-58526420D01*
X178369650Y-58593620D01*
X178369645Y-58593622D01*
X178175886Y-58692348D01*
X177999942Y-58820179D01*
X177846179Y-58973942D01*
X177718348Y-59149886D01*
X177619622Y-59343645D01*
X177619620Y-59343650D01*
X177552420Y-59550471D01*
X177518400Y-59765258D01*
X175582599Y-59765258D01*
X175548580Y-59550475D01*
X175481379Y-59343650D01*
X175382650Y-59149884D01*
X175254825Y-58973948D01*
X175101052Y-58820175D01*
X174925116Y-58692350D01*
X174866324Y-58662394D01*
X174731351Y-58593621D01*
X174731348Y-58593620D01*
X174524527Y-58526420D01*
X174309740Y-58492400D01*
X174309737Y-58492400D01*
X174309734Y-58492400D01*
X174092266Y-58492400D01*
X174092262Y-58492400D01*
X174092258Y-58492400D01*
X173877471Y-58526420D01*
X173670650Y-58593620D01*
X173670645Y-58593622D01*
X173476886Y-58692348D01*
X173300942Y-58820179D01*
X173147179Y-58973942D01*
X173019348Y-59149886D01*
X172920622Y-59343645D01*
X172920620Y-59343650D01*
X172853420Y-59550471D01*
X172819400Y-59765258D01*
X172819400Y-59982740D01*
X172853420Y-60197527D01*
X172920770Y-60404812D01*
X172921719Y-60406507D01*
X172932898Y-60428448D01*
X172939411Y-60451539D01*
X172940577Y-60466345D01*
X172931695Y-60503322D01*
X172930934Y-60504563D01*
X172921993Y-60515901D01*
X171740060Y-61697836D01*
X171720109Y-61711167D01*
X171699225Y-61719818D01*
X171675689Y-61724500D01*
X168165687Y-61724500D01*
X168105447Y-61740642D01*
X168075326Y-61748713D01*
X168068960Y-61750418D01*
X168056233Y-61753828D01*
X168056229Y-61753830D01*
X168053370Y-61754595D01*
X168051111Y-61755201D01*
X167948382Y-61814512D01*
X166339513Y-63423382D01*
X166339513Y-63423383D01*
X166339509Y-63423387D01*
X166280199Y-63526114D01*
X166277723Y-63535361D01*
X166277650Y-63535631D01*
X166277647Y-63535642D01*
X166276143Y-63541257D01*
X166276142Y-63541261D01*
X166249500Y-63640685D01*
X166249500Y-67159313D01*
X166267450Y-67226300D01*
X166267452Y-67226307D01*
X166280200Y-67273885D01*
X166280202Y-67273890D01*
X166280202Y-67273892D01*
X166339505Y-67376606D01*
X166339506Y-67376607D01*
X166339509Y-67376611D01*
X166339511Y-67376614D01*
X167523386Y-68560489D01*
X167523389Y-68560491D01*
X167523392Y-68560493D01*
X167619102Y-68615751D01*
X167619110Y-68615757D01*
X167626110Y-68619798D01*
X167626112Y-68619798D01*
X167626113Y-68619799D01*
X167626114Y-68619800D01*
X167641862Y-68624017D01*
X167641866Y-68624020D01*
X167641867Y-68624019D01*
X167642274Y-68624128D01*
X167650324Y-68626285D01*
X167650325Y-68626286D01*
X167710179Y-68642324D01*
X167725629Y-68646464D01*
X167740689Y-68650500D01*
X167740690Y-68650500D01*
X167740691Y-68650500D01*
X205127935Y-68650500D01*
X205127939Y-68650500D01*
X205142998Y-68646464D01*
X205218302Y-68626286D01*
X205218303Y-68626286D01*
X205226360Y-68624126D01*
X205226375Y-68624128D01*
X205226374Y-68624123D01*
X205242517Y-68619799D01*
X205345236Y-68560493D01*
X205345235Y-68560493D01*
X205345243Y-68560489D01*
X205828571Y-68077160D01*
X205848522Y-68063831D01*
X205869407Y-68055181D01*
X205892940Y-68050500D01*
X206107060Y-68050500D01*
X206130594Y-68055181D01*
X206151478Y-68063831D01*
X206171431Y-68077163D01*
X206354757Y-68260489D01*
X206354760Y-68260491D01*
X206354763Y-68260493D01*
X206450473Y-68315751D01*
X206450481Y-68315757D01*
X206457481Y-68319798D01*
X206457483Y-68319798D01*
X206457484Y-68319799D01*
X206457485Y-68319800D01*
X206473233Y-68324017D01*
X206473237Y-68324020D01*
X206473238Y-68324019D01*
X206473645Y-68324128D01*
X206481697Y-68326286D01*
X206553989Y-68345657D01*
X206572061Y-68350500D01*
X206572062Y-68350500D01*
X208177935Y-68350500D01*
X208177939Y-68350500D01*
X208192998Y-68346464D01*
X208268302Y-68326286D01*
X208268303Y-68326286D01*
X208276360Y-68324126D01*
X208276375Y-68324128D01*
X208276374Y-68324123D01*
X208292517Y-68319799D01*
X208395236Y-68260493D01*
X208395235Y-68260493D01*
X208395243Y-68260489D01*
X208528571Y-68127160D01*
X208548522Y-68113831D01*
X208569407Y-68105181D01*
X208592940Y-68100500D01*
X208807060Y-68100500D01*
X208830594Y-68105181D01*
X208851478Y-68113831D01*
X208871431Y-68127163D01*
X209004757Y-68260489D01*
X209004760Y-68260491D01*
X209004763Y-68260493D01*
X209039451Y-68280520D01*
X209039452Y-68280520D01*
X209107485Y-68319799D01*
X209107489Y-68319800D01*
X209107512Y-68319810D01*
X209107989Y-68319934D01*
X209135587Y-68327329D01*
X209222058Y-68350500D01*
X209222060Y-68350500D01*
X209222062Y-68350500D01*
X211427935Y-68350500D01*
X211427939Y-68350500D01*
X211442998Y-68346464D01*
X211518302Y-68326286D01*
X211518303Y-68326286D01*
X211526360Y-68324126D01*
X211526375Y-68324128D01*
X211526374Y-68324123D01*
X211542517Y-68319799D01*
X211645236Y-68260493D01*
X211645235Y-68260493D01*
X211645243Y-68260489D01*
X211828571Y-68077160D01*
X211848522Y-68063831D01*
X211869407Y-68055181D01*
X211892940Y-68050500D01*
X212107060Y-68050500D01*
X212130594Y-68055181D01*
X212151478Y-68063831D01*
X212171431Y-68077163D01*
X212354757Y-68260489D01*
X212354760Y-68260491D01*
X212354763Y-68260493D01*
X212450473Y-68315751D01*
X212450481Y-68315757D01*
X212457481Y-68319798D01*
X212457483Y-68319798D01*
X212457484Y-68319799D01*
X212457485Y-68319800D01*
X212473233Y-68324017D01*
X212473237Y-68324020D01*
X212473238Y-68324019D01*
X212473645Y-68324128D01*
X212481697Y-68326286D01*
X212553989Y-68345657D01*
X212572061Y-68350500D01*
X212572062Y-68350500D01*
X214327935Y-68350500D01*
X214327939Y-68350500D01*
X214342998Y-68346464D01*
X214418302Y-68326286D01*
X214418303Y-68326286D01*
X214426360Y-68324126D01*
X214426375Y-68324128D01*
X214426374Y-68324123D01*
X214442517Y-68319799D01*
X214545236Y-68260493D01*
X214545235Y-68260493D01*
X214545243Y-68260489D01*
X214728571Y-68077160D01*
X214748522Y-68063831D01*
X214769407Y-68055181D01*
X214792940Y-68050500D01*
X215007060Y-68050500D01*
X215030594Y-68055181D01*
X215051478Y-68063831D01*
X215071431Y-68077163D01*
X215254757Y-68260489D01*
X215254760Y-68260491D01*
X215254763Y-68260493D01*
X215350473Y-68315751D01*
X215350481Y-68315757D01*
X215357481Y-68319798D01*
X215357483Y-68319798D01*
X215357484Y-68319799D01*
X215357485Y-68319800D01*
X215373233Y-68324017D01*
X215373237Y-68324020D01*
X215373238Y-68324019D01*
X215373645Y-68324128D01*
X215381697Y-68326286D01*
X215453989Y-68345657D01*
X215472061Y-68350500D01*
X215472062Y-68350500D01*
X222259306Y-68350500D01*
X222259310Y-68350500D01*
X222274369Y-68346464D01*
X222349673Y-68326286D01*
X222349674Y-68326286D01*
X222357731Y-68324126D01*
X222357746Y-68324128D01*
X222357745Y-68324123D01*
X222373888Y-68319799D01*
X222476607Y-68260493D01*
X222476606Y-68260493D01*
X222476614Y-68260489D01*
X225655243Y-65081857D01*
X225675188Y-65068530D01*
X225681307Y-65065995D01*
X225728376Y-65065995D01*
X225761369Y-65098588D01*
X225761393Y-65098644D01*
X225762593Y-65142938D01*
X225762762Y-65142991D01*
X225762873Y-65143021D01*
X225762871Y-65143025D01*
X225762916Y-65143039D01*
X225762812Y-65143371D01*
X225762844Y-65143383D01*
X225762561Y-65144182D01*
X225704024Y-65362641D01*
X225704025Y-65362641D01*
X225704024Y-65362651D01*
X225674500Y-65586894D01*
X225674500Y-65813103D01*
X225704023Y-66037345D01*
X225704025Y-66037355D01*
X225704030Y-66037376D01*
X225750419Y-66210500D01*
X225762565Y-66255829D01*
X225762566Y-66255833D01*
X225762567Y-66255834D01*
X225849126Y-66464806D01*
X225849127Y-66464807D01*
X225905672Y-66562749D01*
X225905673Y-66562749D01*
X225962221Y-66660694D01*
X225962223Y-66660697D01*
X226099913Y-66840138D01*
X226259860Y-67000085D01*
X226436104Y-67135322D01*
X226436106Y-67135324D01*
X226436107Y-67135324D01*
X226439302Y-67137776D01*
X226439303Y-67137777D01*
X226447920Y-67142752D01*
X226447923Y-67142755D01*
X226447924Y-67142754D01*
X226635194Y-67250874D01*
X226844166Y-67337433D01*
X227062649Y-67395976D01*
X227286905Y-67425500D01*
X227286908Y-67425500D01*
X227513092Y-67425500D01*
X227513095Y-67425500D01*
X227737351Y-67395976D01*
X227955834Y-67337433D01*
X228164806Y-67250874D01*
X228360693Y-67137779D01*
X228540142Y-67000083D01*
X228700083Y-66840142D01*
X228837779Y-66660693D01*
X228950874Y-66464806D01*
X229037433Y-66255834D01*
X229095976Y-66037351D01*
X229125500Y-65813095D01*
X229125500Y-65586905D01*
X229095976Y-65362649D01*
X229093557Y-65353622D01*
X229037434Y-65144169D01*
X229037433Y-65144168D01*
X229037433Y-65144166D01*
X228950874Y-64935194D01*
X228838697Y-64740897D01*
X228838022Y-64739643D01*
X228836161Y-64737060D01*
X228835319Y-64736100D01*
X228700085Y-64559860D01*
X228540138Y-64399913D01*
X228360697Y-64262223D01*
X228360696Y-64262222D01*
X228262749Y-64205673D01*
X228262749Y-64205672D01*
X228193904Y-64165925D01*
X228164806Y-64149126D01*
X227955834Y-64062567D01*
X227955828Y-64062565D01*
X227955825Y-64062564D01*
X227955819Y-64062562D01*
X227737376Y-64004030D01*
X227737361Y-64004026D01*
X227737352Y-64004024D01*
X227737347Y-64004023D01*
X227647648Y-63992213D01*
X227513103Y-63974500D01*
X227513100Y-63974500D01*
X227513095Y-63974500D01*
X227286905Y-63974500D01*
X227286899Y-63974500D01*
X227286895Y-63974500D01*
X227107501Y-63998118D01*
X227062652Y-64004023D01*
X227062647Y-64004024D01*
X227062644Y-64004024D01*
X227062643Y-64004025D01*
X227062614Y-64004031D01*
X226845904Y-64062099D01*
X226829987Y-64064195D01*
X226821380Y-64064195D01*
X226777893Y-64046182D01*
X226759880Y-64002696D01*
X226759880Y-64002693D01*
X226777892Y-63959209D01*
X227428939Y-63308163D01*
X228366238Y-62370865D01*
X228425548Y-62268138D01*
X228456248Y-62153560D01*
X228456248Y-62034942D01*
X228425548Y-61920364D01*
X228394345Y-61866319D01*
X228394344Y-61866315D01*
X228366338Y-61817810D01*
X228366242Y-61817643D01*
X228366238Y-61817636D01*
X228273102Y-61724500D01*
X228202163Y-61653561D01*
X228188831Y-61633607D01*
X228180181Y-61612722D01*
X228175500Y-61589189D01*
X228175500Y-61250808D01*
X228180181Y-61227275D01*
X228188831Y-61206390D01*
X228202160Y-61186439D01*
X228441439Y-60947161D01*
X228461391Y-60933831D01*
X228482276Y-60925181D01*
X228505809Y-60920500D01*
X229689306Y-60920500D01*
X229689310Y-60920500D01*
X229704369Y-60916464D01*
X229779673Y-60896286D01*
X229779674Y-60896286D01*
X229787731Y-60894126D01*
X229787746Y-60894128D01*
X229787745Y-60894123D01*
X229803888Y-60889799D01*
X229906607Y-60830493D01*
X229906606Y-60830493D01*
X229906614Y-60830489D01*
X230585865Y-60151237D01*
X230605818Y-60137907D01*
X230609554Y-60136359D01*
X230611937Y-60135373D01*
X230659007Y-60135378D01*
X230692284Y-60168657D01*
X230694818Y-60174774D01*
X230699500Y-60198311D01*
X230699500Y-68725765D01*
X230694817Y-68749304D01*
X230691233Y-68757955D01*
X230657957Y-68791232D01*
X230649307Y-68794816D01*
X230625766Y-68799500D01*
X138192185Y-68799500D01*
X138168645Y-68794816D01*
X138162529Y-68792282D01*
X138129248Y-68758996D01*
X138129253Y-68711926D01*
X138162533Y-68678648D01*
X138183822Y-68669829D01*
X138183826Y-68669827D01*
X138250231Y-68642322D01*
X138372697Y-68560493D01*
X138405901Y-68538307D01*
X138405902Y-68538305D01*
X138405908Y-68538302D01*
X138538302Y-68405908D01*
X138575325Y-68350500D01*
X138641407Y-68251600D01*
X138642579Y-68249946D01*
X138643467Y-68247466D01*
X138713969Y-68077261D01*
X138713970Y-68077258D01*
X138713973Y-68077251D01*
X138746859Y-67911915D01*
X138750500Y-67905105D01*
X138750500Y-67704338D01*
X138749316Y-67700435D01*
X138715155Y-67528688D01*
X138714997Y-67527089D01*
X138714224Y-67523813D01*
X138713869Y-67522183D01*
X138712827Y-67519979D01*
X138673691Y-67425500D01*
X138673691Y-67425499D01*
X138642322Y-67349769D01*
X138642318Y-67349763D01*
X138642316Y-67349759D01*
X138538307Y-67194098D01*
X138538302Y-67194092D01*
X138405907Y-67061697D01*
X138405901Y-67061692D01*
X138349682Y-67024128D01*
X138250248Y-66957688D01*
X138250241Y-66957684D01*
X138250240Y-66957683D01*
X138250233Y-66957679D01*
X138250231Y-66957678D01*
X138250229Y-66957677D01*
X138250221Y-66957673D01*
X138250185Y-66957658D01*
X138077266Y-66886031D01*
X138077258Y-66886028D01*
X138077245Y-66886024D01*
X138077239Y-66886023D01*
X137893622Y-66849500D01*
X137893619Y-66849500D01*
X137893616Y-66849500D01*
X137706384Y-66849500D01*
X137706381Y-66849500D01*
X137706378Y-66849500D01*
X137522759Y-66886023D01*
X137522753Y-66886024D01*
X137522740Y-66886028D01*
X137522732Y-66886031D01*
X137349793Y-66957666D01*
X137349765Y-66957679D01*
X137349755Y-66957684D01*
X137194097Y-67061692D01*
X137194090Y-67061698D01*
X137061698Y-67194090D01*
X137061692Y-67194097D01*
X136957684Y-67349755D01*
X136957679Y-67349765D01*
X136957666Y-67349793D01*
X136886031Y-67522732D01*
X136886028Y-67522740D01*
X136886024Y-67522753D01*
X136886023Y-67522759D01*
X136849500Y-67706376D01*
X136849500Y-67893622D01*
X136886023Y-68077239D01*
X136886024Y-68077245D01*
X136886028Y-68077258D01*
X136886031Y-68077266D01*
X136957658Y-68250185D01*
X136957673Y-68250221D01*
X136957675Y-68250224D01*
X136957678Y-68250231D01*
X136957679Y-68250233D01*
X136957682Y-68250239D01*
X136957688Y-68250248D01*
X137024674Y-68350500D01*
X137061692Y-68405901D01*
X137061697Y-68405907D01*
X137194092Y-68538302D01*
X137194098Y-68538307D01*
X137227290Y-68560485D01*
X137349764Y-68642320D01*
X137349769Y-68642322D01*
X137402918Y-68664337D01*
X137432287Y-68676502D01*
X137452236Y-68689834D01*
X137455275Y-68692873D01*
X137456920Y-68694518D01*
X137474928Y-68738007D01*
X137456910Y-68781492D01*
X137413428Y-68799500D01*
X111174234Y-68799500D01*
X111150695Y-68794817D01*
X111142044Y-68791233D01*
X111108764Y-68757949D01*
X111105181Y-68749298D01*
X111100500Y-68725765D01*
X111100500Y-65586894D01*
X112474500Y-65586894D01*
X112474500Y-65813103D01*
X112504023Y-66037345D01*
X112504025Y-66037355D01*
X112504030Y-66037376D01*
X112550419Y-66210500D01*
X112562565Y-66255829D01*
X112562566Y-66255833D01*
X112562567Y-66255834D01*
X112649126Y-66464806D01*
X112649127Y-66464807D01*
X112705672Y-66562749D01*
X112705673Y-66562749D01*
X112762221Y-66660694D01*
X112762223Y-66660697D01*
X112899913Y-66840138D01*
X113059860Y-67000085D01*
X113236104Y-67135322D01*
X113236106Y-67135324D01*
X113236107Y-67135324D01*
X113239302Y-67137776D01*
X113239303Y-67137777D01*
X113247920Y-67142752D01*
X113247923Y-67142755D01*
X113247924Y-67142754D01*
X113435194Y-67250874D01*
X113644166Y-67337433D01*
X113862649Y-67395976D01*
X114086905Y-67425500D01*
X114086908Y-67425500D01*
X114313092Y-67425500D01*
X114313095Y-67425500D01*
X114537351Y-67395976D01*
X114755834Y-67337433D01*
X114964806Y-67250874D01*
X115160693Y-67137779D01*
X115340142Y-67000083D01*
X115500083Y-66840142D01*
X115637779Y-66660693D01*
X115750874Y-66464806D01*
X115837433Y-66255834D01*
X115895976Y-66037351D01*
X115925500Y-65813095D01*
X115925500Y-65586905D01*
X115895976Y-65362649D01*
X115893556Y-65353619D01*
X115846841Y-65179277D01*
X115843384Y-65166376D01*
X136849500Y-65166376D01*
X136849500Y-65353622D01*
X136886023Y-65537239D01*
X136886024Y-65537245D01*
X136886028Y-65537258D01*
X136886031Y-65537266D01*
X136957658Y-65710185D01*
X136957673Y-65710221D01*
X136957675Y-65710224D01*
X136957678Y-65710231D01*
X136957679Y-65710233D01*
X136957682Y-65710239D01*
X136957688Y-65710248D01*
X137061692Y-65865901D01*
X137061698Y-65865908D01*
X137194090Y-65998300D01*
X137194097Y-65998306D01*
X137349766Y-66102321D01*
X137373370Y-66112098D01*
X137430355Y-66135702D01*
X137499319Y-66164268D01*
X137520746Y-66173144D01*
X137522255Y-66173833D01*
X137522592Y-66173941D01*
X137522746Y-66173971D01*
X137522749Y-66173973D01*
X137700439Y-66209317D01*
X137704338Y-66210500D01*
X137893619Y-66210500D01*
X137905106Y-66210500D01*
X137911915Y-66206859D01*
X138077251Y-66173973D01*
X138077329Y-66173941D01*
X138100865Y-66164191D01*
X138250231Y-66102322D01*
X138405908Y-65998302D01*
X138538302Y-65865908D01*
X138548209Y-65851082D01*
X138641407Y-65711600D01*
X138642579Y-65709946D01*
X138643467Y-65707466D01*
X138713969Y-65537261D01*
X138713970Y-65537258D01*
X138713973Y-65537251D01*
X138746859Y-65371915D01*
X138750500Y-65365105D01*
X138750500Y-65164339D01*
X138749318Y-65160445D01*
X138746081Y-65144171D01*
X138713973Y-64982749D01*
X138713971Y-64982746D01*
X138713941Y-64982592D01*
X138713833Y-64982255D01*
X138713144Y-64980746D01*
X138694276Y-64935196D01*
X138643151Y-64811771D01*
X138642667Y-64810474D01*
X138642323Y-64809772D01*
X138642322Y-64809769D01*
X138642318Y-64809763D01*
X138642316Y-64809759D01*
X138538307Y-64654098D01*
X138538302Y-64654092D01*
X138405907Y-64521697D01*
X138405901Y-64521692D01*
X138353427Y-64486630D01*
X138250248Y-64417688D01*
X138250241Y-64417684D01*
X138250240Y-64417683D01*
X138250233Y-64417679D01*
X138250231Y-64417678D01*
X138250229Y-64417677D01*
X138250221Y-64417673D01*
X138250185Y-64417658D01*
X138077266Y-64346031D01*
X138077258Y-64346028D01*
X138077245Y-64346024D01*
X138077239Y-64346023D01*
X137893622Y-64309500D01*
X137893619Y-64309500D01*
X137893616Y-64309500D01*
X137706384Y-64309500D01*
X137706381Y-64309500D01*
X137706378Y-64309500D01*
X137522759Y-64346023D01*
X137522753Y-64346024D01*
X137522740Y-64346028D01*
X137522732Y-64346031D01*
X137349793Y-64417666D01*
X137349765Y-64417679D01*
X137349755Y-64417684D01*
X137194097Y-64521692D01*
X137194090Y-64521698D01*
X137061698Y-64654090D01*
X137061692Y-64654097D01*
X136957684Y-64809755D01*
X136957679Y-64809765D01*
X136957666Y-64809793D01*
X136886031Y-64982732D01*
X136886030Y-64982737D01*
X136886029Y-64982739D01*
X136886023Y-64982759D01*
X136849500Y-65166376D01*
X115843384Y-65166376D01*
X115837434Y-65144169D01*
X115837433Y-65144168D01*
X115837433Y-65144166D01*
X115750874Y-64935194D01*
X115638697Y-64740897D01*
X115638022Y-64739643D01*
X115636161Y-64737060D01*
X115635319Y-64736100D01*
X115500085Y-64559860D01*
X115340138Y-64399913D01*
X115160697Y-64262223D01*
X115160696Y-64262222D01*
X115062749Y-64205673D01*
X115062749Y-64205672D01*
X114993904Y-64165925D01*
X114964806Y-64149126D01*
X114755834Y-64062567D01*
X114755828Y-64062565D01*
X114755825Y-64062564D01*
X114755819Y-64062562D01*
X114537376Y-64004030D01*
X114537361Y-64004026D01*
X114537352Y-64004024D01*
X114537347Y-64004023D01*
X114447648Y-63992213D01*
X114313103Y-63974500D01*
X114313100Y-63974500D01*
X114313095Y-63974500D01*
X114086905Y-63974500D01*
X114086899Y-63974500D01*
X114086895Y-63974500D01*
X113907501Y-63998118D01*
X113862652Y-64004023D01*
X113862647Y-64004024D01*
X113862644Y-64004024D01*
X113862643Y-64004025D01*
X113862622Y-64004030D01*
X113644179Y-64062562D01*
X113644162Y-64062568D01*
X113435197Y-64149124D01*
X113239301Y-64262223D01*
X113239302Y-64262223D01*
X113059860Y-64399913D01*
X112899913Y-64559860D01*
X112764677Y-64736102D01*
X112764676Y-64736104D01*
X112763280Y-64737924D01*
X112762221Y-64739304D01*
X112758480Y-64745784D01*
X112649125Y-64935196D01*
X112594946Y-65065995D01*
X112562568Y-65144162D01*
X112562562Y-65144179D01*
X112504024Y-65362641D01*
X112504025Y-65362641D01*
X112504024Y-65362651D01*
X112474500Y-65586894D01*
X111100500Y-65586894D01*
X111100500Y-59089770D01*
X116699500Y-59089770D01*
X116699500Y-59310228D01*
X116729946Y-59502450D01*
X116733985Y-59527953D01*
X116767625Y-59631488D01*
X116779398Y-59667720D01*
X116779398Y-59667722D01*
X116782788Y-59678155D01*
X116801447Y-59735582D01*
X116801776Y-59736730D01*
X116802104Y-59737605D01*
X116802105Y-59737606D01*
X116802106Y-59737609D01*
X116842104Y-59816108D01*
X116902185Y-59934022D01*
X117031758Y-60112365D01*
X117187635Y-60268242D01*
X117365978Y-60397815D01*
X117562394Y-60497895D01*
X117772049Y-60566015D01*
X117989778Y-60600500D01*
X117989782Y-60600500D01*
X118210218Y-60600500D01*
X118210222Y-60600500D01*
X118427951Y-60566015D01*
X118637606Y-60497895D01*
X118834022Y-60397815D01*
X119012365Y-60268242D01*
X119168242Y-60112365D01*
X119297815Y-59934022D01*
X119397895Y-59737606D01*
X119466015Y-59527951D01*
X119500500Y-59310222D01*
X119500500Y-59089778D01*
X119466015Y-58872049D01*
X119397895Y-58662394D01*
X119297815Y-58465978D01*
X119168242Y-58287635D01*
X119012365Y-58131758D01*
X118834022Y-58002185D01*
X118732586Y-57950500D01*
X118700121Y-57933958D01*
X118637608Y-57902105D01*
X118637605Y-57902104D01*
X118637591Y-57902099D01*
X118567721Y-57879398D01*
X118427953Y-57833985D01*
X118395002Y-57828766D01*
X118210228Y-57799500D01*
X118210225Y-57799500D01*
X118210222Y-57799500D01*
X117989778Y-57799500D01*
X117989774Y-57799500D01*
X117989770Y-57799500D01*
X117772043Y-57833985D01*
X117564416Y-57901447D01*
X117563267Y-57901777D01*
X117562393Y-57902104D01*
X117365980Y-58002183D01*
X117187629Y-58131762D01*
X117031762Y-58287629D01*
X116902183Y-58465980D01*
X116802104Y-58662393D01*
X116801777Y-58663267D01*
X116801447Y-58664416D01*
X116733985Y-58872043D01*
X116699500Y-59089770D01*
X111100500Y-59089770D01*
X111100500Y-53789770D01*
X116679500Y-53789770D01*
X116679500Y-54010228D01*
X116696784Y-54119349D01*
X116713985Y-54227953D01*
X116740731Y-54310267D01*
X116759398Y-54367720D01*
X116759398Y-54367721D01*
X116781449Y-54435591D01*
X116781775Y-54436727D01*
X116782104Y-54437605D01*
X116782105Y-54437606D01*
X116782106Y-54437609D01*
X116849388Y-54569655D01*
X116882185Y-54634022D01*
X117011758Y-54812365D01*
X117167635Y-54968242D01*
X117345978Y-55097815D01*
X117542394Y-55197895D01*
X117752049Y-55266015D01*
X117969778Y-55300500D01*
X117969782Y-55300500D01*
X118190218Y-55300500D01*
X118190222Y-55300500D01*
X118407951Y-55266015D01*
X118617606Y-55197895D01*
X118814022Y-55097815D01*
X118992365Y-54968242D01*
X119148242Y-54812365D01*
X119277815Y-54634022D01*
X119377895Y-54437606D01*
X119432599Y-54269240D01*
X119446015Y-54227952D01*
X119466359Y-54099502D01*
X119480500Y-54010222D01*
X119480500Y-53789778D01*
X119446015Y-53572049D01*
X119377895Y-53362394D01*
X119277815Y-53165978D01*
X119148242Y-52987635D01*
X118992365Y-52831758D01*
X118814022Y-52702185D01*
X118712586Y-52650500D01*
X118617609Y-52602106D01*
X118617608Y-52602105D01*
X118617607Y-52602105D01*
X118525970Y-52572331D01*
X118407953Y-52533985D01*
X118190228Y-52499500D01*
X118190225Y-52499500D01*
X118190222Y-52499500D01*
X117969778Y-52499500D01*
X117969774Y-52499500D01*
X117969770Y-52499500D01*
X117752043Y-52533985D01*
X117544416Y-52601447D01*
X117543267Y-52601777D01*
X117542393Y-52602104D01*
X117345980Y-52702183D01*
X117167629Y-52831762D01*
X117011762Y-52987629D01*
X116882183Y-53165980D01*
X116782104Y-53362393D01*
X116781777Y-53363267D01*
X116781447Y-53364416D01*
X116713985Y-53572043D01*
X116679500Y-53789770D01*
X111100500Y-53789770D01*
X111100500Y-38329770D01*
X112399500Y-38329770D01*
X112399500Y-38550228D01*
X112433985Y-38767955D01*
X112501447Y-38975582D01*
X112501776Y-38976730D01*
X112502104Y-38977605D01*
X112566868Y-39104710D01*
X112602183Y-39174020D01*
X112666971Y-39263193D01*
X112731758Y-39352365D01*
X112887635Y-39508242D01*
X113065978Y-39637815D01*
X113262394Y-39737895D01*
X113472049Y-39806015D01*
X113689778Y-39840500D01*
X113689782Y-39840500D01*
X113910218Y-39840500D01*
X113910222Y-39840500D01*
X114127951Y-39806015D01*
X114337606Y-39737895D01*
X114534022Y-39637815D01*
X114712365Y-39508242D01*
X114868242Y-39352365D01*
X114997815Y-39174022D01*
X115097895Y-38977606D01*
X115166015Y-38767951D01*
X115200500Y-38550222D01*
X115200500Y-38329778D01*
X115166015Y-38112049D01*
X115097895Y-37902394D01*
X114997815Y-37705978D01*
X114868242Y-37527635D01*
X114712365Y-37371758D01*
X114534022Y-37242185D01*
X114534021Y-37242184D01*
X114534019Y-37242183D01*
X114527184Y-37238700D01*
X114527183Y-37238700D01*
X114415708Y-37181900D01*
X114337608Y-37142105D01*
X114337605Y-37142104D01*
X114337591Y-37142099D01*
X114267721Y-37119398D01*
X114127953Y-37073985D01*
X113910228Y-37039500D01*
X113910225Y-37039500D01*
X113910222Y-37039500D01*
X113689778Y-37039500D01*
X113689774Y-37039500D01*
X113689770Y-37039500D01*
X113472043Y-37073985D01*
X113264416Y-37141447D01*
X113263267Y-37141777D01*
X113262393Y-37142104D01*
X113065980Y-37242183D01*
X112887629Y-37371762D01*
X112731762Y-37527629D01*
X112602183Y-37705980D01*
X112502104Y-37902393D01*
X112501777Y-37903267D01*
X112501447Y-37904416D01*
X112433985Y-38112043D01*
X112399500Y-38329770D01*
X111100500Y-38329770D01*
X111100500Y-34645722D01*
X142589500Y-34645722D01*
X142589500Y-40756090D01*
X142589897Y-40758512D01*
X142592084Y-40781832D01*
X142592184Y-40783983D01*
X142592693Y-40786136D01*
X142593645Y-40788387D01*
X142637207Y-40912881D01*
X142717851Y-41022149D01*
X142827119Y-41102793D01*
X142906499Y-41130569D01*
X142955299Y-41147645D01*
X142955300Y-41147645D01*
X142955451Y-41147698D01*
X142956071Y-41147816D01*
X142958160Y-41147914D01*
X142963366Y-41148402D01*
X142985737Y-41150500D01*
X150094262Y-41150499D01*
X150094268Y-41150499D01*
X150100006Y-41150499D01*
X150103494Y-41149633D01*
X150124697Y-41147646D01*
X150252881Y-41102793D01*
X150362149Y-41022149D01*
X150442793Y-40912881D01*
X150486354Y-40788389D01*
X150487645Y-40784700D01*
X150487645Y-40784699D01*
X150487646Y-40784697D01*
X150490500Y-40754263D01*
X150490499Y-34645738D01*
X150490499Y-34645737D01*
X150490499Y-34645731D01*
X150490499Y-34645730D01*
X150490499Y-34643914D01*
X150490100Y-34641484D01*
X150487914Y-34618164D01*
X150487831Y-34616394D01*
X150487646Y-34615306D01*
X150487646Y-34615303D01*
X150442793Y-34487119D01*
X150362149Y-34377851D01*
X150252881Y-34297207D01*
X150252878Y-34297206D01*
X150252877Y-34297205D01*
X150252878Y-34297205D01*
X150159196Y-34264424D01*
X150124700Y-34252354D01*
X150124697Y-34252353D01*
X150124694Y-34252353D01*
X150094276Y-34249500D01*
X150094269Y-34249500D01*
X142985731Y-34249500D01*
X142983908Y-34249500D01*
X142981486Y-34249897D01*
X142955315Y-34252351D01*
X142955304Y-34252353D01*
X142955289Y-34252358D01*
X142827119Y-34297206D01*
X142717851Y-34377851D01*
X142637205Y-34487120D01*
X142592354Y-34615299D01*
X142592353Y-34615304D01*
X142589500Y-34645722D01*
X111100500Y-34645722D01*
X111100500Y-32181900D01*
X119599500Y-32181900D01*
X119599500Y-32418098D01*
X119636447Y-32651368D01*
X119709432Y-32875994D01*
X119709433Y-32875995D01*
X119816661Y-33086440D01*
X119955479Y-33277506D01*
X119955481Y-33277508D01*
X119955482Y-33277509D01*
X119955483Y-33277510D01*
X120122490Y-33444517D01*
X120313567Y-33583343D01*
X120524008Y-33690568D01*
X120748632Y-33763553D01*
X120981908Y-33800500D01*
X120981912Y-33800500D01*
X121218088Y-33800500D01*
X121218092Y-33800500D01*
X121451368Y-33763553D01*
X121675992Y-33690568D01*
X121886433Y-33583343D01*
X122077510Y-33444517D01*
X122244517Y-33277510D01*
X122383343Y-33086433D01*
X122490568Y-32875992D01*
X122563553Y-32651368D01*
X122600500Y-32418092D01*
X122600500Y-32181908D01*
X122563553Y-31948632D01*
X122490568Y-31724008D01*
X122383343Y-31513567D01*
X122383339Y-31513562D01*
X122383335Y-31513554D01*
X122379265Y-31507953D01*
X122379264Y-31507952D01*
X122379263Y-31507951D01*
X122244518Y-31322491D01*
X122077509Y-31155482D01*
X122077508Y-31155481D01*
X122077484Y-31155463D01*
X122077335Y-31155356D01*
X122052233Y-31137117D01*
X122052232Y-31137117D01*
X122052225Y-31137112D01*
X122052224Y-31137111D01*
X122052223Y-31137111D01*
X122044351Y-31131391D01*
X122044349Y-31131390D01*
X121987065Y-31089770D01*
X126899500Y-31089770D01*
X126899500Y-31310228D01*
X126933985Y-31527953D01*
X126979398Y-31667720D01*
X126979398Y-31667721D01*
X126995605Y-31717604D01*
X127001444Y-31735573D01*
X127001777Y-31736731D01*
X127002104Y-31737605D01*
X127091993Y-31914020D01*
X127091992Y-31914020D01*
X127102180Y-31934013D01*
X127102185Y-31934022D01*
X127231758Y-32112365D01*
X127387635Y-32268242D01*
X127565978Y-32397815D01*
X127762394Y-32497895D01*
X127972049Y-32566015D01*
X128189778Y-32600500D01*
X128189782Y-32600500D01*
X128410218Y-32600500D01*
X128410222Y-32600500D01*
X128627951Y-32566015D01*
X128837606Y-32497895D01*
X129034022Y-32397815D01*
X129212365Y-32268242D01*
X129368242Y-32112365D01*
X129497815Y-31934022D01*
X129597895Y-31737606D01*
X129666015Y-31527951D01*
X129700500Y-31310222D01*
X129700500Y-31089778D01*
X129697332Y-31069778D01*
X129697331Y-31069770D01*
X130999500Y-31069770D01*
X130999500Y-31290228D01*
X131033985Y-31507953D01*
X131101447Y-31715582D01*
X131101776Y-31716730D01*
X131102104Y-31717606D01*
X131112296Y-31737607D01*
X131112296Y-31737609D01*
X131112297Y-31737609D01*
X131202185Y-31914022D01*
X131331758Y-32092365D01*
X131487635Y-32248242D01*
X131665978Y-32377815D01*
X131862394Y-32477895D01*
X132072049Y-32546015D01*
X132289778Y-32580500D01*
X132289782Y-32580500D01*
X132510218Y-32580500D01*
X132510222Y-32580500D01*
X132727951Y-32546015D01*
X132937606Y-32477895D01*
X133134022Y-32377815D01*
X133312365Y-32248242D01*
X133468242Y-32092365D01*
X133597815Y-31914022D01*
X133697895Y-31717606D01*
X133760313Y-31525500D01*
X133766015Y-31507952D01*
X133777184Y-31437432D01*
X133800500Y-31290222D01*
X133800500Y-31069778D01*
X133766015Y-30852049D01*
X133697895Y-30642394D01*
X133696745Y-30640138D01*
X133658362Y-30564807D01*
X133597815Y-30445978D01*
X133468242Y-30267635D01*
X133312365Y-30111758D01*
X133298179Y-30101451D01*
X134599500Y-30101451D01*
X134599500Y-30298547D01*
X134628140Y-30442528D01*
X134632805Y-30465980D01*
X134637948Y-30491832D01*
X134637949Y-30491838D01*
X134649702Y-30520211D01*
X134649702Y-30520212D01*
X134649703Y-30520212D01*
X134700310Y-30642390D01*
X134713363Y-30673904D01*
X134713374Y-30673926D01*
X134822855Y-30837775D01*
X134822861Y-30837782D01*
X134962216Y-30977137D01*
X134962223Y-30977143D01*
X135126077Y-31086627D01*
X135126082Y-31086630D01*
X135126084Y-31086631D01*
X135126086Y-31086632D01*
X135308165Y-31162051D01*
X135495514Y-31199317D01*
X135499413Y-31200500D01*
X135698544Y-31200500D01*
X135710031Y-31200500D01*
X135716841Y-31196859D01*
X135891835Y-31162051D01*
X136073914Y-31086632D01*
X136184425Y-31012791D01*
X136237775Y-30977144D01*
X136237776Y-30977142D01*
X136237782Y-30977139D01*
X136377139Y-30837782D01*
X136448962Y-30730292D01*
X136485722Y-30675275D01*
X136486888Y-30673630D01*
X136487767Y-30671171D01*
X136562051Y-30491835D01*
X136596859Y-30316841D01*
X136600500Y-30310030D01*
X136600500Y-30099413D01*
X136599316Y-30095510D01*
X136591424Y-30055833D01*
X136562052Y-29908170D01*
X136562050Y-29908163D01*
X136551257Y-29882106D01*
X136486632Y-29726086D01*
X136388152Y-29578700D01*
X156759500Y-29578700D01*
X156759500Y-29821298D01*
X156791162Y-30061792D01*
X156791164Y-30061801D01*
X156853940Y-30296083D01*
X156853944Y-30296094D01*
X156853946Y-30296100D01*
X156946776Y-30520212D01*
X156972523Y-30564807D01*
X157007420Y-30625250D01*
X157068064Y-30730290D01*
X157068066Y-30730293D01*
X157215731Y-30922734D01*
X157387264Y-31094267D01*
X157466834Y-31155323D01*
X157579706Y-31241933D01*
X157579707Y-31241934D01*
X157624102Y-31267565D01*
X157789788Y-31363224D01*
X158013900Y-31456054D01*
X158162886Y-31495975D01*
X158228550Y-31513570D01*
X158247733Y-31518710D01*
X158248181Y-31518834D01*
X158248210Y-31518837D01*
X158248211Y-31518838D01*
X158488712Y-31550500D01*
X158488715Y-31550500D01*
X158731285Y-31550500D01*
X158731288Y-31550500D01*
X158971789Y-31518838D01*
X159206100Y-31456054D01*
X159430212Y-31363224D01*
X159640289Y-31241936D01*
X159832738Y-31094265D01*
X160004265Y-30922738D01*
X160151936Y-30730289D01*
X160273224Y-30520212D01*
X160366054Y-30296100D01*
X160368323Y-30287635D01*
X160418209Y-30101455D01*
X160428838Y-30061789D01*
X160460500Y-29821288D01*
X160460500Y-29578712D01*
X160435247Y-29386895D01*
X226074500Y-29386895D01*
X226074500Y-29613103D01*
X226089375Y-29726083D01*
X226103580Y-29833985D01*
X226104023Y-29837345D01*
X226104025Y-29837355D01*
X226104030Y-29837376D01*
X226148191Y-30002185D01*
X226162565Y-30055829D01*
X226162566Y-30055833D01*
X226162567Y-30055834D01*
X226249126Y-30264806D01*
X226262303Y-30287629D01*
X226267193Y-30296098D01*
X226267194Y-30296100D01*
X226362221Y-30460694D01*
X226362223Y-30460697D01*
X226499913Y-30640138D01*
X226659860Y-30800085D01*
X226836100Y-30935319D01*
X226836113Y-30935330D01*
X226839297Y-30937774D01*
X226843399Y-30940142D01*
X226880699Y-30961676D01*
X227035194Y-31050874D01*
X227244166Y-31137433D01*
X227462649Y-31195976D01*
X227686905Y-31225500D01*
X227686908Y-31225500D01*
X227913092Y-31225500D01*
X227913095Y-31225500D01*
X228137351Y-31195976D01*
X228355834Y-31137433D01*
X228564806Y-31050874D01*
X228760693Y-30937779D01*
X228940142Y-30800083D01*
X229100083Y-30640142D01*
X229237779Y-30460693D01*
X229350874Y-30264806D01*
X229437433Y-30055834D01*
X229495976Y-29837351D01*
X229525500Y-29613095D01*
X229525500Y-29386905D01*
X229495976Y-29162649D01*
X229437433Y-28944166D01*
X229350874Y-28735194D01*
X229238697Y-28540897D01*
X229238022Y-28539643D01*
X229236161Y-28537060D01*
X229235319Y-28536100D01*
X229100085Y-28359860D01*
X228940138Y-28199913D01*
X228760697Y-28062223D01*
X228760696Y-28062222D01*
X228656988Y-28002347D01*
X228656988Y-28002346D01*
X228592192Y-27964937D01*
X228564806Y-27949126D01*
X228355834Y-27862567D01*
X228355828Y-27862565D01*
X228355825Y-27862564D01*
X228355819Y-27862562D01*
X228137376Y-27804030D01*
X228137361Y-27804026D01*
X228137352Y-27804024D01*
X228137347Y-27804023D01*
X228047648Y-27792213D01*
X227913103Y-27774500D01*
X227913100Y-27774500D01*
X227913095Y-27774500D01*
X227686905Y-27774500D01*
X227686899Y-27774500D01*
X227686895Y-27774500D01*
X227511135Y-27797640D01*
X227462652Y-27804023D01*
X227462647Y-27804024D01*
X227462644Y-27804024D01*
X227462643Y-27804025D01*
X227462622Y-27804030D01*
X227244179Y-27862562D01*
X227244162Y-27862568D01*
X227035197Y-27949124D01*
X226839301Y-28062223D01*
X226839302Y-28062223D01*
X226659860Y-28199913D01*
X226499913Y-28359860D01*
X226364677Y-28536102D01*
X226364676Y-28536104D01*
X226363280Y-28537924D01*
X226362221Y-28539304D01*
X226249124Y-28735197D01*
X226162568Y-28944162D01*
X226162562Y-28944179D01*
X226104030Y-29162622D01*
X226104025Y-29162643D01*
X226104023Y-29162653D01*
X226074500Y-29386895D01*
X160435247Y-29386895D01*
X160428838Y-29338211D01*
X160366054Y-29103900D01*
X160273224Y-28879788D01*
X160152854Y-28671301D01*
X160152179Y-28670047D01*
X160150318Y-28667464D01*
X160149476Y-28666504D01*
X160004267Y-28477264D01*
X159832734Y-28305731D01*
X159640293Y-28158066D01*
X159640292Y-28158065D01*
X159535250Y-28097420D01*
X159430212Y-28036776D01*
X159206100Y-27943946D01*
X159206094Y-27943944D01*
X159206091Y-27943943D01*
X159206085Y-27943941D01*
X158971809Y-27881166D01*
X158971788Y-27881161D01*
X158946185Y-27877791D01*
X158946185Y-27877790D01*
X158731298Y-27849500D01*
X158731293Y-27849500D01*
X158731288Y-27849500D01*
X158488712Y-27849500D01*
X158488706Y-27849500D01*
X158488700Y-27849500D01*
X158248206Y-27881162D01*
X158248197Y-27881164D01*
X158013915Y-27943940D01*
X158013896Y-27943947D01*
X157789791Y-28036774D01*
X157579705Y-28158066D01*
X157579706Y-28158066D01*
X157387264Y-28305731D01*
X157215731Y-28477264D01*
X157070520Y-28666506D01*
X157070519Y-28666508D01*
X157069118Y-28668334D01*
X157068064Y-28669708D01*
X156946774Y-28879791D01*
X156853947Y-29103896D01*
X156853940Y-29103915D01*
X156791164Y-29338197D01*
X156791162Y-29338206D01*
X156759500Y-29578700D01*
X136388152Y-29578700D01*
X136377139Y-29562218D01*
X136237782Y-29422861D01*
X136237781Y-29422860D01*
X136237775Y-29422855D01*
X136073926Y-29313374D01*
X136073920Y-29313371D01*
X136073916Y-29313369D01*
X135891836Y-29237949D01*
X135891828Y-29237947D01*
X135842528Y-29228140D01*
X135698547Y-29199500D01*
X135698544Y-29199500D01*
X135698541Y-29199500D01*
X135501459Y-29199500D01*
X135501456Y-29199500D01*
X135501453Y-29199500D01*
X135308166Y-29237948D01*
X135308164Y-29237948D01*
X135308163Y-29237949D01*
X135126083Y-29313369D01*
X135126081Y-29313370D01*
X135126072Y-29313374D01*
X134962223Y-29422855D01*
X134962216Y-29422861D01*
X134822861Y-29562216D01*
X134822855Y-29562223D01*
X134713374Y-29726072D01*
X134713370Y-29726081D01*
X134713369Y-29726083D01*
X134640459Y-29902105D01*
X134637948Y-29908166D01*
X134599500Y-30101451D01*
X133298179Y-30101451D01*
X133134022Y-29982185D01*
X133134021Y-29982184D01*
X133134019Y-29982183D01*
X133127184Y-29978700D01*
X133127183Y-29978700D01*
X133032396Y-29930403D01*
X132937608Y-29882105D01*
X132937605Y-29882104D01*
X132937591Y-29882099D01*
X132867721Y-29859398D01*
X132727953Y-29813985D01*
X132510228Y-29779500D01*
X132510225Y-29779500D01*
X132510222Y-29779500D01*
X132289778Y-29779500D01*
X132289774Y-29779500D01*
X132289770Y-29779500D01*
X132072043Y-29813985D01*
X131864416Y-29881447D01*
X131863267Y-29881777D01*
X131862393Y-29882104D01*
X131665980Y-29982183D01*
X131487629Y-30111762D01*
X131331762Y-30267629D01*
X131202183Y-30445980D01*
X131102106Y-30642390D01*
X131101777Y-30643267D01*
X131101447Y-30644416D01*
X131033985Y-30852043D01*
X130999500Y-31069770D01*
X129697331Y-31069770D01*
X129682659Y-30977137D01*
X129666015Y-30872049D01*
X129597895Y-30662394D01*
X129497815Y-30465978D01*
X129368242Y-30287635D01*
X129212365Y-30131758D01*
X129034022Y-30002185D01*
X128994768Y-29982184D01*
X128987930Y-29978700D01*
X128837608Y-29902105D01*
X128837605Y-29902104D01*
X128837591Y-29902099D01*
X128767721Y-29879398D01*
X128627953Y-29833985D01*
X128410228Y-29799500D01*
X128410225Y-29799500D01*
X128410222Y-29799500D01*
X128189778Y-29799500D01*
X128189774Y-29799500D01*
X128189770Y-29799500D01*
X127972043Y-29833985D01*
X127764416Y-29901447D01*
X127763267Y-29901777D01*
X127762393Y-29902104D01*
X127565980Y-30002183D01*
X127387629Y-30131762D01*
X127231762Y-30287629D01*
X127102183Y-30465980D01*
X127002104Y-30662393D01*
X127001777Y-30663267D01*
X127001447Y-30664416D01*
X126933985Y-30872043D01*
X126899500Y-31089770D01*
X121987065Y-31089770D01*
X121886444Y-31016664D01*
X121886437Y-31016660D01*
X121886433Y-31016657D01*
X121882272Y-31014536D01*
X121878841Y-31012788D01*
X121878841Y-31012787D01*
X121675994Y-30909432D01*
X121451368Y-30836447D01*
X121218098Y-30799500D01*
X121218095Y-30799500D01*
X121218092Y-30799500D01*
X120981908Y-30799500D01*
X120981904Y-30799500D01*
X120981900Y-30799500D01*
X120748630Y-30836447D01*
X120524004Y-30909432D01*
X120524003Y-30909433D01*
X120313558Y-31016661D01*
X120118502Y-31158378D01*
X120115601Y-31162371D01*
X119962371Y-31315601D01*
X119958378Y-31318502D01*
X119816661Y-31513558D01*
X119709433Y-31724003D01*
X119709432Y-31724004D01*
X119636447Y-31948630D01*
X119599500Y-32181900D01*
X111100500Y-32181900D01*
X111100500Y-29686895D01*
X112374500Y-29686895D01*
X112374500Y-29913103D01*
X112383595Y-29982183D01*
X112403287Y-30131760D01*
X112404023Y-30137345D01*
X112404025Y-30137355D01*
X112404030Y-30137376D01*
X112446559Y-30296094D01*
X112462565Y-30355829D01*
X112462566Y-30355833D01*
X112462567Y-30355834D01*
X112549126Y-30564806D01*
X112549127Y-30564807D01*
X112592619Y-30640140D01*
X112592620Y-30640140D01*
X112662221Y-30760694D01*
X112662223Y-30760697D01*
X112799913Y-30940138D01*
X112959860Y-31100085D01*
X113136100Y-31235319D01*
X113136113Y-31235330D01*
X113139297Y-31237773D01*
X113139301Y-31237775D01*
X113139302Y-31237776D01*
X113139303Y-31237777D01*
X113146503Y-31241934D01*
X113146506Y-31241937D01*
X113146507Y-31241936D01*
X113335194Y-31350874D01*
X113544166Y-31437433D01*
X113762649Y-31495976D01*
X113986905Y-31525500D01*
X113986908Y-31525500D01*
X114213092Y-31525500D01*
X114213095Y-31525500D01*
X114437351Y-31495976D01*
X114655834Y-31437433D01*
X114864806Y-31350874D01*
X115060693Y-31237779D01*
X115240142Y-31100083D01*
X115400083Y-30940142D01*
X115537779Y-30760693D01*
X115650874Y-30564806D01*
X115737433Y-30355834D01*
X115795976Y-30137351D01*
X115825500Y-29913095D01*
X115825500Y-29686905D01*
X115795976Y-29462649D01*
X115737433Y-29244166D01*
X115650874Y-29035194D01*
X115538697Y-28840897D01*
X115538022Y-28839643D01*
X115536161Y-28837060D01*
X115535319Y-28836100D01*
X115400085Y-28659860D01*
X115240138Y-28499913D01*
X115060697Y-28362223D01*
X115060696Y-28362222D01*
X114962749Y-28305673D01*
X114962749Y-28305672D01*
X114893904Y-28265925D01*
X114864806Y-28249126D01*
X114655834Y-28162567D01*
X114655828Y-28162565D01*
X114655825Y-28162564D01*
X114655819Y-28162562D01*
X114437376Y-28104030D01*
X114437361Y-28104026D01*
X114437352Y-28104024D01*
X114437347Y-28104023D01*
X114347648Y-28092213D01*
X114213103Y-28074500D01*
X114213100Y-28074500D01*
X114213095Y-28074500D01*
X113986905Y-28074500D01*
X113986899Y-28074500D01*
X113986895Y-28074500D01*
X113812806Y-28097420D01*
X113762652Y-28104023D01*
X113762647Y-28104024D01*
X113762644Y-28104024D01*
X113762643Y-28104025D01*
X113762622Y-28104030D01*
X113544179Y-28162562D01*
X113544162Y-28162568D01*
X113335197Y-28249124D01*
X113139301Y-28362223D01*
X113139302Y-28362223D01*
X112959860Y-28499913D01*
X112799913Y-28659860D01*
X112664677Y-28836102D01*
X112664676Y-28836104D01*
X112663280Y-28837924D01*
X112662221Y-28839304D01*
X112549124Y-29035197D01*
X112462568Y-29244162D01*
X112462562Y-29244179D01*
X112404030Y-29462622D01*
X112404025Y-29462643D01*
X112404023Y-29462653D01*
X112374500Y-29686895D01*
X111100500Y-29686895D01*
X111100500Y-27797640D01*
X121639500Y-27797640D01*
X121639500Y-28002358D01*
X121671523Y-28204538D01*
X121734780Y-28399221D01*
X121734781Y-28399222D01*
X121824362Y-28575033D01*
X121827713Y-28581610D01*
X121948034Y-28747219D01*
X122092781Y-28891966D01*
X122258390Y-29012287D01*
X122375876Y-29072149D01*
X122438182Y-29103896D01*
X122440781Y-29105220D01*
X122635463Y-29168476D01*
X122635466Y-29168477D01*
X122837648Y-29200500D01*
X122837652Y-29200500D01*
X123042348Y-29200500D01*
X123042352Y-29200500D01*
X123244534Y-29168477D01*
X123439219Y-29105220D01*
X123621610Y-29012287D01*
X123787219Y-28891966D01*
X123931966Y-28747219D01*
X124052287Y-28581610D01*
X124145220Y-28399219D01*
X124208477Y-28204534D01*
X124240500Y-28002352D01*
X124240500Y-27797648D01*
X124208477Y-27595466D01*
X124145220Y-27400781D01*
X124052287Y-27218390D01*
X123931966Y-27052781D01*
X123874902Y-26995717D01*
X131799500Y-26995717D01*
X131799500Y-28806093D01*
X131799897Y-28808515D01*
X131802084Y-28831834D01*
X131802184Y-28833986D01*
X131802693Y-28836140D01*
X131803646Y-28838393D01*
X131818132Y-28879791D01*
X131847207Y-28962883D01*
X131927850Y-29072150D01*
X132037117Y-29152793D01*
X132165300Y-29197646D01*
X132195733Y-29200500D01*
X134004266Y-29200499D01*
X134004272Y-29200499D01*
X134010010Y-29200499D01*
X134013499Y-29199633D01*
X134034700Y-29197646D01*
X134162883Y-29152793D01*
X134272150Y-29072150D01*
X134352793Y-28962883D01*
X134397646Y-28834700D01*
X134400500Y-28804267D01*
X134400499Y-26995734D01*
X134400499Y-26995733D01*
X134400499Y-26995727D01*
X134400499Y-26993910D01*
X134400100Y-26991480D01*
X134397914Y-26968161D01*
X134397831Y-26966391D01*
X134397646Y-26965303D01*
X134397646Y-26965300D01*
X134352793Y-26837117D01*
X134272150Y-26727850D01*
X134162883Y-26647207D01*
X134162881Y-26647206D01*
X134118061Y-26631523D01*
X134034702Y-26602354D01*
X134034694Y-26602353D01*
X134034670Y-26602350D01*
X134004281Y-26599500D01*
X134004274Y-26599500D01*
X132195727Y-26599500D01*
X132193904Y-26599500D01*
X132191482Y-26599897D01*
X132165307Y-26602351D01*
X132165306Y-26602351D01*
X132165286Y-26602358D01*
X132037117Y-26647206D01*
X131927850Y-26727850D01*
X131847205Y-26837118D01*
X131802355Y-26965292D01*
X131802354Y-26965298D01*
X131802350Y-26965328D01*
X131799500Y-26995717D01*
X123874902Y-26995717D01*
X123787219Y-26908034D01*
X123621610Y-26787713D01*
X123615033Y-26784362D01*
X123439222Y-26694781D01*
X123439221Y-26694780D01*
X123290646Y-26646505D01*
X123279609Y-26637078D01*
X123042358Y-26599500D01*
X123042355Y-26599500D01*
X123042352Y-26599500D01*
X122837648Y-26599500D01*
X122837644Y-26599500D01*
X122837640Y-26599500D01*
X122635460Y-26631523D01*
X122440777Y-26694780D01*
X122440776Y-26694781D01*
X122258390Y-26787712D01*
X122092775Y-26908038D01*
X121948038Y-27052775D01*
X121827712Y-27218390D01*
X121734781Y-27400776D01*
X121734780Y-27400777D01*
X121671523Y-27595460D01*
X121639500Y-27797640D01*
X111100500Y-27797640D01*
X111100500Y-21705511D01*
X111699500Y-21705511D01*
X111699500Y-21894487D01*
X111729060Y-22081122D01*
X111787453Y-22260834D01*
X111787454Y-22260835D01*
X111873244Y-22429206D01*
X111984306Y-22582069D01*
X111984308Y-22582071D01*
X112117928Y-22715691D01*
X112270798Y-22826758D01*
X112270801Y-22826760D01*
X112439168Y-22912547D01*
X112618879Y-22970939D01*
X112618880Y-22970940D01*
X112780199Y-22996489D01*
X112805519Y-23000500D01*
X112805523Y-23000500D01*
X112994477Y-23000500D01*
X112994481Y-23000500D01*
X113181118Y-22970940D01*
X113360832Y-22912547D01*
X113529199Y-22826760D01*
X113682073Y-22715690D01*
X113815690Y-22582073D01*
X113926760Y-22429199D01*
X114012547Y-22260832D01*
X114070940Y-22081118D01*
X114100500Y-21894481D01*
X114100500Y-21705519D01*
X114100498Y-21705505D01*
X114100380Y-21704756D01*
X114099175Y-21697147D01*
X115199500Y-21697147D01*
X115199500Y-21952851D01*
X115232871Y-22206326D01*
X115232874Y-22206343D01*
X115232880Y-22206372D01*
X115292589Y-22429201D01*
X115299048Y-22453307D01*
X115299050Y-22453313D01*
X115352383Y-22582072D01*
X115396896Y-22689535D01*
X115450349Y-22782118D01*
X115476989Y-22828261D01*
X115524739Y-22910966D01*
X115524741Y-22910969D01*
X115680386Y-23113809D01*
X115861188Y-23294611D01*
X115861187Y-23294611D01*
X116043110Y-23434205D01*
X116064030Y-23450258D01*
X116064031Y-23450259D01*
X116064034Y-23450260D01*
X116064037Y-23450263D01*
X116110825Y-23477276D01*
X116110826Y-23477276D01*
X116285465Y-23578104D01*
X116521687Y-23675950D01*
X116623628Y-23703265D01*
X116688260Y-23720583D01*
X116766888Y-23741652D01*
X116767820Y-23741932D01*
X116768613Y-23742114D01*
X116768647Y-23742123D01*
X116768657Y-23742125D01*
X116768660Y-23742126D01*
X117022157Y-23775500D01*
X117022160Y-23775500D01*
X117277840Y-23775500D01*
X117277843Y-23775500D01*
X117531340Y-23742126D01*
X117531344Y-23742124D01*
X117531350Y-23742124D01*
X117531389Y-23742116D01*
X117531786Y-23742006D01*
X117595974Y-23724807D01*
X117778313Y-23675950D01*
X118014535Y-23578104D01*
X118235965Y-23450261D01*
X118438813Y-23294610D01*
X118619610Y-23113813D01*
X118775261Y-22910965D01*
X118903104Y-22689535D01*
X119000950Y-22453313D01*
X119052525Y-22260832D01*
X119067123Y-22206352D01*
X119067125Y-22206343D01*
X119067126Y-22206340D01*
X119100500Y-21952843D01*
X119100500Y-21697157D01*
X119100499Y-21697153D01*
X119100498Y-21697147D01*
X122999500Y-21697147D01*
X122999500Y-21952851D01*
X123032871Y-22206326D01*
X123032874Y-22206343D01*
X123032880Y-22206372D01*
X123092589Y-22429201D01*
X123099048Y-22453307D01*
X123099050Y-22453313D01*
X123152383Y-22582072D01*
X123196896Y-22689535D01*
X123250349Y-22782118D01*
X123276989Y-22828261D01*
X123324739Y-22910966D01*
X123324741Y-22910969D01*
X123480386Y-23113809D01*
X123661188Y-23294611D01*
X123661187Y-23294611D01*
X123843110Y-23434205D01*
X123864030Y-23450258D01*
X123864031Y-23450259D01*
X123864034Y-23450260D01*
X123864037Y-23450263D01*
X123910825Y-23477276D01*
X123910826Y-23477276D01*
X124085465Y-23578104D01*
X124321687Y-23675950D01*
X124423628Y-23703265D01*
X124488260Y-23720583D01*
X124566888Y-23741652D01*
X124567820Y-23741932D01*
X124568613Y-23742114D01*
X124568647Y-23742123D01*
X124568657Y-23742125D01*
X124568660Y-23742126D01*
X124822157Y-23775500D01*
X124822160Y-23775500D01*
X125077840Y-23775500D01*
X125077843Y-23775500D01*
X125331340Y-23742126D01*
X125331344Y-23742124D01*
X125331350Y-23742124D01*
X125331389Y-23742116D01*
X125331786Y-23742006D01*
X125395974Y-23724807D01*
X125578313Y-23675950D01*
X125814535Y-23578104D01*
X126035965Y-23450261D01*
X126238813Y-23294610D01*
X126419610Y-23113813D01*
X126575261Y-22910965D01*
X126703104Y-22689535D01*
X126800950Y-22453313D01*
X126852525Y-22260832D01*
X126867123Y-22206352D01*
X126867125Y-22206343D01*
X126867126Y-22206340D01*
X126900500Y-21952843D01*
X126900500Y-21697157D01*
X126867126Y-21443660D01*
X126839126Y-21339164D01*
X126800951Y-21196692D01*
X126800950Y-21196687D01*
X126703104Y-20960465D01*
X126649639Y-20867861D01*
X199049500Y-20867861D01*
X199049500Y-22782137D01*
X199052139Y-22826440D01*
X199052185Y-22828010D01*
X199052365Y-22828804D01*
X199083286Y-22970940D01*
X199089717Y-23000499D01*
X199095911Y-23028972D01*
X199176752Y-23217754D01*
X199176765Y-23217782D01*
X199228765Y-23294611D01*
X199291889Y-23387876D01*
X199291891Y-23387879D01*
X199381289Y-23477276D01*
X199437125Y-23533112D01*
X199503601Y-23578104D01*
X199607215Y-23648233D01*
X199607219Y-23648235D01*
X199607221Y-23648236D01*
X199607223Y-23648237D01*
X199796035Y-23729091D01*
X199995928Y-23772575D01*
X199996879Y-23772797D01*
X199997105Y-23772816D01*
X199998557Y-23772859D01*
X200016309Y-23773917D01*
X200042864Y-23775500D01*
X201957128Y-23775500D01*
X201957136Y-23775500D01*
X201991262Y-23773466D01*
X202001438Y-23772859D01*
X202002896Y-23772816D01*
X202003252Y-23772786D01*
X202004582Y-23772464D01*
X202203965Y-23729091D01*
X202392777Y-23648237D01*
X202562875Y-23533112D01*
X202708112Y-23387875D01*
X202823237Y-23217777D01*
X202904091Y-23028965D01*
X202947751Y-22828263D01*
X202947841Y-22826758D01*
X202948367Y-22817928D01*
X202950500Y-22782137D01*
X202950500Y-20868745D01*
X202950500Y-20867871D01*
X202950499Y-20867861D01*
X206669500Y-20867861D01*
X206669500Y-22782137D01*
X206672139Y-22826440D01*
X206672185Y-22828010D01*
X206672365Y-22828804D01*
X206703286Y-22970940D01*
X206709717Y-23000499D01*
X206715911Y-23028972D01*
X206796752Y-23217754D01*
X206796765Y-23217782D01*
X206848765Y-23294611D01*
X206911889Y-23387876D01*
X206911891Y-23387879D01*
X207001289Y-23477276D01*
X207057125Y-23533112D01*
X207123601Y-23578104D01*
X207227215Y-23648233D01*
X207227219Y-23648235D01*
X207227221Y-23648236D01*
X207227223Y-23648237D01*
X207416035Y-23729091D01*
X207615928Y-23772575D01*
X207616879Y-23772797D01*
X207617105Y-23772816D01*
X207618557Y-23772859D01*
X207636309Y-23773917D01*
X207662864Y-23775500D01*
X209577128Y-23775500D01*
X209577136Y-23775500D01*
X209611262Y-23773466D01*
X209621438Y-23772859D01*
X209622896Y-23772816D01*
X209623252Y-23772786D01*
X209624582Y-23772464D01*
X209823965Y-23729091D01*
X210012777Y-23648237D01*
X210182875Y-23533112D01*
X210328112Y-23387875D01*
X210443237Y-23217777D01*
X210524091Y-23028965D01*
X210567751Y-22828263D01*
X210567841Y-22826758D01*
X210568367Y-22817928D01*
X210570500Y-22782137D01*
X210570500Y-20868745D01*
X210570500Y-20867871D01*
X210570499Y-20867861D01*
X219079500Y-20867861D01*
X219079500Y-22782137D01*
X219082139Y-22826440D01*
X219082185Y-22828010D01*
X219082365Y-22828804D01*
X219113286Y-22970940D01*
X219119717Y-23000499D01*
X219125911Y-23028972D01*
X219206752Y-23217754D01*
X219206765Y-23217782D01*
X219258765Y-23294611D01*
X219321889Y-23387876D01*
X219321891Y-23387879D01*
X219411289Y-23477276D01*
X219467125Y-23533112D01*
X219533601Y-23578104D01*
X219637215Y-23648233D01*
X219637219Y-23648235D01*
X219637221Y-23648236D01*
X219637223Y-23648237D01*
X219826035Y-23729091D01*
X220025928Y-23772575D01*
X220026879Y-23772797D01*
X220027105Y-23772816D01*
X220028557Y-23772859D01*
X220046309Y-23773917D01*
X220072864Y-23775500D01*
X221987128Y-23775500D01*
X221987136Y-23775500D01*
X222021262Y-23773466D01*
X222031438Y-23772859D01*
X222032896Y-23772816D01*
X222033252Y-23772786D01*
X222034582Y-23772464D01*
X222233965Y-23729091D01*
X222422777Y-23648237D01*
X222592875Y-23533112D01*
X222738112Y-23387875D01*
X222853237Y-23217777D01*
X222934091Y-23028965D01*
X222977751Y-22828263D01*
X222977841Y-22826758D01*
X222978367Y-22817928D01*
X222980500Y-22782137D01*
X222980500Y-20867861D01*
X222977860Y-20823557D01*
X222977827Y-20822451D01*
X222977802Y-20822219D01*
X222977757Y-20821767D01*
X222977751Y-20821739D01*
X222977751Y-20821737D01*
X222934091Y-20621035D01*
X222853237Y-20432223D01*
X222853232Y-20432216D01*
X222738113Y-20262127D01*
X222738112Y-20262125D01*
X222675723Y-20199736D01*
X222592879Y-20116891D01*
X222592876Y-20116889D01*
X222592873Y-20116887D01*
X222526398Y-20071895D01*
X222526397Y-20071894D01*
X222422782Y-20001765D01*
X222422778Y-20001763D01*
X222422774Y-20001761D01*
X222422766Y-20001757D01*
X222422754Y-20001752D01*
X222235633Y-19921622D01*
X222234227Y-19920970D01*
X222228432Y-19919602D01*
X222227506Y-19919503D01*
X222033804Y-19877365D01*
X222033010Y-19877185D01*
X222031440Y-19877139D01*
X221987137Y-19874500D01*
X221987128Y-19874500D01*
X221987118Y-19874500D01*
X220072882Y-19874500D01*
X220072872Y-19874500D01*
X220072863Y-19874500D01*
X220028559Y-19877139D01*
X220024902Y-19877248D01*
X220016122Y-19877248D01*
X220009091Y-19881087D01*
X219827635Y-19920560D01*
X219826349Y-19920803D01*
X219826036Y-19920908D01*
X219826034Y-19920909D01*
X219826031Y-19920910D01*
X219732441Y-19960987D01*
X219637227Y-20001760D01*
X219637216Y-20001765D01*
X219467125Y-20116887D01*
X219467122Y-20116889D01*
X219321889Y-20262122D01*
X219321887Y-20262125D01*
X219206765Y-20432216D01*
X219206760Y-20432227D01*
X219125908Y-20621036D01*
X219125803Y-20621350D01*
X219125560Y-20622634D01*
X219100241Y-20739029D01*
X219082247Y-20821745D01*
X219082245Y-20821767D01*
X219079500Y-20867861D01*
X210570499Y-20867861D01*
X210567860Y-20823557D01*
X210567856Y-20823486D01*
X210567857Y-20823481D01*
X210567827Y-20822451D01*
X210567802Y-20822219D01*
X210567757Y-20821767D01*
X210567751Y-20821739D01*
X210567751Y-20821737D01*
X210524091Y-20621035D01*
X210443237Y-20432223D01*
X210443232Y-20432216D01*
X210328113Y-20262127D01*
X210328112Y-20262125D01*
X210265723Y-20199736D01*
X210182879Y-20116891D01*
X210182876Y-20116889D01*
X210182873Y-20116887D01*
X210116398Y-20071895D01*
X210116397Y-20071894D01*
X210012782Y-20001765D01*
X210012778Y-20001763D01*
X210012774Y-20001761D01*
X210012766Y-20001757D01*
X210012754Y-20001752D01*
X209825633Y-19921622D01*
X209824227Y-19920970D01*
X209818432Y-19919602D01*
X209817506Y-19919503D01*
X209623804Y-19877365D01*
X209623010Y-19877185D01*
X209621440Y-19877139D01*
X209577137Y-19874500D01*
X209577128Y-19874500D01*
X209577118Y-19874500D01*
X207662882Y-19874500D01*
X207662872Y-19874500D01*
X207662863Y-19874500D01*
X207618559Y-19877139D01*
X207614902Y-19877248D01*
X207606122Y-19877248D01*
X207599091Y-19881087D01*
X207417635Y-19920560D01*
X207416349Y-19920803D01*
X207416036Y-19920908D01*
X207416034Y-19920909D01*
X207416031Y-19920910D01*
X207322441Y-19960987D01*
X207227227Y-20001760D01*
X207227216Y-20001765D01*
X207057125Y-20116887D01*
X207057122Y-20116889D01*
X206911889Y-20262122D01*
X206911887Y-20262125D01*
X206796765Y-20432216D01*
X206796760Y-20432227D01*
X206715908Y-20621036D01*
X206715803Y-20621350D01*
X206715560Y-20622634D01*
X206690241Y-20739029D01*
X206672247Y-20821745D01*
X206672245Y-20821767D01*
X206669500Y-20867861D01*
X202950499Y-20867861D01*
X202947860Y-20823557D01*
X202947856Y-20823486D01*
X202947857Y-20823481D01*
X202947827Y-20822451D01*
X202947802Y-20822219D01*
X202947757Y-20821767D01*
X202947751Y-20821739D01*
X202947751Y-20821737D01*
X202904091Y-20621035D01*
X202823237Y-20432223D01*
X202823232Y-20432216D01*
X202708113Y-20262127D01*
X202708112Y-20262125D01*
X202645723Y-20199736D01*
X202562879Y-20116891D01*
X202562876Y-20116889D01*
X202562873Y-20116887D01*
X202496398Y-20071895D01*
X202496397Y-20071894D01*
X202392782Y-20001765D01*
X202392778Y-20001763D01*
X202392774Y-20001761D01*
X202392766Y-20001757D01*
X202392754Y-20001752D01*
X202205633Y-19921622D01*
X202204227Y-19920970D01*
X202198432Y-19919602D01*
X202197506Y-19919503D01*
X202003804Y-19877365D01*
X202003010Y-19877185D01*
X202001440Y-19877139D01*
X201957137Y-19874500D01*
X201957128Y-19874500D01*
X201957118Y-19874500D01*
X200042882Y-19874500D01*
X200042872Y-19874500D01*
X200042863Y-19874500D01*
X199998559Y-19877139D01*
X199994902Y-19877248D01*
X199986122Y-19877248D01*
X199979091Y-19881087D01*
X199797635Y-19920560D01*
X199796349Y-19920803D01*
X199796036Y-19920908D01*
X199796034Y-19920909D01*
X199796031Y-19920910D01*
X199702441Y-19960987D01*
X199607227Y-20001760D01*
X199607216Y-20001765D01*
X199437125Y-20116887D01*
X199437122Y-20116889D01*
X199291889Y-20262122D01*
X199291887Y-20262125D01*
X199176765Y-20432216D01*
X199176760Y-20432227D01*
X199095908Y-20621036D01*
X199095803Y-20621350D01*
X199095560Y-20622634D01*
X199070241Y-20739029D01*
X199052247Y-20821745D01*
X199052245Y-20821767D01*
X199049500Y-20867861D01*
X126649639Y-20867861D01*
X126576171Y-20740611D01*
X126575701Y-20739737D01*
X126575259Y-20739031D01*
X126419612Y-20536189D01*
X126238809Y-20355386D01*
X126035969Y-20199741D01*
X126035968Y-20199740D01*
X126035965Y-20199738D01*
X126035962Y-20199736D01*
X125925250Y-20135816D01*
X125925250Y-20135817D01*
X125814535Y-20071896D01*
X125814530Y-20071894D01*
X125645218Y-20001763D01*
X125578313Y-19974050D01*
X125578307Y-19974048D01*
X125578304Y-19974047D01*
X125578298Y-19974045D01*
X125331372Y-19907880D01*
X125331343Y-19907874D01*
X125331326Y-19907871D01*
X125077851Y-19874500D01*
X125077846Y-19874500D01*
X125077843Y-19874500D01*
X124822157Y-19874500D01*
X124822153Y-19874500D01*
X124822147Y-19874500D01*
X124568672Y-19907871D01*
X124568655Y-19907874D01*
X124568626Y-19907880D01*
X124321700Y-19974045D01*
X124321683Y-19974051D01*
X124085468Y-20071894D01*
X123864029Y-20199741D01*
X123864030Y-20199741D01*
X123661189Y-20355386D01*
X123480386Y-20536189D01*
X123327195Y-20735830D01*
X123327194Y-20735832D01*
X123324741Y-20739030D01*
X123324740Y-20739031D01*
X123250361Y-20867861D01*
X123196894Y-20960468D01*
X123099051Y-21196683D01*
X123099045Y-21196700D01*
X123032880Y-21443626D01*
X123032874Y-21443655D01*
X123032871Y-21443672D01*
X122999500Y-21697147D01*
X119100498Y-21697147D01*
X119077029Y-21518879D01*
X119067126Y-21443660D01*
X119039126Y-21339164D01*
X119000951Y-21196692D01*
X119000950Y-21196687D01*
X118903104Y-20960465D01*
X118776179Y-20740625D01*
X118775504Y-20739371D01*
X118773643Y-20736788D01*
X118772801Y-20735828D01*
X118619612Y-20536189D01*
X118438809Y-20355386D01*
X118235969Y-20199741D01*
X118235968Y-20199740D01*
X118235965Y-20199738D01*
X118235962Y-20199736D01*
X118125250Y-20135816D01*
X118125250Y-20135817D01*
X118014535Y-20071896D01*
X118014530Y-20071894D01*
X117845218Y-20001763D01*
X117778313Y-19974050D01*
X117778307Y-19974048D01*
X117778304Y-19974047D01*
X117778298Y-19974045D01*
X117531372Y-19907880D01*
X117531343Y-19907874D01*
X117531326Y-19907871D01*
X117277851Y-19874500D01*
X117277846Y-19874500D01*
X117277843Y-19874500D01*
X117022157Y-19874500D01*
X117022153Y-19874500D01*
X117022147Y-19874500D01*
X116768672Y-19907871D01*
X116768655Y-19907874D01*
X116768626Y-19907880D01*
X116521700Y-19974045D01*
X116521683Y-19974051D01*
X116285468Y-20071894D01*
X116064029Y-20199741D01*
X116064030Y-20199741D01*
X115861189Y-20355386D01*
X115680386Y-20536189D01*
X115527195Y-20735830D01*
X115527194Y-20735832D01*
X115524741Y-20739030D01*
X115524740Y-20739031D01*
X115450361Y-20867861D01*
X115396894Y-20960468D01*
X115299051Y-21196683D01*
X115299045Y-21196700D01*
X115232880Y-21443626D01*
X115232874Y-21443655D01*
X115232871Y-21443672D01*
X115199500Y-21697147D01*
X114099175Y-21697147D01*
X114082213Y-21590060D01*
X114070940Y-21518882D01*
X114012547Y-21339168D01*
X113926760Y-21170801D01*
X113926758Y-21170798D01*
X113815691Y-21017928D01*
X113682069Y-20884306D01*
X113529206Y-20773244D01*
X113529203Y-20773242D01*
X113529201Y-20773241D01*
X113360835Y-20687454D01*
X113360834Y-20687453D01*
X113227230Y-20644042D01*
X113216192Y-20634614D01*
X112994487Y-20599500D01*
X112994484Y-20599500D01*
X112994481Y-20599500D01*
X112805519Y-20599500D01*
X112805515Y-20599500D01*
X112805511Y-20599500D01*
X112618876Y-20629060D01*
X112439164Y-20687453D01*
X112439163Y-20687454D01*
X112270792Y-20773244D01*
X112113939Y-20887205D01*
X112111038Y-20891198D01*
X111991198Y-21011038D01*
X111987205Y-21013939D01*
X111873244Y-21170792D01*
X111787454Y-21339163D01*
X111787453Y-21339164D01*
X111729060Y-21518876D01*
X111699500Y-21705511D01*
X111100500Y-21705511D01*
X111100500Y-17174234D01*
X111105181Y-17150701D01*
X111108764Y-17142050D01*
X111142045Y-17108765D01*
X111142047Y-17108764D01*
X111142050Y-17108764D01*
X111150701Y-17105181D01*
X111174234Y-17100500D01*
X230625766Y-17100500D01*
X230649301Y-17105182D01*
G37*
%TD.AperFunction*%
%TA.AperFunction,Conductor*%
G36*
X220219766Y-40154508D02*
G01*
X220222246Y-40155940D01*
X220234980Y-40165712D01*
X227804333Y-47735065D01*
X227817664Y-47755017D01*
X227826315Y-47775902D01*
X227830997Y-47799437D01*
X227830997Y-50302307D01*
X227845961Y-50358150D01*
X227847006Y-50362049D01*
X227847006Y-50362051D01*
X227861695Y-50416874D01*
X227861700Y-50416886D01*
X227861701Y-50416887D01*
X227861703Y-50416891D01*
X227916894Y-50512485D01*
X227921003Y-50519601D01*
X227921006Y-50519605D01*
X227921008Y-50519608D01*
X227921011Y-50519611D01*
X227921012Y-50519612D01*
X229972836Y-52571436D01*
X229986167Y-52591388D01*
X229994818Y-52612273D01*
X229999500Y-52635808D01*
X229999500Y-59425688D01*
X229994818Y-59449223D01*
X229986167Y-59470108D01*
X229972836Y-59490060D01*
X229470060Y-59992836D01*
X229450109Y-60006167D01*
X229429225Y-60014818D01*
X229405689Y-60019500D01*
X228222185Y-60019500D01*
X228116254Y-60047883D01*
X228098799Y-60052560D01*
X228095040Y-60057458D01*
X228004884Y-60109509D01*
X228004879Y-60109512D01*
X227364513Y-60749879D01*
X227364513Y-60749880D01*
X227364506Y-60749887D01*
X227364504Y-60749890D01*
X227305201Y-60852605D01*
X227305199Y-60852610D01*
X227300412Y-60870482D01*
X227300403Y-60870516D01*
X227274500Y-60967182D01*
X227274500Y-61872816D01*
X227304686Y-61985468D01*
X227305588Y-61989325D01*
X227306013Y-61991450D01*
X227310807Y-61997098D01*
X227319689Y-62012484D01*
X227337824Y-62043893D01*
X227345538Y-62066618D01*
X227347360Y-62080460D01*
X227339645Y-62119239D01*
X227338213Y-62121719D01*
X227328441Y-62134453D01*
X222040060Y-67422836D01*
X222020109Y-67436167D01*
X221999225Y-67444818D01*
X221975689Y-67449500D01*
X215755682Y-67449500D01*
X215732147Y-67444818D01*
X215711262Y-67436167D01*
X215691310Y-67422836D01*
X215507989Y-67239515D01*
X215507987Y-67239513D01*
X215507985Y-67239511D01*
X215507982Y-67239509D01*
X215507978Y-67239506D01*
X215507977Y-67239505D01*
X215405268Y-67180205D01*
X215405259Y-67180201D01*
X215405251Y-67180198D01*
X215384238Y-67174567D01*
X215362721Y-67163956D01*
X215358704Y-67160874D01*
X215335167Y-67120112D01*
X215347347Y-67074645D01*
X215380256Y-67052667D01*
X215380560Y-67052585D01*
X215396443Y-67050500D01*
X218659306Y-67050500D01*
X218659310Y-67050500D01*
X218674369Y-67046464D01*
X218749673Y-67026286D01*
X218749674Y-67026286D01*
X218757731Y-67024126D01*
X218757746Y-67024128D01*
X218757745Y-67024123D01*
X218773888Y-67019799D01*
X218876607Y-66960493D01*
X218876606Y-66960493D01*
X218876614Y-66960489D01*
X222760490Y-63076613D01*
X222819799Y-62973886D01*
X222826333Y-62949500D01*
X222838416Y-62904404D01*
X222850500Y-62859311D01*
X222850500Y-59930684D01*
X224944500Y-59930684D01*
X224944500Y-60049314D01*
X224975196Y-60163873D01*
X224975198Y-60163879D01*
X224975202Y-60163890D01*
X224975205Y-60163896D01*
X225022828Y-60246380D01*
X225034506Y-60266606D01*
X225034509Y-60266610D01*
X225034511Y-60266613D01*
X225118387Y-60350489D01*
X225118390Y-60350491D01*
X225118393Y-60350493D01*
X225118402Y-60350498D01*
X225118406Y-60350501D01*
X225221104Y-60409794D01*
X225221106Y-60409795D01*
X225221108Y-60409796D01*
X225221110Y-60409797D01*
X225221114Y-60409799D01*
X225221118Y-60409800D01*
X225221155Y-60409814D01*
X225221648Y-60409942D01*
X225335687Y-60440500D01*
X225454310Y-60440500D01*
X225454311Y-60440500D01*
X225464413Y-60437792D01*
X225504826Y-60426963D01*
X225504827Y-60426963D01*
X225533072Y-60419394D01*
X225568886Y-60409799D01*
X225671613Y-60350489D01*
X225755489Y-60266613D01*
X225814799Y-60163886D01*
X225840171Y-60069197D01*
X225845500Y-60049311D01*
X225845500Y-59930688D01*
X225845500Y-59930685D01*
X225814942Y-59816648D01*
X225814814Y-59816155D01*
X225814800Y-59816118D01*
X225814799Y-59816114D01*
X225814796Y-59816108D01*
X225814794Y-59816104D01*
X225755501Y-59713406D01*
X225755494Y-59713395D01*
X225755493Y-59713393D01*
X225755491Y-59713390D01*
X225755489Y-59713387D01*
X225671613Y-59629511D01*
X225671610Y-59629509D01*
X225671606Y-59629506D01*
X225671605Y-59629505D01*
X225568896Y-59570205D01*
X225568890Y-59570202D01*
X225568879Y-59570198D01*
X225568873Y-59570196D01*
X225454314Y-59539500D01*
X225454311Y-59539500D01*
X225454309Y-59539500D01*
X225335691Y-59539500D01*
X225335689Y-59539500D01*
X225335686Y-59539500D01*
X225221125Y-59570196D01*
X225221110Y-59570201D01*
X225118391Y-59629507D01*
X225118384Y-59629513D01*
X225034513Y-59713384D01*
X225034507Y-59713391D01*
X224975203Y-59816108D01*
X224975202Y-59816108D01*
X224975198Y-59816119D01*
X224975196Y-59816125D01*
X224944500Y-59930684D01*
X222850500Y-59930684D01*
X222850500Y-54150684D01*
X224944500Y-54150684D01*
X224944500Y-54269314D01*
X224975196Y-54383873D01*
X224975199Y-54383882D01*
X224975205Y-54383896D01*
X225034505Y-54486605D01*
X225034506Y-54486606D01*
X225034509Y-54486610D01*
X225034511Y-54486613D01*
X225118387Y-54570489D01*
X225118390Y-54570491D01*
X225118393Y-54570493D01*
X225118402Y-54570498D01*
X225118406Y-54570501D01*
X225221104Y-54629794D01*
X225221106Y-54629795D01*
X225221108Y-54629796D01*
X225221110Y-54629797D01*
X225221114Y-54629799D01*
X225221118Y-54629800D01*
X225221155Y-54629814D01*
X225221648Y-54629942D01*
X225335687Y-54660500D01*
X225454310Y-54660500D01*
X225454311Y-54660500D01*
X225464413Y-54657792D01*
X225504826Y-54646963D01*
X225504827Y-54646963D01*
X225533072Y-54639394D01*
X225568886Y-54629799D01*
X225671613Y-54570489D01*
X225755489Y-54486613D01*
X225814799Y-54383886D01*
X225837351Y-54299721D01*
X225845500Y-54269311D01*
X225845500Y-54150688D01*
X225845500Y-54150685D01*
X225814942Y-54036648D01*
X225814814Y-54036155D01*
X225814800Y-54036118D01*
X225814799Y-54036114D01*
X225814796Y-54036108D01*
X225799854Y-54010228D01*
X225755501Y-53933406D01*
X225755494Y-53933395D01*
X225755493Y-53933393D01*
X225755491Y-53933390D01*
X225755489Y-53933387D01*
X225671613Y-53849511D01*
X225671610Y-53849509D01*
X225671606Y-53849506D01*
X225671605Y-53849505D01*
X225568896Y-53790205D01*
X225568890Y-53790202D01*
X225568879Y-53790198D01*
X225568873Y-53790196D01*
X225454314Y-53759500D01*
X225454311Y-53759500D01*
X225454309Y-53759500D01*
X225335691Y-53759500D01*
X225335689Y-53759500D01*
X225335686Y-53759500D01*
X225221125Y-53790196D01*
X225221110Y-53790201D01*
X225118391Y-53849507D01*
X225118384Y-53849513D01*
X225034513Y-53933384D01*
X225034507Y-53933391D01*
X224975201Y-54036110D01*
X224975196Y-54036125D01*
X224944500Y-54150684D01*
X222850500Y-54150684D01*
X222850500Y-52155682D01*
X222855181Y-52132149D01*
X222863831Y-52111264D01*
X222877160Y-52091313D01*
X223768974Y-51199500D01*
X225060489Y-49907985D01*
X225119799Y-49805258D01*
X225138547Y-49735288D01*
X225150500Y-49690680D01*
X225150500Y-49621693D01*
X225155181Y-49598160D01*
X225158764Y-49589509D01*
X225192008Y-49556240D01*
X225192107Y-49556199D01*
X225192674Y-49555963D01*
X225232175Y-49553365D01*
X225234946Y-49554108D01*
X225249759Y-49560245D01*
X225284005Y-49580018D01*
X225284007Y-49580019D01*
X225284011Y-49580021D01*
X225284016Y-49580022D01*
X225284051Y-49580035D01*
X225284506Y-49580153D01*
X225319419Y-49589509D01*
X225360435Y-49600500D01*
X225360436Y-49600500D01*
X225360438Y-49600500D01*
X225378815Y-49600500D01*
X225394731Y-49602595D01*
X225409843Y-49606644D01*
X225424676Y-49612788D01*
X225425015Y-49612984D01*
X225425019Y-49612985D01*
X225425041Y-49612994D01*
X225425453Y-49613101D01*
X225486156Y-49629367D01*
X225565021Y-49650500D01*
X225709976Y-49650500D01*
X225709977Y-49650500D01*
X225729433Y-49645286D01*
X225771706Y-49633958D01*
X225771707Y-49633958D01*
X225849978Y-49612986D01*
X225849978Y-49612985D01*
X225849985Y-49612984D01*
X225975515Y-49540509D01*
X226078009Y-49438015D01*
X226150484Y-49312485D01*
X226170438Y-49238018D01*
X226188000Y-49172479D01*
X226188000Y-49027519D01*
X226157347Y-48913126D01*
X226150619Y-48888019D01*
X226150495Y-48887542D01*
X226150486Y-48887519D01*
X226134304Y-48859491D01*
X226078009Y-48761985D01*
X225975515Y-48659491D01*
X225972541Y-48657169D01*
X225973088Y-48656468D01*
X225961410Y-48646018D01*
X225950707Y-48632068D01*
X225938000Y-48594632D01*
X225938000Y-47309909D01*
X225942681Y-47286374D01*
X225949341Y-47270295D01*
X225972783Y-47243567D01*
X225972319Y-47242962D01*
X225975362Y-47240626D01*
X225975416Y-47240566D01*
X225975515Y-47240509D01*
X226078009Y-47138015D01*
X226150484Y-47012485D01*
X226157049Y-46987984D01*
X226169771Y-46940506D01*
X226169771Y-46940504D01*
X226174260Y-46923754D01*
X226188000Y-46872477D01*
X226188000Y-46727522D01*
X226188000Y-46727519D01*
X226150626Y-46588046D01*
X226150495Y-46587542D01*
X226150486Y-46587519D01*
X226150484Y-46587515D01*
X226078009Y-46461985D01*
X225975515Y-46359491D01*
X225975512Y-46359489D01*
X225975508Y-46359486D01*
X225849982Y-46287013D01*
X225709980Y-46249500D01*
X225709977Y-46249500D01*
X225709975Y-46249500D01*
X225565025Y-46249500D01*
X225565023Y-46249500D01*
X225565020Y-46249500D01*
X225425026Y-46287010D01*
X225425022Y-46287012D01*
X225299481Y-46359493D01*
X225196997Y-46461978D01*
X225196991Y-46461984D01*
X225195877Y-46463470D01*
X225195771Y-46463390D01*
X225195567Y-46463627D01*
X225195362Y-46463450D01*
X225183756Y-46475908D01*
X225169577Y-46486789D01*
X225132136Y-46499500D01*
X224285435Y-46499500D01*
X224247226Y-46509737D01*
X224209017Y-46519975D01*
X224208994Y-46519987D01*
X224140491Y-46559537D01*
X224140488Y-46559539D01*
X224140481Y-46559545D01*
X224048075Y-46651951D01*
X224028125Y-46665282D01*
X224012043Y-46671944D01*
X223976568Y-46674271D01*
X223976469Y-46675026D01*
X223972676Y-46674526D01*
X223972595Y-46674532D01*
X223972477Y-46674500D01*
X223972476Y-46674500D01*
X223972475Y-46674500D01*
X223827525Y-46674500D01*
X223827523Y-46674500D01*
X223827520Y-46674500D01*
X223687526Y-46712010D01*
X223687522Y-46712012D01*
X223687519Y-46712014D01*
X223687515Y-46712016D01*
X223590633Y-46767951D01*
X223561981Y-46784493D01*
X223459493Y-46886981D01*
X223459490Y-46886985D01*
X223459490Y-46886986D01*
X223401179Y-46987984D01*
X223387012Y-47012522D01*
X223387010Y-47012527D01*
X223349500Y-47152518D01*
X223349500Y-47297480D01*
X223387013Y-47437482D01*
X223459486Y-47563008D01*
X223459489Y-47563012D01*
X223459491Y-47563015D01*
X223459494Y-47563018D01*
X223561980Y-47665505D01*
X223564720Y-47667607D01*
X223576071Y-47678956D01*
X223586791Y-47692926D01*
X223599500Y-47730364D01*
X223599500Y-48265089D01*
X223594818Y-48288625D01*
X223588157Y-48304705D01*
X223563460Y-48332875D01*
X223563627Y-48333067D01*
X223563392Y-48333270D01*
X223563408Y-48333295D01*
X223563470Y-48333377D01*
X223563465Y-48333380D01*
X223563526Y-48333473D01*
X223562126Y-48334396D01*
X223562108Y-48334418D01*
X223562000Y-48334480D01*
X223561992Y-48334485D01*
X223561984Y-48334491D01*
X223561978Y-48334497D01*
X223459493Y-48436981D01*
X223459490Y-48436985D01*
X223459490Y-48436986D01*
X223414985Y-48514071D01*
X223387012Y-48562522D01*
X223387010Y-48562527D01*
X223349500Y-48702518D01*
X223349500Y-48847480D01*
X223387013Y-48987482D01*
X223459486Y-49113008D01*
X223459489Y-49113012D01*
X223459491Y-49113015D01*
X223561985Y-49215509D01*
X223687515Y-49287984D01*
X223687519Y-49287986D01*
X223687542Y-49287995D01*
X223688019Y-49288119D01*
X223715587Y-49295506D01*
X223827521Y-49325500D01*
X223972476Y-49325500D01*
X223972477Y-49325500D01*
X224062211Y-49301455D01*
X224062212Y-49301455D01*
X224112478Y-49287986D01*
X224112478Y-49287985D01*
X224112485Y-49287984D01*
X224146657Y-49268254D01*
X224169372Y-49260543D01*
X224171743Y-49260230D01*
X224178655Y-49259320D01*
X224224119Y-49271496D01*
X224224690Y-49271934D01*
X224246661Y-49304806D01*
X224247402Y-49307570D01*
X224249500Y-49323495D01*
X224249500Y-49407059D01*
X224244818Y-49430594D01*
X224236167Y-49451479D01*
X224222836Y-49471431D01*
X222039513Y-51654754D01*
X222039505Y-51654763D01*
X222039502Y-51654767D01*
X221980205Y-51757472D01*
X221980201Y-51757481D01*
X221974896Y-51777280D01*
X221974895Y-51777285D01*
X221949500Y-51872056D01*
X221949500Y-62575687D01*
X221944818Y-62599222D01*
X221936167Y-62620107D01*
X221922836Y-62640059D01*
X221064137Y-63498758D01*
X221044179Y-63512092D01*
X221038062Y-63514625D01*
X220990992Y-63514620D01*
X220957712Y-63481333D01*
X220955179Y-63475216D01*
X220950500Y-63451687D01*
X220950500Y-42540685D01*
X220919941Y-42426645D01*
X220919810Y-42426141D01*
X220919800Y-42426116D01*
X220919676Y-42425901D01*
X220905163Y-42400764D01*
X220892931Y-42379576D01*
X220869345Y-42338721D01*
X220869335Y-42338708D01*
X220860490Y-42323387D01*
X219126240Y-40589137D01*
X219112906Y-40569179D01*
X219110373Y-40563062D01*
X219110378Y-40515992D01*
X219143664Y-40482712D01*
X219146284Y-40481627D01*
X219149782Y-40480179D01*
X219173311Y-40475500D01*
X219254712Y-40475500D01*
X219270627Y-40477595D01*
X219285737Y-40481643D01*
X219300569Y-40487786D01*
X219387515Y-40537984D01*
X219387519Y-40537986D01*
X219387542Y-40537995D01*
X219388019Y-40538119D01*
X219427733Y-40548760D01*
X219527521Y-40575500D01*
X219672476Y-40575500D01*
X219672477Y-40575500D01*
X219684822Y-40572191D01*
X219734206Y-40558958D01*
X219734207Y-40558958D01*
X219812478Y-40537986D01*
X219812478Y-40537985D01*
X219812485Y-40537984D01*
X219938015Y-40465509D01*
X220040509Y-40363015D01*
X220112984Y-40237485D01*
X220123198Y-40199365D01*
X220133808Y-40177851D01*
X220139512Y-40170417D01*
X220180262Y-40146889D01*
X220180498Y-40146857D01*
X220180975Y-40146795D01*
X220219766Y-40154508D01*
G37*
%TD.AperFunction*%
%TD*%
M02*
