%TF.GenerationSoftware,KiCad,Pcbnew,10.0.5*%
%TF.CreationDate,2026-08-02T12:15:25+02:00*%
%TF.ProjectId,Geiger_counter_LoRaWAN,47656967-6572-45f6-936f-756e7465725f,rev?*%
%TF.SameCoordinates,Original*%
%TF.FileFunction,Soldermask,Top*%
%TF.FilePolarity,Negative*%
%FSLAX46Y46*%
G04 Gerber Fmt 4.6, Leading zero omitted, Abs format (unit mm)*
G04 Created by KiCad (PCBNEW 10.0.5) date 2026-08-02 12:15:25*
%MOMM*%
%LPD*%
G01*
G04 APERTURE LIST*
G04 Aperture macros list*
%AMRoundRect*
0 Rectangle with rounded corners*
0 $1 Rounding radius*
0 $2 $3 $4 $5 $6 $7 $8 $9 X,Y pos of 4 corners*
0 Add a 4 corners polygon primitive as box body*
4,1,4,$2,$3,$4,$5,$6,$7,$8,$9,$2,$3,0*
0 Add four circle primitives for the rounded corners*
1,1,$1+$1,$2,$3*
1,1,$1+$1,$4,$5*
1,1,$1+$1,$6,$7*
1,1,$1+$1,$8,$9*
0 Add four rect primitives between the rounded corners*
20,1,$1+$1,$2,$3,$4,$5,0*
20,1,$1+$1,$4,$5,$6,$7,0*
20,1,$1+$1,$6,$7,$8,$9,0*
20,1,$1+$1,$8,$9,$2,$3,0*%
G04 Aperture macros list end*
%ADD10RoundRect,0.250000X0.412500X0.650000X-0.412500X0.650000X-0.412500X-0.650000X0.412500X-0.650000X0*%
%ADD11RoundRect,0.140000X0.170000X-0.140000X0.170000X0.140000X-0.170000X0.140000X-0.170000X-0.140000X0*%
%ADD12RoundRect,0.160000X0.160000X-0.197500X0.160000X0.197500X-0.160000X0.197500X-0.160000X-0.197500X0*%
%ADD13RoundRect,0.135000X0.135000X0.185000X-0.135000X0.185000X-0.135000X-0.185000X0.135000X-0.185000X0*%
%ADD14R,1.500000X1.500000*%
%ADD15RoundRect,0.160000X-0.197500X-0.160000X0.197500X-0.160000X0.197500X0.160000X-0.197500X0.160000X0*%
%ADD16RoundRect,0.135000X0.185000X-0.135000X0.185000X0.135000X-0.185000X0.135000X-0.185000X-0.135000X0*%
%ADD17RoundRect,0.225000X-0.225000X-0.250000X0.225000X-0.250000X0.225000X0.250000X-0.225000X0.250000X0*%
%ADD18RoundRect,0.250000X-0.350000X0.450000X-0.350000X-0.450000X0.350000X-0.450000X0.350000X0.450000X0*%
%ADD19R,1.500000X1.000000*%
%ADD20RoundRect,0.100000X-0.100000X0.130000X-0.100000X-0.130000X0.100000X-0.130000X0.100000X0.130000X0*%
%ADD21RoundRect,0.160000X0.197500X0.160000X-0.197500X0.160000X-0.197500X-0.160000X0.197500X-0.160000X0*%
%ADD22RoundRect,0.135000X-0.185000X0.135000X-0.185000X-0.135000X0.185000X-0.135000X0.185000X0.135000X0*%
%ADD23RoundRect,0.100000X-0.130000X-0.100000X0.130000X-0.100000X0.130000X0.100000X-0.130000X0.100000X0*%
%ADD24RoundRect,0.237500X-0.300000X-0.237500X0.300000X-0.237500X0.300000X0.237500X-0.300000X0.237500X0*%
%ADD25RoundRect,0.237500X0.237500X-0.250000X0.237500X0.250000X-0.237500X0.250000X-0.237500X-0.250000X0*%
%ADD26RoundRect,0.250000X-0.412500X-0.650000X0.412500X-0.650000X0.412500X0.650000X-0.412500X0.650000X0*%
%ADD27RoundRect,0.237500X-0.287500X-0.237500X0.287500X-0.237500X0.287500X0.237500X-0.287500X0.237500X0*%
%ADD28C,3.200000*%
%ADD29RoundRect,0.135000X-0.135000X-0.185000X0.135000X-0.185000X0.135000X0.185000X-0.135000X0.185000X0*%
%ADD30RoundRect,0.160000X-0.160000X0.197500X-0.160000X-0.197500X0.160000X-0.197500X0.160000X0.197500X0*%
%ADD31RoundRect,0.150000X-0.587500X-0.150000X0.587500X-0.150000X0.587500X0.150000X-0.587500X0.150000X0*%
%ADD32RoundRect,0.155000X0.212500X0.155000X-0.212500X0.155000X-0.212500X-0.155000X0.212500X-0.155000X0*%
%ADD33RoundRect,0.150000X0.512500X0.150000X-0.512500X0.150000X-0.512500X-0.150000X0.512500X-0.150000X0*%
%ADD34C,2.600000*%
%ADD35C,3.800000*%
%ADD36RoundRect,0.100000X0.100000X-0.130000X0.100000X0.130000X-0.100000X0.130000X-0.100000X-0.130000X0*%
%ADD37RoundRect,0.237500X0.237500X-0.287500X0.237500X0.287500X-0.237500X0.287500X-0.237500X-0.287500X0*%
%ADD38RoundRect,0.140000X0.140000X0.170000X-0.140000X0.170000X-0.140000X-0.170000X0.140000X-0.170000X0*%
%ADD39R,0.203200X0.762000*%
%ADD40R,1.600200X0.990600*%
%ADD41RoundRect,0.170000X0.680000X0.680000X-0.680000X0.680000X-0.680000X-0.680000X0.680000X-0.680000X0*%
%ADD42C,1.700000*%
%ADD43RoundRect,0.237500X0.287500X0.237500X-0.287500X0.237500X-0.287500X-0.237500X0.287500X-0.237500X0*%
%ADD44C,0.750000*%
%ADD45C,1.050000*%
%ADD46R,1.000000X1.350000*%
%ADD47R,1.800000X2.000000*%
%ADD48RoundRect,0.225000X0.250000X-0.225000X0.250000X0.225000X-0.250000X0.225000X-0.250000X-0.225000X0*%
%ADD49RoundRect,0.155000X-0.212500X-0.155000X0.212500X-0.155000X0.212500X0.155000X-0.212500X0.155000X0*%
%ADD50R,1.600000X1.000000*%
%ADD51RoundRect,0.117500X-0.147500X0.117500X-0.147500X-0.117500X0.147500X-0.117500X0.147500X0.117500X0*%
%ADD52RoundRect,0.050000X-0.050000X0.350000X-0.050000X-0.350000X0.050000X-0.350000X0.050000X0.350000X0*%
%ADD53RoundRect,0.050000X-0.350000X0.050000X-0.350000X-0.050000X0.350000X-0.050000X0.350000X0.050000X0*%
%ADD54R,3.400000X3.400000*%
%ADD55RoundRect,0.237500X-0.237500X0.250000X-0.237500X-0.250000X0.237500X-0.250000X0.237500X0.250000X0*%
%ADD56RoundRect,0.100000X0.130000X0.100000X-0.130000X0.100000X-0.130000X-0.100000X0.130000X-0.100000X0*%
%ADD57C,0.650000*%
%ADD58RoundRect,0.150000X0.470000X-0.150000X0.470000X0.150000X-0.470000X0.150000X-0.470000X-0.150000X0*%
%ADD59RoundRect,0.075000X0.545000X-0.075000X0.545000X0.075000X-0.545000X0.075000X-0.545000X-0.075000X0*%
%ADD60O,2.100000X1.000000*%
%ADD61O,1.800000X1.000000*%
%ADD62R,2.500000X2.500000*%
%ADD63C,2.362200*%
%ADD64C,2.400000*%
%ADD65C,1.500000*%
%ADD66C,1.600000*%
%ADD67RoundRect,0.249999X0.850001X0.850001X-0.850001X0.850001X-0.850001X-0.850001X0.850001X-0.850001X0*%
%ADD68C,2.200000*%
%ADD69C,2.000000*%
%ADD70C,2.390000*%
%ADD71C,3.450000*%
%ADD72RoundRect,0.875000X0.875000X0.875000X-0.875000X0.875000X-0.875000X-0.875000X0.875000X-0.875000X0*%
%ADD73C,3.500000*%
G04 APERTURE END LIST*
%TO.C,JP1*%
G36*
X217450000Y-44300000D02*
G01*
X218950000Y-44300000D01*
X218950000Y-44600000D01*
X217450000Y-44600000D01*
X217450000Y-44300000D01*
G37*
%TD*%
D10*
%TO.C,C21*%
X228762500Y-46800000D03*
X225637500Y-46800000D03*
%TD*%
D11*
%TO.C,C5*%
X217100000Y-36980000D03*
X217100000Y-36020000D03*
%TD*%
D12*
%TO.C,R25*%
X215800000Y-52697500D03*
X215800000Y-51502500D03*
%TD*%
D13*
%TO.C,R23*%
X191510000Y-64100000D03*
X190490000Y-64100000D03*
%TD*%
D14*
%TO.C,SW5*%
X210800000Y-45600000D03*
X203000000Y-45600000D03*
%TD*%
D15*
%TO.C,R19*%
X205105000Y-56400000D03*
X206300000Y-56400000D03*
%TD*%
D16*
%TO.C,R11*%
X191000000Y-48710000D03*
X191000000Y-47690000D03*
%TD*%
D13*
%TO.C,R27*%
X191510000Y-63000000D03*
X190490000Y-63000000D03*
%TD*%
D17*
%TO.C,C4*%
X219000000Y-37900000D03*
X220550000Y-37900000D03*
%TD*%
D18*
%TO.C,Y1*%
X202000000Y-54100000D03*
X202000000Y-56300000D03*
X203700000Y-56300000D03*
X203700000Y-54100000D03*
%TD*%
D19*
%TO.C,JP1*%
X218200000Y-45100000D03*
X218200000Y-43800000D03*
%TD*%
D20*
%TO.C,C51*%
X211000000Y-61780000D03*
X211000000Y-62420000D03*
%TD*%
D21*
%TO.C,R32*%
X218595000Y-61500000D03*
X217400000Y-61500000D03*
%TD*%
D22*
%TO.C,R21*%
X191100000Y-60690000D03*
X191100000Y-61710000D03*
%TD*%
D23*
%TO.C,C54*%
X217100000Y-54300000D03*
X217740000Y-54300000D03*
%TD*%
D24*
%TO.C,C15*%
X222137500Y-43900000D03*
X223862500Y-43900000D03*
%TD*%
D25*
%TO.C,C17*%
X223900000Y-47225000D03*
X223900000Y-45400000D03*
%TD*%
D21*
%TO.C,R15*%
X221597500Y-53500000D03*
X220402500Y-53500000D03*
%TD*%
D26*
%TO.C,C20*%
X225637500Y-49100000D03*
X228762500Y-49100000D03*
%TD*%
D27*
%TO.C,D3*%
X187350000Y-64400000D03*
X189100000Y-64400000D03*
%TD*%
D20*
%TO.C,C47*%
X206500000Y-59680000D03*
X206500000Y-60320000D03*
%TD*%
D13*
%TO.C,R22*%
X191400000Y-65200000D03*
X190380000Y-65200000D03*
%TD*%
D22*
%TO.C,R17*%
X214400000Y-42290000D03*
X214400000Y-43310000D03*
%TD*%
D28*
%TO.C,H3*%
X227400000Y-65700000D03*
%TD*%
D24*
%TO.C,C16*%
X212437500Y-50300000D03*
X214162500Y-50300000D03*
%TD*%
D29*
%TO.C,R29*%
X217690000Y-55400000D03*
X218710000Y-55400000D03*
%TD*%
D30*
%TO.C,R14*%
X222500000Y-58902500D03*
X222500000Y-60097500D03*
%TD*%
D28*
%TO.C,H1*%
X114200000Y-65700000D03*
%TD*%
D31*
%TO.C,D6*%
X218625000Y-50350000D03*
X218625000Y-52250000D03*
X220500000Y-51300000D03*
%TD*%
D32*
%TO.C,C23*%
X203467500Y-57800000D03*
X202332500Y-57800000D03*
%TD*%
D33*
%TO.C,U18*%
X220500000Y-48800000D03*
X220500000Y-47850000D03*
X220500000Y-46900000D03*
X218225000Y-46900000D03*
X218225000Y-48800000D03*
%TD*%
D34*
%TO.C,H6*%
X151700000Y-64500000D03*
D35*
X151700000Y-64500000D03*
%TD*%
D36*
%TO.C,C48*%
X209900000Y-52020000D03*
X209900000Y-51380000D03*
%TD*%
D37*
%TO.C,D2*%
X219600000Y-41775000D03*
X219600000Y-40025000D03*
%TD*%
D38*
%TO.C,C42*%
X216462500Y-61500000D03*
X215502500Y-61500000D03*
%TD*%
D14*
%TO.C,SW6*%
X203900000Y-59400000D03*
X203900000Y-67200000D03*
%TD*%
D39*
%TO.C,U4*%
X217500000Y-38537800D03*
X217099950Y-38537800D03*
X216699900Y-38537800D03*
X216299850Y-38537800D03*
X215899800Y-38537800D03*
X215899800Y-40900000D03*
X216299850Y-40900000D03*
X216699900Y-40900000D03*
X217099950Y-40900000D03*
X217500000Y-40900000D03*
D40*
X216699900Y-39718900D03*
%TD*%
D22*
%TO.C,R12*%
X193500000Y-60690000D03*
X193500000Y-61710000D03*
%TD*%
D41*
%TO.C,U2*%
X177810000Y-53900000D03*
D42*
X175270000Y-53900000D03*
X172730000Y-53900000D03*
X170190000Y-53900000D03*
%TD*%
D43*
%TO.C,D4*%
X212300000Y-38000000D03*
X210550000Y-38000000D03*
%TD*%
D36*
%TO.C,C52*%
X214600000Y-52520000D03*
X214600000Y-51880000D03*
%TD*%
D20*
%TO.C,C50*%
X213100000Y-61825000D03*
X213100000Y-62465000D03*
%TD*%
D44*
%TO.C,S1*%
X190550000Y-54500000D03*
D45*
X194350000Y-54500000D03*
D46*
X191025000Y-58075000D03*
X192450000Y-58075000D03*
X193875000Y-58075000D03*
X191025000Y-50925000D03*
X192450000Y-50925000D03*
X193875000Y-50925000D03*
D47*
X188400000Y-54500000D03*
X196500000Y-54500000D03*
%TD*%
D48*
%TO.C,C53*%
X209800000Y-50000000D03*
X209800000Y-48450000D03*
%TD*%
D49*
%TO.C,C24*%
X202032500Y-52600000D03*
X203167500Y-52600000D03*
%TD*%
D50*
%TO.C,L2*%
X218500000Y-57600000D03*
X218500000Y-59600000D03*
%TD*%
D51*
%TO.C,C43*%
X217100000Y-58200000D03*
X217100000Y-59160000D03*
%TD*%
%TO.C,C41*%
X216100000Y-58220000D03*
X216100000Y-59180000D03*
%TD*%
D13*
%TO.C,R20*%
X216410000Y-43500000D03*
X215390000Y-43500000D03*
%TD*%
D27*
%TO.C,D8*%
X187450000Y-62800000D03*
X189200000Y-62800000D03*
%TD*%
D28*
%TO.C,H4*%
X227800000Y-29500000D03*
%TD*%
D13*
%TO.C,R8*%
X218400000Y-42300000D03*
X217380000Y-42300000D03*
%TD*%
D12*
%TO.C,R24*%
X208700000Y-63397500D03*
X208700000Y-62202500D03*
%TD*%
D52*
%TO.C,U1*%
X213850000Y-53250000D03*
X213450000Y-53250000D03*
X213050000Y-53250000D03*
X212650000Y-53250000D03*
X212250000Y-53250000D03*
X211850000Y-53250000D03*
X211450000Y-53250000D03*
X211050000Y-53250000D03*
X210650000Y-53250000D03*
X210250000Y-53250000D03*
X209850000Y-53250000D03*
X209450000Y-53250000D03*
X209050000Y-53250000D03*
X208650000Y-53250000D03*
X208250000Y-53250000D03*
D53*
X207600000Y-53900000D03*
X207600000Y-54300000D03*
X207600000Y-54700000D03*
X207600000Y-55100000D03*
X207600000Y-55500000D03*
X207600000Y-55900000D03*
X207600000Y-56300000D03*
X207600000Y-56700000D03*
X207600000Y-57100000D03*
X207600000Y-57500000D03*
X207600000Y-57900000D03*
X207600000Y-58300000D03*
X207600000Y-58700000D03*
X207600000Y-59100000D03*
X207600000Y-59500000D03*
D52*
X208250000Y-60150000D03*
X208650000Y-60150000D03*
X209050000Y-60150000D03*
X209450000Y-60150000D03*
X209850000Y-60150000D03*
X210250000Y-60150000D03*
X210650000Y-60150000D03*
X211050000Y-60150000D03*
X211450000Y-60150000D03*
X211850000Y-60150000D03*
X212250000Y-60150000D03*
X212650000Y-60150000D03*
X213050000Y-60150000D03*
X213450000Y-60150000D03*
X213850000Y-60150000D03*
D53*
X214500000Y-59500000D03*
X214500000Y-59100000D03*
X214500000Y-58700000D03*
X214500000Y-58300000D03*
X214500000Y-57900000D03*
X214500000Y-57500000D03*
X214500000Y-57100000D03*
X214500000Y-56700000D03*
X214500000Y-56300000D03*
X214500000Y-55900000D03*
X214500000Y-55500000D03*
X214500000Y-55100000D03*
X214500000Y-54700000D03*
X214500000Y-54300000D03*
X214500000Y-53900000D03*
D54*
X211050000Y-56700000D03*
%TD*%
D55*
%TO.C,L4*%
X223900000Y-48775000D03*
X223900000Y-50600000D03*
%TD*%
D20*
%TO.C,C49*%
X213900000Y-61825000D03*
X213900000Y-62465000D03*
%TD*%
D27*
%TO.C,D9*%
X187475000Y-61200000D03*
X189225000Y-61200000D03*
%TD*%
D22*
%TO.C,R10*%
X192400000Y-60680000D03*
X192400000Y-61700000D03*
%TD*%
D29*
%TO.C,R28*%
X217690000Y-56400000D03*
X218710000Y-56400000D03*
%TD*%
D16*
%TO.C,R13*%
X193900000Y-48710000D03*
X193900000Y-47690000D03*
%TD*%
D56*
%TO.C,C56*%
X205620000Y-54800000D03*
X204980000Y-54800000D03*
%TD*%
D57*
%TO.C,J1*%
X225395000Y-59990000D03*
X225395000Y-54210000D03*
D58*
X224275000Y-60300000D03*
X224275000Y-59500000D03*
D59*
X224275000Y-58350000D03*
X224275000Y-57350000D03*
X224275000Y-56850000D03*
X224275000Y-55850000D03*
D58*
X224275000Y-54700000D03*
X224275000Y-53900000D03*
X224275000Y-53900000D03*
X224275000Y-54700000D03*
D59*
X224275000Y-55350000D03*
X224275000Y-56350000D03*
X224275000Y-57850000D03*
X224275000Y-58850000D03*
D58*
X224275000Y-59500000D03*
X224275000Y-60300000D03*
D60*
X224875000Y-61420000D03*
D61*
X229075000Y-61420000D03*
D60*
X224875000Y-52780000D03*
D61*
X229075000Y-52780000D03*
%TD*%
D29*
%TO.C,R9*%
X213590000Y-37800000D03*
X214610000Y-37800000D03*
%TD*%
D28*
%TO.C,H2*%
X114100000Y-29800000D03*
%TD*%
D30*
%TO.C,R26*%
X210100000Y-61905000D03*
X210100000Y-63100000D03*
%TD*%
D20*
%TO.C,C46*%
X211700000Y-61780000D03*
X211700000Y-62420000D03*
%TD*%
D38*
%TO.C,C44*%
X206080000Y-57400000D03*
X205120000Y-57400000D03*
%TD*%
D13*
%TO.C,R16*%
X214600000Y-41200000D03*
X213580000Y-41200000D03*
%TD*%
D36*
%TO.C,C45*%
X211900000Y-52120000D03*
X211900000Y-51480000D03*
%TD*%
D62*
%TO.C,LS1*%
X193800000Y-32700000D03*
X193800000Y-39700000D03*
X200800000Y-39700000D03*
X200800000Y-32700000D03*
%TD*%
D63*
%TO.C,U3*%
X178900000Y-59874000D03*
X174201000Y-59874000D03*
X169502000Y-59874000D03*
X169502000Y-64700000D03*
X174201000Y-64700000D03*
X178900000Y-64700000D03*
%TD*%
D13*
%TO.C,R18*%
X216400000Y-42500000D03*
X215380000Y-42500000D03*
%TD*%
D64*
%TO.C,R4*%
X138400000Y-53900000D03*
X118080000Y-53900000D03*
%TD*%
%TO.C,R7*%
X128300000Y-31200000D03*
X128300000Y-46440000D03*
%TD*%
D14*
%TO.C,Q1*%
X123500000Y-46900000D03*
D65*
X123500000Y-44360000D03*
X123500000Y-41820000D03*
%TD*%
D34*
%TO.C,L1*%
X121100000Y-32300000D03*
X121100000Y-37300000D03*
%TD*%
D64*
%TO.C,R3*%
X132400000Y-46420000D03*
X132400000Y-31180000D03*
%TD*%
D66*
%TO.C,C3*%
X138000000Y-44800000D03*
X138000000Y-34800000D03*
%TD*%
D67*
%TO.C,D1*%
X133100000Y-27900000D03*
D68*
X122940000Y-27900000D03*
%TD*%
D66*
%TO.C,R2*%
X146100000Y-49400000D03*
X135940000Y-49400000D03*
%TD*%
D69*
%TO.C,TP3*%
X123800000Y-67200000D03*
%TD*%
D66*
%TO.C,R6*%
X118500000Y-63600000D03*
X133740000Y-63600000D03*
%TD*%
D64*
%TO.C,R5*%
X118100000Y-59200000D03*
X138420000Y-59200000D03*
%TD*%
D70*
%TO.C,BT1*%
X150100000Y-45700000D03*
D71*
X158610000Y-29700000D03*
X213850000Y-45700000D03*
%TD*%
D66*
%TO.C,C1*%
X135600000Y-30200000D03*
X145600000Y-30200000D03*
%TD*%
D64*
%TO.C,R1*%
X113800000Y-38440000D03*
X113800000Y-58760000D03*
%TD*%
D69*
%TO.C,TP2*%
X112900000Y-21800000D03*
%TD*%
D68*
%TO.C,C2*%
X143800000Y-52500000D03*
X143800000Y-67500000D03*
%TD*%
D14*
%TO.C,Q2*%
X137800000Y-62720000D03*
D65*
X137800000Y-65260000D03*
X137800000Y-67800000D03*
%TD*%
D72*
%TO.C,F1*%
X228650000Y-21825000D03*
X221030000Y-21825000D03*
X208620000Y-21825000D03*
X201000000Y-21825000D03*
D73*
X124950000Y-21825000D03*
X117150000Y-21825000D03*
%TD*%
M02*
