%TF.GenerationSoftware,KiCad,Pcbnew,10.0.5*%
%TF.CreationDate,2026-08-02T12:15:25+02:00*%
%TF.ProjectId,Geiger_counter_LoRaWAN,47656967-6572-45f6-936f-756e7465725f,rev?*%
%TF.SameCoordinates,Original*%
%TF.FileFunction,Legend,Top*%
%TF.FilePolarity,Positive*%
%FSLAX46Y46*%
G04 Gerber Fmt 4.6, Leading zero omitted, Abs format (unit mm)*
G04 Created by KiCad (PCBNEW 10.0.5) date 2026-08-02 12:15:25*
%MOMM*%
%LPD*%
G01*
G04 APERTURE LIST*
%ADD10C,0.300000*%
%ADD11C,0.150000*%
%ADD12C,0.125000*%
%ADD13C,0.254000*%
%ADD14C,0.120000*%
%ADD15C,0.152400*%
%ADD16C,0.100000*%
%ADD17C,0.200000*%
G04 APERTURE END LIST*
D10*
X157042425Y-50259774D02*
X156970996Y-50402632D01*
X156970996Y-50402632D02*
X156970996Y-50616917D01*
X156970996Y-50616917D02*
X157042425Y-50831203D01*
X157042425Y-50831203D02*
X157185282Y-50974060D01*
X157185282Y-50974060D02*
X157328139Y-51045489D01*
X157328139Y-51045489D02*
X157613853Y-51116917D01*
X157613853Y-51116917D02*
X157828139Y-51116917D01*
X157828139Y-51116917D02*
X158113853Y-51045489D01*
X158113853Y-51045489D02*
X158256710Y-50974060D01*
X158256710Y-50974060D02*
X158399568Y-50831203D01*
X158399568Y-50831203D02*
X158470996Y-50616917D01*
X158470996Y-50616917D02*
X158470996Y-50474060D01*
X158470996Y-50474060D02*
X158399568Y-50259774D01*
X158399568Y-50259774D02*
X158328139Y-50188346D01*
X158328139Y-50188346D02*
X157828139Y-50188346D01*
X157828139Y-50188346D02*
X157828139Y-50474060D01*
X158399568Y-48974060D02*
X158470996Y-49116917D01*
X158470996Y-49116917D02*
X158470996Y-49402632D01*
X158470996Y-49402632D02*
X158399568Y-49545489D01*
X158399568Y-49545489D02*
X158256710Y-49616917D01*
X158256710Y-49616917D02*
X157685282Y-49616917D01*
X157685282Y-49616917D02*
X157542425Y-49545489D01*
X157542425Y-49545489D02*
X157470996Y-49402632D01*
X157470996Y-49402632D02*
X157470996Y-49116917D01*
X157470996Y-49116917D02*
X157542425Y-48974060D01*
X157542425Y-48974060D02*
X157685282Y-48902632D01*
X157685282Y-48902632D02*
X157828139Y-48902632D01*
X157828139Y-48902632D02*
X157970996Y-49616917D01*
X158470996Y-48259775D02*
X157470996Y-48259775D01*
X156970996Y-48259775D02*
X157042425Y-48331203D01*
X157042425Y-48331203D02*
X157113853Y-48259775D01*
X157113853Y-48259775D02*
X157042425Y-48188346D01*
X157042425Y-48188346D02*
X156970996Y-48259775D01*
X156970996Y-48259775D02*
X157113853Y-48259775D01*
X157470996Y-46902632D02*
X158685282Y-46902632D01*
X158685282Y-46902632D02*
X158828139Y-46974060D01*
X158828139Y-46974060D02*
X158899568Y-47045489D01*
X158899568Y-47045489D02*
X158970996Y-47188346D01*
X158970996Y-47188346D02*
X158970996Y-47402632D01*
X158970996Y-47402632D02*
X158899568Y-47545489D01*
X158399568Y-46902632D02*
X158470996Y-47045489D01*
X158470996Y-47045489D02*
X158470996Y-47331203D01*
X158470996Y-47331203D02*
X158399568Y-47474060D01*
X158399568Y-47474060D02*
X158328139Y-47545489D01*
X158328139Y-47545489D02*
X158185282Y-47616917D01*
X158185282Y-47616917D02*
X157756710Y-47616917D01*
X157756710Y-47616917D02*
X157613853Y-47545489D01*
X157613853Y-47545489D02*
X157542425Y-47474060D01*
X157542425Y-47474060D02*
X157470996Y-47331203D01*
X157470996Y-47331203D02*
X157470996Y-47045489D01*
X157470996Y-47045489D02*
X157542425Y-46902632D01*
X158399568Y-45616917D02*
X158470996Y-45759774D01*
X158470996Y-45759774D02*
X158470996Y-46045489D01*
X158470996Y-46045489D02*
X158399568Y-46188346D01*
X158399568Y-46188346D02*
X158256710Y-46259774D01*
X158256710Y-46259774D02*
X157685282Y-46259774D01*
X157685282Y-46259774D02*
X157542425Y-46188346D01*
X157542425Y-46188346D02*
X157470996Y-46045489D01*
X157470996Y-46045489D02*
X157470996Y-45759774D01*
X157470996Y-45759774D02*
X157542425Y-45616917D01*
X157542425Y-45616917D02*
X157685282Y-45545489D01*
X157685282Y-45545489D02*
X157828139Y-45545489D01*
X157828139Y-45545489D02*
X157970996Y-46259774D01*
X158470996Y-44902632D02*
X157470996Y-44902632D01*
X157756710Y-44902632D02*
X157613853Y-44831203D01*
X157613853Y-44831203D02*
X157542425Y-44759775D01*
X157542425Y-44759775D02*
X157470996Y-44616917D01*
X157470996Y-44616917D02*
X157470996Y-44474060D01*
X158328139Y-41974061D02*
X158399568Y-42045489D01*
X158399568Y-42045489D02*
X158470996Y-42259775D01*
X158470996Y-42259775D02*
X158470996Y-42402632D01*
X158470996Y-42402632D02*
X158399568Y-42616918D01*
X158399568Y-42616918D02*
X158256710Y-42759775D01*
X158256710Y-42759775D02*
X158113853Y-42831204D01*
X158113853Y-42831204D02*
X157828139Y-42902632D01*
X157828139Y-42902632D02*
X157613853Y-42902632D01*
X157613853Y-42902632D02*
X157328139Y-42831204D01*
X157328139Y-42831204D02*
X157185282Y-42759775D01*
X157185282Y-42759775D02*
X157042425Y-42616918D01*
X157042425Y-42616918D02*
X156970996Y-42402632D01*
X156970996Y-42402632D02*
X156970996Y-42259775D01*
X156970996Y-42259775D02*
X157042425Y-42045489D01*
X157042425Y-42045489D02*
X157113853Y-41974061D01*
X158470996Y-41116918D02*
X158399568Y-41259775D01*
X158399568Y-41259775D02*
X158328139Y-41331204D01*
X158328139Y-41331204D02*
X158185282Y-41402632D01*
X158185282Y-41402632D02*
X157756710Y-41402632D01*
X157756710Y-41402632D02*
X157613853Y-41331204D01*
X157613853Y-41331204D02*
X157542425Y-41259775D01*
X157542425Y-41259775D02*
X157470996Y-41116918D01*
X157470996Y-41116918D02*
X157470996Y-40902632D01*
X157470996Y-40902632D02*
X157542425Y-40759775D01*
X157542425Y-40759775D02*
X157613853Y-40688347D01*
X157613853Y-40688347D02*
X157756710Y-40616918D01*
X157756710Y-40616918D02*
X158185282Y-40616918D01*
X158185282Y-40616918D02*
X158328139Y-40688347D01*
X158328139Y-40688347D02*
X158399568Y-40759775D01*
X158399568Y-40759775D02*
X158470996Y-40902632D01*
X158470996Y-40902632D02*
X158470996Y-41116918D01*
X157470996Y-39331204D02*
X158470996Y-39331204D01*
X157470996Y-39974061D02*
X158256710Y-39974061D01*
X158256710Y-39974061D02*
X158399568Y-39902632D01*
X158399568Y-39902632D02*
X158470996Y-39759775D01*
X158470996Y-39759775D02*
X158470996Y-39545489D01*
X158470996Y-39545489D02*
X158399568Y-39402632D01*
X158399568Y-39402632D02*
X158328139Y-39331204D01*
X157470996Y-38616918D02*
X158470996Y-38616918D01*
X157613853Y-38616918D02*
X157542425Y-38545489D01*
X157542425Y-38545489D02*
X157470996Y-38402632D01*
X157470996Y-38402632D02*
X157470996Y-38188346D01*
X157470996Y-38188346D02*
X157542425Y-38045489D01*
X157542425Y-38045489D02*
X157685282Y-37974061D01*
X157685282Y-37974061D02*
X158470996Y-37974061D01*
X157470996Y-37474060D02*
X157470996Y-36902632D01*
X156970996Y-37259775D02*
X158256710Y-37259775D01*
X158256710Y-37259775D02*
X158399568Y-37188346D01*
X158399568Y-37188346D02*
X158470996Y-37045489D01*
X158470996Y-37045489D02*
X158470996Y-36902632D01*
X158399568Y-35831203D02*
X158470996Y-35974060D01*
X158470996Y-35974060D02*
X158470996Y-36259775D01*
X158470996Y-36259775D02*
X158399568Y-36402632D01*
X158399568Y-36402632D02*
X158256710Y-36474060D01*
X158256710Y-36474060D02*
X157685282Y-36474060D01*
X157685282Y-36474060D02*
X157542425Y-36402632D01*
X157542425Y-36402632D02*
X157470996Y-36259775D01*
X157470996Y-36259775D02*
X157470996Y-35974060D01*
X157470996Y-35974060D02*
X157542425Y-35831203D01*
X157542425Y-35831203D02*
X157685282Y-35759775D01*
X157685282Y-35759775D02*
X157828139Y-35759775D01*
X157828139Y-35759775D02*
X157970996Y-36474060D01*
X158470996Y-35116918D02*
X157470996Y-35116918D01*
X157756710Y-35116918D02*
X157613853Y-35045489D01*
X157613853Y-35045489D02*
X157542425Y-34974061D01*
X157542425Y-34974061D02*
X157470996Y-34831203D01*
X157470996Y-34831203D02*
X157470996Y-34688346D01*
X162872257Y-51116917D02*
X162872257Y-50402632D01*
X163300828Y-51259774D02*
X161800828Y-50759774D01*
X161800828Y-50759774D02*
X163300828Y-50259774D01*
X163300828Y-49759775D02*
X161800828Y-49759775D01*
X161800828Y-49759775D02*
X162872257Y-49259775D01*
X162872257Y-49259775D02*
X161800828Y-48759775D01*
X161800828Y-48759775D02*
X163300828Y-48759775D01*
X161800828Y-47759774D02*
X161800828Y-47474060D01*
X161800828Y-47474060D02*
X161872257Y-47331203D01*
X161872257Y-47331203D02*
X162015114Y-47188346D01*
X162015114Y-47188346D02*
X162300828Y-47116917D01*
X162300828Y-47116917D02*
X162800828Y-47116917D01*
X162800828Y-47116917D02*
X163086542Y-47188346D01*
X163086542Y-47188346D02*
X163229400Y-47331203D01*
X163229400Y-47331203D02*
X163300828Y-47474060D01*
X163300828Y-47474060D02*
X163300828Y-47759774D01*
X163300828Y-47759774D02*
X163229400Y-47902632D01*
X163229400Y-47902632D02*
X163086542Y-48045489D01*
X163086542Y-48045489D02*
X162800828Y-48116917D01*
X162800828Y-48116917D02*
X162300828Y-48116917D01*
X162300828Y-48116917D02*
X162015114Y-48045489D01*
X162015114Y-48045489D02*
X161872257Y-47902632D01*
X161872257Y-47902632D02*
X161800828Y-47759774D01*
X163300828Y-46474060D02*
X161800828Y-46474060D01*
X161800828Y-46474060D02*
X163300828Y-45616917D01*
X163300828Y-45616917D02*
X161800828Y-45616917D01*
X162515114Y-43259774D02*
X162515114Y-43759774D01*
X163300828Y-43759774D02*
X161800828Y-43759774D01*
X161800828Y-43759774D02*
X161800828Y-43045488D01*
X163229400Y-42545488D02*
X163300828Y-42331203D01*
X163300828Y-42331203D02*
X163300828Y-41974060D01*
X163300828Y-41974060D02*
X163229400Y-41831203D01*
X163229400Y-41831203D02*
X163157971Y-41759774D01*
X163157971Y-41759774D02*
X163015114Y-41688345D01*
X163015114Y-41688345D02*
X162872257Y-41688345D01*
X162872257Y-41688345D02*
X162729400Y-41759774D01*
X162729400Y-41759774D02*
X162657971Y-41831203D01*
X162657971Y-41831203D02*
X162586542Y-41974060D01*
X162586542Y-41974060D02*
X162515114Y-42259774D01*
X162515114Y-42259774D02*
X162443685Y-42402631D01*
X162443685Y-42402631D02*
X162372257Y-42474060D01*
X162372257Y-42474060D02*
X162229400Y-42545488D01*
X162229400Y-42545488D02*
X162086542Y-42545488D01*
X162086542Y-42545488D02*
X161943685Y-42474060D01*
X161943685Y-42474060D02*
X161872257Y-42402631D01*
X161872257Y-42402631D02*
X161800828Y-42259774D01*
X161800828Y-42259774D02*
X161800828Y-41902631D01*
X161800828Y-41902631D02*
X161872257Y-41688345D01*
X161943685Y-41116917D02*
X161872257Y-41045489D01*
X161872257Y-41045489D02*
X161800828Y-40902632D01*
X161800828Y-40902632D02*
X161800828Y-40545489D01*
X161800828Y-40545489D02*
X161872257Y-40402632D01*
X161872257Y-40402632D02*
X161943685Y-40331203D01*
X161943685Y-40331203D02*
X162086542Y-40259774D01*
X162086542Y-40259774D02*
X162229400Y-40259774D01*
X162229400Y-40259774D02*
X162443685Y-40331203D01*
X162443685Y-40331203D02*
X163300828Y-41188346D01*
X163300828Y-41188346D02*
X163300828Y-40259774D01*
X161800828Y-39331203D02*
X161800828Y-39188346D01*
X161800828Y-39188346D02*
X161872257Y-39045489D01*
X161872257Y-39045489D02*
X161943685Y-38974061D01*
X161943685Y-38974061D02*
X162086542Y-38902632D01*
X162086542Y-38902632D02*
X162372257Y-38831203D01*
X162372257Y-38831203D02*
X162729400Y-38831203D01*
X162729400Y-38831203D02*
X163015114Y-38902632D01*
X163015114Y-38902632D02*
X163157971Y-38974061D01*
X163157971Y-38974061D02*
X163229400Y-39045489D01*
X163229400Y-39045489D02*
X163300828Y-39188346D01*
X163300828Y-39188346D02*
X163300828Y-39331203D01*
X163300828Y-39331203D02*
X163229400Y-39474061D01*
X163229400Y-39474061D02*
X163157971Y-39545489D01*
X163157971Y-39545489D02*
X163015114Y-39616918D01*
X163015114Y-39616918D02*
X162729400Y-39688346D01*
X162729400Y-39688346D02*
X162372257Y-39688346D01*
X162372257Y-39688346D02*
X162086542Y-39616918D01*
X162086542Y-39616918D02*
X161943685Y-39545489D01*
X161943685Y-39545489D02*
X161872257Y-39474061D01*
X161872257Y-39474061D02*
X161800828Y-39331203D01*
X161943685Y-38259775D02*
X161872257Y-38188347D01*
X161872257Y-38188347D02*
X161800828Y-38045490D01*
X161800828Y-38045490D02*
X161800828Y-37688347D01*
X161800828Y-37688347D02*
X161872257Y-37545490D01*
X161872257Y-37545490D02*
X161943685Y-37474061D01*
X161943685Y-37474061D02*
X162086542Y-37402632D01*
X162086542Y-37402632D02*
X162229400Y-37402632D01*
X162229400Y-37402632D02*
X162443685Y-37474061D01*
X162443685Y-37474061D02*
X163300828Y-38331204D01*
X163300828Y-38331204D02*
X163300828Y-37402632D01*
X161800828Y-36116919D02*
X161800828Y-36402633D01*
X161800828Y-36402633D02*
X161872257Y-36545490D01*
X161872257Y-36545490D02*
X161943685Y-36616919D01*
X161943685Y-36616919D02*
X162157971Y-36759776D01*
X162157971Y-36759776D02*
X162443685Y-36831204D01*
X162443685Y-36831204D02*
X163015114Y-36831204D01*
X163015114Y-36831204D02*
X163157971Y-36759776D01*
X163157971Y-36759776D02*
X163229400Y-36688347D01*
X163229400Y-36688347D02*
X163300828Y-36545490D01*
X163300828Y-36545490D02*
X163300828Y-36259776D01*
X163300828Y-36259776D02*
X163229400Y-36116919D01*
X163229400Y-36116919D02*
X163157971Y-36045490D01*
X163157971Y-36045490D02*
X163015114Y-35974061D01*
X163015114Y-35974061D02*
X162657971Y-35974061D01*
X162657971Y-35974061D02*
X162515114Y-36045490D01*
X162515114Y-36045490D02*
X162443685Y-36116919D01*
X162443685Y-36116919D02*
X162372257Y-36259776D01*
X162372257Y-36259776D02*
X162372257Y-36545490D01*
X162372257Y-36545490D02*
X162443685Y-36688347D01*
X162443685Y-36688347D02*
X162515114Y-36759776D01*
X162515114Y-36759776D02*
X162657971Y-36831204D01*
D11*
X226557142Y-45259580D02*
X226509523Y-45307200D01*
X226509523Y-45307200D02*
X226366666Y-45354819D01*
X226366666Y-45354819D02*
X226271428Y-45354819D01*
X226271428Y-45354819D02*
X226128571Y-45307200D01*
X226128571Y-45307200D02*
X226033333Y-45211961D01*
X226033333Y-45211961D02*
X225985714Y-45116723D01*
X225985714Y-45116723D02*
X225938095Y-44926247D01*
X225938095Y-44926247D02*
X225938095Y-44783390D01*
X225938095Y-44783390D02*
X225985714Y-44592914D01*
X225985714Y-44592914D02*
X226033333Y-44497676D01*
X226033333Y-44497676D02*
X226128571Y-44402438D01*
X226128571Y-44402438D02*
X226271428Y-44354819D01*
X226271428Y-44354819D02*
X226366666Y-44354819D01*
X226366666Y-44354819D02*
X226509523Y-44402438D01*
X226509523Y-44402438D02*
X226557142Y-44450057D01*
X226938095Y-44450057D02*
X226985714Y-44402438D01*
X226985714Y-44402438D02*
X227080952Y-44354819D01*
X227080952Y-44354819D02*
X227319047Y-44354819D01*
X227319047Y-44354819D02*
X227414285Y-44402438D01*
X227414285Y-44402438D02*
X227461904Y-44450057D01*
X227461904Y-44450057D02*
X227509523Y-44545295D01*
X227509523Y-44545295D02*
X227509523Y-44640533D01*
X227509523Y-44640533D02*
X227461904Y-44783390D01*
X227461904Y-44783390D02*
X226890476Y-45354819D01*
X226890476Y-45354819D02*
X227509523Y-45354819D01*
X228461904Y-45354819D02*
X227890476Y-45354819D01*
X228176190Y-45354819D02*
X228176190Y-44354819D01*
X228176190Y-44354819D02*
X228080952Y-44497676D01*
X228080952Y-44497676D02*
X227985714Y-44592914D01*
X227985714Y-44592914D02*
X227890476Y-44640533D01*
X216299580Y-36666666D02*
X216347200Y-36714285D01*
X216347200Y-36714285D02*
X216394819Y-36857142D01*
X216394819Y-36857142D02*
X216394819Y-36952380D01*
X216394819Y-36952380D02*
X216347200Y-37095237D01*
X216347200Y-37095237D02*
X216251961Y-37190475D01*
X216251961Y-37190475D02*
X216156723Y-37238094D01*
X216156723Y-37238094D02*
X215966247Y-37285713D01*
X215966247Y-37285713D02*
X215823390Y-37285713D01*
X215823390Y-37285713D02*
X215632914Y-37238094D01*
X215632914Y-37238094D02*
X215537676Y-37190475D01*
X215537676Y-37190475D02*
X215442438Y-37095237D01*
X215442438Y-37095237D02*
X215394819Y-36952380D01*
X215394819Y-36952380D02*
X215394819Y-36857142D01*
X215394819Y-36857142D02*
X215442438Y-36714285D01*
X215442438Y-36714285D02*
X215490057Y-36666666D01*
X215394819Y-35761904D02*
X215394819Y-36238094D01*
X215394819Y-36238094D02*
X215871009Y-36285713D01*
X215871009Y-36285713D02*
X215823390Y-36238094D01*
X215823390Y-36238094D02*
X215775771Y-36142856D01*
X215775771Y-36142856D02*
X215775771Y-35904761D01*
X215775771Y-35904761D02*
X215823390Y-35809523D01*
X215823390Y-35809523D02*
X215871009Y-35761904D01*
X215871009Y-35761904D02*
X215966247Y-35714285D01*
X215966247Y-35714285D02*
X216204342Y-35714285D01*
X216204342Y-35714285D02*
X216299580Y-35761904D01*
X216299580Y-35761904D02*
X216347200Y-35809523D01*
X216347200Y-35809523D02*
X216394819Y-35904761D01*
X216394819Y-35904761D02*
X216394819Y-36142856D01*
X216394819Y-36142856D02*
X216347200Y-36238094D01*
X216347200Y-36238094D02*
X216299580Y-36285713D01*
X216654819Y-50142857D02*
X216178628Y-50476190D01*
X216654819Y-50714285D02*
X215654819Y-50714285D01*
X215654819Y-50714285D02*
X215654819Y-50333333D01*
X215654819Y-50333333D02*
X215702438Y-50238095D01*
X215702438Y-50238095D02*
X215750057Y-50190476D01*
X215750057Y-50190476D02*
X215845295Y-50142857D01*
X215845295Y-50142857D02*
X215988152Y-50142857D01*
X215988152Y-50142857D02*
X216083390Y-50190476D01*
X216083390Y-50190476D02*
X216131009Y-50238095D01*
X216131009Y-50238095D02*
X216178628Y-50333333D01*
X216178628Y-50333333D02*
X216178628Y-50714285D01*
X215750057Y-49761904D02*
X215702438Y-49714285D01*
X215702438Y-49714285D02*
X215654819Y-49619047D01*
X215654819Y-49619047D02*
X215654819Y-49380952D01*
X215654819Y-49380952D02*
X215702438Y-49285714D01*
X215702438Y-49285714D02*
X215750057Y-49238095D01*
X215750057Y-49238095D02*
X215845295Y-49190476D01*
X215845295Y-49190476D02*
X215940533Y-49190476D01*
X215940533Y-49190476D02*
X216083390Y-49238095D01*
X216083390Y-49238095D02*
X216654819Y-49809523D01*
X216654819Y-49809523D02*
X216654819Y-49190476D01*
X215654819Y-48285714D02*
X215654819Y-48761904D01*
X215654819Y-48761904D02*
X216131009Y-48809523D01*
X216131009Y-48809523D02*
X216083390Y-48761904D01*
X216083390Y-48761904D02*
X216035771Y-48666666D01*
X216035771Y-48666666D02*
X216035771Y-48428571D01*
X216035771Y-48428571D02*
X216083390Y-48333333D01*
X216083390Y-48333333D02*
X216131009Y-48285714D01*
X216131009Y-48285714D02*
X216226247Y-48238095D01*
X216226247Y-48238095D02*
X216464342Y-48238095D01*
X216464342Y-48238095D02*
X216559580Y-48285714D01*
X216559580Y-48285714D02*
X216607200Y-48333333D01*
X216607200Y-48333333D02*
X216654819Y-48428571D01*
X216654819Y-48428571D02*
X216654819Y-48666666D01*
X216654819Y-48666666D02*
X216607200Y-48761904D01*
X216607200Y-48761904D02*
X216559580Y-48809523D01*
X192957142Y-65454819D02*
X192623809Y-64978628D01*
X192385714Y-65454819D02*
X192385714Y-64454819D01*
X192385714Y-64454819D02*
X192766666Y-64454819D01*
X192766666Y-64454819D02*
X192861904Y-64502438D01*
X192861904Y-64502438D02*
X192909523Y-64550057D01*
X192909523Y-64550057D02*
X192957142Y-64645295D01*
X192957142Y-64645295D02*
X192957142Y-64788152D01*
X192957142Y-64788152D02*
X192909523Y-64883390D01*
X192909523Y-64883390D02*
X192861904Y-64931009D01*
X192861904Y-64931009D02*
X192766666Y-64978628D01*
X192766666Y-64978628D02*
X192385714Y-64978628D01*
X193338095Y-64550057D02*
X193385714Y-64502438D01*
X193385714Y-64502438D02*
X193480952Y-64454819D01*
X193480952Y-64454819D02*
X193719047Y-64454819D01*
X193719047Y-64454819D02*
X193814285Y-64502438D01*
X193814285Y-64502438D02*
X193861904Y-64550057D01*
X193861904Y-64550057D02*
X193909523Y-64645295D01*
X193909523Y-64645295D02*
X193909523Y-64740533D01*
X193909523Y-64740533D02*
X193861904Y-64883390D01*
X193861904Y-64883390D02*
X193290476Y-65454819D01*
X193290476Y-65454819D02*
X193909523Y-65454819D01*
X194242857Y-64454819D02*
X194861904Y-64454819D01*
X194861904Y-64454819D02*
X194528571Y-64835771D01*
X194528571Y-64835771D02*
X194671428Y-64835771D01*
X194671428Y-64835771D02*
X194766666Y-64883390D01*
X194766666Y-64883390D02*
X194814285Y-64931009D01*
X194814285Y-64931009D02*
X194861904Y-65026247D01*
X194861904Y-65026247D02*
X194861904Y-65264342D01*
X194861904Y-65264342D02*
X194814285Y-65359580D01*
X194814285Y-65359580D02*
X194766666Y-65407200D01*
X194766666Y-65407200D02*
X194671428Y-65454819D01*
X194671428Y-65454819D02*
X194385714Y-65454819D01*
X194385714Y-65454819D02*
X194290476Y-65407200D01*
X194290476Y-65407200D02*
X194242857Y-65359580D01*
X205466667Y-42907200D02*
X205609524Y-42954819D01*
X205609524Y-42954819D02*
X205847619Y-42954819D01*
X205847619Y-42954819D02*
X205942857Y-42907200D01*
X205942857Y-42907200D02*
X205990476Y-42859580D01*
X205990476Y-42859580D02*
X206038095Y-42764342D01*
X206038095Y-42764342D02*
X206038095Y-42669104D01*
X206038095Y-42669104D02*
X205990476Y-42573866D01*
X205990476Y-42573866D02*
X205942857Y-42526247D01*
X205942857Y-42526247D02*
X205847619Y-42478628D01*
X205847619Y-42478628D02*
X205657143Y-42431009D01*
X205657143Y-42431009D02*
X205561905Y-42383390D01*
X205561905Y-42383390D02*
X205514286Y-42335771D01*
X205514286Y-42335771D02*
X205466667Y-42240533D01*
X205466667Y-42240533D02*
X205466667Y-42145295D01*
X205466667Y-42145295D02*
X205514286Y-42050057D01*
X205514286Y-42050057D02*
X205561905Y-42002438D01*
X205561905Y-42002438D02*
X205657143Y-41954819D01*
X205657143Y-41954819D02*
X205895238Y-41954819D01*
X205895238Y-41954819D02*
X206038095Y-42002438D01*
X206371429Y-41954819D02*
X206609524Y-42954819D01*
X206609524Y-42954819D02*
X206800000Y-42240533D01*
X206800000Y-42240533D02*
X206990476Y-42954819D01*
X206990476Y-42954819D02*
X207228572Y-41954819D01*
X208085714Y-41954819D02*
X207609524Y-41954819D01*
X207609524Y-41954819D02*
X207561905Y-42431009D01*
X207561905Y-42431009D02*
X207609524Y-42383390D01*
X207609524Y-42383390D02*
X207704762Y-42335771D01*
X207704762Y-42335771D02*
X207942857Y-42335771D01*
X207942857Y-42335771D02*
X208038095Y-42383390D01*
X208038095Y-42383390D02*
X208085714Y-42431009D01*
X208085714Y-42431009D02*
X208133333Y-42526247D01*
X208133333Y-42526247D02*
X208133333Y-42764342D01*
X208133333Y-42764342D02*
X208085714Y-42859580D01*
X208085714Y-42859580D02*
X208038095Y-42907200D01*
X208038095Y-42907200D02*
X207942857Y-42954819D01*
X207942857Y-42954819D02*
X207704762Y-42954819D01*
X207704762Y-42954819D02*
X207609524Y-42907200D01*
X207609524Y-42907200D02*
X207561905Y-42859580D01*
D12*
X205281071Y-55724809D02*
X205114405Y-55486714D01*
X204995357Y-55724809D02*
X204995357Y-55224809D01*
X204995357Y-55224809D02*
X205185833Y-55224809D01*
X205185833Y-55224809D02*
X205233452Y-55248619D01*
X205233452Y-55248619D02*
X205257262Y-55272428D01*
X205257262Y-55272428D02*
X205281071Y-55320047D01*
X205281071Y-55320047D02*
X205281071Y-55391476D01*
X205281071Y-55391476D02*
X205257262Y-55439095D01*
X205257262Y-55439095D02*
X205233452Y-55462904D01*
X205233452Y-55462904D02*
X205185833Y-55486714D01*
X205185833Y-55486714D02*
X204995357Y-55486714D01*
X205757262Y-55724809D02*
X205471548Y-55724809D01*
X205614405Y-55724809D02*
X205614405Y-55224809D01*
X205614405Y-55224809D02*
X205566786Y-55296238D01*
X205566786Y-55296238D02*
X205519167Y-55343857D01*
X205519167Y-55343857D02*
X205471548Y-55367666D01*
X205995357Y-55724809D02*
X206090595Y-55724809D01*
X206090595Y-55724809D02*
X206138214Y-55701000D01*
X206138214Y-55701000D02*
X206162023Y-55677190D01*
X206162023Y-55677190D02*
X206209642Y-55605761D01*
X206209642Y-55605761D02*
X206233452Y-55510523D01*
X206233452Y-55510523D02*
X206233452Y-55320047D01*
X206233452Y-55320047D02*
X206209642Y-55272428D01*
X206209642Y-55272428D02*
X206185833Y-55248619D01*
X206185833Y-55248619D02*
X206138214Y-55224809D01*
X206138214Y-55224809D02*
X206042976Y-55224809D01*
X206042976Y-55224809D02*
X205995357Y-55248619D01*
X205995357Y-55248619D02*
X205971547Y-55272428D01*
X205971547Y-55272428D02*
X205947738Y-55320047D01*
X205947738Y-55320047D02*
X205947738Y-55439095D01*
X205947738Y-55439095D02*
X205971547Y-55486714D01*
X205971547Y-55486714D02*
X205995357Y-55510523D01*
X205995357Y-55510523D02*
X206042976Y-55534333D01*
X206042976Y-55534333D02*
X206138214Y-55534333D01*
X206138214Y-55534333D02*
X206185833Y-55510523D01*
X206185833Y-55510523D02*
X206209642Y-55486714D01*
X206209642Y-55486714D02*
X206233452Y-55439095D01*
D11*
X191554819Y-46242857D02*
X191078628Y-46576190D01*
X191554819Y-46814285D02*
X190554819Y-46814285D01*
X190554819Y-46814285D02*
X190554819Y-46433333D01*
X190554819Y-46433333D02*
X190602438Y-46338095D01*
X190602438Y-46338095D02*
X190650057Y-46290476D01*
X190650057Y-46290476D02*
X190745295Y-46242857D01*
X190745295Y-46242857D02*
X190888152Y-46242857D01*
X190888152Y-46242857D02*
X190983390Y-46290476D01*
X190983390Y-46290476D02*
X191031009Y-46338095D01*
X191031009Y-46338095D02*
X191078628Y-46433333D01*
X191078628Y-46433333D02*
X191078628Y-46814285D01*
X191554819Y-45290476D02*
X191554819Y-45861904D01*
X191554819Y-45576190D02*
X190554819Y-45576190D01*
X190554819Y-45576190D02*
X190697676Y-45671428D01*
X190697676Y-45671428D02*
X190792914Y-45766666D01*
X190792914Y-45766666D02*
X190840533Y-45861904D01*
X191554819Y-44338095D02*
X191554819Y-44909523D01*
X191554819Y-44623809D02*
X190554819Y-44623809D01*
X190554819Y-44623809D02*
X190697676Y-44719047D01*
X190697676Y-44719047D02*
X190792914Y-44814285D01*
X190792914Y-44814285D02*
X190840533Y-44909523D01*
X193057142Y-64154819D02*
X192723809Y-63678628D01*
X192485714Y-64154819D02*
X192485714Y-63154819D01*
X192485714Y-63154819D02*
X192866666Y-63154819D01*
X192866666Y-63154819D02*
X192961904Y-63202438D01*
X192961904Y-63202438D02*
X193009523Y-63250057D01*
X193009523Y-63250057D02*
X193057142Y-63345295D01*
X193057142Y-63345295D02*
X193057142Y-63488152D01*
X193057142Y-63488152D02*
X193009523Y-63583390D01*
X193009523Y-63583390D02*
X192961904Y-63631009D01*
X192961904Y-63631009D02*
X192866666Y-63678628D01*
X192866666Y-63678628D02*
X192485714Y-63678628D01*
X193438095Y-63250057D02*
X193485714Y-63202438D01*
X193485714Y-63202438D02*
X193580952Y-63154819D01*
X193580952Y-63154819D02*
X193819047Y-63154819D01*
X193819047Y-63154819D02*
X193914285Y-63202438D01*
X193914285Y-63202438D02*
X193961904Y-63250057D01*
X193961904Y-63250057D02*
X194009523Y-63345295D01*
X194009523Y-63345295D02*
X194009523Y-63440533D01*
X194009523Y-63440533D02*
X193961904Y-63583390D01*
X193961904Y-63583390D02*
X193390476Y-64154819D01*
X193390476Y-64154819D02*
X194009523Y-64154819D01*
X194342857Y-63154819D02*
X195009523Y-63154819D01*
X195009523Y-63154819D02*
X194580952Y-64154819D01*
X219608333Y-36829580D02*
X219560714Y-36877200D01*
X219560714Y-36877200D02*
X219417857Y-36924819D01*
X219417857Y-36924819D02*
X219322619Y-36924819D01*
X219322619Y-36924819D02*
X219179762Y-36877200D01*
X219179762Y-36877200D02*
X219084524Y-36781961D01*
X219084524Y-36781961D02*
X219036905Y-36686723D01*
X219036905Y-36686723D02*
X218989286Y-36496247D01*
X218989286Y-36496247D02*
X218989286Y-36353390D01*
X218989286Y-36353390D02*
X219036905Y-36162914D01*
X219036905Y-36162914D02*
X219084524Y-36067676D01*
X219084524Y-36067676D02*
X219179762Y-35972438D01*
X219179762Y-35972438D02*
X219322619Y-35924819D01*
X219322619Y-35924819D02*
X219417857Y-35924819D01*
X219417857Y-35924819D02*
X219560714Y-35972438D01*
X219560714Y-35972438D02*
X219608333Y-36020057D01*
X220465476Y-36258152D02*
X220465476Y-36924819D01*
X220227381Y-35877200D02*
X219989286Y-36591485D01*
X219989286Y-36591485D02*
X220608333Y-36591485D01*
X199878628Y-55876190D02*
X200354819Y-55876190D01*
X199354819Y-56209523D02*
X199878628Y-55876190D01*
X199878628Y-55876190D02*
X199354819Y-55542857D01*
X200354819Y-54685714D02*
X200354819Y-55257142D01*
X200354819Y-54971428D02*
X199354819Y-54971428D01*
X199354819Y-54971428D02*
X199497676Y-55066666D01*
X199497676Y-55066666D02*
X199592914Y-55161904D01*
X199592914Y-55161904D02*
X199640533Y-55257142D01*
X215954819Y-46633333D02*
X216669104Y-46633333D01*
X216669104Y-46633333D02*
X216811961Y-46680952D01*
X216811961Y-46680952D02*
X216907200Y-46776190D01*
X216907200Y-46776190D02*
X216954819Y-46919047D01*
X216954819Y-46919047D02*
X216954819Y-47014285D01*
X216954819Y-46157142D02*
X215954819Y-46157142D01*
X215954819Y-46157142D02*
X215954819Y-45776190D01*
X215954819Y-45776190D02*
X216002438Y-45680952D01*
X216002438Y-45680952D02*
X216050057Y-45633333D01*
X216050057Y-45633333D02*
X216145295Y-45585714D01*
X216145295Y-45585714D02*
X216288152Y-45585714D01*
X216288152Y-45585714D02*
X216383390Y-45633333D01*
X216383390Y-45633333D02*
X216431009Y-45680952D01*
X216431009Y-45680952D02*
X216478628Y-45776190D01*
X216478628Y-45776190D02*
X216478628Y-46157142D01*
X216954819Y-44633333D02*
X216954819Y-45204761D01*
X216954819Y-44919047D02*
X215954819Y-44919047D01*
X215954819Y-44919047D02*
X216097676Y-45014285D01*
X216097676Y-45014285D02*
X216192914Y-45109523D01*
X216192914Y-45109523D02*
X216240533Y-45204761D01*
X210859580Y-64842857D02*
X210907200Y-64890476D01*
X210907200Y-64890476D02*
X210954819Y-65033333D01*
X210954819Y-65033333D02*
X210954819Y-65128571D01*
X210954819Y-65128571D02*
X210907200Y-65271428D01*
X210907200Y-65271428D02*
X210811961Y-65366666D01*
X210811961Y-65366666D02*
X210716723Y-65414285D01*
X210716723Y-65414285D02*
X210526247Y-65461904D01*
X210526247Y-65461904D02*
X210383390Y-65461904D01*
X210383390Y-65461904D02*
X210192914Y-65414285D01*
X210192914Y-65414285D02*
X210097676Y-65366666D01*
X210097676Y-65366666D02*
X210002438Y-65271428D01*
X210002438Y-65271428D02*
X209954819Y-65128571D01*
X209954819Y-65128571D02*
X209954819Y-65033333D01*
X209954819Y-65033333D02*
X210002438Y-64890476D01*
X210002438Y-64890476D02*
X210050057Y-64842857D01*
X209954819Y-63938095D02*
X209954819Y-64414285D01*
X209954819Y-64414285D02*
X210431009Y-64461904D01*
X210431009Y-64461904D02*
X210383390Y-64414285D01*
X210383390Y-64414285D02*
X210335771Y-64319047D01*
X210335771Y-64319047D02*
X210335771Y-64080952D01*
X210335771Y-64080952D02*
X210383390Y-63985714D01*
X210383390Y-63985714D02*
X210431009Y-63938095D01*
X210431009Y-63938095D02*
X210526247Y-63890476D01*
X210526247Y-63890476D02*
X210764342Y-63890476D01*
X210764342Y-63890476D02*
X210859580Y-63938095D01*
X210859580Y-63938095D02*
X210907200Y-63985714D01*
X210907200Y-63985714D02*
X210954819Y-64080952D01*
X210954819Y-64080952D02*
X210954819Y-64319047D01*
X210954819Y-64319047D02*
X210907200Y-64414285D01*
X210907200Y-64414285D02*
X210859580Y-64461904D01*
X210954819Y-62938095D02*
X210954819Y-63509523D01*
X210954819Y-63223809D02*
X209954819Y-63223809D01*
X209954819Y-63223809D02*
X210097676Y-63319047D01*
X210097676Y-63319047D02*
X210192914Y-63414285D01*
X210192914Y-63414285D02*
X210240533Y-63509523D01*
X218752319Y-64242857D02*
X218276128Y-64576190D01*
X218752319Y-64814285D02*
X217752319Y-64814285D01*
X217752319Y-64814285D02*
X217752319Y-64433333D01*
X217752319Y-64433333D02*
X217799938Y-64338095D01*
X217799938Y-64338095D02*
X217847557Y-64290476D01*
X217847557Y-64290476D02*
X217942795Y-64242857D01*
X217942795Y-64242857D02*
X218085652Y-64242857D01*
X218085652Y-64242857D02*
X218180890Y-64290476D01*
X218180890Y-64290476D02*
X218228509Y-64338095D01*
X218228509Y-64338095D02*
X218276128Y-64433333D01*
X218276128Y-64433333D02*
X218276128Y-64814285D01*
X217752319Y-63909523D02*
X217752319Y-63290476D01*
X217752319Y-63290476D02*
X218133271Y-63623809D01*
X218133271Y-63623809D02*
X218133271Y-63480952D01*
X218133271Y-63480952D02*
X218180890Y-63385714D01*
X218180890Y-63385714D02*
X218228509Y-63338095D01*
X218228509Y-63338095D02*
X218323747Y-63290476D01*
X218323747Y-63290476D02*
X218561842Y-63290476D01*
X218561842Y-63290476D02*
X218657080Y-63338095D01*
X218657080Y-63338095D02*
X218704700Y-63385714D01*
X218704700Y-63385714D02*
X218752319Y-63480952D01*
X218752319Y-63480952D02*
X218752319Y-63766666D01*
X218752319Y-63766666D02*
X218704700Y-63861904D01*
X218704700Y-63861904D02*
X218657080Y-63909523D01*
X217847557Y-62909523D02*
X217799938Y-62861904D01*
X217799938Y-62861904D02*
X217752319Y-62766666D01*
X217752319Y-62766666D02*
X217752319Y-62528571D01*
X217752319Y-62528571D02*
X217799938Y-62433333D01*
X217799938Y-62433333D02*
X217847557Y-62385714D01*
X217847557Y-62385714D02*
X217942795Y-62338095D01*
X217942795Y-62338095D02*
X218038033Y-62338095D01*
X218038033Y-62338095D02*
X218180890Y-62385714D01*
X218180890Y-62385714D02*
X218752319Y-62957142D01*
X218752319Y-62957142D02*
X218752319Y-62338095D01*
X195154819Y-62142857D02*
X194678628Y-62476190D01*
X195154819Y-62714285D02*
X194154819Y-62714285D01*
X194154819Y-62714285D02*
X194154819Y-62333333D01*
X194154819Y-62333333D02*
X194202438Y-62238095D01*
X194202438Y-62238095D02*
X194250057Y-62190476D01*
X194250057Y-62190476D02*
X194345295Y-62142857D01*
X194345295Y-62142857D02*
X194488152Y-62142857D01*
X194488152Y-62142857D02*
X194583390Y-62190476D01*
X194583390Y-62190476D02*
X194631009Y-62238095D01*
X194631009Y-62238095D02*
X194678628Y-62333333D01*
X194678628Y-62333333D02*
X194678628Y-62714285D01*
X194250057Y-61761904D02*
X194202438Y-61714285D01*
X194202438Y-61714285D02*
X194154819Y-61619047D01*
X194154819Y-61619047D02*
X194154819Y-61380952D01*
X194154819Y-61380952D02*
X194202438Y-61285714D01*
X194202438Y-61285714D02*
X194250057Y-61238095D01*
X194250057Y-61238095D02*
X194345295Y-61190476D01*
X194345295Y-61190476D02*
X194440533Y-61190476D01*
X194440533Y-61190476D02*
X194583390Y-61238095D01*
X194583390Y-61238095D02*
X195154819Y-61809523D01*
X195154819Y-61809523D02*
X195154819Y-61190476D01*
X195154819Y-60238095D02*
X195154819Y-60809523D01*
X195154819Y-60523809D02*
X194154819Y-60523809D01*
X194154819Y-60523809D02*
X194297676Y-60619047D01*
X194297676Y-60619047D02*
X194392914Y-60714285D01*
X194392914Y-60714285D02*
X194440533Y-60809523D01*
D12*
X218578571Y-54477190D02*
X218554762Y-54501000D01*
X218554762Y-54501000D02*
X218483333Y-54524809D01*
X218483333Y-54524809D02*
X218435714Y-54524809D01*
X218435714Y-54524809D02*
X218364286Y-54501000D01*
X218364286Y-54501000D02*
X218316667Y-54453380D01*
X218316667Y-54453380D02*
X218292857Y-54405761D01*
X218292857Y-54405761D02*
X218269048Y-54310523D01*
X218269048Y-54310523D02*
X218269048Y-54239095D01*
X218269048Y-54239095D02*
X218292857Y-54143857D01*
X218292857Y-54143857D02*
X218316667Y-54096238D01*
X218316667Y-54096238D02*
X218364286Y-54048619D01*
X218364286Y-54048619D02*
X218435714Y-54024809D01*
X218435714Y-54024809D02*
X218483333Y-54024809D01*
X218483333Y-54024809D02*
X218554762Y-54048619D01*
X218554762Y-54048619D02*
X218578571Y-54072428D01*
X219030952Y-54024809D02*
X218792857Y-54024809D01*
X218792857Y-54024809D02*
X218769048Y-54262904D01*
X218769048Y-54262904D02*
X218792857Y-54239095D01*
X218792857Y-54239095D02*
X218840476Y-54215285D01*
X218840476Y-54215285D02*
X218959524Y-54215285D01*
X218959524Y-54215285D02*
X219007143Y-54239095D01*
X219007143Y-54239095D02*
X219030952Y-54262904D01*
X219030952Y-54262904D02*
X219054762Y-54310523D01*
X219054762Y-54310523D02*
X219054762Y-54429571D01*
X219054762Y-54429571D02*
X219030952Y-54477190D01*
X219030952Y-54477190D02*
X219007143Y-54501000D01*
X219007143Y-54501000D02*
X218959524Y-54524809D01*
X218959524Y-54524809D02*
X218840476Y-54524809D01*
X218840476Y-54524809D02*
X218792857Y-54501000D01*
X218792857Y-54501000D02*
X218769048Y-54477190D01*
X219483333Y-54191476D02*
X219483333Y-54524809D01*
X219364285Y-54001000D02*
X219245238Y-54358142D01*
X219245238Y-54358142D02*
X219554761Y-54358142D01*
D11*
X225457142Y-44359580D02*
X225409523Y-44407200D01*
X225409523Y-44407200D02*
X225266666Y-44454819D01*
X225266666Y-44454819D02*
X225171428Y-44454819D01*
X225171428Y-44454819D02*
X225028571Y-44407200D01*
X225028571Y-44407200D02*
X224933333Y-44311961D01*
X224933333Y-44311961D02*
X224885714Y-44216723D01*
X224885714Y-44216723D02*
X224838095Y-44026247D01*
X224838095Y-44026247D02*
X224838095Y-43883390D01*
X224838095Y-43883390D02*
X224885714Y-43692914D01*
X224885714Y-43692914D02*
X224933333Y-43597676D01*
X224933333Y-43597676D02*
X225028571Y-43502438D01*
X225028571Y-43502438D02*
X225171428Y-43454819D01*
X225171428Y-43454819D02*
X225266666Y-43454819D01*
X225266666Y-43454819D02*
X225409523Y-43502438D01*
X225409523Y-43502438D02*
X225457142Y-43550057D01*
X226409523Y-44454819D02*
X225838095Y-44454819D01*
X226123809Y-44454819D02*
X226123809Y-43454819D01*
X226123809Y-43454819D02*
X226028571Y-43597676D01*
X226028571Y-43597676D02*
X225933333Y-43692914D01*
X225933333Y-43692914D02*
X225838095Y-43740533D01*
X227314285Y-43454819D02*
X226838095Y-43454819D01*
X226838095Y-43454819D02*
X226790476Y-43931009D01*
X226790476Y-43931009D02*
X226838095Y-43883390D01*
X226838095Y-43883390D02*
X226933333Y-43835771D01*
X226933333Y-43835771D02*
X227171428Y-43835771D01*
X227171428Y-43835771D02*
X227266666Y-43883390D01*
X227266666Y-43883390D02*
X227314285Y-43931009D01*
X227314285Y-43931009D02*
X227361904Y-44026247D01*
X227361904Y-44026247D02*
X227361904Y-44264342D01*
X227361904Y-44264342D02*
X227314285Y-44359580D01*
X227314285Y-44359580D02*
X227266666Y-44407200D01*
X227266666Y-44407200D02*
X227171428Y-44454819D01*
X227171428Y-44454819D02*
X226933333Y-44454819D01*
X226933333Y-44454819D02*
X226838095Y-44407200D01*
X226838095Y-44407200D02*
X226790476Y-44359580D01*
X225659580Y-43842857D02*
X225707200Y-43890476D01*
X225707200Y-43890476D02*
X225754819Y-44033333D01*
X225754819Y-44033333D02*
X225754819Y-44128571D01*
X225754819Y-44128571D02*
X225707200Y-44271428D01*
X225707200Y-44271428D02*
X225611961Y-44366666D01*
X225611961Y-44366666D02*
X225516723Y-44414285D01*
X225516723Y-44414285D02*
X225326247Y-44461904D01*
X225326247Y-44461904D02*
X225183390Y-44461904D01*
X225183390Y-44461904D02*
X224992914Y-44414285D01*
X224992914Y-44414285D02*
X224897676Y-44366666D01*
X224897676Y-44366666D02*
X224802438Y-44271428D01*
X224802438Y-44271428D02*
X224754819Y-44128571D01*
X224754819Y-44128571D02*
X224754819Y-44033333D01*
X224754819Y-44033333D02*
X224802438Y-43890476D01*
X224802438Y-43890476D02*
X224850057Y-43842857D01*
X225754819Y-42890476D02*
X225754819Y-43461904D01*
X225754819Y-43176190D02*
X224754819Y-43176190D01*
X224754819Y-43176190D02*
X224897676Y-43271428D01*
X224897676Y-43271428D02*
X224992914Y-43366666D01*
X224992914Y-43366666D02*
X225040533Y-43461904D01*
X224754819Y-42557142D02*
X224754819Y-41890476D01*
X224754819Y-41890476D02*
X225754819Y-42319047D01*
D12*
X221178571Y-54724809D02*
X221011905Y-54486714D01*
X220892857Y-54724809D02*
X220892857Y-54224809D01*
X220892857Y-54224809D02*
X221083333Y-54224809D01*
X221083333Y-54224809D02*
X221130952Y-54248619D01*
X221130952Y-54248619D02*
X221154762Y-54272428D01*
X221154762Y-54272428D02*
X221178571Y-54320047D01*
X221178571Y-54320047D02*
X221178571Y-54391476D01*
X221178571Y-54391476D02*
X221154762Y-54439095D01*
X221154762Y-54439095D02*
X221130952Y-54462904D01*
X221130952Y-54462904D02*
X221083333Y-54486714D01*
X221083333Y-54486714D02*
X220892857Y-54486714D01*
X221654762Y-54724809D02*
X221369048Y-54724809D01*
X221511905Y-54724809D02*
X221511905Y-54224809D01*
X221511905Y-54224809D02*
X221464286Y-54296238D01*
X221464286Y-54296238D02*
X221416667Y-54343857D01*
X221416667Y-54343857D02*
X221369048Y-54367666D01*
X222107142Y-54224809D02*
X221869047Y-54224809D01*
X221869047Y-54224809D02*
X221845238Y-54462904D01*
X221845238Y-54462904D02*
X221869047Y-54439095D01*
X221869047Y-54439095D02*
X221916666Y-54415285D01*
X221916666Y-54415285D02*
X222035714Y-54415285D01*
X222035714Y-54415285D02*
X222083333Y-54439095D01*
X222083333Y-54439095D02*
X222107142Y-54462904D01*
X222107142Y-54462904D02*
X222130952Y-54510523D01*
X222130952Y-54510523D02*
X222130952Y-54629571D01*
X222130952Y-54629571D02*
X222107142Y-54677190D01*
X222107142Y-54677190D02*
X222083333Y-54701000D01*
X222083333Y-54701000D02*
X222035714Y-54724809D01*
X222035714Y-54724809D02*
X221916666Y-54724809D01*
X221916666Y-54724809D02*
X221869047Y-54701000D01*
X221869047Y-54701000D02*
X221845238Y-54677190D01*
D11*
X227157142Y-51059580D02*
X227109523Y-51107200D01*
X227109523Y-51107200D02*
X226966666Y-51154819D01*
X226966666Y-51154819D02*
X226871428Y-51154819D01*
X226871428Y-51154819D02*
X226728571Y-51107200D01*
X226728571Y-51107200D02*
X226633333Y-51011961D01*
X226633333Y-51011961D02*
X226585714Y-50916723D01*
X226585714Y-50916723D02*
X226538095Y-50726247D01*
X226538095Y-50726247D02*
X226538095Y-50583390D01*
X226538095Y-50583390D02*
X226585714Y-50392914D01*
X226585714Y-50392914D02*
X226633333Y-50297676D01*
X226633333Y-50297676D02*
X226728571Y-50202438D01*
X226728571Y-50202438D02*
X226871428Y-50154819D01*
X226871428Y-50154819D02*
X226966666Y-50154819D01*
X226966666Y-50154819D02*
X227109523Y-50202438D01*
X227109523Y-50202438D02*
X227157142Y-50250057D01*
X227538095Y-50250057D02*
X227585714Y-50202438D01*
X227585714Y-50202438D02*
X227680952Y-50154819D01*
X227680952Y-50154819D02*
X227919047Y-50154819D01*
X227919047Y-50154819D02*
X228014285Y-50202438D01*
X228014285Y-50202438D02*
X228061904Y-50250057D01*
X228061904Y-50250057D02*
X228109523Y-50345295D01*
X228109523Y-50345295D02*
X228109523Y-50440533D01*
X228109523Y-50440533D02*
X228061904Y-50583390D01*
X228061904Y-50583390D02*
X227490476Y-51154819D01*
X227490476Y-51154819D02*
X228109523Y-51154819D01*
X228728571Y-50154819D02*
X228823809Y-50154819D01*
X228823809Y-50154819D02*
X228919047Y-50202438D01*
X228919047Y-50202438D02*
X228966666Y-50250057D01*
X228966666Y-50250057D02*
X229014285Y-50345295D01*
X229014285Y-50345295D02*
X229061904Y-50535771D01*
X229061904Y-50535771D02*
X229061904Y-50773866D01*
X229061904Y-50773866D02*
X229014285Y-50964342D01*
X229014285Y-50964342D02*
X228966666Y-51059580D01*
X228966666Y-51059580D02*
X228919047Y-51107200D01*
X228919047Y-51107200D02*
X228823809Y-51154819D01*
X228823809Y-51154819D02*
X228728571Y-51154819D01*
X228728571Y-51154819D02*
X228633333Y-51107200D01*
X228633333Y-51107200D02*
X228585714Y-51059580D01*
X228585714Y-51059580D02*
X228538095Y-50964342D01*
X228538095Y-50964342D02*
X228490476Y-50773866D01*
X228490476Y-50773866D02*
X228490476Y-50535771D01*
X228490476Y-50535771D02*
X228538095Y-50345295D01*
X228538095Y-50345295D02*
X228585714Y-50250057D01*
X228585714Y-50250057D02*
X228633333Y-50202438D01*
X228633333Y-50202438D02*
X228728571Y-50154819D01*
X184161905Y-65154819D02*
X184161905Y-64154819D01*
X184161905Y-64154819D02*
X184400000Y-64154819D01*
X184400000Y-64154819D02*
X184542857Y-64202438D01*
X184542857Y-64202438D02*
X184638095Y-64297676D01*
X184638095Y-64297676D02*
X184685714Y-64392914D01*
X184685714Y-64392914D02*
X184733333Y-64583390D01*
X184733333Y-64583390D02*
X184733333Y-64726247D01*
X184733333Y-64726247D02*
X184685714Y-64916723D01*
X184685714Y-64916723D02*
X184638095Y-65011961D01*
X184638095Y-65011961D02*
X184542857Y-65107200D01*
X184542857Y-65107200D02*
X184400000Y-65154819D01*
X184400000Y-65154819D02*
X184161905Y-65154819D01*
X185066667Y-64154819D02*
X185685714Y-64154819D01*
X185685714Y-64154819D02*
X185352381Y-64535771D01*
X185352381Y-64535771D02*
X185495238Y-64535771D01*
X185495238Y-64535771D02*
X185590476Y-64583390D01*
X185590476Y-64583390D02*
X185638095Y-64631009D01*
X185638095Y-64631009D02*
X185685714Y-64726247D01*
X185685714Y-64726247D02*
X185685714Y-64964342D01*
X185685714Y-64964342D02*
X185638095Y-65059580D01*
X185638095Y-65059580D02*
X185590476Y-65107200D01*
X185590476Y-65107200D02*
X185495238Y-65154819D01*
X185495238Y-65154819D02*
X185209524Y-65154819D01*
X185209524Y-65154819D02*
X185114286Y-65107200D01*
X185114286Y-65107200D02*
X185066667Y-65059580D01*
D12*
X206378571Y-61277190D02*
X206354762Y-61301000D01*
X206354762Y-61301000D02*
X206283333Y-61324809D01*
X206283333Y-61324809D02*
X206235714Y-61324809D01*
X206235714Y-61324809D02*
X206164286Y-61301000D01*
X206164286Y-61301000D02*
X206116667Y-61253380D01*
X206116667Y-61253380D02*
X206092857Y-61205761D01*
X206092857Y-61205761D02*
X206069048Y-61110523D01*
X206069048Y-61110523D02*
X206069048Y-61039095D01*
X206069048Y-61039095D02*
X206092857Y-60943857D01*
X206092857Y-60943857D02*
X206116667Y-60896238D01*
X206116667Y-60896238D02*
X206164286Y-60848619D01*
X206164286Y-60848619D02*
X206235714Y-60824809D01*
X206235714Y-60824809D02*
X206283333Y-60824809D01*
X206283333Y-60824809D02*
X206354762Y-60848619D01*
X206354762Y-60848619D02*
X206378571Y-60872428D01*
X206807143Y-60991476D02*
X206807143Y-61324809D01*
X206688095Y-60801000D02*
X206569048Y-61158142D01*
X206569048Y-61158142D02*
X206878571Y-61158142D01*
X207021428Y-60824809D02*
X207354761Y-60824809D01*
X207354761Y-60824809D02*
X207140476Y-61324809D01*
D11*
X192857142Y-66754819D02*
X192523809Y-66278628D01*
X192285714Y-66754819D02*
X192285714Y-65754819D01*
X192285714Y-65754819D02*
X192666666Y-65754819D01*
X192666666Y-65754819D02*
X192761904Y-65802438D01*
X192761904Y-65802438D02*
X192809523Y-65850057D01*
X192809523Y-65850057D02*
X192857142Y-65945295D01*
X192857142Y-65945295D02*
X192857142Y-66088152D01*
X192857142Y-66088152D02*
X192809523Y-66183390D01*
X192809523Y-66183390D02*
X192761904Y-66231009D01*
X192761904Y-66231009D02*
X192666666Y-66278628D01*
X192666666Y-66278628D02*
X192285714Y-66278628D01*
X193238095Y-65850057D02*
X193285714Y-65802438D01*
X193285714Y-65802438D02*
X193380952Y-65754819D01*
X193380952Y-65754819D02*
X193619047Y-65754819D01*
X193619047Y-65754819D02*
X193714285Y-65802438D01*
X193714285Y-65802438D02*
X193761904Y-65850057D01*
X193761904Y-65850057D02*
X193809523Y-65945295D01*
X193809523Y-65945295D02*
X193809523Y-66040533D01*
X193809523Y-66040533D02*
X193761904Y-66183390D01*
X193761904Y-66183390D02*
X193190476Y-66754819D01*
X193190476Y-66754819D02*
X193809523Y-66754819D01*
X194190476Y-65850057D02*
X194238095Y-65802438D01*
X194238095Y-65802438D02*
X194333333Y-65754819D01*
X194333333Y-65754819D02*
X194571428Y-65754819D01*
X194571428Y-65754819D02*
X194666666Y-65802438D01*
X194666666Y-65802438D02*
X194714285Y-65850057D01*
X194714285Y-65850057D02*
X194761904Y-65945295D01*
X194761904Y-65945295D02*
X194761904Y-66040533D01*
X194761904Y-66040533D02*
X194714285Y-66183390D01*
X194714285Y-66183390D02*
X194142857Y-66754819D01*
X194142857Y-66754819D02*
X194761904Y-66754819D01*
X212954819Y-43342857D02*
X212478628Y-43676190D01*
X212954819Y-43914285D02*
X211954819Y-43914285D01*
X211954819Y-43914285D02*
X211954819Y-43533333D01*
X211954819Y-43533333D02*
X212002438Y-43438095D01*
X212002438Y-43438095D02*
X212050057Y-43390476D01*
X212050057Y-43390476D02*
X212145295Y-43342857D01*
X212145295Y-43342857D02*
X212288152Y-43342857D01*
X212288152Y-43342857D02*
X212383390Y-43390476D01*
X212383390Y-43390476D02*
X212431009Y-43438095D01*
X212431009Y-43438095D02*
X212478628Y-43533333D01*
X212478628Y-43533333D02*
X212478628Y-43914285D01*
X212954819Y-42390476D02*
X212954819Y-42961904D01*
X212954819Y-42676190D02*
X211954819Y-42676190D01*
X211954819Y-42676190D02*
X212097676Y-42771428D01*
X212097676Y-42771428D02*
X212192914Y-42866666D01*
X212192914Y-42866666D02*
X212240533Y-42961904D01*
X211954819Y-42057142D02*
X211954819Y-41390476D01*
X211954819Y-41390476D02*
X212954819Y-41819047D01*
X223238095Y-63754819D02*
X223238095Y-62754819D01*
X223238095Y-63231009D02*
X223809523Y-63231009D01*
X223809523Y-63754819D02*
X223809523Y-62754819D01*
X224190476Y-62754819D02*
X224809523Y-62754819D01*
X224809523Y-62754819D02*
X224476190Y-63135771D01*
X224476190Y-63135771D02*
X224619047Y-63135771D01*
X224619047Y-63135771D02*
X224714285Y-63183390D01*
X224714285Y-63183390D02*
X224761904Y-63231009D01*
X224761904Y-63231009D02*
X224809523Y-63326247D01*
X224809523Y-63326247D02*
X224809523Y-63564342D01*
X224809523Y-63564342D02*
X224761904Y-63659580D01*
X224761904Y-63659580D02*
X224714285Y-63707200D01*
X224714285Y-63707200D02*
X224619047Y-63754819D01*
X224619047Y-63754819D02*
X224333333Y-63754819D01*
X224333333Y-63754819D02*
X224238095Y-63707200D01*
X224238095Y-63707200D02*
X224190476Y-63659580D01*
X211159580Y-51780357D02*
X211207200Y-51827976D01*
X211207200Y-51827976D02*
X211254819Y-51970833D01*
X211254819Y-51970833D02*
X211254819Y-52066071D01*
X211254819Y-52066071D02*
X211207200Y-52208928D01*
X211207200Y-52208928D02*
X211111961Y-52304166D01*
X211111961Y-52304166D02*
X211016723Y-52351785D01*
X211016723Y-52351785D02*
X210826247Y-52399404D01*
X210826247Y-52399404D02*
X210683390Y-52399404D01*
X210683390Y-52399404D02*
X210492914Y-52351785D01*
X210492914Y-52351785D02*
X210397676Y-52304166D01*
X210397676Y-52304166D02*
X210302438Y-52208928D01*
X210302438Y-52208928D02*
X210254819Y-52066071D01*
X210254819Y-52066071D02*
X210254819Y-51970833D01*
X210254819Y-51970833D02*
X210302438Y-51827976D01*
X210302438Y-51827976D02*
X210350057Y-51780357D01*
X211254819Y-50827976D02*
X211254819Y-51399404D01*
X211254819Y-51113690D02*
X210254819Y-51113690D01*
X210254819Y-51113690D02*
X210397676Y-51208928D01*
X210397676Y-51208928D02*
X210492914Y-51304166D01*
X210492914Y-51304166D02*
X210540533Y-51399404D01*
X210254819Y-49970833D02*
X210254819Y-50161309D01*
X210254819Y-50161309D02*
X210302438Y-50256547D01*
X210302438Y-50256547D02*
X210350057Y-50304166D01*
X210350057Y-50304166D02*
X210492914Y-50399404D01*
X210492914Y-50399404D02*
X210683390Y-50447023D01*
X210683390Y-50447023D02*
X211064342Y-50447023D01*
X211064342Y-50447023D02*
X211159580Y-50399404D01*
X211159580Y-50399404D02*
X211207200Y-50351785D01*
X211207200Y-50351785D02*
X211254819Y-50256547D01*
X211254819Y-50256547D02*
X211254819Y-50066071D01*
X211254819Y-50066071D02*
X211207200Y-49970833D01*
X211207200Y-49970833D02*
X211159580Y-49923214D01*
X211159580Y-49923214D02*
X211064342Y-49875595D01*
X211064342Y-49875595D02*
X210826247Y-49875595D01*
X210826247Y-49875595D02*
X210731009Y-49923214D01*
X210731009Y-49923214D02*
X210683390Y-49970833D01*
X210683390Y-49970833D02*
X210635771Y-50066071D01*
X210635771Y-50066071D02*
X210635771Y-50256547D01*
X210635771Y-50256547D02*
X210683390Y-50351785D01*
X210683390Y-50351785D02*
X210731009Y-50399404D01*
X210731009Y-50399404D02*
X210826247Y-50447023D01*
D12*
X219578571Y-55624809D02*
X219411905Y-55386714D01*
X219292857Y-55624809D02*
X219292857Y-55124809D01*
X219292857Y-55124809D02*
X219483333Y-55124809D01*
X219483333Y-55124809D02*
X219530952Y-55148619D01*
X219530952Y-55148619D02*
X219554762Y-55172428D01*
X219554762Y-55172428D02*
X219578571Y-55220047D01*
X219578571Y-55220047D02*
X219578571Y-55291476D01*
X219578571Y-55291476D02*
X219554762Y-55339095D01*
X219554762Y-55339095D02*
X219530952Y-55362904D01*
X219530952Y-55362904D02*
X219483333Y-55386714D01*
X219483333Y-55386714D02*
X219292857Y-55386714D01*
X219769048Y-55172428D02*
X219792857Y-55148619D01*
X219792857Y-55148619D02*
X219840476Y-55124809D01*
X219840476Y-55124809D02*
X219959524Y-55124809D01*
X219959524Y-55124809D02*
X220007143Y-55148619D01*
X220007143Y-55148619D02*
X220030952Y-55172428D01*
X220030952Y-55172428D02*
X220054762Y-55220047D01*
X220054762Y-55220047D02*
X220054762Y-55267666D01*
X220054762Y-55267666D02*
X220030952Y-55339095D01*
X220030952Y-55339095D02*
X219745238Y-55624809D01*
X219745238Y-55624809D02*
X220054762Y-55624809D01*
X220292857Y-55624809D02*
X220388095Y-55624809D01*
X220388095Y-55624809D02*
X220435714Y-55601000D01*
X220435714Y-55601000D02*
X220459523Y-55577190D01*
X220459523Y-55577190D02*
X220507142Y-55505761D01*
X220507142Y-55505761D02*
X220530952Y-55410523D01*
X220530952Y-55410523D02*
X220530952Y-55220047D01*
X220530952Y-55220047D02*
X220507142Y-55172428D01*
X220507142Y-55172428D02*
X220483333Y-55148619D01*
X220483333Y-55148619D02*
X220435714Y-55124809D01*
X220435714Y-55124809D02*
X220340476Y-55124809D01*
X220340476Y-55124809D02*
X220292857Y-55148619D01*
X220292857Y-55148619D02*
X220269047Y-55172428D01*
X220269047Y-55172428D02*
X220245238Y-55220047D01*
X220245238Y-55220047D02*
X220245238Y-55339095D01*
X220245238Y-55339095D02*
X220269047Y-55386714D01*
X220269047Y-55386714D02*
X220292857Y-55410523D01*
X220292857Y-55410523D02*
X220340476Y-55434333D01*
X220340476Y-55434333D02*
X220435714Y-55434333D01*
X220435714Y-55434333D02*
X220483333Y-55410523D01*
X220483333Y-55410523D02*
X220507142Y-55386714D01*
X220507142Y-55386714D02*
X220530952Y-55339095D01*
D11*
X222954819Y-62842857D02*
X222478628Y-63176190D01*
X222954819Y-63414285D02*
X221954819Y-63414285D01*
X221954819Y-63414285D02*
X221954819Y-63033333D01*
X221954819Y-63033333D02*
X222002438Y-62938095D01*
X222002438Y-62938095D02*
X222050057Y-62890476D01*
X222050057Y-62890476D02*
X222145295Y-62842857D01*
X222145295Y-62842857D02*
X222288152Y-62842857D01*
X222288152Y-62842857D02*
X222383390Y-62890476D01*
X222383390Y-62890476D02*
X222431009Y-62938095D01*
X222431009Y-62938095D02*
X222478628Y-63033333D01*
X222478628Y-63033333D02*
X222478628Y-63414285D01*
X222954819Y-61890476D02*
X222954819Y-62461904D01*
X222954819Y-62176190D02*
X221954819Y-62176190D01*
X221954819Y-62176190D02*
X222097676Y-62271428D01*
X222097676Y-62271428D02*
X222192914Y-62366666D01*
X222192914Y-62366666D02*
X222240533Y-62461904D01*
X222288152Y-61033333D02*
X222954819Y-61033333D01*
X221907200Y-61271428D02*
X222621485Y-61509523D01*
X222621485Y-61509523D02*
X222621485Y-60890476D01*
X113438095Y-62454819D02*
X113438095Y-61454819D01*
X113438095Y-61931009D02*
X114009523Y-61931009D01*
X114009523Y-62454819D02*
X114009523Y-61454819D01*
X115009523Y-62454819D02*
X114438095Y-62454819D01*
X114723809Y-62454819D02*
X114723809Y-61454819D01*
X114723809Y-61454819D02*
X114628571Y-61597676D01*
X114628571Y-61597676D02*
X114533333Y-61692914D01*
X114533333Y-61692914D02*
X114438095Y-61740533D01*
X217654819Y-52238094D02*
X216654819Y-52238094D01*
X216654819Y-52238094D02*
X216654819Y-51999999D01*
X216654819Y-51999999D02*
X216702438Y-51857142D01*
X216702438Y-51857142D02*
X216797676Y-51761904D01*
X216797676Y-51761904D02*
X216892914Y-51714285D01*
X216892914Y-51714285D02*
X217083390Y-51666666D01*
X217083390Y-51666666D02*
X217226247Y-51666666D01*
X217226247Y-51666666D02*
X217416723Y-51714285D01*
X217416723Y-51714285D02*
X217511961Y-51761904D01*
X217511961Y-51761904D02*
X217607200Y-51857142D01*
X217607200Y-51857142D02*
X217654819Y-51999999D01*
X217654819Y-51999999D02*
X217654819Y-52238094D01*
X216654819Y-50809523D02*
X216654819Y-50999999D01*
X216654819Y-50999999D02*
X216702438Y-51095237D01*
X216702438Y-51095237D02*
X216750057Y-51142856D01*
X216750057Y-51142856D02*
X216892914Y-51238094D01*
X216892914Y-51238094D02*
X217083390Y-51285713D01*
X217083390Y-51285713D02*
X217464342Y-51285713D01*
X217464342Y-51285713D02*
X217559580Y-51238094D01*
X217559580Y-51238094D02*
X217607200Y-51190475D01*
X217607200Y-51190475D02*
X217654819Y-51095237D01*
X217654819Y-51095237D02*
X217654819Y-50904761D01*
X217654819Y-50904761D02*
X217607200Y-50809523D01*
X217607200Y-50809523D02*
X217559580Y-50761904D01*
X217559580Y-50761904D02*
X217464342Y-50714285D01*
X217464342Y-50714285D02*
X217226247Y-50714285D01*
X217226247Y-50714285D02*
X217131009Y-50761904D01*
X217131009Y-50761904D02*
X217083390Y-50809523D01*
X217083390Y-50809523D02*
X217035771Y-50904761D01*
X217035771Y-50904761D02*
X217035771Y-51095237D01*
X217035771Y-51095237D02*
X217083390Y-51190475D01*
X217083390Y-51190475D02*
X217131009Y-51238094D01*
X217131009Y-51238094D02*
X217226247Y-51285713D01*
X199557142Y-58559580D02*
X199509523Y-58607200D01*
X199509523Y-58607200D02*
X199366666Y-58654819D01*
X199366666Y-58654819D02*
X199271428Y-58654819D01*
X199271428Y-58654819D02*
X199128571Y-58607200D01*
X199128571Y-58607200D02*
X199033333Y-58511961D01*
X199033333Y-58511961D02*
X198985714Y-58416723D01*
X198985714Y-58416723D02*
X198938095Y-58226247D01*
X198938095Y-58226247D02*
X198938095Y-58083390D01*
X198938095Y-58083390D02*
X198985714Y-57892914D01*
X198985714Y-57892914D02*
X199033333Y-57797676D01*
X199033333Y-57797676D02*
X199128571Y-57702438D01*
X199128571Y-57702438D02*
X199271428Y-57654819D01*
X199271428Y-57654819D02*
X199366666Y-57654819D01*
X199366666Y-57654819D02*
X199509523Y-57702438D01*
X199509523Y-57702438D02*
X199557142Y-57750057D01*
X199938095Y-57750057D02*
X199985714Y-57702438D01*
X199985714Y-57702438D02*
X200080952Y-57654819D01*
X200080952Y-57654819D02*
X200319047Y-57654819D01*
X200319047Y-57654819D02*
X200414285Y-57702438D01*
X200414285Y-57702438D02*
X200461904Y-57750057D01*
X200461904Y-57750057D02*
X200509523Y-57845295D01*
X200509523Y-57845295D02*
X200509523Y-57940533D01*
X200509523Y-57940533D02*
X200461904Y-58083390D01*
X200461904Y-58083390D02*
X199890476Y-58654819D01*
X199890476Y-58654819D02*
X200509523Y-58654819D01*
X200842857Y-57654819D02*
X201461904Y-57654819D01*
X201461904Y-57654819D02*
X201128571Y-58035771D01*
X201128571Y-58035771D02*
X201271428Y-58035771D01*
X201271428Y-58035771D02*
X201366666Y-58083390D01*
X201366666Y-58083390D02*
X201414285Y-58131009D01*
X201414285Y-58131009D02*
X201461904Y-58226247D01*
X201461904Y-58226247D02*
X201461904Y-58464342D01*
X201461904Y-58464342D02*
X201414285Y-58559580D01*
X201414285Y-58559580D02*
X201366666Y-58607200D01*
X201366666Y-58607200D02*
X201271428Y-58654819D01*
X201271428Y-58654819D02*
X200985714Y-58654819D01*
X200985714Y-58654819D02*
X200890476Y-58607200D01*
X200890476Y-58607200D02*
X200842857Y-58559580D01*
X214761905Y-46954819D02*
X214761905Y-47764342D01*
X214761905Y-47764342D02*
X214809524Y-47859580D01*
X214809524Y-47859580D02*
X214857143Y-47907200D01*
X214857143Y-47907200D02*
X214952381Y-47954819D01*
X214952381Y-47954819D02*
X215142857Y-47954819D01*
X215142857Y-47954819D02*
X215238095Y-47907200D01*
X215238095Y-47907200D02*
X215285714Y-47859580D01*
X215285714Y-47859580D02*
X215333333Y-47764342D01*
X215333333Y-47764342D02*
X215333333Y-46954819D01*
X216333333Y-47954819D02*
X215761905Y-47954819D01*
X216047619Y-47954819D02*
X216047619Y-46954819D01*
X216047619Y-46954819D02*
X215952381Y-47097676D01*
X215952381Y-47097676D02*
X215857143Y-47192914D01*
X215857143Y-47192914D02*
X215761905Y-47240533D01*
X216904762Y-47383390D02*
X216809524Y-47335771D01*
X216809524Y-47335771D02*
X216761905Y-47288152D01*
X216761905Y-47288152D02*
X216714286Y-47192914D01*
X216714286Y-47192914D02*
X216714286Y-47145295D01*
X216714286Y-47145295D02*
X216761905Y-47050057D01*
X216761905Y-47050057D02*
X216809524Y-47002438D01*
X216809524Y-47002438D02*
X216904762Y-46954819D01*
X216904762Y-46954819D02*
X217095238Y-46954819D01*
X217095238Y-46954819D02*
X217190476Y-47002438D01*
X217190476Y-47002438D02*
X217238095Y-47050057D01*
X217238095Y-47050057D02*
X217285714Y-47145295D01*
X217285714Y-47145295D02*
X217285714Y-47192914D01*
X217285714Y-47192914D02*
X217238095Y-47288152D01*
X217238095Y-47288152D02*
X217190476Y-47335771D01*
X217190476Y-47335771D02*
X217095238Y-47383390D01*
X217095238Y-47383390D02*
X216904762Y-47383390D01*
X216904762Y-47383390D02*
X216809524Y-47431009D01*
X216809524Y-47431009D02*
X216761905Y-47478628D01*
X216761905Y-47478628D02*
X216714286Y-47573866D01*
X216714286Y-47573866D02*
X216714286Y-47764342D01*
X216714286Y-47764342D02*
X216761905Y-47859580D01*
X216761905Y-47859580D02*
X216809524Y-47907200D01*
X216809524Y-47907200D02*
X216904762Y-47954819D01*
X216904762Y-47954819D02*
X217095238Y-47954819D01*
X217095238Y-47954819D02*
X217190476Y-47907200D01*
X217190476Y-47907200D02*
X217238095Y-47859580D01*
X217238095Y-47859580D02*
X217285714Y-47764342D01*
X217285714Y-47764342D02*
X217285714Y-47573866D01*
X217285714Y-47573866D02*
X217238095Y-47478628D01*
X217238095Y-47478628D02*
X217190476Y-47431009D01*
X217190476Y-47431009D02*
X217095238Y-47383390D01*
X150938095Y-62104819D02*
X150938095Y-61104819D01*
X150938095Y-61581009D02*
X151509523Y-61581009D01*
X151509523Y-62104819D02*
X151509523Y-61104819D01*
X152414285Y-61104819D02*
X152223809Y-61104819D01*
X152223809Y-61104819D02*
X152128571Y-61152438D01*
X152128571Y-61152438D02*
X152080952Y-61200057D01*
X152080952Y-61200057D02*
X151985714Y-61342914D01*
X151985714Y-61342914D02*
X151938095Y-61533390D01*
X151938095Y-61533390D02*
X151938095Y-61914342D01*
X151938095Y-61914342D02*
X151985714Y-62009580D01*
X151985714Y-62009580D02*
X152033333Y-62057200D01*
X152033333Y-62057200D02*
X152128571Y-62104819D01*
X152128571Y-62104819D02*
X152319047Y-62104819D01*
X152319047Y-62104819D02*
X152414285Y-62057200D01*
X152414285Y-62057200D02*
X152461904Y-62009580D01*
X152461904Y-62009580D02*
X152509523Y-61914342D01*
X152509523Y-61914342D02*
X152509523Y-61676247D01*
X152509523Y-61676247D02*
X152461904Y-61581009D01*
X152461904Y-61581009D02*
X152414285Y-61533390D01*
X152414285Y-61533390D02*
X152319047Y-61485771D01*
X152319047Y-61485771D02*
X152128571Y-61485771D01*
X152128571Y-61485771D02*
X152033333Y-61533390D01*
X152033333Y-61533390D02*
X151985714Y-61581009D01*
X151985714Y-61581009D02*
X151938095Y-61676247D01*
X209159580Y-51842857D02*
X209207200Y-51890476D01*
X209207200Y-51890476D02*
X209254819Y-52033333D01*
X209254819Y-52033333D02*
X209254819Y-52128571D01*
X209254819Y-52128571D02*
X209207200Y-52271428D01*
X209207200Y-52271428D02*
X209111961Y-52366666D01*
X209111961Y-52366666D02*
X209016723Y-52414285D01*
X209016723Y-52414285D02*
X208826247Y-52461904D01*
X208826247Y-52461904D02*
X208683390Y-52461904D01*
X208683390Y-52461904D02*
X208492914Y-52414285D01*
X208492914Y-52414285D02*
X208397676Y-52366666D01*
X208397676Y-52366666D02*
X208302438Y-52271428D01*
X208302438Y-52271428D02*
X208254819Y-52128571D01*
X208254819Y-52128571D02*
X208254819Y-52033333D01*
X208254819Y-52033333D02*
X208302438Y-51890476D01*
X208302438Y-51890476D02*
X208350057Y-51842857D01*
X208588152Y-50985714D02*
X209254819Y-50985714D01*
X208207200Y-51223809D02*
X208921485Y-51461904D01*
X208921485Y-51461904D02*
X208921485Y-50842857D01*
X208683390Y-50319047D02*
X208635771Y-50414285D01*
X208635771Y-50414285D02*
X208588152Y-50461904D01*
X208588152Y-50461904D02*
X208492914Y-50509523D01*
X208492914Y-50509523D02*
X208445295Y-50509523D01*
X208445295Y-50509523D02*
X208350057Y-50461904D01*
X208350057Y-50461904D02*
X208302438Y-50414285D01*
X208302438Y-50414285D02*
X208254819Y-50319047D01*
X208254819Y-50319047D02*
X208254819Y-50128571D01*
X208254819Y-50128571D02*
X208302438Y-50033333D01*
X208302438Y-50033333D02*
X208350057Y-49985714D01*
X208350057Y-49985714D02*
X208445295Y-49938095D01*
X208445295Y-49938095D02*
X208492914Y-49938095D01*
X208492914Y-49938095D02*
X208588152Y-49985714D01*
X208588152Y-49985714D02*
X208635771Y-50033333D01*
X208635771Y-50033333D02*
X208683390Y-50128571D01*
X208683390Y-50128571D02*
X208683390Y-50319047D01*
X208683390Y-50319047D02*
X208731009Y-50414285D01*
X208731009Y-50414285D02*
X208778628Y-50461904D01*
X208778628Y-50461904D02*
X208873866Y-50509523D01*
X208873866Y-50509523D02*
X209064342Y-50509523D01*
X209064342Y-50509523D02*
X209159580Y-50461904D01*
X209159580Y-50461904D02*
X209207200Y-50414285D01*
X209207200Y-50414285D02*
X209254819Y-50319047D01*
X209254819Y-50319047D02*
X209254819Y-50128571D01*
X209254819Y-50128571D02*
X209207200Y-50033333D01*
X209207200Y-50033333D02*
X209159580Y-49985714D01*
X209159580Y-49985714D02*
X209064342Y-49938095D01*
X209064342Y-49938095D02*
X208873866Y-49938095D01*
X208873866Y-49938095D02*
X208778628Y-49985714D01*
X208778628Y-49985714D02*
X208731009Y-50033333D01*
X208731009Y-50033333D02*
X208683390Y-50128571D01*
X221454819Y-41538094D02*
X220454819Y-41538094D01*
X220454819Y-41538094D02*
X220454819Y-41299999D01*
X220454819Y-41299999D02*
X220502438Y-41157142D01*
X220502438Y-41157142D02*
X220597676Y-41061904D01*
X220597676Y-41061904D02*
X220692914Y-41014285D01*
X220692914Y-41014285D02*
X220883390Y-40966666D01*
X220883390Y-40966666D02*
X221026247Y-40966666D01*
X221026247Y-40966666D02*
X221216723Y-41014285D01*
X221216723Y-41014285D02*
X221311961Y-41061904D01*
X221311961Y-41061904D02*
X221407200Y-41157142D01*
X221407200Y-41157142D02*
X221454819Y-41299999D01*
X221454819Y-41299999D02*
X221454819Y-41538094D01*
X220550057Y-40585713D02*
X220502438Y-40538094D01*
X220502438Y-40538094D02*
X220454819Y-40442856D01*
X220454819Y-40442856D02*
X220454819Y-40204761D01*
X220454819Y-40204761D02*
X220502438Y-40109523D01*
X220502438Y-40109523D02*
X220550057Y-40061904D01*
X220550057Y-40061904D02*
X220645295Y-40014285D01*
X220645295Y-40014285D02*
X220740533Y-40014285D01*
X220740533Y-40014285D02*
X220883390Y-40061904D01*
X220883390Y-40061904D02*
X221454819Y-40633332D01*
X221454819Y-40633332D02*
X221454819Y-40014285D01*
X216659580Y-64642857D02*
X216707200Y-64690476D01*
X216707200Y-64690476D02*
X216754819Y-64833333D01*
X216754819Y-64833333D02*
X216754819Y-64928571D01*
X216754819Y-64928571D02*
X216707200Y-65071428D01*
X216707200Y-65071428D02*
X216611961Y-65166666D01*
X216611961Y-65166666D02*
X216516723Y-65214285D01*
X216516723Y-65214285D02*
X216326247Y-65261904D01*
X216326247Y-65261904D02*
X216183390Y-65261904D01*
X216183390Y-65261904D02*
X215992914Y-65214285D01*
X215992914Y-65214285D02*
X215897676Y-65166666D01*
X215897676Y-65166666D02*
X215802438Y-65071428D01*
X215802438Y-65071428D02*
X215754819Y-64928571D01*
X215754819Y-64928571D02*
X215754819Y-64833333D01*
X215754819Y-64833333D02*
X215802438Y-64690476D01*
X215802438Y-64690476D02*
X215850057Y-64642857D01*
X216088152Y-63785714D02*
X216754819Y-63785714D01*
X215707200Y-64023809D02*
X216421485Y-64261904D01*
X216421485Y-64261904D02*
X216421485Y-63642857D01*
X215850057Y-63309523D02*
X215802438Y-63261904D01*
X215802438Y-63261904D02*
X215754819Y-63166666D01*
X215754819Y-63166666D02*
X215754819Y-62928571D01*
X215754819Y-62928571D02*
X215802438Y-62833333D01*
X215802438Y-62833333D02*
X215850057Y-62785714D01*
X215850057Y-62785714D02*
X215945295Y-62738095D01*
X215945295Y-62738095D02*
X216040533Y-62738095D01*
X216040533Y-62738095D02*
X216183390Y-62785714D01*
X216183390Y-62785714D02*
X216754819Y-63357142D01*
X216754819Y-63357142D02*
X216754819Y-62738095D01*
X206907200Y-64633332D02*
X206954819Y-64490475D01*
X206954819Y-64490475D02*
X206954819Y-64252380D01*
X206954819Y-64252380D02*
X206907200Y-64157142D01*
X206907200Y-64157142D02*
X206859580Y-64109523D01*
X206859580Y-64109523D02*
X206764342Y-64061904D01*
X206764342Y-64061904D02*
X206669104Y-64061904D01*
X206669104Y-64061904D02*
X206573866Y-64109523D01*
X206573866Y-64109523D02*
X206526247Y-64157142D01*
X206526247Y-64157142D02*
X206478628Y-64252380D01*
X206478628Y-64252380D02*
X206431009Y-64442856D01*
X206431009Y-64442856D02*
X206383390Y-64538094D01*
X206383390Y-64538094D02*
X206335771Y-64585713D01*
X206335771Y-64585713D02*
X206240533Y-64633332D01*
X206240533Y-64633332D02*
X206145295Y-64633332D01*
X206145295Y-64633332D02*
X206050057Y-64585713D01*
X206050057Y-64585713D02*
X206002438Y-64538094D01*
X206002438Y-64538094D02*
X205954819Y-64442856D01*
X205954819Y-64442856D02*
X205954819Y-64204761D01*
X205954819Y-64204761D02*
X206002438Y-64061904D01*
X205954819Y-63728570D02*
X206954819Y-63490475D01*
X206954819Y-63490475D02*
X206240533Y-63299999D01*
X206240533Y-63299999D02*
X206954819Y-63109523D01*
X206954819Y-63109523D02*
X205954819Y-62871428D01*
X205954819Y-62061904D02*
X205954819Y-62252380D01*
X205954819Y-62252380D02*
X206002438Y-62347618D01*
X206002438Y-62347618D02*
X206050057Y-62395237D01*
X206050057Y-62395237D02*
X206192914Y-62490475D01*
X206192914Y-62490475D02*
X206383390Y-62538094D01*
X206383390Y-62538094D02*
X206764342Y-62538094D01*
X206764342Y-62538094D02*
X206859580Y-62490475D01*
X206859580Y-62490475D02*
X206907200Y-62442856D01*
X206907200Y-62442856D02*
X206954819Y-62347618D01*
X206954819Y-62347618D02*
X206954819Y-62157142D01*
X206954819Y-62157142D02*
X206907200Y-62061904D01*
X206907200Y-62061904D02*
X206859580Y-62014285D01*
X206859580Y-62014285D02*
X206764342Y-61966666D01*
X206764342Y-61966666D02*
X206526247Y-61966666D01*
X206526247Y-61966666D02*
X206431009Y-62014285D01*
X206431009Y-62014285D02*
X206383390Y-62061904D01*
X206383390Y-62061904D02*
X206335771Y-62157142D01*
X206335771Y-62157142D02*
X206335771Y-62347618D01*
X206335771Y-62347618D02*
X206383390Y-62442856D01*
X206383390Y-62442856D02*
X206431009Y-62490475D01*
X206431009Y-62490475D02*
X206526247Y-62538094D01*
X217245080Y-38956995D02*
X216435557Y-38956995D01*
X216435557Y-38956995D02*
X216340319Y-39004614D01*
X216340319Y-39004614D02*
X216292700Y-39052233D01*
X216292700Y-39052233D02*
X216245080Y-39147471D01*
X216245080Y-39147471D02*
X216245080Y-39337947D01*
X216245080Y-39337947D02*
X216292700Y-39433185D01*
X216292700Y-39433185D02*
X216340319Y-39480804D01*
X216340319Y-39480804D02*
X216435557Y-39528423D01*
X216435557Y-39528423D02*
X217245080Y-39528423D01*
X216911747Y-40433185D02*
X216245080Y-40433185D01*
X217292700Y-40195090D02*
X216578414Y-39956995D01*
X216578414Y-39956995D02*
X216578414Y-40576042D01*
X197754819Y-62042857D02*
X197278628Y-62376190D01*
X197754819Y-62614285D02*
X196754819Y-62614285D01*
X196754819Y-62614285D02*
X196754819Y-62233333D01*
X196754819Y-62233333D02*
X196802438Y-62138095D01*
X196802438Y-62138095D02*
X196850057Y-62090476D01*
X196850057Y-62090476D02*
X196945295Y-62042857D01*
X196945295Y-62042857D02*
X197088152Y-62042857D01*
X197088152Y-62042857D02*
X197183390Y-62090476D01*
X197183390Y-62090476D02*
X197231009Y-62138095D01*
X197231009Y-62138095D02*
X197278628Y-62233333D01*
X197278628Y-62233333D02*
X197278628Y-62614285D01*
X197754819Y-61090476D02*
X197754819Y-61661904D01*
X197754819Y-61376190D02*
X196754819Y-61376190D01*
X196754819Y-61376190D02*
X196897676Y-61471428D01*
X196897676Y-61471428D02*
X196992914Y-61566666D01*
X196992914Y-61566666D02*
X197040533Y-61661904D01*
X196850057Y-60709523D02*
X196802438Y-60661904D01*
X196802438Y-60661904D02*
X196754819Y-60566666D01*
X196754819Y-60566666D02*
X196754819Y-60328571D01*
X196754819Y-60328571D02*
X196802438Y-60233333D01*
X196802438Y-60233333D02*
X196850057Y-60185714D01*
X196850057Y-60185714D02*
X196945295Y-60138095D01*
X196945295Y-60138095D02*
X197040533Y-60138095D01*
X197040533Y-60138095D02*
X197183390Y-60185714D01*
X197183390Y-60185714D02*
X197754819Y-60757142D01*
X197754819Y-60757142D02*
X197754819Y-60138095D01*
X174571904Y-56945180D02*
X174571904Y-56135657D01*
X174571904Y-56135657D02*
X174524285Y-56040419D01*
X174524285Y-56040419D02*
X174476666Y-55992800D01*
X174476666Y-55992800D02*
X174381428Y-55945180D01*
X174381428Y-55945180D02*
X174190952Y-55945180D01*
X174190952Y-55945180D02*
X174095714Y-55992800D01*
X174095714Y-55992800D02*
X174048095Y-56040419D01*
X174048095Y-56040419D02*
X174000476Y-56135657D01*
X174000476Y-56135657D02*
X174000476Y-56945180D01*
X173571904Y-56849942D02*
X173524285Y-56897561D01*
X173524285Y-56897561D02*
X173429047Y-56945180D01*
X173429047Y-56945180D02*
X173190952Y-56945180D01*
X173190952Y-56945180D02*
X173095714Y-56897561D01*
X173095714Y-56897561D02*
X173048095Y-56849942D01*
X173048095Y-56849942D02*
X173000476Y-56754704D01*
X173000476Y-56754704D02*
X173000476Y-56659466D01*
X173000476Y-56659466D02*
X173048095Y-56516609D01*
X173048095Y-56516609D02*
X173619523Y-55945180D01*
X173619523Y-55945180D02*
X173000476Y-55945180D01*
X207686905Y-38454819D02*
X207686905Y-37454819D01*
X207686905Y-37454819D02*
X207925000Y-37454819D01*
X207925000Y-37454819D02*
X208067857Y-37502438D01*
X208067857Y-37502438D02*
X208163095Y-37597676D01*
X208163095Y-37597676D02*
X208210714Y-37692914D01*
X208210714Y-37692914D02*
X208258333Y-37883390D01*
X208258333Y-37883390D02*
X208258333Y-38026247D01*
X208258333Y-38026247D02*
X208210714Y-38216723D01*
X208210714Y-38216723D02*
X208163095Y-38311961D01*
X208163095Y-38311961D02*
X208067857Y-38407200D01*
X208067857Y-38407200D02*
X207925000Y-38454819D01*
X207925000Y-38454819D02*
X207686905Y-38454819D01*
X209115476Y-37788152D02*
X209115476Y-38454819D01*
X208877381Y-37407200D02*
X208639286Y-38121485D01*
X208639286Y-38121485D02*
X209258333Y-38121485D01*
X213967735Y-51682143D02*
X214003450Y-51717857D01*
X214003450Y-51717857D02*
X214039164Y-51825000D01*
X214039164Y-51825000D02*
X214039164Y-51896428D01*
X214039164Y-51896428D02*
X214003450Y-52003571D01*
X214003450Y-52003571D02*
X213932021Y-52075000D01*
X213932021Y-52075000D02*
X213860592Y-52110714D01*
X213860592Y-52110714D02*
X213717735Y-52146428D01*
X213717735Y-52146428D02*
X213610592Y-52146428D01*
X213610592Y-52146428D02*
X213467735Y-52110714D01*
X213467735Y-52110714D02*
X213396307Y-52075000D01*
X213396307Y-52075000D02*
X213324878Y-52003571D01*
X213324878Y-52003571D02*
X213289164Y-51896428D01*
X213289164Y-51896428D02*
X213289164Y-51825000D01*
X213289164Y-51825000D02*
X213324878Y-51717857D01*
X213324878Y-51717857D02*
X213360592Y-51682143D01*
X213289164Y-51003571D02*
X213289164Y-51360714D01*
X213289164Y-51360714D02*
X213646307Y-51396428D01*
X213646307Y-51396428D02*
X213610592Y-51360714D01*
X213610592Y-51360714D02*
X213574878Y-51289286D01*
X213574878Y-51289286D02*
X213574878Y-51110714D01*
X213574878Y-51110714D02*
X213610592Y-51039286D01*
X213610592Y-51039286D02*
X213646307Y-51003571D01*
X213646307Y-51003571D02*
X213717735Y-50967857D01*
X213717735Y-50967857D02*
X213896307Y-50967857D01*
X213896307Y-50967857D02*
X213967735Y-51003571D01*
X213967735Y-51003571D02*
X214003450Y-51039286D01*
X214003450Y-51039286D02*
X214039164Y-51110714D01*
X214039164Y-51110714D02*
X214039164Y-51289286D01*
X214039164Y-51289286D02*
X214003450Y-51360714D01*
X214003450Y-51360714D02*
X213967735Y-51396428D01*
X213360592Y-50682142D02*
X213324878Y-50646428D01*
X213324878Y-50646428D02*
X213289164Y-50575000D01*
X213289164Y-50575000D02*
X213289164Y-50396428D01*
X213289164Y-50396428D02*
X213324878Y-50325000D01*
X213324878Y-50325000D02*
X213360592Y-50289285D01*
X213360592Y-50289285D02*
X213432021Y-50253571D01*
X213432021Y-50253571D02*
X213503450Y-50253571D01*
X213503450Y-50253571D02*
X213610592Y-50289285D01*
X213610592Y-50289285D02*
X214039164Y-50717857D01*
X214039164Y-50717857D02*
X214039164Y-50253571D01*
X213059580Y-65087857D02*
X213107200Y-65135476D01*
X213107200Y-65135476D02*
X213154819Y-65278333D01*
X213154819Y-65278333D02*
X213154819Y-65373571D01*
X213154819Y-65373571D02*
X213107200Y-65516428D01*
X213107200Y-65516428D02*
X213011961Y-65611666D01*
X213011961Y-65611666D02*
X212916723Y-65659285D01*
X212916723Y-65659285D02*
X212726247Y-65706904D01*
X212726247Y-65706904D02*
X212583390Y-65706904D01*
X212583390Y-65706904D02*
X212392914Y-65659285D01*
X212392914Y-65659285D02*
X212297676Y-65611666D01*
X212297676Y-65611666D02*
X212202438Y-65516428D01*
X212202438Y-65516428D02*
X212154819Y-65373571D01*
X212154819Y-65373571D02*
X212154819Y-65278333D01*
X212154819Y-65278333D02*
X212202438Y-65135476D01*
X212202438Y-65135476D02*
X212250057Y-65087857D01*
X212154819Y-64183095D02*
X212154819Y-64659285D01*
X212154819Y-64659285D02*
X212631009Y-64706904D01*
X212631009Y-64706904D02*
X212583390Y-64659285D01*
X212583390Y-64659285D02*
X212535771Y-64564047D01*
X212535771Y-64564047D02*
X212535771Y-64325952D01*
X212535771Y-64325952D02*
X212583390Y-64230714D01*
X212583390Y-64230714D02*
X212631009Y-64183095D01*
X212631009Y-64183095D02*
X212726247Y-64135476D01*
X212726247Y-64135476D02*
X212964342Y-64135476D01*
X212964342Y-64135476D02*
X213059580Y-64183095D01*
X213059580Y-64183095D02*
X213107200Y-64230714D01*
X213107200Y-64230714D02*
X213154819Y-64325952D01*
X213154819Y-64325952D02*
X213154819Y-64564047D01*
X213154819Y-64564047D02*
X213107200Y-64659285D01*
X213107200Y-64659285D02*
X213059580Y-64706904D01*
X212154819Y-63516428D02*
X212154819Y-63421190D01*
X212154819Y-63421190D02*
X212202438Y-63325952D01*
X212202438Y-63325952D02*
X212250057Y-63278333D01*
X212250057Y-63278333D02*
X212345295Y-63230714D01*
X212345295Y-63230714D02*
X212535771Y-63183095D01*
X212535771Y-63183095D02*
X212773866Y-63183095D01*
X212773866Y-63183095D02*
X212964342Y-63230714D01*
X212964342Y-63230714D02*
X213059580Y-63278333D01*
X213059580Y-63278333D02*
X213107200Y-63325952D01*
X213107200Y-63325952D02*
X213154819Y-63421190D01*
X213154819Y-63421190D02*
X213154819Y-63516428D01*
X213154819Y-63516428D02*
X213107200Y-63611666D01*
X213107200Y-63611666D02*
X213059580Y-63659285D01*
X213059580Y-63659285D02*
X212964342Y-63706904D01*
X212964342Y-63706904D02*
X212773866Y-63754523D01*
X212773866Y-63754523D02*
X212535771Y-63754523D01*
X212535771Y-63754523D02*
X212345295Y-63706904D01*
X212345295Y-63706904D02*
X212250057Y-63659285D01*
X212250057Y-63659285D02*
X212202438Y-63611666D01*
X212202438Y-63611666D02*
X212154819Y-63516428D01*
D13*
X192963842Y-55692619D02*
X193024318Y-55511190D01*
X193024318Y-55511190D02*
X193024318Y-55208809D01*
X193024318Y-55208809D02*
X192963842Y-55087857D01*
X192963842Y-55087857D02*
X192903365Y-55027381D01*
X192903365Y-55027381D02*
X192782413Y-54966904D01*
X192782413Y-54966904D02*
X192661461Y-54966904D01*
X192661461Y-54966904D02*
X192540508Y-55027381D01*
X192540508Y-55027381D02*
X192480032Y-55087857D01*
X192480032Y-55087857D02*
X192419556Y-55208809D01*
X192419556Y-55208809D02*
X192359080Y-55450714D01*
X192359080Y-55450714D02*
X192298603Y-55571666D01*
X192298603Y-55571666D02*
X192238127Y-55632143D01*
X192238127Y-55632143D02*
X192117175Y-55692619D01*
X192117175Y-55692619D02*
X191996222Y-55692619D01*
X191996222Y-55692619D02*
X191875270Y-55632143D01*
X191875270Y-55632143D02*
X191814794Y-55571666D01*
X191814794Y-55571666D02*
X191754318Y-55450714D01*
X191754318Y-55450714D02*
X191754318Y-55148333D01*
X191754318Y-55148333D02*
X191814794Y-54966904D01*
X193024318Y-53757380D02*
X193024318Y-54483095D01*
X193024318Y-54120238D02*
X191754318Y-54120238D01*
X191754318Y-54120238D02*
X191935746Y-54241190D01*
X191935746Y-54241190D02*
X192056699Y-54362142D01*
X192056699Y-54362142D02*
X192117175Y-54483095D01*
D11*
X208159580Y-50142857D02*
X208207200Y-50190476D01*
X208207200Y-50190476D02*
X208254819Y-50333333D01*
X208254819Y-50333333D02*
X208254819Y-50428571D01*
X208254819Y-50428571D02*
X208207200Y-50571428D01*
X208207200Y-50571428D02*
X208111961Y-50666666D01*
X208111961Y-50666666D02*
X208016723Y-50714285D01*
X208016723Y-50714285D02*
X207826247Y-50761904D01*
X207826247Y-50761904D02*
X207683390Y-50761904D01*
X207683390Y-50761904D02*
X207492914Y-50714285D01*
X207492914Y-50714285D02*
X207397676Y-50666666D01*
X207397676Y-50666666D02*
X207302438Y-50571428D01*
X207302438Y-50571428D02*
X207254819Y-50428571D01*
X207254819Y-50428571D02*
X207254819Y-50333333D01*
X207254819Y-50333333D02*
X207302438Y-50190476D01*
X207302438Y-50190476D02*
X207350057Y-50142857D01*
X207254819Y-49238095D02*
X207254819Y-49714285D01*
X207254819Y-49714285D02*
X207731009Y-49761904D01*
X207731009Y-49761904D02*
X207683390Y-49714285D01*
X207683390Y-49714285D02*
X207635771Y-49619047D01*
X207635771Y-49619047D02*
X207635771Y-49380952D01*
X207635771Y-49380952D02*
X207683390Y-49285714D01*
X207683390Y-49285714D02*
X207731009Y-49238095D01*
X207731009Y-49238095D02*
X207826247Y-49190476D01*
X207826247Y-49190476D02*
X208064342Y-49190476D01*
X208064342Y-49190476D02*
X208159580Y-49238095D01*
X208159580Y-49238095D02*
X208207200Y-49285714D01*
X208207200Y-49285714D02*
X208254819Y-49380952D01*
X208254819Y-49380952D02*
X208254819Y-49619047D01*
X208254819Y-49619047D02*
X208207200Y-49714285D01*
X208207200Y-49714285D02*
X208159580Y-49761904D01*
X207254819Y-48857142D02*
X207254819Y-48238095D01*
X207254819Y-48238095D02*
X207635771Y-48571428D01*
X207635771Y-48571428D02*
X207635771Y-48428571D01*
X207635771Y-48428571D02*
X207683390Y-48333333D01*
X207683390Y-48333333D02*
X207731009Y-48285714D01*
X207731009Y-48285714D02*
X207826247Y-48238095D01*
X207826247Y-48238095D02*
X208064342Y-48238095D01*
X208064342Y-48238095D02*
X208159580Y-48285714D01*
X208159580Y-48285714D02*
X208207200Y-48333333D01*
X208207200Y-48333333D02*
X208254819Y-48428571D01*
X208254819Y-48428571D02*
X208254819Y-48714285D01*
X208254819Y-48714285D02*
X208207200Y-48809523D01*
X208207200Y-48809523D02*
X208159580Y-48857142D01*
X201957142Y-51799580D02*
X201909523Y-51847200D01*
X201909523Y-51847200D02*
X201766666Y-51894819D01*
X201766666Y-51894819D02*
X201671428Y-51894819D01*
X201671428Y-51894819D02*
X201528571Y-51847200D01*
X201528571Y-51847200D02*
X201433333Y-51751961D01*
X201433333Y-51751961D02*
X201385714Y-51656723D01*
X201385714Y-51656723D02*
X201338095Y-51466247D01*
X201338095Y-51466247D02*
X201338095Y-51323390D01*
X201338095Y-51323390D02*
X201385714Y-51132914D01*
X201385714Y-51132914D02*
X201433333Y-51037676D01*
X201433333Y-51037676D02*
X201528571Y-50942438D01*
X201528571Y-50942438D02*
X201671428Y-50894819D01*
X201671428Y-50894819D02*
X201766666Y-50894819D01*
X201766666Y-50894819D02*
X201909523Y-50942438D01*
X201909523Y-50942438D02*
X201957142Y-50990057D01*
X202338095Y-50990057D02*
X202385714Y-50942438D01*
X202385714Y-50942438D02*
X202480952Y-50894819D01*
X202480952Y-50894819D02*
X202719047Y-50894819D01*
X202719047Y-50894819D02*
X202814285Y-50942438D01*
X202814285Y-50942438D02*
X202861904Y-50990057D01*
X202861904Y-50990057D02*
X202909523Y-51085295D01*
X202909523Y-51085295D02*
X202909523Y-51180533D01*
X202909523Y-51180533D02*
X202861904Y-51323390D01*
X202861904Y-51323390D02*
X202290476Y-51894819D01*
X202290476Y-51894819D02*
X202909523Y-51894819D01*
X203766666Y-51228152D02*
X203766666Y-51894819D01*
X203528571Y-50847200D02*
X203290476Y-51561485D01*
X203290476Y-51561485D02*
X203909523Y-51561485D01*
D13*
X220774318Y-58611666D02*
X220774318Y-59216428D01*
X220774318Y-59216428D02*
X219504318Y-59216428D01*
X219625270Y-58248809D02*
X219564794Y-58188333D01*
X219564794Y-58188333D02*
X219504318Y-58067380D01*
X219504318Y-58067380D02*
X219504318Y-57764999D01*
X219504318Y-57764999D02*
X219564794Y-57644047D01*
X219564794Y-57644047D02*
X219625270Y-57583571D01*
X219625270Y-57583571D02*
X219746222Y-57523094D01*
X219746222Y-57523094D02*
X219867175Y-57523094D01*
X219867175Y-57523094D02*
X220048603Y-57583571D01*
X220048603Y-57583571D02*
X220774318Y-58309285D01*
X220774318Y-58309285D02*
X220774318Y-57523094D01*
D12*
X217077190Y-56521428D02*
X217101000Y-56545237D01*
X217101000Y-56545237D02*
X217124809Y-56616666D01*
X217124809Y-56616666D02*
X217124809Y-56664285D01*
X217124809Y-56664285D02*
X217101000Y-56735713D01*
X217101000Y-56735713D02*
X217053380Y-56783332D01*
X217053380Y-56783332D02*
X217005761Y-56807142D01*
X217005761Y-56807142D02*
X216910523Y-56830951D01*
X216910523Y-56830951D02*
X216839095Y-56830951D01*
X216839095Y-56830951D02*
X216743857Y-56807142D01*
X216743857Y-56807142D02*
X216696238Y-56783332D01*
X216696238Y-56783332D02*
X216648619Y-56735713D01*
X216648619Y-56735713D02*
X216624809Y-56664285D01*
X216624809Y-56664285D02*
X216624809Y-56616666D01*
X216624809Y-56616666D02*
X216648619Y-56545237D01*
X216648619Y-56545237D02*
X216672428Y-56521428D01*
X216791476Y-56092856D02*
X217124809Y-56092856D01*
X216601000Y-56211904D02*
X216958142Y-56330951D01*
X216958142Y-56330951D02*
X216958142Y-56021428D01*
X216624809Y-55878571D02*
X216624809Y-55569047D01*
X216624809Y-55569047D02*
X216815285Y-55735714D01*
X216815285Y-55735714D02*
X216815285Y-55664285D01*
X216815285Y-55664285D02*
X216839095Y-55616666D01*
X216839095Y-55616666D02*
X216862904Y-55592857D01*
X216862904Y-55592857D02*
X216910523Y-55569047D01*
X216910523Y-55569047D02*
X217029571Y-55569047D01*
X217029571Y-55569047D02*
X217077190Y-55592857D01*
X217077190Y-55592857D02*
X217101000Y-55616666D01*
X217101000Y-55616666D02*
X217124809Y-55664285D01*
X217124809Y-55664285D02*
X217124809Y-55807142D01*
X217124809Y-55807142D02*
X217101000Y-55854761D01*
X217101000Y-55854761D02*
X217077190Y-55878571D01*
X216377190Y-56721428D02*
X216401000Y-56745237D01*
X216401000Y-56745237D02*
X216424809Y-56816666D01*
X216424809Y-56816666D02*
X216424809Y-56864285D01*
X216424809Y-56864285D02*
X216401000Y-56935713D01*
X216401000Y-56935713D02*
X216353380Y-56983332D01*
X216353380Y-56983332D02*
X216305761Y-57007142D01*
X216305761Y-57007142D02*
X216210523Y-57030951D01*
X216210523Y-57030951D02*
X216139095Y-57030951D01*
X216139095Y-57030951D02*
X216043857Y-57007142D01*
X216043857Y-57007142D02*
X215996238Y-56983332D01*
X215996238Y-56983332D02*
X215948619Y-56935713D01*
X215948619Y-56935713D02*
X215924809Y-56864285D01*
X215924809Y-56864285D02*
X215924809Y-56816666D01*
X215924809Y-56816666D02*
X215948619Y-56745237D01*
X215948619Y-56745237D02*
X215972428Y-56721428D01*
X216091476Y-56292856D02*
X216424809Y-56292856D01*
X215901000Y-56411904D02*
X216258142Y-56530951D01*
X216258142Y-56530951D02*
X216258142Y-56221428D01*
X216424809Y-55769047D02*
X216424809Y-56054761D01*
X216424809Y-55911904D02*
X215924809Y-55911904D01*
X215924809Y-55911904D02*
X215996238Y-55959523D01*
X215996238Y-55959523D02*
X216043857Y-56007142D01*
X216043857Y-56007142D02*
X216067666Y-56054761D01*
D11*
X210557142Y-42754819D02*
X210223809Y-42278628D01*
X209985714Y-42754819D02*
X209985714Y-41754819D01*
X209985714Y-41754819D02*
X210366666Y-41754819D01*
X210366666Y-41754819D02*
X210461904Y-41802438D01*
X210461904Y-41802438D02*
X210509523Y-41850057D01*
X210509523Y-41850057D02*
X210557142Y-41945295D01*
X210557142Y-41945295D02*
X210557142Y-42088152D01*
X210557142Y-42088152D02*
X210509523Y-42183390D01*
X210509523Y-42183390D02*
X210461904Y-42231009D01*
X210461904Y-42231009D02*
X210366666Y-42278628D01*
X210366666Y-42278628D02*
X209985714Y-42278628D01*
X210938095Y-41850057D02*
X210985714Y-41802438D01*
X210985714Y-41802438D02*
X211080952Y-41754819D01*
X211080952Y-41754819D02*
X211319047Y-41754819D01*
X211319047Y-41754819D02*
X211414285Y-41802438D01*
X211414285Y-41802438D02*
X211461904Y-41850057D01*
X211461904Y-41850057D02*
X211509523Y-41945295D01*
X211509523Y-41945295D02*
X211509523Y-42040533D01*
X211509523Y-42040533D02*
X211461904Y-42183390D01*
X211461904Y-42183390D02*
X210890476Y-42754819D01*
X210890476Y-42754819D02*
X211509523Y-42754819D01*
X212128571Y-41754819D02*
X212223809Y-41754819D01*
X212223809Y-41754819D02*
X212319047Y-41802438D01*
X212319047Y-41802438D02*
X212366666Y-41850057D01*
X212366666Y-41850057D02*
X212414285Y-41945295D01*
X212414285Y-41945295D02*
X212461904Y-42135771D01*
X212461904Y-42135771D02*
X212461904Y-42373866D01*
X212461904Y-42373866D02*
X212414285Y-42564342D01*
X212414285Y-42564342D02*
X212366666Y-42659580D01*
X212366666Y-42659580D02*
X212319047Y-42707200D01*
X212319047Y-42707200D02*
X212223809Y-42754819D01*
X212223809Y-42754819D02*
X212128571Y-42754819D01*
X212128571Y-42754819D02*
X212033333Y-42707200D01*
X212033333Y-42707200D02*
X211985714Y-42659580D01*
X211985714Y-42659580D02*
X211938095Y-42564342D01*
X211938095Y-42564342D02*
X211890476Y-42373866D01*
X211890476Y-42373866D02*
X211890476Y-42135771D01*
X211890476Y-42135771D02*
X211938095Y-41945295D01*
X211938095Y-41945295D02*
X211985714Y-41850057D01*
X211985714Y-41850057D02*
X212033333Y-41802438D01*
X212033333Y-41802438D02*
X212128571Y-41754819D01*
X184261905Y-63954819D02*
X184261905Y-62954819D01*
X184261905Y-62954819D02*
X184500000Y-62954819D01*
X184500000Y-62954819D02*
X184642857Y-63002438D01*
X184642857Y-63002438D02*
X184738095Y-63097676D01*
X184738095Y-63097676D02*
X184785714Y-63192914D01*
X184785714Y-63192914D02*
X184833333Y-63383390D01*
X184833333Y-63383390D02*
X184833333Y-63526247D01*
X184833333Y-63526247D02*
X184785714Y-63716723D01*
X184785714Y-63716723D02*
X184738095Y-63811961D01*
X184738095Y-63811961D02*
X184642857Y-63907200D01*
X184642857Y-63907200D02*
X184500000Y-63954819D01*
X184500000Y-63954819D02*
X184261905Y-63954819D01*
X185404762Y-63383390D02*
X185309524Y-63335771D01*
X185309524Y-63335771D02*
X185261905Y-63288152D01*
X185261905Y-63288152D02*
X185214286Y-63192914D01*
X185214286Y-63192914D02*
X185214286Y-63145295D01*
X185214286Y-63145295D02*
X185261905Y-63050057D01*
X185261905Y-63050057D02*
X185309524Y-63002438D01*
X185309524Y-63002438D02*
X185404762Y-62954819D01*
X185404762Y-62954819D02*
X185595238Y-62954819D01*
X185595238Y-62954819D02*
X185690476Y-63002438D01*
X185690476Y-63002438D02*
X185738095Y-63050057D01*
X185738095Y-63050057D02*
X185785714Y-63145295D01*
X185785714Y-63145295D02*
X185785714Y-63192914D01*
X185785714Y-63192914D02*
X185738095Y-63288152D01*
X185738095Y-63288152D02*
X185690476Y-63335771D01*
X185690476Y-63335771D02*
X185595238Y-63383390D01*
X185595238Y-63383390D02*
X185404762Y-63383390D01*
X185404762Y-63383390D02*
X185309524Y-63431009D01*
X185309524Y-63431009D02*
X185261905Y-63478628D01*
X185261905Y-63478628D02*
X185214286Y-63573866D01*
X185214286Y-63573866D02*
X185214286Y-63764342D01*
X185214286Y-63764342D02*
X185261905Y-63859580D01*
X185261905Y-63859580D02*
X185309524Y-63907200D01*
X185309524Y-63907200D02*
X185404762Y-63954819D01*
X185404762Y-63954819D02*
X185595238Y-63954819D01*
X185595238Y-63954819D02*
X185690476Y-63907200D01*
X185690476Y-63907200D02*
X185738095Y-63859580D01*
X185738095Y-63859580D02*
X185785714Y-63764342D01*
X185785714Y-63764342D02*
X185785714Y-63573866D01*
X185785714Y-63573866D02*
X185738095Y-63478628D01*
X185738095Y-63478628D02*
X185690476Y-63431009D01*
X185690476Y-63431009D02*
X185595238Y-63383390D01*
X227038095Y-26254819D02*
X227038095Y-25254819D01*
X227038095Y-25731009D02*
X227609523Y-25731009D01*
X227609523Y-26254819D02*
X227609523Y-25254819D01*
X228514285Y-25588152D02*
X228514285Y-26254819D01*
X228276190Y-25207200D02*
X228038095Y-25921485D01*
X228038095Y-25921485D02*
X228657142Y-25921485D01*
X209079733Y-11554919D02*
X208746400Y-11078728D01*
X208508305Y-11554919D02*
X208508305Y-10554919D01*
X208508305Y-10554919D02*
X208889257Y-10554919D01*
X208889257Y-10554919D02*
X208984495Y-10602538D01*
X208984495Y-10602538D02*
X209032114Y-10650157D01*
X209032114Y-10650157D02*
X209079733Y-10745395D01*
X209079733Y-10745395D02*
X209079733Y-10888252D01*
X209079733Y-10888252D02*
X209032114Y-10983490D01*
X209032114Y-10983490D02*
X208984495Y-11031109D01*
X208984495Y-11031109D02*
X208889257Y-11078728D01*
X208889257Y-11078728D02*
X208508305Y-11078728D01*
X209651162Y-10983490D02*
X209555924Y-10935871D01*
X209555924Y-10935871D02*
X209508305Y-10888252D01*
X209508305Y-10888252D02*
X209460686Y-10793014D01*
X209460686Y-10793014D02*
X209460686Y-10745395D01*
X209460686Y-10745395D02*
X209508305Y-10650157D01*
X209508305Y-10650157D02*
X209555924Y-10602538D01*
X209555924Y-10602538D02*
X209651162Y-10554919D01*
X209651162Y-10554919D02*
X209841638Y-10554919D01*
X209841638Y-10554919D02*
X209936876Y-10602538D01*
X209936876Y-10602538D02*
X209984495Y-10650157D01*
X209984495Y-10650157D02*
X210032114Y-10745395D01*
X210032114Y-10745395D02*
X210032114Y-10793014D01*
X210032114Y-10793014D02*
X209984495Y-10888252D01*
X209984495Y-10888252D02*
X209936876Y-10935871D01*
X209936876Y-10935871D02*
X209841638Y-10983490D01*
X209841638Y-10983490D02*
X209651162Y-10983490D01*
X209651162Y-10983490D02*
X209555924Y-11031109D01*
X209555924Y-11031109D02*
X209508305Y-11078728D01*
X209508305Y-11078728D02*
X209460686Y-11173966D01*
X209460686Y-11173966D02*
X209460686Y-11364442D01*
X209460686Y-11364442D02*
X209508305Y-11459680D01*
X209508305Y-11459680D02*
X209555924Y-11507300D01*
X209555924Y-11507300D02*
X209651162Y-11554919D01*
X209651162Y-11554919D02*
X209841638Y-11554919D01*
X209841638Y-11554919D02*
X209936876Y-11507300D01*
X209936876Y-11507300D02*
X209984495Y-11459680D01*
X209984495Y-11459680D02*
X210032114Y-11364442D01*
X210032114Y-11364442D02*
X210032114Y-11173966D01*
X210032114Y-11173966D02*
X209984495Y-11078728D01*
X209984495Y-11078728D02*
X209936876Y-11031109D01*
X209936876Y-11031109D02*
X209841638Y-10983490D01*
D12*
X208624809Y-65021428D02*
X208386714Y-65188094D01*
X208624809Y-65307142D02*
X208124809Y-65307142D01*
X208124809Y-65307142D02*
X208124809Y-65116666D01*
X208124809Y-65116666D02*
X208148619Y-65069047D01*
X208148619Y-65069047D02*
X208172428Y-65045237D01*
X208172428Y-65045237D02*
X208220047Y-65021428D01*
X208220047Y-65021428D02*
X208291476Y-65021428D01*
X208291476Y-65021428D02*
X208339095Y-65045237D01*
X208339095Y-65045237D02*
X208362904Y-65069047D01*
X208362904Y-65069047D02*
X208386714Y-65116666D01*
X208386714Y-65116666D02*
X208386714Y-65307142D01*
X208172428Y-64830951D02*
X208148619Y-64807142D01*
X208148619Y-64807142D02*
X208124809Y-64759523D01*
X208124809Y-64759523D02*
X208124809Y-64640475D01*
X208124809Y-64640475D02*
X208148619Y-64592856D01*
X208148619Y-64592856D02*
X208172428Y-64569047D01*
X208172428Y-64569047D02*
X208220047Y-64545237D01*
X208220047Y-64545237D02*
X208267666Y-64545237D01*
X208267666Y-64545237D02*
X208339095Y-64569047D01*
X208339095Y-64569047D02*
X208624809Y-64854761D01*
X208624809Y-64854761D02*
X208624809Y-64545237D01*
X208291476Y-64116666D02*
X208624809Y-64116666D01*
X208101000Y-64235714D02*
X208458142Y-64354761D01*
X208458142Y-64354761D02*
X208458142Y-64045238D01*
D11*
X215354819Y-54761904D02*
X216164342Y-54761904D01*
X216164342Y-54761904D02*
X216259580Y-54714285D01*
X216259580Y-54714285D02*
X216307200Y-54666666D01*
X216307200Y-54666666D02*
X216354819Y-54571428D01*
X216354819Y-54571428D02*
X216354819Y-54380952D01*
X216354819Y-54380952D02*
X216307200Y-54285714D01*
X216307200Y-54285714D02*
X216259580Y-54238095D01*
X216259580Y-54238095D02*
X216164342Y-54190476D01*
X216164342Y-54190476D02*
X215354819Y-54190476D01*
X216354819Y-53190476D02*
X216354819Y-53761904D01*
X216354819Y-53476190D02*
X215354819Y-53476190D01*
X215354819Y-53476190D02*
X215497676Y-53571428D01*
X215497676Y-53571428D02*
X215592914Y-53666666D01*
X215592914Y-53666666D02*
X215640533Y-53761904D01*
X223954819Y-47254166D02*
X223954819Y-47730356D01*
X223954819Y-47730356D02*
X222954819Y-47730356D01*
X223288152Y-46492261D02*
X223954819Y-46492261D01*
X222907200Y-46730356D02*
X223621485Y-46968451D01*
X223621485Y-46968451D02*
X223621485Y-46349404D01*
X214259580Y-65032857D02*
X214307200Y-65080476D01*
X214307200Y-65080476D02*
X214354819Y-65223333D01*
X214354819Y-65223333D02*
X214354819Y-65318571D01*
X214354819Y-65318571D02*
X214307200Y-65461428D01*
X214307200Y-65461428D02*
X214211961Y-65556666D01*
X214211961Y-65556666D02*
X214116723Y-65604285D01*
X214116723Y-65604285D02*
X213926247Y-65651904D01*
X213926247Y-65651904D02*
X213783390Y-65651904D01*
X213783390Y-65651904D02*
X213592914Y-65604285D01*
X213592914Y-65604285D02*
X213497676Y-65556666D01*
X213497676Y-65556666D02*
X213402438Y-65461428D01*
X213402438Y-65461428D02*
X213354819Y-65318571D01*
X213354819Y-65318571D02*
X213354819Y-65223333D01*
X213354819Y-65223333D02*
X213402438Y-65080476D01*
X213402438Y-65080476D02*
X213450057Y-65032857D01*
X213688152Y-64175714D02*
X214354819Y-64175714D01*
X213307200Y-64413809D02*
X214021485Y-64651904D01*
X214021485Y-64651904D02*
X214021485Y-64032857D01*
X214354819Y-63604285D02*
X214354819Y-63413809D01*
X214354819Y-63413809D02*
X214307200Y-63318571D01*
X214307200Y-63318571D02*
X214259580Y-63270952D01*
X214259580Y-63270952D02*
X214116723Y-63175714D01*
X214116723Y-63175714D02*
X213926247Y-63128095D01*
X213926247Y-63128095D02*
X213545295Y-63128095D01*
X213545295Y-63128095D02*
X213450057Y-63175714D01*
X213450057Y-63175714D02*
X213402438Y-63223333D01*
X213402438Y-63223333D02*
X213354819Y-63318571D01*
X213354819Y-63318571D02*
X213354819Y-63509047D01*
X213354819Y-63509047D02*
X213402438Y-63604285D01*
X213402438Y-63604285D02*
X213450057Y-63651904D01*
X213450057Y-63651904D02*
X213545295Y-63699523D01*
X213545295Y-63699523D02*
X213783390Y-63699523D01*
X213783390Y-63699523D02*
X213878628Y-63651904D01*
X213878628Y-63651904D02*
X213926247Y-63604285D01*
X213926247Y-63604285D02*
X213973866Y-63509047D01*
X213973866Y-63509047D02*
X213973866Y-63318571D01*
X213973866Y-63318571D02*
X213926247Y-63223333D01*
X213926247Y-63223333D02*
X213878628Y-63175714D01*
X213878628Y-63175714D02*
X213783390Y-63128095D01*
X184261905Y-62754819D02*
X184261905Y-61754819D01*
X184261905Y-61754819D02*
X184500000Y-61754819D01*
X184500000Y-61754819D02*
X184642857Y-61802438D01*
X184642857Y-61802438D02*
X184738095Y-61897676D01*
X184738095Y-61897676D02*
X184785714Y-61992914D01*
X184785714Y-61992914D02*
X184833333Y-62183390D01*
X184833333Y-62183390D02*
X184833333Y-62326247D01*
X184833333Y-62326247D02*
X184785714Y-62516723D01*
X184785714Y-62516723D02*
X184738095Y-62611961D01*
X184738095Y-62611961D02*
X184642857Y-62707200D01*
X184642857Y-62707200D02*
X184500000Y-62754819D01*
X184500000Y-62754819D02*
X184261905Y-62754819D01*
X185309524Y-62754819D02*
X185500000Y-62754819D01*
X185500000Y-62754819D02*
X185595238Y-62707200D01*
X185595238Y-62707200D02*
X185642857Y-62659580D01*
X185642857Y-62659580D02*
X185738095Y-62516723D01*
X185738095Y-62516723D02*
X185785714Y-62326247D01*
X185785714Y-62326247D02*
X185785714Y-61945295D01*
X185785714Y-61945295D02*
X185738095Y-61850057D01*
X185738095Y-61850057D02*
X185690476Y-61802438D01*
X185690476Y-61802438D02*
X185595238Y-61754819D01*
X185595238Y-61754819D02*
X185404762Y-61754819D01*
X185404762Y-61754819D02*
X185309524Y-61802438D01*
X185309524Y-61802438D02*
X185261905Y-61850057D01*
X185261905Y-61850057D02*
X185214286Y-61945295D01*
X185214286Y-61945295D02*
X185214286Y-62183390D01*
X185214286Y-62183390D02*
X185261905Y-62278628D01*
X185261905Y-62278628D02*
X185309524Y-62326247D01*
X185309524Y-62326247D02*
X185404762Y-62373866D01*
X185404762Y-62373866D02*
X185595238Y-62373866D01*
X185595238Y-62373866D02*
X185690476Y-62326247D01*
X185690476Y-62326247D02*
X185738095Y-62278628D01*
X185738095Y-62278628D02*
X185785714Y-62183390D01*
X196454819Y-62042857D02*
X195978628Y-62376190D01*
X196454819Y-62614285D02*
X195454819Y-62614285D01*
X195454819Y-62614285D02*
X195454819Y-62233333D01*
X195454819Y-62233333D02*
X195502438Y-62138095D01*
X195502438Y-62138095D02*
X195550057Y-62090476D01*
X195550057Y-62090476D02*
X195645295Y-62042857D01*
X195645295Y-62042857D02*
X195788152Y-62042857D01*
X195788152Y-62042857D02*
X195883390Y-62090476D01*
X195883390Y-62090476D02*
X195931009Y-62138095D01*
X195931009Y-62138095D02*
X195978628Y-62233333D01*
X195978628Y-62233333D02*
X195978628Y-62614285D01*
X196454819Y-61090476D02*
X196454819Y-61661904D01*
X196454819Y-61376190D02*
X195454819Y-61376190D01*
X195454819Y-61376190D02*
X195597676Y-61471428D01*
X195597676Y-61471428D02*
X195692914Y-61566666D01*
X195692914Y-61566666D02*
X195740533Y-61661904D01*
X195454819Y-60471428D02*
X195454819Y-60376190D01*
X195454819Y-60376190D02*
X195502438Y-60280952D01*
X195502438Y-60280952D02*
X195550057Y-60233333D01*
X195550057Y-60233333D02*
X195645295Y-60185714D01*
X195645295Y-60185714D02*
X195835771Y-60138095D01*
X195835771Y-60138095D02*
X196073866Y-60138095D01*
X196073866Y-60138095D02*
X196264342Y-60185714D01*
X196264342Y-60185714D02*
X196359580Y-60233333D01*
X196359580Y-60233333D02*
X196407200Y-60280952D01*
X196407200Y-60280952D02*
X196454819Y-60376190D01*
X196454819Y-60376190D02*
X196454819Y-60471428D01*
X196454819Y-60471428D02*
X196407200Y-60566666D01*
X196407200Y-60566666D02*
X196359580Y-60614285D01*
X196359580Y-60614285D02*
X196264342Y-60661904D01*
X196264342Y-60661904D02*
X196073866Y-60709523D01*
X196073866Y-60709523D02*
X195835771Y-60709523D01*
X195835771Y-60709523D02*
X195645295Y-60661904D01*
X195645295Y-60661904D02*
X195550057Y-60614285D01*
X195550057Y-60614285D02*
X195502438Y-60566666D01*
X195502438Y-60566666D02*
X195454819Y-60471428D01*
D12*
X219678571Y-56624809D02*
X219511905Y-56386714D01*
X219392857Y-56624809D02*
X219392857Y-56124809D01*
X219392857Y-56124809D02*
X219583333Y-56124809D01*
X219583333Y-56124809D02*
X219630952Y-56148619D01*
X219630952Y-56148619D02*
X219654762Y-56172428D01*
X219654762Y-56172428D02*
X219678571Y-56220047D01*
X219678571Y-56220047D02*
X219678571Y-56291476D01*
X219678571Y-56291476D02*
X219654762Y-56339095D01*
X219654762Y-56339095D02*
X219630952Y-56362904D01*
X219630952Y-56362904D02*
X219583333Y-56386714D01*
X219583333Y-56386714D02*
X219392857Y-56386714D01*
X219869048Y-56172428D02*
X219892857Y-56148619D01*
X219892857Y-56148619D02*
X219940476Y-56124809D01*
X219940476Y-56124809D02*
X220059524Y-56124809D01*
X220059524Y-56124809D02*
X220107143Y-56148619D01*
X220107143Y-56148619D02*
X220130952Y-56172428D01*
X220130952Y-56172428D02*
X220154762Y-56220047D01*
X220154762Y-56220047D02*
X220154762Y-56267666D01*
X220154762Y-56267666D02*
X220130952Y-56339095D01*
X220130952Y-56339095D02*
X219845238Y-56624809D01*
X219845238Y-56624809D02*
X220154762Y-56624809D01*
X220440476Y-56339095D02*
X220392857Y-56315285D01*
X220392857Y-56315285D02*
X220369047Y-56291476D01*
X220369047Y-56291476D02*
X220345238Y-56243857D01*
X220345238Y-56243857D02*
X220345238Y-56220047D01*
X220345238Y-56220047D02*
X220369047Y-56172428D01*
X220369047Y-56172428D02*
X220392857Y-56148619D01*
X220392857Y-56148619D02*
X220440476Y-56124809D01*
X220440476Y-56124809D02*
X220535714Y-56124809D01*
X220535714Y-56124809D02*
X220583333Y-56148619D01*
X220583333Y-56148619D02*
X220607142Y-56172428D01*
X220607142Y-56172428D02*
X220630952Y-56220047D01*
X220630952Y-56220047D02*
X220630952Y-56243857D01*
X220630952Y-56243857D02*
X220607142Y-56291476D01*
X220607142Y-56291476D02*
X220583333Y-56315285D01*
X220583333Y-56315285D02*
X220535714Y-56339095D01*
X220535714Y-56339095D02*
X220440476Y-56339095D01*
X220440476Y-56339095D02*
X220392857Y-56362904D01*
X220392857Y-56362904D02*
X220369047Y-56386714D01*
X220369047Y-56386714D02*
X220345238Y-56434333D01*
X220345238Y-56434333D02*
X220345238Y-56529571D01*
X220345238Y-56529571D02*
X220369047Y-56577190D01*
X220369047Y-56577190D02*
X220392857Y-56601000D01*
X220392857Y-56601000D02*
X220440476Y-56624809D01*
X220440476Y-56624809D02*
X220535714Y-56624809D01*
X220535714Y-56624809D02*
X220583333Y-56601000D01*
X220583333Y-56601000D02*
X220607142Y-56577190D01*
X220607142Y-56577190D02*
X220630952Y-56529571D01*
X220630952Y-56529571D02*
X220630952Y-56434333D01*
X220630952Y-56434333D02*
X220607142Y-56386714D01*
X220607142Y-56386714D02*
X220583333Y-56362904D01*
X220583333Y-56362904D02*
X220535714Y-56339095D01*
D11*
X194454819Y-46242857D02*
X193978628Y-46576190D01*
X194454819Y-46814285D02*
X193454819Y-46814285D01*
X193454819Y-46814285D02*
X193454819Y-46433333D01*
X193454819Y-46433333D02*
X193502438Y-46338095D01*
X193502438Y-46338095D02*
X193550057Y-46290476D01*
X193550057Y-46290476D02*
X193645295Y-46242857D01*
X193645295Y-46242857D02*
X193788152Y-46242857D01*
X193788152Y-46242857D02*
X193883390Y-46290476D01*
X193883390Y-46290476D02*
X193931009Y-46338095D01*
X193931009Y-46338095D02*
X193978628Y-46433333D01*
X193978628Y-46433333D02*
X193978628Y-46814285D01*
X194454819Y-45290476D02*
X194454819Y-45861904D01*
X194454819Y-45576190D02*
X193454819Y-45576190D01*
X193454819Y-45576190D02*
X193597676Y-45671428D01*
X193597676Y-45671428D02*
X193692914Y-45766666D01*
X193692914Y-45766666D02*
X193740533Y-45861904D01*
X193454819Y-44957142D02*
X193454819Y-44338095D01*
X193454819Y-44338095D02*
X193835771Y-44671428D01*
X193835771Y-44671428D02*
X193835771Y-44528571D01*
X193835771Y-44528571D02*
X193883390Y-44433333D01*
X193883390Y-44433333D02*
X193931009Y-44385714D01*
X193931009Y-44385714D02*
X194026247Y-44338095D01*
X194026247Y-44338095D02*
X194264342Y-44338095D01*
X194264342Y-44338095D02*
X194359580Y-44385714D01*
X194359580Y-44385714D02*
X194407200Y-44433333D01*
X194407200Y-44433333D02*
X194454819Y-44528571D01*
X194454819Y-44528571D02*
X194454819Y-44814285D01*
X194454819Y-44814285D02*
X194407200Y-44909523D01*
X194407200Y-44909523D02*
X194359580Y-44957142D01*
X206659580Y-53742857D02*
X206707200Y-53790476D01*
X206707200Y-53790476D02*
X206754819Y-53933333D01*
X206754819Y-53933333D02*
X206754819Y-54028571D01*
X206754819Y-54028571D02*
X206707200Y-54171428D01*
X206707200Y-54171428D02*
X206611961Y-54266666D01*
X206611961Y-54266666D02*
X206516723Y-54314285D01*
X206516723Y-54314285D02*
X206326247Y-54361904D01*
X206326247Y-54361904D02*
X206183390Y-54361904D01*
X206183390Y-54361904D02*
X205992914Y-54314285D01*
X205992914Y-54314285D02*
X205897676Y-54266666D01*
X205897676Y-54266666D02*
X205802438Y-54171428D01*
X205802438Y-54171428D02*
X205754819Y-54028571D01*
X205754819Y-54028571D02*
X205754819Y-53933333D01*
X205754819Y-53933333D02*
X205802438Y-53790476D01*
X205802438Y-53790476D02*
X205850057Y-53742857D01*
X205754819Y-52838095D02*
X205754819Y-53314285D01*
X205754819Y-53314285D02*
X206231009Y-53361904D01*
X206231009Y-53361904D02*
X206183390Y-53314285D01*
X206183390Y-53314285D02*
X206135771Y-53219047D01*
X206135771Y-53219047D02*
X206135771Y-52980952D01*
X206135771Y-52980952D02*
X206183390Y-52885714D01*
X206183390Y-52885714D02*
X206231009Y-52838095D01*
X206231009Y-52838095D02*
X206326247Y-52790476D01*
X206326247Y-52790476D02*
X206564342Y-52790476D01*
X206564342Y-52790476D02*
X206659580Y-52838095D01*
X206659580Y-52838095D02*
X206707200Y-52885714D01*
X206707200Y-52885714D02*
X206754819Y-52980952D01*
X206754819Y-52980952D02*
X206754819Y-53219047D01*
X206754819Y-53219047D02*
X206707200Y-53314285D01*
X206707200Y-53314285D02*
X206659580Y-53361904D01*
X205754819Y-51933333D02*
X205754819Y-52123809D01*
X205754819Y-52123809D02*
X205802438Y-52219047D01*
X205802438Y-52219047D02*
X205850057Y-52266666D01*
X205850057Y-52266666D02*
X205992914Y-52361904D01*
X205992914Y-52361904D02*
X206183390Y-52409523D01*
X206183390Y-52409523D02*
X206564342Y-52409523D01*
X206564342Y-52409523D02*
X206659580Y-52361904D01*
X206659580Y-52361904D02*
X206707200Y-52314285D01*
X206707200Y-52314285D02*
X206754819Y-52219047D01*
X206754819Y-52219047D02*
X206754819Y-52028571D01*
X206754819Y-52028571D02*
X206707200Y-51933333D01*
X206707200Y-51933333D02*
X206659580Y-51885714D01*
X206659580Y-51885714D02*
X206564342Y-51838095D01*
X206564342Y-51838095D02*
X206326247Y-51838095D01*
X206326247Y-51838095D02*
X206231009Y-51885714D01*
X206231009Y-51885714D02*
X206183390Y-51933333D01*
X206183390Y-51933333D02*
X206135771Y-52028571D01*
X206135771Y-52028571D02*
X206135771Y-52219047D01*
X206135771Y-52219047D02*
X206183390Y-52314285D01*
X206183390Y-52314285D02*
X206231009Y-52361904D01*
X206231009Y-52361904D02*
X206326247Y-52409523D01*
X227454819Y-57433333D02*
X228169104Y-57433333D01*
X228169104Y-57433333D02*
X228311961Y-57480952D01*
X228311961Y-57480952D02*
X228407200Y-57576190D01*
X228407200Y-57576190D02*
X228454819Y-57719047D01*
X228454819Y-57719047D02*
X228454819Y-57814285D01*
X228454819Y-56433333D02*
X228454819Y-57004761D01*
X228454819Y-56719047D02*
X227454819Y-56719047D01*
X227454819Y-56719047D02*
X227597676Y-56814285D01*
X227597676Y-56814285D02*
X227692914Y-56909523D01*
X227692914Y-56909523D02*
X227740533Y-57004761D01*
X213833333Y-39454819D02*
X213500000Y-38978628D01*
X213261905Y-39454819D02*
X213261905Y-38454819D01*
X213261905Y-38454819D02*
X213642857Y-38454819D01*
X213642857Y-38454819D02*
X213738095Y-38502438D01*
X213738095Y-38502438D02*
X213785714Y-38550057D01*
X213785714Y-38550057D02*
X213833333Y-38645295D01*
X213833333Y-38645295D02*
X213833333Y-38788152D01*
X213833333Y-38788152D02*
X213785714Y-38883390D01*
X213785714Y-38883390D02*
X213738095Y-38931009D01*
X213738095Y-38931009D02*
X213642857Y-38978628D01*
X213642857Y-38978628D02*
X213261905Y-38978628D01*
X214309524Y-39454819D02*
X214500000Y-39454819D01*
X214500000Y-39454819D02*
X214595238Y-39407200D01*
X214595238Y-39407200D02*
X214642857Y-39359580D01*
X214642857Y-39359580D02*
X214738095Y-39216723D01*
X214738095Y-39216723D02*
X214785714Y-39026247D01*
X214785714Y-39026247D02*
X214785714Y-38645295D01*
X214785714Y-38645295D02*
X214738095Y-38550057D01*
X214738095Y-38550057D02*
X214690476Y-38502438D01*
X214690476Y-38502438D02*
X214595238Y-38454819D01*
X214595238Y-38454819D02*
X214404762Y-38454819D01*
X214404762Y-38454819D02*
X214309524Y-38502438D01*
X214309524Y-38502438D02*
X214261905Y-38550057D01*
X214261905Y-38550057D02*
X214214286Y-38645295D01*
X214214286Y-38645295D02*
X214214286Y-38883390D01*
X214214286Y-38883390D02*
X214261905Y-38978628D01*
X214261905Y-38978628D02*
X214309524Y-39026247D01*
X214309524Y-39026247D02*
X214404762Y-39073866D01*
X214404762Y-39073866D02*
X214595238Y-39073866D01*
X214595238Y-39073866D02*
X214690476Y-39026247D01*
X214690476Y-39026247D02*
X214738095Y-38978628D01*
X214738095Y-38978628D02*
X214785714Y-38883390D01*
X117838095Y-28054819D02*
X117838095Y-27054819D01*
X117838095Y-27531009D02*
X118409523Y-27531009D01*
X118409523Y-28054819D02*
X118409523Y-27054819D01*
X118838095Y-27150057D02*
X118885714Y-27102438D01*
X118885714Y-27102438D02*
X118980952Y-27054819D01*
X118980952Y-27054819D02*
X119219047Y-27054819D01*
X119219047Y-27054819D02*
X119314285Y-27102438D01*
X119314285Y-27102438D02*
X119361904Y-27150057D01*
X119361904Y-27150057D02*
X119409523Y-27245295D01*
X119409523Y-27245295D02*
X119409523Y-27340533D01*
X119409523Y-27340533D02*
X119361904Y-27483390D01*
X119361904Y-27483390D02*
X118790476Y-28054819D01*
X118790476Y-28054819D02*
X119409523Y-28054819D01*
X211959580Y-64842857D02*
X212007200Y-64890476D01*
X212007200Y-64890476D02*
X212054819Y-65033333D01*
X212054819Y-65033333D02*
X212054819Y-65128571D01*
X212054819Y-65128571D02*
X212007200Y-65271428D01*
X212007200Y-65271428D02*
X211911961Y-65366666D01*
X211911961Y-65366666D02*
X211816723Y-65414285D01*
X211816723Y-65414285D02*
X211626247Y-65461904D01*
X211626247Y-65461904D02*
X211483390Y-65461904D01*
X211483390Y-65461904D02*
X211292914Y-65414285D01*
X211292914Y-65414285D02*
X211197676Y-65366666D01*
X211197676Y-65366666D02*
X211102438Y-65271428D01*
X211102438Y-65271428D02*
X211054819Y-65128571D01*
X211054819Y-65128571D02*
X211054819Y-65033333D01*
X211054819Y-65033333D02*
X211102438Y-64890476D01*
X211102438Y-64890476D02*
X211150057Y-64842857D01*
X211388152Y-63985714D02*
X212054819Y-63985714D01*
X211007200Y-64223809D02*
X211721485Y-64461904D01*
X211721485Y-64461904D02*
X211721485Y-63842857D01*
X211054819Y-63033333D02*
X211054819Y-63223809D01*
X211054819Y-63223809D02*
X211102438Y-63319047D01*
X211102438Y-63319047D02*
X211150057Y-63366666D01*
X211150057Y-63366666D02*
X211292914Y-63461904D01*
X211292914Y-63461904D02*
X211483390Y-63509523D01*
X211483390Y-63509523D02*
X211864342Y-63509523D01*
X211864342Y-63509523D02*
X211959580Y-63461904D01*
X211959580Y-63461904D02*
X212007200Y-63414285D01*
X212007200Y-63414285D02*
X212054819Y-63319047D01*
X212054819Y-63319047D02*
X212054819Y-63128571D01*
X212054819Y-63128571D02*
X212007200Y-63033333D01*
X212007200Y-63033333D02*
X211959580Y-62985714D01*
X211959580Y-62985714D02*
X211864342Y-62938095D01*
X211864342Y-62938095D02*
X211626247Y-62938095D01*
X211626247Y-62938095D02*
X211531009Y-62985714D01*
X211531009Y-62985714D02*
X211483390Y-63033333D01*
X211483390Y-63033333D02*
X211435771Y-63128571D01*
X211435771Y-63128571D02*
X211435771Y-63319047D01*
X211435771Y-63319047D02*
X211483390Y-63414285D01*
X211483390Y-63414285D02*
X211531009Y-63461904D01*
X211531009Y-63461904D02*
X211626247Y-63509523D01*
D12*
X205678571Y-58577190D02*
X205654762Y-58601000D01*
X205654762Y-58601000D02*
X205583333Y-58624809D01*
X205583333Y-58624809D02*
X205535714Y-58624809D01*
X205535714Y-58624809D02*
X205464286Y-58601000D01*
X205464286Y-58601000D02*
X205416667Y-58553380D01*
X205416667Y-58553380D02*
X205392857Y-58505761D01*
X205392857Y-58505761D02*
X205369048Y-58410523D01*
X205369048Y-58410523D02*
X205369048Y-58339095D01*
X205369048Y-58339095D02*
X205392857Y-58243857D01*
X205392857Y-58243857D02*
X205416667Y-58196238D01*
X205416667Y-58196238D02*
X205464286Y-58148619D01*
X205464286Y-58148619D02*
X205535714Y-58124809D01*
X205535714Y-58124809D02*
X205583333Y-58124809D01*
X205583333Y-58124809D02*
X205654762Y-58148619D01*
X205654762Y-58148619D02*
X205678571Y-58172428D01*
X206107143Y-58291476D02*
X206107143Y-58624809D01*
X205988095Y-58101000D02*
X205869048Y-58458142D01*
X205869048Y-58458142D02*
X206178571Y-58458142D01*
X206583333Y-58291476D02*
X206583333Y-58624809D01*
X206464285Y-58101000D02*
X206345238Y-58458142D01*
X206345238Y-58458142D02*
X206654761Y-58458142D01*
D11*
X214128242Y-45354719D02*
X213794909Y-44878528D01*
X213556814Y-45354719D02*
X213556814Y-44354719D01*
X213556814Y-44354719D02*
X213937766Y-44354719D01*
X213937766Y-44354719D02*
X214033004Y-44402338D01*
X214033004Y-44402338D02*
X214080623Y-44449957D01*
X214080623Y-44449957D02*
X214128242Y-44545195D01*
X214128242Y-44545195D02*
X214128242Y-44688052D01*
X214128242Y-44688052D02*
X214080623Y-44783290D01*
X214080623Y-44783290D02*
X214033004Y-44830909D01*
X214033004Y-44830909D02*
X213937766Y-44878528D01*
X213937766Y-44878528D02*
X213556814Y-44878528D01*
X215080623Y-45354719D02*
X214509195Y-45354719D01*
X214794909Y-45354719D02*
X214794909Y-44354719D01*
X214794909Y-44354719D02*
X214699671Y-44497576D01*
X214699671Y-44497576D02*
X214604433Y-44592814D01*
X214604433Y-44592814D02*
X214509195Y-44640433D01*
X215937766Y-44354719D02*
X215747290Y-44354719D01*
X215747290Y-44354719D02*
X215652052Y-44402338D01*
X215652052Y-44402338D02*
X215604433Y-44449957D01*
X215604433Y-44449957D02*
X215509195Y-44592814D01*
X215509195Y-44592814D02*
X215461576Y-44783290D01*
X215461576Y-44783290D02*
X215461576Y-45164242D01*
X215461576Y-45164242D02*
X215509195Y-45259480D01*
X215509195Y-45259480D02*
X215556814Y-45307100D01*
X215556814Y-45307100D02*
X215652052Y-45354719D01*
X215652052Y-45354719D02*
X215842528Y-45354719D01*
X215842528Y-45354719D02*
X215937766Y-45307100D01*
X215937766Y-45307100D02*
X215985385Y-45259480D01*
X215985385Y-45259480D02*
X216033004Y-45164242D01*
X216033004Y-45164242D02*
X216033004Y-44926147D01*
X216033004Y-44926147D02*
X215985385Y-44830909D01*
X215985385Y-44830909D02*
X215937766Y-44783290D01*
X215937766Y-44783290D02*
X215842528Y-44735671D01*
X215842528Y-44735671D02*
X215652052Y-44735671D01*
X215652052Y-44735671D02*
X215556814Y-44783290D01*
X215556814Y-44783290D02*
X215509195Y-44830909D01*
X215509195Y-44830909D02*
X215461576Y-44926147D01*
D12*
X212777190Y-52021428D02*
X212801000Y-52045237D01*
X212801000Y-52045237D02*
X212824809Y-52116666D01*
X212824809Y-52116666D02*
X212824809Y-52164285D01*
X212824809Y-52164285D02*
X212801000Y-52235713D01*
X212801000Y-52235713D02*
X212753380Y-52283332D01*
X212753380Y-52283332D02*
X212705761Y-52307142D01*
X212705761Y-52307142D02*
X212610523Y-52330951D01*
X212610523Y-52330951D02*
X212539095Y-52330951D01*
X212539095Y-52330951D02*
X212443857Y-52307142D01*
X212443857Y-52307142D02*
X212396238Y-52283332D01*
X212396238Y-52283332D02*
X212348619Y-52235713D01*
X212348619Y-52235713D02*
X212324809Y-52164285D01*
X212324809Y-52164285D02*
X212324809Y-52116666D01*
X212324809Y-52116666D02*
X212348619Y-52045237D01*
X212348619Y-52045237D02*
X212372428Y-52021428D01*
X212491476Y-51592856D02*
X212824809Y-51592856D01*
X212301000Y-51711904D02*
X212658142Y-51830951D01*
X212658142Y-51830951D02*
X212658142Y-51521428D01*
X212324809Y-51092857D02*
X212324809Y-51330952D01*
X212324809Y-51330952D02*
X212562904Y-51354761D01*
X212562904Y-51354761D02*
X212539095Y-51330952D01*
X212539095Y-51330952D02*
X212515285Y-51283333D01*
X212515285Y-51283333D02*
X212515285Y-51164285D01*
X212515285Y-51164285D02*
X212539095Y-51116666D01*
X212539095Y-51116666D02*
X212562904Y-51092857D01*
X212562904Y-51092857D02*
X212610523Y-51069047D01*
X212610523Y-51069047D02*
X212729571Y-51069047D01*
X212729571Y-51069047D02*
X212777190Y-51092857D01*
X212777190Y-51092857D02*
X212801000Y-51116666D01*
X212801000Y-51116666D02*
X212824809Y-51164285D01*
X212824809Y-51164285D02*
X212824809Y-51283333D01*
X212824809Y-51283333D02*
X212801000Y-51330952D01*
X212801000Y-51330952D02*
X212777190Y-51354761D01*
D13*
X197874318Y-37016428D02*
X197874318Y-37621190D01*
X197874318Y-37621190D02*
X196604318Y-37621190D01*
X197813842Y-36653571D02*
X197874318Y-36472142D01*
X197874318Y-36472142D02*
X197874318Y-36169761D01*
X197874318Y-36169761D02*
X197813842Y-36048809D01*
X197813842Y-36048809D02*
X197753365Y-35988333D01*
X197753365Y-35988333D02*
X197632413Y-35927856D01*
X197632413Y-35927856D02*
X197511461Y-35927856D01*
X197511461Y-35927856D02*
X197390508Y-35988333D01*
X197390508Y-35988333D02*
X197330032Y-36048809D01*
X197330032Y-36048809D02*
X197269556Y-36169761D01*
X197269556Y-36169761D02*
X197209080Y-36411666D01*
X197209080Y-36411666D02*
X197148603Y-36532618D01*
X197148603Y-36532618D02*
X197088127Y-36593095D01*
X197088127Y-36593095D02*
X196967175Y-36653571D01*
X196967175Y-36653571D02*
X196846222Y-36653571D01*
X196846222Y-36653571D02*
X196725270Y-36593095D01*
X196725270Y-36593095D02*
X196664794Y-36532618D01*
X196664794Y-36532618D02*
X196604318Y-36411666D01*
X196604318Y-36411666D02*
X196604318Y-36109285D01*
X196604318Y-36109285D02*
X196664794Y-35927856D01*
X197874318Y-34718332D02*
X197874318Y-35444047D01*
X197874318Y-35081190D02*
X196604318Y-35081190D01*
X196604318Y-35081190D02*
X196785746Y-35202142D01*
X196785746Y-35202142D02*
X196906699Y-35323094D01*
X196906699Y-35323094D02*
X196967175Y-35444047D01*
D11*
X174746180Y-61525095D02*
X173936657Y-61525095D01*
X173936657Y-61525095D02*
X173841419Y-61572714D01*
X173841419Y-61572714D02*
X173793800Y-61620333D01*
X173793800Y-61620333D02*
X173746180Y-61715571D01*
X173746180Y-61715571D02*
X173746180Y-61906047D01*
X173746180Y-61906047D02*
X173793800Y-62001285D01*
X173793800Y-62001285D02*
X173841419Y-62048904D01*
X173841419Y-62048904D02*
X173936657Y-62096523D01*
X173936657Y-62096523D02*
X174746180Y-62096523D01*
X174746180Y-62477476D02*
X174746180Y-63096523D01*
X174746180Y-63096523D02*
X174365228Y-62763190D01*
X174365228Y-62763190D02*
X174365228Y-62906047D01*
X174365228Y-62906047D02*
X174317609Y-63001285D01*
X174317609Y-63001285D02*
X174269990Y-63048904D01*
X174269990Y-63048904D02*
X174174752Y-63096523D01*
X174174752Y-63096523D02*
X173936657Y-63096523D01*
X173936657Y-63096523D02*
X173841419Y-63048904D01*
X173841419Y-63048904D02*
X173793800Y-63001285D01*
X173793800Y-63001285D02*
X173746180Y-62906047D01*
X173746180Y-62906047D02*
X173746180Y-62620333D01*
X173746180Y-62620333D02*
X173793800Y-62525095D01*
X173793800Y-62525095D02*
X173841419Y-62477476D01*
X210357142Y-41354819D02*
X210023809Y-40878628D01*
X209785714Y-41354819D02*
X209785714Y-40354819D01*
X209785714Y-40354819D02*
X210166666Y-40354819D01*
X210166666Y-40354819D02*
X210261904Y-40402438D01*
X210261904Y-40402438D02*
X210309523Y-40450057D01*
X210309523Y-40450057D02*
X210357142Y-40545295D01*
X210357142Y-40545295D02*
X210357142Y-40688152D01*
X210357142Y-40688152D02*
X210309523Y-40783390D01*
X210309523Y-40783390D02*
X210261904Y-40831009D01*
X210261904Y-40831009D02*
X210166666Y-40878628D01*
X210166666Y-40878628D02*
X209785714Y-40878628D01*
X211309523Y-41354819D02*
X210738095Y-41354819D01*
X211023809Y-41354819D02*
X211023809Y-40354819D01*
X211023809Y-40354819D02*
X210928571Y-40497676D01*
X210928571Y-40497676D02*
X210833333Y-40592914D01*
X210833333Y-40592914D02*
X210738095Y-40640533D01*
X211880952Y-40783390D02*
X211785714Y-40735771D01*
X211785714Y-40735771D02*
X211738095Y-40688152D01*
X211738095Y-40688152D02*
X211690476Y-40592914D01*
X211690476Y-40592914D02*
X211690476Y-40545295D01*
X211690476Y-40545295D02*
X211738095Y-40450057D01*
X211738095Y-40450057D02*
X211785714Y-40402438D01*
X211785714Y-40402438D02*
X211880952Y-40354819D01*
X211880952Y-40354819D02*
X212071428Y-40354819D01*
X212071428Y-40354819D02*
X212166666Y-40402438D01*
X212166666Y-40402438D02*
X212214285Y-40450057D01*
X212214285Y-40450057D02*
X212261904Y-40545295D01*
X212261904Y-40545295D02*
X212261904Y-40592914D01*
X212261904Y-40592914D02*
X212214285Y-40688152D01*
X212214285Y-40688152D02*
X212166666Y-40735771D01*
X212166666Y-40735771D02*
X212071428Y-40783390D01*
X212071428Y-40783390D02*
X211880952Y-40783390D01*
X211880952Y-40783390D02*
X211785714Y-40831009D01*
X211785714Y-40831009D02*
X211738095Y-40878628D01*
X211738095Y-40878628D02*
X211690476Y-40973866D01*
X211690476Y-40973866D02*
X211690476Y-41164342D01*
X211690476Y-41164342D02*
X211738095Y-41259580D01*
X211738095Y-41259580D02*
X211785714Y-41307200D01*
X211785714Y-41307200D02*
X211880952Y-41354819D01*
X211880952Y-41354819D02*
X212071428Y-41354819D01*
X212071428Y-41354819D02*
X212166666Y-41307200D01*
X212166666Y-41307200D02*
X212214285Y-41259580D01*
X212214285Y-41259580D02*
X212261904Y-41164342D01*
X212261904Y-41164342D02*
X212261904Y-40973866D01*
X212261904Y-40973866D02*
X212214285Y-40878628D01*
X212214285Y-40878628D02*
X212166666Y-40831009D01*
X212166666Y-40831009D02*
X212071428Y-40783390D01*
%TO.C,C21*%
D14*
X227911252Y-45890000D02*
X226488748Y-45890000D01*
X227911252Y-47710000D02*
X226488748Y-47710000D01*
%TO.C,C5*%
X216740000Y-36607836D02*
X216740000Y-36392164D01*
X217460000Y-36607836D02*
X217460000Y-36392164D01*
%TO.C,R25*%
X215420000Y-52267621D02*
X215420000Y-51932379D01*
X216180000Y-52267621D02*
X216180000Y-51932379D01*
%TO.C,R23*%
X191153641Y-63720000D02*
X190846359Y-63720000D01*
X191153641Y-64480000D02*
X190846359Y-64480000D01*
%TO.C,SW5*%
X203840000Y-43750000D02*
X209960000Y-43750000D01*
X203840000Y-47450000D02*
X203840000Y-43750000D01*
X209960000Y-43750000D02*
X209960000Y-47450000D01*
X209960000Y-47450000D02*
X203840000Y-47450000D01*
%TO.C,R19*%
X205534879Y-56020000D02*
X205870121Y-56020000D01*
X205534879Y-56780000D02*
X205870121Y-56780000D01*
%TO.C,R11*%
X190620000Y-48353641D02*
X190620000Y-48046359D01*
X191380000Y-48353641D02*
X191380000Y-48046359D01*
%TO.C,R27*%
X191153641Y-62620000D02*
X190846359Y-62620000D01*
X191153641Y-63380000D02*
X190846359Y-63380000D01*
%TO.C,C4*%
X219634420Y-37390000D02*
X219915580Y-37390000D01*
X219634420Y-38410000D02*
X219915580Y-38410000D01*
%TO.C,Y1*%
X201140000Y-53140000D02*
X201140000Y-57260000D01*
X204560000Y-53140000D02*
X201140000Y-53140000D01*
%TO.C,JP1*%
X217200000Y-43050000D02*
X219200000Y-43050000D01*
X217200000Y-45850000D02*
X217200000Y-43050000D01*
X219200000Y-43050000D02*
X219200000Y-45850000D01*
X219200000Y-45850000D02*
X217200000Y-45850000D01*
%TO.C,R32*%
X218165121Y-61120000D02*
X217829879Y-61120000D01*
X218165121Y-61880000D02*
X217829879Y-61880000D01*
%TO.C,R21*%
X190720000Y-61046359D02*
X190720000Y-61353641D01*
X191480000Y-61046359D02*
X191480000Y-61353641D01*
%TO.C,C15*%
X222853733Y-43390000D02*
X223146267Y-43390000D01*
X222853733Y-44410000D02*
X223146267Y-44410000D01*
%TO.C,C17*%
X223377500Y-46567224D02*
X223377500Y-46057776D01*
X224422500Y-46567224D02*
X224422500Y-46057776D01*
%TO.C,R15*%
X221167621Y-53120000D02*
X220832379Y-53120000D01*
X221167621Y-53880000D02*
X220832379Y-53880000D01*
%TO.C,C20*%
X226488748Y-48190000D02*
X227911252Y-48190000D01*
X226488748Y-50010000D02*
X227911252Y-50010000D01*
%TO.C,D3*%
X186565000Y-63665000D02*
X186565000Y-65135000D01*
X186565000Y-65135000D02*
X189025000Y-65135000D01*
X189025000Y-63665000D02*
X186565000Y-63665000D01*
%TO.C,R22*%
X191043641Y-64820000D02*
X190736359Y-64820000D01*
X191043641Y-65580000D02*
X190736359Y-65580000D01*
%TO.C,R17*%
X214020000Y-42646359D02*
X214020000Y-42953641D01*
X214780000Y-42646359D02*
X214780000Y-42953641D01*
%TO.C,C16*%
X213153733Y-49790000D02*
X213446267Y-49790000D01*
X213153733Y-50810000D02*
X213446267Y-50810000D01*
%TO.C,R29*%
X218046359Y-55020000D02*
X218353641Y-55020000D01*
X218046359Y-55780000D02*
X218353641Y-55780000D01*
%TO.C,R14*%
X222120000Y-59332379D02*
X222120000Y-59667621D01*
X222880000Y-59332379D02*
X222880000Y-59667621D01*
%TO.C,D6*%
X218802500Y-49740000D02*
X220322500Y-49740000D01*
X218802500Y-49790000D02*
X218802500Y-49740000D01*
X218802500Y-51690000D02*
X218802500Y-50910000D01*
X218802500Y-52860000D02*
X218802500Y-52810000D01*
X220322500Y-49740000D02*
X220322500Y-50740000D01*
X220322500Y-51860000D02*
X220322500Y-52860000D01*
X220322500Y-52860000D02*
X218802500Y-52860000D01*
X218262500Y-50920000D02*
X218502500Y-51250000D01*
X218022500Y-51250000D01*
X218262500Y-50920000D01*
G36*
X218502500Y-51250000D02*
G01*
X218022500Y-51250000D01*
X218262500Y-50920000D01*
X218502500Y-51250000D01*
G37*
%TO.C,C23*%
X203015835Y-57440000D02*
X202784165Y-57440000D01*
X203015835Y-58160000D02*
X202784165Y-58160000D01*
%TO.C,U18*%
X218452500Y-46290000D02*
X220272500Y-46290000D01*
X218452500Y-46340000D02*
X218452500Y-46290000D01*
X218452500Y-48240000D02*
X218452500Y-47460000D01*
X218452500Y-49410000D02*
X218452500Y-49360000D01*
X220272500Y-46290000D02*
X220272500Y-46340000D01*
X220272500Y-49360000D02*
X220272500Y-49410000D01*
X220272500Y-49410000D02*
X218452500Y-49410000D01*
X220812500Y-49360000D02*
X221052500Y-49690000D01*
X220572500Y-49690000D01*
X220812500Y-49360000D01*
G36*
X221052500Y-49690000D02*
G01*
X220572500Y-49690000D01*
X220812500Y-49360000D01*
X221052500Y-49690000D01*
G37*
%TO.C,D2*%
X218865000Y-40100000D02*
X218865000Y-42560000D01*
X218865000Y-42560000D02*
X220335000Y-42560000D01*
X220335000Y-42560000D02*
X220335000Y-40100000D01*
%TO.C,C42*%
X216090336Y-61140000D02*
X215874664Y-61140000D01*
X216090336Y-61860000D02*
X215874664Y-61860000D01*
%TO.C,SW6*%
X202050000Y-60240000D02*
X205750000Y-60240000D01*
X202050000Y-66360000D02*
X202050000Y-60240000D01*
X205750000Y-60240000D02*
X205750000Y-66360000D01*
X205750000Y-66360000D02*
X202050000Y-66360000D01*
%TO.C,U4*%
D15*
X215518800Y-39099497D02*
X215518800Y-40338303D01*
X217881000Y-40338303D02*
X217881000Y-39099497D01*
X217601600Y-37705950D02*
G75*
G02*
X217398400Y-37705950I-101600J0D01*
G01*
X217398400Y-37705950D02*
G75*
G02*
X217601600Y-37705950I101600J0D01*
G01*
%TO.C,R12*%
D14*
X193120000Y-61046359D02*
X193120000Y-61353641D01*
X193880000Y-61046359D02*
X193880000Y-61353641D01*
%TO.C,U2*%
X177810000Y-52520000D02*
X179190000Y-52520000D01*
X179190000Y-53900000D02*
X179190000Y-52520000D01*
X168000000Y-17400000D02*
X180000000Y-17400000D01*
X180000000Y-55400000D01*
X168000000Y-55400000D01*
X168000000Y-17400000D01*
%TO.C,D4*%
X210625000Y-38735000D02*
X213085000Y-38735000D01*
X213085000Y-37265000D02*
X210625000Y-37265000D01*
X213085000Y-38735000D02*
X213085000Y-37265000D01*
%TO.C,S1*%
D16*
X188700000Y-50750000D02*
X189950000Y-50750000D01*
X188700000Y-53000000D02*
X188700000Y-50750000D01*
X188700000Y-56000000D02*
X188700000Y-58250000D01*
X188700000Y-58250000D02*
X189950000Y-58250000D01*
D17*
X190950000Y-59100000D02*
X190950000Y-59100000D01*
X191150000Y-59100000D02*
X191150000Y-59100000D01*
D16*
X194950000Y-58250000D02*
X196200000Y-58250000D01*
X196200000Y-50750000D02*
X194950000Y-50750000D01*
X196200000Y-53000000D02*
X196200000Y-50750000D01*
X196200000Y-58250000D02*
X196200000Y-56000000D01*
D17*
X190950000Y-59100000D02*
G75*
G02*
X191150000Y-59100000I100000J0D01*
G01*
X191150000Y-59100000D02*
G75*
G02*
X190950000Y-59100000I-100000J0D01*
G01*
%TO.C,C53*%
D14*
X209290000Y-49365580D02*
X209290000Y-49084420D01*
X210310000Y-49365580D02*
X210310000Y-49084420D01*
%TO.C,C24*%
X202484165Y-52240000D02*
X202715835Y-52240000D01*
X202484165Y-52960000D02*
X202715835Y-52960000D01*
%TO.C,L2*%
D17*
X218400000Y-56600000D02*
X218400000Y-56600000D01*
X218600000Y-56600000D02*
X218600000Y-56600000D01*
X219300000Y-58600000D02*
X217700000Y-58600000D01*
X218400000Y-56600000D02*
G75*
G02*
X218600000Y-56600000I100000J0D01*
G01*
X218600000Y-56600000D02*
G75*
G02*
X218400000Y-56600000I-100000J0D01*
G01*
%TO.C,C43*%
D14*
X216740000Y-58572164D02*
X216740000Y-58787836D01*
X217460000Y-58572164D02*
X217460000Y-58787836D01*
%TO.C,C41*%
X215740000Y-58592164D02*
X215740000Y-58807836D01*
X216460000Y-58592164D02*
X216460000Y-58807836D01*
%TO.C,R20*%
X216053641Y-43120000D02*
X215746359Y-43120000D01*
X216053641Y-43880000D02*
X215746359Y-43880000D01*
%TO.C,D8*%
X186665000Y-62065000D02*
X186665000Y-63535000D01*
X186665000Y-63535000D02*
X189125000Y-63535000D01*
X189125000Y-62065000D02*
X186665000Y-62065000D01*
%TO.C,R8*%
X218043641Y-41920000D02*
X217736359Y-41920000D01*
X218043641Y-42680000D02*
X217736359Y-42680000D01*
%TO.C,R24*%
X208320000Y-62967621D02*
X208320000Y-62632379D01*
X209080000Y-62967621D02*
X209080000Y-62632379D01*
%TO.C,U1*%
X207440000Y-53090000D02*
X207890000Y-53090000D01*
X207440000Y-53540000D02*
X207440000Y-53090000D01*
X207440000Y-60310000D02*
X207440000Y-59860000D01*
X207890000Y-60310000D02*
X207440000Y-60310000D01*
X214210000Y-53090000D02*
X214660000Y-53090000D01*
X214660000Y-53090000D02*
X214660000Y-53540000D01*
X214660000Y-59860000D02*
X214660000Y-60310000D01*
X214660000Y-60310000D02*
X214210000Y-60310000D01*
X213850000Y-52590000D02*
X213610000Y-52260000D01*
X214090000Y-52260000D01*
X213850000Y-52590000D01*
G36*
X213850000Y-52590000D02*
G01*
X213610000Y-52260000D01*
X214090000Y-52260000D01*
X213850000Y-52590000D01*
G37*
%TO.C,L4*%
X223377500Y-49432776D02*
X223377500Y-49942224D01*
X224422500Y-49432776D02*
X224422500Y-49942224D01*
%TO.C,D9*%
X186690000Y-60465000D02*
X186690000Y-61935000D01*
X186690000Y-61935000D02*
X189150000Y-61935000D01*
X189150000Y-60465000D02*
X186690000Y-60465000D01*
%TO.C,R10*%
X192020000Y-61036359D02*
X192020000Y-61343641D01*
X192780000Y-61036359D02*
X192780000Y-61343641D01*
%TO.C,R28*%
X218046359Y-56020000D02*
X218353641Y-56020000D01*
X218046359Y-56780000D02*
X218353641Y-56780000D01*
%TO.C,R13*%
X193520000Y-48353641D02*
X193520000Y-48046359D01*
X194280000Y-48353641D02*
X194280000Y-48046359D01*
%TO.C,J1*%
X226150000Y-61680000D02*
X228070000Y-61680000D01*
X228070000Y-52520000D02*
X226150000Y-52520000D01*
X230080000Y-52520000D02*
X231785000Y-52520000D01*
X231785000Y-52520000D02*
X231785000Y-61680000D01*
X231785000Y-61680000D02*
X230080000Y-61680000D01*
%TO.C,R9*%
X213946359Y-37420000D02*
X214253641Y-37420000D01*
X213946359Y-38180000D02*
X214253641Y-38180000D01*
%TO.C,R26*%
X209720000Y-62334879D02*
X209720000Y-62670121D01*
X210480000Y-62334879D02*
X210480000Y-62670121D01*
%TO.C,C44*%
X205707836Y-57040000D02*
X205492164Y-57040000D01*
X205707836Y-57760000D02*
X205492164Y-57760000D01*
%TO.C,R16*%
X214243641Y-40820000D02*
X213936359Y-40820000D01*
X214243641Y-41580000D02*
X213936359Y-41580000D01*
%TO.C,LS1*%
D16*
X192000000Y-32700000D02*
X192000000Y-32700000D01*
X192100000Y-32700000D02*
X192100000Y-32700000D01*
D17*
X193050000Y-34200000D02*
X193050000Y-38200000D01*
X199300000Y-31950000D02*
X195300000Y-31950000D01*
X199300000Y-40450000D02*
X195300000Y-40450000D01*
X201550000Y-34200000D02*
X201550000Y-38200000D01*
D16*
X192000000Y-32700000D02*
G75*
G02*
X192100000Y-32700000I50000J0D01*
G01*
X192100000Y-32700000D02*
G75*
G02*
X192000000Y-32700000I-50000J0D01*
G01*
%TO.C,U3*%
D15*
X168359000Y-55810000D02*
X168359000Y-58881396D01*
X168359000Y-60866604D02*
X168359000Y-63707396D01*
X168359000Y-65692604D02*
X168359000Y-68764000D01*
X168359000Y-68764000D02*
X180043000Y-68764000D01*
X180043000Y-55810000D02*
X168359000Y-55810000D01*
X180043000Y-58881396D02*
X180043000Y-55810000D01*
X180043000Y-63707396D02*
X180043000Y-60866604D01*
X180043000Y-68764000D02*
X180043000Y-65692604D01*
X179103200Y-54032000D02*
G75*
G02*
X178696800Y-54032000I-203200J0D01*
G01*
X178696800Y-54032000D02*
G75*
G02*
X179103200Y-54032000I203200J0D01*
G01*
%TO.C,R18*%
D14*
X216043641Y-42120000D02*
X215736359Y-42120000D01*
X216043641Y-42880000D02*
X215736359Y-42880000D01*
%TD*%
M02*
