%TF.GenerationSoftware,KiCad,Pcbnew,10.0.5*%
%TF.CreationDate,2026-08-28T00:43:08+02:00*%
%TF.ProjectId,Geiger_counter_LoRaWAN,47656967-6572-45f6-936f-756e7465725f,rev?*%
%TF.SameCoordinates,Original*%
%TF.FileFunction,Soldermask,Bot*%
%TF.FilePolarity,Negative*%
%FSLAX46Y46*%
G04 Gerber Fmt 4.6, Leading zero omitted, Abs format (unit mm)*
G04 Created by KiCad (PCBNEW 10.0.5) date 2026-08-28 00:43:08*
%MOMM*%
%LPD*%
G01*
G04 APERTURE LIST*
G04 Aperture macros list*
%AMRoundRect*
0 Rectangle with rounded corners*
0 $1 Rounding radius*
0 $2 $3 $4 $5 $6 $7 $8 $9 X,Y pos of 4 corners*
0 Add a 4 corners polygon primitive as box body*
4,1,4,$2,$3,$4,$5,$6,$7,$8,$9,$2,$3,0*
0 Add four circle primitives for the rounded corners*
1,1,$1+$1,$2,$3*
1,1,$1+$1,$4,$5*
1,1,$1+$1,$6,$7*
1,1,$1+$1,$8,$9*
0 Add four rect primitives between the rounded corners*
20,1,$1+$1,$2,$3,$4,$5,0*
20,1,$1+$1,$4,$5,$6,$7,0*
20,1,$1+$1,$6,$7,$8,$9,0*
20,1,$1+$1,$8,$9,$2,$3,0*%
G04 Aperture macros list end*
%ADD10RoundRect,0.875000X0.875000X0.875000X-0.875000X0.875000X-0.875000X-0.875000X0.875000X-0.875000X0*%
%ADD11C,3.500000*%
%ADD12R,2.362200X2.362200*%
%ADD13C,2.362200*%
%ADD14C,3.200000*%
%ADD15C,2.600000*%
%ADD16C,3.800000*%
%ADD17RoundRect,0.170000X0.680000X0.680000X-0.680000X0.680000X-0.680000X-0.680000X0.680000X-0.680000X0*%
%ADD18C,1.700000*%
%ADD19C,0.750000*%
%ADD20C,1.050000*%
%ADD21C,0.650000*%
%ADD22O,2.100000X1.000000*%
%ADD23O,1.800000X1.000000*%
%ADD24C,2.400000*%
%ADD25C,1.500000*%
%ADD26R,1.500000X1.500000*%
%ADD27C,1.600000*%
%ADD28RoundRect,0.249999X0.850001X0.850001X-0.850001X0.850001X-0.850001X-0.850001X0.850001X-0.850001X0*%
%ADD29C,2.200000*%
%ADD30C,2.000000*%
%ADD31C,2.390000*%
%ADD32C,3.450000*%
%ADD33RoundRect,0.250003X-3.499997X-2.999997X3.499997X-2.999997X3.499997X2.999997X-3.499997X2.999997X0*%
G04 APERTURE END LIST*
D10*
%TO.C,F1*%
X228650000Y-20500000D03*
X221030000Y-20500000D03*
X215450000Y-20500000D03*
X207830000Y-20500000D03*
D11*
X124950000Y-20500000D03*
X117150000Y-20500000D03*
%TD*%
D12*
%TO.C,U5*%
X179850000Y-57850000D03*
D13*
X173500000Y-57850000D03*
X167150000Y-57850000D03*
X167150000Y-65470000D03*
X173500000Y-65470000D03*
X179850000Y-65470000D03*
%TD*%
D14*
%TO.C,H3*%
X227400000Y-65700000D03*
%TD*%
%TO.C,H1*%
X114200000Y-65700000D03*
%TD*%
D15*
%TO.C,H6*%
X151700000Y-64500000D03*
D16*
X151700000Y-64500000D03*
%TD*%
D17*
%TO.C,U2*%
X177900000Y-52750000D03*
D18*
X175360000Y-52750000D03*
X172820000Y-52750000D03*
X170280000Y-52750000D03*
%TD*%
D19*
%TO.C,S1*%
X190550000Y-54500000D03*
D20*
X194350000Y-54500000D03*
%TD*%
D14*
%TO.C,H4*%
X227800000Y-29500000D03*
%TD*%
D21*
%TO.C,J1*%
X225395000Y-59990000D03*
X225395000Y-54210000D03*
D22*
X224875000Y-61420000D03*
D23*
X229075000Y-61420000D03*
D22*
X224875000Y-52780000D03*
D23*
X229075000Y-52780000D03*
%TD*%
D14*
%TO.C,H2*%
X114100000Y-29800000D03*
%TD*%
D24*
%TO.C,R4*%
X138400000Y-53900000D03*
X118080000Y-53900000D03*
%TD*%
%TO.C,R7*%
X128300000Y-31200000D03*
X128300000Y-46440000D03*
%TD*%
D25*
%TO.C,Q1*%
X123500000Y-46990000D03*
X123500000Y-44450000D03*
D26*
X123500000Y-41910000D03*
%TD*%
D15*
%TO.C,L1*%
X121100000Y-32300000D03*
X121100000Y-37300000D03*
%TD*%
D24*
%TO.C,R3*%
X132400000Y-46420000D03*
X132400000Y-31180000D03*
%TD*%
D27*
%TO.C,C3*%
X138000000Y-44800000D03*
X138000000Y-34800000D03*
%TD*%
D28*
%TO.C,D1*%
X133100000Y-27900000D03*
D29*
X122940000Y-27900000D03*
%TD*%
D27*
%TO.C,R2*%
X146100000Y-49400000D03*
X135940000Y-49400000D03*
%TD*%
D30*
%TO.C,TP3*%
X123800000Y-67200000D03*
%TD*%
D27*
%TO.C,R6*%
X118500000Y-63600000D03*
X133740000Y-63600000D03*
%TD*%
D24*
%TO.C,R5*%
X118100000Y-59200000D03*
X138420000Y-59200000D03*
%TD*%
D31*
%TO.C,BT1*%
X150100000Y-45700000D03*
D32*
X158610000Y-29700000D03*
X213850000Y-45700000D03*
D33*
X146540000Y-37700000D03*
X225920000Y-37700000D03*
%TD*%
D27*
%TO.C,C1*%
X135600000Y-30200000D03*
X145600000Y-30200000D03*
%TD*%
D24*
%TO.C,R1*%
X113800000Y-38440000D03*
X113800000Y-58760000D03*
%TD*%
D30*
%TO.C,TP2*%
X112900000Y-21800000D03*
%TD*%
D29*
%TO.C,C2*%
X143800000Y-52500000D03*
X143800000Y-67500000D03*
%TD*%
D26*
%TO.C,Q2*%
X137800000Y-62720000D03*
D25*
X137800000Y-65260000D03*
X137800000Y-67800000D03*
%TD*%
M02*
