%TF.GenerationSoftware,KiCad,Pcbnew,10.0.5*%
%TF.CreationDate,2026-08-28T00:43:08+02:00*%
%TF.ProjectId,Geiger_counter_LoRaWAN,47656967-6572-45f6-936f-756e7465725f,rev?*%
%TF.SameCoordinates,Original*%
%TF.FileFunction,Copper,L2,Bot*%
%TF.FilePolarity,Positive*%
%FSLAX46Y46*%
G04 Gerber Fmt 4.6, Leading zero omitted, Abs format (unit mm)*
G04 Created by KiCad (PCBNEW 10.0.5) date 2026-08-28 00:43:08*
%MOMM*%
%LPD*%
G01*
G04 APERTURE LIST*
G04 Aperture macros list*
%AMRoundRect*
0 Rectangle with rounded corners*
0 $1 Rounding radius*
0 $2 $3 $4 $5 $6 $7 $8 $9 X,Y pos of 4 corners*
0 Add a 4 corners polygon primitive as box body*
4,1,4,$2,$3,$4,$5,$6,$7,$8,$9,$2,$3,0*
0 Add four circle primitives for the rounded corners*
1,1,$1+$1,$2,$3*
1,1,$1+$1,$4,$5*
1,1,$1+$1,$6,$7*
1,1,$1+$1,$8,$9*
0 Add four rect primitives between the rounded corners*
20,1,$1+$1,$2,$3,$4,$5,0*
20,1,$1+$1,$4,$5,$6,$7,0*
20,1,$1+$1,$6,$7,$8,$9,0*
20,1,$1+$1,$8,$9,$2,$3,0*%
G04 Aperture macros list end*
%TA.AperFunction,ComponentPad*%
%ADD10RoundRect,0.875000X0.875000X0.875000X-0.875000X0.875000X-0.875000X-0.875000X0.875000X-0.875000X0*%
%TD*%
%TA.AperFunction,ComponentPad*%
%ADD11C,3.500000*%
%TD*%
%TA.AperFunction,ComponentPad*%
%ADD12R,2.362200X2.362200*%
%TD*%
%TA.AperFunction,ComponentPad*%
%ADD13C,2.362200*%
%TD*%
%TA.AperFunction,ComponentPad*%
%ADD14C,2.600000*%
%TD*%
%TA.AperFunction,ConnectorPad*%
%ADD15C,3.800000*%
%TD*%
%TA.AperFunction,ComponentPad*%
%ADD16RoundRect,0.170000X0.680000X0.680000X-0.680000X0.680000X-0.680000X-0.680000X0.680000X-0.680000X0*%
%TD*%
%TA.AperFunction,ComponentPad*%
%ADD17C,1.700000*%
%TD*%
%TA.AperFunction,ComponentPad*%
%ADD18O,2.100000X1.000000*%
%TD*%
%TA.AperFunction,ComponentPad*%
%ADD19O,1.800000X1.000000*%
%TD*%
%TA.AperFunction,ComponentPad*%
%ADD20C,2.400000*%
%TD*%
%TA.AperFunction,ComponentPad*%
%ADD21C,1.500000*%
%TD*%
%TA.AperFunction,ComponentPad*%
%ADD22R,1.500000X1.500000*%
%TD*%
%TA.AperFunction,ComponentPad*%
%ADD23C,1.600000*%
%TD*%
%TA.AperFunction,ComponentPad*%
%ADD24RoundRect,0.249999X0.850001X0.850001X-0.850001X0.850001X-0.850001X-0.850001X0.850001X-0.850001X0*%
%TD*%
%TA.AperFunction,ComponentPad*%
%ADD25C,2.200000*%
%TD*%
%TA.AperFunction,ComponentPad*%
%ADD26C,2.000000*%
%TD*%
%TA.AperFunction,SMDPad,CuDef*%
%ADD27RoundRect,0.250003X-3.499997X-2.999997X3.499997X-2.999997X3.499997X2.999997X-3.499997X2.999997X0*%
%TD*%
%TA.AperFunction,ViaPad*%
%ADD28C,0.700000*%
%TD*%
%TA.AperFunction,ViaPad*%
%ADD29C,0.600000*%
%TD*%
%TA.AperFunction,Conductor*%
%ADD30C,0.500000*%
%TD*%
%TA.AperFunction,Conductor*%
%ADD31C,0.600000*%
%TD*%
%TA.AperFunction,Conductor*%
%ADD32C,0.200000*%
%TD*%
%TA.AperFunction,Conductor*%
%ADD33C,0.125000*%
%TD*%
G04 APERTURE END LIST*
D10*
%TO.P,F1,1*%
%TO.N,HV_tube_-*%
X228650000Y-20500000D03*
X221030000Y-20500000D03*
X215450000Y-20500000D03*
X207830000Y-20500000D03*
D11*
%TO.P,F1,2*%
%TO.N,HV_TUBE_+*%
X124950000Y-20500000D03*
X117150000Y-20500000D03*
%TD*%
D12*
%TO.P,U5,1,1_1*%
%TO.N,+5V*%
X179850000Y-57850000D03*
D13*
%TO.P,U5,2,2_2*%
%TO.N,Net-(U4-SYS)*%
X173500000Y-57850000D03*
%TO.P,U5,3,3_3*%
%TO.N,unconnected-(U5-Pad3)*%
X167150000Y-57850000D03*
%TO.P,U5,6,6_6*%
%TO.N,unconnected-(U5-Pad6)*%
X167150000Y-65470000D03*
%TO.P,U5,5,5_5*%
%TO.N,Net-(U4-IN)*%
X173500000Y-65470000D03*
%TO.P,U5,4,4_4*%
%TO.N,VS*%
X179850000Y-65470000D03*
%TD*%
D14*
%TO.P,H6,1,1_1*%
%TO.N,GND*%
X151700000Y-64500000D03*
D15*
X151700000Y-64500000D03*
%TD*%
D16*
%TO.P,U2,1,GND_1*%
%TO.N,GND*%
X177900000Y-52750000D03*
D17*
%TO.P,U2,2,VCC_2*%
%TO.N,+3V3*%
X175360000Y-52750000D03*
%TO.P,U2,3,SCL_3*%
%TO.N,I2C0_SCL*%
X172820000Y-52750000D03*
%TO.P,U2,4,SDA_4*%
%TO.N,I2C0_SDA*%
X170280000Y-52750000D03*
%TD*%
D18*
%TO.P,J1,S1,SHIELD_S1*%
%TO.N,GND*%
X224875000Y-61420000D03*
D19*
X229075000Y-61420000D03*
D18*
X224875000Y-52780000D03*
D19*
X229075000Y-52780000D03*
%TD*%
D20*
%TO.P,R4,1*%
%TO.N,HV_tube_-*%
X138400000Y-53900000D03*
%TO.P,R4,2*%
%TO.N,Net-(Q2-B)*%
X118080000Y-53900000D03*
%TD*%
%TO.P,R7,1*%
%TO.N,HV_TUBE_+*%
X128300000Y-31200000D03*
%TO.P,R7,2*%
%TO.N,Net-(C3-Pad1)*%
X128300000Y-46440000D03*
%TD*%
D21*
%TO.P,Q1,1,B_1*%
%TO.N,Net-(Q1-B)*%
X123500000Y-46990000D03*
%TO.P,Q1,2,C_2*%
%TO.N,Net-(D1-A)*%
X123500000Y-44450000D03*
D22*
%TO.P,Q1,3,E_3*%
%TO.N,Net-(Q1-E)*%
X123500000Y-41910000D03*
%TD*%
D14*
%TO.P,L1,1,1_1*%
%TO.N,Net-(D1-A)*%
X121100000Y-32300000D03*
%TO.P,L1,2,2_2*%
%TO.N,+3V3*%
X121100000Y-37300000D03*
%TD*%
D20*
%TO.P,R3,1*%
%TO.N,Net-(C3-Pad1)*%
X132400000Y-46420000D03*
%TO.P,R3,2*%
%TO.N,Net-(D1-K)*%
X132400000Y-31180000D03*
%TD*%
D23*
%TO.P,C3,1*%
%TO.N,Net-(C3-Pad1)*%
X138000000Y-44800000D03*
%TO.P,C3,2*%
%TO.N,GND*%
X138000000Y-34800000D03*
%TD*%
D24*
%TO.P,D1,1,K_1*%
%TO.N,Net-(D1-K)*%
X133100000Y-27900000D03*
D25*
%TO.P,D1,2,A_2*%
%TO.N,Net-(D1-A)*%
X122940000Y-27900000D03*
%TD*%
D23*
%TO.P,R2,1*%
%TO.N,PWM_HV*%
X146100000Y-49400000D03*
%TO.P,R2,2*%
%TO.N,Net-(Q1-B)*%
X135940000Y-49400000D03*
%TD*%
D26*
%TO.P,TP3,1,1_1*%
%TO.N,GND*%
X123800000Y-67200000D03*
%TD*%
D23*
%TO.P,R6,1*%
%TO.N,+3V3*%
X118500000Y-63600000D03*
%TO.P,R6,2*%
%TO.N,INT_GM*%
X133740000Y-63600000D03*
%TD*%
D20*
%TO.P,R5,1*%
%TO.N,Net-(Q2-B)*%
X118100000Y-59200000D03*
%TO.P,R5,2*%
%TO.N,GND*%
X138420000Y-59200000D03*
%TD*%
D27*
%TO.P,BT1,1,+_1*%
%TO.N,Net-(BT1-+)*%
X146540000Y-37700000D03*
%TO.P,BT1,2,-_2*%
%TO.N,GND*%
X225920000Y-37700000D03*
%TD*%
D23*
%TO.P,C1,1*%
%TO.N,Net-(D1-K)*%
X135600000Y-30200000D03*
%TO.P,C1,2*%
%TO.N,GND*%
X145600000Y-30200000D03*
%TD*%
D20*
%TO.P,R1,1*%
%TO.N,Net-(Q1-E)*%
X113800000Y-38440000D03*
%TO.P,R1,2*%
%TO.N,GND*%
X113800000Y-58760000D03*
%TD*%
D26*
%TO.P,TP2,1,1_1*%
%TO.N,HV_TUBE_+*%
X112900000Y-21800000D03*
%TD*%
D25*
%TO.P,C2,1*%
%TO.N,HV_tube_-*%
X143800000Y-52500000D03*
%TO.P,C2,2*%
%TO.N,GND*%
X143800000Y-67500000D03*
%TD*%
D22*
%TO.P,Q2,1,E_1*%
%TO.N,GND*%
X137800000Y-62720000D03*
D21*
%TO.P,Q2,2,B_2*%
%TO.N,Net-(Q2-B)*%
X137800000Y-65260000D03*
%TO.P,Q2,3,C_3*%
%TO.N,INT_GM*%
X137800000Y-67800000D03*
%TD*%
D28*
%TO.N,GND*%
X209800000Y-55450000D03*
X198000000Y-61400000D03*
X217000000Y-51300000D03*
X211050000Y-57950000D03*
X200300000Y-54800000D03*
X176650000Y-66550000D03*
X198200000Y-34500000D03*
X197100000Y-57200000D03*
X229800000Y-42600000D03*
X206000000Y-68400000D03*
X194100000Y-64300000D03*
X176445618Y-57518383D03*
X225970000Y-37700000D03*
X214900000Y-68400000D03*
X230200000Y-48200000D03*
X222200000Y-50400000D03*
X161700000Y-57800000D03*
X197382762Y-50805239D03*
X217189336Y-60304265D03*
X181755486Y-63170759D03*
X209800000Y-56700000D03*
X161700000Y-66900000D03*
X227300000Y-42600000D03*
X227000000Y-33500000D03*
X161700000Y-60000000D03*
X230100000Y-46200000D03*
X187800000Y-34000000D03*
X161700000Y-65500000D03*
X194500000Y-67400000D03*
X212300000Y-55450000D03*
X207800000Y-33700000D03*
X200300000Y-56000000D03*
X222850000Y-65000000D03*
X212900000Y-33800000D03*
X211050000Y-56700000D03*
X161700000Y-62800000D03*
X184500000Y-37200000D03*
X191400000Y-34500000D03*
X221400000Y-66300000D03*
X199700000Y-51500000D03*
X223200000Y-53100000D03*
X202400000Y-58900000D03*
X225970000Y-40240000D03*
X211050000Y-55450000D03*
X201700000Y-51100000D03*
X192400000Y-55400000D03*
X220100000Y-34000000D03*
X223430000Y-40240000D03*
X215100000Y-62300000D03*
X187900000Y-51400000D03*
X207500000Y-37700000D03*
X161700000Y-59000000D03*
X176900000Y-61700000D03*
X230200000Y-37600000D03*
X212000000Y-68400000D03*
X223430000Y-37700000D03*
X161700000Y-64200000D03*
X204400000Y-37700000D03*
X221900000Y-51300000D03*
X224000000Y-33700000D03*
X212300000Y-57950000D03*
X208700000Y-68450000D03*
X230000000Y-44200000D03*
X165800000Y-53900000D03*
X196800000Y-37300000D03*
X161700000Y-68400000D03*
X200600000Y-61700000D03*
X224000000Y-68100000D03*
X212300000Y-56700000D03*
X216200000Y-60100000D03*
X209200000Y-38400000D03*
X161700000Y-61400000D03*
X228510000Y-35160000D03*
X207400000Y-52600000D03*
X216900000Y-53100000D03*
X165800000Y-51100000D03*
X223430000Y-35160000D03*
X216500000Y-34000000D03*
X190900000Y-37300000D03*
X230200000Y-40400000D03*
X230200000Y-34100000D03*
X160600000Y-55700000D03*
X228510000Y-37700000D03*
X171100000Y-67000000D03*
X165800000Y-52400000D03*
X230200000Y-50500000D03*
X203300000Y-33800000D03*
X209800000Y-57950000D03*
X208100000Y-49500000D03*
X196000000Y-58100000D03*
X228510000Y-40240000D03*
X225970000Y-35160000D03*
%TO.N,VS*%
X223900000Y-48775000D03*
X223900000Y-47225000D03*
X225637500Y-46800000D03*
X225637500Y-49100000D03*
X224700000Y-48000000D03*
%TO.N,Net-(BT1-+)*%
X149130000Y-37700000D03*
X149130000Y-40240000D03*
X149130000Y-35160000D03*
X144050000Y-37700000D03*
X146590000Y-40240000D03*
X146590000Y-37700000D03*
X146590000Y-35160000D03*
X144050000Y-40240000D03*
X144050000Y-35160000D03*
%TO.N,SW_2*%
X191025000Y-49600000D03*
X205141051Y-52452983D03*
%TO.N,+3V3*%
X211200000Y-64000000D03*
X215600000Y-47800000D03*
X216800000Y-48200000D03*
X207700000Y-63900000D03*
X194900000Y-61800000D03*
X212500000Y-50300000D03*
X218225000Y-48800000D03*
X209800000Y-48400000D03*
X181500000Y-44900000D03*
X215600000Y-48900000D03*
X217500000Y-48800000D03*
X192500000Y-47900000D03*
X219700000Y-62200000D03*
X216700000Y-49200000D03*
%TO.N,Net-(U4-SYS)*%
X219000000Y-38600000D03*
X219000000Y-37900000D03*
X218400000Y-38500000D03*
%TO.N,SW_1*%
X191100000Y-59800000D03*
X205800000Y-51800000D03*
%TO.N,+5V*%
X184805844Y-44473759D03*
X186600000Y-46500000D03*
X210550000Y-38000000D03*
X219600000Y-40025000D03*
X181170555Y-49499828D03*
X184200000Y-49300000D03*
X185700000Y-45600000D03*
X182900000Y-49500000D03*
%TO.N,Net-(U4-IN)*%
X218100000Y-40200000D03*
X218100000Y-41100000D03*
%TO.N,SW_3*%
X205280068Y-53749221D03*
X193500000Y-59700000D03*
%TO.N,SW_C*%
X192400000Y-59700000D03*
X206800000Y-51900000D03*
%TO.N,+1V1*%
X212600000Y-52100000D03*
X206080000Y-57360000D03*
D29*
X211900000Y-54500000D03*
D28*
X216500000Y-57400000D03*
D29*
X213250002Y-57900000D03*
X208849998Y-56900000D03*
D28*
X217100000Y-57300000D03*
X211654499Y-61082473D03*
D29*
X211500000Y-58900000D03*
%TD*%
%TO.N,Net-(U4-IN)*%
D30*
X218500000Y-64550000D02*
X218250000Y-64800000D01*
X221100000Y-62750000D02*
X219300000Y-64550000D01*
X219300000Y-64550000D02*
X218500000Y-64550000D01*
X221100000Y-43200000D02*
X221100000Y-62750000D01*
X218250000Y-64800000D02*
X218231371Y-64800000D01*
X218100000Y-40200000D02*
X221100000Y-43200000D01*
X175131100Y-63838900D02*
X173500000Y-65470000D01*
X180525624Y-63838900D02*
X175131100Y-63838900D01*
X181786724Y-65100000D02*
X180525624Y-63838900D01*
X194731371Y-64800000D02*
X194431371Y-65100000D01*
X218231371Y-64800000D02*
X194731371Y-64800000D01*
X220500000Y-62531371D02*
X218231371Y-64800000D01*
X220500000Y-53100000D02*
X220500000Y-62531371D01*
X220400000Y-53000000D02*
X220500000Y-53100000D01*
X220400000Y-43400000D02*
X220400000Y-53000000D01*
X218100000Y-41100000D02*
X220400000Y-43400000D01*
X194431371Y-65100000D02*
X181786724Y-65100000D01*
%TO.N,VS*%
X224700000Y-49631371D02*
X224700000Y-48000000D01*
X222400000Y-51931371D02*
X224700000Y-49631371D01*
X222400000Y-62800000D02*
X222400000Y-51931371D01*
X218600000Y-66600000D02*
X222400000Y-62800000D01*
X181696674Y-66600000D02*
X218600000Y-66600000D01*
%TO.N,Net-(U4-SYS)*%
X219206371Y-38500000D02*
X218400000Y-38500000D01*
X228281497Y-47575126D02*
X219206371Y-38500000D01*
X228281497Y-50242994D02*
X228281497Y-47575126D01*
X230450000Y-52411497D02*
X228281497Y-50242994D01*
X230450000Y-59650000D02*
X230450000Y-52411497D01*
X229630000Y-60470000D02*
X230450000Y-59650000D01*
X228281497Y-60470000D02*
X229630000Y-60470000D01*
X227725000Y-61813503D02*
X227725000Y-61026497D01*
X228005749Y-62094251D02*
X227725000Y-61813503D01*
X222200000Y-67900000D02*
X228005749Y-62094251D01*
X215531371Y-67900000D02*
X222200000Y-67900000D01*
X214931371Y-67300000D02*
X215531371Y-67900000D01*
X205950000Y-67300000D02*
X214931371Y-67300000D01*
X205668629Y-67581371D02*
X205950000Y-67300000D01*
X205668629Y-67600000D02*
X205668629Y-67581371D01*
X205068629Y-68200000D02*
X205668629Y-67600000D01*
X183731371Y-68200000D02*
X205068629Y-68200000D01*
X182968629Y-68200000D02*
X183018629Y-68250000D01*
X170400000Y-68200000D02*
X182968629Y-68200000D01*
X169301100Y-67101100D02*
X170400000Y-68200000D01*
X183681371Y-68250000D02*
X183731371Y-68200000D01*
X227725000Y-61026497D02*
X228281497Y-60470000D01*
X169301100Y-64773900D02*
X169301100Y-67101100D01*
X183018629Y-68250000D02*
X183681371Y-68250000D01*
X172900000Y-61175000D02*
X169301100Y-64773900D01*
X172900000Y-57850000D02*
X172900000Y-61175000D01*
%TO.N,+5V*%
X180924000Y-57850000D02*
X181170555Y-57603445D01*
X180924000Y-57850000D02*
X179850000Y-57850000D01*
X181170555Y-57603445D02*
X181170555Y-49499828D01*
X182900000Y-55874000D02*
X180924000Y-57850000D01*
X182900000Y-49500000D02*
X182900000Y-55874000D01*
X184200000Y-55500000D02*
X184200000Y-49300000D01*
X179850000Y-57850000D02*
X181850000Y-57850000D01*
X181850000Y-57850000D02*
X184200000Y-55500000D01*
%TO.N,+3V3*%
D31*
X175270000Y-52660000D02*
X175360000Y-52750000D01*
X175270000Y-48205000D02*
X175270000Y-52660000D01*
X175500000Y-47975000D02*
X175270000Y-48205000D01*
%TO.N,GND*%
D30*
X125400000Y-65600000D02*
X123800000Y-67200000D01*
X123800000Y-67200000D02*
X120332233Y-67200000D01*
X148700000Y-67500000D02*
X151700000Y-64500000D01*
X141000000Y-34800000D02*
X145600000Y-30200000D01*
X137800000Y-62720000D02*
X139020000Y-62720000D01*
X138000000Y-34800000D02*
X141000000Y-34800000D01*
X113800000Y-60667767D02*
X113800000Y-58760000D01*
X139020000Y-62720000D02*
X143800000Y-67500000D01*
X120332233Y-67200000D02*
X113800000Y-60667767D01*
X134920000Y-65600000D02*
X125400000Y-65600000D01*
X143800000Y-67500000D02*
X148700000Y-67500000D01*
X137800000Y-62720000D02*
X134920000Y-65600000D01*
%TO.N,VS*%
D32*
X225637500Y-46800000D02*
X225637500Y-49062500D01*
X225637500Y-49062500D02*
X225400000Y-49300000D01*
X224700000Y-48162500D02*
X225637500Y-49100000D01*
X223900000Y-47000000D02*
X223900000Y-48775000D01*
X224700000Y-48000000D02*
X224700000Y-48162500D01*
X223925000Y-47225000D02*
X224700000Y-48000000D01*
X223900000Y-47225000D02*
X223925000Y-47225000D01*
X224700000Y-47737500D02*
X225637500Y-46800000D01*
X225600000Y-49300000D02*
X225637500Y-49262500D01*
X224325000Y-46800000D02*
X223900000Y-47225000D01*
X225637500Y-46800000D02*
X224325000Y-46800000D01*
X225400000Y-49300000D02*
X225600000Y-49300000D01*
X225200000Y-46800000D02*
X225637500Y-46800000D01*
X225637500Y-49262500D02*
X225637500Y-49100000D01*
X224700000Y-48000000D02*
X224700000Y-47737500D01*
X223900000Y-48775000D02*
X223925000Y-48775000D01*
X223925000Y-48775000D02*
X224700000Y-48000000D01*
%TO.N,SW_2*%
D33*
X205141051Y-52452983D02*
X193877983Y-52452983D01*
X193877983Y-52452983D02*
X191025000Y-49600000D01*
%TO.N,+3V3*%
D31*
X215425000Y-47975000D02*
X183900000Y-47975000D01*
D32*
X183500000Y-47300000D02*
X183500000Y-47975000D01*
X215000000Y-48400000D02*
X209800000Y-48400000D01*
D30*
X217900000Y-64000000D02*
X211200000Y-64000000D01*
D32*
X183500000Y-47975000D02*
X183900000Y-47975000D01*
D31*
X215600000Y-47800000D02*
X215425000Y-47975000D01*
X173575000Y-49900000D02*
X151800000Y-49900000D01*
X183900000Y-47975000D02*
X183675000Y-47750000D01*
X125684164Y-37300000D02*
X121100000Y-37300000D01*
X146638478Y-50700000D02*
X145561522Y-50700000D01*
D32*
X215600000Y-48900000D02*
X213900000Y-48900000D01*
D31*
X175725000Y-47750000D02*
X175500000Y-47975000D01*
X121100000Y-61000000D02*
X118500000Y-63600000D01*
X138934164Y-50550000D02*
X125684164Y-37300000D01*
D32*
X213900000Y-48900000D02*
X212500000Y-50300000D01*
D30*
X197000000Y-63900000D02*
X194900000Y-61800000D01*
D32*
X215600000Y-47800000D02*
X215000000Y-48400000D01*
D30*
X218225000Y-48800000D02*
X218900000Y-48800000D01*
D32*
X181500000Y-44900000D02*
X181500000Y-45300000D01*
D30*
X219700000Y-62200000D02*
X217900000Y-64000000D01*
X219700000Y-49600000D02*
X219700000Y-62200000D01*
X211200000Y-64000000D02*
X207800000Y-64000000D01*
D31*
X146788478Y-50550000D02*
X146638478Y-50700000D01*
D30*
X218900000Y-48800000D02*
X219700000Y-49600000D01*
D31*
X121100000Y-37300000D02*
X121100000Y-61000000D01*
D30*
X207800000Y-64000000D02*
X207700000Y-63900000D01*
X207700000Y-63900000D02*
X197000000Y-63900000D01*
D31*
X145411522Y-50550000D02*
X138934164Y-50550000D01*
X145561522Y-50700000D02*
X145411522Y-50550000D01*
X183675000Y-47750000D02*
X175725000Y-47750000D01*
X151150000Y-50550000D02*
X146788478Y-50550000D01*
D32*
X181500000Y-45300000D02*
X183500000Y-47300000D01*
D31*
X175500000Y-47975000D02*
X173575000Y-49900000D01*
X151800000Y-49900000D02*
X151150000Y-50550000D01*
%TO.N,SW_1*%
D33*
X205753551Y-52346449D02*
X205753551Y-52706689D01*
X205753551Y-52706689D02*
X205394757Y-53065483D01*
X205800000Y-52300000D02*
X205753551Y-52346449D01*
X205034517Y-53065483D02*
X204562500Y-53537500D01*
X204562500Y-53537500D02*
X197362500Y-53537500D01*
X205394757Y-53065483D02*
X205034517Y-53065483D01*
X205800000Y-51800000D02*
X205800000Y-52300000D01*
X197362500Y-53537500D02*
X191100000Y-59800000D01*
%TO.N,+5V*%
D30*
X210550000Y-38475000D02*
X203425000Y-45600000D01*
X202525000Y-46500000D02*
X186600000Y-46500000D01*
X218331371Y-39300000D02*
X211850000Y-39300000D01*
X210550000Y-38475000D02*
X202525000Y-46500000D01*
X219056371Y-40025000D02*
X218331371Y-39300000D01*
X210550000Y-38000000D02*
X210550000Y-38475000D01*
X211850000Y-39300000D02*
X210550000Y-38000000D01*
X219600000Y-40025000D02*
X219056371Y-40025000D01*
X203425000Y-45600000D02*
X185700000Y-45600000D01*
%TO.N,SW_3*%
D33*
X205214645Y-53814644D02*
X205214645Y-53885355D01*
X205214645Y-53885355D02*
X199400000Y-59700000D01*
X205280068Y-53749221D02*
X205214645Y-53814644D01*
X199400000Y-59700000D02*
X193500000Y-59700000D01*
%TO.N,SW_C*%
X193246294Y-60312500D02*
X193196294Y-60262500D01*
X206800000Y-51900000D02*
X206700000Y-52000000D01*
X206700000Y-53195496D02*
X199632996Y-60262500D01*
X199632996Y-60262500D02*
X193803706Y-60262500D01*
X193753706Y-60312500D02*
X193246294Y-60312500D01*
X206700000Y-52000000D02*
X206700000Y-53195496D01*
X192962500Y-60262500D02*
X192400000Y-59700000D01*
X193196294Y-60262500D02*
X192962500Y-60262500D01*
X193803706Y-60262500D02*
X193753706Y-60312500D01*
%TO.N,+1V1*%
D32*
X213250002Y-57900000D02*
X216000000Y-57900000D01*
X211654499Y-61082473D02*
X211600000Y-61027974D01*
X216000000Y-57900000D02*
X216500000Y-57400000D01*
X212600000Y-52100000D02*
X212300000Y-52100000D01*
X207200000Y-56900000D02*
X208849998Y-56900000D01*
X206080000Y-57360000D02*
X206120000Y-57400000D01*
X211900000Y-52500000D02*
X211900000Y-54500000D01*
X212300000Y-52100000D02*
X211900000Y-52500000D01*
X211600000Y-61027974D02*
X211600000Y-59000000D01*
X211600000Y-59000000D02*
X211500000Y-58900000D01*
X206700000Y-57400000D02*
X207200000Y-56900000D01*
X206120000Y-57400000D02*
X206700000Y-57400000D01*
%TO.N,VS*%
D30*
X218100000Y-65600000D02*
X219600000Y-65600000D01*
X179844524Y-66600000D02*
X179575624Y-66331100D01*
X218350000Y-66600000D02*
X179844524Y-66600000D01*
X179575624Y-66331100D02*
X179906724Y-66000000D01*
X179906724Y-66000000D02*
X217700000Y-66000000D01*
X217700000Y-66000000D02*
X218100000Y-65600000D01*
X180996674Y-65900000D02*
X181696674Y-66600000D01*
%TD*%
%TA.AperFunction,Conductor*%
%TO.N,Net-(U4-SYS)*%
G36*
X219584445Y-37297607D02*
G01*
X219600149Y-37307134D01*
X219604005Y-37315219D01*
X220094601Y-39179487D01*
X220092122Y-39197688D01*
X220080304Y-39207878D01*
X219601147Y-39399540D01*
X219598827Y-39400334D01*
X219200169Y-39514236D01*
X219181921Y-39512139D01*
X219176605Y-39508130D01*
X219068015Y-39399540D01*
X218607985Y-38939511D01*
X218505258Y-38880201D01*
X218505257Y-38880200D01*
X218505256Y-38880200D01*
X218481044Y-38873713D01*
X218390680Y-38849500D01*
X217467131Y-38849500D01*
X217450160Y-38842471D01*
X217444363Y-38833089D01*
X217401232Y-38703696D01*
X217400000Y-38696107D01*
X217400000Y-38324000D01*
X217407029Y-38307029D01*
X217424000Y-38300000D01*
X217499999Y-38300000D01*
X217500000Y-38300000D01*
X218291510Y-37112733D01*
X218306771Y-37102514D01*
X218315125Y-37102327D01*
X219584445Y-37297607D01*
G37*
%TD.AperFunction*%
%TD*%
%TA.AperFunction,Conductor*%
%TO.N,+3V3*%
G36*
X215641465Y-47241465D02*
G01*
X215700000Y-47300000D01*
X216888955Y-47399079D01*
X216910030Y-47404720D01*
X218568863Y-48185347D01*
X218600541Y-48220162D01*
X218603800Y-48234201D01*
X218694432Y-49049889D01*
X218681331Y-49095100D01*
X218651955Y-49115286D01*
X216521486Y-49793163D01*
X216479185Y-49791327D01*
X215315931Y-49306638D01*
X215289849Y-49286043D01*
X214532428Y-48244589D01*
X214521419Y-48198825D01*
X214540796Y-48162912D01*
X215556609Y-47239445D01*
X215600903Y-47223522D01*
X215641465Y-47241465D01*
G37*
%TD.AperFunction*%
%TD*%
%TA.AperFunction,Conductor*%
%TO.N,GND*%
G36*
X204713285Y-53804681D02*
G01*
X204717647Y-53809043D01*
X204733564Y-53836613D01*
X204754572Y-53915017D01*
X204756142Y-53938960D01*
X204753871Y-53956214D01*
X204736384Y-53991675D01*
X199317725Y-59410336D01*
X199297774Y-59423667D01*
X199276890Y-59432318D01*
X199253354Y-59437000D01*
X194031560Y-59437000D01*
X194008024Y-59432318D01*
X193991944Y-59425657D01*
X193962221Y-59399591D01*
X193961117Y-59397679D01*
X193961116Y-59397678D01*
X193961115Y-59397676D01*
X193940509Y-59361985D01*
X193838015Y-59259491D01*
X193838012Y-59259489D01*
X193838008Y-59259486D01*
X193712482Y-59187013D01*
X193572480Y-59149500D01*
X193572477Y-59149500D01*
X193572475Y-59149500D01*
X193427525Y-59149500D01*
X193427523Y-59149500D01*
X193427520Y-59149500D01*
X193287526Y-59187010D01*
X193287522Y-59187012D01*
X193287519Y-59187014D01*
X193287515Y-59187016D01*
X193164304Y-59258152D01*
X193161981Y-59259493D01*
X193059493Y-59361982D01*
X193059487Y-59361988D01*
X193009374Y-59448785D01*
X192993556Y-59466823D01*
X192986130Y-59472522D01*
X192940665Y-59484707D01*
X192940650Y-59484705D01*
X192939937Y-59484611D01*
X192904488Y-59467126D01*
X192902464Y-59465102D01*
X192892694Y-59452370D01*
X192840513Y-59361991D01*
X192840511Y-59361988D01*
X192840509Y-59361985D01*
X192738015Y-59259491D01*
X192738012Y-59259489D01*
X192738008Y-59259486D01*
X192612482Y-59187013D01*
X192472480Y-59149500D01*
X192472477Y-59149500D01*
X192472475Y-59149500D01*
X192327525Y-59149500D01*
X192327523Y-59149500D01*
X192280888Y-59161996D01*
X192256937Y-59163565D01*
X192250371Y-59162700D01*
X192209610Y-59139162D01*
X192197431Y-59093694D01*
X192197434Y-59093673D01*
X192197620Y-59092265D01*
X192215102Y-59056833D01*
X197444777Y-53827160D01*
X197464728Y-53813831D01*
X197485613Y-53805181D01*
X197509146Y-53800500D01*
X204614814Y-53800500D01*
X204636899Y-53791351D01*
X204660437Y-53786668D01*
X204669798Y-53786668D01*
X204713285Y-53804681D01*
G37*
%TD.AperFunction*%
%TA.AperFunction,Conductor*%
G36*
X230649301Y-16155182D02*
G01*
X230657951Y-16158765D01*
X230691233Y-16192044D01*
X230694817Y-16200695D01*
X230699500Y-16224234D01*
X230699500Y-19380201D01*
X230694817Y-19403740D01*
X230693159Y-19407742D01*
X230659873Y-19441023D01*
X230612803Y-19441020D01*
X230582382Y-19413708D01*
X230582160Y-19413302D01*
X230576025Y-19396869D01*
X230575061Y-19392436D01*
X230554091Y-19296035D01*
X230554089Y-19296031D01*
X230473238Y-19107225D01*
X230473236Y-19107221D01*
X230358113Y-18937127D01*
X230358112Y-18937125D01*
X230295723Y-18874736D01*
X230212879Y-18791891D01*
X230212876Y-18791889D01*
X230212873Y-18791887D01*
X230146398Y-18746895D01*
X230146397Y-18746894D01*
X230042782Y-18676765D01*
X230042778Y-18676763D01*
X230042774Y-18676761D01*
X230042766Y-18676757D01*
X230042754Y-18676752D01*
X229855633Y-18596622D01*
X229854227Y-18595970D01*
X229848432Y-18594602D01*
X229847506Y-18594503D01*
X229653804Y-18552365D01*
X229653010Y-18552185D01*
X229651440Y-18552139D01*
X229607137Y-18549500D01*
X229607128Y-18549500D01*
X229607118Y-18549500D01*
X227692882Y-18549500D01*
X227692872Y-18549500D01*
X227692863Y-18549500D01*
X227648559Y-18552139D01*
X227644902Y-18552248D01*
X227636122Y-18552248D01*
X227629091Y-18556087D01*
X227447635Y-18595560D01*
X227446349Y-18595803D01*
X227446036Y-18595908D01*
X227446034Y-18595909D01*
X227446031Y-18595910D01*
X227352441Y-18635987D01*
X227257227Y-18676760D01*
X227257216Y-18676765D01*
X227087125Y-18791887D01*
X227087122Y-18791889D01*
X226941889Y-18937122D01*
X226941887Y-18937125D01*
X226826765Y-19107216D01*
X226826760Y-19107227D01*
X226745908Y-19296036D01*
X226745803Y-19296350D01*
X226745560Y-19297634D01*
X226720241Y-19414029D01*
X226702247Y-19496745D01*
X226702245Y-19496767D01*
X226699500Y-19542861D01*
X226699500Y-21457137D01*
X226702139Y-21501440D01*
X226702185Y-21503010D01*
X226702365Y-21503804D01*
X226722093Y-21594490D01*
X226745908Y-21703963D01*
X226745909Y-21703965D01*
X226745910Y-21703968D01*
X226746572Y-21705515D01*
X226826760Y-21892771D01*
X226826765Y-21892782D01*
X226878765Y-21969611D01*
X226941889Y-22062876D01*
X226941891Y-22062879D01*
X227031289Y-22152276D01*
X227087125Y-22208112D01*
X227153601Y-22253104D01*
X227257215Y-22323233D01*
X227257219Y-22323235D01*
X227257221Y-22323236D01*
X227257223Y-22323237D01*
X227446035Y-22404091D01*
X227645928Y-22447575D01*
X227646879Y-22447797D01*
X227647105Y-22447816D01*
X227648557Y-22447859D01*
X227666309Y-22448917D01*
X227692864Y-22450500D01*
X229607128Y-22450500D01*
X229607136Y-22450500D01*
X229641262Y-22448466D01*
X229651438Y-22447859D01*
X229652896Y-22447816D01*
X229653252Y-22447786D01*
X229654582Y-22447464D01*
X229853965Y-22404091D01*
X230042777Y-22323237D01*
X230212875Y-22208112D01*
X230358112Y-22062875D01*
X230473237Y-21892777D01*
X230554091Y-21703965D01*
X230575307Y-21606435D01*
X230584880Y-21584442D01*
X230587356Y-21580876D01*
X230626953Y-21555434D01*
X230672947Y-21565443D01*
X230696850Y-21598540D01*
X230696982Y-21598987D01*
X230699500Y-21616405D01*
X230699500Y-51863185D01*
X230694818Y-51886722D01*
X230692284Y-51892839D01*
X230658999Y-51926121D01*
X230611937Y-51926123D01*
X230605820Y-51923590D01*
X230585862Y-51910256D01*
X228758660Y-50083054D01*
X228745328Y-50063100D01*
X228736678Y-50042215D01*
X228731997Y-50018682D01*
X228731997Y-47515812D01*
X228711741Y-47440221D01*
X228701420Y-47401703D01*
X228701306Y-47401266D01*
X228701298Y-47401245D01*
X228701296Y-47401242D01*
X228701296Y-47401240D01*
X228698898Y-47397087D01*
X228698897Y-47397080D01*
X228698895Y-47397082D01*
X228667238Y-47342251D01*
X228667230Y-47342233D01*
X228641998Y-47298531D01*
X228641991Y-47298520D01*
X228641990Y-47298518D01*
X228641988Y-47298515D01*
X228641986Y-47298512D01*
X220241759Y-38898285D01*
X220225771Y-38870449D01*
X220220258Y-38849500D01*
X219802739Y-37262921D01*
X219789489Y-37226755D01*
X219785633Y-37218670D01*
X219772413Y-37195084D01*
X219758813Y-37181904D01*
X219706739Y-37131439D01*
X219691038Y-37121913D01*
X219691032Y-37121910D01*
X219615696Y-37094498D01*
X219615695Y-37094497D01*
X219615693Y-37094497D01*
X218346373Y-36899217D01*
X218310526Y-36896878D01*
X218310520Y-36896878D01*
X218310518Y-36896878D01*
X218302159Y-36897065D01*
X218302154Y-36897066D01*
X218277848Y-36899059D01*
X218277842Y-36899060D01*
X218192431Y-36931760D01*
X218177171Y-36941978D01*
X218177171Y-36941979D01*
X218120530Y-36998735D01*
X218120520Y-36998747D01*
X217398976Y-38081063D01*
X217359866Y-38107255D01*
X217359805Y-38107267D01*
X217345368Y-38110139D01*
X217345360Y-38110141D01*
X217328398Y-38117166D01*
X217328389Y-38117171D01*
X217270089Y-38153804D01*
X217270088Y-38153805D01*
X217230138Y-38210112D01*
X217223758Y-38219107D01*
X217217168Y-38228395D01*
X217210140Y-38245362D01*
X217210137Y-38245372D01*
X217194500Y-38323994D01*
X217194500Y-38696106D01*
X217197156Y-38729040D01*
X217197157Y-38729048D01*
X217198388Y-38736627D01*
X217206279Y-38768685D01*
X217206621Y-38769867D01*
X217206573Y-38769880D01*
X217206574Y-38769883D01*
X217206518Y-38769896D01*
X217206131Y-38770008D01*
X217202898Y-38815504D01*
X217167339Y-38846344D01*
X217147891Y-38849500D01*
X212074312Y-38849500D01*
X212050777Y-38844818D01*
X212029892Y-38836167D01*
X212009940Y-38822836D01*
X211112703Y-37925600D01*
X211102930Y-37912863D01*
X211095112Y-37899322D01*
X211088967Y-37884489D01*
X211086692Y-37875998D01*
X211062984Y-37787515D01*
X210990509Y-37661985D01*
X210888015Y-37559491D01*
X210888012Y-37559489D01*
X210888008Y-37559486D01*
X210762482Y-37487013D01*
X210622480Y-37449500D01*
X210622477Y-37449500D01*
X210622475Y-37449500D01*
X210477525Y-37449500D01*
X210477523Y-37449500D01*
X210477520Y-37449500D01*
X210337526Y-37487010D01*
X210337522Y-37487012D01*
X210211981Y-37559493D01*
X210109493Y-37661981D01*
X210037012Y-37787522D01*
X210037010Y-37787527D01*
X209999500Y-37927518D01*
X209999500Y-38072479D01*
X210036868Y-38211937D01*
X210037004Y-38212466D01*
X210040765Y-38219107D01*
X210041064Y-38219497D01*
X210057958Y-38248758D01*
X210065672Y-38271478D01*
X210067495Y-38285321D01*
X210059779Y-38324106D01*
X210058348Y-38326584D01*
X210048577Y-38339316D01*
X203265060Y-45122836D01*
X203245109Y-45136167D01*
X203224225Y-45144818D01*
X203200689Y-45149500D01*
X186045288Y-45149500D01*
X186029371Y-45147404D01*
X186014260Y-45143355D01*
X185999427Y-45137212D01*
X185956598Y-45112485D01*
X185912485Y-45087016D01*
X185912482Y-45087015D01*
X185912480Y-45087014D01*
X185912475Y-45087011D01*
X185772480Y-45049500D01*
X185772477Y-45049500D01*
X185772475Y-45049500D01*
X185627525Y-45049500D01*
X185627523Y-45049500D01*
X185627520Y-45049500D01*
X185487526Y-45087010D01*
X185487522Y-45087012D01*
X185487519Y-45087014D01*
X185487515Y-45087016D01*
X185393238Y-45141447D01*
X185361981Y-45159493D01*
X185259494Y-45261981D01*
X185259493Y-45261981D01*
X185259490Y-45261985D01*
X185259490Y-45261986D01*
X185215482Y-45338211D01*
X185187012Y-45387522D01*
X185187010Y-45387527D01*
X185149500Y-45527518D01*
X185149500Y-45672480D01*
X185187013Y-45812482D01*
X185259486Y-45938008D01*
X185259489Y-45938012D01*
X185259491Y-45938015D01*
X185361985Y-46040509D01*
X185487515Y-46112984D01*
X185487519Y-46112986D01*
X185487542Y-46112995D01*
X185488019Y-46113119D01*
X185527733Y-46123760D01*
X185627521Y-46150500D01*
X185772476Y-46150500D01*
X185772477Y-46150500D01*
X185784822Y-46147191D01*
X185834206Y-46133958D01*
X185834207Y-46133958D01*
X185912478Y-46112986D01*
X185912478Y-46112985D01*
X185912485Y-46112984D01*
X185999427Y-46062788D01*
X186014263Y-46056643D01*
X186029374Y-46052595D01*
X186045288Y-46050500D01*
X186110268Y-46050500D01*
X186133800Y-46055180D01*
X186139916Y-46057713D01*
X186173202Y-46090995D01*
X186173206Y-46138060D01*
X186170588Y-46144383D01*
X186160749Y-46160026D01*
X186160803Y-46160063D01*
X186160462Y-46160562D01*
X186160563Y-46160643D01*
X186159618Y-46161823D01*
X186159584Y-46161879D01*
X186159495Y-46161977D01*
X186087012Y-46287522D01*
X186087012Y-46287523D01*
X186049500Y-46427518D01*
X186049500Y-46572480D01*
X186087013Y-46712482D01*
X186159486Y-46838008D01*
X186159489Y-46838012D01*
X186159491Y-46838015D01*
X186261985Y-46940509D01*
X186387515Y-47012984D01*
X186387519Y-47012986D01*
X186387542Y-47012995D01*
X186388019Y-47013119D01*
X186410437Y-47019126D01*
X186527521Y-47050500D01*
X186672476Y-47050500D01*
X186672477Y-47050500D01*
X186689052Y-47046058D01*
X186734206Y-47033958D01*
X186734207Y-47033958D01*
X186812478Y-47012986D01*
X186812478Y-47012985D01*
X186812485Y-47012984D01*
X186899427Y-46962788D01*
X186914263Y-46956643D01*
X186929374Y-46952595D01*
X186945288Y-46950500D01*
X202584311Y-46950500D01*
X202607148Y-46944380D01*
X202636113Y-46936619D01*
X202687918Y-46922738D01*
X202698887Y-46919799D01*
X202801614Y-46860489D01*
X210735365Y-38926736D01*
X210755313Y-38913408D01*
X210763967Y-38909824D01*
X210811031Y-38909825D01*
X210819682Y-38913408D01*
X210839635Y-38926739D01*
X211265261Y-39352365D01*
X211573386Y-39660490D01*
X211676114Y-39719799D01*
X211676118Y-39719800D01*
X211676137Y-39719808D01*
X211676547Y-39719915D01*
X211740296Y-39736996D01*
X211790687Y-39750500D01*
X211790689Y-39750500D01*
X211790691Y-39750500D01*
X217610268Y-39750500D01*
X217633800Y-39755180D01*
X217639916Y-39757713D01*
X217673202Y-39790995D01*
X217673206Y-39838060D01*
X217670588Y-39844383D01*
X217660749Y-39860026D01*
X217660803Y-39860063D01*
X217660462Y-39860562D01*
X217660563Y-39860643D01*
X217659618Y-39861823D01*
X217659584Y-39861879D01*
X217659495Y-39861977D01*
X217587012Y-39987522D01*
X217587010Y-39987527D01*
X217549500Y-40127518D01*
X217549500Y-40272480D01*
X217587013Y-40412482D01*
X217659486Y-40538008D01*
X217659489Y-40538012D01*
X217659491Y-40538015D01*
X217659494Y-40538018D01*
X217719338Y-40597862D01*
X217732670Y-40617816D01*
X217736253Y-40626467D01*
X217736252Y-40673535D01*
X217732669Y-40682185D01*
X217719338Y-40702137D01*
X217659493Y-40761981D01*
X217587012Y-40887522D01*
X217587010Y-40887527D01*
X217549500Y-41027518D01*
X217549500Y-41172480D01*
X217587013Y-41312482D01*
X217659486Y-41438008D01*
X217659489Y-41438012D01*
X217659491Y-41438015D01*
X217761985Y-41540509D01*
X217887515Y-41612984D01*
X217984491Y-41638968D01*
X217999319Y-41645110D01*
X218012869Y-41652933D01*
X218025601Y-41662704D01*
X219922836Y-43559939D01*
X219936167Y-43579891D01*
X219944818Y-43600776D01*
X219949500Y-43624311D01*
X219949500Y-49051687D01*
X219944818Y-49075224D01*
X219942284Y-49081341D01*
X219908999Y-49114623D01*
X219861937Y-49114625D01*
X219855820Y-49112092D01*
X219835862Y-49098758D01*
X219176617Y-48439514D01*
X219176614Y-48439511D01*
X219176611Y-48439509D01*
X219176607Y-48439506D01*
X219176606Y-48439505D01*
X219073897Y-48380205D01*
X219073891Y-48380202D01*
X219073883Y-48380199D01*
X219067396Y-48378461D01*
X219049672Y-48373712D01*
X219019552Y-48365641D01*
X218959314Y-48349500D01*
X218959312Y-48349500D01*
X218959309Y-48349500D01*
X218878421Y-48349500D01*
X218834934Y-48331487D01*
X218817297Y-48294792D01*
X218815181Y-48275749D01*
X218808043Y-48211507D01*
X218803977Y-48187732D01*
X218800718Y-48173693D01*
X218797492Y-48161506D01*
X218752538Y-48081861D01*
X218740354Y-48068470D01*
X218720868Y-48047054D01*
X218720865Y-48047051D01*
X218720860Y-48047046D01*
X218677862Y-48015286D01*
X218656365Y-47999407D01*
X218656363Y-47999406D01*
X217355033Y-47387016D01*
X216997531Y-47218780D01*
X216997525Y-47218778D01*
X216997521Y-47218776D01*
X216963169Y-47206209D01*
X216953621Y-47203653D01*
X216942089Y-47200567D01*
X216942084Y-47200566D01*
X216942080Y-47200565D01*
X216916351Y-47196087D01*
X216906021Y-47194289D01*
X216748061Y-47181125D01*
X215811083Y-47103044D01*
X215781417Y-47092482D01*
X215724599Y-47053532D01*
X215724597Y-47053531D01*
X215724594Y-47053529D01*
X215684040Y-47035590D01*
X215684028Y-47035585D01*
X215622178Y-47019126D01*
X215622175Y-47019126D01*
X215531383Y-47030138D01*
X215487095Y-47046058D01*
X215487088Y-47046061D01*
X215418374Y-47087387D01*
X215418368Y-47087391D01*
X215010144Y-47458506D01*
X214968775Y-47474500D01*
X214719231Y-47474500D01*
X214695694Y-47469818D01*
X214689577Y-47467284D01*
X214656295Y-47433999D01*
X214656289Y-47386948D01*
X214656832Y-47385636D01*
X214682905Y-47355894D01*
X214880289Y-47241936D01*
X215072738Y-47094265D01*
X215244265Y-46922738D01*
X215378382Y-46747953D01*
X215391933Y-46730293D01*
X215391934Y-46730292D01*
X215393532Y-46727525D01*
X215513224Y-46520212D01*
X215606054Y-46296100D01*
X215668838Y-46061789D01*
X215700500Y-45821288D01*
X215700500Y-45578712D01*
X215668838Y-45338211D01*
X215666280Y-45328666D01*
X215629244Y-45190446D01*
X215606054Y-45103900D01*
X215513224Y-44879788D01*
X215405253Y-44692777D01*
X215391934Y-44669707D01*
X215391933Y-44669706D01*
X215391932Y-44669705D01*
X215391930Y-44669701D01*
X215389487Y-44666517D01*
X215389476Y-44666504D01*
X215244267Y-44477264D01*
X215072734Y-44305731D01*
X214880293Y-44158066D01*
X214880292Y-44158065D01*
X214775250Y-44097420D01*
X214670212Y-44036776D01*
X214446100Y-43943946D01*
X214446094Y-43943944D01*
X214446091Y-43943943D01*
X214446085Y-43943941D01*
X214211809Y-43881166D01*
X214211788Y-43881161D01*
X214186185Y-43877791D01*
X214186185Y-43877790D01*
X213971298Y-43849500D01*
X213971293Y-43849500D01*
X213971288Y-43849500D01*
X213728712Y-43849500D01*
X213728706Y-43849500D01*
X213728700Y-43849500D01*
X213488206Y-43881162D01*
X213488197Y-43881164D01*
X213253915Y-43943940D01*
X213253896Y-43943947D01*
X213029791Y-44036774D01*
X212819705Y-44158066D01*
X212819706Y-44158066D01*
X212627264Y-44305731D01*
X212455731Y-44477264D01*
X212310520Y-44666506D01*
X212310519Y-44666508D01*
X212309118Y-44668334D01*
X212308064Y-44669708D01*
X212186774Y-44879791D01*
X212093947Y-45103896D01*
X212093940Y-45103915D01*
X212031164Y-45338197D01*
X212031162Y-45338206D01*
X211999500Y-45578700D01*
X211999500Y-45821298D01*
X212010177Y-45902393D01*
X212024241Y-46009218D01*
X212030484Y-46056643D01*
X212030858Y-46059480D01*
X212031164Y-46061801D01*
X212031165Y-46061808D01*
X212093941Y-46296085D01*
X212093943Y-46296091D01*
X212093944Y-46296094D01*
X212093946Y-46296100D01*
X212186776Y-46520212D01*
X212186777Y-46520215D01*
X212186779Y-46520218D01*
X212186780Y-46520220D01*
X212225635Y-46587518D01*
X212225635Y-46587519D01*
X212225636Y-46587519D01*
X212306467Y-46727525D01*
X212308064Y-46730290D01*
X212308066Y-46730293D01*
X212455731Y-46922734D01*
X212627264Y-47094267D01*
X212715453Y-47161937D01*
X212789532Y-47218780D01*
X212816508Y-47239479D01*
X212816514Y-47239485D01*
X212819699Y-47241928D01*
X212819706Y-47241933D01*
X212819707Y-47241934D01*
X212824001Y-47244413D01*
X212824002Y-47244414D01*
X212824003Y-47244414D01*
X213013160Y-47353624D01*
X213031200Y-47369445D01*
X213035230Y-47374697D01*
X213047413Y-47420163D01*
X213023878Y-47460927D01*
X213022752Y-47461791D01*
X212985313Y-47474500D01*
X192888605Y-47474500D01*
X192868836Y-47471236D01*
X192849138Y-47464549D01*
X192838160Y-47459574D01*
X192712482Y-47387013D01*
X192572480Y-47349500D01*
X192572477Y-47349500D01*
X192572475Y-47349500D01*
X192427525Y-47349500D01*
X192427523Y-47349500D01*
X192427520Y-47349500D01*
X192287526Y-47387010D01*
X192287516Y-47387015D01*
X192161836Y-47459575D01*
X192150859Y-47464549D01*
X192131167Y-47471235D01*
X192111395Y-47474500D01*
X184145022Y-47474500D01*
X184121487Y-47469818D01*
X184100602Y-47461167D01*
X184080650Y-47447836D01*
X183982317Y-47349503D01*
X183982314Y-47349500D01*
X183982309Y-47349497D01*
X183982307Y-47349495D01*
X183868187Y-47283607D01*
X183853712Y-47279729D01*
X183848062Y-47278215D01*
X183826540Y-47267600D01*
X183826094Y-47267258D01*
X183823707Y-47265426D01*
X183812735Y-47257006D01*
X183790772Y-47224134D01*
X183784457Y-47200565D01*
X183780145Y-47184470D01*
X183780030Y-47184028D01*
X183780021Y-47184013D01*
X183780021Y-47184011D01*
X183740460Y-47115489D01*
X183684511Y-47059540D01*
X181953637Y-45328666D01*
X181940305Y-45308714D01*
X181935830Y-45297911D01*
X181934417Y-45254605D01*
X181937449Y-45245676D01*
X181942423Y-45234700D01*
X182012981Y-45112490D01*
X182012980Y-45112490D01*
X182012984Y-45112485D01*
X182015283Y-45103905D01*
X182029861Y-45049501D01*
X182029861Y-45049500D01*
X182050500Y-44972479D01*
X182050500Y-44827519D01*
X182016061Y-44699000D01*
X182016061Y-44698998D01*
X182014393Y-44692775D01*
X182012984Y-44687515D01*
X181940509Y-44561985D01*
X181838015Y-44459491D01*
X181838010Y-44459488D01*
X181822467Y-44450514D01*
X181822460Y-44450510D01*
X181822458Y-44450507D01*
X181815461Y-44446468D01*
X181815450Y-44446463D01*
X181737187Y-44401277D01*
X184255344Y-44401277D01*
X184255344Y-44546239D01*
X184292857Y-44686241D01*
X184365330Y-44811767D01*
X184365333Y-44811771D01*
X184365335Y-44811774D01*
X184467829Y-44914268D01*
X184593359Y-44986743D01*
X184593361Y-44986744D01*
X184593386Y-44986754D01*
X184593863Y-44986878D01*
X184633577Y-44997519D01*
X184733365Y-45024259D01*
X184878320Y-45024259D01*
X184878321Y-45024259D01*
X184940610Y-45007568D01*
X184940611Y-45007568D01*
X185018322Y-44986745D01*
X185018322Y-44986744D01*
X185018329Y-44986743D01*
X185143859Y-44914268D01*
X185246353Y-44811774D01*
X185318828Y-44686244D01*
X185349813Y-44570608D01*
X185356344Y-44546236D01*
X185356344Y-44401281D01*
X185356344Y-44401278D01*
X185318970Y-44261805D01*
X185318839Y-44261301D01*
X185318828Y-44261274D01*
X185246353Y-44135744D01*
X185143859Y-44033250D01*
X185143856Y-44033248D01*
X185143852Y-44033245D01*
X185018326Y-43960772D01*
X184878324Y-43923259D01*
X184878321Y-43923259D01*
X184878319Y-43923259D01*
X184733369Y-43923259D01*
X184733367Y-43923259D01*
X184733364Y-43923259D01*
X184593370Y-43960769D01*
X184593366Y-43960771D01*
X184593363Y-43960773D01*
X184593359Y-43960775D01*
X184485825Y-44022860D01*
X184467825Y-44033252D01*
X184365337Y-44135740D01*
X184365334Y-44135744D01*
X184365334Y-44135745D01*
X184343967Y-44172754D01*
X184292856Y-44261281D01*
X184292854Y-44261286D01*
X184255344Y-44401277D01*
X181737187Y-44401277D01*
X181712482Y-44387013D01*
X181572480Y-44349500D01*
X181572477Y-44349500D01*
X181572475Y-44349500D01*
X181427525Y-44349500D01*
X181427523Y-44349500D01*
X181427520Y-44349500D01*
X181287526Y-44387010D01*
X181287522Y-44387012D01*
X181287519Y-44387014D01*
X181287515Y-44387016D01*
X181161990Y-44459488D01*
X181161981Y-44459493D01*
X181059493Y-44561981D01*
X180987012Y-44687522D01*
X180987010Y-44687527D01*
X180949500Y-44827518D01*
X180949500Y-44972480D01*
X180987013Y-45112482D01*
X181059486Y-45238008D01*
X181059489Y-45238012D01*
X181059491Y-45238015D01*
X181161985Y-45340509D01*
X181174011Y-45347452D01*
X181192050Y-45363272D01*
X181205809Y-45381202D01*
X181216423Y-45402723D01*
X181219975Y-45415981D01*
X181219980Y-45415992D01*
X181222150Y-45419750D01*
X181239903Y-45450500D01*
X181259535Y-45484504D01*
X181259538Y-45484508D01*
X181259540Y-45484511D01*
X181259543Y-45484514D01*
X181259544Y-45484515D01*
X182910891Y-47135862D01*
X182924225Y-47155820D01*
X182926758Y-47161937D01*
X182926753Y-47209007D01*
X182893477Y-47242282D01*
X182887361Y-47244816D01*
X182863821Y-47249500D01*
X175659105Y-47249500D01*
X175595462Y-47266552D01*
X175531819Y-47283605D01*
X175531796Y-47283617D01*
X175417688Y-47349497D01*
X175417685Y-47349499D01*
X175417685Y-47349500D01*
X173394349Y-49372836D01*
X173374398Y-49386167D01*
X173353514Y-49394818D01*
X173329978Y-49399500D01*
X151734105Y-49399500D01*
X151705894Y-49407059D01*
X151606819Y-49433605D01*
X151606796Y-49433617D01*
X151492688Y-49499497D01*
X151492685Y-49499499D01*
X151492683Y-49499502D01*
X150969349Y-50022836D01*
X150949398Y-50036167D01*
X150928514Y-50044818D01*
X150904978Y-50049500D01*
X146996602Y-50049500D01*
X146973067Y-50044818D01*
X146964656Y-50041334D01*
X146931372Y-50008051D01*
X146929341Y-49966659D01*
X146929594Y-49965828D01*
X146930586Y-49962555D01*
X146938299Y-49946249D01*
X146943802Y-49938013D01*
X146986632Y-49873914D01*
X147062051Y-49691835D01*
X147096859Y-49516841D01*
X147100500Y-49510030D01*
X147100500Y-49299412D01*
X147099315Y-49295506D01*
X147097818Y-49287977D01*
X147097818Y-49287976D01*
X147062052Y-49108170D01*
X147062050Y-49108163D01*
X147058154Y-49098758D01*
X146986632Y-48926086D01*
X146986631Y-48926084D01*
X146986630Y-48926081D01*
X146986627Y-48926077D01*
X146906051Y-48805487D01*
X146877144Y-48762224D01*
X146877139Y-48762218D01*
X146737781Y-48622860D01*
X146737775Y-48622855D01*
X146707048Y-48602324D01*
X146573926Y-48513374D01*
X146573920Y-48513371D01*
X146573916Y-48513369D01*
X146391836Y-48437949D01*
X146391828Y-48437947D01*
X146342528Y-48428140D01*
X146198547Y-48399500D01*
X146198544Y-48399500D01*
X146198541Y-48399500D01*
X146001459Y-48399500D01*
X146001456Y-48399500D01*
X146001453Y-48399500D01*
X145808166Y-48437948D01*
X145808164Y-48437948D01*
X145808163Y-48437949D01*
X145626083Y-48513369D01*
X145626081Y-48513370D01*
X145626072Y-48513374D01*
X145462223Y-48622855D01*
X145462216Y-48622861D01*
X145322861Y-48762216D01*
X145322855Y-48762223D01*
X145213374Y-48926072D01*
X145213372Y-48926077D01*
X145213369Y-48926083D01*
X145138262Y-49107409D01*
X145137948Y-49108166D01*
X145099500Y-49301451D01*
X145099500Y-49498547D01*
X145128140Y-49642528D01*
X145137947Y-49691828D01*
X145137949Y-49691836D01*
X145150378Y-49721842D01*
X145213368Y-49873914D01*
X145213374Y-49873923D01*
X145252478Y-49932447D01*
X145259971Y-49943661D01*
X145269153Y-49965826D01*
X145270929Y-49974756D01*
X145261749Y-50020920D01*
X145228473Y-50045604D01*
X145224371Y-50046849D01*
X145206510Y-50049500D01*
X139179186Y-50049500D01*
X139155651Y-50044818D01*
X139134766Y-50036167D01*
X139114814Y-50022836D01*
X133793429Y-44701451D01*
X136999500Y-44701451D01*
X136999500Y-44898547D01*
X137027538Y-45039498D01*
X137037947Y-45091828D01*
X137037949Y-45091836D01*
X137113369Y-45273916D01*
X137113370Y-45273917D01*
X137113374Y-45273926D01*
X137197948Y-45400499D01*
X137222855Y-45437775D01*
X137222860Y-45437781D01*
X137362218Y-45577139D01*
X137362224Y-45577144D01*
X137390543Y-45596066D01*
X137526077Y-45686627D01*
X137526082Y-45686630D01*
X137526084Y-45686631D01*
X137526086Y-45686632D01*
X137708165Y-45762051D01*
X137895514Y-45799317D01*
X137899413Y-45800500D01*
X138098544Y-45800500D01*
X138110031Y-45800500D01*
X138116841Y-45796859D01*
X138291835Y-45762051D01*
X138473914Y-45686632D01*
X138474893Y-45685978D01*
X138609456Y-45596066D01*
X148779500Y-45596066D01*
X148779500Y-45803932D01*
X148812015Y-46009222D01*
X148876245Y-46206898D01*
X148970609Y-46392097D01*
X149092775Y-46560244D01*
X149239754Y-46707223D01*
X149323341Y-46767953D01*
X149323342Y-46767953D01*
X149407907Y-46829393D01*
X149593104Y-46923755D01*
X149790779Y-46987984D01*
X149790782Y-46987985D01*
X149996074Y-47020500D01*
X149996078Y-47020500D01*
X150203922Y-47020500D01*
X150203926Y-47020500D01*
X150409218Y-46987985D01*
X150606896Y-46923755D01*
X150792093Y-46829393D01*
X150960248Y-46707221D01*
X151107221Y-46560248D01*
X151229393Y-46392093D01*
X151323755Y-46206896D01*
X151387985Y-46009218D01*
X151420500Y-45803926D01*
X151420500Y-45596074D01*
X151387985Y-45390782D01*
X151323755Y-45193104D01*
X151229393Y-45007907D01*
X151214017Y-44986744D01*
X151214016Y-44986743D01*
X151214016Y-44986741D01*
X151107223Y-44839754D01*
X150960244Y-44692775D01*
X150792097Y-44570609D01*
X150606898Y-44476245D01*
X150455330Y-44426997D01*
X150444292Y-44417569D01*
X150203932Y-44379500D01*
X150203929Y-44379500D01*
X150203926Y-44379500D01*
X149996074Y-44379500D01*
X149996070Y-44379500D01*
X149996066Y-44379500D01*
X149790776Y-44412015D01*
X149593100Y-44476245D01*
X149407905Y-44570607D01*
X149235763Y-44695676D01*
X149232863Y-44699667D01*
X149099667Y-44832863D01*
X149095676Y-44835763D01*
X148970607Y-45007905D01*
X148876245Y-45193100D01*
X148812015Y-45390776D01*
X148779500Y-45596066D01*
X138609456Y-45596066D01*
X138637775Y-45577144D01*
X138637776Y-45577142D01*
X138637782Y-45577139D01*
X138777139Y-45437782D01*
X138791706Y-45415982D01*
X138885717Y-45275283D01*
X138886888Y-45273630D01*
X138887767Y-45271171D01*
X138962051Y-45091835D01*
X138996859Y-44916841D01*
X139000500Y-44910030D01*
X139000500Y-44699413D01*
X138999317Y-44695516D01*
X138997473Y-44686244D01*
X138962051Y-44508165D01*
X138886632Y-44326086D01*
X138886630Y-44326083D01*
X138886630Y-44326082D01*
X138886627Y-44326077D01*
X138784179Y-44172753D01*
X138777144Y-44162224D01*
X138777139Y-44162218D01*
X138637781Y-44022860D01*
X138637775Y-44022855D01*
X138603260Y-43999793D01*
X138473926Y-43913374D01*
X138473920Y-43913371D01*
X138473916Y-43913369D01*
X138291836Y-43837949D01*
X138291828Y-43837947D01*
X138242528Y-43828140D01*
X138098547Y-43799500D01*
X138098544Y-43799500D01*
X138098541Y-43799500D01*
X137901459Y-43799500D01*
X137901456Y-43799500D01*
X137901453Y-43799500D01*
X137708166Y-43837948D01*
X137708164Y-43837948D01*
X137708163Y-43837949D01*
X137603833Y-43881164D01*
X137526081Y-43913370D01*
X137526072Y-43913374D01*
X137362223Y-44022855D01*
X137362216Y-44022861D01*
X137222861Y-44162216D01*
X137222855Y-44162223D01*
X137113374Y-44326072D01*
X137113372Y-44326077D01*
X137113369Y-44326083D01*
X137058109Y-44459494D01*
X137037948Y-44508166D01*
X136999500Y-44701451D01*
X133793429Y-44701451D01*
X125991481Y-36899503D01*
X125991478Y-36899500D01*
X125991475Y-36899498D01*
X125991471Y-36899495D01*
X125877349Y-36833607D01*
X125877344Y-36833605D01*
X125877343Y-36833605D01*
X125750059Y-36799500D01*
X122572013Y-36799500D01*
X122548478Y-36794819D01*
X122534753Y-36789134D01*
X122505835Y-36764423D01*
X122505075Y-36763182D01*
X122499039Y-36750079D01*
X122490419Y-36723548D01*
X122489464Y-36721843D01*
X122383341Y-36513564D01*
X122244518Y-36322491D01*
X122077506Y-36155479D01*
X121886440Y-36016661D01*
X121886437Y-36016659D01*
X121886435Y-36016658D01*
X121675995Y-35909433D01*
X121675994Y-35909432D01*
X121451368Y-35836447D01*
X121218098Y-35799500D01*
X121218095Y-35799500D01*
X121218092Y-35799500D01*
X120981908Y-35799500D01*
X120981904Y-35799500D01*
X120981900Y-35799500D01*
X120748630Y-35836447D01*
X120524004Y-35909432D01*
X120524003Y-35909433D01*
X120313558Y-36016661D01*
X120118502Y-36158378D01*
X120115601Y-36162371D01*
X119962371Y-36315601D01*
X119958378Y-36318502D01*
X119816661Y-36513558D01*
X119709433Y-36724003D01*
X119709432Y-36724004D01*
X119636447Y-36948630D01*
X119599500Y-37181900D01*
X119599500Y-37418098D01*
X119636447Y-37651368D01*
X119709432Y-37875994D01*
X119709433Y-37875995D01*
X119735687Y-37927522D01*
X119816661Y-38086440D01*
X119955479Y-38277506D01*
X120122492Y-38444519D01*
X120298610Y-38572477D01*
X120313565Y-38583342D01*
X120313567Y-38583343D01*
X120524008Y-38690568D01*
X120524010Y-38690568D01*
X120524011Y-38690569D01*
X120524013Y-38690570D01*
X120533010Y-38693493D01*
X120545366Y-38697507D01*
X120566306Y-38709233D01*
X120577603Y-38718882D01*
X120597454Y-38751259D01*
X120597794Y-38752676D01*
X120599500Y-38767055D01*
X120599500Y-60754977D01*
X120594818Y-60778512D01*
X120586167Y-60799397D01*
X120572836Y-60819349D01*
X118792369Y-62599815D01*
X118772415Y-62613148D01*
X118755499Y-62620154D01*
X118719968Y-62623652D01*
X118598547Y-62599500D01*
X118598544Y-62599500D01*
X118598541Y-62599500D01*
X118401459Y-62599500D01*
X118401456Y-62599500D01*
X118401453Y-62599500D01*
X118208166Y-62637948D01*
X118208164Y-62637948D01*
X118208163Y-62637949D01*
X118203067Y-62640060D01*
X118026081Y-62713370D01*
X118026072Y-62713374D01*
X117862223Y-62822855D01*
X117862216Y-62822861D01*
X117722861Y-62962216D01*
X117722855Y-62962223D01*
X117613374Y-63126072D01*
X117613372Y-63126077D01*
X117613369Y-63126083D01*
X117537949Y-63308163D01*
X117537947Y-63308171D01*
X117531256Y-63341811D01*
X117499500Y-63501451D01*
X117499500Y-63698547D01*
X117528140Y-63842528D01*
X117537947Y-63891828D01*
X117537949Y-63891836D01*
X117613369Y-64073916D01*
X117613370Y-64073917D01*
X117613374Y-64073926D01*
X117707073Y-64214155D01*
X117722855Y-64237775D01*
X117722860Y-64237781D01*
X117862218Y-64377139D01*
X117862224Y-64377144D01*
X117905289Y-64405919D01*
X118026077Y-64486627D01*
X118026082Y-64486630D01*
X118026084Y-64486631D01*
X118026086Y-64486632D01*
X118208165Y-64562051D01*
X118395514Y-64599317D01*
X118399413Y-64600500D01*
X118598544Y-64600500D01*
X118610031Y-64600500D01*
X118616841Y-64596859D01*
X118791835Y-64562051D01*
X118973914Y-64486632D01*
X119077116Y-64417675D01*
X119134585Y-64379275D01*
X119135779Y-64378582D01*
X119136889Y-64377782D01*
X119137953Y-64377042D01*
X119139119Y-64375802D01*
X119207508Y-64307413D01*
X119277139Y-64237782D01*
X119309319Y-64189622D01*
X119385717Y-64075283D01*
X119386888Y-64073630D01*
X119387767Y-64071171D01*
X119462051Y-63891835D01*
X119496859Y-63716841D01*
X119500500Y-63710030D01*
X119500500Y-63501455D01*
X119500499Y-63501451D01*
X132739500Y-63501451D01*
X132739500Y-63698547D01*
X132768140Y-63842528D01*
X132777947Y-63891828D01*
X132777949Y-63891836D01*
X132853369Y-64073916D01*
X132853370Y-64073917D01*
X132853374Y-64073926D01*
X132947073Y-64214155D01*
X132962855Y-64237775D01*
X132962860Y-64237781D01*
X133102218Y-64377139D01*
X133102224Y-64377144D01*
X133145289Y-64405919D01*
X133266077Y-64486627D01*
X133266082Y-64486630D01*
X133266084Y-64486631D01*
X133266086Y-64486632D01*
X133448165Y-64562051D01*
X133635514Y-64599317D01*
X133639413Y-64600500D01*
X133838544Y-64600500D01*
X133850031Y-64600500D01*
X133856841Y-64596859D01*
X134031835Y-64562051D01*
X134213914Y-64486632D01*
X134317116Y-64417675D01*
X134374585Y-64379275D01*
X134375779Y-64378582D01*
X134376889Y-64377782D01*
X134377953Y-64377042D01*
X134379119Y-64375802D01*
X134447508Y-64307413D01*
X134517139Y-64237782D01*
X134549319Y-64189622D01*
X134625717Y-64075283D01*
X134626888Y-64073630D01*
X134627767Y-64071171D01*
X134702051Y-63891835D01*
X134736859Y-63716841D01*
X134740500Y-63710030D01*
X134740500Y-63499413D01*
X134739316Y-63495513D01*
X134738008Y-63488934D01*
X134737625Y-63487008D01*
X134737625Y-63487007D01*
X134702052Y-63308170D01*
X134702050Y-63308163D01*
X134626630Y-63126082D01*
X134626627Y-63126077D01*
X134524936Y-62973886D01*
X134517144Y-62962224D01*
X134517139Y-62962218D01*
X134377781Y-62822860D01*
X134377775Y-62822855D01*
X134357505Y-62809311D01*
X134213926Y-62713374D01*
X134213920Y-62713371D01*
X134213916Y-62713369D01*
X134031836Y-62637949D01*
X134031828Y-62637947D01*
X133942378Y-62620154D01*
X133838547Y-62599500D01*
X133838544Y-62599500D01*
X133838541Y-62599500D01*
X133641459Y-62599500D01*
X133641456Y-62599500D01*
X133641453Y-62599500D01*
X133448166Y-62637948D01*
X133448164Y-62637948D01*
X133448163Y-62637949D01*
X133443067Y-62640060D01*
X133266081Y-62713370D01*
X133266072Y-62713374D01*
X133102223Y-62822855D01*
X133102216Y-62822861D01*
X132962861Y-62962216D01*
X132962855Y-62962223D01*
X132853374Y-63126072D01*
X132853372Y-63126077D01*
X132853369Y-63126083D01*
X132777949Y-63308163D01*
X132777947Y-63308171D01*
X132771256Y-63341811D01*
X132739500Y-63501451D01*
X119500499Y-63501451D01*
X119486581Y-63431487D01*
X119482827Y-63412613D01*
X119477087Y-63383758D01*
X119477087Y-63359767D01*
X119480658Y-63341809D01*
X119497487Y-63310323D01*
X121398662Y-61409149D01*
X121398666Y-61409147D01*
X121407313Y-61400500D01*
X121407314Y-61400500D01*
X121500500Y-61307314D01*
X121566392Y-61193186D01*
X121579581Y-61143963D01*
X121590040Y-61104928D01*
X121600500Y-61065895D01*
X121600500Y-57741258D01*
X165768400Y-57741258D01*
X165768400Y-57958740D01*
X165802420Y-58173527D01*
X165869620Y-58380348D01*
X165869622Y-58380353D01*
X165896757Y-58433607D01*
X165964790Y-58567129D01*
X165968350Y-58574116D01*
X166096175Y-58750052D01*
X166249948Y-58903825D01*
X166425884Y-59031650D01*
X166619650Y-59130379D01*
X166826475Y-59197580D01*
X167041266Y-59231600D01*
X167041270Y-59231600D01*
X167258730Y-59231600D01*
X167258734Y-59231600D01*
X167473525Y-59197580D01*
X167680350Y-59130379D01*
X167874116Y-59031650D01*
X168050052Y-58903825D01*
X168203825Y-58750052D01*
X168331650Y-58574116D01*
X168430379Y-58380350D01*
X168497580Y-58173525D01*
X168531600Y-57958734D01*
X168531600Y-57741266D01*
X168497580Y-57526475D01*
X168430379Y-57319650D01*
X168331650Y-57125884D01*
X168203825Y-56949948D01*
X168050052Y-56796175D01*
X167874116Y-56668350D01*
X167856831Y-56659543D01*
X167721671Y-56590675D01*
X167680353Y-56569622D01*
X167680348Y-56569620D01*
X167473527Y-56502420D01*
X167258740Y-56468400D01*
X167258737Y-56468400D01*
X167258734Y-56468400D01*
X167041266Y-56468400D01*
X167041262Y-56468400D01*
X167041258Y-56468400D01*
X166826471Y-56502420D01*
X166619650Y-56569620D01*
X166619645Y-56569622D01*
X166425886Y-56668348D01*
X166249942Y-56796179D01*
X166096179Y-56949942D01*
X165968348Y-57125886D01*
X165869622Y-57319645D01*
X165869620Y-57319650D01*
X165802420Y-57526471D01*
X165768400Y-57741258D01*
X121600500Y-57741258D01*
X121600500Y-53789770D01*
X136999500Y-53789770D01*
X136999500Y-54010228D01*
X137028400Y-54192690D01*
X137033985Y-54227953D01*
X137060726Y-54310255D01*
X137079398Y-54367720D01*
X137079398Y-54367721D01*
X137101449Y-54435591D01*
X137101775Y-54436727D01*
X137102104Y-54437605D01*
X137102105Y-54437606D01*
X137102106Y-54437609D01*
X137167472Y-54565894D01*
X137202185Y-54634022D01*
X137331758Y-54812365D01*
X137487635Y-54968242D01*
X137665978Y-55097815D01*
X137862394Y-55197895D01*
X138072049Y-55266015D01*
X138289778Y-55300500D01*
X138289782Y-55300500D01*
X138510218Y-55300500D01*
X138510222Y-55300500D01*
X138727951Y-55266015D01*
X138937606Y-55197895D01*
X139134022Y-55097815D01*
X139312365Y-54968242D01*
X139468242Y-54812365D01*
X139597815Y-54634022D01*
X139697895Y-54437606D01*
X139766015Y-54227951D01*
X139800500Y-54010222D01*
X139800500Y-53789778D01*
X139766015Y-53572049D01*
X139697895Y-53362394D01*
X139597815Y-53165978D01*
X139468242Y-52987635D01*
X139312365Y-52831758D01*
X139134022Y-52702185D01*
X139032586Y-52650500D01*
X138937609Y-52602106D01*
X138937608Y-52602105D01*
X138937607Y-52602105D01*
X138845970Y-52572331D01*
X138727953Y-52533985D01*
X138510228Y-52499500D01*
X138510225Y-52499500D01*
X138510222Y-52499500D01*
X138289778Y-52499500D01*
X138289774Y-52499500D01*
X138289770Y-52499500D01*
X138072043Y-52533985D01*
X137864416Y-52601447D01*
X137863267Y-52601777D01*
X137862393Y-52602104D01*
X137665980Y-52702183D01*
X137487629Y-52831762D01*
X137331762Y-52987629D01*
X137202183Y-53165980D01*
X137102104Y-53362393D01*
X137101777Y-53363267D01*
X137101447Y-53364416D01*
X137033985Y-53572043D01*
X136999500Y-53789770D01*
X121600500Y-53789770D01*
X121600500Y-52397640D01*
X142499500Y-52397640D01*
X142499500Y-52602358D01*
X142531523Y-52804538D01*
X142594780Y-52999221D01*
X142594781Y-52999222D01*
X142679748Y-53165978D01*
X142687713Y-53181610D01*
X142808034Y-53347219D01*
X142952781Y-53491966D01*
X143118390Y-53612287D01*
X143300781Y-53705220D01*
X143495463Y-53768476D01*
X143495466Y-53768477D01*
X143697648Y-53800500D01*
X143697652Y-53800500D01*
X143902348Y-53800500D01*
X143902352Y-53800500D01*
X144104534Y-53768477D01*
X144299219Y-53705220D01*
X144481610Y-53612287D01*
X144647219Y-53491966D01*
X144791966Y-53347219D01*
X144912287Y-53181610D01*
X145005220Y-52999219D01*
X145068477Y-52804534D01*
X145093503Y-52646527D01*
X169229500Y-52646527D01*
X169229500Y-52853471D01*
X169269866Y-53056408D01*
X169269867Y-53056414D01*
X169269871Y-53056427D01*
X169289814Y-53104571D01*
X169336817Y-53218044D01*
X169345497Y-53238998D01*
X169349060Y-53247601D01*
X169349061Y-53247602D01*
X169389893Y-53308710D01*
X169389894Y-53308713D01*
X169464020Y-53419652D01*
X169464025Y-53419658D01*
X169584279Y-53539911D01*
X169589233Y-53551872D01*
X169610345Y-53565977D01*
X169610344Y-53565977D01*
X169619430Y-53572047D01*
X169619431Y-53572049D01*
X169619432Y-53572049D01*
X169782402Y-53680941D01*
X169871466Y-53717832D01*
X169971573Y-53759299D01*
X169973080Y-53759987D01*
X169973430Y-53760100D01*
X169973579Y-53760129D01*
X169973580Y-53760130D01*
X170170590Y-53799317D01*
X170174489Y-53800500D01*
X170383468Y-53800500D01*
X170394955Y-53800500D01*
X170401764Y-53796859D01*
X170586420Y-53760130D01*
X170586493Y-53760100D01*
X170612518Y-53749319D01*
X170777598Y-53680941D01*
X170949655Y-53565977D01*
X171095977Y-53419655D01*
X171210941Y-53247598D01*
X171279319Y-53082518D01*
X171290126Y-53056430D01*
X171290127Y-53056427D01*
X171290130Y-53056420D01*
X171326859Y-52871764D01*
X171330500Y-52864954D01*
X171330500Y-52648355D01*
X171330500Y-52646532D01*
X171330499Y-52646531D01*
X171330498Y-52646527D01*
X171769500Y-52646527D01*
X171769500Y-52853471D01*
X171809866Y-53056408D01*
X171809867Y-53056414D01*
X171809871Y-53056427D01*
X171829814Y-53104571D01*
X171876817Y-53218044D01*
X171885497Y-53238998D01*
X171889060Y-53247601D01*
X171889061Y-53247602D01*
X171929893Y-53308710D01*
X171929894Y-53308713D01*
X172004020Y-53419652D01*
X172004025Y-53419658D01*
X172124279Y-53539911D01*
X172129233Y-53551872D01*
X172150345Y-53565977D01*
X172150344Y-53565977D01*
X172159430Y-53572047D01*
X172159431Y-53572049D01*
X172159432Y-53572049D01*
X172322402Y-53680941D01*
X172411466Y-53717832D01*
X172511573Y-53759299D01*
X172513080Y-53759987D01*
X172513430Y-53760100D01*
X172513579Y-53760129D01*
X172513580Y-53760130D01*
X172710590Y-53799317D01*
X172714489Y-53800500D01*
X172923468Y-53800500D01*
X172934955Y-53800500D01*
X172941764Y-53796859D01*
X173126420Y-53760130D01*
X173126493Y-53760100D01*
X173152518Y-53749319D01*
X173317598Y-53680941D01*
X173489655Y-53565977D01*
X173635977Y-53419655D01*
X173750941Y-53247598D01*
X173819319Y-53082518D01*
X173830126Y-53056430D01*
X173830127Y-53056427D01*
X173830130Y-53056420D01*
X173866859Y-52871764D01*
X173870500Y-52864954D01*
X173870500Y-52644491D01*
X173869319Y-52640599D01*
X173863826Y-52612985D01*
X173830130Y-52443580D01*
X173830128Y-52443577D01*
X173830098Y-52443423D01*
X173829990Y-52443086D01*
X173829301Y-52441577D01*
X173811106Y-52397652D01*
X173756600Y-52266065D01*
X173750941Y-52252402D01*
X173635977Y-52080345D01*
X173515719Y-51960087D01*
X173510765Y-51948127D01*
X173353095Y-51842777D01*
X173347105Y-51833813D01*
X173317601Y-51819060D01*
X173317588Y-51819054D01*
X173317552Y-51819039D01*
X173126435Y-51739874D01*
X173126427Y-51739871D01*
X173126414Y-51739867D01*
X173126408Y-51739866D01*
X172923471Y-51699500D01*
X172923468Y-51699500D01*
X172923465Y-51699500D01*
X172716535Y-51699500D01*
X172716532Y-51699500D01*
X172716529Y-51699500D01*
X172513590Y-51739866D01*
X172513584Y-51739867D01*
X172513571Y-51739871D01*
X172513563Y-51739874D01*
X172322426Y-51819047D01*
X172322401Y-51819059D01*
X172322400Y-51819059D01*
X172150340Y-51934025D01*
X172004025Y-52080340D01*
X171889059Y-52252400D01*
X171889059Y-52252401D01*
X171889047Y-52252426D01*
X171809874Y-52443563D01*
X171809871Y-52443571D01*
X171809867Y-52443584D01*
X171809866Y-52443590D01*
X171769500Y-52646527D01*
X171330498Y-52646527D01*
X171323826Y-52612985D01*
X171290130Y-52443580D01*
X171290128Y-52443577D01*
X171290098Y-52443423D01*
X171289990Y-52443086D01*
X171289301Y-52441577D01*
X171271106Y-52397652D01*
X171216600Y-52266065D01*
X171210941Y-52252402D01*
X171095977Y-52080345D01*
X170975719Y-51960087D01*
X170970765Y-51948127D01*
X170813095Y-51842777D01*
X170807105Y-51833813D01*
X170777601Y-51819060D01*
X170777588Y-51819054D01*
X170777552Y-51819039D01*
X170586435Y-51739874D01*
X170586427Y-51739871D01*
X170586414Y-51739867D01*
X170586408Y-51739866D01*
X170383471Y-51699500D01*
X170383468Y-51699500D01*
X170383465Y-51699500D01*
X170176535Y-51699500D01*
X170176532Y-51699500D01*
X170176529Y-51699500D01*
X169973590Y-51739866D01*
X169973584Y-51739867D01*
X169973571Y-51739871D01*
X169973563Y-51739874D01*
X169782426Y-51819047D01*
X169782401Y-51819059D01*
X169782400Y-51819059D01*
X169610340Y-51934025D01*
X169464025Y-52080340D01*
X169349059Y-52252400D01*
X169349059Y-52252401D01*
X169349047Y-52252426D01*
X169269874Y-52443563D01*
X169269871Y-52443571D01*
X169269867Y-52443584D01*
X169269866Y-52443590D01*
X169229500Y-52646527D01*
X145093503Y-52646527D01*
X145100500Y-52602352D01*
X145100500Y-52397648D01*
X145068477Y-52195466D01*
X145005220Y-52000781D01*
X144912287Y-51818390D01*
X144791966Y-51652781D01*
X144647219Y-51508034D01*
X144481610Y-51387713D01*
X144426227Y-51359494D01*
X144299222Y-51294781D01*
X144299221Y-51294780D01*
X144150646Y-51246505D01*
X144139609Y-51237078D01*
X143902358Y-51199500D01*
X143902355Y-51199500D01*
X143902352Y-51199500D01*
X143697648Y-51199500D01*
X143697644Y-51199500D01*
X143697640Y-51199500D01*
X143495460Y-51231523D01*
X143300777Y-51294780D01*
X143300776Y-51294781D01*
X143118390Y-51387712D01*
X142952775Y-51508038D01*
X142808038Y-51652775D01*
X142687712Y-51818390D01*
X142594781Y-52000776D01*
X142594780Y-52000777D01*
X142531523Y-52195460D01*
X142499500Y-52397640D01*
X121600500Y-52397640D01*
X121600500Y-46896376D01*
X122549500Y-46896376D01*
X122549500Y-47083622D01*
X122586023Y-47267239D01*
X122586024Y-47267245D01*
X122586028Y-47267258D01*
X122586031Y-47267266D01*
X122657658Y-47440185D01*
X122657673Y-47440221D01*
X122657675Y-47440224D01*
X122657678Y-47440231D01*
X122657679Y-47440233D01*
X122657682Y-47440239D01*
X122657688Y-47440248D01*
X122689755Y-47488239D01*
X122761692Y-47595901D01*
X122761697Y-47595907D01*
X122894092Y-47728302D01*
X122894098Y-47728307D01*
X122965329Y-47775902D01*
X123049766Y-47832321D01*
X123069510Y-47840499D01*
X123121384Y-47861986D01*
X123197134Y-47893363D01*
X123220746Y-47903144D01*
X123222255Y-47903833D01*
X123222592Y-47903941D01*
X123222746Y-47903971D01*
X123222749Y-47903973D01*
X123400439Y-47939317D01*
X123404338Y-47940500D01*
X123593619Y-47940500D01*
X123605106Y-47940500D01*
X123611915Y-47936859D01*
X123777251Y-47903973D01*
X123777329Y-47903941D01*
X123800865Y-47894191D01*
X123950231Y-47832322D01*
X123989604Y-47806014D01*
X124102700Y-47730446D01*
X124103899Y-47729748D01*
X124105015Y-47728945D01*
X124106079Y-47728205D01*
X124107245Y-47726965D01*
X124168705Y-47665505D01*
X124238302Y-47595908D01*
X124243908Y-47587519D01*
X124341407Y-47441600D01*
X124342579Y-47439946D01*
X124343467Y-47437466D01*
X124353602Y-47413000D01*
X124412712Y-47270295D01*
X124413969Y-47267261D01*
X124413970Y-47267258D01*
X124413973Y-47267251D01*
X124446859Y-47101915D01*
X124450500Y-47095105D01*
X124450500Y-46894338D01*
X124449317Y-46890439D01*
X124448630Y-46886986D01*
X124448630Y-46886985D01*
X124448629Y-46886983D01*
X124443360Y-46860493D01*
X124413973Y-46712749D01*
X124413971Y-46712746D01*
X124413941Y-46712592D01*
X124413833Y-46712255D01*
X124413144Y-46710746D01*
X124394312Y-46665282D01*
X124355869Y-46572475D01*
X124350513Y-46559545D01*
X124342320Y-46539764D01*
X124267319Y-46427518D01*
X124238307Y-46384098D01*
X124238302Y-46384092D01*
X124183980Y-46329770D01*
X126899500Y-46329770D01*
X126899500Y-46550228D01*
X126933985Y-46767953D01*
X126964052Y-46860489D01*
X126964052Y-46860490D01*
X126995605Y-46957604D01*
X127001444Y-46975573D01*
X127001777Y-46976731D01*
X127002104Y-46977605D01*
X127002105Y-46977606D01*
X127002106Y-46977609D01*
X127072361Y-47115490D01*
X127102185Y-47174022D01*
X127231758Y-47352365D01*
X127387635Y-47508242D01*
X127565978Y-47637815D01*
X127762394Y-47737895D01*
X127972049Y-47806015D01*
X128189778Y-47840500D01*
X128189782Y-47840500D01*
X128410218Y-47840500D01*
X128410222Y-47840500D01*
X128627951Y-47806015D01*
X128837606Y-47737895D01*
X129034022Y-47637815D01*
X129212365Y-47508242D01*
X129368242Y-47352365D01*
X129497815Y-47174022D01*
X129597895Y-46977606D01*
X129666015Y-46767951D01*
X129700500Y-46550222D01*
X129700500Y-46329778D01*
X129666015Y-46112049D01*
X129597895Y-45902394D01*
X129497815Y-45705978D01*
X129368242Y-45527635D01*
X129212365Y-45371758D01*
X129034022Y-45242185D01*
X128994768Y-45222184D01*
X128837609Y-45142106D01*
X128837608Y-45142105D01*
X128837607Y-45142105D01*
X128746441Y-45112484D01*
X128627953Y-45073985D01*
X128410228Y-45039500D01*
X128410225Y-45039500D01*
X128410222Y-45039500D01*
X128189778Y-45039500D01*
X128189774Y-45039500D01*
X128189770Y-45039500D01*
X127972043Y-45073985D01*
X127764416Y-45141447D01*
X127763267Y-45141777D01*
X127762393Y-45142104D01*
X127565980Y-45242183D01*
X127387629Y-45371762D01*
X127231762Y-45527629D01*
X127102183Y-45705980D01*
X127002104Y-45902393D01*
X127001777Y-45903267D01*
X127001447Y-45904416D01*
X126933985Y-46112043D01*
X126899500Y-46329770D01*
X124183980Y-46329770D01*
X124105907Y-46251697D01*
X124105901Y-46251692D01*
X124053663Y-46216788D01*
X123950248Y-46147688D01*
X123950241Y-46147684D01*
X123950240Y-46147683D01*
X123950233Y-46147679D01*
X123950231Y-46147678D01*
X123950229Y-46147677D01*
X123950221Y-46147673D01*
X123950185Y-46147658D01*
X123777266Y-46076031D01*
X123777258Y-46076028D01*
X123777245Y-46076024D01*
X123777239Y-46076023D01*
X123593622Y-46039500D01*
X123593619Y-46039500D01*
X123593616Y-46039500D01*
X123406384Y-46039500D01*
X123406381Y-46039500D01*
X123406378Y-46039500D01*
X123222759Y-46076023D01*
X123222753Y-46076024D01*
X123222740Y-46076028D01*
X123222732Y-46076031D01*
X123049793Y-46147666D01*
X123049765Y-46147679D01*
X123049755Y-46147684D01*
X122894097Y-46251692D01*
X122894090Y-46251698D01*
X122761698Y-46384090D01*
X122761692Y-46384097D01*
X122657684Y-46539755D01*
X122657679Y-46539765D01*
X122657666Y-46539793D01*
X122586031Y-46712732D01*
X122586028Y-46712740D01*
X122586024Y-46712753D01*
X122586023Y-46712759D01*
X122549500Y-46896376D01*
X121600500Y-46896376D01*
X121600500Y-44356376D01*
X122549500Y-44356376D01*
X122549500Y-44543622D01*
X122586023Y-44727239D01*
X122586024Y-44727245D01*
X122586028Y-44727258D01*
X122632626Y-44839751D01*
X122632626Y-44839752D01*
X122656979Y-44898544D01*
X122657678Y-44900231D01*
X122657679Y-44900233D01*
X122657682Y-44900239D01*
X122657688Y-44900248D01*
X122740927Y-45024824D01*
X122761692Y-45055901D01*
X122761697Y-45055907D01*
X122894092Y-45188302D01*
X122894098Y-45188307D01*
X122970087Y-45239081D01*
X123049766Y-45292321D01*
X123063264Y-45297912D01*
X123116628Y-45320016D01*
X123137511Y-45328666D01*
X123220746Y-45363144D01*
X123222255Y-45363833D01*
X123222592Y-45363941D01*
X123222746Y-45363971D01*
X123222749Y-45363973D01*
X123400439Y-45399317D01*
X123404338Y-45400500D01*
X123593619Y-45400500D01*
X123605106Y-45400500D01*
X123611915Y-45396859D01*
X123777251Y-45363973D01*
X123777329Y-45363941D01*
X123817138Y-45347451D01*
X123950231Y-45292322D01*
X123995640Y-45261981D01*
X124102704Y-45190442D01*
X124103903Y-45189746D01*
X124105015Y-45188945D01*
X124106079Y-45188205D01*
X124107245Y-45186965D01*
X124172763Y-45121447D01*
X124238302Y-45055908D01*
X124249266Y-45039500D01*
X124341407Y-44901600D01*
X124342579Y-44899946D01*
X124343467Y-44897466D01*
X124350789Y-44879791D01*
X124413973Y-44727251D01*
X124446859Y-44561915D01*
X124450500Y-44555105D01*
X124450500Y-44354338D01*
X124449316Y-44350435D01*
X124440424Y-44305733D01*
X124431581Y-44261274D01*
X124413973Y-44172749D01*
X124413972Y-44172747D01*
X124413941Y-44172590D01*
X124413832Y-44172254D01*
X124413144Y-44170746D01*
X124398644Y-44135740D01*
X124357650Y-44036775D01*
X124342332Y-43999793D01*
X124342320Y-43999764D01*
X124238306Y-43844097D01*
X124238300Y-43844090D01*
X124105908Y-43711698D01*
X124105901Y-43711692D01*
X123950248Y-43607688D01*
X123950241Y-43607684D01*
X123950240Y-43607683D01*
X123950233Y-43607679D01*
X123950231Y-43607678D01*
X123950229Y-43607677D01*
X123950221Y-43607673D01*
X123950185Y-43607658D01*
X123777266Y-43536031D01*
X123777258Y-43536028D01*
X123777245Y-43536024D01*
X123777239Y-43536023D01*
X123593622Y-43499500D01*
X123593619Y-43499500D01*
X123593616Y-43499500D01*
X123406384Y-43499500D01*
X123406381Y-43499500D01*
X123406378Y-43499500D01*
X123222759Y-43536023D01*
X123222753Y-43536024D01*
X123222740Y-43536028D01*
X123222732Y-43536031D01*
X123049793Y-43607666D01*
X123049765Y-43607679D01*
X123049755Y-43607684D01*
X122894097Y-43711692D01*
X122894090Y-43711698D01*
X122761698Y-43844090D01*
X122761692Y-43844097D01*
X122657684Y-43999755D01*
X122657679Y-43999765D01*
X122657666Y-43999793D01*
X122586031Y-44172732D01*
X122586028Y-44172740D01*
X122586024Y-44172753D01*
X122586023Y-44172759D01*
X122549500Y-44356376D01*
X121600500Y-44356376D01*
X121600500Y-41140244D01*
X122549500Y-41140244D01*
X122549500Y-42679752D01*
X122561131Y-42738226D01*
X122561132Y-42738228D01*
X122561133Y-42738231D01*
X122605448Y-42804552D01*
X122671769Y-42848867D01*
X122724314Y-42859318D01*
X122728208Y-42860500D01*
X124269751Y-42860500D01*
X124281238Y-42860500D01*
X124288047Y-42856859D01*
X124328231Y-42848867D01*
X124394552Y-42804552D01*
X124438867Y-42738231D01*
X124446859Y-42698047D01*
X124450500Y-42691237D01*
X124450500Y-41138206D01*
X124449316Y-41134303D01*
X124439049Y-41082685D01*
X124438893Y-41081836D01*
X124438867Y-41081769D01*
X124394552Y-41015448D01*
X124394551Y-41015447D01*
X124328233Y-40971134D01*
X124328226Y-40971131D01*
X124269753Y-40959500D01*
X124269751Y-40959500D01*
X124269748Y-40959500D01*
X122730252Y-40959500D01*
X122730249Y-40959500D01*
X122730246Y-40959500D01*
X122671784Y-40971128D01*
X122671772Y-40971131D01*
X122671767Y-40971133D01*
X122605448Y-41015447D01*
X122605447Y-41015448D01*
X122561133Y-41081767D01*
X122561131Y-41081772D01*
X122561128Y-41081784D01*
X122549500Y-41140244D01*
X121600500Y-41140244D01*
X121600500Y-38772012D01*
X121605181Y-38748479D01*
X121610866Y-38734753D01*
X121635542Y-38705855D01*
X121636790Y-38705089D01*
X121649914Y-38699039D01*
X121675992Y-38690568D01*
X121886433Y-38583343D01*
X122077510Y-38444517D01*
X122244517Y-38277510D01*
X122383343Y-38086433D01*
X122490568Y-37875992D01*
X122497508Y-37854629D01*
X122509231Y-37833695D01*
X122518881Y-37822396D01*
X122551307Y-37802534D01*
X122552721Y-37802195D01*
X122567059Y-37800500D01*
X125439142Y-37800500D01*
X125462676Y-37805181D01*
X125483560Y-37813831D01*
X125503513Y-37827163D01*
X132588293Y-44911943D01*
X132601627Y-44931901D01*
X132604160Y-44938018D01*
X132604155Y-44985088D01*
X132570881Y-45018363D01*
X132568149Y-45019495D01*
X132534986Y-45023422D01*
X132510229Y-45019500D01*
X132510225Y-45019500D01*
X132510222Y-45019500D01*
X132289778Y-45019500D01*
X132289774Y-45019500D01*
X132289770Y-45019500D01*
X132072043Y-45053985D01*
X131864416Y-45121447D01*
X131863267Y-45121777D01*
X131862393Y-45122104D01*
X131665980Y-45222183D01*
X131487629Y-45351762D01*
X131331762Y-45507629D01*
X131202183Y-45685980D01*
X131102104Y-45882393D01*
X131101777Y-45883267D01*
X131101447Y-45884416D01*
X131033985Y-46092043D01*
X130999500Y-46309770D01*
X130999500Y-46530228D01*
X131033985Y-46747953D01*
X131101447Y-46955582D01*
X131101776Y-46956730D01*
X131102104Y-46957604D01*
X131102105Y-46957605D01*
X131102106Y-46957609D01*
X131171737Y-47094265D01*
X131202185Y-47154022D01*
X131331758Y-47332365D01*
X131487635Y-47488242D01*
X131665978Y-47617815D01*
X131862394Y-47717895D01*
X132072049Y-47786015D01*
X132289778Y-47820500D01*
X132289782Y-47820500D01*
X132510218Y-47820500D01*
X132510222Y-47820500D01*
X132727951Y-47786015D01*
X132937606Y-47717895D01*
X133134022Y-47617815D01*
X133312365Y-47488242D01*
X133468242Y-47332365D01*
X133597815Y-47154022D01*
X133697895Y-46957606D01*
X133766015Y-46747951D01*
X133800500Y-46530222D01*
X133800500Y-46309778D01*
X133797089Y-46288242D01*
X133798033Y-46264262D01*
X133799579Y-46257825D01*
X133827249Y-46219747D01*
X133873728Y-46212385D01*
X133876607Y-46213076D01*
X133905740Y-46229390D01*
X135962212Y-48285862D01*
X135975546Y-48305820D01*
X135978079Y-48311937D01*
X135978074Y-48359007D01*
X135944798Y-48392282D01*
X135938682Y-48394816D01*
X135915142Y-48399500D01*
X135841453Y-48399500D01*
X135648166Y-48437948D01*
X135648164Y-48437948D01*
X135648163Y-48437949D01*
X135466083Y-48513369D01*
X135466081Y-48513370D01*
X135466072Y-48513374D01*
X135302223Y-48622855D01*
X135302216Y-48622861D01*
X135162861Y-48762216D01*
X135162855Y-48762223D01*
X135053374Y-48926072D01*
X135053372Y-48926077D01*
X135053369Y-48926083D01*
X134978262Y-49107409D01*
X134977948Y-49108166D01*
X134939500Y-49301451D01*
X134939500Y-49498547D01*
X134968140Y-49642528D01*
X134977947Y-49691828D01*
X134977949Y-49691836D01*
X135006478Y-49760711D01*
X135047393Y-49859490D01*
X135047393Y-49859491D01*
X135053365Y-49873907D01*
X135053373Y-49873924D01*
X135161781Y-50036167D01*
X135162855Y-50037775D01*
X135162860Y-50037781D01*
X135302218Y-50177139D01*
X135302224Y-50177144D01*
X135377614Y-50227518D01*
X135466077Y-50286627D01*
X135466082Y-50286630D01*
X135466084Y-50286631D01*
X135466086Y-50286632D01*
X135648165Y-50362051D01*
X135835514Y-50399317D01*
X135839413Y-50400500D01*
X136038544Y-50400500D01*
X136050031Y-50400500D01*
X136056841Y-50396859D01*
X136231835Y-50362051D01*
X136413914Y-50286632D01*
X136413923Y-50286626D01*
X136574578Y-50179279D01*
X136575777Y-50178583D01*
X136576889Y-50177782D01*
X136577953Y-50177042D01*
X136579119Y-50175802D01*
X136641937Y-50112984D01*
X136717139Y-50037782D01*
X136742386Y-49999998D01*
X136825717Y-49875283D01*
X136826888Y-49873630D01*
X136827767Y-49871171D01*
X136902051Y-49691835D01*
X136936859Y-49516841D01*
X136940500Y-49510030D01*
X136940500Y-49424858D01*
X136945179Y-49401329D01*
X136947712Y-49395212D01*
X136980992Y-49361925D01*
X137028062Y-49361920D01*
X137034179Y-49364453D01*
X137054137Y-49377787D01*
X138533664Y-50857314D01*
X138626850Y-50950500D01*
X138740978Y-51016392D01*
X138740981Y-51016392D01*
X138740992Y-51016399D01*
X138741395Y-51016504D01*
X138785880Y-51028423D01*
X138862253Y-51048888D01*
X138863590Y-51049395D01*
X138868269Y-51050500D01*
X138868270Y-51050500D01*
X138868272Y-51050500D01*
X145166500Y-51050500D01*
X145190034Y-51055181D01*
X145210918Y-51063831D01*
X145230871Y-51077163D01*
X145254208Y-51100500D01*
X145368336Y-51166392D01*
X145368339Y-51166392D01*
X145368350Y-51166399D01*
X145368753Y-51166504D01*
X145413238Y-51178423D01*
X145489611Y-51198888D01*
X145490948Y-51199395D01*
X145495627Y-51200500D01*
X146704372Y-51200500D01*
X146712900Y-51200500D01*
X146720287Y-51196234D01*
X146831664Y-51166392D01*
X146945792Y-51100500D01*
X146969130Y-51077161D01*
X146989082Y-51063831D01*
X147009967Y-51055181D01*
X147033500Y-51050500D01*
X151224422Y-51050500D01*
X151231809Y-51046234D01*
X151343186Y-51016392D01*
X151457314Y-50950500D01*
X151980653Y-50427160D01*
X152000604Y-50413831D01*
X152021489Y-50405181D01*
X152045022Y-50400500D01*
X173649421Y-50400500D01*
X173656807Y-50396234D01*
X173718790Y-50379627D01*
X173764628Y-50367345D01*
X173766763Y-50366908D01*
X173770287Y-50365829D01*
X173773391Y-50364997D01*
X173778765Y-50360283D01*
X173882314Y-50300500D01*
X174655865Y-49526948D01*
X174675818Y-49513618D01*
X174679554Y-49512070D01*
X174681937Y-49511084D01*
X174729007Y-49511089D01*
X174762284Y-49544368D01*
X174764818Y-49550485D01*
X174769500Y-49574022D01*
X174769500Y-51836025D01*
X174764818Y-51859560D01*
X174757811Y-51876476D01*
X174735161Y-51904076D01*
X174690344Y-51934022D01*
X174690342Y-51934023D01*
X174544025Y-52080340D01*
X174429059Y-52252400D01*
X174429059Y-52252401D01*
X174429047Y-52252426D01*
X174349874Y-52443563D01*
X174349871Y-52443571D01*
X174349867Y-52443584D01*
X174349866Y-52443590D01*
X174309500Y-52646527D01*
X174309500Y-52853471D01*
X174349866Y-53056408D01*
X174349867Y-53056414D01*
X174349871Y-53056427D01*
X174369814Y-53104571D01*
X174416817Y-53218044D01*
X174425497Y-53238998D01*
X174429060Y-53247601D01*
X174429061Y-53247602D01*
X174469893Y-53308710D01*
X174469894Y-53308713D01*
X174544020Y-53419652D01*
X174544025Y-53419658D01*
X174664279Y-53539911D01*
X174669233Y-53551872D01*
X174690345Y-53565977D01*
X174690344Y-53565977D01*
X174699430Y-53572047D01*
X174699431Y-53572049D01*
X174699432Y-53572049D01*
X174862402Y-53680941D01*
X174951466Y-53717832D01*
X175051573Y-53759299D01*
X175053080Y-53759987D01*
X175053430Y-53760100D01*
X175053579Y-53760129D01*
X175053580Y-53760130D01*
X175250590Y-53799317D01*
X175254489Y-53800500D01*
X175463468Y-53800500D01*
X175474955Y-53800500D01*
X175481764Y-53796859D01*
X175666420Y-53760130D01*
X175666493Y-53760100D01*
X175692518Y-53749319D01*
X175857598Y-53680941D01*
X176029655Y-53565977D01*
X176175977Y-53419655D01*
X176290941Y-53247598D01*
X176359319Y-53082518D01*
X176370126Y-53056430D01*
X176370127Y-53056427D01*
X176370130Y-53056420D01*
X176406859Y-52871764D01*
X176410500Y-52864954D01*
X176410500Y-52644491D01*
X176409319Y-52640599D01*
X176403826Y-52612985D01*
X176370130Y-52443580D01*
X176370128Y-52443577D01*
X176370098Y-52443423D01*
X176369990Y-52443086D01*
X176369301Y-52441577D01*
X176351106Y-52397652D01*
X176296600Y-52266065D01*
X176290941Y-52252402D01*
X176175977Y-52080345D01*
X176055719Y-51960087D01*
X176050765Y-51948127D01*
X175857597Y-51819058D01*
X175857583Y-51819052D01*
X175819765Y-51803387D01*
X175799812Y-51790054D01*
X175788511Y-51778752D01*
X175770500Y-51735267D01*
X175770500Y-48450022D01*
X175775181Y-48426489D01*
X175783831Y-48405604D01*
X175797160Y-48385653D01*
X175905653Y-48277160D01*
X175925604Y-48263831D01*
X175946489Y-48255181D01*
X175970022Y-48250500D01*
X183354808Y-48250500D01*
X183366798Y-48251680D01*
X183380028Y-48254312D01*
X183380028Y-48254311D01*
X183383241Y-48254950D01*
X183387133Y-48255857D01*
X183460436Y-48275500D01*
X183460438Y-48275500D01*
X183460440Y-48275500D01*
X183462331Y-48275749D01*
X183477848Y-48279906D01*
X183499397Y-48288832D01*
X183519349Y-48302163D01*
X183592686Y-48375500D01*
X183706814Y-48441392D01*
X183706817Y-48441392D01*
X183706828Y-48441399D01*
X183707231Y-48441504D01*
X183739021Y-48450022D01*
X183828089Y-48473888D01*
X183829426Y-48474395D01*
X183834105Y-48475500D01*
X183834106Y-48475500D01*
X183834108Y-48475500D01*
X183965892Y-48475500D01*
X209190887Y-48475500D01*
X209214420Y-48480181D01*
X209227318Y-48485523D01*
X209257046Y-48511594D01*
X209258476Y-48514071D01*
X209264619Y-48528901D01*
X209287014Y-48612480D01*
X209287015Y-48612482D01*
X209287016Y-48612485D01*
X209359491Y-48738015D01*
X209461985Y-48840509D01*
X209587515Y-48912984D01*
X209587519Y-48912986D01*
X209587542Y-48912995D01*
X209588019Y-48913119D01*
X209627733Y-48923760D01*
X209727521Y-48950500D01*
X209872476Y-48950500D01*
X209872477Y-48950500D01*
X209912651Y-48939734D01*
X209963599Y-48926083D01*
X210012485Y-48912984D01*
X210138015Y-48840509D01*
X210240509Y-48738015D01*
X210240514Y-48738006D01*
X210242607Y-48735279D01*
X210253966Y-48723920D01*
X210267927Y-48713208D01*
X210305364Y-48700500D01*
X213513821Y-48700500D01*
X213537353Y-48705180D01*
X213543469Y-48707713D01*
X213576755Y-48740995D01*
X213576758Y-48788062D01*
X213574225Y-48794179D01*
X213560891Y-48814137D01*
X212648074Y-49726952D01*
X212628122Y-49740284D01*
X212612041Y-49746945D01*
X212576568Y-49749271D01*
X212576469Y-49750026D01*
X212572676Y-49749526D01*
X212572595Y-49749532D01*
X212572477Y-49749500D01*
X212572476Y-49749500D01*
X212572475Y-49749500D01*
X212427525Y-49749500D01*
X212427523Y-49749500D01*
X212427520Y-49749500D01*
X212287526Y-49787010D01*
X212287522Y-49787012D01*
X212287519Y-49787014D01*
X212287515Y-49787016D01*
X212200911Y-49837017D01*
X212161981Y-49859493D01*
X212059493Y-49961981D01*
X212059490Y-49961985D01*
X212059490Y-49961986D01*
X212008964Y-50049500D01*
X211987012Y-50087522D01*
X211987010Y-50087527D01*
X211949500Y-50227518D01*
X211949500Y-50372480D01*
X211987013Y-50512482D01*
X212059486Y-50638008D01*
X212059489Y-50638012D01*
X212059491Y-50638015D01*
X212161985Y-50740509D01*
X212287515Y-50812984D01*
X212287519Y-50812986D01*
X212287542Y-50812995D01*
X212288019Y-50813119D01*
X212327733Y-50823760D01*
X212427521Y-50850500D01*
X212572476Y-50850500D01*
X212572477Y-50850500D01*
X212584822Y-50847191D01*
X212634206Y-50833958D01*
X212634207Y-50833958D01*
X212712478Y-50812986D01*
X212712478Y-50812985D01*
X212712485Y-50812984D01*
X212838015Y-50740509D01*
X212940509Y-50638015D01*
X213012984Y-50512485D01*
X213012986Y-50512478D01*
X213038600Y-50416887D01*
X213038600Y-50416885D01*
X213039419Y-50413831D01*
X213050500Y-50372477D01*
X213050500Y-50227526D01*
X213050499Y-50227522D01*
X213050039Y-50223787D01*
X213050960Y-50223673D01*
X213050050Y-50208034D01*
X213052345Y-50190597D01*
X213069830Y-50155138D01*
X213997809Y-49227161D01*
X214017761Y-49213831D01*
X214038646Y-49205181D01*
X214062179Y-49200500D01*
X214942219Y-49200500D01*
X214985706Y-49218513D01*
X214991953Y-49225824D01*
X215053981Y-49311112D01*
X215123653Y-49406911D01*
X215162498Y-49447326D01*
X215188578Y-49467920D01*
X215236893Y-49496330D01*
X215236895Y-49496331D01*
X216400136Y-49981015D01*
X216400140Y-49981016D01*
X216400147Y-49981019D01*
X216470274Y-49996634D01*
X216512575Y-49998470D01*
X216583794Y-49988989D01*
X218714263Y-49311112D01*
X218714902Y-49310798D01*
X218715068Y-49310788D01*
X218716372Y-49310266D01*
X218716544Y-49310695D01*
X218761879Y-49307848D01*
X218785440Y-49322543D01*
X219222836Y-49759939D01*
X219236167Y-49779891D01*
X219244818Y-49800776D01*
X219249500Y-49824311D01*
X219249500Y-61854711D01*
X219247404Y-61870629D01*
X219243355Y-61885739D01*
X219237212Y-61900571D01*
X219187014Y-61987516D01*
X219187013Y-61987520D01*
X219187011Y-61987526D01*
X219161032Y-62084482D01*
X219154889Y-62099315D01*
X219147066Y-62112865D01*
X219137292Y-62125602D01*
X217740060Y-63522836D01*
X217720109Y-63536167D01*
X217699225Y-63544818D01*
X217675689Y-63549500D01*
X211545288Y-63549500D01*
X211529369Y-63547404D01*
X211514256Y-63543354D01*
X211499428Y-63537212D01*
X211484449Y-63528565D01*
X211484449Y-63528564D01*
X211484445Y-63528563D01*
X211427191Y-63495507D01*
X211412485Y-63487016D01*
X211412484Y-63487015D01*
X211412478Y-63487012D01*
X211272480Y-63449500D01*
X211272477Y-63449500D01*
X211272475Y-63449500D01*
X211127525Y-63449500D01*
X211127523Y-63449500D01*
X211127520Y-63449500D01*
X210987526Y-63487010D01*
X210987516Y-63487015D01*
X210900571Y-63537212D01*
X210885740Y-63543355D01*
X210870630Y-63547404D01*
X210854712Y-63549500D01*
X208165732Y-63549500D01*
X208142197Y-63544818D01*
X208121312Y-63536167D01*
X208101360Y-63522836D01*
X208038018Y-63459494D01*
X208038015Y-63459491D01*
X208038012Y-63459489D01*
X208038008Y-63459486D01*
X207912482Y-63387013D01*
X207772480Y-63349500D01*
X207772477Y-63349500D01*
X207772475Y-63349500D01*
X207627525Y-63349500D01*
X207627523Y-63349500D01*
X207627520Y-63349500D01*
X207487526Y-63387010D01*
X207487516Y-63387015D01*
X207400571Y-63437212D01*
X207385740Y-63443355D01*
X207370630Y-63447404D01*
X207354712Y-63449500D01*
X197224311Y-63449500D01*
X197200776Y-63444818D01*
X197179891Y-63436167D01*
X197159939Y-63422836D01*
X195462704Y-61725601D01*
X195452933Y-61712869D01*
X195445110Y-61699319D01*
X195438967Y-61684489D01*
X195412984Y-61587515D01*
X195340509Y-61461985D01*
X195238015Y-61359491D01*
X195238012Y-61359489D01*
X195238008Y-61359486D01*
X195112482Y-61287013D01*
X194972480Y-61249500D01*
X194972477Y-61249500D01*
X194972475Y-61249500D01*
X194827525Y-61249500D01*
X194827523Y-61249500D01*
X194827520Y-61249500D01*
X194687526Y-61287010D01*
X194687522Y-61287012D01*
X194687519Y-61287014D01*
X194687515Y-61287016D01*
X194580343Y-61348892D01*
X194561981Y-61359493D01*
X194459493Y-61461981D01*
X194387012Y-61587522D01*
X194387010Y-61587527D01*
X194349500Y-61727518D01*
X194349500Y-61872480D01*
X194387013Y-62012482D01*
X194459486Y-62138008D01*
X194459489Y-62138012D01*
X194459491Y-62138015D01*
X194561985Y-62240509D01*
X194687515Y-62312984D01*
X194784491Y-62338968D01*
X194799319Y-62345110D01*
X194812869Y-62352933D01*
X194825601Y-62362704D01*
X196698759Y-64235862D01*
X196712093Y-64255820D01*
X196714626Y-64261937D01*
X196714621Y-64309007D01*
X196681345Y-64342282D01*
X196675229Y-64344816D01*
X196651689Y-64349500D01*
X194672059Y-64349500D01*
X194594940Y-64370163D01*
X194560649Y-64379351D01*
X194560648Y-64379352D01*
X194557492Y-64380197D01*
X194557482Y-64380201D01*
X194557480Y-64380201D01*
X194454761Y-64439507D01*
X194454754Y-64439513D01*
X194271431Y-64622836D01*
X194251480Y-64636167D01*
X194230596Y-64644818D01*
X194207060Y-64649500D01*
X182011036Y-64649500D01*
X181987501Y-64644818D01*
X181966616Y-64636167D01*
X181946664Y-64622836D01*
X180802241Y-63478414D01*
X180802239Y-63478412D01*
X180802238Y-63478411D01*
X180802235Y-63478409D01*
X180802231Y-63478406D01*
X180802230Y-63478405D01*
X180699521Y-63419105D01*
X180699515Y-63419102D01*
X180699507Y-63419099D01*
X180693020Y-63417361D01*
X180675296Y-63412612D01*
X180645176Y-63404541D01*
X180584938Y-63388400D01*
X180584936Y-63388400D01*
X180584933Y-63388400D01*
X175071791Y-63388400D01*
X175071789Y-63388400D01*
X175071787Y-63388400D01*
X175011547Y-63404542D01*
X174981426Y-63412613D01*
X174975060Y-63414318D01*
X174962333Y-63417728D01*
X174962329Y-63417730D01*
X174959470Y-63418495D01*
X174957211Y-63419101D01*
X174854482Y-63478412D01*
X174145402Y-64187491D01*
X174125449Y-64200823D01*
X174111726Y-64206507D01*
X174073864Y-64209496D01*
X174072449Y-64209157D01*
X174058861Y-64204147D01*
X174030350Y-64189621D01*
X173823525Y-64122420D01*
X173608740Y-64088400D01*
X173608737Y-64088400D01*
X173608734Y-64088400D01*
X173391266Y-64088400D01*
X173391262Y-64088400D01*
X173391258Y-64088400D01*
X173176471Y-64122420D01*
X172969650Y-64189620D01*
X172969645Y-64189622D01*
X172775886Y-64288348D01*
X172599942Y-64416179D01*
X172446179Y-64569942D01*
X172318348Y-64745886D01*
X172219622Y-64939645D01*
X172219620Y-64939650D01*
X172152420Y-65146471D01*
X172118400Y-65361258D01*
X172118400Y-65578740D01*
X172152420Y-65793527D01*
X172158780Y-65813100D01*
X172219621Y-66000351D01*
X172295617Y-66149500D01*
X172318350Y-66194116D01*
X172446175Y-66370052D01*
X172599948Y-66523825D01*
X172775884Y-66651650D01*
X172969650Y-66750379D01*
X173176475Y-66817580D01*
X173391266Y-66851600D01*
X173391270Y-66851600D01*
X173608730Y-66851600D01*
X173608734Y-66851600D01*
X173823525Y-66817580D01*
X174030350Y-66750379D01*
X174224116Y-66651650D01*
X174400052Y-66523825D01*
X174553825Y-66370052D01*
X174681650Y-66194116D01*
X174780379Y-66000350D01*
X174847580Y-65793525D01*
X174881600Y-65578734D01*
X174881600Y-65361266D01*
X174847580Y-65146475D01*
X174780379Y-64939650D01*
X174780375Y-64939643D01*
X174780373Y-64939637D01*
X174768100Y-64915549D01*
X174761587Y-64892458D01*
X174760421Y-64877647D01*
X174769299Y-64840681D01*
X174770063Y-64839434D01*
X174778999Y-64828102D01*
X175291042Y-64316061D01*
X175310994Y-64302731D01*
X175331879Y-64294081D01*
X175355412Y-64289400D01*
X178922927Y-64289400D01*
X178946459Y-64294080D01*
X178952575Y-64296613D01*
X178985861Y-64329895D01*
X178985863Y-64376965D01*
X178985862Y-64376967D01*
X178984730Y-64379700D01*
X178964062Y-64405919D01*
X178949950Y-64416172D01*
X178949949Y-64416174D01*
X178796184Y-64569936D01*
X178796179Y-64569942D01*
X178668348Y-64745886D01*
X178569622Y-64939645D01*
X178569620Y-64939650D01*
X178502420Y-65146471D01*
X178468400Y-65361258D01*
X178468400Y-65578740D01*
X178502420Y-65793527D01*
X178508780Y-65813100D01*
X178569621Y-66000351D01*
X178645617Y-66149500D01*
X178668350Y-66194116D01*
X178796175Y-66370052D01*
X178949948Y-66523825D01*
X179125884Y-66651650D01*
X179319650Y-66750379D01*
X179355197Y-66761928D01*
X179368321Y-66767978D01*
X179380397Y-66775378D01*
X179391749Y-66784328D01*
X179567910Y-66960489D01*
X179567913Y-66960491D01*
X179567916Y-66960493D01*
X179663626Y-67015751D01*
X179663634Y-67015757D01*
X179670634Y-67019798D01*
X179670636Y-67019798D01*
X179670637Y-67019799D01*
X179670638Y-67019800D01*
X179686386Y-67024017D01*
X179686390Y-67024020D01*
X179686391Y-67024019D01*
X179686798Y-67024128D01*
X179694850Y-67026286D01*
X179767142Y-67045657D01*
X179785214Y-67050500D01*
X179785215Y-67050500D01*
X181637365Y-67050500D01*
X205401688Y-67050500D01*
X205425220Y-67055180D01*
X205431333Y-67057712D01*
X205431336Y-67057713D01*
X205464622Y-67090995D01*
X205464625Y-67138062D01*
X205462092Y-67144179D01*
X205448758Y-67164137D01*
X205308141Y-67304754D01*
X205308137Y-67304759D01*
X205288755Y-67338329D01*
X205284286Y-67345016D01*
X205279415Y-67351364D01*
X205274111Y-67357412D01*
X204908689Y-67722836D01*
X204888738Y-67736167D01*
X204867854Y-67744818D01*
X204844318Y-67749500D01*
X183672058Y-67749500D01*
X183611818Y-67765642D01*
X183581697Y-67773713D01*
X183575331Y-67775418D01*
X183562604Y-67778828D01*
X183562600Y-67778830D01*
X183557483Y-67780201D01*
X183557481Y-67780202D01*
X183557479Y-67780202D01*
X183545332Y-67787215D01*
X183530506Y-67793356D01*
X183515397Y-67797404D01*
X183499482Y-67799500D01*
X183200520Y-67799500D01*
X183184600Y-67797404D01*
X183169488Y-67793354D01*
X183154661Y-67787213D01*
X183142516Y-67780201D01*
X183142511Y-67780199D01*
X183118301Y-67773712D01*
X183081425Y-67763831D01*
X183027943Y-67749500D01*
X183027941Y-67749500D01*
X183027938Y-67749500D01*
X170624311Y-67749500D01*
X170600776Y-67744818D01*
X170579891Y-67736167D01*
X170559939Y-67722836D01*
X169778263Y-66941160D01*
X169764931Y-66921206D01*
X169756281Y-66900321D01*
X169751600Y-66876788D01*
X169751600Y-64998211D01*
X169756281Y-64974678D01*
X169764931Y-64953793D01*
X169778260Y-64933842D01*
X171403940Y-63308163D01*
X173260489Y-61451614D01*
X173319799Y-61348887D01*
X173341356Y-61268434D01*
X173350500Y-61234309D01*
X173350500Y-59305334D01*
X173355181Y-59281801D01*
X173358764Y-59273150D01*
X173392045Y-59239865D01*
X173392047Y-59239864D01*
X173392050Y-59239864D01*
X173400701Y-59236281D01*
X173424234Y-59231600D01*
X173608730Y-59231600D01*
X173608734Y-59231600D01*
X173823525Y-59197580D01*
X174030350Y-59130379D01*
X174224116Y-59031650D01*
X174400052Y-58903825D01*
X174553825Y-58750052D01*
X174681650Y-58574116D01*
X174780379Y-58380350D01*
X174847580Y-58173525D01*
X174881600Y-57958734D01*
X174881600Y-57741266D01*
X174847580Y-57526475D01*
X174780379Y-57319650D01*
X174681650Y-57125884D01*
X174553825Y-56949948D01*
X174400052Y-56796175D01*
X174335810Y-56749500D01*
X174262013Y-56695882D01*
X174262011Y-56695882D01*
X174249823Y-56687027D01*
X174249822Y-56687026D01*
X174224120Y-56668352D01*
X174186422Y-56649144D01*
X178468400Y-56649144D01*
X178468400Y-59050852D01*
X178480031Y-59109326D01*
X178480034Y-59109333D01*
X178524347Y-59175651D01*
X178524348Y-59175652D01*
X178590669Y-59219967D01*
X178643214Y-59230418D01*
X178647108Y-59231600D01*
X181050851Y-59231600D01*
X181062338Y-59231600D01*
X181069147Y-59227959D01*
X181109331Y-59219967D01*
X181175652Y-59175652D01*
X181219967Y-59109331D01*
X181227959Y-59069147D01*
X181231600Y-59062337D01*
X181231600Y-58374234D01*
X181236281Y-58350701D01*
X181239864Y-58342050D01*
X181273145Y-58308765D01*
X181273147Y-58308764D01*
X181273150Y-58308764D01*
X181281801Y-58305181D01*
X181305334Y-58300500D01*
X181909306Y-58300500D01*
X181909310Y-58300500D01*
X181924369Y-58296464D01*
X181999673Y-58276286D01*
X181999674Y-58276286D01*
X182007731Y-58274126D01*
X182007746Y-58274128D01*
X182007745Y-58274123D01*
X182023888Y-58269799D01*
X182126607Y-58210493D01*
X182126606Y-58210493D01*
X182126614Y-58210489D01*
X184560489Y-55776614D01*
X184619799Y-55673887D01*
X184640297Y-55597386D01*
X184650500Y-55559309D01*
X184650500Y-54434104D01*
X190049500Y-54434104D01*
X190049500Y-54565895D01*
X190082684Y-54689743D01*
X190083607Y-54693185D01*
X190149495Y-54807307D01*
X190149498Y-54807311D01*
X190149500Y-54807314D01*
X190242686Y-54900500D01*
X190356814Y-54966392D01*
X190356817Y-54966392D01*
X190356828Y-54966399D01*
X190357231Y-54966504D01*
X190401716Y-54978423D01*
X190478089Y-54998888D01*
X190479426Y-54999395D01*
X190484105Y-55000500D01*
X190615894Y-55000500D01*
X190624422Y-55000500D01*
X190631809Y-54996234D01*
X190743186Y-54966392D01*
X190857314Y-54900500D01*
X190950500Y-54807314D01*
X191016392Y-54693186D01*
X191046234Y-54581809D01*
X191050500Y-54574422D01*
X191050500Y-54438055D01*
X191050500Y-54435925D01*
X193699500Y-54435925D01*
X193699500Y-54564073D01*
X193700776Y-54570489D01*
X193715988Y-54646963D01*
X193724496Y-54689731D01*
X193724498Y-54689743D01*
X193724505Y-54689764D01*
X193759368Y-54773926D01*
X193773197Y-54807312D01*
X193773535Y-54808127D01*
X193773536Y-54808128D01*
X193844724Y-54914670D01*
X193909265Y-54979210D01*
X193914219Y-54991170D01*
X193935330Y-55005276D01*
X193988781Y-55040990D01*
X194041873Y-55076465D01*
X194068283Y-55087404D01*
X194089222Y-55096078D01*
X194089225Y-55096078D01*
X194089226Y-55096079D01*
X194158251Y-55124671D01*
X194159760Y-55125359D01*
X194160100Y-55125470D01*
X194160256Y-55125501D01*
X194279986Y-55149317D01*
X194283885Y-55150500D01*
X194414072Y-55150500D01*
X194425559Y-55150500D01*
X194432369Y-55146859D01*
X194539744Y-55125501D01*
X194539744Y-55125500D01*
X194539789Y-55125492D01*
X194540450Y-55125228D01*
X194542940Y-55124266D01*
X194543933Y-55123765D01*
X194570359Y-55112819D01*
X194658127Y-55076465D01*
X194764669Y-55005276D01*
X194855276Y-54914669D01*
X194926465Y-54808127D01*
X194962819Y-54720359D01*
X194973765Y-54693933D01*
X194974266Y-54692940D01*
X194975228Y-54690450D01*
X194975492Y-54689789D01*
X194987425Y-54629797D01*
X194996859Y-54582369D01*
X195000500Y-54575558D01*
X195000500Y-54433885D01*
X194999316Y-54429986D01*
X194975501Y-54310256D01*
X194975500Y-54310255D01*
X194975469Y-54310096D01*
X194975361Y-54309763D01*
X194974673Y-54308255D01*
X194941409Y-54227951D01*
X194926805Y-54192696D01*
X194926805Y-54192690D01*
X194926804Y-54192691D01*
X194926468Y-54191880D01*
X194926467Y-54191879D01*
X194926465Y-54191873D01*
X194855276Y-54085331D01*
X194790733Y-54020788D01*
X194785778Y-54008827D01*
X194684672Y-53941272D01*
X194681212Y-53938960D01*
X194658127Y-53923535D01*
X194658124Y-53923533D01*
X194658120Y-53923531D01*
X194539764Y-53874505D01*
X194539743Y-53874498D01*
X194539739Y-53874497D01*
X194539738Y-53874497D01*
X194477333Y-53862083D01*
X194414074Y-53849500D01*
X194414072Y-53849500D01*
X194414069Y-53849500D01*
X194285931Y-53849500D01*
X194285928Y-53849500D01*
X194285926Y-53849500D01*
X194201384Y-53866316D01*
X194160261Y-53874497D01*
X194160255Y-53874498D01*
X194160234Y-53874505D01*
X194041887Y-53923528D01*
X194041872Y-53923535D01*
X194041871Y-53923535D01*
X193935328Y-53994724D01*
X193844724Y-54085328D01*
X193773535Y-54191871D01*
X193773535Y-54191872D01*
X193773528Y-54191887D01*
X193724505Y-54310234D01*
X193724498Y-54310255D01*
X193724496Y-54310267D01*
X193699500Y-54435925D01*
X191050500Y-54435925D01*
X191050500Y-54434105D01*
X191050499Y-54434104D01*
X191048702Y-54427398D01*
X191048701Y-54427391D01*
X191021502Y-54325887D01*
X191016513Y-54307267D01*
X191016399Y-54306828D01*
X191016392Y-54306817D01*
X191016392Y-54306814D01*
X190950500Y-54192686D01*
X190857314Y-54099500D01*
X190857309Y-54099497D01*
X190857307Y-54099495D01*
X190743185Y-54033607D01*
X190743180Y-54033605D01*
X190743179Y-54033605D01*
X190615895Y-53999500D01*
X190484106Y-53999500D01*
X190484105Y-53999500D01*
X190420462Y-54016552D01*
X190356819Y-54033605D01*
X190356796Y-54033617D01*
X190242688Y-54099497D01*
X190242685Y-54099499D01*
X190242683Y-54099502D01*
X190149502Y-54192683D01*
X190149499Y-54192685D01*
X190149497Y-54192688D01*
X190083617Y-54306796D01*
X190083605Y-54306819D01*
X190062954Y-54383891D01*
X190049500Y-54434104D01*
X184650500Y-54434104D01*
X184650500Y-49645286D01*
X184652595Y-49629371D01*
X184656644Y-49614258D01*
X184661945Y-49600933D01*
X184662341Y-49600199D01*
X184673991Y-49580022D01*
X184704305Y-49527518D01*
X190474500Y-49527518D01*
X190474500Y-49672480D01*
X190512013Y-49812482D01*
X190584486Y-49938008D01*
X190584489Y-49938012D01*
X190584491Y-49938015D01*
X190686985Y-50040509D01*
X190812515Y-50112984D01*
X190812519Y-50112986D01*
X190812542Y-50112995D01*
X190813019Y-50113119D01*
X190852733Y-50123760D01*
X190952521Y-50150500D01*
X190952523Y-50150500D01*
X190952525Y-50150500D01*
X191097475Y-50150500D01*
X191097476Y-50150500D01*
X191106070Y-50148196D01*
X191106076Y-50148197D01*
X191106076Y-50148195D01*
X191135030Y-50140435D01*
X191158971Y-50138866D01*
X191176223Y-50141136D01*
X191211685Y-50158623D01*
X193729005Y-52675943D01*
X193757317Y-52687670D01*
X193825669Y-52715983D01*
X204609491Y-52715983D01*
X204633025Y-52720663D01*
X204649105Y-52727324D01*
X204678830Y-52753393D01*
X204700537Y-52790991D01*
X204700540Y-52790995D01*
X204700542Y-52790998D01*
X204700545Y-52791001D01*
X204766664Y-52857120D01*
X204779996Y-52877074D01*
X204783579Y-52885725D01*
X204783579Y-52932791D01*
X204779996Y-52941442D01*
X204766664Y-52961396D01*
X204480225Y-53247836D01*
X204460274Y-53261167D01*
X204439390Y-53269818D01*
X204415854Y-53274500D01*
X197310186Y-53274500D01*
X197268858Y-53291619D01*
X197262835Y-53294114D01*
X197213520Y-53314540D01*
X191289899Y-59238160D01*
X191269947Y-59251492D01*
X191253868Y-59258152D01*
X191214415Y-59260737D01*
X191172479Y-59249500D01*
X191172477Y-59249500D01*
X191172475Y-59249500D01*
X191027525Y-59249500D01*
X191027523Y-59249500D01*
X191027520Y-59249500D01*
X190887526Y-59287010D01*
X190887522Y-59287012D01*
X190761981Y-59359493D01*
X190659493Y-59461981D01*
X190659490Y-59461985D01*
X190659490Y-59461986D01*
X190587016Y-59587515D01*
X190587012Y-59587522D01*
X190587010Y-59587527D01*
X190549500Y-59727518D01*
X190549500Y-59872480D01*
X190587013Y-60012482D01*
X190659486Y-60138008D01*
X190659489Y-60138012D01*
X190659491Y-60138015D01*
X190761985Y-60240509D01*
X190887515Y-60312984D01*
X190887519Y-60312986D01*
X190887542Y-60312995D01*
X190888019Y-60313119D01*
X190927733Y-60323760D01*
X191027521Y-60350500D01*
X191172476Y-60350500D01*
X191172477Y-60350500D01*
X191184822Y-60347191D01*
X191234206Y-60333958D01*
X191234207Y-60333958D01*
X191312478Y-60312986D01*
X191312478Y-60312985D01*
X191312485Y-60312984D01*
X191438015Y-60240509D01*
X191540509Y-60138015D01*
X191612984Y-60012485D01*
X191638136Y-59918618D01*
X191650500Y-59872477D01*
X191650500Y-59727524D01*
X191650499Y-59727522D01*
X191648513Y-59720111D01*
X191646527Y-59712698D01*
X191640435Y-59689966D01*
X191638866Y-59666027D01*
X191641137Y-59648769D01*
X191658623Y-59613312D01*
X191753624Y-59518311D01*
X191773569Y-59504984D01*
X191779688Y-59502449D01*
X191826757Y-59502449D01*
X191860031Y-59535706D01*
X191860576Y-59537020D01*
X191863172Y-59576500D01*
X191849500Y-59627522D01*
X191849500Y-59772480D01*
X191887013Y-59912482D01*
X191959486Y-60038008D01*
X191959489Y-60038012D01*
X191959491Y-60038015D01*
X192061985Y-60140509D01*
X192187515Y-60212984D01*
X192187519Y-60212986D01*
X192187542Y-60212995D01*
X192188019Y-60213119D01*
X192227733Y-60223760D01*
X192327521Y-60250500D01*
X192327523Y-60250500D01*
X192327525Y-60250500D01*
X192472475Y-60250500D01*
X192472476Y-60250500D01*
X192487854Y-60246379D01*
X192510034Y-60240435D01*
X192533969Y-60238867D01*
X192551226Y-60241138D01*
X192586686Y-60258625D01*
X192813522Y-60485461D01*
X192870146Y-60508914D01*
X192910186Y-60525500D01*
X193054632Y-60525500D01*
X193072478Y-60528146D01*
X193091411Y-60533889D01*
X193091411Y-60533888D01*
X193096399Y-60535401D01*
X193102074Y-60537431D01*
X193145648Y-60555480D01*
X193176124Y-60568103D01*
X193191976Y-60574670D01*
X193193706Y-60575459D01*
X193193891Y-60575500D01*
X193193980Y-60575500D01*
X193193981Y-60575500D01*
X193806017Y-60575500D01*
X193806020Y-60575500D01*
X193854351Y-60555480D01*
X193897934Y-60537427D01*
X193903601Y-60535401D01*
X193908588Y-60533888D01*
X193908589Y-60533889D01*
X193927520Y-60528146D01*
X193945368Y-60525500D01*
X199685307Y-60525500D01*
X199685310Y-60525500D01*
X199733641Y-60505480D01*
X199781973Y-60485461D01*
X201433330Y-58834104D01*
X210999500Y-58834104D01*
X210999500Y-58965895D01*
X211028736Y-59075008D01*
X211033607Y-59093185D01*
X211099495Y-59207307D01*
X211099498Y-59207311D01*
X211099500Y-59207314D01*
X211192686Y-59300500D01*
X211209536Y-59310228D01*
X211258155Y-59338298D01*
X211276195Y-59354119D01*
X211286790Y-59367926D01*
X211299500Y-59405366D01*
X211299500Y-60621239D01*
X211294818Y-60644774D01*
X211286167Y-60665659D01*
X211272836Y-60685611D01*
X211213992Y-60744454D01*
X211213989Y-60744458D01*
X211213989Y-60744459D01*
X211151551Y-60852605D01*
X211141514Y-60869990D01*
X211141512Y-60869994D01*
X211103999Y-61009992D01*
X211103999Y-61154953D01*
X211141512Y-61294955D01*
X211213985Y-61420481D01*
X211213988Y-61420485D01*
X211213990Y-61420488D01*
X211316484Y-61522982D01*
X211442014Y-61595457D01*
X211442018Y-61595459D01*
X211442041Y-61595468D01*
X211442518Y-61595592D01*
X211464283Y-61601424D01*
X211582020Y-61632973D01*
X211726975Y-61632973D01*
X211726976Y-61632973D01*
X211739321Y-61629664D01*
X211788705Y-61616431D01*
X211788706Y-61616431D01*
X211866977Y-61595459D01*
X211866977Y-61595458D01*
X211866984Y-61595457D01*
X211992514Y-61522982D01*
X212095008Y-61420488D01*
X212167483Y-61294958D01*
X212174590Y-61268434D01*
X212194753Y-61193187D01*
X212194753Y-61193185D01*
X212204999Y-61154951D01*
X212204999Y-61009992D01*
X212181018Y-60920500D01*
X212167484Y-60869992D01*
X212167483Y-60869988D01*
X212095008Y-60744458D01*
X211992514Y-60641964D01*
X211992508Y-60641960D01*
X211992506Y-60641959D01*
X211991023Y-60641098D01*
X211990909Y-60641037D01*
X211941842Y-60612707D01*
X211923802Y-60596886D01*
X211913209Y-60583081D01*
X211900500Y-60545642D01*
X211900500Y-59231890D01*
X211902595Y-59215974D01*
X211906644Y-59200862D01*
X211912785Y-59186034D01*
X211918780Y-59175652D01*
X211966392Y-59093186D01*
X211996234Y-58981809D01*
X212000500Y-58974422D01*
X212000500Y-58833285D01*
X211999456Y-58830209D01*
X211966519Y-58707287D01*
X211966399Y-58706828D01*
X211966392Y-58706817D01*
X211966392Y-58706814D01*
X211900500Y-58592686D01*
X211807314Y-58499500D01*
X211807309Y-58499497D01*
X211807307Y-58499495D01*
X211693185Y-58433607D01*
X211693180Y-58433605D01*
X211693179Y-58433605D01*
X211565895Y-58399500D01*
X211434106Y-58399500D01*
X211434105Y-58399500D01*
X211370462Y-58416552D01*
X211306819Y-58433605D01*
X211306796Y-58433617D01*
X211192688Y-58499497D01*
X211192685Y-58499499D01*
X211192683Y-58499502D01*
X211099502Y-58592683D01*
X211099499Y-58592685D01*
X211099497Y-58592688D01*
X211033617Y-58706796D01*
X211033605Y-58706819D01*
X211015441Y-58774611D01*
X210999500Y-58834104D01*
X201433330Y-58834104D01*
X202979916Y-57287518D01*
X205529500Y-57287518D01*
X205529500Y-57432480D01*
X205567013Y-57572482D01*
X205639486Y-57698008D01*
X205639489Y-57698012D01*
X205639491Y-57698015D01*
X205741985Y-57800509D01*
X205867515Y-57872984D01*
X205867519Y-57872986D01*
X205867542Y-57872995D01*
X205868019Y-57873119D01*
X205891452Y-57879398D01*
X206007521Y-57910500D01*
X206152476Y-57910500D01*
X206152477Y-57910500D01*
X206164822Y-57907191D01*
X206214206Y-57893958D01*
X206214207Y-57893958D01*
X206292478Y-57872986D01*
X206292478Y-57872985D01*
X206292485Y-57872984D01*
X206359827Y-57834104D01*
X212749502Y-57834104D01*
X212749502Y-57965895D01*
X212781284Y-58084511D01*
X212783609Y-58093185D01*
X212849497Y-58207307D01*
X212849500Y-58207311D01*
X212849502Y-58207314D01*
X212942688Y-58300500D01*
X213056816Y-58366392D01*
X213056819Y-58366392D01*
X213056830Y-58366399D01*
X213057233Y-58366504D01*
X213086082Y-58374234D01*
X213178091Y-58398888D01*
X213179428Y-58399395D01*
X213184107Y-58400500D01*
X213315896Y-58400500D01*
X213324424Y-58400500D01*
X213331811Y-58396234D01*
X213443188Y-58366392D01*
X213557316Y-58300500D01*
X213630655Y-58227160D01*
X213650606Y-58213831D01*
X213671491Y-58205181D01*
X213695024Y-58200500D01*
X216039565Y-58200500D01*
X216053040Y-58196888D01*
X216073257Y-58191471D01*
X216115989Y-58180021D01*
X216184511Y-58140460D01*
X216240460Y-58084511D01*
X216351927Y-57973042D01*
X216371876Y-57959713D01*
X216387952Y-57953053D01*
X216423426Y-57950730D01*
X216423526Y-57949974D01*
X216427328Y-57950474D01*
X216427409Y-57950469D01*
X216427525Y-57950500D01*
X216427527Y-57950500D01*
X216572476Y-57950500D01*
X216572477Y-57950500D01*
X216587843Y-57946382D01*
X216634206Y-57933958D01*
X216634207Y-57933958D01*
X216712478Y-57912986D01*
X216712478Y-57912985D01*
X216712485Y-57912984D01*
X216838015Y-57840509D01*
X216838017Y-57840506D01*
X216841208Y-57838058D01*
X216841638Y-57838618D01*
X216856374Y-57828767D01*
X216872454Y-57822105D01*
X216911908Y-57819520D01*
X216932877Y-57825139D01*
X217027521Y-57850500D01*
X217172476Y-57850500D01*
X217172477Y-57850500D01*
X217209758Y-57840510D01*
X217236109Y-57833449D01*
X217312485Y-57812984D01*
X217438015Y-57740509D01*
X217540509Y-57638015D01*
X217612984Y-57512485D01*
X217643259Y-57399500D01*
X217650500Y-57372477D01*
X217650500Y-57227522D01*
X217650500Y-57227519D01*
X217620987Y-57117385D01*
X217613119Y-57088019D01*
X217612995Y-57087542D01*
X217612985Y-57087517D01*
X217612984Y-57087515D01*
X217540509Y-56961985D01*
X217438015Y-56859491D01*
X217438012Y-56859489D01*
X217438008Y-56859486D01*
X217312482Y-56787013D01*
X217172480Y-56749500D01*
X217172477Y-56749500D01*
X217172475Y-56749500D01*
X217027525Y-56749500D01*
X217027523Y-56749500D01*
X217027520Y-56749500D01*
X216887526Y-56787010D01*
X216887522Y-56787012D01*
X216761984Y-56859491D01*
X216758786Y-56861946D01*
X216758358Y-56861389D01*
X216743617Y-56871235D01*
X216727538Y-56877894D01*
X216688088Y-56880478D01*
X216572479Y-56849500D01*
X216572477Y-56849500D01*
X216572475Y-56849500D01*
X216427525Y-56849500D01*
X216427523Y-56849500D01*
X216427520Y-56849500D01*
X216287526Y-56887010D01*
X216287522Y-56887012D01*
X216287519Y-56887014D01*
X216287515Y-56887016D01*
X216178519Y-56949945D01*
X216161981Y-56959493D01*
X216059493Y-57061981D01*
X215987012Y-57187522D01*
X215987010Y-57187527D01*
X215949500Y-57327518D01*
X215949500Y-57472476D01*
X215949951Y-57475905D01*
X215949949Y-57491958D01*
X215947650Y-57509408D01*
X215930165Y-57544861D01*
X215902192Y-57572835D01*
X215882243Y-57586166D01*
X215867608Y-57592229D01*
X215861360Y-57594817D01*
X215837823Y-57599500D01*
X213695024Y-57599500D01*
X213671489Y-57594818D01*
X213650604Y-57586167D01*
X213630652Y-57572836D01*
X213557319Y-57499503D01*
X213557318Y-57499502D01*
X213557316Y-57499500D01*
X213557311Y-57499497D01*
X213557309Y-57499495D01*
X213443187Y-57433607D01*
X213443182Y-57433605D01*
X213443181Y-57433605D01*
X213315897Y-57399500D01*
X213184108Y-57399500D01*
X213184107Y-57399500D01*
X213120464Y-57416552D01*
X213056821Y-57433605D01*
X213056798Y-57433617D01*
X212942690Y-57499497D01*
X212942687Y-57499499D01*
X212942685Y-57499502D01*
X212849504Y-57592683D01*
X212849501Y-57592685D01*
X212849499Y-57592688D01*
X212783619Y-57706796D01*
X212783607Y-57706819D01*
X212753943Y-57817530D01*
X212749502Y-57834104D01*
X206359827Y-57834104D01*
X206418015Y-57800509D01*
X206491363Y-57727160D01*
X206511314Y-57713831D01*
X206532199Y-57705181D01*
X206555732Y-57700500D01*
X206739565Y-57700500D01*
X206753040Y-57696888D01*
X206773257Y-57691471D01*
X206815989Y-57680021D01*
X206884511Y-57640460D01*
X206940460Y-57584511D01*
X207297810Y-57227160D01*
X207317761Y-57213831D01*
X207338646Y-57205181D01*
X207362179Y-57200500D01*
X208404976Y-57200500D01*
X208428510Y-57205181D01*
X208449394Y-57213831D01*
X208469347Y-57227163D01*
X208542684Y-57300500D01*
X208656812Y-57366392D01*
X208656815Y-57366392D01*
X208656826Y-57366399D01*
X208657229Y-57366504D01*
X208701714Y-57378423D01*
X208778087Y-57398888D01*
X208779424Y-57399395D01*
X208784103Y-57400500D01*
X208915892Y-57400500D01*
X208924419Y-57400500D01*
X208931805Y-57396234D01*
X208993788Y-57379627D01*
X209039626Y-57367345D01*
X209041761Y-57366908D01*
X209045285Y-57365829D01*
X209048389Y-57364997D01*
X209053763Y-57360283D01*
X209157312Y-57300500D01*
X209250498Y-57207314D01*
X209316390Y-57093186D01*
X209317909Y-57087519D01*
X209349456Y-56969780D01*
X209350498Y-56966711D01*
X209350498Y-56833285D01*
X209349454Y-56830209D01*
X209316517Y-56707287D01*
X209316397Y-56706828D01*
X209316390Y-56706817D01*
X209316390Y-56706814D01*
X209250498Y-56592686D01*
X209157312Y-56499500D01*
X209157307Y-56499497D01*
X209157305Y-56499495D01*
X209043183Y-56433607D01*
X209043178Y-56433605D01*
X209043177Y-56433605D01*
X208915893Y-56399500D01*
X208784104Y-56399500D01*
X208784103Y-56399500D01*
X208724247Y-56415538D01*
X208656817Y-56433605D01*
X208656794Y-56433617D01*
X208542686Y-56499497D01*
X208542683Y-56499499D01*
X208542681Y-56499502D01*
X208469347Y-56572836D01*
X208449396Y-56586167D01*
X208428512Y-56594818D01*
X208404976Y-56599500D01*
X207160435Y-56599500D01*
X207122226Y-56609737D01*
X207084017Y-56619975D01*
X207083994Y-56619987D01*
X207015491Y-56659537D01*
X207015488Y-56659539D01*
X207015486Y-56659542D01*
X207015485Y-56659542D01*
X206634343Y-57040684D01*
X206614391Y-57054015D01*
X206605741Y-57057598D01*
X206558672Y-57057599D01*
X206554826Y-57056006D01*
X206525102Y-57029941D01*
X206521426Y-57023575D01*
X206520753Y-57022323D01*
X206520507Y-57021982D01*
X206418018Y-56919494D01*
X206418017Y-56919493D01*
X206418015Y-56919491D01*
X206418012Y-56919489D01*
X206418008Y-56919486D01*
X206292482Y-56847013D01*
X206152480Y-56809500D01*
X206152477Y-56809500D01*
X206152475Y-56809500D01*
X206007525Y-56809500D01*
X206007523Y-56809500D01*
X206007520Y-56809500D01*
X205867526Y-56847010D01*
X205867522Y-56847012D01*
X205867519Y-56847014D01*
X205867515Y-56847016D01*
X205806109Y-56882469D01*
X205741981Y-56919493D01*
X205639493Y-57021981D01*
X205639490Y-57021985D01*
X205639490Y-57021986D01*
X205567016Y-57147515D01*
X205567012Y-57147522D01*
X205567010Y-57147527D01*
X205529500Y-57287518D01*
X202979916Y-57287518D01*
X205833330Y-54434104D01*
X211399500Y-54434104D01*
X211399500Y-54565895D01*
X211432684Y-54689743D01*
X211433607Y-54693185D01*
X211499495Y-54807307D01*
X211499498Y-54807311D01*
X211499500Y-54807314D01*
X211592686Y-54900500D01*
X211706814Y-54966392D01*
X211706817Y-54966392D01*
X211706828Y-54966399D01*
X211707231Y-54966504D01*
X211751716Y-54978423D01*
X211828089Y-54998888D01*
X211829426Y-54999395D01*
X211834105Y-55000500D01*
X211965894Y-55000500D01*
X211974422Y-55000500D01*
X211981809Y-54996234D01*
X212093186Y-54966392D01*
X212207314Y-54900500D01*
X212300500Y-54807314D01*
X212366392Y-54693186D01*
X212396234Y-54581809D01*
X212400500Y-54574422D01*
X212400500Y-54433285D01*
X212399456Y-54430209D01*
X212372059Y-54327964D01*
X212366513Y-54307267D01*
X212366399Y-54306828D01*
X212366392Y-54306817D01*
X212366392Y-54306814D01*
X212300500Y-54192686D01*
X212227163Y-54119349D01*
X212213831Y-54099395D01*
X212205181Y-54078510D01*
X212200500Y-54054977D01*
X212200500Y-52662176D01*
X212201672Y-52659346D01*
X212200770Y-52656419D01*
X212205178Y-52638648D01*
X212213833Y-52617753D01*
X212227158Y-52597810D01*
X212234218Y-52590751D01*
X212254165Y-52577423D01*
X212267066Y-52572079D01*
X212306516Y-52569494D01*
X212309291Y-52570237D01*
X212324108Y-52576376D01*
X212387515Y-52612984D01*
X212387517Y-52612985D01*
X212387542Y-52612995D01*
X212388019Y-52613119D01*
X212405339Y-52617760D01*
X212527521Y-52650500D01*
X212672476Y-52650500D01*
X212672477Y-52650500D01*
X212734467Y-52633889D01*
X212769615Y-52624471D01*
X212812485Y-52612984D01*
X212938015Y-52540509D01*
X213040509Y-52438015D01*
X213112984Y-52312485D01*
X213132938Y-52238018D01*
X213144342Y-52195460D01*
X213150500Y-52172479D01*
X213150500Y-52027519D01*
X213119078Y-51910256D01*
X213113119Y-51888019D01*
X213112995Y-51887542D01*
X213112986Y-51887519D01*
X213107598Y-51878186D01*
X213040509Y-51761985D01*
X212938015Y-51659491D01*
X212938012Y-51659489D01*
X212938008Y-51659486D01*
X212812482Y-51587013D01*
X212672480Y-51549500D01*
X212672477Y-51549500D01*
X212672475Y-51549500D01*
X212527525Y-51549500D01*
X212527523Y-51549500D01*
X212527520Y-51549500D01*
X212387526Y-51587010D01*
X212387522Y-51587012D01*
X212387519Y-51587014D01*
X212387515Y-51587016D01*
X212270167Y-51654767D01*
X212261981Y-51659493D01*
X212159492Y-51761982D01*
X212159487Y-51761989D01*
X212159479Y-51762000D01*
X212092400Y-51878186D01*
X212087930Y-51884876D01*
X212083061Y-51891221D01*
X212077758Y-51897268D01*
X211715489Y-52259540D01*
X211659542Y-52315485D01*
X211619977Y-52384013D01*
X211619976Y-52384016D01*
X211599500Y-52460432D01*
X211599500Y-54054977D01*
X211594818Y-54078512D01*
X211586167Y-54099397D01*
X211572836Y-54119349D01*
X211499502Y-54192683D01*
X211499499Y-54192685D01*
X211499497Y-54192688D01*
X211433617Y-54306796D01*
X211433605Y-54306819D01*
X211412954Y-54383891D01*
X211399500Y-54434104D01*
X205833330Y-54434104D01*
X206922961Y-53344473D01*
X206950407Y-53278211D01*
X206963000Y-53247810D01*
X206963000Y-52485667D01*
X206967681Y-52462134D01*
X206973023Y-52449236D01*
X206999094Y-52419507D01*
X207001606Y-52418057D01*
X207008819Y-52414501D01*
X207012474Y-52412986D01*
X207012485Y-52412984D01*
X207138015Y-52340509D01*
X207240509Y-52238015D01*
X207312984Y-52112485D01*
X207336722Y-52023894D01*
X207350500Y-51972477D01*
X207350500Y-51827522D01*
X207350500Y-51827519D01*
X207313126Y-51688046D01*
X207312995Y-51687542D01*
X207312986Y-51687519D01*
X207296804Y-51659491D01*
X207240509Y-51561985D01*
X207138015Y-51459491D01*
X207138012Y-51459489D01*
X207138008Y-51459486D01*
X207012482Y-51387013D01*
X206872480Y-51349500D01*
X206872477Y-51349500D01*
X206872475Y-51349500D01*
X206727525Y-51349500D01*
X206727523Y-51349500D01*
X206727520Y-51349500D01*
X206587526Y-51387010D01*
X206587522Y-51387012D01*
X206587519Y-51387014D01*
X206587515Y-51387016D01*
X206586310Y-51387712D01*
X206461981Y-51459493D01*
X206385985Y-51535489D01*
X206366033Y-51548820D01*
X206357383Y-51552403D01*
X206310314Y-51552404D01*
X206306468Y-51550811D01*
X206276742Y-51524742D01*
X206240509Y-51461985D01*
X206138015Y-51359491D01*
X206138012Y-51359489D01*
X206138008Y-51359486D01*
X206012482Y-51287013D01*
X205872480Y-51249500D01*
X205872477Y-51249500D01*
X205872475Y-51249500D01*
X205727525Y-51249500D01*
X205727523Y-51249500D01*
X205727520Y-51249500D01*
X205587526Y-51287010D01*
X205587522Y-51287012D01*
X205461981Y-51359493D01*
X205359493Y-51461981D01*
X205359490Y-51461985D01*
X205359490Y-51461986D01*
X205309357Y-51548820D01*
X205287012Y-51587522D01*
X205287012Y-51587523D01*
X205249500Y-51727518D01*
X205249500Y-51828748D01*
X205244817Y-51852287D01*
X205241233Y-51860938D01*
X205207957Y-51894215D01*
X205199307Y-51897799D01*
X205175766Y-51902483D01*
X205068571Y-51902483D01*
X204928577Y-51939993D01*
X204928573Y-51939995D01*
X204928570Y-51939997D01*
X204928566Y-51939999D01*
X204893773Y-51960087D01*
X204803032Y-52012476D01*
X204700544Y-52114964D01*
X204700541Y-52114968D01*
X204700541Y-52114969D01*
X204687334Y-52137846D01*
X204681103Y-52148638D01*
X204665280Y-52166680D01*
X204651472Y-52177275D01*
X204614034Y-52189983D01*
X194024629Y-52189983D01*
X194001094Y-52185301D01*
X193980209Y-52176650D01*
X193960257Y-52163319D01*
X191586837Y-49789899D01*
X191573506Y-49769949D01*
X191566844Y-49753866D01*
X191564260Y-49714416D01*
X191575500Y-49672475D01*
X191575500Y-49527525D01*
X191575500Y-49527522D01*
X191575500Y-49527519D01*
X191543221Y-49407059D01*
X191538119Y-49388019D01*
X191537995Y-49387542D01*
X191537986Y-49387519D01*
X191537984Y-49387515D01*
X191465509Y-49261985D01*
X191363015Y-49159491D01*
X191363012Y-49159489D01*
X191363008Y-49159486D01*
X191237482Y-49087013D01*
X191097480Y-49049500D01*
X191097477Y-49049500D01*
X191097475Y-49049500D01*
X190952525Y-49049500D01*
X190952523Y-49049500D01*
X190952520Y-49049500D01*
X190812526Y-49087010D01*
X190812522Y-49087012D01*
X190812519Y-49087014D01*
X190812515Y-49087016D01*
X190767496Y-49113008D01*
X190686981Y-49159493D01*
X190584493Y-49261981D01*
X190584490Y-49261985D01*
X190584490Y-49261986D01*
X190548978Y-49323495D01*
X190512012Y-49387522D01*
X190512010Y-49387527D01*
X190474500Y-49527518D01*
X184704305Y-49527518D01*
X184712984Y-49512485D01*
X184714301Y-49507571D01*
X184737955Y-49419294D01*
X184750500Y-49372479D01*
X184750500Y-49227519D01*
X184718519Y-49108170D01*
X184713119Y-49088019D01*
X184712995Y-49087542D01*
X184712986Y-49087519D01*
X184712695Y-49087015D01*
X184640509Y-48961985D01*
X184538015Y-48859491D01*
X184538012Y-48859489D01*
X184538008Y-48859486D01*
X184412482Y-48787013D01*
X184272480Y-48749500D01*
X184272477Y-48749500D01*
X184272475Y-48749500D01*
X184127525Y-48749500D01*
X184127523Y-48749500D01*
X184127520Y-48749500D01*
X183987526Y-48787010D01*
X183987522Y-48787012D01*
X183861981Y-48859493D01*
X183759493Y-48961981D01*
X183759490Y-48961985D01*
X183759490Y-48961986D01*
X183703194Y-49059494D01*
X183687012Y-49087522D01*
X183687012Y-49087523D01*
X183649500Y-49227518D01*
X183649500Y-49372480D01*
X183687012Y-49512478D01*
X183687015Y-49512484D01*
X183687016Y-49512485D01*
X183726009Y-49580022D01*
X183737212Y-49599427D01*
X183743354Y-49614254D01*
X183747404Y-49629367D01*
X183749500Y-49645286D01*
X183749500Y-55275688D01*
X183744818Y-55299223D01*
X183736167Y-55320108D01*
X183722836Y-55340060D01*
X183464137Y-55598759D01*
X183444179Y-55612093D01*
X183438062Y-55614626D01*
X183390992Y-55614621D01*
X183357712Y-55581334D01*
X183355179Y-55575217D01*
X183350500Y-55551688D01*
X183350500Y-49845286D01*
X183352595Y-49829371D01*
X183356644Y-49814258D01*
X183362785Y-49799430D01*
X183412984Y-49712485D01*
X183433160Y-49637189D01*
X183439643Y-49612994D01*
X183450500Y-49572479D01*
X183450500Y-49427519D01*
X183419675Y-49312484D01*
X183413110Y-49287984D01*
X183412995Y-49287542D01*
X183412986Y-49287519D01*
X183412900Y-49287370D01*
X183340509Y-49161985D01*
X183238015Y-49059491D01*
X183238012Y-49059489D01*
X183238008Y-49059486D01*
X183112482Y-48987013D01*
X182972480Y-48949500D01*
X182972477Y-48949500D01*
X182972475Y-48949500D01*
X182827525Y-48949500D01*
X182827523Y-48949500D01*
X182827520Y-48949500D01*
X182687526Y-48987010D01*
X182687522Y-48987012D01*
X182561981Y-49059493D01*
X182459493Y-49161981D01*
X182459490Y-49161985D01*
X182459490Y-49161986D01*
X182421860Y-49227163D01*
X182387012Y-49287522D01*
X182387010Y-49287527D01*
X182349500Y-49427518D01*
X182349500Y-49572480D01*
X182387012Y-49712478D01*
X182437210Y-49799423D01*
X182443354Y-49814254D01*
X182447404Y-49829367D01*
X182449500Y-49845286D01*
X182449500Y-55649688D01*
X182444818Y-55673223D01*
X182436167Y-55694108D01*
X182422836Y-55714060D01*
X181734692Y-56402204D01*
X181714734Y-56415538D01*
X181708617Y-56418071D01*
X181661547Y-56418066D01*
X181628267Y-56384779D01*
X181625734Y-56378662D01*
X181621055Y-56355133D01*
X181621055Y-49845114D01*
X181623150Y-49829200D01*
X181627198Y-49814089D01*
X181633338Y-49799261D01*
X181683539Y-49712313D01*
X181703669Y-49637189D01*
X181710154Y-49612986D01*
X181710154Y-49612984D01*
X181710155Y-49612983D01*
X181718987Y-49580022D01*
X181721055Y-49572306D01*
X181721055Y-49427347D01*
X181683727Y-49288046D01*
X181683674Y-49287847D01*
X181683550Y-49287370D01*
X181683541Y-49287347D01*
X181683539Y-49287343D01*
X181611064Y-49161813D01*
X181508570Y-49059319D01*
X181508567Y-49059317D01*
X181508563Y-49059314D01*
X181383037Y-48986841D01*
X181243035Y-48949328D01*
X181243032Y-48949328D01*
X181243030Y-48949328D01*
X181098080Y-48949328D01*
X181098078Y-48949328D01*
X181098075Y-48949328D01*
X180958081Y-48986838D01*
X180958077Y-48986840D01*
X180958074Y-48986842D01*
X180958070Y-48986844D01*
X180849547Y-49049500D01*
X180832536Y-49059321D01*
X180730048Y-49161809D01*
X180730045Y-49161813D01*
X180730045Y-49161814D01*
X180668591Y-49268255D01*
X180657567Y-49287350D01*
X180657565Y-49287355D01*
X180620055Y-49427346D01*
X180620055Y-49572308D01*
X180657568Y-49712310D01*
X180707766Y-49799253D01*
X180713910Y-49814086D01*
X180717959Y-49829197D01*
X180720055Y-49845114D01*
X180720055Y-56394665D01*
X180715372Y-56418204D01*
X180711788Y-56426855D01*
X180678512Y-56460132D01*
X180669862Y-56463716D01*
X180646321Y-56468400D01*
X178649146Y-56468400D01*
X178590684Y-56480028D01*
X178590672Y-56480031D01*
X178590667Y-56480033D01*
X178524348Y-56524347D01*
X178524347Y-56524348D01*
X178480033Y-56590667D01*
X178480031Y-56590672D01*
X178480028Y-56590684D01*
X178468400Y-56649144D01*
X174186422Y-56649144D01*
X174030353Y-56569622D01*
X174030348Y-56569620D01*
X173823527Y-56502420D01*
X173608740Y-56468400D01*
X173608737Y-56468400D01*
X173608734Y-56468400D01*
X173391266Y-56468400D01*
X173391262Y-56468400D01*
X173391258Y-56468400D01*
X173176471Y-56502420D01*
X172969650Y-56569620D01*
X172969645Y-56569622D01*
X172775886Y-56668348D01*
X172599942Y-56796179D01*
X172446179Y-56949942D01*
X172318348Y-57125886D01*
X172219622Y-57319645D01*
X172219620Y-57319650D01*
X172152420Y-57526471D01*
X172118400Y-57741258D01*
X172118400Y-57958740D01*
X172152420Y-58173527D01*
X172219620Y-58380348D01*
X172219622Y-58380353D01*
X172246757Y-58433607D01*
X172314790Y-58567129D01*
X172318350Y-58574116D01*
X172368425Y-58643038D01*
X172432030Y-58730584D01*
X172440764Y-58747727D01*
X172446489Y-58765345D01*
X172449500Y-58784351D01*
X172449500Y-60950688D01*
X172444818Y-60974223D01*
X172436167Y-60995108D01*
X172422836Y-61015060D01*
X168940609Y-64497287D01*
X168940606Y-64497291D01*
X168940606Y-64497292D01*
X168881703Y-64599316D01*
X168881299Y-64600015D01*
X168878659Y-64609870D01*
X168878654Y-64609892D01*
X168850600Y-64714585D01*
X168850600Y-67160413D01*
X168870994Y-67236522D01*
X168870995Y-67236528D01*
X168881295Y-67274970D01*
X168881301Y-67274987D01*
X168881302Y-67274991D01*
X168881305Y-67274997D01*
X168940605Y-67377706D01*
X168940606Y-67377707D01*
X168940609Y-67377711D01*
X168940611Y-67377714D01*
X170123386Y-68560489D01*
X170182696Y-68594731D01*
X170226114Y-68619799D01*
X170250324Y-68626286D01*
X170340687Y-68650500D01*
X170340689Y-68650500D01*
X170340691Y-68650500D01*
X182786740Y-68650500D01*
X182802650Y-68652593D01*
X182817768Y-68656644D01*
X182832592Y-68662784D01*
X182844742Y-68669799D01*
X182844744Y-68669799D01*
X182844745Y-68669800D01*
X182865759Y-68675430D01*
X182887291Y-68686049D01*
X182891309Y-68689133D01*
X182914838Y-68729900D01*
X182902649Y-68775365D01*
X182869894Y-68797293D01*
X182869671Y-68797353D01*
X182869592Y-68797374D01*
X182853563Y-68799500D01*
X138192185Y-68799500D01*
X138168648Y-68794818D01*
X138162531Y-68792284D01*
X138129249Y-68758999D01*
X138129250Y-68711929D01*
X138162531Y-68678648D01*
X138183896Y-68669799D01*
X138250231Y-68642322D01*
X138321456Y-68594731D01*
X138402716Y-68540435D01*
X138403907Y-68539743D01*
X138405015Y-68538945D01*
X138406079Y-68538205D01*
X138407245Y-68536965D01*
X138538302Y-68405908D01*
X138575325Y-68350500D01*
X138641407Y-68251600D01*
X138642579Y-68249946D01*
X138643467Y-68247466D01*
X138713969Y-68077261D01*
X138713970Y-68077258D01*
X138713973Y-68077251D01*
X138746859Y-67911915D01*
X138750500Y-67905105D01*
X138750500Y-67704338D01*
X138749316Y-67700435D01*
X138715155Y-67528688D01*
X138714997Y-67527089D01*
X138714224Y-67523813D01*
X138713869Y-67522183D01*
X138712827Y-67519979D01*
X138673691Y-67425500D01*
X138673691Y-67425499D01*
X138642322Y-67349769D01*
X138642318Y-67349763D01*
X138642316Y-67349759D01*
X138538307Y-67194098D01*
X138538302Y-67194092D01*
X138405907Y-67061697D01*
X138405901Y-67061692D01*
X138399946Y-67057713D01*
X138250248Y-66957688D01*
X138250241Y-66957684D01*
X138250240Y-66957683D01*
X138250233Y-66957679D01*
X138250231Y-66957678D01*
X138250229Y-66957677D01*
X138250221Y-66957673D01*
X138250185Y-66957658D01*
X138077266Y-66886031D01*
X138077258Y-66886028D01*
X138077245Y-66886024D01*
X138077239Y-66886023D01*
X137893622Y-66849500D01*
X137893619Y-66849500D01*
X137893616Y-66849500D01*
X137706384Y-66849500D01*
X137706381Y-66849500D01*
X137706378Y-66849500D01*
X137522759Y-66886023D01*
X137522753Y-66886024D01*
X137522740Y-66886028D01*
X137522732Y-66886031D01*
X137349793Y-66957666D01*
X137349765Y-66957679D01*
X137349755Y-66957684D01*
X137194097Y-67061692D01*
X137194090Y-67061698D01*
X137061698Y-67194090D01*
X137061692Y-67194097D01*
X136957684Y-67349755D01*
X136957679Y-67349765D01*
X136957666Y-67349793D01*
X136886031Y-67522732D01*
X136886028Y-67522740D01*
X136886024Y-67522753D01*
X136886023Y-67522759D01*
X136849500Y-67706376D01*
X136849500Y-67893622D01*
X136886023Y-68077239D01*
X136886024Y-68077245D01*
X136886028Y-68077258D01*
X136886031Y-68077266D01*
X136957658Y-68250185D01*
X136957673Y-68250221D01*
X136957675Y-68250224D01*
X136957678Y-68250231D01*
X136957679Y-68250233D01*
X136957682Y-68250239D01*
X136957688Y-68250248D01*
X137024674Y-68350500D01*
X137061692Y-68405901D01*
X137061697Y-68405907D01*
X137194092Y-68538302D01*
X137194098Y-68538307D01*
X137197298Y-68540445D01*
X137349766Y-68642321D01*
X137384338Y-68656641D01*
X137389403Y-68658739D01*
X137399204Y-68662799D01*
X137432281Y-68676500D01*
X137452233Y-68689831D01*
X137456915Y-68694513D01*
X137474928Y-68738000D01*
X137456915Y-68781487D01*
X137413428Y-68799500D01*
X111174234Y-68799500D01*
X111150695Y-68794817D01*
X111142044Y-68791233D01*
X111108764Y-68757949D01*
X111105181Y-68749298D01*
X111100500Y-68725765D01*
X111100500Y-65586894D01*
X112474500Y-65586894D01*
X112474500Y-65586899D01*
X112474500Y-65813100D01*
X112504023Y-66037347D01*
X112504024Y-66037348D01*
X112504025Y-66037355D01*
X112504030Y-66037376D01*
X112550419Y-66210500D01*
X112562565Y-66255829D01*
X112562566Y-66255833D01*
X112562567Y-66255834D01*
X112649126Y-66464806D01*
X112649127Y-66464807D01*
X112683198Y-66523822D01*
X112683199Y-66523822D01*
X112756999Y-66651650D01*
X112762221Y-66660694D01*
X112762223Y-66660697D01*
X112899913Y-66840138D01*
X113059860Y-67000085D01*
X113149037Y-67068513D01*
X113239302Y-67137776D01*
X113239303Y-67137777D01*
X113239306Y-67137778D01*
X113239309Y-67137781D01*
X113269977Y-67155487D01*
X113269978Y-67155487D01*
X113435194Y-67250874D01*
X113644166Y-67337433D01*
X113862649Y-67395976D01*
X114086905Y-67425500D01*
X114086908Y-67425500D01*
X114313092Y-67425500D01*
X114313095Y-67425500D01*
X114537351Y-67395976D01*
X114755834Y-67337433D01*
X114964806Y-67250874D01*
X115160693Y-67137779D01*
X115340142Y-67000083D01*
X115500083Y-66840142D01*
X115637779Y-66660693D01*
X115750874Y-66464806D01*
X115837433Y-66255834D01*
X115895976Y-66037351D01*
X115925500Y-65813095D01*
X115925500Y-65586905D01*
X115895976Y-65362649D01*
X115895606Y-65361270D01*
X115846841Y-65179277D01*
X115843384Y-65166376D01*
X136849500Y-65166376D01*
X136849500Y-65353622D01*
X136886023Y-65537239D01*
X136886024Y-65537245D01*
X136886028Y-65537258D01*
X136886031Y-65537266D01*
X136957658Y-65710185D01*
X136957673Y-65710221D01*
X136957675Y-65710224D01*
X136957678Y-65710231D01*
X136957679Y-65710233D01*
X136957683Y-65710240D01*
X137061692Y-65865901D01*
X137061697Y-65865907D01*
X137194092Y-65998302D01*
X137194098Y-65998307D01*
X137252523Y-66037345D01*
X137349766Y-66102321D01*
X137373370Y-66112098D01*
X137430355Y-66135702D01*
X137463666Y-66149500D01*
X137520746Y-66173144D01*
X137522255Y-66173833D01*
X137522592Y-66173941D01*
X137522746Y-66173971D01*
X137522749Y-66173973D01*
X137700439Y-66209317D01*
X137704338Y-66210500D01*
X137893619Y-66210500D01*
X137905106Y-66210500D01*
X137911915Y-66206859D01*
X138077251Y-66173973D01*
X138077329Y-66173941D01*
X138100865Y-66164191D01*
X138250231Y-66102322D01*
X138347430Y-66037376D01*
X138347472Y-66037348D01*
X138369790Y-66022435D01*
X138402704Y-66000442D01*
X138403905Y-65999745D01*
X138405017Y-65998944D01*
X138406077Y-65998207D01*
X138407245Y-65996965D01*
X138538302Y-65865908D01*
X138586666Y-65793527D01*
X138642316Y-65710240D01*
X138642316Y-65710239D01*
X138642322Y-65710231D01*
X138708899Y-65549500D01*
X138713151Y-65539233D01*
X138713907Y-65537577D01*
X138713971Y-65537254D01*
X138713973Y-65537251D01*
X138748703Y-65362651D01*
X138748980Y-65361258D01*
X165768400Y-65361258D01*
X165768400Y-65578740D01*
X165802420Y-65793527D01*
X165808780Y-65813100D01*
X165869621Y-66000351D01*
X165945617Y-66149500D01*
X165968350Y-66194116D01*
X166096175Y-66370052D01*
X166249948Y-66523825D01*
X166425884Y-66651650D01*
X166619650Y-66750379D01*
X166826475Y-66817580D01*
X167041266Y-66851600D01*
X167041270Y-66851600D01*
X167258730Y-66851600D01*
X167258734Y-66851600D01*
X167473525Y-66817580D01*
X167680350Y-66750379D01*
X167874116Y-66651650D01*
X168050052Y-66523825D01*
X168203825Y-66370052D01*
X168331650Y-66194116D01*
X168430379Y-66000350D01*
X168497580Y-65793525D01*
X168531600Y-65578734D01*
X168531600Y-65361266D01*
X168497580Y-65146475D01*
X168430379Y-64939650D01*
X168331650Y-64745884D01*
X168203825Y-64569948D01*
X168050052Y-64416175D01*
X167874116Y-64288350D01*
X167819436Y-64260489D01*
X167680351Y-64189621D01*
X167680348Y-64189620D01*
X167473527Y-64122420D01*
X167258740Y-64088400D01*
X167258737Y-64088400D01*
X167258734Y-64088400D01*
X167041266Y-64088400D01*
X167041262Y-64088400D01*
X167041258Y-64088400D01*
X166826471Y-64122420D01*
X166619650Y-64189620D01*
X166619645Y-64189622D01*
X166425886Y-64288348D01*
X166249942Y-64416179D01*
X166096179Y-64569942D01*
X165968348Y-64745886D01*
X165869622Y-64939645D01*
X165869620Y-64939650D01*
X165802420Y-65146471D01*
X165768400Y-65361258D01*
X138748980Y-65361258D01*
X138750500Y-65353619D01*
X138750500Y-65166381D01*
X138750500Y-65164338D01*
X138749317Y-65160442D01*
X138747141Y-65149500D01*
X138713973Y-64982749D01*
X138713971Y-64982746D01*
X138713941Y-64982592D01*
X138713833Y-64982255D01*
X138713144Y-64980746D01*
X138696121Y-64939650D01*
X138643151Y-64811771D01*
X138642667Y-64810474D01*
X138642323Y-64809772D01*
X138642322Y-64809769D01*
X138642318Y-64809763D01*
X138642316Y-64809759D01*
X138538307Y-64654098D01*
X138538302Y-64654092D01*
X138405907Y-64521697D01*
X138405901Y-64521692D01*
X138353427Y-64486630D01*
X138250248Y-64417688D01*
X138250241Y-64417684D01*
X138250240Y-64417683D01*
X138250233Y-64417679D01*
X138250231Y-64417678D01*
X138250229Y-64417677D01*
X138250221Y-64417673D01*
X138250185Y-64417658D01*
X138077266Y-64346031D01*
X138077258Y-64346028D01*
X138077245Y-64346024D01*
X138077239Y-64346023D01*
X137893622Y-64309500D01*
X137893619Y-64309500D01*
X137893616Y-64309500D01*
X137706384Y-64309500D01*
X137706381Y-64309500D01*
X137706378Y-64309500D01*
X137522759Y-64346023D01*
X137522753Y-64346024D01*
X137522740Y-64346028D01*
X137522732Y-64346031D01*
X137349793Y-64417666D01*
X137349765Y-64417679D01*
X137349755Y-64417684D01*
X137194097Y-64521692D01*
X137194090Y-64521698D01*
X137061698Y-64654090D01*
X137061692Y-64654097D01*
X136957684Y-64809755D01*
X136957679Y-64809765D01*
X136957666Y-64809793D01*
X136886031Y-64982732D01*
X136886028Y-64982740D01*
X136886024Y-64982753D01*
X136886023Y-64982759D01*
X136849500Y-65166376D01*
X115843384Y-65166376D01*
X115837433Y-65144166D01*
X115750874Y-64935194D01*
X115638697Y-64740897D01*
X115638022Y-64739643D01*
X115636161Y-64737060D01*
X115635319Y-64736100D01*
X115500085Y-64559860D01*
X115340138Y-64399913D01*
X115163894Y-64264676D01*
X115160697Y-64262223D01*
X115160696Y-64262222D01*
X115034947Y-64189622D01*
X114964806Y-64149126D01*
X114964801Y-64149124D01*
X114818200Y-64088400D01*
X114755834Y-64062567D01*
X114755828Y-64062565D01*
X114755825Y-64062564D01*
X114755819Y-64062562D01*
X114537376Y-64004030D01*
X114537361Y-64004026D01*
X114537352Y-64004024D01*
X114537347Y-64004023D01*
X114447648Y-63992213D01*
X114313103Y-63974500D01*
X114313100Y-63974500D01*
X114313095Y-63974500D01*
X114086905Y-63974500D01*
X114086899Y-63974500D01*
X114086895Y-63974500D01*
X113907501Y-63998118D01*
X113862652Y-64004023D01*
X113862647Y-64004024D01*
X113862644Y-64004024D01*
X113862643Y-64004025D01*
X113862622Y-64004030D01*
X113644179Y-64062562D01*
X113644162Y-64062568D01*
X113435197Y-64149124D01*
X113239304Y-64262221D01*
X113237924Y-64263280D01*
X113236105Y-64264676D01*
X113059860Y-64399913D01*
X112899913Y-64559860D01*
X112764677Y-64736102D01*
X112764676Y-64736104D01*
X112763280Y-64737924D01*
X112762221Y-64739304D01*
X112649124Y-64935197D01*
X112562568Y-65144162D01*
X112562562Y-65144179D01*
X112504024Y-65362641D01*
X112504025Y-65362641D01*
X112504024Y-65362651D01*
X112474500Y-65586894D01*
X111100500Y-65586894D01*
X111100500Y-59089770D01*
X116699500Y-59089770D01*
X116699500Y-59310228D01*
X116729946Y-59502450D01*
X116733985Y-59527953D01*
X116767625Y-59631488D01*
X116779398Y-59667720D01*
X116779398Y-59667722D01*
X116782788Y-59678155D01*
X116801447Y-59735582D01*
X116801776Y-59736730D01*
X116802104Y-59737605D01*
X116802105Y-59737606D01*
X116802106Y-59737609D01*
X116842104Y-59816108D01*
X116902185Y-59934022D01*
X117031758Y-60112365D01*
X117187635Y-60268242D01*
X117365978Y-60397815D01*
X117562394Y-60497895D01*
X117772049Y-60566015D01*
X117989778Y-60600500D01*
X117989782Y-60600500D01*
X118210218Y-60600500D01*
X118210222Y-60600500D01*
X118427951Y-60566015D01*
X118637606Y-60497895D01*
X118834022Y-60397815D01*
X119012365Y-60268242D01*
X119168242Y-60112365D01*
X119297815Y-59934022D01*
X119397895Y-59737606D01*
X119466015Y-59527951D01*
X119500500Y-59310222D01*
X119500500Y-59089778D01*
X119466015Y-58872049D01*
X119397895Y-58662394D01*
X119297815Y-58465978D01*
X119168242Y-58287635D01*
X119012365Y-58131758D01*
X118834022Y-58002185D01*
X118759856Y-57964395D01*
X118748736Y-57958729D01*
X118637608Y-57902105D01*
X118637605Y-57902104D01*
X118637591Y-57902099D01*
X118567721Y-57879398D01*
X118427953Y-57833985D01*
X118395002Y-57828766D01*
X118210228Y-57799500D01*
X118210225Y-57799500D01*
X118210222Y-57799500D01*
X117989778Y-57799500D01*
X117989774Y-57799500D01*
X117989770Y-57799500D01*
X117772043Y-57833985D01*
X117564416Y-57901447D01*
X117563267Y-57901777D01*
X117562393Y-57902104D01*
X117365980Y-58002183D01*
X117187629Y-58131762D01*
X117031762Y-58287629D01*
X116902183Y-58465980D01*
X116802104Y-58662393D01*
X116801777Y-58663267D01*
X116801447Y-58664416D01*
X116733985Y-58872043D01*
X116699500Y-59089770D01*
X111100500Y-59089770D01*
X111100500Y-53789770D01*
X116679500Y-53789770D01*
X116679500Y-54010228D01*
X116708400Y-54192690D01*
X116713985Y-54227953D01*
X116740726Y-54310255D01*
X116759398Y-54367720D01*
X116759398Y-54367721D01*
X116781449Y-54435591D01*
X116781775Y-54436727D01*
X116782104Y-54437605D01*
X116782105Y-54437606D01*
X116782106Y-54437609D01*
X116847472Y-54565894D01*
X116882185Y-54634022D01*
X117011758Y-54812365D01*
X117167635Y-54968242D01*
X117345978Y-55097815D01*
X117542394Y-55197895D01*
X117752049Y-55266015D01*
X117969778Y-55300500D01*
X117969782Y-55300500D01*
X118190218Y-55300500D01*
X118190222Y-55300500D01*
X118407951Y-55266015D01*
X118617606Y-55197895D01*
X118814022Y-55097815D01*
X118992365Y-54968242D01*
X119148242Y-54812365D01*
X119277815Y-54634022D01*
X119377895Y-54437606D01*
X119446015Y-54227951D01*
X119480500Y-54010222D01*
X119480500Y-53789778D01*
X119446015Y-53572049D01*
X119377895Y-53362394D01*
X119277815Y-53165978D01*
X119148242Y-52987635D01*
X118992365Y-52831758D01*
X118814022Y-52702185D01*
X118712586Y-52650500D01*
X118617609Y-52602106D01*
X118617608Y-52602105D01*
X118617607Y-52602105D01*
X118525970Y-52572331D01*
X118407953Y-52533985D01*
X118190228Y-52499500D01*
X118190225Y-52499500D01*
X118190222Y-52499500D01*
X117969778Y-52499500D01*
X117969774Y-52499500D01*
X117969770Y-52499500D01*
X117752043Y-52533985D01*
X117544416Y-52601447D01*
X117543267Y-52601777D01*
X117542393Y-52602104D01*
X117345980Y-52702183D01*
X117167629Y-52831762D01*
X117011762Y-52987629D01*
X116882183Y-53165980D01*
X116782104Y-53362393D01*
X116781777Y-53363267D01*
X116781447Y-53364416D01*
X116713985Y-53572043D01*
X116679500Y-53789770D01*
X111100500Y-53789770D01*
X111100500Y-38329770D01*
X112399500Y-38329770D01*
X112399500Y-38550228D01*
X112433985Y-38767955D01*
X112501447Y-38975582D01*
X112501776Y-38976730D01*
X112502104Y-38977605D01*
X112566868Y-39104710D01*
X112602183Y-39174020D01*
X112666971Y-39263193D01*
X112731758Y-39352365D01*
X112887635Y-39508242D01*
X113065978Y-39637815D01*
X113262394Y-39737895D01*
X113472049Y-39806015D01*
X113689778Y-39840500D01*
X113689782Y-39840500D01*
X113910218Y-39840500D01*
X113910222Y-39840500D01*
X114127951Y-39806015D01*
X114337606Y-39737895D01*
X114534022Y-39637815D01*
X114712365Y-39508242D01*
X114868242Y-39352365D01*
X114997815Y-39174022D01*
X115097895Y-38977606D01*
X115166015Y-38767951D01*
X115200500Y-38550222D01*
X115200500Y-38329778D01*
X115166015Y-38112049D01*
X115097895Y-37902394D01*
X114997815Y-37705978D01*
X114868242Y-37527635D01*
X114712365Y-37371758D01*
X114534022Y-37242185D01*
X114534021Y-37242184D01*
X114534019Y-37242183D01*
X114527184Y-37238700D01*
X114527183Y-37238700D01*
X114415708Y-37181900D01*
X114337608Y-37142105D01*
X114337605Y-37142104D01*
X114337591Y-37142099D01*
X114267721Y-37119398D01*
X114127953Y-37073985D01*
X113910228Y-37039500D01*
X113910225Y-37039500D01*
X113910222Y-37039500D01*
X113689778Y-37039500D01*
X113689774Y-37039500D01*
X113689770Y-37039500D01*
X113472043Y-37073985D01*
X113264416Y-37141447D01*
X113263267Y-37141777D01*
X113262393Y-37142104D01*
X113065980Y-37242183D01*
X112887629Y-37371762D01*
X112731762Y-37527629D01*
X112602183Y-37705980D01*
X112502104Y-37902393D01*
X112501777Y-37903267D01*
X112501447Y-37904416D01*
X112433985Y-38112043D01*
X112399500Y-38329770D01*
X111100500Y-38329770D01*
X111100500Y-34645722D01*
X142589500Y-34645722D01*
X142589500Y-40756090D01*
X142589897Y-40758512D01*
X142592084Y-40781832D01*
X142592184Y-40783983D01*
X142592693Y-40786136D01*
X142593645Y-40788387D01*
X142637207Y-40912881D01*
X142717851Y-41022149D01*
X142827119Y-41102793D01*
X142906499Y-41130569D01*
X142955299Y-41147645D01*
X142955300Y-41147645D01*
X142955451Y-41147698D01*
X142956071Y-41147816D01*
X142958160Y-41147914D01*
X142963366Y-41148402D01*
X142985737Y-41150500D01*
X150094262Y-41150499D01*
X150094268Y-41150499D01*
X150100006Y-41150499D01*
X150103494Y-41149633D01*
X150124697Y-41147646D01*
X150252881Y-41102793D01*
X150362149Y-41022149D01*
X150442793Y-40912881D01*
X150486354Y-40788389D01*
X150487645Y-40784700D01*
X150487645Y-40784699D01*
X150487646Y-40784697D01*
X150490500Y-40754263D01*
X150490499Y-34645738D01*
X150490499Y-34645737D01*
X150490499Y-34645731D01*
X150490499Y-34645730D01*
X150490499Y-34643914D01*
X150490100Y-34641484D01*
X150487914Y-34618164D01*
X150487831Y-34616394D01*
X150487646Y-34615306D01*
X150487646Y-34615303D01*
X150442793Y-34487119D01*
X150362149Y-34377851D01*
X150252881Y-34297207D01*
X150252878Y-34297206D01*
X150252877Y-34297205D01*
X150252878Y-34297205D01*
X150159196Y-34264424D01*
X150124700Y-34252354D01*
X150124697Y-34252353D01*
X150124694Y-34252353D01*
X150094276Y-34249500D01*
X150094269Y-34249500D01*
X142985731Y-34249500D01*
X142983908Y-34249500D01*
X142981486Y-34249897D01*
X142955315Y-34252351D01*
X142955304Y-34252353D01*
X142955289Y-34252358D01*
X142827119Y-34297206D01*
X142717851Y-34377851D01*
X142637205Y-34487120D01*
X142592354Y-34615299D01*
X142592353Y-34615304D01*
X142589500Y-34645722D01*
X111100500Y-34645722D01*
X111100500Y-32181900D01*
X119599500Y-32181900D01*
X119599500Y-32418098D01*
X119636447Y-32651368D01*
X119709432Y-32875994D01*
X119709433Y-32875995D01*
X119816661Y-33086440D01*
X119955479Y-33277506D01*
X119955481Y-33277508D01*
X119955482Y-33277509D01*
X119955483Y-33277510D01*
X120122490Y-33444517D01*
X120313567Y-33583343D01*
X120524008Y-33690568D01*
X120748632Y-33763553D01*
X120981908Y-33800500D01*
X120981912Y-33800500D01*
X121218088Y-33800500D01*
X121218092Y-33800500D01*
X121451368Y-33763553D01*
X121675992Y-33690568D01*
X121886433Y-33583343D01*
X122077510Y-33444517D01*
X122244517Y-33277510D01*
X122383343Y-33086433D01*
X122490568Y-32875992D01*
X122563553Y-32651368D01*
X122600500Y-32418092D01*
X122600500Y-32181908D01*
X122563553Y-31948632D01*
X122490568Y-31724008D01*
X122383343Y-31513567D01*
X122383339Y-31513562D01*
X122383335Y-31513554D01*
X122379265Y-31507953D01*
X122379264Y-31507952D01*
X122379263Y-31507951D01*
X122244518Y-31322491D01*
X122077509Y-31155482D01*
X122077508Y-31155481D01*
X122077484Y-31155463D01*
X122077335Y-31155356D01*
X122052233Y-31137117D01*
X122052232Y-31137117D01*
X122052225Y-31137112D01*
X122052224Y-31137111D01*
X122052223Y-31137111D01*
X122044351Y-31131391D01*
X122044349Y-31131390D01*
X121987065Y-31089770D01*
X126899500Y-31089770D01*
X126899500Y-31310228D01*
X126933985Y-31527953D01*
X126979398Y-31667720D01*
X126979398Y-31667721D01*
X126995605Y-31717604D01*
X127001444Y-31735573D01*
X127001777Y-31736731D01*
X127002104Y-31737605D01*
X127091993Y-31914020D01*
X127091992Y-31914020D01*
X127102180Y-31934013D01*
X127102185Y-31934022D01*
X127231758Y-32112365D01*
X127387635Y-32268242D01*
X127565978Y-32397815D01*
X127762394Y-32497895D01*
X127972049Y-32566015D01*
X128189778Y-32600500D01*
X128189782Y-32600500D01*
X128410218Y-32600500D01*
X128410222Y-32600500D01*
X128627951Y-32566015D01*
X128837606Y-32497895D01*
X129034022Y-32397815D01*
X129212365Y-32268242D01*
X129368242Y-32112365D01*
X129497815Y-31934022D01*
X129597895Y-31737606D01*
X129666015Y-31527951D01*
X129700500Y-31310222D01*
X129700500Y-31089778D01*
X129697332Y-31069778D01*
X129697331Y-31069770D01*
X130999500Y-31069770D01*
X130999500Y-31290228D01*
X131033985Y-31507953D01*
X131101447Y-31715582D01*
X131101776Y-31716730D01*
X131102104Y-31717606D01*
X131112296Y-31737607D01*
X131112296Y-31737609D01*
X131112297Y-31737609D01*
X131202185Y-31914022D01*
X131331758Y-32092365D01*
X131487635Y-32248242D01*
X131665978Y-32377815D01*
X131862394Y-32477895D01*
X132072049Y-32546015D01*
X132289778Y-32580500D01*
X132289782Y-32580500D01*
X132510218Y-32580500D01*
X132510222Y-32580500D01*
X132727951Y-32546015D01*
X132937606Y-32477895D01*
X133134022Y-32377815D01*
X133312365Y-32248242D01*
X133468242Y-32092365D01*
X133597815Y-31914022D01*
X133697895Y-31717606D01*
X133760313Y-31525500D01*
X133766015Y-31507952D01*
X133777184Y-31437432D01*
X133800500Y-31290222D01*
X133800500Y-31069778D01*
X133766015Y-30852049D01*
X133697895Y-30642394D01*
X133696745Y-30640138D01*
X133658362Y-30564807D01*
X133597815Y-30445978D01*
X133468242Y-30267635D01*
X133312365Y-30111758D01*
X133298179Y-30101451D01*
X134599500Y-30101451D01*
X134599500Y-30298547D01*
X134628140Y-30442528D01*
X134632805Y-30465980D01*
X134637948Y-30491832D01*
X134637949Y-30491838D01*
X134649702Y-30520211D01*
X134649702Y-30520212D01*
X134649703Y-30520212D01*
X134700310Y-30642390D01*
X134713363Y-30673904D01*
X134713374Y-30673926D01*
X134822855Y-30837775D01*
X134822861Y-30837782D01*
X134962216Y-30977137D01*
X134962223Y-30977143D01*
X135126077Y-31086627D01*
X135126082Y-31086630D01*
X135126084Y-31086631D01*
X135126086Y-31086632D01*
X135308165Y-31162051D01*
X135495514Y-31199317D01*
X135499413Y-31200500D01*
X135698544Y-31200500D01*
X135710031Y-31200500D01*
X135716841Y-31196859D01*
X135891835Y-31162051D01*
X136073914Y-31086632D01*
X136184425Y-31012791D01*
X136237775Y-30977144D01*
X136237776Y-30977142D01*
X136237782Y-30977139D01*
X136377139Y-30837782D01*
X136448962Y-30730292D01*
X136485722Y-30675275D01*
X136486888Y-30673630D01*
X136487767Y-30671171D01*
X136562051Y-30491835D01*
X136596859Y-30316841D01*
X136600500Y-30310030D01*
X136600500Y-30099413D01*
X136599316Y-30095510D01*
X136591424Y-30055833D01*
X136562052Y-29908170D01*
X136562050Y-29908163D01*
X136551257Y-29882106D01*
X136486632Y-29726086D01*
X136388152Y-29578700D01*
X156759500Y-29578700D01*
X156759500Y-29821298D01*
X156791162Y-30061792D01*
X156791164Y-30061801D01*
X156853940Y-30296083D01*
X156853944Y-30296094D01*
X156853946Y-30296100D01*
X156946776Y-30520212D01*
X156972523Y-30564807D01*
X157007420Y-30625250D01*
X157068064Y-30730290D01*
X157068066Y-30730293D01*
X157215731Y-30922734D01*
X157387264Y-31094267D01*
X157466834Y-31155323D01*
X157579706Y-31241933D01*
X157579707Y-31241934D01*
X157624102Y-31267565D01*
X157789788Y-31363224D01*
X158013900Y-31456054D01*
X158162886Y-31495975D01*
X158228550Y-31513570D01*
X158247733Y-31518710D01*
X158248181Y-31518834D01*
X158248210Y-31518837D01*
X158248211Y-31518838D01*
X158488712Y-31550500D01*
X158488715Y-31550500D01*
X158731285Y-31550500D01*
X158731288Y-31550500D01*
X158971789Y-31518838D01*
X159206100Y-31456054D01*
X159430212Y-31363224D01*
X159640289Y-31241936D01*
X159832738Y-31094265D01*
X160004265Y-30922738D01*
X160151936Y-30730289D01*
X160273224Y-30520212D01*
X160366054Y-30296100D01*
X160368323Y-30287635D01*
X160418209Y-30101455D01*
X160428838Y-30061789D01*
X160460500Y-29821288D01*
X160460500Y-29578712D01*
X160435247Y-29386895D01*
X226074500Y-29386895D01*
X226074500Y-29613103D01*
X226089375Y-29726083D01*
X226103580Y-29833985D01*
X226104023Y-29837345D01*
X226104025Y-29837355D01*
X226104030Y-29837376D01*
X226148191Y-30002185D01*
X226162565Y-30055829D01*
X226162566Y-30055833D01*
X226162567Y-30055834D01*
X226249126Y-30264806D01*
X226262303Y-30287629D01*
X226267193Y-30296098D01*
X226267194Y-30296100D01*
X226362221Y-30460694D01*
X226362223Y-30460697D01*
X226499913Y-30640138D01*
X226659860Y-30800085D01*
X226836100Y-30935319D01*
X226836113Y-30935330D01*
X226839297Y-30937774D01*
X226843399Y-30940142D01*
X226880699Y-30961676D01*
X227035194Y-31050874D01*
X227244166Y-31137433D01*
X227462649Y-31195976D01*
X227686905Y-31225500D01*
X227686908Y-31225500D01*
X227913092Y-31225500D01*
X227913095Y-31225500D01*
X228137351Y-31195976D01*
X228355834Y-31137433D01*
X228564806Y-31050874D01*
X228760693Y-30937779D01*
X228940142Y-30800083D01*
X229100083Y-30640142D01*
X229237779Y-30460693D01*
X229350874Y-30264806D01*
X229437433Y-30055834D01*
X229495976Y-29837351D01*
X229525500Y-29613095D01*
X229525500Y-29386905D01*
X229495976Y-29162649D01*
X229437433Y-28944166D01*
X229350874Y-28735194D01*
X229238697Y-28540897D01*
X229238022Y-28539643D01*
X229236161Y-28537060D01*
X229235319Y-28536100D01*
X229100085Y-28359860D01*
X228940138Y-28199913D01*
X228760697Y-28062223D01*
X228760696Y-28062222D01*
X228656988Y-28002347D01*
X228656988Y-28002346D01*
X228592192Y-27964937D01*
X228564806Y-27949126D01*
X228355834Y-27862567D01*
X228355828Y-27862565D01*
X228355825Y-27862564D01*
X228355819Y-27862562D01*
X228137376Y-27804030D01*
X228137361Y-27804026D01*
X228137352Y-27804024D01*
X228137347Y-27804023D01*
X228047648Y-27792213D01*
X227913103Y-27774500D01*
X227913100Y-27774500D01*
X227913095Y-27774500D01*
X227686905Y-27774500D01*
X227686899Y-27774500D01*
X227686895Y-27774500D01*
X227511135Y-27797640D01*
X227462652Y-27804023D01*
X227462647Y-27804024D01*
X227462644Y-27804024D01*
X227462643Y-27804025D01*
X227462622Y-27804030D01*
X227244179Y-27862562D01*
X227244162Y-27862568D01*
X227035197Y-27949124D01*
X226839301Y-28062223D01*
X226839302Y-28062223D01*
X226659860Y-28199913D01*
X226499913Y-28359860D01*
X226364677Y-28536102D01*
X226364676Y-28536104D01*
X226363280Y-28537924D01*
X226362221Y-28539304D01*
X226249124Y-28735197D01*
X226162568Y-28944162D01*
X226162562Y-28944179D01*
X226104030Y-29162622D01*
X226104025Y-29162643D01*
X226104023Y-29162653D01*
X226074500Y-29386895D01*
X160435247Y-29386895D01*
X160428838Y-29338211D01*
X160366054Y-29103900D01*
X160273224Y-28879788D01*
X160152854Y-28671301D01*
X160152179Y-28670047D01*
X160150318Y-28667464D01*
X160149476Y-28666504D01*
X160004267Y-28477264D01*
X159832734Y-28305731D01*
X159640293Y-28158066D01*
X159640292Y-28158065D01*
X159535250Y-28097420D01*
X159430212Y-28036776D01*
X159206100Y-27943946D01*
X159206094Y-27943944D01*
X159206091Y-27943943D01*
X159206085Y-27943941D01*
X158971809Y-27881166D01*
X158971788Y-27881161D01*
X158946185Y-27877791D01*
X158946185Y-27877790D01*
X158731298Y-27849500D01*
X158731293Y-27849500D01*
X158731288Y-27849500D01*
X158488712Y-27849500D01*
X158488706Y-27849500D01*
X158488700Y-27849500D01*
X158248206Y-27881162D01*
X158248197Y-27881164D01*
X158013915Y-27943940D01*
X158013896Y-27943947D01*
X157789791Y-28036774D01*
X157579705Y-28158066D01*
X157579706Y-28158066D01*
X157387264Y-28305731D01*
X157215731Y-28477264D01*
X157070520Y-28666506D01*
X157070519Y-28666508D01*
X157069118Y-28668334D01*
X157068064Y-28669708D01*
X156946774Y-28879791D01*
X156853947Y-29103896D01*
X156853940Y-29103915D01*
X156791164Y-29338197D01*
X156791162Y-29338206D01*
X156759500Y-29578700D01*
X136388152Y-29578700D01*
X136377139Y-29562218D01*
X136237782Y-29422861D01*
X136237781Y-29422860D01*
X136237775Y-29422855D01*
X136073926Y-29313374D01*
X136073920Y-29313371D01*
X136073916Y-29313369D01*
X135891836Y-29237949D01*
X135891828Y-29237947D01*
X135842528Y-29228140D01*
X135698547Y-29199500D01*
X135698544Y-29199500D01*
X135698541Y-29199500D01*
X135501459Y-29199500D01*
X135501456Y-29199500D01*
X135501453Y-29199500D01*
X135308166Y-29237948D01*
X135308164Y-29237948D01*
X135308163Y-29237949D01*
X135126083Y-29313369D01*
X135126081Y-29313370D01*
X135126072Y-29313374D01*
X134962223Y-29422855D01*
X134962216Y-29422861D01*
X134822861Y-29562216D01*
X134822855Y-29562223D01*
X134713374Y-29726072D01*
X134713370Y-29726081D01*
X134713369Y-29726083D01*
X134640459Y-29902105D01*
X134637948Y-29908166D01*
X134599500Y-30101451D01*
X133298179Y-30101451D01*
X133134022Y-29982185D01*
X133134021Y-29982184D01*
X133134019Y-29982183D01*
X133127184Y-29978700D01*
X133127183Y-29978700D01*
X133032396Y-29930403D01*
X132937608Y-29882105D01*
X132937605Y-29882104D01*
X132937591Y-29882099D01*
X132867721Y-29859398D01*
X132727953Y-29813985D01*
X132510228Y-29779500D01*
X132510225Y-29779500D01*
X132510222Y-29779500D01*
X132289778Y-29779500D01*
X132289774Y-29779500D01*
X132289770Y-29779500D01*
X132072043Y-29813985D01*
X131864416Y-29881447D01*
X131863267Y-29881777D01*
X131862393Y-29882104D01*
X131665980Y-29982183D01*
X131487629Y-30111762D01*
X131331762Y-30267629D01*
X131202183Y-30445980D01*
X131102106Y-30642390D01*
X131101777Y-30643267D01*
X131101447Y-30644416D01*
X131033985Y-30852043D01*
X130999500Y-31069770D01*
X129697331Y-31069770D01*
X129682659Y-30977137D01*
X129666015Y-30872049D01*
X129597895Y-30662394D01*
X129497815Y-30465978D01*
X129368242Y-30287635D01*
X129212365Y-30131758D01*
X129034022Y-30002185D01*
X128994768Y-29982184D01*
X128987930Y-29978700D01*
X128837608Y-29902105D01*
X128837605Y-29902104D01*
X128837591Y-29902099D01*
X128767721Y-29879398D01*
X128627953Y-29833985D01*
X128410228Y-29799500D01*
X128410225Y-29799500D01*
X128410222Y-29799500D01*
X128189778Y-29799500D01*
X128189774Y-29799500D01*
X128189770Y-29799500D01*
X127972043Y-29833985D01*
X127764416Y-29901447D01*
X127763267Y-29901777D01*
X127762393Y-29902104D01*
X127565980Y-30002183D01*
X127387629Y-30131762D01*
X127231762Y-30287629D01*
X127102183Y-30465980D01*
X127002104Y-30662393D01*
X127001777Y-30663267D01*
X127001447Y-30664416D01*
X126933985Y-30872043D01*
X126899500Y-31089770D01*
X121987065Y-31089770D01*
X121886444Y-31016664D01*
X121886437Y-31016660D01*
X121886433Y-31016657D01*
X121882272Y-31014536D01*
X121878841Y-31012788D01*
X121878841Y-31012787D01*
X121675994Y-30909432D01*
X121451368Y-30836447D01*
X121218098Y-30799500D01*
X121218095Y-30799500D01*
X121218092Y-30799500D01*
X120981908Y-30799500D01*
X120981904Y-30799500D01*
X120981900Y-30799500D01*
X120748630Y-30836447D01*
X120524004Y-30909432D01*
X120524003Y-30909433D01*
X120313558Y-31016661D01*
X120118502Y-31158378D01*
X120115601Y-31162371D01*
X119962371Y-31315601D01*
X119958378Y-31318502D01*
X119816661Y-31513558D01*
X119709433Y-31724003D01*
X119709432Y-31724004D01*
X119636447Y-31948630D01*
X119599500Y-32181900D01*
X111100500Y-32181900D01*
X111100500Y-29686895D01*
X112374500Y-29686895D01*
X112374500Y-29913103D01*
X112383595Y-29982183D01*
X112403287Y-30131760D01*
X112404023Y-30137345D01*
X112404025Y-30137355D01*
X112404030Y-30137376D01*
X112446559Y-30296094D01*
X112462565Y-30355829D01*
X112462566Y-30355833D01*
X112462567Y-30355834D01*
X112549126Y-30564806D01*
X112549127Y-30564807D01*
X112592619Y-30640140D01*
X112592620Y-30640140D01*
X112662221Y-30760694D01*
X112662223Y-30760697D01*
X112799913Y-30940138D01*
X112959860Y-31100085D01*
X113136100Y-31235319D01*
X113136113Y-31235330D01*
X113139297Y-31237773D01*
X113139301Y-31237775D01*
X113139302Y-31237776D01*
X113139303Y-31237777D01*
X113146503Y-31241934D01*
X113146506Y-31241937D01*
X113146507Y-31241936D01*
X113335194Y-31350874D01*
X113544166Y-31437433D01*
X113762649Y-31495976D01*
X113986905Y-31525500D01*
X113986908Y-31525500D01*
X114213092Y-31525500D01*
X114213095Y-31525500D01*
X114437351Y-31495976D01*
X114655834Y-31437433D01*
X114864806Y-31350874D01*
X115060693Y-31237779D01*
X115240142Y-31100083D01*
X115400083Y-30940142D01*
X115537779Y-30760693D01*
X115650874Y-30564806D01*
X115737433Y-30355834D01*
X115795976Y-30137351D01*
X115825500Y-29913095D01*
X115825500Y-29686905D01*
X115795976Y-29462649D01*
X115737433Y-29244166D01*
X115650874Y-29035194D01*
X115538697Y-28840897D01*
X115538022Y-28839643D01*
X115536161Y-28837060D01*
X115535319Y-28836100D01*
X115400085Y-28659860D01*
X115240138Y-28499913D01*
X115060697Y-28362223D01*
X115060696Y-28362222D01*
X114962749Y-28305673D01*
X114962749Y-28305672D01*
X114893904Y-28265925D01*
X114864806Y-28249126D01*
X114655834Y-28162567D01*
X114655828Y-28162565D01*
X114655825Y-28162564D01*
X114655819Y-28162562D01*
X114437376Y-28104030D01*
X114437361Y-28104026D01*
X114437352Y-28104024D01*
X114437347Y-28104023D01*
X114347648Y-28092213D01*
X114213103Y-28074500D01*
X114213100Y-28074500D01*
X114213095Y-28074500D01*
X113986905Y-28074500D01*
X113986899Y-28074500D01*
X113986895Y-28074500D01*
X113812806Y-28097420D01*
X113762652Y-28104023D01*
X113762647Y-28104024D01*
X113762644Y-28104024D01*
X113762643Y-28104025D01*
X113762622Y-28104030D01*
X113544179Y-28162562D01*
X113544162Y-28162568D01*
X113335197Y-28249124D01*
X113139301Y-28362223D01*
X113139302Y-28362223D01*
X112959860Y-28499913D01*
X112799913Y-28659860D01*
X112664677Y-28836102D01*
X112664676Y-28836104D01*
X112663280Y-28837924D01*
X112662221Y-28839304D01*
X112549124Y-29035197D01*
X112462568Y-29244162D01*
X112462562Y-29244179D01*
X112404030Y-29462622D01*
X112404025Y-29462643D01*
X112404023Y-29462653D01*
X112374500Y-29686895D01*
X111100500Y-29686895D01*
X111100500Y-27797640D01*
X121639500Y-27797640D01*
X121639500Y-28002358D01*
X121671523Y-28204538D01*
X121734780Y-28399221D01*
X121734781Y-28399222D01*
X121824362Y-28575033D01*
X121827713Y-28581610D01*
X121948034Y-28747219D01*
X122092781Y-28891966D01*
X122258390Y-29012287D01*
X122375876Y-29072149D01*
X122438182Y-29103896D01*
X122440781Y-29105220D01*
X122635463Y-29168476D01*
X122635466Y-29168477D01*
X122837648Y-29200500D01*
X122837652Y-29200500D01*
X123042348Y-29200500D01*
X123042352Y-29200500D01*
X123244534Y-29168477D01*
X123439219Y-29105220D01*
X123621610Y-29012287D01*
X123787219Y-28891966D01*
X123931966Y-28747219D01*
X124052287Y-28581610D01*
X124145220Y-28399219D01*
X124208477Y-28204534D01*
X124240500Y-28002352D01*
X124240500Y-27797648D01*
X124208477Y-27595466D01*
X124145220Y-27400781D01*
X124052287Y-27218390D01*
X123931966Y-27052781D01*
X123874902Y-26995717D01*
X131799500Y-26995717D01*
X131799500Y-28806093D01*
X131799897Y-28808515D01*
X131802084Y-28831834D01*
X131802184Y-28833986D01*
X131802693Y-28836140D01*
X131803646Y-28838393D01*
X131818132Y-28879791D01*
X131847207Y-28962883D01*
X131927850Y-29072150D01*
X132037117Y-29152793D01*
X132165300Y-29197646D01*
X132195733Y-29200500D01*
X134004266Y-29200499D01*
X134004272Y-29200499D01*
X134010010Y-29200499D01*
X134013499Y-29199633D01*
X134034700Y-29197646D01*
X134162883Y-29152793D01*
X134272150Y-29072150D01*
X134352793Y-28962883D01*
X134397646Y-28834700D01*
X134400500Y-28804267D01*
X134400499Y-26995734D01*
X134400499Y-26995733D01*
X134400499Y-26995727D01*
X134400499Y-26993910D01*
X134400100Y-26991480D01*
X134397914Y-26968161D01*
X134397831Y-26966391D01*
X134397646Y-26965303D01*
X134397646Y-26965300D01*
X134352793Y-26837117D01*
X134272150Y-26727850D01*
X134162883Y-26647207D01*
X134162881Y-26647206D01*
X134118061Y-26631523D01*
X134034702Y-26602354D01*
X134034694Y-26602353D01*
X134034670Y-26602350D01*
X134004281Y-26599500D01*
X134004274Y-26599500D01*
X132195727Y-26599500D01*
X132193904Y-26599500D01*
X132191482Y-26599897D01*
X132165307Y-26602351D01*
X132165306Y-26602351D01*
X132165286Y-26602358D01*
X132037117Y-26647206D01*
X131927850Y-26727850D01*
X131847205Y-26837118D01*
X131802355Y-26965292D01*
X131802354Y-26965298D01*
X131802350Y-26965328D01*
X131799500Y-26995717D01*
X123874902Y-26995717D01*
X123787219Y-26908034D01*
X123621610Y-26787713D01*
X123615033Y-26784362D01*
X123439222Y-26694781D01*
X123439221Y-26694780D01*
X123290646Y-26646505D01*
X123279609Y-26637078D01*
X123042358Y-26599500D01*
X123042355Y-26599500D01*
X123042352Y-26599500D01*
X122837648Y-26599500D01*
X122837644Y-26599500D01*
X122837640Y-26599500D01*
X122635460Y-26631523D01*
X122440777Y-26694780D01*
X122440776Y-26694781D01*
X122258390Y-26787712D01*
X122092775Y-26908038D01*
X121948038Y-27052775D01*
X121827712Y-27218390D01*
X121734781Y-27400776D01*
X121734780Y-27400777D01*
X121671523Y-27595460D01*
X121639500Y-27797640D01*
X111100500Y-27797640D01*
X111100500Y-21705511D01*
X111699500Y-21705511D01*
X111699500Y-21894487D01*
X111729060Y-22081122D01*
X111787453Y-22260834D01*
X111787454Y-22260835D01*
X111867088Y-22417126D01*
X111873244Y-22429206D01*
X111984306Y-22582069D01*
X111984308Y-22582071D01*
X111984309Y-22582072D01*
X111984310Y-22582073D01*
X112117927Y-22715690D01*
X112270801Y-22826760D01*
X112439168Y-22912547D01*
X112618879Y-22970939D01*
X112618880Y-22970940D01*
X112780199Y-22996489D01*
X112805519Y-23000500D01*
X112805523Y-23000500D01*
X112994477Y-23000500D01*
X112994481Y-23000500D01*
X113181118Y-22970940D01*
X113360832Y-22912547D01*
X113529199Y-22826760D01*
X113682073Y-22715690D01*
X113815690Y-22582073D01*
X113926760Y-22429199D01*
X114012547Y-22260832D01*
X114070940Y-22081118D01*
X114100500Y-21894481D01*
X114100500Y-21705519D01*
X114070940Y-21518882D01*
X114012547Y-21339168D01*
X113926760Y-21170801D01*
X113926758Y-21170798D01*
X113815691Y-21017928D01*
X113682069Y-20884306D01*
X113529206Y-20773244D01*
X113529203Y-20773242D01*
X113529201Y-20773241D01*
X113360835Y-20687454D01*
X113360834Y-20687453D01*
X113227230Y-20644042D01*
X113216192Y-20634614D01*
X112994487Y-20599500D01*
X112994484Y-20599500D01*
X112994481Y-20599500D01*
X112805519Y-20599500D01*
X112805515Y-20599500D01*
X112805511Y-20599500D01*
X112618876Y-20629060D01*
X112439164Y-20687453D01*
X112439163Y-20687454D01*
X112270792Y-20773244D01*
X112113939Y-20887205D01*
X112111038Y-20891198D01*
X111991198Y-21011038D01*
X111987205Y-21013939D01*
X111873244Y-21170792D01*
X111787454Y-21339163D01*
X111787453Y-21339164D01*
X111729060Y-21518876D01*
X111699500Y-21705511D01*
X111100500Y-21705511D01*
X111100500Y-20372147D01*
X115199500Y-20372147D01*
X115199500Y-20627851D01*
X115232871Y-20881326D01*
X115232874Y-20881343D01*
X115232880Y-20881372D01*
X115299045Y-21128298D01*
X115299051Y-21128315D01*
X115386386Y-21339163D01*
X115396896Y-21364535D01*
X115450349Y-21457118D01*
X115486006Y-21518879D01*
X115524739Y-21585966D01*
X115524741Y-21585969D01*
X115680386Y-21788809D01*
X115861188Y-21969611D01*
X115861187Y-21969611D01*
X116006511Y-22081122D01*
X116064030Y-22125258D01*
X116064031Y-22125259D01*
X116064034Y-22125260D01*
X116064037Y-22125263D01*
X116110825Y-22152276D01*
X116110826Y-22152276D01*
X116285465Y-22253104D01*
X116521687Y-22350950D01*
X116623628Y-22378265D01*
X116688260Y-22395583D01*
X116766888Y-22416652D01*
X116767820Y-22416932D01*
X116768613Y-22417114D01*
X116768647Y-22417123D01*
X116768657Y-22417125D01*
X116768660Y-22417126D01*
X117022157Y-22450500D01*
X117022160Y-22450500D01*
X117277840Y-22450500D01*
X117277843Y-22450500D01*
X117531340Y-22417126D01*
X117531344Y-22417124D01*
X117531350Y-22417124D01*
X117531389Y-22417116D01*
X117531786Y-22417006D01*
X117595974Y-22399807D01*
X117778313Y-22350950D01*
X118014535Y-22253104D01*
X118235965Y-22125261D01*
X118438813Y-21969610D01*
X118619610Y-21788813D01*
X118775261Y-21585965D01*
X118903104Y-21364535D01*
X119000950Y-21128313D01*
X119049418Y-20947425D01*
X119066328Y-20884318D01*
X119066362Y-20884189D01*
X119066645Y-20883131D01*
X119066960Y-20882085D01*
X119067062Y-20881627D01*
X119067126Y-20881342D01*
X119098367Y-20644042D01*
X119100500Y-20627843D01*
X119100500Y-20372157D01*
X119100499Y-20372153D01*
X119100498Y-20372147D01*
X122999500Y-20372147D01*
X122999500Y-20627851D01*
X123032871Y-20881326D01*
X123032874Y-20881343D01*
X123032880Y-20881372D01*
X123099045Y-21128298D01*
X123099051Y-21128315D01*
X123186386Y-21339163D01*
X123196896Y-21364535D01*
X123250349Y-21457118D01*
X123286006Y-21518879D01*
X123324739Y-21585966D01*
X123324741Y-21585969D01*
X123480386Y-21788809D01*
X123661188Y-21969611D01*
X123661187Y-21969611D01*
X123806511Y-22081122D01*
X123864030Y-22125258D01*
X123864031Y-22125259D01*
X123864034Y-22125260D01*
X123864037Y-22125263D01*
X123910825Y-22152276D01*
X123910826Y-22152276D01*
X124085465Y-22253104D01*
X124321687Y-22350950D01*
X124423628Y-22378265D01*
X124488260Y-22395583D01*
X124566888Y-22416652D01*
X124567820Y-22416932D01*
X124568613Y-22417114D01*
X124568647Y-22417123D01*
X124568657Y-22417125D01*
X124568660Y-22417126D01*
X124822157Y-22450500D01*
X124822160Y-22450500D01*
X125077840Y-22450500D01*
X125077843Y-22450500D01*
X125331340Y-22417126D01*
X125331344Y-22417124D01*
X125331350Y-22417124D01*
X125331389Y-22417116D01*
X125331786Y-22417006D01*
X125395974Y-22399807D01*
X125578313Y-22350950D01*
X125814535Y-22253104D01*
X126035965Y-22125261D01*
X126238813Y-21969610D01*
X126419610Y-21788813D01*
X126575261Y-21585965D01*
X126703104Y-21364535D01*
X126800950Y-21128313D01*
X126849418Y-20947425D01*
X126866328Y-20884318D01*
X126866362Y-20884189D01*
X126866645Y-20883131D01*
X126866960Y-20882085D01*
X126867062Y-20881627D01*
X126867126Y-20881342D01*
X126898367Y-20644042D01*
X126900500Y-20627843D01*
X126900500Y-20372157D01*
X126867126Y-20118660D01*
X126800950Y-19871687D01*
X126703104Y-19635465D01*
X126649639Y-19542861D01*
X205879500Y-19542861D01*
X205879500Y-21457137D01*
X205882139Y-21501440D01*
X205882185Y-21503010D01*
X205882365Y-21503804D01*
X205902093Y-21594490D01*
X205925908Y-21703963D01*
X205925909Y-21703965D01*
X205925910Y-21703968D01*
X205926572Y-21705515D01*
X206006760Y-21892771D01*
X206006765Y-21892782D01*
X206058765Y-21969611D01*
X206121889Y-22062876D01*
X206121891Y-22062879D01*
X206211289Y-22152276D01*
X206267125Y-22208112D01*
X206333601Y-22253104D01*
X206437215Y-22323233D01*
X206437219Y-22323235D01*
X206437221Y-22323236D01*
X206437223Y-22323237D01*
X206626035Y-22404091D01*
X206825928Y-22447575D01*
X206826879Y-22447797D01*
X206827105Y-22447816D01*
X206828557Y-22447859D01*
X206846309Y-22448917D01*
X206872864Y-22450500D01*
X208787128Y-22450500D01*
X208787136Y-22450500D01*
X208821262Y-22448466D01*
X208831438Y-22447859D01*
X208832896Y-22447816D01*
X208833252Y-22447786D01*
X208834582Y-22447464D01*
X209033965Y-22404091D01*
X209222777Y-22323237D01*
X209392875Y-22208112D01*
X209538112Y-22062875D01*
X209653237Y-21892777D01*
X209734091Y-21703965D01*
X209777751Y-21503263D01*
X209777752Y-21503249D01*
X209778512Y-21490489D01*
X209780500Y-21457137D01*
X209780500Y-19543745D01*
X209780500Y-19542871D01*
X209780499Y-19542861D01*
X213499500Y-19542861D01*
X213499500Y-21457137D01*
X213502139Y-21501440D01*
X213502185Y-21503010D01*
X213502365Y-21503804D01*
X213522093Y-21594490D01*
X213545908Y-21703963D01*
X213545909Y-21703965D01*
X213545910Y-21703968D01*
X213546572Y-21705515D01*
X213626760Y-21892771D01*
X213626765Y-21892782D01*
X213678765Y-21969611D01*
X213741889Y-22062876D01*
X213741891Y-22062879D01*
X213831289Y-22152276D01*
X213887125Y-22208112D01*
X213953601Y-22253104D01*
X214057215Y-22323233D01*
X214057219Y-22323235D01*
X214057221Y-22323236D01*
X214057223Y-22323237D01*
X214246035Y-22404091D01*
X214445928Y-22447575D01*
X214446879Y-22447797D01*
X214447105Y-22447816D01*
X214448557Y-22447859D01*
X214466309Y-22448917D01*
X214492864Y-22450500D01*
X216407128Y-22450500D01*
X216407136Y-22450500D01*
X216441262Y-22448466D01*
X216451438Y-22447859D01*
X216452896Y-22447816D01*
X216453252Y-22447786D01*
X216454582Y-22447464D01*
X216653965Y-22404091D01*
X216842777Y-22323237D01*
X217012875Y-22208112D01*
X217158112Y-22062875D01*
X217273237Y-21892777D01*
X217354091Y-21703965D01*
X217397751Y-21503263D01*
X217397752Y-21503249D01*
X217398512Y-21490489D01*
X217400500Y-21457137D01*
X217400500Y-19543745D01*
X217400500Y-19542871D01*
X217400499Y-19542861D01*
X219079500Y-19542861D01*
X219079500Y-21457137D01*
X219082139Y-21501440D01*
X219082185Y-21503010D01*
X219082365Y-21503804D01*
X219102093Y-21594490D01*
X219125908Y-21703963D01*
X219125909Y-21703965D01*
X219125910Y-21703968D01*
X219126572Y-21705515D01*
X219206760Y-21892771D01*
X219206765Y-21892782D01*
X219258765Y-21969611D01*
X219321889Y-22062876D01*
X219321891Y-22062879D01*
X219411289Y-22152276D01*
X219467125Y-22208112D01*
X219533601Y-22253104D01*
X219637215Y-22323233D01*
X219637219Y-22323235D01*
X219637221Y-22323236D01*
X219637223Y-22323237D01*
X219826035Y-22404091D01*
X220025928Y-22447575D01*
X220026879Y-22447797D01*
X220027105Y-22447816D01*
X220028557Y-22447859D01*
X220046309Y-22448917D01*
X220072864Y-22450500D01*
X221987128Y-22450500D01*
X221987136Y-22450500D01*
X222021262Y-22448466D01*
X222031438Y-22447859D01*
X222032896Y-22447816D01*
X222033252Y-22447786D01*
X222034582Y-22447464D01*
X222233965Y-22404091D01*
X222422777Y-22323237D01*
X222592875Y-22208112D01*
X222738112Y-22062875D01*
X222853237Y-21892777D01*
X222934091Y-21703965D01*
X222977751Y-21503263D01*
X222977752Y-21503249D01*
X222978512Y-21490489D01*
X222980500Y-21457137D01*
X222980500Y-19542861D01*
X222977860Y-19498557D01*
X222977827Y-19497451D01*
X222977802Y-19497219D01*
X222977757Y-19496767D01*
X222977751Y-19496739D01*
X222977751Y-19496737D01*
X222934091Y-19296035D01*
X222853237Y-19107223D01*
X222853232Y-19107216D01*
X222738113Y-18937127D01*
X222738112Y-18937125D01*
X222675723Y-18874736D01*
X222592879Y-18791891D01*
X222592876Y-18791889D01*
X222592873Y-18791887D01*
X222526398Y-18746895D01*
X222526397Y-18746894D01*
X222422782Y-18676765D01*
X222422778Y-18676763D01*
X222422774Y-18676761D01*
X222422766Y-18676757D01*
X222422754Y-18676752D01*
X222235633Y-18596622D01*
X222234227Y-18595970D01*
X222228432Y-18594602D01*
X222227506Y-18594503D01*
X222033804Y-18552365D01*
X222033010Y-18552185D01*
X222031440Y-18552139D01*
X221987137Y-18549500D01*
X221987128Y-18549500D01*
X221987118Y-18549500D01*
X220072882Y-18549500D01*
X220072872Y-18549500D01*
X220072863Y-18549500D01*
X220028559Y-18552139D01*
X220024902Y-18552248D01*
X220016122Y-18552248D01*
X220009091Y-18556087D01*
X219827635Y-18595560D01*
X219826349Y-18595803D01*
X219826036Y-18595908D01*
X219826034Y-18595909D01*
X219826031Y-18595910D01*
X219732441Y-18635987D01*
X219637227Y-18676760D01*
X219637216Y-18676765D01*
X219467125Y-18791887D01*
X219467122Y-18791889D01*
X219321889Y-18937122D01*
X219321887Y-18937125D01*
X219206765Y-19107216D01*
X219206760Y-19107227D01*
X219125908Y-19296036D01*
X219125803Y-19296350D01*
X219125560Y-19297634D01*
X219100241Y-19414029D01*
X219082247Y-19496745D01*
X219082245Y-19496767D01*
X219079500Y-19542861D01*
X217400499Y-19542861D01*
X217397860Y-19498557D01*
X217397856Y-19498486D01*
X217397857Y-19498481D01*
X217397827Y-19497451D01*
X217397802Y-19497219D01*
X217397757Y-19496767D01*
X217397751Y-19496739D01*
X217397751Y-19496737D01*
X217354091Y-19296035D01*
X217273237Y-19107223D01*
X217273232Y-19107216D01*
X217158113Y-18937127D01*
X217158112Y-18937125D01*
X217095723Y-18874736D01*
X217012879Y-18791891D01*
X217012876Y-18791889D01*
X217012873Y-18791887D01*
X216946398Y-18746895D01*
X216946397Y-18746894D01*
X216842782Y-18676765D01*
X216842778Y-18676763D01*
X216842774Y-18676761D01*
X216842766Y-18676757D01*
X216842754Y-18676752D01*
X216655633Y-18596622D01*
X216654227Y-18595970D01*
X216648432Y-18594602D01*
X216647506Y-18594503D01*
X216453804Y-18552365D01*
X216453010Y-18552185D01*
X216451440Y-18552139D01*
X216407137Y-18549500D01*
X216407128Y-18549500D01*
X216407118Y-18549500D01*
X214492882Y-18549500D01*
X214492872Y-18549500D01*
X214492863Y-18549500D01*
X214448559Y-18552139D01*
X214444902Y-18552248D01*
X214436122Y-18552248D01*
X214429091Y-18556087D01*
X214247635Y-18595560D01*
X214246349Y-18595803D01*
X214246036Y-18595908D01*
X214246034Y-18595909D01*
X214246031Y-18595910D01*
X214152441Y-18635987D01*
X214057227Y-18676760D01*
X214057216Y-18676765D01*
X213887125Y-18791887D01*
X213887122Y-18791889D01*
X213741889Y-18937122D01*
X213741887Y-18937125D01*
X213626765Y-19107216D01*
X213626760Y-19107227D01*
X213545908Y-19296036D01*
X213545803Y-19296350D01*
X213545560Y-19297634D01*
X213520241Y-19414029D01*
X213502247Y-19496745D01*
X213502245Y-19496767D01*
X213499500Y-19542861D01*
X209780499Y-19542861D01*
X209777860Y-19498557D01*
X209777856Y-19498486D01*
X209777857Y-19498481D01*
X209777827Y-19497451D01*
X209777802Y-19497219D01*
X209777757Y-19496767D01*
X209777751Y-19496739D01*
X209777751Y-19496737D01*
X209734091Y-19296035D01*
X209653237Y-19107223D01*
X209653232Y-19107216D01*
X209538113Y-18937127D01*
X209538112Y-18937125D01*
X209475723Y-18874736D01*
X209392879Y-18791891D01*
X209392876Y-18791889D01*
X209392873Y-18791887D01*
X209326398Y-18746895D01*
X209326397Y-18746894D01*
X209222782Y-18676765D01*
X209222778Y-18676763D01*
X209222774Y-18676761D01*
X209222766Y-18676757D01*
X209222754Y-18676752D01*
X209035633Y-18596622D01*
X209034227Y-18595970D01*
X209028432Y-18594602D01*
X209027506Y-18594503D01*
X208833804Y-18552365D01*
X208833010Y-18552185D01*
X208831440Y-18552139D01*
X208787137Y-18549500D01*
X208787128Y-18549500D01*
X208787118Y-18549500D01*
X206872882Y-18549500D01*
X206872872Y-18549500D01*
X206872863Y-18549500D01*
X206828559Y-18552139D01*
X206824902Y-18552248D01*
X206816122Y-18552248D01*
X206809091Y-18556087D01*
X206627635Y-18595560D01*
X206626349Y-18595803D01*
X206626036Y-18595908D01*
X206626034Y-18595909D01*
X206626031Y-18595910D01*
X206532441Y-18635987D01*
X206437227Y-18676760D01*
X206437216Y-18676765D01*
X206267125Y-18791887D01*
X206267122Y-18791889D01*
X206121889Y-18937122D01*
X206121887Y-18937125D01*
X206006765Y-19107216D01*
X206006760Y-19107227D01*
X205925908Y-19296036D01*
X205925803Y-19296350D01*
X205925560Y-19297634D01*
X205900241Y-19414029D01*
X205882247Y-19496745D01*
X205882245Y-19496767D01*
X205879500Y-19542861D01*
X126649639Y-19542861D01*
X126576171Y-19415611D01*
X126575701Y-19414737D01*
X126575259Y-19414031D01*
X126419612Y-19211189D01*
X126238809Y-19030386D01*
X126035969Y-18874741D01*
X126035968Y-18874740D01*
X126035965Y-18874738D01*
X126035962Y-18874736D01*
X125925250Y-18810816D01*
X125925250Y-18810817D01*
X125814535Y-18746896D01*
X125814530Y-18746894D01*
X125645218Y-18676763D01*
X125578313Y-18649050D01*
X125578307Y-18649048D01*
X125578304Y-18649047D01*
X125578298Y-18649045D01*
X125331372Y-18582880D01*
X125331343Y-18582874D01*
X125331326Y-18582871D01*
X125077851Y-18549500D01*
X125077846Y-18549500D01*
X125077843Y-18549500D01*
X124822157Y-18549500D01*
X124822153Y-18549500D01*
X124822147Y-18549500D01*
X124568672Y-18582871D01*
X124568655Y-18582874D01*
X124568626Y-18582880D01*
X124321700Y-18649045D01*
X124321683Y-18649051D01*
X124085468Y-18746894D01*
X123864029Y-18874741D01*
X123864030Y-18874741D01*
X123661189Y-19030386D01*
X123480386Y-19211189D01*
X123327195Y-19410830D01*
X123327194Y-19410832D01*
X123324741Y-19414030D01*
X123324740Y-19414031D01*
X123250361Y-19542861D01*
X123196894Y-19635468D01*
X123099051Y-19871683D01*
X123099045Y-19871700D01*
X123032880Y-20118626D01*
X123032874Y-20118655D01*
X123032871Y-20118672D01*
X122999500Y-20372147D01*
X119100498Y-20372147D01*
X119093237Y-20316995D01*
X119067126Y-20118660D01*
X119000950Y-19871687D01*
X118903104Y-19635465D01*
X118776179Y-19415625D01*
X118775504Y-19414371D01*
X118773643Y-19411788D01*
X118772801Y-19410828D01*
X118619612Y-19211189D01*
X118438809Y-19030386D01*
X118235969Y-18874741D01*
X118235968Y-18874740D01*
X118235965Y-18874738D01*
X118235962Y-18874736D01*
X118125250Y-18810816D01*
X118125250Y-18810817D01*
X118014535Y-18746896D01*
X118014530Y-18746894D01*
X117845218Y-18676763D01*
X117778313Y-18649050D01*
X117778307Y-18649048D01*
X117778304Y-18649047D01*
X117778298Y-18649045D01*
X117531372Y-18582880D01*
X117531343Y-18582874D01*
X117531326Y-18582871D01*
X117277851Y-18549500D01*
X117277846Y-18549500D01*
X117277843Y-18549500D01*
X117022157Y-18549500D01*
X117022153Y-18549500D01*
X117022147Y-18549500D01*
X116768672Y-18582871D01*
X116768655Y-18582874D01*
X116768626Y-18582880D01*
X116521700Y-18649045D01*
X116521683Y-18649051D01*
X116285468Y-18746894D01*
X116064029Y-18874741D01*
X116064030Y-18874741D01*
X115861189Y-19030386D01*
X115680386Y-19211189D01*
X115527195Y-19410830D01*
X115527194Y-19410832D01*
X115524741Y-19414030D01*
X115524740Y-19414031D01*
X115450361Y-19542861D01*
X115396894Y-19635468D01*
X115299051Y-19871683D01*
X115299045Y-19871700D01*
X115232880Y-20118626D01*
X115232874Y-20118655D01*
X115232871Y-20118672D01*
X115199500Y-20372147D01*
X111100500Y-20372147D01*
X111100500Y-16224234D01*
X111105181Y-16200701D01*
X111108764Y-16192050D01*
X111142045Y-16158765D01*
X111142047Y-16158764D01*
X111142050Y-16158764D01*
X111150701Y-16155181D01*
X111174234Y-16150500D01*
X230625766Y-16150500D01*
X230649301Y-16155182D01*
G37*
%TD.AperFunction*%
%TA.AperFunction,Conductor*%
G36*
X230659007Y-60135378D02*
G01*
X230692284Y-60168657D01*
X230694818Y-60174774D01*
X230699500Y-60198311D01*
X230699500Y-68725765D01*
X230694817Y-68749304D01*
X230691233Y-68757955D01*
X230657957Y-68791232D01*
X230649307Y-68794816D01*
X230625766Y-68799500D01*
X183860623Y-68799500D01*
X183817136Y-68781487D01*
X183799123Y-68738000D01*
X183812410Y-68699820D01*
X183818411Y-68692242D01*
X183850707Y-68671018D01*
X183855255Y-68669800D01*
X183855255Y-68669799D01*
X183855258Y-68669799D01*
X183855262Y-68669796D01*
X183860460Y-68668404D01*
X183865823Y-68663699D01*
X183867389Y-68662795D01*
X183882229Y-68656645D01*
X183897349Y-68652594D01*
X183913262Y-68650500D01*
X205127935Y-68650500D01*
X205127939Y-68650500D01*
X205142998Y-68646464D01*
X205218302Y-68626286D01*
X205218303Y-68626286D01*
X205226360Y-68624126D01*
X205226375Y-68624128D01*
X205226374Y-68624123D01*
X205242517Y-68619799D01*
X205345236Y-68560493D01*
X205345235Y-68560493D01*
X205345243Y-68560489D01*
X206029118Y-67876614D01*
X206048508Y-67843026D01*
X206052968Y-67836352D01*
X206057839Y-67830004D01*
X206063129Y-67823972D01*
X206109946Y-67777157D01*
X206129890Y-67763832D01*
X206150780Y-67755179D01*
X206174312Y-67750500D01*
X214707060Y-67750500D01*
X214730594Y-67755181D01*
X214751478Y-67763831D01*
X214771431Y-67777163D01*
X215254757Y-68260489D01*
X215254760Y-68260491D01*
X215254763Y-68260493D01*
X215350473Y-68315751D01*
X215350481Y-68315757D01*
X215357481Y-68319798D01*
X215357483Y-68319798D01*
X215357484Y-68319799D01*
X215357485Y-68319800D01*
X215373233Y-68324017D01*
X215373237Y-68324020D01*
X215373238Y-68324019D01*
X215373645Y-68324128D01*
X215381697Y-68326286D01*
X215453989Y-68345657D01*
X215472061Y-68350500D01*
X215472062Y-68350500D01*
X222259306Y-68350500D01*
X222259310Y-68350500D01*
X222274369Y-68346464D01*
X222349673Y-68326286D01*
X222349674Y-68326286D01*
X222357731Y-68324126D01*
X222357746Y-68324128D01*
X222357745Y-68324123D01*
X222373888Y-68319799D01*
X222476607Y-68260493D01*
X222476606Y-68260493D01*
X222476614Y-68260489D01*
X225655243Y-65081857D01*
X225675188Y-65068530D01*
X225681307Y-65065995D01*
X225728376Y-65065995D01*
X225761369Y-65098588D01*
X225761393Y-65098644D01*
X225762593Y-65142938D01*
X225762762Y-65142991D01*
X225762873Y-65143021D01*
X225762871Y-65143025D01*
X225762916Y-65143039D01*
X225762812Y-65143371D01*
X225762844Y-65143383D01*
X225762561Y-65144182D01*
X225704024Y-65362641D01*
X225704025Y-65362641D01*
X225704024Y-65362651D01*
X225674500Y-65586894D01*
X225674500Y-65586899D01*
X225674500Y-65813100D01*
X225704023Y-66037347D01*
X225704024Y-66037348D01*
X225704025Y-66037355D01*
X225704030Y-66037376D01*
X225750419Y-66210500D01*
X225762565Y-66255829D01*
X225762566Y-66255833D01*
X225762567Y-66255834D01*
X225849126Y-66464806D01*
X225849127Y-66464807D01*
X225883198Y-66523822D01*
X225883199Y-66523822D01*
X225956999Y-66651650D01*
X225962221Y-66660694D01*
X225962223Y-66660697D01*
X226099913Y-66840138D01*
X226259860Y-67000085D01*
X226349037Y-67068513D01*
X226439302Y-67137776D01*
X226439303Y-67137777D01*
X226439306Y-67137778D01*
X226439309Y-67137781D01*
X226469977Y-67155487D01*
X226469978Y-67155487D01*
X226635194Y-67250874D01*
X226844166Y-67337433D01*
X227062649Y-67395976D01*
X227286905Y-67425500D01*
X227286908Y-67425500D01*
X227513092Y-67425500D01*
X227513095Y-67425500D01*
X227737351Y-67395976D01*
X227955834Y-67337433D01*
X228164806Y-67250874D01*
X228360693Y-67137779D01*
X228540142Y-67000083D01*
X228700083Y-66840142D01*
X228837779Y-66660693D01*
X228950874Y-66464806D01*
X229037433Y-66255834D01*
X229095976Y-66037351D01*
X229125500Y-65813095D01*
X229125500Y-65586905D01*
X229095976Y-65362649D01*
X229095606Y-65361270D01*
X229046841Y-65179277D01*
X229037433Y-65144166D01*
X228950874Y-64935194D01*
X228838697Y-64740897D01*
X228838022Y-64739643D01*
X228836161Y-64737060D01*
X228835319Y-64736100D01*
X228700085Y-64559860D01*
X228540138Y-64399913D01*
X228363894Y-64264676D01*
X228360697Y-64262223D01*
X228360696Y-64262222D01*
X228234947Y-64189622D01*
X228164806Y-64149126D01*
X228164801Y-64149124D01*
X228018200Y-64088400D01*
X227955834Y-64062567D01*
X227955828Y-64062565D01*
X227955825Y-64062564D01*
X227955819Y-64062562D01*
X227737376Y-64004030D01*
X227737361Y-64004026D01*
X227737352Y-64004024D01*
X227737347Y-64004023D01*
X227647648Y-63992213D01*
X227513103Y-63974500D01*
X227513100Y-63974500D01*
X227513095Y-63974500D01*
X227286905Y-63974500D01*
X227286899Y-63974500D01*
X227286895Y-63974500D01*
X227107501Y-63998118D01*
X227062652Y-64004023D01*
X227062647Y-64004024D01*
X227062644Y-64004024D01*
X227062643Y-64004025D01*
X227062614Y-64004031D01*
X226845904Y-64062099D01*
X226829987Y-64064195D01*
X226821380Y-64064195D01*
X226777893Y-64046182D01*
X226759880Y-64002696D01*
X226759880Y-64002693D01*
X226777892Y-63959209D01*
X227428939Y-63308163D01*
X228366238Y-62370865D01*
X228425548Y-62268138D01*
X228456248Y-62153560D01*
X228456248Y-62034942D01*
X228425548Y-61920364D01*
X228394345Y-61866319D01*
X228394344Y-61866315D01*
X228366338Y-61817810D01*
X228366242Y-61817643D01*
X228366238Y-61817636D01*
X228276124Y-61727522D01*
X228202163Y-61653561D01*
X228188831Y-61633607D01*
X228180181Y-61612722D01*
X228175500Y-61589189D01*
X228175500Y-61250808D01*
X228180181Y-61227275D01*
X228188831Y-61206390D01*
X228202160Y-61186439D01*
X228441439Y-60947161D01*
X228461391Y-60933831D01*
X228482276Y-60925181D01*
X228505809Y-60920500D01*
X229689306Y-60920500D01*
X229689310Y-60920500D01*
X229704369Y-60916464D01*
X229779673Y-60896286D01*
X229779674Y-60896286D01*
X229787731Y-60894126D01*
X229787746Y-60894128D01*
X229787745Y-60894123D01*
X229803888Y-60889799D01*
X229906607Y-60830493D01*
X229906606Y-60830493D01*
X229906614Y-60830489D01*
X230585865Y-60151237D01*
X230605818Y-60137907D01*
X230609554Y-60136359D01*
X230611937Y-60135373D01*
X230659007Y-60135378D01*
G37*
%TD.AperFunction*%
%TA.AperFunction,Conductor*%
G36*
X220219766Y-40154508D02*
G01*
X220222246Y-40155940D01*
X220234980Y-40165712D01*
X227804333Y-47735065D01*
X227817664Y-47755017D01*
X227826315Y-47775902D01*
X227830997Y-47799437D01*
X227830997Y-50302307D01*
X227845961Y-50358150D01*
X227847006Y-50362049D01*
X227847006Y-50362051D01*
X227861695Y-50416874D01*
X227861700Y-50416886D01*
X227874232Y-50438592D01*
X227916894Y-50512485D01*
X227921003Y-50519601D01*
X227921006Y-50519605D01*
X227921008Y-50519608D01*
X227921011Y-50519611D01*
X227921012Y-50519612D01*
X229972836Y-52571436D01*
X229986167Y-52591388D01*
X229994818Y-52612273D01*
X229999500Y-52635808D01*
X229999500Y-59425688D01*
X229994818Y-59449223D01*
X229986167Y-59470108D01*
X229972836Y-59490060D01*
X229470060Y-59992836D01*
X229450109Y-60006167D01*
X229429225Y-60014818D01*
X229405689Y-60019500D01*
X228222184Y-60019500D01*
X228153115Y-60038008D01*
X228153078Y-60038018D01*
X228110944Y-60049308D01*
X228110943Y-60049307D01*
X228109493Y-60049696D01*
X228109275Y-60049755D01*
X228108298Y-60050016D01*
X228108095Y-60050071D01*
X228107639Y-60050188D01*
X228107614Y-60050198D01*
X228004879Y-60109512D01*
X227364513Y-60749879D01*
X227364513Y-60749880D01*
X227364506Y-60749887D01*
X227364504Y-60749890D01*
X227305201Y-60852605D01*
X227305199Y-60852610D01*
X227300412Y-60870482D01*
X227300403Y-60870516D01*
X227274500Y-60967182D01*
X227274500Y-61872816D01*
X227304686Y-61985468D01*
X227305588Y-61989325D01*
X227306013Y-61991450D01*
X227310807Y-61997098D01*
X227319689Y-62012484D01*
X227337824Y-62043893D01*
X227345538Y-62066618D01*
X227347360Y-62080460D01*
X227339645Y-62119239D01*
X227338213Y-62121719D01*
X227328441Y-62134453D01*
X222040060Y-67422836D01*
X222020109Y-67436167D01*
X221999225Y-67444818D01*
X221975689Y-67449500D01*
X215755682Y-67449500D01*
X215732147Y-67444818D01*
X215711262Y-67436167D01*
X215691310Y-67422836D01*
X215432611Y-67164137D01*
X215419277Y-67144179D01*
X215416744Y-67138062D01*
X215416749Y-67090992D01*
X215450035Y-67057712D01*
X215452655Y-67056627D01*
X215456153Y-67055179D01*
X215479682Y-67050500D01*
X218659306Y-67050500D01*
X218659310Y-67050500D01*
X218674369Y-67046464D01*
X218749673Y-67026286D01*
X218749674Y-67026286D01*
X218757731Y-67024126D01*
X218757746Y-67024128D01*
X218757745Y-67024123D01*
X218773888Y-67019799D01*
X218876607Y-66960493D01*
X218876606Y-66960493D01*
X218876614Y-66960489D01*
X222760490Y-63076613D01*
X222819799Y-62973886D01*
X222833196Y-62923887D01*
X222833196Y-62923886D01*
X222850500Y-62859311D01*
X222850500Y-60046644D01*
X224943784Y-60046644D01*
X224975196Y-60163874D01*
X224975200Y-60163885D01*
X224975201Y-60163887D01*
X224975205Y-60163896D01*
X225022828Y-60246380D01*
X225034506Y-60266606D01*
X225034509Y-60266610D01*
X225034511Y-60266613D01*
X225118387Y-60350489D01*
X225118390Y-60350491D01*
X225118393Y-60350493D01*
X225118402Y-60350498D01*
X225118406Y-60350501D01*
X225221104Y-60409794D01*
X225221106Y-60409795D01*
X225221108Y-60409796D01*
X225221110Y-60409797D01*
X225221114Y-60409799D01*
X225221118Y-60409800D01*
X225221155Y-60409814D01*
X225221648Y-60409942D01*
X225335687Y-60440500D01*
X225454310Y-60440500D01*
X225454311Y-60440500D01*
X225464413Y-60437792D01*
X225504826Y-60426963D01*
X225504827Y-60426963D01*
X225533072Y-60419394D01*
X225568886Y-60409799D01*
X225671613Y-60350489D01*
X225755489Y-60266613D01*
X225814799Y-60163886D01*
X225821064Y-60140505D01*
X225845257Y-60050217D01*
X225845263Y-60050193D01*
X225845378Y-60049765D01*
X225845500Y-60049310D01*
X225845500Y-59930688D01*
X225845500Y-59930685D01*
X225814942Y-59816648D01*
X225814814Y-59816155D01*
X225814800Y-59816118D01*
X225814799Y-59816114D01*
X225814796Y-59816108D01*
X225814794Y-59816104D01*
X225755501Y-59713406D01*
X225755494Y-59713395D01*
X225755493Y-59713393D01*
X225755491Y-59713390D01*
X225755489Y-59713387D01*
X225671613Y-59629511D01*
X225671610Y-59629509D01*
X225671606Y-59629506D01*
X225671605Y-59629505D01*
X225568896Y-59570205D01*
X225568890Y-59570202D01*
X225568879Y-59570198D01*
X225568873Y-59570196D01*
X225454314Y-59539500D01*
X225454311Y-59539500D01*
X225454309Y-59539500D01*
X225335691Y-59539500D01*
X225335689Y-59539500D01*
X225335686Y-59539500D01*
X225221125Y-59570196D01*
X225221110Y-59570201D01*
X225118391Y-59629507D01*
X225118384Y-59629513D01*
X225034513Y-59713384D01*
X225034507Y-59713391D01*
X224975203Y-59816108D01*
X224975202Y-59816108D01*
X224975198Y-59816119D01*
X224975196Y-59816125D01*
X224944500Y-59930684D01*
X224944500Y-60041208D01*
X224943784Y-60046644D01*
X222850500Y-60046644D01*
X222850500Y-54150684D01*
X224944500Y-54150684D01*
X224944500Y-54269314D01*
X224975196Y-54383873D01*
X224975198Y-54383879D01*
X224975202Y-54383890D01*
X224975205Y-54383896D01*
X225034505Y-54486605D01*
X225034506Y-54486606D01*
X225034509Y-54486610D01*
X225034511Y-54486613D01*
X225118387Y-54570489D01*
X225118390Y-54570491D01*
X225118393Y-54570493D01*
X225118402Y-54570498D01*
X225118406Y-54570501D01*
X225221104Y-54629794D01*
X225221106Y-54629795D01*
X225221108Y-54629796D01*
X225221110Y-54629797D01*
X225221114Y-54629799D01*
X225221118Y-54629800D01*
X225221155Y-54629814D01*
X225221648Y-54629942D01*
X225335687Y-54660500D01*
X225454310Y-54660500D01*
X225454311Y-54660500D01*
X225464413Y-54657792D01*
X225504826Y-54646963D01*
X225504827Y-54646963D01*
X225533072Y-54639394D01*
X225568886Y-54629799D01*
X225671613Y-54570489D01*
X225755489Y-54486613D01*
X225814799Y-54383886D01*
X225837351Y-54299721D01*
X225845500Y-54269311D01*
X225845500Y-54150688D01*
X225845500Y-54150685D01*
X225814942Y-54036648D01*
X225814814Y-54036155D01*
X225814800Y-54036118D01*
X225814799Y-54036114D01*
X225814796Y-54036108D01*
X225799854Y-54010228D01*
X225755501Y-53933406D01*
X225755494Y-53933395D01*
X225755493Y-53933393D01*
X225755491Y-53933390D01*
X225755489Y-53933387D01*
X225671613Y-53849511D01*
X225671610Y-53849509D01*
X225671606Y-53849506D01*
X225671605Y-53849505D01*
X225568896Y-53790205D01*
X225568890Y-53790202D01*
X225568879Y-53790198D01*
X225568873Y-53790196D01*
X225454314Y-53759500D01*
X225454311Y-53759500D01*
X225454309Y-53759500D01*
X225335691Y-53759500D01*
X225335689Y-53759500D01*
X225335686Y-53759500D01*
X225221125Y-53790196D01*
X225221110Y-53790201D01*
X225118391Y-53849507D01*
X225118384Y-53849513D01*
X225034513Y-53933384D01*
X225034507Y-53933391D01*
X224975201Y-54036110D01*
X224975196Y-54036125D01*
X224944500Y-54150684D01*
X222850500Y-54150684D01*
X222850500Y-52155682D01*
X222855181Y-52132149D01*
X222863831Y-52111264D01*
X222877160Y-52091313D01*
X223952083Y-51016391D01*
X225060489Y-49907985D01*
X225119799Y-49805258D01*
X225138547Y-49735288D01*
X225150500Y-49690680D01*
X225150500Y-49621693D01*
X225155181Y-49598160D01*
X225158764Y-49589509D01*
X225192008Y-49556240D01*
X225192107Y-49556199D01*
X225192674Y-49555963D01*
X225232175Y-49553365D01*
X225234946Y-49554108D01*
X225249759Y-49560245D01*
X225284005Y-49580018D01*
X225284007Y-49580019D01*
X225284011Y-49580021D01*
X225284016Y-49580022D01*
X225284051Y-49580035D01*
X225284506Y-49580153D01*
X225319419Y-49589509D01*
X225360435Y-49600500D01*
X225360436Y-49600500D01*
X225360438Y-49600500D01*
X225378815Y-49600500D01*
X225394731Y-49602595D01*
X225409843Y-49606644D01*
X225424676Y-49612788D01*
X225425015Y-49612984D01*
X225425019Y-49612985D01*
X225425041Y-49612994D01*
X225425453Y-49613101D01*
X225486156Y-49629367D01*
X225565021Y-49650500D01*
X225709976Y-49650500D01*
X225709977Y-49650500D01*
X225729433Y-49645286D01*
X225771706Y-49633958D01*
X225771707Y-49633958D01*
X225849978Y-49612986D01*
X225849978Y-49612985D01*
X225849985Y-49612984D01*
X225975515Y-49540509D01*
X226078009Y-49438015D01*
X226150484Y-49312485D01*
X226170438Y-49238018D01*
X226188000Y-49172479D01*
X226188000Y-49027519D01*
X226157347Y-48913126D01*
X226150619Y-48888019D01*
X226150495Y-48887542D01*
X226150486Y-48887519D01*
X226134304Y-48859491D01*
X226078009Y-48761985D01*
X225975515Y-48659491D01*
X225972541Y-48657169D01*
X225973088Y-48656468D01*
X225961410Y-48646018D01*
X225950707Y-48632068D01*
X225938000Y-48594632D01*
X225938000Y-47309909D01*
X225942681Y-47286374D01*
X225946060Y-47278216D01*
X225949341Y-47270294D01*
X225972783Y-47243567D01*
X225972319Y-47242962D01*
X225975362Y-47240626D01*
X225975416Y-47240566D01*
X225975515Y-47240509D01*
X226078009Y-47138015D01*
X226150484Y-47012485D01*
X226157049Y-46987984D01*
X226169771Y-46940506D01*
X226169771Y-46940504D01*
X226174260Y-46923754D01*
X226188000Y-46872477D01*
X226188000Y-46727522D01*
X226188000Y-46727519D01*
X226150626Y-46588046D01*
X226150495Y-46587542D01*
X226150486Y-46587519D01*
X226150484Y-46587515D01*
X226078009Y-46461985D01*
X225975515Y-46359491D01*
X225975512Y-46359489D01*
X225975508Y-46359486D01*
X225849982Y-46287013D01*
X225709980Y-46249500D01*
X225709977Y-46249500D01*
X225709975Y-46249500D01*
X225565025Y-46249500D01*
X225565023Y-46249500D01*
X225565020Y-46249500D01*
X225425026Y-46287010D01*
X225425022Y-46287012D01*
X225299481Y-46359493D01*
X225196997Y-46461978D01*
X225196991Y-46461984D01*
X225195877Y-46463470D01*
X225195771Y-46463390D01*
X225195567Y-46463627D01*
X225195362Y-46463450D01*
X225183756Y-46475908D01*
X225169577Y-46486789D01*
X225132136Y-46499500D01*
X224285435Y-46499500D01*
X224247226Y-46509737D01*
X224209017Y-46519975D01*
X224208994Y-46519987D01*
X224140491Y-46559537D01*
X224140488Y-46559539D01*
X224140481Y-46559545D01*
X224048075Y-46651951D01*
X224028125Y-46665282D01*
X224012043Y-46671944D01*
X223976568Y-46674271D01*
X223976469Y-46675026D01*
X223972676Y-46674526D01*
X223972595Y-46674532D01*
X223972477Y-46674500D01*
X223972476Y-46674500D01*
X223972475Y-46674500D01*
X223827525Y-46674500D01*
X223827523Y-46674500D01*
X223827520Y-46674500D01*
X223687526Y-46712010D01*
X223687522Y-46712012D01*
X223687519Y-46712014D01*
X223687515Y-46712016D01*
X223590633Y-46767951D01*
X223561981Y-46784493D01*
X223459493Y-46886981D01*
X223459492Y-46886983D01*
X223459490Y-46886986D01*
X223401179Y-46987984D01*
X223387012Y-47012522D01*
X223387010Y-47012527D01*
X223349500Y-47152518D01*
X223349500Y-47297480D01*
X223387013Y-47437482D01*
X223459486Y-47563008D01*
X223459489Y-47563012D01*
X223459491Y-47563015D01*
X223459494Y-47563018D01*
X223561980Y-47665505D01*
X223564720Y-47667607D01*
X223576071Y-47678956D01*
X223586791Y-47692926D01*
X223599500Y-47730364D01*
X223599500Y-48265089D01*
X223594818Y-48288625D01*
X223588157Y-48304705D01*
X223563460Y-48332875D01*
X223563627Y-48333067D01*
X223563392Y-48333270D01*
X223563408Y-48333295D01*
X223563470Y-48333377D01*
X223563465Y-48333380D01*
X223563526Y-48333473D01*
X223562126Y-48334396D01*
X223562108Y-48334418D01*
X223562000Y-48334480D01*
X223561992Y-48334485D01*
X223561984Y-48334491D01*
X223561978Y-48334497D01*
X223459493Y-48436981D01*
X223459490Y-48436985D01*
X223459490Y-48436986D01*
X223414985Y-48514071D01*
X223387012Y-48562522D01*
X223387010Y-48562527D01*
X223349500Y-48702518D01*
X223349500Y-48847480D01*
X223387013Y-48987482D01*
X223459486Y-49113008D01*
X223459489Y-49113012D01*
X223459491Y-49113015D01*
X223561985Y-49215509D01*
X223687515Y-49287984D01*
X223687519Y-49287986D01*
X223687542Y-49287995D01*
X223688019Y-49288119D01*
X223715587Y-49295506D01*
X223827521Y-49325500D01*
X223972476Y-49325500D01*
X223972477Y-49325500D01*
X224062211Y-49301455D01*
X224062212Y-49301455D01*
X224112478Y-49287986D01*
X224112478Y-49287985D01*
X224112485Y-49287984D01*
X224146657Y-49268254D01*
X224169372Y-49260543D01*
X224171743Y-49260230D01*
X224178655Y-49259320D01*
X224224119Y-49271496D01*
X224224690Y-49271934D01*
X224246661Y-49304806D01*
X224247402Y-49307570D01*
X224249500Y-49323495D01*
X224249500Y-49407059D01*
X224244818Y-49430594D01*
X224236167Y-49451479D01*
X224222836Y-49471431D01*
X222039513Y-51654754D01*
X222039505Y-51654763D01*
X222039502Y-51654767D01*
X221980205Y-51757472D01*
X221980201Y-51757481D01*
X221974896Y-51777280D01*
X221974895Y-51777285D01*
X221949500Y-51872056D01*
X221949500Y-62575688D01*
X221944818Y-62599223D01*
X221936167Y-62620108D01*
X221922836Y-62640060D01*
X221647110Y-62915785D01*
X221627152Y-62929119D01*
X221621035Y-62931652D01*
X221573965Y-62931647D01*
X221540687Y-62898365D01*
X221540144Y-62897054D01*
X221537559Y-62857603D01*
X221550500Y-62809311D01*
X221550500Y-43140688D01*
X221550500Y-43140686D01*
X221522036Y-43034465D01*
X221522014Y-43034380D01*
X221519800Y-43026115D01*
X221519799Y-43026113D01*
X221460490Y-42923386D01*
X219126238Y-40589135D01*
X219112908Y-40569185D01*
X219110375Y-40563070D01*
X219110374Y-40516000D01*
X219143657Y-40482716D01*
X219143659Y-40482715D01*
X219149777Y-40480181D01*
X219173311Y-40475500D01*
X219254712Y-40475500D01*
X219270627Y-40477595D01*
X219285737Y-40481643D01*
X219300569Y-40487786D01*
X219387515Y-40537984D01*
X219387519Y-40537986D01*
X219387542Y-40537995D01*
X219388019Y-40538119D01*
X219427733Y-40548760D01*
X219527521Y-40575500D01*
X219672476Y-40575500D01*
X219672477Y-40575500D01*
X219684822Y-40572191D01*
X219734206Y-40558958D01*
X219734207Y-40558958D01*
X219812478Y-40537986D01*
X219812478Y-40537985D01*
X219812485Y-40537984D01*
X219938015Y-40465509D01*
X220040509Y-40363015D01*
X220112984Y-40237485D01*
X220123198Y-40199365D01*
X220133808Y-40177851D01*
X220139512Y-40170417D01*
X220180262Y-40146889D01*
X220180498Y-40146857D01*
X220180975Y-40146795D01*
X220219766Y-40154508D01*
G37*
%TD.AperFunction*%
%TD*%
M02*
