ISO-10303-21;
HEADER;
/* Generated by software containing ST-Developer
 * from STEP Tools, Inc. (www.steptools.com) 
 */

FILE_DESCRIPTION(
/* description */ (''),
/* implementation_level */ '2;1');

FILE_NAME(
/* name */ 'bottom_case_geiger_mobile.step',
/* time_stamp */ '2026-09-18T08:57:24+02:00',
/* author */ (''),
/* organization */ (''),
/* preprocessor_version */ 'ST-DEVELOPER v20.2',
/* originating_system */ 'Autodesk Translation Framework v15.15.0.0',
/* authorisation */ '');

FILE_SCHEMA (('AUTOMOTIVE_DESIGN { 1 0 10303 214 3 1 1 }'));
ENDSEC;

DATA;
#10=MECHANICAL_DESIGN_GEOMETRIC_PRESENTATION_REPRESENTATION('',(#13),#2060);
#11=SHAPE_REPRESENTATION_RELATIONSHIP('SRR','None',#2067,#12);
#12=ADVANCED_BREP_SHAPE_REPRESENTATION('',(#14),#2059);
#13=STYLED_ITEM('',(#2076),#14);
#14=MANIFOLD_SOLID_BREP('Body1',#1202);
#15=FACE_BOUND('',#163,.T.);
#16=FACE_BOUND('',#165,.T.);
#17=FACE_BOUND('',#166,.T.);
#18=FACE_BOUND('',#167,.T.);
#19=FACE_BOUND('',#168,.T.);
#20=FACE_BOUND('',#169,.T.);
#21=FACE_BOUND('',#181,.T.);
#22=FACE_BOUND('',#187,.T.);
#23=FACE_BOUND('',#189,.T.);
#24=FACE_BOUND('',#195,.T.);
#25=FACE_BOUND('',#201,.T.);
#26=SPHERICAL_SURFACE('',#1233,8.);
#27=SPHERICAL_SURFACE('',#1239,8.);
#28=SPHERICAL_SURFACE('',#1274,8.);
#29=SPHERICAL_SURFACE('',#1282,8.);
#30=CYLINDRICAL_SURFACE('',#1223,2.);
#31=CYLINDRICAL_SURFACE('',#1226,2.);
#32=CYLINDRICAL_SURFACE('',#1237,8.);
#33=CYLINDRICAL_SURFACE('',#1243,2.);
#34=CYLINDRICAL_SURFACE('',#1247,2.);
#35=CYLINDRICAL_SURFACE('',#1251,2.);
#36=CYLINDRICAL_SURFACE('',#1255,2.);
#37=CYLINDRICAL_SURFACE('',#1258,2.);
#38=CYLINDRICAL_SURFACE('',#1262,2.);
#39=CYLINDRICAL_SURFACE('',#1266,2.);
#40=CYLINDRICAL_SURFACE('',#1270,2.);
#41=CYLINDRICAL_SURFACE('',#1278,8.);
#42=CYLINDRICAL_SURFACE('',#1280,8.);
#43=CYLINDRICAL_SURFACE('',#1286,8.);
#44=CYLINDRICAL_SURFACE('',#1288,8.);
#45=CYLINDRICAL_SURFACE('',#1289,8.);
#46=CYLINDRICAL_SURFACE('',#1291,8.);
#47=CYLINDRICAL_SURFACE('',#1292,8.);
#48=CYLINDRICAL_SURFACE('',#1310,1.99999999999999);
#49=CYLINDRICAL_SURFACE('',#1314,2.5);
#50=CYLINDRICAL_SURFACE('',#1317,2.);
#51=CYLINDRICAL_SURFACE('',#1321,2.5);
#52=CYLINDRICAL_SURFACE('',#1325,2.);
#53=CYLINDRICAL_SURFACE('',#1329,2.5);
#54=CYLINDRICAL_SURFACE('',#1332,2.);
#55=CYLINDRICAL_SURFACE('',#1336,2.5);
#56=FACE_OUTER_BOUND('',#126,.T.);
#57=FACE_OUTER_BOUND('',#127,.T.);
#58=FACE_OUTER_BOUND('',#128,.T.);
#59=FACE_OUTER_BOUND('',#129,.T.);
#60=FACE_OUTER_BOUND('',#130,.T.);
#61=FACE_OUTER_BOUND('',#131,.T.);
#62=FACE_OUTER_BOUND('',#132,.T.);
#63=FACE_OUTER_BOUND('',#133,.T.);
#64=FACE_OUTER_BOUND('',#134,.T.);
#65=FACE_OUTER_BOUND('',#135,.T.);
#66=FACE_OUTER_BOUND('',#136,.T.);
#67=FACE_OUTER_BOUND('',#137,.T.);
#68=FACE_OUTER_BOUND('',#138,.T.);
#69=FACE_OUTER_BOUND('',#139,.T.);
#70=FACE_OUTER_BOUND('',#140,.T.);
#71=FACE_OUTER_BOUND('',#141,.T.);
#72=FACE_OUTER_BOUND('',#142,.T.);
#73=FACE_OUTER_BOUND('',#143,.T.);
#74=FACE_OUTER_BOUND('',#144,.T.);
#75=FACE_OUTER_BOUND('',#145,.T.);
#76=FACE_OUTER_BOUND('',#146,.T.);
#77=FACE_OUTER_BOUND('',#147,.T.);
#78=FACE_OUTER_BOUND('',#148,.T.);
#79=FACE_OUTER_BOUND('',#149,.T.);
#80=FACE_OUTER_BOUND('',#150,.T.);
#81=FACE_OUTER_BOUND('',#151,.T.);
#82=FACE_OUTER_BOUND('',#152,.T.);
#83=FACE_OUTER_BOUND('',#153,.T.);
#84=FACE_OUTER_BOUND('',#154,.T.);
#85=FACE_OUTER_BOUND('',#155,.T.);
#86=FACE_OUTER_BOUND('',#156,.T.);
#87=FACE_OUTER_BOUND('',#157,.T.);
#88=FACE_OUTER_BOUND('',#158,.T.);
#89=FACE_OUTER_BOUND('',#159,.T.);
#90=FACE_OUTER_BOUND('',#160,.T.);
#91=FACE_OUTER_BOUND('',#161,.T.);
#92=FACE_OUTER_BOUND('',#162,.T.);
#93=FACE_OUTER_BOUND('',#164,.T.);
#94=FACE_OUTER_BOUND('',#170,.T.);
#95=FACE_OUTER_BOUND('',#171,.T.);
#96=FACE_OUTER_BOUND('',#172,.T.);
#97=FACE_OUTER_BOUND('',#173,.T.);
#98=FACE_OUTER_BOUND('',#174,.T.);
#99=FACE_OUTER_BOUND('',#175,.T.);
#100=FACE_OUTER_BOUND('',#176,.T.);
#101=FACE_OUTER_BOUND('',#177,.T.);
#102=FACE_OUTER_BOUND('',#178,.T.);
#103=FACE_OUTER_BOUND('',#179,.T.);
#104=FACE_OUTER_BOUND('',#180,.T.);
#105=FACE_OUTER_BOUND('',#182,.T.);
#106=FACE_OUTER_BOUND('',#183,.T.);
#107=FACE_OUTER_BOUND('',#184,.T.);
#108=FACE_OUTER_BOUND('',#185,.T.);
#109=FACE_OUTER_BOUND('',#186,.T.);
#110=FACE_OUTER_BOUND('',#188,.T.);
#111=FACE_OUTER_BOUND('',#190,.T.);
#112=FACE_OUTER_BOUND('',#191,.T.);
#113=FACE_OUTER_BOUND('',#192,.T.);
#114=FACE_OUTER_BOUND('',#193,.T.);
#115=FACE_OUTER_BOUND('',#194,.T.);
#116=FACE_OUTER_BOUND('',#196,.T.);
#117=FACE_OUTER_BOUND('',#197,.T.);
#118=FACE_OUTER_BOUND('',#198,.T.);
#119=FACE_OUTER_BOUND('',#199,.T.);
#120=FACE_OUTER_BOUND('',#200,.T.);
#121=FACE_OUTER_BOUND('',#202,.T.);
#122=FACE_OUTER_BOUND('',#203,.T.);
#123=FACE_OUTER_BOUND('',#204,.T.);
#124=FACE_OUTER_BOUND('',#205,.T.);
#125=FACE_OUTER_BOUND('',#206,.T.);
#126=EDGE_LOOP('',(#758,#759,#760,#761,#762));
#127=EDGE_LOOP('',(#763,#764,#765,#766,#767,#768,#769,#770));
#128=EDGE_LOOP('',(#771,#772,#773,#774));
#129=EDGE_LOOP('',(#775,#776,#777,#778));
#130=EDGE_LOOP('',(#779,#780,#781,#782));
#131=EDGE_LOOP('',(#783,#784,#785,#786,#787));
#132=EDGE_LOOP('',(#788,#789,#790,#791,#792,#793,#794,#795));
#133=EDGE_LOOP('',(#796,#797,#798,#799,#800));
#134=EDGE_LOOP('',(#801,#802,#803,#804));
#135=EDGE_LOOP('',(#805,#806,#807,#808,#809));
#136=EDGE_LOOP('',(#810,#811,#812,#813));
#137=EDGE_LOOP('',(#814,#815,#816,#817));
#138=EDGE_LOOP('',(#818,#819,#820,#821));
#139=EDGE_LOOP('',(#822,#823,#824,#825));
#140=EDGE_LOOP('',(#826,#827,#828,#829));
#141=EDGE_LOOP('',(#830,#831,#832,#833));
#142=EDGE_LOOP('',(#834,#835,#836,#837));
#143=EDGE_LOOP('',(#838,#839,#840,#841));
#144=EDGE_LOOP('',(#842,#843,#844,#845));
#145=EDGE_LOOP('',(#846));
#146=EDGE_LOOP('',(#847,#848,#849,#850));
#147=EDGE_LOOP('',(#851));
#148=EDGE_LOOP('',(#852,#853,#854,#855));
#149=EDGE_LOOP('',(#856));
#150=EDGE_LOOP('',(#857,#858,#859,#860));
#151=EDGE_LOOP('',(#861));
#152=EDGE_LOOP('',(#862,#863,#864));
#153=EDGE_LOOP('',(#865,#866,#867,#868));
#154=EDGE_LOOP('',(#869,#870,#871,#872,#873,#874));
#155=EDGE_LOOP('',(#875,#876,#877));
#156=EDGE_LOOP('',(#878,#879,#880,#881));
#157=EDGE_LOOP('',(#882,#883,#884,#885));
#158=EDGE_LOOP('',(#886,#887,#888,#889,#890,#891));
#159=EDGE_LOOP('',(#892,#893,#894,#895));
#160=EDGE_LOOP('',(#896,#897,#898,#899));
#161=EDGE_LOOP('',(#900,#901,#902,#903));
#162=EDGE_LOOP('',(#904,#905,#906,#907));
#163=EDGE_LOOP('',(#908,#909,#910,#911,#912,#913,#914,#915));
#164=EDGE_LOOP('',(#916,#917,#918,#919,#920,#921,#922,#923));
#165=EDGE_LOOP('',(#924,#925,#926,#927));
#166=EDGE_LOOP('',(#928));
#167=EDGE_LOOP('',(#929));
#168=EDGE_LOOP('',(#930));
#169=EDGE_LOOP('',(#931));
#170=EDGE_LOOP('',(#932,#933,#934,#935));
#171=EDGE_LOOP('',(#936,#937,#938,#939,#940,#941,#942,#943,#944,#945,#946,
#947,#948,#949,#950,#951,#952,#953));
#172=EDGE_LOOP('',(#954));
#173=EDGE_LOOP('',(#955));
#174=EDGE_LOOP('',(#956));
#175=EDGE_LOOP('',(#957));
#176=EDGE_LOOP('',(#958,#959,#960,#961));
#177=EDGE_LOOP('',(#962,#963,#964,#965));
#178=EDGE_LOOP('',(#966,#967,#968,#969));
#179=EDGE_LOOP('',(#970,#971,#972,#973));
#180=EDGE_LOOP('',(#974,#975,#976,#977));
#181=EDGE_LOOP('',(#978));
#182=EDGE_LOOP('',(#979,#980,#981,#982));
#183=EDGE_LOOP('',(#983,#984,#985,#986));
#184=EDGE_LOOP('',(#987,#988,#989,#990));
#185=EDGE_LOOP('',(#991,#992,#993,#994));
#186=EDGE_LOOP('',(#995,#996,#997,#998,#999));
#187=EDGE_LOOP('',(#1000));
#188=EDGE_LOOP('',(#1001,#1002,#1003,#1004,#1005,#1006,#1007,#1008,#1009,
#1010));
#189=EDGE_LOOP('',(#1011,#1012,#1013,#1014,#1015,#1016,#1017,#1018));
#190=EDGE_LOOP('',(#1019,#1020,#1021,#1022));
#191=EDGE_LOOP('',(#1023,#1024,#1025,#1026));
#192=EDGE_LOOP('',(#1027,#1028,#1029,#1030));
#193=EDGE_LOOP('',(#1031,#1032,#1033,#1034));
#194=EDGE_LOOP('',(#1035,#1036,#1037,#1038));
#195=EDGE_LOOP('',(#1039));
#196=EDGE_LOOP('',(#1040,#1041,#1042,#1043));
#197=EDGE_LOOP('',(#1044,#1045,#1046,#1047));
#198=EDGE_LOOP('',(#1048,#1049,#1050,#1051));
#199=EDGE_LOOP('',(#1052,#1053,#1054,#1055));
#200=EDGE_LOOP('',(#1056,#1057,#1058,#1059,#1060));
#201=EDGE_LOOP('',(#1061));
#202=EDGE_LOOP('',(#1062,#1063,#1064,#1065,#1066,#1067,#1068,#1069));
#203=EDGE_LOOP('',(#1070,#1071,#1072,#1073));
#204=EDGE_LOOP('',(#1074,#1075,#1076,#1077,#1078,#1079,#1080,#1081,#1082,
#1083));
#205=EDGE_LOOP('',(#1084,#1085,#1086,#1087));
#206=EDGE_LOOP('',(#1088,#1089,#1090,#1091));
#207=CIRCLE('',#1217,7.93725393319377);
#208=CIRCLE('',#1219,7.59934207678534);
#209=CIRCLE('',#1220,2.);
#210=CIRCLE('',#1221,2.);
#211=CIRCLE('',#1222,7.59934207678533);
#212=CIRCLE('',#1224,2.);
#213=CIRCLE('',#1227,2.);
#214=CIRCLE('',#1229,7.93725393319377);
#215=CIRCLE('',#1231,8.);
#216=CIRCLE('',#1232,8.);
#217=CIRCLE('',#1234,8.);
#218=CIRCLE('',#1235,8.);
#219=CIRCLE('',#1236,8.);
#220=CIRCLE('',#1238,8.);
#221=CIRCLE('',#1240,8.);
#222=CIRCLE('',#1241,8.);
#223=CIRCLE('',#1244,2.);
#224=CIRCLE('',#1245,2.);
#225=CIRCLE('',#1248,2.);
#226=CIRCLE('',#1249,2.);
#227=CIRCLE('',#1252,2.);
#228=CIRCLE('',#1253,2.);
#229=CIRCLE('',#1256,2.);
#230=CIRCLE('',#1257,2.);
#231=CIRCLE('',#1259,2.);
#232=CIRCLE('',#1260,2.);
#233=CIRCLE('',#1263,2.);
#234=CIRCLE('',#1264,2.);
#235=CIRCLE('',#1267,2.);
#236=CIRCLE('',#1268,2.);
#237=CIRCLE('',#1271,2.);
#238=CIRCLE('',#1272,2.);
#239=CIRCLE('',#1275,8.);
#240=CIRCLE('',#1276,8.);
#241=CIRCLE('',#1277,8.);
#242=CIRCLE('',#1279,8.);
#243=CIRCLE('',#1281,8.);
#244=CIRCLE('',#1283,8.);
#245=CIRCLE('',#1284,8.);
#246=CIRCLE('',#1285,8.);
#247=CIRCLE('',#1287,8.);
#248=CIRCLE('',#1290,8.);
#249=CIRCLE('',#1298,2.5);
#250=CIRCLE('',#1299,2.5);
#251=CIRCLE('',#1300,2.5);
#252=CIRCLE('',#1301,2.5);
#253=CIRCLE('',#1303,2.);
#254=CIRCLE('',#1305,2.);
#255=CIRCLE('',#1307,2.);
#256=CIRCLE('',#1309,1.99999999999999);
#257=CIRCLE('',#1311,1.99999999999999);
#258=CIRCLE('',#1315,2.5);
#259=CIRCLE('',#1318,2.);
#260=CIRCLE('',#1322,2.5);
#261=CIRCLE('',#1326,2.);
#262=CIRCLE('',#1330,2.5);
#263=CIRCLE('',#1333,2.);
#264=CIRCLE('',#1337,2.5);
#265=LINE('',#1715,#374);
#266=LINE('',#1717,#375);
#267=LINE('',#1719,#376);
#268=LINE('',#1721,#377);
#269=LINE('',#1729,#378);
#270=LINE('',#1733,#379);
#271=LINE('',#1736,#380);
#272=LINE('',#1740,#381);
#273=LINE('',#1743,#382);
#274=LINE('',#1744,#383);
#275=LINE('',#1748,#384);
#276=LINE('',#1752,#385);
#277=LINE('',#1754,#386);
#278=LINE('',#1759,#387);
#279=LINE('',#1770,#388);
#280=LINE('',#1778,#389);
#281=LINE('',#1780,#390);
#282=LINE('',#1782,#391);
#283=LINE('',#1783,#392);
#284=LINE('',#1789,#393);
#285=LINE('',#1792,#394);
#286=LINE('',#1794,#395);
#287=LINE('',#1795,#396);
#288=LINE('',#1801,#397);
#289=LINE('',#1804,#398);
#290=LINE('',#1806,#399);
#291=LINE('',#1807,#400);
#292=LINE('',#1813,#401);
#293=LINE('',#1816,#402);
#294=LINE('',#1818,#403);
#295=LINE('',#1819,#404);
#296=LINE('',#1827,#405);
#297=LINE('',#1834,#406);
#298=LINE('',#1841,#407);
#299=LINE('',#1848,#408);
#300=LINE('',#1862,#409);
#301=LINE('',#1863,#410);
#302=LINE('',#1866,#411);
#303=LINE('',#1869,#412);
#304=LINE('',#1881,#413);
#305=LINE('',#1882,#414);
#306=LINE('',#1884,#415);
#307=LINE('',#1885,#416);
#308=LINE('',#1888,#417);
#309=LINE('',#1891,#418);
#310=LINE('',#1893,#419);
#311=LINE('',#1894,#420);
#312=LINE('',#1896,#421);
#313=LINE('',#1897,#422);
#314=LINE('',#1899,#423);
#315=LINE('',#1901,#424);
#316=LINE('',#1903,#425);
#317=LINE('',#1904,#426);
#318=LINE('',#1907,#427);
#319=LINE('',#1909,#428);
#320=LINE('',#1911,#429);
#321=LINE('',#1912,#430);
#322=LINE('',#1917,#431);
#323=LINE('',#1921,#432);
#324=LINE('',#1923,#433);
#325=LINE('',#1925,#434);
#326=LINE('',#1929,#435);
#327=LINE('',#1931,#436);
#328=LINE('',#1933,#437);
#329=LINE('',#1937,#438);
#330=LINE('',#1939,#439);
#331=LINE('',#1941,#440);
#332=LINE('',#1943,#441);
#333=LINE('',#1945,#442);
#334=LINE('',#1949,#443);
#335=LINE('',#1950,#444);
#336=LINE('',#1966,#445);
#337=LINE('',#1969,#446);
#338=LINE('',#1971,#447);
#339=LINE('',#1972,#448);
#340=LINE('',#1975,#449);
#341=LINE('',#1977,#450);
#342=LINE('',#1978,#451);
#343=LINE('',#1982,#452);
#344=LINE('',#1986,#453);
#345=LINE('',#1989,#454);
#346=LINE('',#1991,#455);
#347=LINE('',#1992,#456);
#348=LINE('',#1995,#457);
#349=LINE('',#1997,#458);
#350=LINE('',#1998,#459);
#351=LINE('',#2003,#460);
#352=LINE('',#2004,#461);
#353=LINE('',#2006,#462);
#354=LINE('',#2007,#463);
#355=LINE('',#2011,#464);
#356=LINE('',#2014,#465);
#357=LINE('',#2016,#466);
#358=LINE('',#2017,#467);
#359=LINE('',#2020,#468);
#360=LINE('',#2022,#469);
#361=LINE('',#2023,#470);
#362=LINE('',#2027,#471);
#363=LINE('',#2031,#472);
#364=LINE('',#2034,#473);
#365=LINE('',#2036,#474);
#366=LINE('',#2037,#475);
#367=LINE('',#2040,#476);
#368=LINE('',#2042,#477);
#369=LINE('',#2043,#478);
#370=LINE('',#2048,#479);
#371=LINE('',#2049,#480);
#372=LINE('',#2051,#481);
#373=LINE('',#2053,#482);
#374=VECTOR('',#1348,10.);
#375=VECTOR('',#1349,10.);
#376=VECTOR('',#1350,10.);
#377=VECTOR('',#1351,10.);
#378=VECTOR('',#1360,10.);
#379=VECTOR('',#1363,10.);
#380=VECTOR('',#1366,10.);
#381=VECTOR('',#1371,10.);
#382=VECTOR('',#1374,10.);
#383=VECTOR('',#1375,10.);
#384=VECTOR('',#1380,10.);
#385=VECTOR('',#1383,10.);
#386=VECTOR('',#1386,10.);
#387=VECTOR('',#1391,10.);
#388=VECTOR('',#1406,10.);
#389=VECTOR('',#1415,10.);
#390=VECTOR('',#1416,10.);
#391=VECTOR('',#1417,10.);
#392=VECTOR('',#1418,10.);
#393=VECTOR('',#1425,10.);
#394=VECTOR('',#1428,10.);
#395=VECTOR('',#1429,10.);
#396=VECTOR('',#1430,10.);
#397=VECTOR('',#1437,10.);
#398=VECTOR('',#1440,10.);
#399=VECTOR('',#1441,10.);
#400=VECTOR('',#1442,10.);
#401=VECTOR('',#1449,10.);
#402=VECTOR('',#1452,10.);
#403=VECTOR('',#1453,10.);
#404=VECTOR('',#1454,10.);
#405=VECTOR('',#1465,2.);
#406=VECTOR('',#1474,2.);
#407=VECTOR('',#1483,2.);
#408=VECTOR('',#1492,2.);
#409=VECTOR('',#1509,10.);
#410=VECTOR('',#1510,10.);
#411=VECTOR('',#1513,10.);
#412=VECTOR('',#1516,10.);
#413=VECTOR('',#1529,10.);
#414=VECTOR('',#1530,10.);
#415=VECTOR('',#1533,10.);
#416=VECTOR('',#1534,10.);
#417=VECTOR('',#1537,10.);
#418=VECTOR('',#1540,10.);
#419=VECTOR('',#1543,10.);
#420=VECTOR('',#1544,10.);
#421=VECTOR('',#1547,10.);
#422=VECTOR('',#1548,10.);
#423=VECTOR('',#1551,10.);
#424=VECTOR('',#1554,10.);
#425=VECTOR('',#1557,10.);
#426=VECTOR('',#1558,10.);
#427=VECTOR('',#1559,10.);
#428=VECTOR('',#1560,10.);
#429=VECTOR('',#1561,10.);
#430=VECTOR('',#1562,10.);
#431=VECTOR('',#1567,10.);
#432=VECTOR('',#1570,10.);
#433=VECTOR('',#1571,10.);
#434=VECTOR('',#1572,10.);
#435=VECTOR('',#1575,10.);
#436=VECTOR('',#1576,10.);
#437=VECTOR('',#1577,10.);
#438=VECTOR('',#1580,10.);
#439=VECTOR('',#1581,10.);
#440=VECTOR('',#1582,10.);
#441=VECTOR('',#1583,10.);
#442=VECTOR('',#1584,10.);
#443=VECTOR('',#1587,10.);
#444=VECTOR('',#1588,10.);
#445=VECTOR('',#1609,1.99999999999999);
#446=VECTOR('',#1612,10.);
#447=VECTOR('',#1613,10.);
#448=VECTOR('',#1614,10.);
#449=VECTOR('',#1617,10.);
#450=VECTOR('',#1618,10.);
#451=VECTOR('',#1619,10.);
#452=VECTOR('',#1626,10.);
#453=VECTOR('',#1631,2.);
#454=VECTOR('',#1634,10.);
#455=VECTOR('',#1635,10.);
#456=VECTOR('',#1636,10.);
#457=VECTOR('',#1639,10.);
#458=VECTOR('',#1640,10.);
#459=VECTOR('',#1641,10.);
#460=VECTOR('',#1648,10.);
#461=VECTOR('',#1649,10.);
#462=VECTOR('',#1652,10.);
#463=VECTOR('',#1653,10.);
#464=VECTOR('',#1658,2.);
#465=VECTOR('',#1661,10.);
#466=VECTOR('',#1662,10.);
#467=VECTOR('',#1663,10.);
#468=VECTOR('',#1666,10.);
#469=VECTOR('',#1667,10.);
#470=VECTOR('',#1668,10.);
#471=VECTOR('',#1675,10.);
#472=VECTOR('',#1680,2.);
#473=VECTOR('',#1683,10.);
#474=VECTOR('',#1684,10.);
#475=VECTOR('',#1685,10.);
#476=VECTOR('',#1688,10.);
#477=VECTOR('',#1689,10.);
#478=VECTOR('',#1690,10.);
#479=VECTOR('',#1697,10.);
#480=VECTOR('',#1698,10.);
#481=VECTOR('',#1701,10.);
#482=VECTOR('',#1704,10.);
#483=VERTEX_POINT('',#1713);
#484=VERTEX_POINT('',#1714);
#485=VERTEX_POINT('',#1716);
#486=VERTEX_POINT('',#1718);
#487=VERTEX_POINT('',#1720);
#488=VERTEX_POINT('',#1724);
#489=VERTEX_POINT('',#1726);
#490=VERTEX_POINT('',#1728);
#491=VERTEX_POINT('',#1730);
#492=VERTEX_POINT('',#1732);
#493=VERTEX_POINT('',#1734);
#494=VERTEX_POINT('',#1738);
#495=VERTEX_POINT('',#1742);
#496=VERTEX_POINT('',#1746);
#497=VERTEX_POINT('',#1750);
#498=VERTEX_POINT('',#1751);
#499=VERTEX_POINT('',#1756);
#500=VERTEX_POINT('',#1758);
#501=VERTEX_POINT('',#1762);
#502=VERTEX_POINT('',#1764);
#503=VERTEX_POINT('',#1768);
#504=VERTEX_POINT('',#1772);
#505=VERTEX_POINT('',#1776);
#506=VERTEX_POINT('',#1777);
#507=VERTEX_POINT('',#1779);
#508=VERTEX_POINT('',#1781);
#509=VERTEX_POINT('',#1785);
#510=VERTEX_POINT('',#1787);
#511=VERTEX_POINT('',#1791);
#512=VERTEX_POINT('',#1793);
#513=VERTEX_POINT('',#1797);
#514=VERTEX_POINT('',#1799);
#515=VERTEX_POINT('',#1803);
#516=VERTEX_POINT('',#1805);
#517=VERTEX_POINT('',#1809);
#518=VERTEX_POINT('',#1811);
#519=VERTEX_POINT('',#1815);
#520=VERTEX_POINT('',#1817);
#521=VERTEX_POINT('',#1824);
#522=VERTEX_POINT('',#1826);
#523=VERTEX_POINT('',#1831);
#524=VERTEX_POINT('',#1833);
#525=VERTEX_POINT('',#1838);
#526=VERTEX_POINT('',#1840);
#527=VERTEX_POINT('',#1845);
#528=VERTEX_POINT('',#1847);
#529=VERTEX_POINT('',#1852);
#530=VERTEX_POINT('',#1853);
#531=VERTEX_POINT('',#1855);
#532=VERTEX_POINT('',#1859);
#533=VERTEX_POINT('',#1860);
#534=VERTEX_POINT('',#1865);
#535=VERTEX_POINT('',#1867);
#536=VERTEX_POINT('',#1871);
#537=VERTEX_POINT('',#1872);
#538=VERTEX_POINT('',#1874);
#539=VERTEX_POINT('',#1878);
#540=VERTEX_POINT('',#1879);
#541=VERTEX_POINT('',#1887);
#542=VERTEX_POINT('',#1889);
#543=VERTEX_POINT('',#1905);
#544=VERTEX_POINT('',#1906);
#545=VERTEX_POINT('',#1908);
#546=VERTEX_POINT('',#1910);
#547=VERTEX_POINT('',#1915);
#548=VERTEX_POINT('',#1916);
#549=VERTEX_POINT('',#1918);
#550=VERTEX_POINT('',#1920);
#551=VERTEX_POINT('',#1922);
#552=VERTEX_POINT('',#1924);
#553=VERTEX_POINT('',#1926);
#554=VERTEX_POINT('',#1928);
#555=VERTEX_POINT('',#1930);
#556=VERTEX_POINT('',#1932);
#557=VERTEX_POINT('',#1934);
#558=VERTEX_POINT('',#1936);
#559=VERTEX_POINT('',#1938);
#560=VERTEX_POINT('',#1940);
#561=VERTEX_POINT('',#1942);
#562=VERTEX_POINT('',#1944);
#563=VERTEX_POINT('',#1946);
#564=VERTEX_POINT('',#1948);
#565=VERTEX_POINT('',#1952);
#566=VERTEX_POINT('',#1955);
#567=VERTEX_POINT('',#1958);
#568=VERTEX_POINT('',#1961);
#569=VERTEX_POINT('',#1964);
#570=VERTEX_POINT('',#1968);
#571=VERTEX_POINT('',#1970);
#572=VERTEX_POINT('',#1974);
#573=VERTEX_POINT('',#1976);
#574=VERTEX_POINT('',#1984);
#575=VERTEX_POINT('',#1988);
#576=VERTEX_POINT('',#1990);
#577=VERTEX_POINT('',#1994);
#578=VERTEX_POINT('',#1996);
#579=VERTEX_POINT('',#2002);
#580=VERTEX_POINT('',#2009);
#581=VERTEX_POINT('',#2013);
#582=VERTEX_POINT('',#2015);
#583=VERTEX_POINT('',#2019);
#584=VERTEX_POINT('',#2021);
#585=VERTEX_POINT('',#2029);
#586=VERTEX_POINT('',#2033);
#587=VERTEX_POINT('',#2035);
#588=VERTEX_POINT('',#2039);
#589=VERTEX_POINT('',#2041);
#590=VERTEX_POINT('',#2047);
#591=EDGE_CURVE('',#483,#484,#265,.T.);
#592=EDGE_CURVE('',#483,#485,#266,.T.);
#593=EDGE_CURVE('',#485,#486,#267,.T.);
#594=EDGE_CURVE('',#486,#487,#268,.T.);
#595=EDGE_CURVE('',#484,#487,#207,.T.);
#596=EDGE_CURVE('',#487,#488,#208,.T.);
#597=EDGE_CURVE('',#489,#486,#209,.T.);
#598=EDGE_CURVE('',#490,#489,#269,.T.);
#599=EDGE_CURVE('',#491,#490,#210,.T.);
#600=EDGE_CURVE('',#492,#491,#270,.T.);
#601=EDGE_CURVE('',#493,#492,#211,.T.);
#602=EDGE_CURVE('',#488,#493,#271,.T.);
#603=EDGE_CURVE('',#494,#485,#212,.T.);
#604=EDGE_CURVE('',#494,#489,#272,.T.);
#605=EDGE_CURVE('',#494,#495,#273,.T.);
#606=EDGE_CURVE('',#495,#490,#274,.T.);
#607=EDGE_CURVE('',#496,#495,#213,.T.);
#608=EDGE_CURVE('',#496,#491,#275,.T.);
#609=EDGE_CURVE('',#497,#498,#276,.T.);
#610=EDGE_CURVE('',#492,#497,#214,.T.);
#611=EDGE_CURVE('',#496,#498,#277,.T.);
#612=EDGE_CURVE('',#499,#483,#215,.T.);
#613=EDGE_CURVE('',#500,#499,#278,.T.);
#614=EDGE_CURVE('',#498,#500,#216,.T.);
#615=EDGE_CURVE('',#501,#488,#217,.F.);
#616=EDGE_CURVE('',#502,#501,#218,.F.);
#617=EDGE_CURVE('',#484,#502,#219,.F.);
#618=EDGE_CURVE('',#493,#503,#220,.F.);
#619=EDGE_CURVE('',#503,#501,#279,.T.);
#620=EDGE_CURVE('',#504,#497,#221,.F.);
#621=EDGE_CURVE('',#503,#504,#222,.F.);
#622=EDGE_CURVE('',#505,#506,#280,.T.);
#623=EDGE_CURVE('',#507,#505,#281,.T.);
#624=EDGE_CURVE('',#508,#507,#282,.T.);
#625=EDGE_CURVE('',#508,#506,#283,.T.);
#626=EDGE_CURVE('',#506,#509,#223,.T.);
#627=EDGE_CURVE('',#510,#508,#224,.T.);
#628=EDGE_CURVE('',#510,#509,#284,.T.);
#629=EDGE_CURVE('',#509,#511,#285,.T.);
#630=EDGE_CURVE('',#512,#510,#286,.T.);
#631=EDGE_CURVE('',#512,#511,#287,.T.);
#632=EDGE_CURVE('',#511,#513,#225,.T.);
#633=EDGE_CURVE('',#514,#512,#226,.T.);
#634=EDGE_CURVE('',#514,#513,#288,.T.);
#635=EDGE_CURVE('',#513,#515,#289,.T.);
#636=EDGE_CURVE('',#516,#514,#290,.T.);
#637=EDGE_CURVE('',#516,#515,#291,.T.);
#638=EDGE_CURVE('',#515,#517,#227,.T.);
#639=EDGE_CURVE('',#518,#516,#228,.T.);
#640=EDGE_CURVE('',#518,#517,#292,.T.);
#641=EDGE_CURVE('',#517,#519,#293,.T.);
#642=EDGE_CURVE('',#520,#518,#294,.T.);
#643=EDGE_CURVE('',#520,#519,#295,.T.);
#644=EDGE_CURVE('',#519,#505,#229,.T.);
#645=EDGE_CURVE('',#507,#520,#230,.T.);
#646=EDGE_CURVE('',#521,#521,#231,.T.);
#647=EDGE_CURVE('',#521,#522,#296,.T.);
#648=EDGE_CURVE('',#522,#522,#232,.T.);
#649=EDGE_CURVE('',#523,#523,#233,.T.);
#650=EDGE_CURVE('',#523,#524,#297,.T.);
#651=EDGE_CURVE('',#524,#524,#234,.T.);
#652=EDGE_CURVE('',#525,#525,#235,.T.);
#653=EDGE_CURVE('',#525,#526,#298,.T.);
#654=EDGE_CURVE('',#526,#526,#236,.T.);
#655=EDGE_CURVE('',#527,#527,#237,.T.);
#656=EDGE_CURVE('',#527,#528,#299,.T.);
#657=EDGE_CURVE('',#528,#528,#238,.T.);
#658=EDGE_CURVE('',#529,#530,#239,.F.);
#659=EDGE_CURVE('',#531,#529,#240,.F.);
#660=EDGE_CURVE('',#530,#531,#241,.F.);
#661=EDGE_CURVE('',#532,#533,#242,.T.);
#662=EDGE_CURVE('',#533,#531,#300,.T.);
#663=EDGE_CURVE('',#529,#532,#301,.T.);
#664=EDGE_CURVE('',#502,#534,#302,.T.);
#665=EDGE_CURVE('',#534,#535,#243,.T.);
#666=EDGE_CURVE('',#535,#499,#303,.T.);
#667=EDGE_CURVE('',#536,#537,#244,.F.);
#668=EDGE_CURVE('',#538,#536,#245,.F.);
#669=EDGE_CURVE('',#537,#538,#246,.F.);
#670=EDGE_CURVE('',#539,#540,#247,.T.);
#671=EDGE_CURVE('',#540,#538,#304,.T.);
#672=EDGE_CURVE('',#536,#539,#305,.T.);
#673=EDGE_CURVE('',#530,#537,#306,.T.);
#674=EDGE_CURVE('',#538,#529,#307,.T.);
#675=EDGE_CURVE('',#500,#541,#308,.T.);
#676=EDGE_CURVE('',#541,#542,#248,.T.);
#677=EDGE_CURVE('',#542,#504,#309,.T.);
#678=EDGE_CURVE('',#537,#503,#310,.T.);
#679=EDGE_CURVE('',#504,#536,#311,.T.);
#680=EDGE_CURVE('',#501,#530,#312,.T.);
#681=EDGE_CURVE('',#531,#502,#313,.T.);
#682=EDGE_CURVE('',#532,#540,#314,.T.);
#683=EDGE_CURVE('',#539,#542,#315,.T.);
#684=EDGE_CURVE('',#541,#535,#316,.T.);
#685=EDGE_CURVE('',#534,#533,#317,.T.);
#686=EDGE_CURVE('',#543,#544,#318,.T.);
#687=EDGE_CURVE('',#544,#545,#319,.T.);
#688=EDGE_CURVE('',#545,#546,#320,.T.);
#689=EDGE_CURVE('',#546,#543,#321,.T.);
#690=EDGE_CURVE('',#547,#548,#322,.T.);
#691=EDGE_CURVE('',#549,#547,#249,.T.);
#692=EDGE_CURVE('',#549,#550,#323,.T.);
#693=EDGE_CURVE('',#551,#550,#324,.T.);
#694=EDGE_CURVE('',#552,#551,#325,.T.);
#695=EDGE_CURVE('',#553,#552,#250,.T.);
#696=EDGE_CURVE('',#553,#554,#326,.T.);
#697=EDGE_CURVE('',#555,#554,#327,.T.);
#698=EDGE_CURVE('',#556,#555,#328,.T.);
#699=EDGE_CURVE('',#557,#556,#251,.T.);
#700=EDGE_CURVE('',#557,#558,#329,.T.);
#701=EDGE_CURVE('',#559,#558,#330,.T.);
#702=EDGE_CURVE('',#560,#559,#331,.T.);
#703=EDGE_CURVE('',#561,#560,#332,.T.);
#704=EDGE_CURVE('',#562,#561,#333,.T.);
#705=EDGE_CURVE('',#563,#562,#252,.T.);
#706=EDGE_CURVE('',#563,#564,#334,.T.);
#707=EDGE_CURVE('',#548,#564,#335,.T.);
#708=EDGE_CURVE('',#565,#565,#253,.T.);
#709=EDGE_CURVE('',#566,#566,#254,.T.);
#710=EDGE_CURVE('',#567,#567,#255,.T.);
#711=EDGE_CURVE('',#568,#568,#256,.T.);
#712=EDGE_CURVE('',#569,#569,#257,.T.);
#713=EDGE_CURVE('',#569,#568,#336,.T.);
#714=EDGE_CURVE('',#557,#570,#337,.T.);
#715=EDGE_CURVE('',#571,#570,#338,.T.);
#716=EDGE_CURVE('',#558,#571,#339,.T.);
#717=EDGE_CURVE('',#572,#555,#340,.T.);
#718=EDGE_CURVE('',#573,#572,#341,.T.);
#719=EDGE_CURVE('',#556,#573,#342,.T.);
#720=EDGE_CURVE('',#570,#573,#258,.T.);
#721=EDGE_CURVE('',#571,#572,#343,.T.);
#722=EDGE_CURVE('',#574,#574,#259,.T.);
#723=EDGE_CURVE('',#574,#567,#344,.T.);
#724=EDGE_CURVE('',#553,#575,#345,.T.);
#725=EDGE_CURVE('',#576,#575,#346,.T.);
#726=EDGE_CURVE('',#554,#576,#347,.T.);
#727=EDGE_CURVE('',#577,#551,#348,.T.);
#728=EDGE_CURVE('',#578,#577,#349,.T.);
#729=EDGE_CURVE('',#552,#578,#350,.T.);
#730=EDGE_CURVE('',#575,#578,#260,.T.);
#731=EDGE_CURVE('',#579,#577,#351,.T.);
#732=EDGE_CURVE('',#576,#579,#352,.T.);
#733=EDGE_CURVE('',#579,#546,#353,.T.);
#734=EDGE_CURVE('',#559,#545,#354,.T.);
#735=EDGE_CURVE('',#580,#580,#261,.T.);
#736=EDGE_CURVE('',#580,#566,#355,.T.);
#737=EDGE_CURVE('',#563,#581,#356,.T.);
#738=EDGE_CURVE('',#582,#581,#357,.T.);
#739=EDGE_CURVE('',#564,#582,#358,.T.);
#740=EDGE_CURVE('',#583,#561,#359,.T.);
#741=EDGE_CURVE('',#584,#583,#360,.T.);
#742=EDGE_CURVE('',#562,#584,#361,.T.);
#743=EDGE_CURVE('',#581,#584,#262,.T.);
#744=EDGE_CURVE('',#582,#583,#362,.T.);
#745=EDGE_CURVE('',#585,#585,#263,.T.);
#746=EDGE_CURVE('',#585,#565,#363,.T.);
#747=EDGE_CURVE('',#549,#586,#364,.T.);
#748=EDGE_CURVE('',#587,#586,#365,.T.);
#749=EDGE_CURVE('',#550,#587,#366,.T.);
#750=EDGE_CURVE('',#588,#548,#367,.T.);
#751=EDGE_CURVE('',#589,#588,#368,.T.);
#752=EDGE_CURVE('',#547,#589,#369,.T.);
#753=EDGE_CURVE('',#586,#589,#264,.T.);
#754=EDGE_CURVE('',#590,#588,#370,.T.);
#755=EDGE_CURVE('',#587,#590,#371,.T.);
#756=EDGE_CURVE('',#590,#543,#372,.T.);
#757=EDGE_CURVE('',#560,#544,#373,.T.);
#758=ORIENTED_EDGE('',*,*,#591,.F.);
#759=ORIENTED_EDGE('',*,*,#592,.T.);
#760=ORIENTED_EDGE('',*,*,#593,.T.);
#761=ORIENTED_EDGE('',*,*,#594,.T.);
#762=ORIENTED_EDGE('',*,*,#595,.F.);
#763=ORIENTED_EDGE('',*,*,#596,.F.);
#764=ORIENTED_EDGE('',*,*,#594,.F.);
#765=ORIENTED_EDGE('',*,*,#597,.F.);
#766=ORIENTED_EDGE('',*,*,#598,.F.);
#767=ORIENTED_EDGE('',*,*,#599,.F.);
#768=ORIENTED_EDGE('',*,*,#600,.F.);
#769=ORIENTED_EDGE('',*,*,#601,.F.);
#770=ORIENTED_EDGE('',*,*,#602,.F.);
#771=ORIENTED_EDGE('',*,*,#603,.F.);
#772=ORIENTED_EDGE('',*,*,#604,.T.);
#773=ORIENTED_EDGE('',*,*,#597,.T.);
#774=ORIENTED_EDGE('',*,*,#593,.F.);
#775=ORIENTED_EDGE('',*,*,#605,.T.);
#776=ORIENTED_EDGE('',*,*,#606,.T.);
#777=ORIENTED_EDGE('',*,*,#598,.T.);
#778=ORIENTED_EDGE('',*,*,#604,.F.);
#779=ORIENTED_EDGE('',*,*,#607,.F.);
#780=ORIENTED_EDGE('',*,*,#608,.T.);
#781=ORIENTED_EDGE('',*,*,#599,.T.);
#782=ORIENTED_EDGE('',*,*,#606,.F.);
#783=ORIENTED_EDGE('',*,*,#609,.F.);
#784=ORIENTED_EDGE('',*,*,#610,.F.);
#785=ORIENTED_EDGE('',*,*,#600,.T.);
#786=ORIENTED_EDGE('',*,*,#608,.F.);
#787=ORIENTED_EDGE('',*,*,#611,.T.);
#788=ORIENTED_EDGE('',*,*,#612,.F.);
#789=ORIENTED_EDGE('',*,*,#613,.F.);
#790=ORIENTED_EDGE('',*,*,#614,.F.);
#791=ORIENTED_EDGE('',*,*,#611,.F.);
#792=ORIENTED_EDGE('',*,*,#607,.T.);
#793=ORIENTED_EDGE('',*,*,#605,.F.);
#794=ORIENTED_EDGE('',*,*,#603,.T.);
#795=ORIENTED_EDGE('',*,*,#592,.F.);
#796=ORIENTED_EDGE('',*,*,#595,.T.);
#797=ORIENTED_EDGE('',*,*,#596,.T.);
#798=ORIENTED_EDGE('',*,*,#615,.F.);
#799=ORIENTED_EDGE('',*,*,#616,.F.);
#800=ORIENTED_EDGE('',*,*,#617,.F.);
#801=ORIENTED_EDGE('',*,*,#602,.T.);
#802=ORIENTED_EDGE('',*,*,#618,.T.);
#803=ORIENTED_EDGE('',*,*,#619,.T.);
#804=ORIENTED_EDGE('',*,*,#615,.T.);
#805=ORIENTED_EDGE('',*,*,#601,.T.);
#806=ORIENTED_EDGE('',*,*,#610,.T.);
#807=ORIENTED_EDGE('',*,*,#620,.F.);
#808=ORIENTED_EDGE('',*,*,#621,.F.);
#809=ORIENTED_EDGE('',*,*,#618,.F.);
#810=ORIENTED_EDGE('',*,*,#622,.F.);
#811=ORIENTED_EDGE('',*,*,#623,.F.);
#812=ORIENTED_EDGE('',*,*,#624,.F.);
#813=ORIENTED_EDGE('',*,*,#625,.T.);
#814=ORIENTED_EDGE('',*,*,#626,.F.);
#815=ORIENTED_EDGE('',*,*,#625,.F.);
#816=ORIENTED_EDGE('',*,*,#627,.F.);
#817=ORIENTED_EDGE('',*,*,#628,.T.);
#818=ORIENTED_EDGE('',*,*,#629,.F.);
#819=ORIENTED_EDGE('',*,*,#628,.F.);
#820=ORIENTED_EDGE('',*,*,#630,.F.);
#821=ORIENTED_EDGE('',*,*,#631,.T.);
#822=ORIENTED_EDGE('',*,*,#632,.F.);
#823=ORIENTED_EDGE('',*,*,#631,.F.);
#824=ORIENTED_EDGE('',*,*,#633,.F.);
#825=ORIENTED_EDGE('',*,*,#634,.T.);
#826=ORIENTED_EDGE('',*,*,#635,.F.);
#827=ORIENTED_EDGE('',*,*,#634,.F.);
#828=ORIENTED_EDGE('',*,*,#636,.F.);
#829=ORIENTED_EDGE('',*,*,#637,.T.);
#830=ORIENTED_EDGE('',*,*,#638,.F.);
#831=ORIENTED_EDGE('',*,*,#637,.F.);
#832=ORIENTED_EDGE('',*,*,#639,.F.);
#833=ORIENTED_EDGE('',*,*,#640,.T.);
#834=ORIENTED_EDGE('',*,*,#641,.F.);
#835=ORIENTED_EDGE('',*,*,#640,.F.);
#836=ORIENTED_EDGE('',*,*,#642,.F.);
#837=ORIENTED_EDGE('',*,*,#643,.T.);
#838=ORIENTED_EDGE('',*,*,#644,.F.);
#839=ORIENTED_EDGE('',*,*,#643,.F.);
#840=ORIENTED_EDGE('',*,*,#645,.F.);
#841=ORIENTED_EDGE('',*,*,#623,.T.);
#842=ORIENTED_EDGE('',*,*,#646,.F.);
#843=ORIENTED_EDGE('',*,*,#647,.T.);
#844=ORIENTED_EDGE('',*,*,#648,.T.);
#845=ORIENTED_EDGE('',*,*,#647,.F.);
#846=ORIENTED_EDGE('',*,*,#648,.F.);
#847=ORIENTED_EDGE('',*,*,#649,.F.);
#848=ORIENTED_EDGE('',*,*,#650,.T.);
#849=ORIENTED_EDGE('',*,*,#651,.T.);
#850=ORIENTED_EDGE('',*,*,#650,.F.);
#851=ORIENTED_EDGE('',*,*,#651,.F.);
#852=ORIENTED_EDGE('',*,*,#652,.F.);
#853=ORIENTED_EDGE('',*,*,#653,.T.);
#854=ORIENTED_EDGE('',*,*,#654,.T.);
#855=ORIENTED_EDGE('',*,*,#653,.F.);
#856=ORIENTED_EDGE('',*,*,#654,.F.);
#857=ORIENTED_EDGE('',*,*,#655,.F.);
#858=ORIENTED_EDGE('',*,*,#656,.T.);
#859=ORIENTED_EDGE('',*,*,#657,.T.);
#860=ORIENTED_EDGE('',*,*,#656,.F.);
#861=ORIENTED_EDGE('',*,*,#657,.F.);
#862=ORIENTED_EDGE('',*,*,#658,.F.);
#863=ORIENTED_EDGE('',*,*,#659,.F.);
#864=ORIENTED_EDGE('',*,*,#660,.F.);
#865=ORIENTED_EDGE('',*,*,#661,.T.);
#866=ORIENTED_EDGE('',*,*,#662,.T.);
#867=ORIENTED_EDGE('',*,*,#659,.T.);
#868=ORIENTED_EDGE('',*,*,#663,.T.);
#869=ORIENTED_EDGE('',*,*,#591,.T.);
#870=ORIENTED_EDGE('',*,*,#617,.T.);
#871=ORIENTED_EDGE('',*,*,#664,.T.);
#872=ORIENTED_EDGE('',*,*,#665,.T.);
#873=ORIENTED_EDGE('',*,*,#666,.T.);
#874=ORIENTED_EDGE('',*,*,#612,.T.);
#875=ORIENTED_EDGE('',*,*,#667,.F.);
#876=ORIENTED_EDGE('',*,*,#668,.F.);
#877=ORIENTED_EDGE('',*,*,#669,.F.);
#878=ORIENTED_EDGE('',*,*,#670,.T.);
#879=ORIENTED_EDGE('',*,*,#671,.T.);
#880=ORIENTED_EDGE('',*,*,#668,.T.);
#881=ORIENTED_EDGE('',*,*,#672,.T.);
#882=ORIENTED_EDGE('',*,*,#658,.T.);
#883=ORIENTED_EDGE('',*,*,#673,.T.);
#884=ORIENTED_EDGE('',*,*,#669,.T.);
#885=ORIENTED_EDGE('',*,*,#674,.T.);
#886=ORIENTED_EDGE('',*,*,#614,.T.);
#887=ORIENTED_EDGE('',*,*,#675,.T.);
#888=ORIENTED_EDGE('',*,*,#676,.T.);
#889=ORIENTED_EDGE('',*,*,#677,.T.);
#890=ORIENTED_EDGE('',*,*,#620,.T.);
#891=ORIENTED_EDGE('',*,*,#609,.T.);
#892=ORIENTED_EDGE('',*,*,#667,.T.);
#893=ORIENTED_EDGE('',*,*,#678,.T.);
#894=ORIENTED_EDGE('',*,*,#621,.T.);
#895=ORIENTED_EDGE('',*,*,#679,.T.);
#896=ORIENTED_EDGE('',*,*,#616,.T.);
#897=ORIENTED_EDGE('',*,*,#680,.T.);
#898=ORIENTED_EDGE('',*,*,#660,.T.);
#899=ORIENTED_EDGE('',*,*,#681,.T.);
#900=ORIENTED_EDGE('',*,*,#663,.F.);
#901=ORIENTED_EDGE('',*,*,#674,.F.);
#902=ORIENTED_EDGE('',*,*,#671,.F.);
#903=ORIENTED_EDGE('',*,*,#682,.F.);
#904=ORIENTED_EDGE('',*,*,#672,.F.);
#905=ORIENTED_EDGE('',*,*,#679,.F.);
#906=ORIENTED_EDGE('',*,*,#677,.F.);
#907=ORIENTED_EDGE('',*,*,#683,.F.);
#908=ORIENTED_EDGE('',*,*,#635,.T.);
#909=ORIENTED_EDGE('',*,*,#638,.T.);
#910=ORIENTED_EDGE('',*,*,#641,.T.);
#911=ORIENTED_EDGE('',*,*,#644,.T.);
#912=ORIENTED_EDGE('',*,*,#622,.T.);
#913=ORIENTED_EDGE('',*,*,#626,.T.);
#914=ORIENTED_EDGE('',*,*,#629,.T.);
#915=ORIENTED_EDGE('',*,*,#632,.T.);
#916=ORIENTED_EDGE('',*,*,#661,.F.);
#917=ORIENTED_EDGE('',*,*,#682,.T.);
#918=ORIENTED_EDGE('',*,*,#670,.F.);
#919=ORIENTED_EDGE('',*,*,#683,.T.);
#920=ORIENTED_EDGE('',*,*,#676,.F.);
#921=ORIENTED_EDGE('',*,*,#684,.T.);
#922=ORIENTED_EDGE('',*,*,#665,.F.);
#923=ORIENTED_EDGE('',*,*,#685,.T.);
#924=ORIENTED_EDGE('',*,*,#686,.T.);
#925=ORIENTED_EDGE('',*,*,#687,.T.);
#926=ORIENTED_EDGE('',*,*,#688,.T.);
#927=ORIENTED_EDGE('',*,*,#689,.T.);
#928=ORIENTED_EDGE('',*,*,#655,.T.);
#929=ORIENTED_EDGE('',*,*,#652,.T.);
#930=ORIENTED_EDGE('',*,*,#649,.T.);
#931=ORIENTED_EDGE('',*,*,#646,.T.);
#932=ORIENTED_EDGE('',*,*,#673,.F.);
#933=ORIENTED_EDGE('',*,*,#680,.F.);
#934=ORIENTED_EDGE('',*,*,#619,.F.);
#935=ORIENTED_EDGE('',*,*,#678,.F.);
#936=ORIENTED_EDGE('',*,*,#690,.F.);
#937=ORIENTED_EDGE('',*,*,#691,.F.);
#938=ORIENTED_EDGE('',*,*,#692,.T.);
#939=ORIENTED_EDGE('',*,*,#693,.F.);
#940=ORIENTED_EDGE('',*,*,#694,.F.);
#941=ORIENTED_EDGE('',*,*,#695,.F.);
#942=ORIENTED_EDGE('',*,*,#696,.T.);
#943=ORIENTED_EDGE('',*,*,#697,.F.);
#944=ORIENTED_EDGE('',*,*,#698,.F.);
#945=ORIENTED_EDGE('',*,*,#699,.F.);
#946=ORIENTED_EDGE('',*,*,#700,.T.);
#947=ORIENTED_EDGE('',*,*,#701,.F.);
#948=ORIENTED_EDGE('',*,*,#702,.F.);
#949=ORIENTED_EDGE('',*,*,#703,.F.);
#950=ORIENTED_EDGE('',*,*,#704,.F.);
#951=ORIENTED_EDGE('',*,*,#705,.F.);
#952=ORIENTED_EDGE('',*,*,#706,.T.);
#953=ORIENTED_EDGE('',*,*,#707,.F.);
#954=ORIENTED_EDGE('',*,*,#708,.F.);
#955=ORIENTED_EDGE('',*,*,#709,.F.);
#956=ORIENTED_EDGE('',*,*,#710,.F.);
#957=ORIENTED_EDGE('',*,*,#711,.F.);
#958=ORIENTED_EDGE('',*,*,#712,.F.);
#959=ORIENTED_EDGE('',*,*,#713,.T.);
#960=ORIENTED_EDGE('',*,*,#711,.T.);
#961=ORIENTED_EDGE('',*,*,#713,.F.);
#962=ORIENTED_EDGE('',*,*,#700,.F.);
#963=ORIENTED_EDGE('',*,*,#714,.T.);
#964=ORIENTED_EDGE('',*,*,#715,.F.);
#965=ORIENTED_EDGE('',*,*,#716,.F.);
#966=ORIENTED_EDGE('',*,*,#698,.T.);
#967=ORIENTED_EDGE('',*,*,#717,.F.);
#968=ORIENTED_EDGE('',*,*,#718,.F.);
#969=ORIENTED_EDGE('',*,*,#719,.F.);
#970=ORIENTED_EDGE('',*,*,#699,.T.);
#971=ORIENTED_EDGE('',*,*,#719,.T.);
#972=ORIENTED_EDGE('',*,*,#720,.F.);
#973=ORIENTED_EDGE('',*,*,#714,.F.);
#974=ORIENTED_EDGE('',*,*,#720,.T.);
#975=ORIENTED_EDGE('',*,*,#718,.T.);
#976=ORIENTED_EDGE('',*,*,#721,.F.);
#977=ORIENTED_EDGE('',*,*,#715,.T.);
#978=ORIENTED_EDGE('',*,*,#712,.T.);
#979=ORIENTED_EDGE('',*,*,#722,.F.);
#980=ORIENTED_EDGE('',*,*,#723,.T.);
#981=ORIENTED_EDGE('',*,*,#710,.T.);
#982=ORIENTED_EDGE('',*,*,#723,.F.);
#983=ORIENTED_EDGE('',*,*,#696,.F.);
#984=ORIENTED_EDGE('',*,*,#724,.T.);
#985=ORIENTED_EDGE('',*,*,#725,.F.);
#986=ORIENTED_EDGE('',*,*,#726,.F.);
#987=ORIENTED_EDGE('',*,*,#694,.T.);
#988=ORIENTED_EDGE('',*,*,#727,.F.);
#989=ORIENTED_EDGE('',*,*,#728,.F.);
#990=ORIENTED_EDGE('',*,*,#729,.F.);
#991=ORIENTED_EDGE('',*,*,#695,.T.);
#992=ORIENTED_EDGE('',*,*,#729,.T.);
#993=ORIENTED_EDGE('',*,*,#730,.F.);
#994=ORIENTED_EDGE('',*,*,#724,.F.);
#995=ORIENTED_EDGE('',*,*,#730,.T.);
#996=ORIENTED_EDGE('',*,*,#728,.T.);
#997=ORIENTED_EDGE('',*,*,#731,.F.);
#998=ORIENTED_EDGE('',*,*,#732,.F.);
#999=ORIENTED_EDGE('',*,*,#725,.T.);
#1000=ORIENTED_EDGE('',*,*,#722,.T.);
#1001=ORIENTED_EDGE('',*,*,#717,.T.);
#1002=ORIENTED_EDGE('',*,*,#697,.T.);
#1003=ORIENTED_EDGE('',*,*,#726,.T.);
#1004=ORIENTED_EDGE('',*,*,#732,.T.);
#1005=ORIENTED_EDGE('',*,*,#733,.T.);
#1006=ORIENTED_EDGE('',*,*,#688,.F.);
#1007=ORIENTED_EDGE('',*,*,#734,.F.);
#1008=ORIENTED_EDGE('',*,*,#701,.T.);
#1009=ORIENTED_EDGE('',*,*,#716,.T.);
#1010=ORIENTED_EDGE('',*,*,#721,.T.);
#1011=ORIENTED_EDGE('',*,*,#636,.T.);
#1012=ORIENTED_EDGE('',*,*,#633,.T.);
#1013=ORIENTED_EDGE('',*,*,#630,.T.);
#1014=ORIENTED_EDGE('',*,*,#627,.T.);
#1015=ORIENTED_EDGE('',*,*,#624,.T.);
#1016=ORIENTED_EDGE('',*,*,#645,.T.);
#1017=ORIENTED_EDGE('',*,*,#642,.T.);
#1018=ORIENTED_EDGE('',*,*,#639,.T.);
#1019=ORIENTED_EDGE('',*,*,#735,.F.);
#1020=ORIENTED_EDGE('',*,*,#736,.T.);
#1021=ORIENTED_EDGE('',*,*,#709,.T.);
#1022=ORIENTED_EDGE('',*,*,#736,.F.);
#1023=ORIENTED_EDGE('',*,*,#706,.F.);
#1024=ORIENTED_EDGE('',*,*,#737,.T.);
#1025=ORIENTED_EDGE('',*,*,#738,.F.);
#1026=ORIENTED_EDGE('',*,*,#739,.F.);
#1027=ORIENTED_EDGE('',*,*,#704,.T.);
#1028=ORIENTED_EDGE('',*,*,#740,.F.);
#1029=ORIENTED_EDGE('',*,*,#741,.F.);
#1030=ORIENTED_EDGE('',*,*,#742,.F.);
#1031=ORIENTED_EDGE('',*,*,#705,.T.);
#1032=ORIENTED_EDGE('',*,*,#742,.T.);
#1033=ORIENTED_EDGE('',*,*,#743,.F.);
#1034=ORIENTED_EDGE('',*,*,#737,.F.);
#1035=ORIENTED_EDGE('',*,*,#743,.T.);
#1036=ORIENTED_EDGE('',*,*,#741,.T.);
#1037=ORIENTED_EDGE('',*,*,#744,.F.);
#1038=ORIENTED_EDGE('',*,*,#738,.T.);
#1039=ORIENTED_EDGE('',*,*,#735,.T.);
#1040=ORIENTED_EDGE('',*,*,#745,.F.);
#1041=ORIENTED_EDGE('',*,*,#746,.T.);
#1042=ORIENTED_EDGE('',*,*,#708,.T.);
#1043=ORIENTED_EDGE('',*,*,#746,.F.);
#1044=ORIENTED_EDGE('',*,*,#692,.F.);
#1045=ORIENTED_EDGE('',*,*,#747,.T.);
#1046=ORIENTED_EDGE('',*,*,#748,.F.);
#1047=ORIENTED_EDGE('',*,*,#749,.F.);
#1048=ORIENTED_EDGE('',*,*,#690,.T.);
#1049=ORIENTED_EDGE('',*,*,#750,.F.);
#1050=ORIENTED_EDGE('',*,*,#751,.F.);
#1051=ORIENTED_EDGE('',*,*,#752,.F.);
#1052=ORIENTED_EDGE('',*,*,#691,.T.);
#1053=ORIENTED_EDGE('',*,*,#752,.T.);
#1054=ORIENTED_EDGE('',*,*,#753,.F.);
#1055=ORIENTED_EDGE('',*,*,#747,.F.);
#1056=ORIENTED_EDGE('',*,*,#753,.T.);
#1057=ORIENTED_EDGE('',*,*,#751,.T.);
#1058=ORIENTED_EDGE('',*,*,#754,.F.);
#1059=ORIENTED_EDGE('',*,*,#755,.F.);
#1060=ORIENTED_EDGE('',*,*,#748,.T.);
#1061=ORIENTED_EDGE('',*,*,#745,.T.);
#1062=ORIENTED_EDGE('',*,*,#727,.T.);
#1063=ORIENTED_EDGE('',*,*,#693,.T.);
#1064=ORIENTED_EDGE('',*,*,#749,.T.);
#1065=ORIENTED_EDGE('',*,*,#755,.T.);
#1066=ORIENTED_EDGE('',*,*,#756,.T.);
#1067=ORIENTED_EDGE('',*,*,#689,.F.);
#1068=ORIENTED_EDGE('',*,*,#733,.F.);
#1069=ORIENTED_EDGE('',*,*,#731,.T.);
#1070=ORIENTED_EDGE('',*,*,#702,.T.);
#1071=ORIENTED_EDGE('',*,*,#734,.T.);
#1072=ORIENTED_EDGE('',*,*,#687,.F.);
#1073=ORIENTED_EDGE('',*,*,#757,.F.);
#1074=ORIENTED_EDGE('',*,*,#740,.T.);
#1075=ORIENTED_EDGE('',*,*,#703,.T.);
#1076=ORIENTED_EDGE('',*,*,#757,.T.);
#1077=ORIENTED_EDGE('',*,*,#686,.F.);
#1078=ORIENTED_EDGE('',*,*,#756,.F.);
#1079=ORIENTED_EDGE('',*,*,#754,.T.);
#1080=ORIENTED_EDGE('',*,*,#750,.T.);
#1081=ORIENTED_EDGE('',*,*,#707,.T.);
#1082=ORIENTED_EDGE('',*,*,#739,.T.);
#1083=ORIENTED_EDGE('',*,*,#744,.T.);
#1084=ORIENTED_EDGE('',*,*,#662,.F.);
#1085=ORIENTED_EDGE('',*,*,#685,.F.);
#1086=ORIENTED_EDGE('',*,*,#664,.F.);
#1087=ORIENTED_EDGE('',*,*,#681,.F.);
#1088=ORIENTED_EDGE('',*,*,#613,.T.);
#1089=ORIENTED_EDGE('',*,*,#666,.F.);
#1090=ORIENTED_EDGE('',*,*,#684,.F.);
#1091=ORIENTED_EDGE('',*,*,#675,.F.);
#1092=PLANE('',#1216);
#1093=PLANE('',#1218);
#1094=PLANE('',#1225);
#1095=PLANE('',#1228);
#1096=PLANE('',#1230);
#1097=PLANE('',#1242);
#1098=PLANE('',#1246);
#1099=PLANE('',#1250);
#1100=PLANE('',#1254);
#1101=PLANE('',#1261);
#1102=PLANE('',#1265);
#1103=PLANE('',#1269);
#1104=PLANE('',#1273);
#1105=PLANE('',#1293);
#1106=PLANE('',#1294);
#1107=PLANE('',#1295);
#1108=PLANE('',#1296);
#1109=PLANE('',#1297);
#1110=PLANE('',#1302);
#1111=PLANE('',#1304);
#1112=PLANE('',#1306);
#1113=PLANE('',#1308);
#1114=PLANE('',#1312);
#1115=PLANE('',#1313);
#1116=PLANE('',#1316);
#1117=PLANE('',#1319);
#1118=PLANE('',#1320);
#1119=PLANE('',#1323);
#1120=PLANE('',#1324);
#1121=PLANE('',#1327);
#1122=PLANE('',#1328);
#1123=PLANE('',#1331);
#1124=PLANE('',#1334);
#1125=PLANE('',#1335);
#1126=PLANE('',#1338);
#1127=PLANE('',#1339);
#1128=PLANE('',#1340);
#1129=PLANE('',#1341);
#1130=PLANE('',#1342);
#1131=PLANE('',#1343);
#1132=ADVANCED_FACE('',(#56),#1092,.F.);
#1133=ADVANCED_FACE('',(#57),#1093,.T.);
#1134=ADVANCED_FACE('',(#58),#30,.T.);
#1135=ADVANCED_FACE('',(#59),#1094,.F.);
#1136=ADVANCED_FACE('',(#60),#31,.T.);
#1137=ADVANCED_FACE('',(#61),#1095,.F.);
#1138=ADVANCED_FACE('',(#62),#1096,.F.);
#1139=ADVANCED_FACE('',(#63),#26,.T.);
#1140=ADVANCED_FACE('',(#64),#32,.T.);
#1141=ADVANCED_FACE('',(#65),#27,.T.);
#1142=ADVANCED_FACE('',(#66),#1097,.F.);
#1143=ADVANCED_FACE('',(#67),#33,.F.);
#1144=ADVANCED_FACE('',(#68),#1098,.F.);
#1145=ADVANCED_FACE('',(#69),#34,.F.);
#1146=ADVANCED_FACE('',(#70),#1099,.F.);
#1147=ADVANCED_FACE('',(#71),#35,.F.);
#1148=ADVANCED_FACE('',(#72),#1100,.F.);
#1149=ADVANCED_FACE('',(#73),#36,.F.);
#1150=ADVANCED_FACE('',(#74),#37,.F.);
#1151=ADVANCED_FACE('',(#75),#1101,.T.);
#1152=ADVANCED_FACE('',(#76),#38,.F.);
#1153=ADVANCED_FACE('',(#77),#1102,.T.);
#1154=ADVANCED_FACE('',(#78),#39,.F.);
#1155=ADVANCED_FACE('',(#79),#1103,.T.);
#1156=ADVANCED_FACE('',(#80),#40,.F.);
#1157=ADVANCED_FACE('',(#81),#1104,.T.);
#1158=ADVANCED_FACE('',(#82),#28,.T.);
#1159=ADVANCED_FACE('',(#83),#41,.T.);
#1160=ADVANCED_FACE('',(#84),#42,.T.);
#1161=ADVANCED_FACE('',(#85),#29,.T.);
#1162=ADVANCED_FACE('',(#86),#43,.T.);
#1163=ADVANCED_FACE('',(#87),#44,.T.);
#1164=ADVANCED_FACE('',(#88),#45,.T.);
#1165=ADVANCED_FACE('',(#89),#46,.T.);
#1166=ADVANCED_FACE('',(#90),#47,.T.);
#1167=ADVANCED_FACE('',(#91),#1105,.T.);
#1168=ADVANCED_FACE('',(#92,#15),#1106,.T.);
#1169=ADVANCED_FACE('',(#93,#16,#17,#18,#19,#20),#1107,.T.);
#1170=ADVANCED_FACE('',(#94),#1108,.T.);
#1171=ADVANCED_FACE('',(#95),#1109,.T.);
#1172=ADVANCED_FACE('',(#96),#1110,.T.);
#1173=ADVANCED_FACE('',(#97),#1111,.T.);
#1174=ADVANCED_FACE('',(#98),#1112,.T.);
#1175=ADVANCED_FACE('',(#99),#1113,.T.);
#1176=ADVANCED_FACE('',(#100),#48,.F.);
#1177=ADVANCED_FACE('',(#101),#1114,.T.);
#1178=ADVANCED_FACE('',(#102),#1115,.T.);
#1179=ADVANCED_FACE('',(#103),#49,.T.);
#1180=ADVANCED_FACE('',(#104,#21),#1116,.T.);
#1181=ADVANCED_FACE('',(#105),#50,.F.);
#1182=ADVANCED_FACE('',(#106),#1117,.T.);
#1183=ADVANCED_FACE('',(#107),#1118,.T.);
#1184=ADVANCED_FACE('',(#108),#51,.T.);
#1185=ADVANCED_FACE('',(#109,#22),#1119,.T.);
#1186=ADVANCED_FACE('',(#110,#23),#1120,.T.);
#1187=ADVANCED_FACE('',(#111),#52,.F.);
#1188=ADVANCED_FACE('',(#112),#1121,.T.);
#1189=ADVANCED_FACE('',(#113),#1122,.T.);
#1190=ADVANCED_FACE('',(#114),#53,.T.);
#1191=ADVANCED_FACE('',(#115,#24),#1123,.T.);
#1192=ADVANCED_FACE('',(#116),#54,.F.);
#1193=ADVANCED_FACE('',(#117),#1124,.T.);
#1194=ADVANCED_FACE('',(#118),#1125,.T.);
#1195=ADVANCED_FACE('',(#119),#55,.T.);
#1196=ADVANCED_FACE('',(#120,#25),#1126,.T.);
#1197=ADVANCED_FACE('',(#121),#1127,.T.);
#1198=ADVANCED_FACE('',(#122),#1128,.T.);
#1199=ADVANCED_FACE('',(#123),#1129,.T.);
#1200=ADVANCED_FACE('',(#124),#1130,.T.);
#1201=ADVANCED_FACE('',(#125),#1131,.T.);
#1202=CLOSED_SHELL('',(#1132,#1133,#1134,#1135,#1136,#1137,#1138,#1139,
#1140,#1141,#1142,#1143,#1144,#1145,#1146,#1147,#1148,#1149,#1150,#1151,
#1152,#1153,#1154,#1155,#1156,#1157,#1158,#1159,#1160,#1161,#1162,#1163,
#1164,#1165,#1166,#1167,#1168,#1169,#1170,#1171,#1172,#1173,#1174,#1175,
#1176,#1177,#1178,#1179,#1180,#1181,#1182,#1183,#1184,#1185,#1186,#1187,
#1188,#1189,#1190,#1191,#1192,#1193,#1194,#1195,#1196,#1197,#1198,#1199,
#1200,#1201));
#1203=DERIVED_UNIT_ELEMENT(#1205,1.);
#1204=DERIVED_UNIT_ELEMENT(#2062,-3.);
#1205=(
MASS_UNIT()
NAMED_UNIT(*)
SI_UNIT(.KILO.,.GRAM.)
);
#1206=DERIVED_UNIT((#1203,#1204));
#1207=MEASURE_REPRESENTATION_ITEM('density measure',
POSITIVE_RATIO_MEASURE(7850.),#1206);
#1208=PROPERTY_DEFINITION_REPRESENTATION(#1213,#1210);
#1209=PROPERTY_DEFINITION_REPRESENTATION(#1214,#1211);
#1210=REPRESENTATION('material name',(#1212),#2059);
#1211=REPRESENTATION('density',(#1207),#2059);
#1212=DESCRIPTIVE_REPRESENTATION_ITEM('Steel','Steel');
#1213=PROPERTY_DEFINITION('material property','material name',#2069);
#1214=PROPERTY_DEFINITION('material property','density of part',#2069);
#1215=AXIS2_PLACEMENT_3D('',#1711,#1344,#1345);
#1216=AXIS2_PLACEMENT_3D('',#1712,#1346,#1347);
#1217=AXIS2_PLACEMENT_3D('',#1722,#1352,#1353);
#1218=AXIS2_PLACEMENT_3D('',#1723,#1354,#1355);
#1219=AXIS2_PLACEMENT_3D('',#1725,#1356,#1357);
#1220=AXIS2_PLACEMENT_3D('',#1727,#1358,#1359);
#1221=AXIS2_PLACEMENT_3D('',#1731,#1361,#1362);
#1222=AXIS2_PLACEMENT_3D('',#1735,#1364,#1365);
#1223=AXIS2_PLACEMENT_3D('',#1737,#1367,#1368);
#1224=AXIS2_PLACEMENT_3D('',#1739,#1369,#1370);
#1225=AXIS2_PLACEMENT_3D('',#1741,#1372,#1373);
#1226=AXIS2_PLACEMENT_3D('',#1745,#1376,#1377);
#1227=AXIS2_PLACEMENT_3D('',#1747,#1378,#1379);
#1228=AXIS2_PLACEMENT_3D('',#1749,#1381,#1382);
#1229=AXIS2_PLACEMENT_3D('',#1753,#1384,#1385);
#1230=AXIS2_PLACEMENT_3D('',#1755,#1387,#1388);
#1231=AXIS2_PLACEMENT_3D('',#1757,#1389,#1390);
#1232=AXIS2_PLACEMENT_3D('',#1760,#1392,#1393);
#1233=AXIS2_PLACEMENT_3D('',#1761,#1394,#1395);
#1234=AXIS2_PLACEMENT_3D('',#1763,#1396,#1397);
#1235=AXIS2_PLACEMENT_3D('',#1765,#1398,#1399);
#1236=AXIS2_PLACEMENT_3D('',#1766,#1400,#1401);
#1237=AXIS2_PLACEMENT_3D('',#1767,#1402,#1403);
#1238=AXIS2_PLACEMENT_3D('',#1769,#1404,#1405);
#1239=AXIS2_PLACEMENT_3D('',#1771,#1407,#1408);
#1240=AXIS2_PLACEMENT_3D('',#1773,#1409,#1410);
#1241=AXIS2_PLACEMENT_3D('',#1774,#1411,#1412);
#1242=AXIS2_PLACEMENT_3D('',#1775,#1413,#1414);
#1243=AXIS2_PLACEMENT_3D('',#1784,#1419,#1420);
#1244=AXIS2_PLACEMENT_3D('',#1786,#1421,#1422);
#1245=AXIS2_PLACEMENT_3D('',#1788,#1423,#1424);
#1246=AXIS2_PLACEMENT_3D('',#1790,#1426,#1427);
#1247=AXIS2_PLACEMENT_3D('',#1796,#1431,#1432);
#1248=AXIS2_PLACEMENT_3D('',#1798,#1433,#1434);
#1249=AXIS2_PLACEMENT_3D('',#1800,#1435,#1436);
#1250=AXIS2_PLACEMENT_3D('',#1802,#1438,#1439);
#1251=AXIS2_PLACEMENT_3D('',#1808,#1443,#1444);
#1252=AXIS2_PLACEMENT_3D('',#1810,#1445,#1446);
#1253=AXIS2_PLACEMENT_3D('',#1812,#1447,#1448);
#1254=AXIS2_PLACEMENT_3D('',#1814,#1450,#1451);
#1255=AXIS2_PLACEMENT_3D('',#1820,#1455,#1456);
#1256=AXIS2_PLACEMENT_3D('',#1821,#1457,#1458);
#1257=AXIS2_PLACEMENT_3D('',#1822,#1459,#1460);
#1258=AXIS2_PLACEMENT_3D('',#1823,#1461,#1462);
#1259=AXIS2_PLACEMENT_3D('',#1825,#1463,#1464);
#1260=AXIS2_PLACEMENT_3D('',#1828,#1466,#1467);
#1261=AXIS2_PLACEMENT_3D('',#1829,#1468,#1469);
#1262=AXIS2_PLACEMENT_3D('',#1830,#1470,#1471);
#1263=AXIS2_PLACEMENT_3D('',#1832,#1472,#1473);
#1264=AXIS2_PLACEMENT_3D('',#1835,#1475,#1476);
#1265=AXIS2_PLACEMENT_3D('',#1836,#1477,#1478);
#1266=AXIS2_PLACEMENT_3D('',#1837,#1479,#1480);
#1267=AXIS2_PLACEMENT_3D('',#1839,#1481,#1482);
#1268=AXIS2_PLACEMENT_3D('',#1842,#1484,#1485);
#1269=AXIS2_PLACEMENT_3D('',#1843,#1486,#1487);
#1270=AXIS2_PLACEMENT_3D('',#1844,#1488,#1489);
#1271=AXIS2_PLACEMENT_3D('',#1846,#1490,#1491);
#1272=AXIS2_PLACEMENT_3D('',#1849,#1493,#1494);
#1273=AXIS2_PLACEMENT_3D('',#1850,#1495,#1496);
#1274=AXIS2_PLACEMENT_3D('',#1851,#1497,#1498);
#1275=AXIS2_PLACEMENT_3D('',#1854,#1499,#1500);
#1276=AXIS2_PLACEMENT_3D('',#1856,#1501,#1502);
#1277=AXIS2_PLACEMENT_3D('',#1857,#1503,#1504);
#1278=AXIS2_PLACEMENT_3D('',#1858,#1505,#1506);
#1279=AXIS2_PLACEMENT_3D('',#1861,#1507,#1508);
#1280=AXIS2_PLACEMENT_3D('',#1864,#1511,#1512);
#1281=AXIS2_PLACEMENT_3D('',#1868,#1514,#1515);
#1282=AXIS2_PLACEMENT_3D('',#1870,#1517,#1518);
#1283=AXIS2_PLACEMENT_3D('',#1873,#1519,#1520);
#1284=AXIS2_PLACEMENT_3D('',#1875,#1521,#1522);
#1285=AXIS2_PLACEMENT_3D('',#1876,#1523,#1524);
#1286=AXIS2_PLACEMENT_3D('',#1877,#1525,#1526);
#1287=AXIS2_PLACEMENT_3D('',#1880,#1527,#1528);
#1288=AXIS2_PLACEMENT_3D('',#1883,#1531,#1532);
#1289=AXIS2_PLACEMENT_3D('',#1886,#1535,#1536);
#1290=AXIS2_PLACEMENT_3D('',#1890,#1538,#1539);
#1291=AXIS2_PLACEMENT_3D('',#1892,#1541,#1542);
#1292=AXIS2_PLACEMENT_3D('',#1895,#1545,#1546);
#1293=AXIS2_PLACEMENT_3D('',#1898,#1549,#1550);
#1294=AXIS2_PLACEMENT_3D('',#1900,#1552,#1553);
#1295=AXIS2_PLACEMENT_3D('',#1902,#1555,#1556);
#1296=AXIS2_PLACEMENT_3D('',#1913,#1563,#1564);
#1297=AXIS2_PLACEMENT_3D('',#1914,#1565,#1566);
#1298=AXIS2_PLACEMENT_3D('',#1919,#1568,#1569);
#1299=AXIS2_PLACEMENT_3D('',#1927,#1573,#1574);
#1300=AXIS2_PLACEMENT_3D('',#1935,#1578,#1579);
#1301=AXIS2_PLACEMENT_3D('',#1947,#1585,#1586);
#1302=AXIS2_PLACEMENT_3D('',#1951,#1589,#1590);
#1303=AXIS2_PLACEMENT_3D('',#1953,#1591,#1592);
#1304=AXIS2_PLACEMENT_3D('',#1954,#1593,#1594);
#1305=AXIS2_PLACEMENT_3D('',#1956,#1595,#1596);
#1306=AXIS2_PLACEMENT_3D('',#1957,#1597,#1598);
#1307=AXIS2_PLACEMENT_3D('',#1959,#1599,#1600);
#1308=AXIS2_PLACEMENT_3D('',#1960,#1601,#1602);
#1309=AXIS2_PLACEMENT_3D('',#1962,#1603,#1604);
#1310=AXIS2_PLACEMENT_3D('',#1963,#1605,#1606);
#1311=AXIS2_PLACEMENT_3D('',#1965,#1607,#1608);
#1312=AXIS2_PLACEMENT_3D('',#1967,#1610,#1611);
#1313=AXIS2_PLACEMENT_3D('',#1973,#1615,#1616);
#1314=AXIS2_PLACEMENT_3D('',#1979,#1620,#1621);
#1315=AXIS2_PLACEMENT_3D('',#1980,#1622,#1623);
#1316=AXIS2_PLACEMENT_3D('',#1981,#1624,#1625);
#1317=AXIS2_PLACEMENT_3D('',#1983,#1627,#1628);
#1318=AXIS2_PLACEMENT_3D('',#1985,#1629,#1630);
#1319=AXIS2_PLACEMENT_3D('',#1987,#1632,#1633);
#1320=AXIS2_PLACEMENT_3D('',#1993,#1637,#1638);
#1321=AXIS2_PLACEMENT_3D('',#1999,#1642,#1643);
#1322=AXIS2_PLACEMENT_3D('',#2000,#1644,#1645);
#1323=AXIS2_PLACEMENT_3D('',#2001,#1646,#1647);
#1324=AXIS2_PLACEMENT_3D('',#2005,#1650,#1651);
#1325=AXIS2_PLACEMENT_3D('',#2008,#1654,#1655);
#1326=AXIS2_PLACEMENT_3D('',#2010,#1656,#1657);
#1327=AXIS2_PLACEMENT_3D('',#2012,#1659,#1660);
#1328=AXIS2_PLACEMENT_3D('',#2018,#1664,#1665);
#1329=AXIS2_PLACEMENT_3D('',#2024,#1669,#1670);
#1330=AXIS2_PLACEMENT_3D('',#2025,#1671,#1672);
#1331=AXIS2_PLACEMENT_3D('',#2026,#1673,#1674);
#1332=AXIS2_PLACEMENT_3D('',#2028,#1676,#1677);
#1333=AXIS2_PLACEMENT_3D('',#2030,#1678,#1679);
#1334=AXIS2_PLACEMENT_3D('',#2032,#1681,#1682);
#1335=AXIS2_PLACEMENT_3D('',#2038,#1686,#1687);
#1336=AXIS2_PLACEMENT_3D('',#2044,#1691,#1692);
#1337=AXIS2_PLACEMENT_3D('',#2045,#1693,#1694);
#1338=AXIS2_PLACEMENT_3D('',#2046,#1695,#1696);
#1339=AXIS2_PLACEMENT_3D('',#2050,#1699,#1700);
#1340=AXIS2_PLACEMENT_3D('',#2052,#1702,#1703);
#1341=AXIS2_PLACEMENT_3D('',#2054,#1705,#1706);
#1342=AXIS2_PLACEMENT_3D('',#2055,#1707,#1708);
#1343=AXIS2_PLACEMENT_3D('',#2056,#1709,#1710);
#1344=DIRECTION('axis',(0.,0.,1.));
#1345=DIRECTION('refdir',(1.,0.,0.));
#1346=DIRECTION('center_axis',(1.,0.,0.));
#1347=DIRECTION('ref_axis',(0.,0.,1.));
#1348=DIRECTION('',(0.,-1.,0.));
#1349=DIRECTION('',(0.,0.,-1.));
#1350=DIRECTION('',(0.,-1.,0.));
#1351=DIRECTION('',(0.,0.,1.));
#1352=DIRECTION('center_axis',(1.,0.,0.));
#1353=DIRECTION('ref_axis',(0.,0.,1.));
#1354=DIRECTION('center_axis',(0.,1.,0.));
#1355=DIRECTION('ref_axis',(-1.,0.,0.));
#1356=DIRECTION('center_axis',(0.,-1.,0.));
#1357=DIRECTION('ref_axis',(0.,0.,1.));
#1358=DIRECTION('center_axis',(0.,1.,0.));
#1359=DIRECTION('ref_axis',(-1.,0.,0.));
#1360=DIRECTION('',(1.,0.,0.));
#1361=DIRECTION('center_axis',(0.,1.,0.));
#1362=DIRECTION('ref_axis',(-1.,0.,0.));
#1363=DIRECTION('',(0.,0.,-1.));
#1364=DIRECTION('center_axis',(0.,-1.,0.));
#1365=DIRECTION('ref_axis',(0.,0.,1.));
#1366=DIRECTION('',(-1.,0.,6.43607550507337E-17));
#1367=DIRECTION('center_axis',(0.,-1.,0.));
#1368=DIRECTION('ref_axis',(-1.,0.,0.));
#1369=DIRECTION('center_axis',(0.,1.,0.));
#1370=DIRECTION('ref_axis',(-1.,0.,0.));
#1371=DIRECTION('',(0.,-1.,0.));
#1372=DIRECTION('center_axis',(0.,0.,-1.));
#1373=DIRECTION('ref_axis',(1.,0.,0.));
#1374=DIRECTION('',(-1.,0.,0.));
#1375=DIRECTION('',(0.,-1.,0.));
#1376=DIRECTION('center_axis',(0.,-1.,0.));
#1377=DIRECTION('ref_axis',(-1.,0.,0.));
#1378=DIRECTION('center_axis',(0.,1.,0.));
#1379=DIRECTION('ref_axis',(-1.,0.,0.));
#1380=DIRECTION('',(0.,-1.,0.));
#1381=DIRECTION('center_axis',(-1.,0.,0.));
#1382=DIRECTION('ref_axis',(0.,0.,-1.));
#1383=DIRECTION('',(0.,1.,0.));
#1384=DIRECTION('center_axis',(-1.,0.,0.));
#1385=DIRECTION('ref_axis',(0.,0.,-1.));
#1386=DIRECTION('',(0.,0.,1.));
#1387=DIRECTION('center_axis',(0.,1.,0.));
#1388=DIRECTION('ref_axis',(-1.,0.,0.));
#1389=DIRECTION('center_axis',(0.,1.,0.));
#1390=DIRECTION('ref_axis',(0.707106781186548,0.,0.707106781186548));
#1391=DIRECTION('',(1.,0.,-6.43607550507337E-17));
#1392=DIRECTION('center_axis',(0.,1.,0.));
#1393=DIRECTION('ref_axis',(-0.707106781186548,0.,0.707106781186548));
#1394=DIRECTION('center_axis',(0.408248290463863,-0.408248290463863,-0.816496580927726));
#1395=DIRECTION('ref_axis',(0.577350269189626,-0.577350269189625,0.577350269189626));
#1396=DIRECTION('center_axis',(1.,0.,0.));
#1397=DIRECTION('ref_axis',(0.,-1.,0.));
#1398=DIRECTION('center_axis',(0.,5.55111512312578E-16,1.));
#1399=DIRECTION('ref_axis',(1.,0.,0.));
#1400=DIRECTION('center_axis',(0.,-1.,0.));
#1401=DIRECTION('ref_axis',(0.,0.,1.));
#1402=DIRECTION('center_axis',(-1.,0.,6.43607550507337E-17));
#1403=DIRECTION('ref_axis',(0.,-0.707106781186548,0.707106781186547));
#1404=DIRECTION('center_axis',(-1.,0.,0.));
#1405=DIRECTION('ref_axis',(0.,0.,1.));
#1406=DIRECTION('',(1.,0.,-6.43607550507337E-17));
#1407=DIRECTION('center_axis',(0.408248290463862,-0.816496580927726,-0.408248290463863));
#1408=DIRECTION('ref_axis',(-0.577350269189626,-0.577350269189625,0.577350269189626));
#1409=DIRECTION('center_axis',(0.,-1.,0.));
#1410=DIRECTION('ref_axis',(-1.,0.,5.55111512312578E-16));
#1411=DIRECTION('center_axis',(1.66533453693774E-15,0.,1.));
#1412=DIRECTION('ref_axis',(0.,-1.,0.));
#1413=DIRECTION('center_axis',(0.,1.,0.));
#1414=DIRECTION('ref_axis',(0.,0.,-1.));
#1415=DIRECTION('',(3.80104887175517E-16,0.,1.));
#1416=DIRECTION('',(-1.,0.,0.));
#1417=DIRECTION('',(0.,0.,-1.));
#1418=DIRECTION('',(-1.,0.,0.));
#1419=DIRECTION('center_axis',(-1.,0.,0.));
#1420=DIRECTION('ref_axis',(0.,1.,0.));
#1421=DIRECTION('center_axis',(1.,0.,-3.80104887175517E-16));
#1422=DIRECTION('ref_axis',(0.,1.,0.));
#1423=DIRECTION('center_axis',(-1.,0.,0.));
#1424=DIRECTION('ref_axis',(0.,1.,0.));
#1425=DIRECTION('',(-1.,0.,0.));
#1426=DIRECTION('center_axis',(0.,-3.70074341541718E-16,1.));
#1427=DIRECTION('ref_axis',(0.,1.,3.70074341541718E-16));
#1428=DIRECTION('',(-1.40667065838268E-31,-1.,-3.70074341541718E-16));
#1429=DIRECTION('',(0.,1.,3.70074341541718E-16));
#1430=DIRECTION('',(-1.,0.,0.));
#1431=DIRECTION('center_axis',(-1.,0.,0.));
#1432=DIRECTION('ref_axis',(0.,2.22044604925032E-15,1.));
#1433=DIRECTION('center_axis',(1.,0.,-3.80104887175517E-16));
#1434=DIRECTION('ref_axis',(0.,2.22044604925032E-15,1.));
#1435=DIRECTION('center_axis',(-1.,0.,0.));
#1436=DIRECTION('ref_axis',(0.,2.22044604925032E-15,1.));
#1437=DIRECTION('',(-1.,0.,0.));
#1438=DIRECTION('center_axis',(0.,-1.,4.93432455388958E-16));
#1439=DIRECTION('ref_axis',(0.,4.93432455388958E-16,1.));
#1440=DIRECTION('',(-3.80104887175517E-16,-4.93432455388958E-16,-1.));
#1441=DIRECTION('',(0.,4.93432455388958E-16,1.));
#1442=DIRECTION('',(-1.,0.,0.));
#1443=DIRECTION('center_axis',(-1.,0.,0.));
#1444=DIRECTION('ref_axis',(0.,-1.,1.11022302462516E-15));
#1445=DIRECTION('center_axis',(1.,0.,-3.80104887175517E-16));
#1446=DIRECTION('ref_axis',(0.,-1.,1.11022302462516E-15));
#1447=DIRECTION('center_axis',(-1.,0.,0.));
#1448=DIRECTION('ref_axis',(0.,-1.,1.11022302462516E-15));
#1449=DIRECTION('',(-1.,0.,0.));
#1450=DIRECTION('center_axis',(0.,0.,-1.));
#1451=DIRECTION('ref_axis',(0.,-1.,0.));
#1452=DIRECTION('',(0.,1.,0.));
#1453=DIRECTION('',(0.,-1.,0.));
#1454=DIRECTION('',(-1.,0.,0.));
#1455=DIRECTION('center_axis',(-1.,0.,0.));
#1456=DIRECTION('ref_axis',(0.,0.,-1.));
#1457=DIRECTION('center_axis',(1.,0.,-3.80104887175517E-16));
#1458=DIRECTION('ref_axis',(0.,0.,-1.));
#1459=DIRECTION('center_axis',(-1.,0.,0.));
#1460=DIRECTION('ref_axis',(0.,0.,-1.));
#1461=DIRECTION('center_axis',(0.,-1.,0.));
#1462=DIRECTION('ref_axis',(1.,0.,0.));
#1463=DIRECTION('center_axis',(0.,-1.,0.));
#1464=DIRECTION('ref_axis',(1.,0.,0.));
#1465=DIRECTION('',(0.,-1.,0.));
#1466=DIRECTION('center_axis',(0.,-1.,0.));
#1467=DIRECTION('ref_axis',(1.,0.,0.));
#1468=DIRECTION('center_axis',(0.,1.,0.));
#1469=DIRECTION('ref_axis',(0.,0.,1.));
#1470=DIRECTION('center_axis',(0.,-1.,0.));
#1471=DIRECTION('ref_axis',(1.,0.,0.));
#1472=DIRECTION('center_axis',(0.,-1.,0.));
#1473=DIRECTION('ref_axis',(1.,0.,0.));
#1474=DIRECTION('',(0.,-1.,0.));
#1475=DIRECTION('center_axis',(0.,-1.,0.));
#1476=DIRECTION('ref_axis',(1.,0.,0.));
#1477=DIRECTION('center_axis',(0.,1.,0.));
#1478=DIRECTION('ref_axis',(0.,0.,1.));
#1479=DIRECTION('center_axis',(0.,-1.,0.));
#1480=DIRECTION('ref_axis',(1.,0.,0.));
#1481=DIRECTION('center_axis',(0.,-1.,0.));
#1482=DIRECTION('ref_axis',(1.,0.,0.));
#1483=DIRECTION('',(0.,-1.,0.));
#1484=DIRECTION('center_axis',(0.,-1.,0.));
#1485=DIRECTION('ref_axis',(1.,0.,0.));
#1486=DIRECTION('center_axis',(0.,1.,0.));
#1487=DIRECTION('ref_axis',(0.,0.,1.));
#1488=DIRECTION('center_axis',(0.,-1.,0.));
#1489=DIRECTION('ref_axis',(1.,0.,0.));
#1490=DIRECTION('center_axis',(0.,-1.,0.));
#1491=DIRECTION('ref_axis',(1.,0.,0.));
#1492=DIRECTION('',(0.,-1.,0.));
#1493=DIRECTION('center_axis',(0.,-1.,0.));
#1494=DIRECTION('ref_axis',(1.,0.,0.));
#1495=DIRECTION('center_axis',(0.,1.,0.));
#1496=DIRECTION('ref_axis',(0.,0.,1.));
#1497=DIRECTION('center_axis',(-0.816496580927726,-0.408248290463863,-0.408248290463863));
#1498=DIRECTION('ref_axis',(0.577350269189626,-0.577350269189626,-0.577350269189626));
#1499=DIRECTION('center_axis',(1.,0.,0.));
#1500=DIRECTION('ref_axis',(0.,0.,-1.));
#1501=DIRECTION('center_axis',(0.,-1.,0.));
#1502=DIRECTION('ref_axis',(1.,0.,0.));
#1503=DIRECTION('center_axis',(0.,0.,-1.));
#1504=DIRECTION('ref_axis',(0.,-1.,0.));
#1505=DIRECTION('center_axis',(0.,-1.,0.));
#1506=DIRECTION('ref_axis',(0.707106781186547,0.,-0.707106781186548));
#1507=DIRECTION('center_axis',(0.,-1.,0.));
#1508=DIRECTION('ref_axis',(0.707106781186547,0.,-0.707106781186548));
#1509=DIRECTION('',(0.,-1.,0.));
#1510=DIRECTION('',(0.,1.,0.));
#1511=DIRECTION('center_axis',(0.,1.,0.));
#1512=DIRECTION('ref_axis',(0.707106781186548,0.,0.707106781186548));
#1513=DIRECTION('',(0.,1.,0.));
#1514=DIRECTION('center_axis',(0.,-1.,0.));
#1515=DIRECTION('ref_axis',(0.707106781186548,0.,0.707106781186548));
#1516=DIRECTION('',(0.,-1.,0.));
#1517=DIRECTION('center_axis',(0.408248290463863,0.408248290463862,-0.816496580927726));
#1518=DIRECTION('ref_axis',(-0.577350269189626,-0.577350269189626,-0.577350269189625));
#1519=DIRECTION('center_axis',(-5.55111512312578E-16,0.,-1.));
#1520=DIRECTION('ref_axis',(-1.,0.,5.55111512312578E-16));
#1521=DIRECTION('center_axis',(0.,-1.,0.));
#1522=DIRECTION('ref_axis',(0.,0.,-1.));
#1523=DIRECTION('center_axis',(-1.,0.,0.));
#1524=DIRECTION('ref_axis',(0.,-1.,0.));
#1525=DIRECTION('center_axis',(0.,1.,0.));
#1526=DIRECTION('ref_axis',(-0.707106781186548,0.,-0.707106781186547));
#1527=DIRECTION('center_axis',(0.,-1.,0.));
#1528=DIRECTION('ref_axis',(-0.707106781186548,0.,-0.707106781186547));
#1529=DIRECTION('',(0.,-1.,0.));
#1530=DIRECTION('',(0.,1.,0.));
#1531=DIRECTION('center_axis',(1.,0.,0.));
#1532=DIRECTION('ref_axis',(0.,-0.707106781186548,-0.707106781186547));
#1533=DIRECTION('',(-1.,0.,0.));
#1534=DIRECTION('',(1.,0.,0.));
#1535=DIRECTION('center_axis',(0.,1.,0.));
#1536=DIRECTION('ref_axis',(-0.707106781186548,0.,0.707106781186548));
#1537=DIRECTION('',(0.,1.,0.));
#1538=DIRECTION('center_axis',(0.,-1.,0.));
#1539=DIRECTION('ref_axis',(-0.707106781186548,0.,0.707106781186548));
#1540=DIRECTION('',(0.,-1.,0.));
#1541=DIRECTION('center_axis',(-3.80104887175517E-16,0.,-1.));
#1542=DIRECTION('ref_axis',(-0.707106781186548,-0.707106781186547,0.));
#1543=DIRECTION('',(3.80104887175517E-16,0.,1.));
#1544=DIRECTION('',(-3.80104887175517E-16,0.,-1.));
#1545=DIRECTION('center_axis',(0.,0.,1.));
#1546=DIRECTION('ref_axis',(0.707106781186547,-0.707106781186548,0.));
#1547=DIRECTION('',(0.,0.,-1.));
#1548=DIRECTION('',(0.,0.,1.));
#1549=DIRECTION('center_axis',(0.,0.,-1.));
#1550=DIRECTION('ref_axis',(-1.,0.,0.));
#1551=DIRECTION('',(-1.,0.,0.));
#1552=DIRECTION('center_axis',(-1.,0.,3.80104887175517E-16));
#1553=DIRECTION('ref_axis',(3.80104887175517E-16,0.,1.));
#1554=DIRECTION('',(3.80104887175517E-16,0.,1.));
#1555=DIRECTION('center_axis',(0.,1.,0.));
#1556=DIRECTION('ref_axis',(0.,0.,1.));
#1557=DIRECTION('',(1.,0.,-6.43607550507337E-17));
#1558=DIRECTION('',(0.,0.,-1.));
#1559=DIRECTION('',(0.,0.,1.));
#1560=DIRECTION('',(-1.,0.,0.));
#1561=DIRECTION('',(0.,0.,-1.));
#1562=DIRECTION('',(1.,0.,0.));
#1563=DIRECTION('center_axis',(0.,-1.,0.));
#1564=DIRECTION('ref_axis',(0.,0.,-1.));
#1565=DIRECTION('center_axis',(0.,1.,0.));
#1566=DIRECTION('ref_axis',(1.,0.,0.));
#1567=DIRECTION('',(1.,0.,0.));
#1568=DIRECTION('center_axis',(0.,1.,0.));
#1569=DIRECTION('ref_axis',(1.,0.,0.));
#1570=DIRECTION('',(0.,0.,-1.));
#1571=DIRECTION('',(1.,0.,0.));
#1572=DIRECTION('',(0.,0.,-1.));
#1573=DIRECTION('center_axis',(0.,1.,0.));
#1574=DIRECTION('ref_axis',(1.,0.,0.));
#1575=DIRECTION('',(-1.,0.,0.));
#1576=DIRECTION('',(0.,0.,-1.));
#1577=DIRECTION('',(-1.,0.,0.));
#1578=DIRECTION('center_axis',(0.,1.,0.));
#1579=DIRECTION('ref_axis',(1.,0.,0.));
#1580=DIRECTION('',(-1.,0.,0.));
#1581=DIRECTION('',(0.,0.,-1.));
#1582=DIRECTION('',(-1.,0.,0.));
#1583=DIRECTION('',(0.,0.,1.));
#1584=DIRECTION('',(1.,0.,0.));
#1585=DIRECTION('center_axis',(0.,1.,0.));
#1586=DIRECTION('ref_axis',(1.,0.,0.));
#1587=DIRECTION('',(1.,0.,0.));
#1588=DIRECTION('',(0.,0.,1.));
#1589=DIRECTION('center_axis',(0.,1.,0.));
#1590=DIRECTION('ref_axis',(1.,0.,0.));
#1591=DIRECTION('center_axis',(0.,-1.,0.));
#1592=DIRECTION('ref_axis',(1.,0.,0.));
#1593=DIRECTION('center_axis',(0.,1.,0.));
#1594=DIRECTION('ref_axis',(1.,0.,0.));
#1595=DIRECTION('center_axis',(0.,-1.,0.));
#1596=DIRECTION('ref_axis',(1.,0.,0.));
#1597=DIRECTION('center_axis',(0.,1.,0.));
#1598=DIRECTION('ref_axis',(1.,0.,0.));
#1599=DIRECTION('center_axis',(0.,-1.,0.));
#1600=DIRECTION('ref_axis',(1.,0.,0.));
#1601=DIRECTION('center_axis',(0.,1.,0.));
#1602=DIRECTION('ref_axis',(1.,0.,0.));
#1603=DIRECTION('center_axis',(0.,-1.,0.));
#1604=DIRECTION('ref_axis',(1.,0.,0.));
#1605=DIRECTION('center_axis',(0.,1.,0.));
#1606=DIRECTION('ref_axis',(1.,0.,0.));
#1607=DIRECTION('center_axis',(0.,-1.,0.));
#1608=DIRECTION('ref_axis',(1.,0.,0.));
#1609=DIRECTION('',(0.,-1.,0.));
#1610=DIRECTION('center_axis',(0.,0.,1.));
#1611=DIRECTION('ref_axis',(1.,0.,0.));
#1612=DIRECTION('',(0.,1.,0.));
#1613=DIRECTION('',(1.,0.,0.));
#1614=DIRECTION('',(0.,1.,0.));
#1615=DIRECTION('center_axis',(0.,0.,-1.));
#1616=DIRECTION('ref_axis',(-1.,0.,0.));
#1617=DIRECTION('',(0.,-1.,0.));
#1618=DIRECTION('',(-1.,0.,0.));
#1619=DIRECTION('',(0.,1.,0.));
#1620=DIRECTION('center_axis',(0.,1.,0.));
#1621=DIRECTION('ref_axis',(1.,0.,0.));
#1622=DIRECTION('center_axis',(0.,1.,0.));
#1623=DIRECTION('ref_axis',(1.,0.,0.));
#1624=DIRECTION('center_axis',(0.,1.,0.));
#1625=DIRECTION('ref_axis',(1.,0.,0.));
#1626=DIRECTION('',(0.,0.,-1.));
#1627=DIRECTION('center_axis',(0.,1.,0.));
#1628=DIRECTION('ref_axis',(1.,0.,0.));
#1629=DIRECTION('center_axis',(0.,-1.,0.));
#1630=DIRECTION('ref_axis',(1.,0.,0.));
#1631=DIRECTION('',(0.,-1.,0.));
#1632=DIRECTION('center_axis',(0.,0.,1.));
#1633=DIRECTION('ref_axis',(1.,0.,0.));
#1634=DIRECTION('',(0.,1.,0.));
#1635=DIRECTION('',(1.,0.,0.));
#1636=DIRECTION('',(0.,1.,0.));
#1637=DIRECTION('center_axis',(1.,0.,0.));
#1638=DIRECTION('ref_axis',(0.,0.,-1.));
#1639=DIRECTION('',(0.,-1.,0.));
#1640=DIRECTION('',(0.,0.,-1.));
#1641=DIRECTION('',(0.,1.,0.));
#1642=DIRECTION('center_axis',(0.,1.,0.));
#1643=DIRECTION('ref_axis',(1.,0.,0.));
#1644=DIRECTION('center_axis',(0.,1.,0.));
#1645=DIRECTION('ref_axis',(1.,0.,0.));
#1646=DIRECTION('center_axis',(0.,1.,0.));
#1647=DIRECTION('ref_axis',(1.,0.,0.));
#1648=DIRECTION('',(1.,0.,0.));
#1649=DIRECTION('',(0.,0.,-1.));
#1650=DIRECTION('center_axis',(1.,0.,0.));
#1651=DIRECTION('ref_axis',(0.,0.,-1.));
#1652=DIRECTION('',(0.,1.,0.));
#1653=DIRECTION('',(0.,1.,0.));
#1654=DIRECTION('center_axis',(0.,1.,0.));
#1655=DIRECTION('ref_axis',(1.,0.,0.));
#1656=DIRECTION('center_axis',(0.,-1.,0.));
#1657=DIRECTION('ref_axis',(1.,0.,0.));
#1658=DIRECTION('',(0.,-1.,0.));
#1659=DIRECTION('center_axis',(0.,0.,-1.));
#1660=DIRECTION('ref_axis',(-1.,0.,0.));
#1661=DIRECTION('',(0.,1.,0.));
#1662=DIRECTION('',(-1.,0.,0.));
#1663=DIRECTION('',(0.,1.,0.));
#1664=DIRECTION('center_axis',(0.,0.,1.));
#1665=DIRECTION('ref_axis',(1.,0.,0.));
#1666=DIRECTION('',(0.,-1.,0.));
#1667=DIRECTION('',(1.,0.,0.));
#1668=DIRECTION('',(0.,1.,0.));
#1669=DIRECTION('center_axis',(0.,1.,0.));
#1670=DIRECTION('ref_axis',(-1.,0.,-1.22464679914735E-16));
#1671=DIRECTION('center_axis',(0.,1.,0.));
#1672=DIRECTION('ref_axis',(1.,0.,0.));
#1673=DIRECTION('center_axis',(0.,1.,0.));
#1674=DIRECTION('ref_axis',(1.,0.,0.));
#1675=DIRECTION('',(0.,0.,1.));
#1676=DIRECTION('center_axis',(0.,1.,0.));
#1677=DIRECTION('ref_axis',(1.,0.,0.));
#1678=DIRECTION('center_axis',(0.,-1.,0.));
#1679=DIRECTION('ref_axis',(1.,0.,0.));
#1680=DIRECTION('',(0.,-1.,0.));
#1681=DIRECTION('center_axis',(-1.,0.,0.));
#1682=DIRECTION('ref_axis',(0.,0.,1.));
#1683=DIRECTION('',(0.,1.,0.));
#1684=DIRECTION('',(0.,0.,1.));
#1685=DIRECTION('',(0.,1.,0.));
#1686=DIRECTION('center_axis',(0.,0.,1.));
#1687=DIRECTION('ref_axis',(1.,0.,0.));
#1688=DIRECTION('',(0.,-1.,0.));
#1689=DIRECTION('',(1.,0.,0.));
#1690=DIRECTION('',(0.,1.,0.));
#1691=DIRECTION('center_axis',(0.,1.,0.));
#1692=DIRECTION('ref_axis',(1.,0.,0.));
#1693=DIRECTION('center_axis',(0.,1.,0.));
#1694=DIRECTION('ref_axis',(1.,0.,0.));
#1695=DIRECTION('center_axis',(0.,1.,0.));
#1696=DIRECTION('ref_axis',(1.,0.,0.));
#1697=DIRECTION('',(0.,0.,1.));
#1698=DIRECTION('',(1.,0.,0.));
#1699=DIRECTION('center_axis',(0.,0.,1.));
#1700=DIRECTION('ref_axis',(1.,0.,0.));
#1701=DIRECTION('',(0.,1.,0.));
#1702=DIRECTION('center_axis',(0.,0.,-1.));
#1703=DIRECTION('ref_axis',(-1.,0.,0.));
#1704=DIRECTION('',(0.,1.,0.));
#1705=DIRECTION('center_axis',(-1.,0.,0.));
#1706=DIRECTION('ref_axis',(0.,0.,1.));
#1707=DIRECTION('center_axis',(1.,0.,0.));
#1708=DIRECTION('ref_axis',(0.,0.,-1.));
#1709=DIRECTION('center_axis',(6.43607550507337E-17,0.,1.));
#1710=DIRECTION('ref_axis',(1.,0.,-6.43607550507337E-17));
#1711=CARTESIAN_POINT('',(0.,0.,0.));
#1712=CARTESIAN_POINT('Origin',(62.,18.,31.55));
#1713=CARTESIAN_POINT('',(62.,18.,34.9872539331938));
#1714=CARTESIAN_POINT('',(62.,5.,34.9872539331938));
#1715=CARTESIAN_POINT('',(62.,0.,34.9872539331938));
#1716=CARTESIAN_POINT('',(62.,18.,31.55));
#1717=CARTESIAN_POINT('',(62.,18.,41.5524997475426));
#1718=CARTESIAN_POINT('',(62.,2.5,31.55));
#1719=CARTESIAN_POINT('',(62.,18.,31.55));
#1720=CARTESIAN_POINT('',(62.,2.5,34.5832595866597));
#1721=CARTESIAN_POINT('',(62.,2.5,41.5524997475426));
#1722=CARTESIAN_POINT('Origin',(62.,5.,27.05));
#1723=CARTESIAN_POINT('Origin',(-8.88178419700125E-15,2.5,36.5512498737713));
#1724=CARTESIAN_POINT('',(61.,2.5,34.6493420767853));
#1725=CARTESIAN_POINT('Origin',(61.,2.5,27.05));
#1726=CARTESIAN_POINT('',(58.,2.5,31.55));
#1727=CARTESIAN_POINT('Origin',(60.,2.5,31.55));
#1728=CARTESIAN_POINT('',(-58.,2.5,31.55));
#1729=CARTESIAN_POINT('',(62.,2.5,31.55));
#1730=CARTESIAN_POINT('',(-62.,2.5,31.55));
#1731=CARTESIAN_POINT('Origin',(-60.,2.5,31.55));
#1732=CARTESIAN_POINT('',(-62.,2.5,34.5832595866597));
#1733=CARTESIAN_POINT('',(-62.,2.5,31.55));
#1734=CARTESIAN_POINT('',(-61.,2.5,34.6493420767853));
#1735=CARTESIAN_POINT('Origin',(-61.,2.5,27.05));
#1736=CARTESIAN_POINT('',(-34.5,2.5,34.6493420767853));
#1737=CARTESIAN_POINT('Origin',(60.,18.,31.55));
#1738=CARTESIAN_POINT('',(58.,18.,31.55));
#1739=CARTESIAN_POINT('Origin',(60.,18.,31.55));
#1740=CARTESIAN_POINT('',(58.,18.,31.55));
#1741=CARTESIAN_POINT('Origin',(-58.,18.,31.55));
#1742=CARTESIAN_POINT('',(-58.,18.,31.55));
#1743=CARTESIAN_POINT('',(62.,18.,31.55));
#1744=CARTESIAN_POINT('',(-58.,18.,31.55));
#1745=CARTESIAN_POINT('Origin',(-60.,18.,31.55));
#1746=CARTESIAN_POINT('',(-62.,18.,31.55));
#1747=CARTESIAN_POINT('Origin',(-60.,18.,31.55));
#1748=CARTESIAN_POINT('',(-62.,18.,31.55));
#1749=CARTESIAN_POINT('Origin',(-62.,18.,41.5524997475426));
#1750=CARTESIAN_POINT('',(-62.,5.,34.9872539331938));
#1751=CARTESIAN_POINT('',(-62.,18.,34.9872539331938));
#1752=CARTESIAN_POINT('',(-62.,0.,34.9872539331938));
#1753=CARTESIAN_POINT('Origin',(-62.,5.,27.05));
#1754=CARTESIAN_POINT('',(-62.,18.,31.55));
#1755=CARTESIAN_POINT('Origin',(-8.88178419700125E-15,18.,36.5512498737713));
#1756=CARTESIAN_POINT('',(61.,18.,35.05));
#1757=CARTESIAN_POINT('Origin',(61.,18.,27.05));
#1758=CARTESIAN_POINT('',(-61.,18.,35.05));
#1759=CARTESIAN_POINT('',(-34.5,18.,35.05));
#1760=CARTESIAN_POINT('Origin',(-61.,18.,27.05));
#1761=CARTESIAN_POINT('Origin',(61.,5.,27.05));
#1762=CARTESIAN_POINT('',(61.,-3.,27.05));
#1763=CARTESIAN_POINT('Origin',(61.,5.,27.05));
#1764=CARTESIAN_POINT('',(69.,5.,27.05));
#1765=CARTESIAN_POINT('Origin',(61.,5.,27.05));
#1766=CARTESIAN_POINT('Origin',(61.,5.,27.05));
#1767=CARTESIAN_POINT('Origin',(-34.5,5.,27.05));
#1768=CARTESIAN_POINT('',(-61.,-3.,27.05));
#1769=CARTESIAN_POINT('Origin',(-61.,5.,27.05));
#1770=CARTESIAN_POINT('',(-34.5,-3.,27.05));
#1771=CARTESIAN_POINT('Origin',(-61.,5.,27.05));
#1772=CARTESIAN_POINT('',(-69.,5.,27.05));
#1773=CARTESIAN_POINT('Origin',(-61.,5.,27.05));
#1774=CARTESIAN_POINT('Origin',(-61.,5.,27.05));
#1775=CARTESIAN_POINT('Origin',(-62.,28.75,-9.65));
#1776=CARTESIAN_POINT('',(-69.,28.75,-18.65));
#1777=CARTESIAN_POINT('',(-69.,28.75,-9.65));
#1778=CARTESIAN_POINT('',(-69.,28.75,-22.35));
#1779=CARTESIAN_POINT('',(-62.,28.75,-18.65));
#1780=CARTESIAN_POINT('',(-62.,28.75,-18.65));
#1781=CARTESIAN_POINT('',(-62.,28.75,-9.65));
#1782=CARTESIAN_POINT('',(-62.,28.75,9.2));
#1783=CARTESIAN_POINT('',(-62.,28.75,-9.65));
#1784=CARTESIAN_POINT('Origin',(-62.,26.75,-9.65));
#1785=CARTESIAN_POINT('',(-69.,26.75,-7.65));
#1786=CARTESIAN_POINT('Origin',(-69.,26.75,-9.65));
#1787=CARTESIAN_POINT('',(-62.,26.75,-7.65));
#1788=CARTESIAN_POINT('Origin',(-62.,26.75,-9.65));
#1789=CARTESIAN_POINT('',(-62.,26.75,-7.65));
#1790=CARTESIAN_POINT('Origin',(-62.,23.75,-7.65));
#1791=CARTESIAN_POINT('',(-69.,23.75,-7.65));
#1792=CARTESIAN_POINT('',(-69.,11.875,-7.65000000000001));
#1793=CARTESIAN_POINT('',(-62.,23.75,-7.65));
#1794=CARTESIAN_POINT('',(-62.,11.875,-7.65000000000001));
#1795=CARTESIAN_POINT('',(-62.,23.75,-7.65));
#1796=CARTESIAN_POINT('Origin',(-62.,23.75,-9.65));
#1797=CARTESIAN_POINT('',(-69.,21.75,-9.65));
#1798=CARTESIAN_POINT('Origin',(-69.,23.75,-9.65));
#1799=CARTESIAN_POINT('',(-62.,21.75,-9.65));
#1800=CARTESIAN_POINT('Origin',(-62.,23.75,-9.65));
#1801=CARTESIAN_POINT('',(-62.,21.75,-9.65));
#1802=CARTESIAN_POINT('Origin',(-62.,21.75,-18.65));
#1803=CARTESIAN_POINT('',(-69.,21.75,-18.65));
#1804=CARTESIAN_POINT('',(-69.,21.75,-26.85));
#1805=CARTESIAN_POINT('',(-62.,21.75,-18.65));
#1806=CARTESIAN_POINT('',(-62.,21.75,4.7));
#1807=CARTESIAN_POINT('',(-62.,21.75,-18.65));
#1808=CARTESIAN_POINT('Origin',(-62.,23.75,-18.65));
#1809=CARTESIAN_POINT('',(-69.,23.75,-20.65));
#1810=CARTESIAN_POINT('Origin',(-69.,23.75,-18.65));
#1811=CARTESIAN_POINT('',(-62.,23.75,-20.65));
#1812=CARTESIAN_POINT('Origin',(-62.,23.75,-18.65));
#1813=CARTESIAN_POINT('',(-62.,23.75,-20.65));
#1814=CARTESIAN_POINT('Origin',(-62.,26.75,-20.65));
#1815=CARTESIAN_POINT('',(-69.,26.75,-20.65));
#1816=CARTESIAN_POINT('',(-69.,13.375,-20.65));
#1817=CARTESIAN_POINT('',(-62.,26.75,-20.65));
#1818=CARTESIAN_POINT('',(-62.,13.375,-20.65));
#1819=CARTESIAN_POINT('',(-62.,26.75,-20.65));
#1820=CARTESIAN_POINT('Origin',(-62.,26.75,-18.65));
#1821=CARTESIAN_POINT('Origin',(-69.,26.75,-18.65));
#1822=CARTESIAN_POINT('Origin',(-62.,26.75,-18.65));
#1823=CARTESIAN_POINT('Origin',(60.,30.4,31.55));
#1824=CARTESIAN_POINT('',(58.,30.4,31.55));
#1825=CARTESIAN_POINT('Origin',(60.,30.4,31.55));
#1826=CARTESIAN_POINT('',(58.,18.4,31.55));
#1827=CARTESIAN_POINT('',(58.,30.4,31.55));
#1828=CARTESIAN_POINT('Origin',(60.,18.4,31.55));
#1829=CARTESIAN_POINT('Origin',(-4.44089209850063E-15,18.4,4.44089209850063E-15));
#1830=CARTESIAN_POINT('Origin',(-60.,30.4,-31.55));
#1831=CARTESIAN_POINT('',(-62.,30.4,-31.55));
#1832=CARTESIAN_POINT('Origin',(-60.,30.4,-31.55));
#1833=CARTESIAN_POINT('',(-62.,18.4,-31.55));
#1834=CARTESIAN_POINT('',(-62.,30.4,-31.55));
#1835=CARTESIAN_POINT('Origin',(-60.,18.4,-31.55));
#1836=CARTESIAN_POINT('Origin',(-4.44089209850063E-15,18.4,4.44089209850063E-15));
#1837=CARTESIAN_POINT('Origin',(60.,30.4,-31.55));
#1838=CARTESIAN_POINT('',(58.,30.4,-31.55));
#1839=CARTESIAN_POINT('Origin',(60.,30.4,-31.55));
#1840=CARTESIAN_POINT('',(58.,18.4,-31.55));
#1841=CARTESIAN_POINT('',(58.,30.4,-31.55));
#1842=CARTESIAN_POINT('Origin',(60.,18.4,-31.55));
#1843=CARTESIAN_POINT('Origin',(-4.44089209850063E-15,18.4,4.44089209850063E-15));
#1844=CARTESIAN_POINT('Origin',(-60.,30.4,31.55));
#1845=CARTESIAN_POINT('',(-62.,30.4,31.55));
#1846=CARTESIAN_POINT('Origin',(-60.,30.4,31.55));
#1847=CARTESIAN_POINT('',(-62.,18.4,31.55));
#1848=CARTESIAN_POINT('',(-62.,30.4,31.55));
#1849=CARTESIAN_POINT('Origin',(-60.,18.4,31.55));
#1850=CARTESIAN_POINT('Origin',(-4.44089209850063E-15,18.4,4.44089209850063E-15));
#1851=CARTESIAN_POINT('Origin',(61.,5.,-27.05));
#1852=CARTESIAN_POINT('',(61.,5.,-35.05));
#1853=CARTESIAN_POINT('',(61.,-3.,-27.05));
#1854=CARTESIAN_POINT('Origin',(61.,5.,-27.05));
#1855=CARTESIAN_POINT('',(69.,5.,-27.05));
#1856=CARTESIAN_POINT('Origin',(61.,5.,-27.05));
#1857=CARTESIAN_POINT('Origin',(61.,5.,-27.05));
#1858=CARTESIAN_POINT('Origin',(61.,0.,-27.05));
#1859=CARTESIAN_POINT('',(61.,30.4,-35.05));
#1860=CARTESIAN_POINT('',(69.,30.4,-27.05));
#1861=CARTESIAN_POINT('Origin',(61.,30.4,-27.05));
#1862=CARTESIAN_POINT('',(69.,0.,-27.05));
#1863=CARTESIAN_POINT('',(61.,0.,-35.05));
#1864=CARTESIAN_POINT('Origin',(61.,0.,27.05));
#1865=CARTESIAN_POINT('',(69.,30.4,27.05));
#1866=CARTESIAN_POINT('',(69.,0.,27.05));
#1867=CARTESIAN_POINT('',(61.,30.4,35.05));
#1868=CARTESIAN_POINT('Origin',(61.,30.4,27.05));
#1869=CARTESIAN_POINT('',(61.,0.,35.05));
#1870=CARTESIAN_POINT('Origin',(-61.,5.,-27.05));
#1871=CARTESIAN_POINT('',(-69.,5.,-27.05));
#1872=CARTESIAN_POINT('',(-61.,-3.,-27.05));
#1873=CARTESIAN_POINT('Origin',(-61.,5.,-27.05));
#1874=CARTESIAN_POINT('',(-61.,5.,-35.05));
#1875=CARTESIAN_POINT('Origin',(-61.,5.,-27.05));
#1876=CARTESIAN_POINT('Origin',(-61.,5.,-27.05));
#1877=CARTESIAN_POINT('Origin',(-61.,0.,-27.05));
#1878=CARTESIAN_POINT('',(-69.,30.4,-27.05));
#1879=CARTESIAN_POINT('',(-61.,30.4,-35.05));
#1880=CARTESIAN_POINT('Origin',(-61.,30.4,-27.05));
#1881=CARTESIAN_POINT('',(-61.,0.,-35.05));
#1882=CARTESIAN_POINT('',(-69.,0.,-27.05));
#1883=CARTESIAN_POINT('Origin',(34.5,5.,-27.05));
#1884=CARTESIAN_POINT('',(34.5,-3.,-27.05));
#1885=CARTESIAN_POINT('',(34.5,5.,-35.05));
#1886=CARTESIAN_POINT('Origin',(-61.,0.,27.05));
#1887=CARTESIAN_POINT('',(-61.,30.4,35.05));
#1888=CARTESIAN_POINT('',(-61.,0.,35.05));
#1889=CARTESIAN_POINT('',(-69.,30.4,27.05));
#1890=CARTESIAN_POINT('Origin',(-61.,30.4,27.05));
#1891=CARTESIAN_POINT('',(-69.,0.,27.05));
#1892=CARTESIAN_POINT('Origin',(-61.,5.,-17.525));
#1893=CARTESIAN_POINT('',(-61.,-3.,-17.525));
#1894=CARTESIAN_POINT('',(-69.,5.,-17.525));
#1895=CARTESIAN_POINT('Origin',(61.,5.,17.525));
#1896=CARTESIAN_POINT('',(61.,-3.,17.525));
#1897=CARTESIAN_POINT('',(69.,5.,17.525));
#1898=CARTESIAN_POINT('Origin',(69.,0.,-35.05));
#1899=CARTESIAN_POINT('',(-69.,30.4,-35.05));
#1900=CARTESIAN_POINT('Origin',(-69.,0.,-35.05));
#1901=CARTESIAN_POINT('',(-69.,30.4,35.05));
#1902=CARTESIAN_POINT('Origin',(-1.77635683940025E-14,30.4,-4.44089209850063E-15));
#1903=CARTESIAN_POINT('',(69.,30.4,35.05));
#1904=CARTESIAN_POINT('',(69.,30.4,-35.05));
#1905=CARTESIAN_POINT('',(62.,30.4,-28.05));
#1906=CARTESIAN_POINT('',(62.,30.4,28.05));
#1907=CARTESIAN_POINT('',(62.,30.4,-28.05));
#1908=CARTESIAN_POINT('',(-62.,30.4,28.05));
#1909=CARTESIAN_POINT('',(62.,30.4,28.05));
#1910=CARTESIAN_POINT('',(-62.,30.4,-28.05));
#1911=CARTESIAN_POINT('',(-62.,30.4,28.05));
#1912=CARTESIAN_POINT('',(-62.,30.4,-28.05));
#1913=CARTESIAN_POINT('Origin',(-1.77635683940025E-14,-3.,-4.44089209850063E-15));
#1914=CARTESIAN_POINT('Origin',(-1.77635683940025E-14,0.,-4.44089209850063E-15));
#1915=CARTESIAN_POINT('',(56.7,0.,-20.25));
#1916=CARTESIAN_POINT('',(62.,0.,-20.25));
#1917=CARTESIAN_POINT('',(56.7,0.,-20.25));
#1918=CARTESIAN_POINT('',(54.2,0.,-22.75));
#1919=CARTESIAN_POINT('Origin',(56.7,0.,-22.75));
#1920=CARTESIAN_POINT('',(54.2,0.,-28.05));
#1921=CARTESIAN_POINT('',(54.2,0.,-26.05));
#1922=CARTESIAN_POINT('',(-54.,0.,-28.05));
#1923=CARTESIAN_POINT('',(-62.,0.,-28.05));
#1924=CARTESIAN_POINT('',(-54.,0.,-22.75));
#1925=CARTESIAN_POINT('',(-54.,0.,-22.75));
#1926=CARTESIAN_POINT('',(-56.5,0.,-20.25));
#1927=CARTESIAN_POINT('Origin',(-56.5,0.,-22.75));
#1928=CARTESIAN_POINT('',(-62.,0.,-20.25));
#1929=CARTESIAN_POINT('',(-60.,0.,-20.25));
#1930=CARTESIAN_POINT('',(-62.,0.,10.95));
#1931=CARTESIAN_POINT('',(-62.,0.,28.05));
#1932=CARTESIAN_POINT('',(-56.9,0.,10.95));
#1933=CARTESIAN_POINT('',(-56.9,0.,10.95));
#1934=CARTESIAN_POINT('',(-56.9,0.,15.95));
#1935=CARTESIAN_POINT('Origin',(-56.9,0.,13.45));
#1936=CARTESIAN_POINT('',(-62.,0.,15.95));
#1937=CARTESIAN_POINT('',(-60.,0.,15.95));
#1938=CARTESIAN_POINT('',(-62.,0.,28.05));
#1939=CARTESIAN_POINT('',(-62.,0.,28.05));
#1940=CARTESIAN_POINT('',(62.,0.,28.05));
#1941=CARTESIAN_POINT('',(62.,0.,28.05));
#1942=CARTESIAN_POINT('',(62.,0.,15.95));
#1943=CARTESIAN_POINT('',(62.,0.,-28.05));
#1944=CARTESIAN_POINT('',(56.8,0.,15.95));
#1945=CARTESIAN_POINT('',(56.8,0.,15.95));
#1946=CARTESIAN_POINT('',(56.8,0.,10.95));
#1947=CARTESIAN_POINT('Origin',(56.8,0.,13.45));
#1948=CARTESIAN_POINT('',(62.,0.,10.95));
#1949=CARTESIAN_POINT('',(60.,0.,10.95));
#1950=CARTESIAN_POINT('',(62.,0.,-28.05));
#1951=CARTESIAN_POINT('Origin',(-1.77635683940025E-14,0.,-4.44089209850063E-15));
#1952=CARTESIAN_POINT('',(54.7,0.,-22.75));
#1953=CARTESIAN_POINT('Origin',(56.7,0.,-22.75));
#1954=CARTESIAN_POINT('Origin',(-1.77635683940025E-14,0.,-4.44089209850063E-15));
#1955=CARTESIAN_POINT('',(54.8,0.,13.45));
#1956=CARTESIAN_POINT('Origin',(56.8,0.,13.45));
#1957=CARTESIAN_POINT('Origin',(-1.77635683940025E-14,0.,-4.44089209850063E-15));
#1958=CARTESIAN_POINT('',(-58.5,0.,-22.75));
#1959=CARTESIAN_POINT('Origin',(-56.5,0.,-22.75));
#1960=CARTESIAN_POINT('Origin',(-1.77635683940025E-14,0.,-4.44089209850063E-15));
#1961=CARTESIAN_POINT('',(-58.9,0.,13.45));
#1962=CARTESIAN_POINT('Origin',(-56.9,0.,13.45));
#1963=CARTESIAN_POINT('Origin',(-56.9,0.,13.45));
#1964=CARTESIAN_POINT('',(-58.9,22.,13.45));
#1965=CARTESIAN_POINT('Origin',(-56.9,22.,13.45));
#1966=CARTESIAN_POINT('',(-58.9,0.,13.45));
#1967=CARTESIAN_POINT('Origin',(-62.,0.,15.95));
#1968=CARTESIAN_POINT('',(-56.9,22.,15.95));
#1969=CARTESIAN_POINT('',(-56.9,0.,15.95));
#1970=CARTESIAN_POINT('',(-62.,22.,15.95));
#1971=CARTESIAN_POINT('',(-60.,22.,15.95));
#1972=CARTESIAN_POINT('',(-62.,0.,15.95));
#1973=CARTESIAN_POINT('Origin',(-56.9,0.,10.95));
#1974=CARTESIAN_POINT('',(-62.,22.,10.95));
#1975=CARTESIAN_POINT('',(-62.,0.,10.95));
#1976=CARTESIAN_POINT('',(-56.9,22.,10.95));
#1977=CARTESIAN_POINT('',(-56.9,22.,10.95));
#1978=CARTESIAN_POINT('',(-56.9,0.,10.95));
#1979=CARTESIAN_POINT('Origin',(-56.9,0.,13.45));
#1980=CARTESIAN_POINT('Origin',(-56.9,22.,13.45));
#1981=CARTESIAN_POINT('Origin',(-58.2,22.,13.45));
#1982=CARTESIAN_POINT('',(-62.,22.,20.75));
#1983=CARTESIAN_POINT('Origin',(-56.5,0.,-22.75));
#1984=CARTESIAN_POINT('',(-58.5,22.,-22.75));
#1985=CARTESIAN_POINT('Origin',(-56.5,22.,-22.75));
#1986=CARTESIAN_POINT('',(-58.5,0.,-22.75));
#1987=CARTESIAN_POINT('Origin',(-62.,0.,-20.25));
#1988=CARTESIAN_POINT('',(-56.5,22.,-20.25));
#1989=CARTESIAN_POINT('',(-56.5,0.,-20.25));
#1990=CARTESIAN_POINT('',(-62.,22.,-20.25));
#1991=CARTESIAN_POINT('',(-60.,22.,-20.25));
#1992=CARTESIAN_POINT('',(-62.,0.,-20.25));
#1993=CARTESIAN_POINT('Origin',(-54.,0.,-22.75));
#1994=CARTESIAN_POINT('',(-54.,22.,-28.05));
#1995=CARTESIAN_POINT('',(-54.,0.,-28.05));
#1996=CARTESIAN_POINT('',(-54.,22.,-22.75));
#1997=CARTESIAN_POINT('',(-54.,22.,-22.75));
#1998=CARTESIAN_POINT('',(-54.,0.,-22.75));
#1999=CARTESIAN_POINT('Origin',(-56.5,0.,-22.75));
#2000=CARTESIAN_POINT('Origin',(-56.5,22.,-22.75));
#2001=CARTESIAN_POINT('Origin',(-58.,22.,-24.15));
#2002=CARTESIAN_POINT('',(-62.,22.,-28.05));
#2003=CARTESIAN_POINT('',(-60.,22.,-28.05));
#2004=CARTESIAN_POINT('',(-62.,22.,1.95));
#2005=CARTESIAN_POINT('Origin',(-62.,0.,28.05));
#2006=CARTESIAN_POINT('',(-62.,0.,-28.05));
#2007=CARTESIAN_POINT('',(-62.,0.,28.05));
#2008=CARTESIAN_POINT('Origin',(56.8,0.,13.45));
#2009=CARTESIAN_POINT('',(54.8,22.,13.45));
#2010=CARTESIAN_POINT('Origin',(56.8,22.,13.45));
#2011=CARTESIAN_POINT('',(54.8,0.,13.45));
#2012=CARTESIAN_POINT('Origin',(62.,0.,10.95));
#2013=CARTESIAN_POINT('',(56.8,22.,10.95));
#2014=CARTESIAN_POINT('',(56.8,0.,10.95));
#2015=CARTESIAN_POINT('',(62.,22.,10.95));
#2016=CARTESIAN_POINT('',(60.,22.,10.95));
#2017=CARTESIAN_POINT('',(62.,0.,10.95));
#2018=CARTESIAN_POINT('Origin',(56.8,0.,15.95));
#2019=CARTESIAN_POINT('',(62.,22.,15.95));
#2020=CARTESIAN_POINT('',(62.,0.,15.95));
#2021=CARTESIAN_POINT('',(56.8,22.,15.95));
#2022=CARTESIAN_POINT('',(56.8,22.,15.95));
#2023=CARTESIAN_POINT('',(56.8,0.,15.95));
#2024=CARTESIAN_POINT('Origin',(56.8,0.,13.45));
#2025=CARTESIAN_POINT('Origin',(56.8,22.,13.45));
#2026=CARTESIAN_POINT('Origin',(58.15,22.,13.45));
#2027=CARTESIAN_POINT('',(62.,22.,-7.3));
#2028=CARTESIAN_POINT('Origin',(56.7,0.,-22.75));
#2029=CARTESIAN_POINT('',(54.7,22.,-22.75));
#2030=CARTESIAN_POINT('Origin',(56.7,22.,-22.75));
#2031=CARTESIAN_POINT('',(54.7,0.,-22.75));
#2032=CARTESIAN_POINT('Origin',(54.2,0.,-28.05));
#2033=CARTESIAN_POINT('',(54.2,22.,-22.75));
#2034=CARTESIAN_POINT('',(54.2,0.,-22.75));
#2035=CARTESIAN_POINT('',(54.2,22.,-28.05));
#2036=CARTESIAN_POINT('',(54.2,22.,-26.05));
#2037=CARTESIAN_POINT('',(54.2,0.,-28.05));
#2038=CARTESIAN_POINT('Origin',(56.7,0.,-20.25));
#2039=CARTESIAN_POINT('',(62.,22.,-20.25));
#2040=CARTESIAN_POINT('',(62.,0.,-20.25));
#2041=CARTESIAN_POINT('',(56.7,22.,-20.25));
#2042=CARTESIAN_POINT('',(56.7,22.,-20.25));
#2043=CARTESIAN_POINT('',(56.7,0.,-20.25));
#2044=CARTESIAN_POINT('Origin',(56.7,0.,-22.75));
#2045=CARTESIAN_POINT('Origin',(56.7,22.,-22.75));
#2046=CARTESIAN_POINT('Origin',(58.1,22.,-24.15));
#2047=CARTESIAN_POINT('',(62.,22.,-28.05));
#2048=CARTESIAN_POINT('',(62.,22.,-26.1));
#2049=CARTESIAN_POINT('',(-1.95,22.,-28.05));
#2050=CARTESIAN_POINT('Origin',(-62.,0.,-28.05));
#2051=CARTESIAN_POINT('',(62.,0.,-28.05));
#2052=CARTESIAN_POINT('Origin',(62.,0.,28.05));
#2053=CARTESIAN_POINT('',(62.,0.,28.05));
#2054=CARTESIAN_POINT('Origin',(62.,0.,-28.05));
#2055=CARTESIAN_POINT('Origin',(69.,0.,35.05));
#2056=CARTESIAN_POINT('Origin',(-69.,0.,35.05));
#2057=UNCERTAINTY_MEASURE_WITH_UNIT(LENGTH_MEASURE(0.01),#2061,
'DISTANCE_ACCURACY_VALUE',
'Maximum model space distance between geometric entities at asserted c
onnectivities');
#2058=UNCERTAINTY_MEASURE_WITH_UNIT(LENGTH_MEASURE(0.01),#2061,
'DISTANCE_ACCURACY_VALUE',
'Maximum model space distance between geometric entities at asserted c
onnectivities');
#2059=(
GEOMETRIC_REPRESENTATION_CONTEXT(3)
GLOBAL_UNCERTAINTY_ASSIGNED_CONTEXT((#2057))
GLOBAL_UNIT_ASSIGNED_CONTEXT((#2061,#2063,#2064))
REPRESENTATION_CONTEXT('','3D')
);
#2060=(
GEOMETRIC_REPRESENTATION_CONTEXT(3)
GLOBAL_UNCERTAINTY_ASSIGNED_CONTEXT((#2058))
GLOBAL_UNIT_ASSIGNED_CONTEXT((#2061,#2063,#2064))
REPRESENTATION_CONTEXT('','3D')
);
#2061=(
LENGTH_UNIT()
NAMED_UNIT(*)
SI_UNIT(.MILLI.,.METRE.)
);
#2062=(
LENGTH_UNIT()
NAMED_UNIT(*)
SI_UNIT($,.METRE.)
);
#2063=(
NAMED_UNIT(*)
PLANE_ANGLE_UNIT()
SI_UNIT($,.RADIAN.)
);
#2064=(
NAMED_UNIT(*)
SI_UNIT($,.STERADIAN.)
SOLID_ANGLE_UNIT()
);
#2065=SHAPE_DEFINITION_REPRESENTATION(#2066,#2067);
#2066=PRODUCT_DEFINITION_SHAPE('',$,#2069);
#2067=SHAPE_REPRESENTATION('',(#1215),#2059);
#2068=PRODUCT_DEFINITION_CONTEXT('part definition',#2073,'design');
#2069=PRODUCT_DEFINITION('bottom_case_geiger_mobile',
'bottom_case_geiger_mobile v9',#2070,#2068);
#2070=PRODUCT_DEFINITION_FORMATION('',$,#2075);
#2071=PRODUCT_RELATED_PRODUCT_CATEGORY('bottom_case_geiger_mobile v9',
'bottom_case_geiger_mobile v9',(#2075));
#2072=APPLICATION_PROTOCOL_DEFINITION('international standard',
'automotive_design',2009,#2073);
#2073=APPLICATION_CONTEXT(
'Core Data for Automotive Mechanical Design Process');
#2074=PRODUCT_CONTEXT('part definition',#2073,'mechanical');
#2075=PRODUCT('bottom_case_geiger_mobile',
'bottom_case_geiger_mobile v9',$,(#2074));
#2076=PRESENTATION_STYLE_ASSIGNMENT((#2077));
#2077=SURFACE_STYLE_USAGE(.BOTH.,#2078);
#2078=SURFACE_SIDE_STYLE('',(#2079));
#2079=SURFACE_STYLE_FILL_AREA(#2080);
#2080=FILL_AREA_STYLE('Steel - Satin',(#2081));
#2081=FILL_AREA_STYLE_COLOUR('Steel - Satin',#2082);
#2082=COLOUR_RGB('Steel - Satin',0.627450980392157,0.627450980392157,0.627450980392157);
ENDSEC;
END-ISO-10303-21;
